<?xml version="1.0" encoding="UTF-8"?><svg id="_レイヤー_1" xmlns="http://www.w3.org/2000/svg" viewBox="0 0 304.94 89.75"><defs><style>.cls-1{fill:red;}</style></defs><path class="cls-1" d="M285.01,49.75c-10.99,0-19.93,8.94-19.93,19.93s8.94,19.93,19.93,19.93,19.93-8.94,19.93-19.93-8.94-19.93-19.93-19.93ZM285.01,81.72c-6.64,0-12.04-5.4-12.04-12.04s5.4-12.04,12.04-12.04,12.04,5.4,12.04,12.04-5.4,12.04-12.04,12.04Z"/><path class="cls-1" d="M198.87,49.85c-2.18,0-3.95,1.77-3.95,3.95v16.36c-.02-1.29-1.07-2.33-2.37-2.33h-29.2c-1.29,0-2.34,1.03-2.36,2.31v-16.34c0-2.18-1.77-3.95-3.95-3.95s-3.95,1.77-3.95,3.95v31.95c0,2.18,1.77,3.95,3.95,3.95s3.95-1.77,3.95-3.95v-15.5c.03,1.28,1.08,2.31,2.36,2.31h29.2c1.29,0,2.34-1.04,2.37-2.33v15.52c0,2.18,1.77,3.95,3.95,3.95s3.95-1.77,3.95-3.95v-31.95c0-2.18-1.77-3.95-3.95-3.95Z"/><path class="cls-1" d="M108.37,49.84h-8.32c-1.31,0-2.37,1.06-2.37,2.37s1.06,2.37,2.37,2.37h8.32c1.31,0,2.37-1.06,2.37-2.37s-1.06-2.37-2.37-2.37Z"/><path class="cls-1" d="M108.37,84.88h-3.96c2.08-.11,3.74-1.82,3.74-3.94v-22.43c0-2.18-1.77-3.95-3.95-3.95s-3.95,1.77-3.95,3.95v22.43c0,2.11,1.66,3.83,3.74,3.94h-3.96c-1.31,0-2.37,1.06-2.37,2.37s1.06,2.37,2.37,2.37h8.32c1.31,0,2.37-1.06,2.37-2.37s-1.06-2.37-2.37-2.37Z"/><path class="cls-1" d="M223.55,49.84h-8.32c-1.31,0-2.37,1.06-2.37,2.37s1.06,2.37,2.37,2.37h8.32c1.31,0,2.37-1.06,2.37-2.37s-1.06-2.37-2.37-2.37Z"/><path class="cls-1" d="M223.55,84.89h-3.96c2.09-.1,3.75-1.82,3.75-3.94v-22.43c0-2.18-1.77-3.95-3.95-3.95s-3.95,1.77-3.95,3.95v22.43c0,2.11,1.66,3.83,3.75,3.94h-3.96c-1.31,0-2.37,1.06-2.37,2.37s1.06,2.37,2.37,2.37h8.32c1.31,0,2.37-1.06,2.37-2.37s-1.06-2.37-2.37-2.37Z"/><path class="cls-1" d="M139.19,57.74c2.18,0,3.95-1.77,3.95-3.95s-1.77-3.95-3.95-3.95c-10.98,0-19.91,8.93-19.91,19.92s8.93,19.91,19.91,19.91c2.18,0,3.95-1.77,3.95-3.95s-1.77-3.95-3.95-3.95c-6.63,0-12.02-5.39-12.02-12.02s5.39-12.02,12.02-12.02Z"/><path class="cls-1" d="M246.23,49.87h-.19c-1.31,0-2.37,1.06-2.37,2.37s1.06,2.37,2.37,2.37h.19c4.37,0,7.93,3.56,7.93,7.93s-3.56,7.93-7.93,7.93c-1.28,0-2.33,1.02-2.36,2.3v-18.97c0-2.18-1.77-3.95-3.95-3.95s-3.95,1.77-3.95,3.95v32.01c0,2.18,1.77,3.95,3.95,3.95s3.95-1.77,3.95-3.95v-12.9c.04,1.28,1.08,2.3,2.36,2.3,6.99,0,12.67-5.68,12.67-12.67s-5.68-12.67-12.67-12.67Z"/><path class="cls-1" d="M251.59,75.88c-.73-1.09-2.2-1.38-3.28-.66s-1.38,2.19-.66,3.28l6.79,10.18c.46.68,1.21,1.05,1.97,1.05.45,0,.91-.13,1.31-.4,1.09-.73,1.38-2.19.66-3.28l-6.79-10.18Z"/><path class="cls-1" d="M35.92,49.85c-2.18,0-3.95,1.77-3.95,3.95,0,6.64-5.4,12.04-12.04,12.04s-12.04-5.4-12.04-12.04c0-2.18-1.77-3.95-3.95-3.95s-3.95,1.77-3.95,3.95c0,10.97,8.92,19.9,19.88,19.93-1.28.03-2.32,1.07-2.32,2.36v11.23c0,1.31,1.06,2.37,2.37,2.37s2.37-1.06,2.37-2.37v-11.23c0-1.29-1.03-2.34-2.32-2.36,10.97-.03,19.88-8.96,19.88-19.93,0-2.18-1.77-3.95-3.95-3.95Z"/><path class="cls-1" d="M83.82,57.77c1.27-.04,2.29-1.08,2.29-2.36v-3.2c0-1.31-1.06-2.37-2.37-2.37s-2.37,1.06-2.37,2.37v3.2c0,1.28,1.02,2.33,2.29,2.36-2.15.04-3.87,1.79-3.87,3.94v8.08c0,6.64-5.4,12.04-12.04,12.04s-12.04-5.4-12.04-12.04v-8.08c0-2.15-1.73-3.9-3.87-3.94,1.27-.04,2.29-1.08,2.29-2.36v-3.2c0-1.31-1.06-2.37-2.37-2.37s-2.37,1.06-2.37,2.37v3.2c0,1.28,1.02,2.33,2.29,2.36-2.15.04-3.87,1.79-3.87,3.94v8.08c0,10.99,8.94,19.93,19.93,19.93s19.93-8.94,19.93-19.93v-8.08c0-2.15-1.73-3.9-3.87-3.94Z"/><path class="cls-1" d="M159,19.99c-.38,0-.76-.11-1.1-.33-.91-.61-1.16-1.83-.55-2.74L168.05.88c.61-.91,1.83-1.15,2.74-.55.91.61,1.16,1.83.55,2.74l-10.69,16.03c-.38.57-1.01.88-1.65.88Z"/><path class="cls-1" d="M184.35,19.99c-.64,0-1.27-.31-1.65-.88l-10.69-16.03c-.61-.91-.36-2.14.55-2.74.91-.61,2.14-.36,2.74.55l10.69,16.03c.61.91.36,2.14-.55,2.74-.34.22-.72.33-1.1.33Z"/><path class="cls-1" d="M177.58,14.76h-11.81c-.66,0-1.19-.53-1.19-1.19s.53-1.19,1.19-1.19h11.81c.66,0,1.19.53,1.19,1.19s-.53,1.19-1.19,1.19Z"/><path class="cls-1" d="M149.56,19.99c-.66,0-1.19-.53-1.19-1.19V5.14c0-.66.53-1.19,1.19-1.19s1.19.53,1.19,1.19v13.65c0,.66-.53,1.19-1.19,1.19Z"/><path class="cls-1" d="M153.97,3.96h-8.83c-1.09,0-1.98-.89-1.98-1.98s.89-1.98,1.98-1.98h8.83c1.09,0,1.98.89,1.98,1.98s-.89,1.98-1.98,1.98Z"/><path class="cls-1" d="M193.8,19.99c-.66,0-1.19-.53-1.19-1.19V5.14c0-.66.53-1.19,1.19-1.19s1.19.53,1.19,1.19v13.65c0,.66-.53,1.19-1.19,1.19Z"/><path class="cls-1" d="M198.21,3.96h-8.83c-1.09,0-1.98-.89-1.98-1.98s.89-1.98,1.98-1.98h8.83c1.09,0,1.98.89,1.98,1.98s-.89,1.98-1.98,1.98Z"/><path class="cls-1" d="M210.81,2.37h-4.17c-.66,0-1.19-.53-1.19-1.19s.53-1.19,1.19-1.19h4.17c.66,0,1.19.53,1.19,1.19s-.53,1.19-1.19,1.19Z"/><path class="cls-1" d="M210.81,19.99h-4.17c-.66,0-1.19-.53-1.19-1.19s.53-1.19,1.19-1.19h4.17c.66,0,1.19.53,1.19,1.19s-.53,1.19-1.19,1.19Z"/><path class="cls-1" d="M208.7,17.62h0c-1.09,0-1.98-.89-1.98-1.98l.02-11.29c0-1.09.89-1.98,1.98-1.98h0c1.09,0,1.98.89,1.98,1.98l-.02,11.29c0,1.09-.89,1.98-1.98,1.98Z"/><path class="cls-1" d="M86.97,11.97c-3.3,0-5.99-2.69-5.99-5.99s2.69-5.99,5.99-5.99c1.09,0,1.98.89,1.98,1.98s-.89,1.98-1.98,1.98-2.03.91-2.03,2.03.91,2.03,2.03,2.03,1.98.89,1.98,1.98-.89,1.98-1.98,1.98Z"/><path class="cls-1" d="M90.04,19.99c-.66,0-1.19-.53-1.19-1.19s.53-1.19,1.19-1.19c1.56,0,2.82-1.27,2.82-2.82s-1.27-2.82-2.82-2.82c-.66,0-1.19-.53-1.19-1.19s.53-1.19,1.19-1.19c2.87,0,5.2,2.33,5.2,5.2s-2.33,5.2-5.2,5.2Z"/><path class="cls-1" d="M33.69,19.99c-.66,0-1.19-.53-1.19-1.19V1.19c0-.66.53-1.19,1.19-1.19s1.19.53,1.19,1.19v17.62c0,.66-.53,1.19-1.19,1.19Z"/><path class="cls-1" d="M36.85,12.77c-1.09,0-1.98-.89-1.98-1.98s.89-1.98,1.98-1.98c1.34,0,2.43-1.09,2.43-2.43s-1.09-2.43-2.43-2.43c-1.09,0-1.98-.89-1.98-1.98S35.76,0,36.85,0c3.52,0,6.38,2.86,6.38,6.38s-2.86,6.38-6.38,6.38Z"/><path class="cls-1" d="M230.17,19.99c-.38,0-.76-.19-.99-.53l-11.74-17.61c-.36-.55-.22-1.28.33-1.65.55-.36,1.28-.22,1.65.33l11.74,17.61c.36.55.22,1.28-.33,1.65-.2.13-.43.2-.66.2Z"/><path class="cls-1" d="M233.24,20c-.38,0-.76-.11-1.1-.33-.91-.61-1.16-1.83-.55-2.74L242.28.89c.61-.91,1.83-1.15,2.74-.55.91.61,1.16,1.83.55,2.74l-10.69,16.03c-.38.57-1.01.88-1.65.88Z"/><path class="cls-1" d="M260.48,2.37h-4.27c-.66,0-1.19-.53-1.19-1.19s.53-1.19,1.19-1.19h4.27c.66,0,1.19.53,1.19,1.19s-.53,1.19-1.19,1.19Z"/><path class="cls-1" d="M260.48,20h-4.27c-.66,0-1.19-.53-1.19-1.19s.53-1.19,1.19-1.19h4.27c.66,0,1.19.53,1.19,1.19s-.53,1.19-1.19,1.19Z"/><path class="cls-1" d="M253.14,20c-1.09,0-1.98-.89-1.98-1.98V1.99c0-1.09.89-1.98,1.98-1.98s1.98.89,1.98,1.98v16.03c0,1.09-.89,1.98-1.98,1.98Z"/><path class="cls-1" d="M260.48,11.19h-4.17c-.66,0-1.19-.53-1.19-1.19s.53-1.19,1.19-1.19h4.17c.66,0,1.19.53,1.19,1.19s-.53,1.19-1.19,1.19Z"/><path class="cls-1" d="M109.8,2.37h-4.27c-.66,0-1.19-.53-1.19-1.19s.53-1.19,1.19-1.19h4.27c.66,0,1.19.53,1.19,1.19s-.53,1.19-1.19,1.19Z"/><path class="cls-1" d="M109.8,20h-4.27c-.66,0-1.19-.53-1.19-1.19s.53-1.19,1.19-1.19h4.27c.66,0,1.19.53,1.19,1.19s-.53,1.19-1.19,1.19Z"/><path class="cls-1" d="M102.46,20c-1.09,0-1.98-.89-1.98-1.98V1.99c0-1.09.89-1.98,1.98-1.98s1.98.89,1.98,1.98v16.03c0,1.09-.89,1.98-1.98,1.98Z"/><path class="cls-1" d="M109.8,11.19h-4.17c-.66,0-1.19-.53-1.19-1.19s.53-1.19,1.19-1.19h4.17c.66,0,1.19.53,1.19,1.19s-.53,1.19-1.19,1.19Z"/><path class="cls-1" d="M74.55,2.37h-4.27c-.66,0-1.19-.53-1.19-1.19s.53-1.19,1.19-1.19h4.27c.66,0,1.19.53,1.19,1.19s-.53,1.19-1.19,1.19Z"/><path class="cls-1" d="M74.55,20h-4.27c-.66,0-1.19-.53-1.19-1.19s.53-1.19,1.19-1.19h4.27c.66,0,1.19.53,1.19,1.19s-.53,1.19-1.19,1.19Z"/><path class="cls-1" d="M67.21,20c-1.09,0-1.98-.89-1.98-1.98V1.99c0-1.09.89-1.98,1.98-1.98s1.98.89,1.98,1.98v16.03c0,1.09-.89,1.98-1.98,1.98Z"/><path class="cls-1" d="M74.55,11.19h-4.17c-.66,0-1.19-.53-1.19-1.19s.53-1.19,1.19-1.19h4.17c.66,0,1.19.53,1.19,1.19s-.53,1.19-1.19,1.19Z"/><path class="cls-1" d="M26.06,2.37h-4.27c-.66,0-1.19-.53-1.19-1.19s.53-1.19,1.19-1.19h4.27c.66,0,1.19.53,1.19,1.19s-.53,1.19-1.19,1.19Z"/><path class="cls-1" d="M26.06,20h-4.27c-.66,0-1.19-.53-1.19-1.19s.53-1.19,1.19-1.19h4.27c.66,0,1.19.53,1.19,1.19s-.53,1.19-1.19,1.19Z"/><path class="cls-1" d="M18.72,20c-1.09,0-1.98-.89-1.98-1.98V1.99C16.75.89,17.63,0,18.72,0s1.98.89,1.98,1.98v16.03c0,1.09-.89,1.98-1.98,1.98Z"/><path class="cls-1" d="M26.06,11.19h-4.17c-.66,0-1.19-.53-1.19-1.19s.53-1.19,1.19-1.19h4.17c.66,0,1.19.53,1.19,1.19s-.53,1.19-1.19,1.19Z"/><path class="cls-1" d="M132.87,20c-.38,0-.76-.19-.99-.53L120.13,1.85c-.36-.55-.22-1.28.33-1.65.55-.36,1.28-.22,1.65.33l11.75,17.63c.36.55.22,1.28-.33,1.65-.2.13-.43.2-.66.2Z"/><path class="cls-1" d="M118.05,20c-1.09,0-1.98-.89-1.98-1.98V1.99c0-1.09.89-1.98,1.98-1.98s1.98.89,1.98,1.98v16.03c0,1.09-.89,1.98-1.98,1.98Z"/><path class="cls-1" d="M135.93,20c-1.09,0-1.98-.89-1.98-1.98V1.99c0-1.09.89-1.98,1.98-1.98s1.98.89,1.98,1.98v16.03c0,1.09-.89,1.98-1.98,1.98Z"/><path class="cls-1" d="M53.63,12.71c-.66,0-1.19-.53-1.19-1.19s.53-1.19,1.19-1.19c2.19,0,3.98-1.79,3.98-3.98s-1.79-3.98-3.98-3.98h-.1c-.66,0-1.19-.53-1.19-1.19s.53-1.19,1.19-1.19h.1c3.5,0,6.35,2.85,6.35,6.35s-2.85,6.35-6.35,6.35Z"/><path class="cls-1" d="M58.79,19.99c-.38,0-.76-.19-.99-.53l-3.41-5.12c-.36-.55-.22-1.28.33-1.65.55-.36,1.28-.22,1.65.33l3.41,5.12c.36.55.22,1.28-.33,1.65-.2.13-.43.2-.66.2Z"/><path class="cls-1" d="M50.46,20c-1.09,0-1.98-.89-1.98-1.98V1.99c0-1.09.89-1.98,1.98-1.98s1.98.89,1.98,1.98v16.03c0,1.09-.89,1.98-1.98,1.98Z"/><path class="cls-1" d="M5.14,12.71c-.66,0-1.19-.53-1.19-1.19s.53-1.19,1.19-1.19c2.19,0,3.98-1.79,3.98-3.98s-1.79-3.98-3.98-3.98h-.1c-.66,0-1.19-.53-1.19-1.19s.53-1.19,1.19-1.19h.1c3.5,0,6.35,2.85,6.35,6.35s-2.85,6.35-6.35,6.35Z"/><path class="cls-1" d="M10.31,19.99c-.38,0-.76-.19-.99-.53l-3.41-5.12c-.36-.55-.22-1.28.33-1.65.55-.36,1.28-.22,1.65.33l3.41,5.12c.36.55.22,1.28-.33,1.65-.2.13-.43.2-.66.2Z"/><path class="cls-1" d="M1.98,20c-1.09,0-1.98-.89-1.98-1.98V1.99C0,.89.89,0,1.98,0s1.98.89,1.98,1.98v16.03c0,1.09-.89,1.98-1.98,1.98Z"/></svg>