<?xml version="1.0" encoding="UTF-8"?><svg id="_レイヤー_1" xmlns="http://www.w3.org/2000/svg" viewBox="0 0 1440 898"><defs><style>.cls-1{fill:#fff;}.cls-2{fill:red;}</style></defs><path class="cls-2" d="M1440,178c0,397.65-322.38,720-720,720S0,575.65,0,178V0h1440v178Z"/><path class="cls-1" d="M451.91,294.22c-1.51,0-2.26-1.16-2.26-2.9s.75-2.84,2.26-2.84h4.99c.46-2.67.87-5.39,1.16-8.06.12-1.45,1.1-2.32,2.78-2.32.23,0,.41,0,.64.06,1.97.17,2.96,1.16,2.96,2.73v.17c-.35,2.49-.75,4.99-1.28,7.42h4.29c3.71,0,5.51,1.51,5.51,5.28v.7c-.75,8.06-2.73,15.2-5.86,21.23,1.68,1.51,3.31,3.07,4.76,4.58.52.64.87,1.39.87,2.15s-.29,1.57-.93,2.26c-.7.7-1.51,1.16-2.38,1.16-.75,0-1.45-.29-2.15-1.04-1.04-1.16-2.2-2.44-3.48-3.71-2.61,3.65-5.68,6.73-9.28,9.28-.64.46-1.33.64-1.97.64-.99,0-1.91-.46-2.55-1.45-.41-.58-.64-1.28-.64-1.97,0-.93.41-1.8,1.22-2.38,3.36-2.26,6.26-4.99,8.7-8.29-2.03-1.68-4.06-3.31-6.03-4.7-1.39-.99-2.03-2.2-2.03-3.71,0-.81.17-1.74.58-2.73,1.39-3.31,2.73-7.25,3.83-11.54h-3.71ZM461.83,294.22c-1.1,4.47-2.44,8.64-3.77,12.12-.17.46-.29.87-.29,1.22,0,.46.23.87.87,1.33,1.22.87,2.49,1.86,3.77,2.84,2.26-4.58,3.77-9.86,4.35-15.95v-.46c0-.81-.35-1.1-1.28-1.1h-3.65ZM491.29,324.96c0,4.52-2.96,6.44-7.89,6.44-2.09,0-4.58-.23-6.15-.58-1.22-.23-2.2-1.22-2.2-2.78,0-.23,0-.46.06-.7.29-1.8,1.39-2.67,2.67-2.67.17,0,.41,0,.58.06,1.16.23,3.07.46,4.29.46,1.62,0,2.15-.41,2.15-1.91v-14.96h-9.69c-1.45,0-2.26-1.16-2.26-3.02s.81-3.02,2.26-3.02h9.69v-6.26c0-1.91,1.33-2.61,3.25-2.61h.12c2.38-1.8,4.41-3.71,5.8-5.68.23-.35.35-.58.35-.75,0-.29-.29-.41-.87-.41h-16.7c-1.51,0-2.44-1.22-2.44-3.07s.93-3.02,2.44-3.02h20.42c3.48,0,5.1,2.03,5.1,4.35,0,1.04-.35,2.15-.99,3.13-2.32,3.65-5.8,6.9-9.98,10.09v4.23h10.5c1.51,0,2.32,1.16,2.32,3.02s-.81,3.02-2.32,3.02h-10.5v16.65Z"/><path class="cls-1" d="M546.97,309.3c-2.2-2.09-4.29-4.58-6.21-7.37-7.08.99-15.08,1.68-23.37,1.8-1.91,0-3.07-1.1-3.13-2.78v-.17c0-1.91,1.04-2.9,2.84-2.96,6.5-.06,13.28-.46,20.36-1.39-.87-1.45-1.74-3.13-2.61-4.87-5.74.7-12.01,1.1-17.92,1.16-2.03,0-3.07-1.1-3.13-2.96,0-1.74,1.1-2.9,2.73-2.9,5.22-.06,10.79-.35,15.72-.87-.46-1.1-.87-2.26-1.39-3.42-.17-.41-.23-.81-.23-1.16,0-1.22.87-2.32,2.44-2.61.52-.12.93-.17,1.33-.17,1.45,0,2.38.64,3.07,2.44.46,1.33,1.04,2.73,1.57,4.06,5.1-.7,9.74-1.62,13.8-2.67.46-.12.81-.17,1.22-.17,1.22,0,2.09.64,2.49,2.15.12.35.17.75.17,1.1,0,1.22-.7,2.15-2.15,2.55-3.94,1.04-8.35,1.91-13.28,2.73.81,1.74,1.62,3.31,2.55,4.76,4.29-.7,8.41-1.57,12.12-2.55.41-.12.81-.17,1.16-.17,1.39,0,2.32.7,2.67,2.15.06.41.12.75.12,1.1,0,1.33-.75,2.15-2.44,2.67-2.84.7-6.21,1.45-10.09,2.15,1.8,2.84,4.52,6.15,7.71,9.34.93.93,1.22,1.8,1.22,2.84,0,1.86-1.57,3.6-3.31,3.6-1.22,0-1.74-.17-3.31-.99-4.12-1.91-8.87-3.02-14.79-3.02-8.64,0-11.54,2.44-11.54,5.63,0,3.48,3.48,5.28,12.59,5.28,4.64,0,9.74-.7,14.15-2.03.41-.12.87-.17,1.28-.17,1.45,0,2.61.75,3.02,2.38.06.41.12.81.12,1.16,0,1.51-.87,2.61-2.38,3.07-4.93,1.45-10.21,2.03-16.41,2.03-12.93,0-19.31-4.23-19.31-11.48,0-6.67,6.09-11.31,18.21-11.31,4.7,0,8.93.75,12.18,2.32l.17-.23Z"/><path class="cls-1" d="M578.64,319.8c-.75,1.39-1.8,2.09-3.07,2.09-.7,0-1.45-.23-2.26-.75-1.1-.64-1.57-1.62-1.57-2.73,0-.75.23-1.57.7-2.38,3.71-6.32,7.31-14.04,9.51-21.11-1.62.06-3.42.06-5.22.06h-2.32c-1.8-.06-2.78-1.28-2.78-3.25s1.1-3.25,2.96-3.25h3.83c1.86,0,3.71,0,5.45-.06.7-2.55,1.22-5.1,1.68-7.6.23-1.68,1.45-2.55,3.13-2.55.29,0,.58,0,.87.06,1.8.35,2.84,1.22,2.84,2.84,0,.29-.06.58-.12.93-.35,1.68-.81,3.71-1.33,5.8,2.32-.17,4.47-.35,6.44-.64.17-.06.41-.06.58-.06,1.62,0,2.55,1.04,2.84,2.78v.46c0,1.62-.87,2.78-2.73,3.13-2.73.46-5.86.7-8.93.93-2.49,8.47-6.5,18.15-10.5,25.29ZM611.58,320.55c0,6.09-3.65,9.92-12.82,9.92-7.83,0-12.88-4.06-12.88-10.15s5.22-10.44,12.88-10.44c2.2,0,4.12.23,6.03.7-.29-2.73-.52-6.21-.52-9.34,0-2.15,1.39-3.02,3.25-3.02s3.31.93,3.31,3.02c0,3.89.23,7.66.64,11.31,3.65,1.74,7.37,4.29,10.21,7.08.75.75,1.1,1.57,1.1,2.44,0,.81-.29,1.62-.87,2.32-.7.81-1.51,1.28-2.38,1.28-.75,0-1.51-.35-2.2-.99-1.8-1.8-3.94-3.6-5.74-4.7v.58ZM598.94,315.62c-4,0-6.55,1.8-6.55,4.58,0,2.61,2.38,4.18,6.32,4.18,4.35,0,6.55-1.51,6.55-5.22,0-.7,0-1.33-.06-2.2-1.74-.87-4.06-1.33-6.26-1.33ZM620.98,292.54c.99.7,1.45,1.68,1.45,2.73,0,.7-.23,1.39-.64,2.03-.64.93-1.62,1.45-2.67,1.45-.7,0-1.39-.23-2.09-.64-3.19-2.2-7.31-4.41-11.19-6.03-1.04-.46-1.57-1.51-1.57-2.55,0-.64.17-1.33.58-1.91.75-1.1,1.8-1.62,2.84-1.62.52,0,1.04.12,1.57.29,4,1.57,8.58,4,11.72,6.26Z"/><path class="cls-1" d="M641.16,328.79c-.52.23-1.1.35-1.68.35-1.28,0-2.38-.58-3.07-1.86-.29-.7-.46-1.39-.46-2.03,0-1.33.75-2.49,2.2-3.19,6.61-2.9,14.44-8.24,20.18-15.54-4.93-4.35-10.15-8.18-15.49-11.77-.81-.52-1.22-1.39-1.22-2.32,0-.81.35-1.68,1.04-2.44.7-.81,1.62-1.22,2.55-1.22.81,0,1.62.29,2.44.75,4.81,3.07,9.92,6.84,14.79,11.02,3.02-4.99,5.45-11.14,7.08-17.63.46-1.91,1.57-2.9,3.13-2.9.46,0,.93.06,1.39.23,1.91.52,2.9,1.74,2.9,3.36,0,.41-.06.81-.17,1.28-1.86,7.37-4.99,14.73-8.64,20.59,4.06,3.6,7.83,7.54,11.08,11.54.64.75.99,1.68.99,2.55,0,1.04-.41,2.03-1.33,2.9-.75.64-1.62.99-2.49.99-1.04,0-2.09-.46-2.9-1.39-3.13-3.83-6.38-7.37-9.69-10.56-6.15,7.89-14.91,14.04-22.62,17.28Z"/><path class="cls-1" d="M743.53,292.13c0,.46-.06.87-.17,1.39-2.2,9.34-7.83,19.02-15.89,25.11-7.08,5.45-17.98,8.82-26.91,9.05h-.12c-2.26,0-3.6-1.22-3.77-3.31v-.41c0-1.97,1.22-3.6,3.31-3.71,8-.41,17.63-3.6,23.32-8.06,6.26-4.99,10.96-12.99,12.99-20.65.7-2.2,1.8-3.02,3.19-3.02.46,0,.99.06,1.45.23,1.74.52,2.61,1.68,2.61,3.36ZM715.35,294.28c.7.81.99,1.74.99,2.61,0,.99-.41,1.97-1.1,2.78-.75.81-1.74,1.28-2.78,1.28-.99,0-1.97-.41-2.78-1.33-3.02-3.36-7.42-7.25-11.14-9.8-.87-.64-1.22-1.57-1.22-2.49s.35-1.86.99-2.55c.81-.93,1.86-1.33,2.84-1.33.75,0,1.51.23,2.09.64,4.06,2.55,9.05,6.55,12.12,10.21Z"/><path class="cls-1" d="M772.36,286.91v.17c-.29,7.25-1.39,14.62-2.96,20.36-2.09,7.89-5.39,14.33-9.05,18.85-.87,1.16-2.09,1.74-3.31,1.74-.93,0-1.91-.35-2.67-1.04s-1.16-1.68-1.16-2.73c0-.93.35-1.91.99-2.73,3.36-4,6.26-9.57,8.12-16.47,1.45-4.93,2.44-11.72,2.67-18.33.12-2.2,1.51-3.36,3.6-3.36h.29c2.38.12,3.48,1.51,3.48,3.54ZM788.89,283.38c2.26,0,3.65,1.28,3.71,3.36.12,6.44,1.45,13.17,2.96,18.33,1.8,6.5,4.81,11.95,8.35,16.24.58.75.93,1.74.93,2.67,0,1.1-.46,2.26-1.39,3.07-.75.64-1.68.93-2.61.93-1.1,0-2.26-.52-3.13-1.57-3.77-4.64-7.02-10.9-9.16-18.68-1.74-6.03-3.02-13.63-3.25-20.65v-.17c0-2.03,1.1-3.42,3.31-3.54h.29ZM800.49,286.8c0,.93-.52,1.68-1.51,2.09-.35.17-.81.23-1.22.23-.93,0-1.8-.46-2.2-1.33-.7-1.8-1.74-3.94-2.78-5.8-.17-.35-.23-.7-.23-1.04,0-.93.58-1.74,1.57-2.15.41-.17.81-.23,1.22-.23.81,0,1.57.41,1.97,1.16,1.22,1.91,2.26,4.12,2.96,5.97.17.35.23.75.23,1.1ZM802.4,276.71c.93,0,1.74.52,2.26,1.39,1.04,1.68,1.97,3.71,2.55,5.45.12.35.17.7.17.99,0,1.04-.58,1.86-1.51,2.2-.35.12-.7.17-1.04.17-.93,0-1.8-.46-2.2-1.51-.7-1.74-1.62-3.89-2.55-5.39-.17-.35-.23-.75-.23-1.1,0-.93.58-1.74,1.57-2.03.35-.12.64-.17.99-.17Z"/><path class="cls-1" d="M818.18,309.19c-2.03,0-3.13-1.62-3.13-3.83s1.1-3.83,3.19-3.83h42.8c2.09,0,3.19,1.62,3.19,3.83s-1.1,3.83-3.19,3.83h-42.86Z"/><path class="cls-1" d="M914.81,291.03c.46-.12.87-.17,1.28-.17,1.62,0,2.67.87,3.07,2.49.12.41.17.81.17,1.22,0,1.51-.87,2.67-2.67,3.13-6.5,1.57-14.27,4.06-20.07,6.67-6.9,3.07-10.56,6.9-10.56,10.85,0,4.47,3.71,6.61,14.67,6.61,5.51,0,11.54-.64,15.89-1.51.35-.06.64-.12.99-.12,1.8,0,3.02,1.1,3.31,3.02.06.29.06.52.06.81,0,1.86-1.04,3.13-3.13,3.54-4.35.87-10.21,1.33-17.11,1.33-16.07,0-21.87-5.1-21.87-13.75,0-6.55,5.05-12.24,13.17-16.12-1.62-4.99-3.02-10.85-3.94-16.12-.06-.23-.06-.41-.06-.64,0-1.8,1.33-2.96,3.02-3.25.29-.06.58-.06.87-.06,1.74,0,3.07.93,3.36,2.78.81,4.58,1.97,9.98,3.48,14.5,5.22-2.09,11.25-4.12,16.07-5.22Z"/><path class="cls-1" d="M947.17,314.87c.87,0,1.68.35,2.44.93,3.07,2.49,6.96,6.67,9.22,9.86.52.7.81,1.51.81,2.32,0,.99-.46,1.97-1.39,2.73-.75.58-1.62.87-2.49.87-1.04,0-2.09-.46-2.84-1.45-2.38-3.19-5.68-6.96-8.64-9.69-.58-.52-.87-1.28-.87-2.03,0-.93.46-1.91,1.33-2.61.75-.64,1.62-.93,2.44-.93Z"/><path class="cls-1" d="M302.27,378.22c-1.51,0-2.26-1.16-2.26-2.9s.75-2.84,2.26-2.84h4.99c.46-2.67.87-5.39,1.16-8.06.12-1.45,1.1-2.32,2.78-2.32.23,0,.41,0,.64.06,1.97.17,2.96,1.16,2.96,2.73v.17c-.35,2.49-.75,4.99-1.28,7.42h4.29c3.71,0,5.51,1.51,5.51,5.28v.7c-.75,8.06-2.73,15.2-5.86,21.23,1.68,1.51,3.31,3.07,4.76,4.58.52.64.87,1.39.87,2.15s-.29,1.57-.93,2.26c-.7.7-1.51,1.16-2.38,1.16-.75,0-1.45-.29-2.15-1.04-1.04-1.16-2.2-2.44-3.48-3.71-2.61,3.65-5.68,6.73-9.28,9.28-.64.46-1.33.64-1.97.64-.99,0-1.91-.46-2.55-1.45-.41-.58-.64-1.28-.64-1.97,0-.93.41-1.8,1.22-2.38,3.36-2.26,6.26-4.99,8.7-8.29-2.03-1.68-4.06-3.31-6.03-4.7-1.39-.99-2.03-2.2-2.03-3.71,0-.81.17-1.74.58-2.73,1.39-3.31,2.73-7.25,3.83-11.54h-3.71ZM312.19,378.22c-1.1,4.47-2.44,8.64-3.77,12.12-.17.46-.29.87-.29,1.22,0,.46.23.87.87,1.33,1.22.87,2.49,1.86,3.77,2.84,2.26-4.58,3.77-9.86,4.35-15.95v-.46c0-.81-.35-1.1-1.28-1.1h-3.65ZM341.65,408.96c0,4.52-2.96,6.44-7.89,6.44-2.09,0-4.58-.23-6.15-.58-1.22-.23-2.2-1.22-2.2-2.78,0-.23,0-.46.06-.7.29-1.8,1.39-2.67,2.67-2.67.17,0,.41,0,.58.06,1.16.23,3.07.46,4.29.46,1.62,0,2.15-.41,2.15-1.91v-14.96h-9.69c-1.45,0-2.26-1.16-2.26-3.02s.81-3.02,2.26-3.02h9.69v-6.26c0-1.91,1.33-2.61,3.25-2.61h.12c2.38-1.8,4.41-3.71,5.8-5.68.23-.35.35-.58.35-.75,0-.29-.29-.41-.87-.41h-16.7c-1.51,0-2.44-1.22-2.44-3.07s.93-3.02,2.44-3.02h20.42c3.48,0,5.1,2.03,5.1,4.35,0,1.04-.35,2.15-.99,3.13-2.32,3.65-5.8,6.9-9.98,10.09v4.23h10.5c1.51,0,2.32,1.16,2.32,3.02s-.81,3.02-2.32,3.02h-10.5v16.65Z"/><path class="cls-1" d="M398.49,393.3c-2.2-2.09-4.29-4.58-6.21-7.37-7.08.99-15.08,1.68-23.37,1.8-1.91,0-3.07-1.1-3.13-2.78v-.17c0-1.91,1.04-2.9,2.84-2.96,6.5-.06,13.28-.46,20.36-1.39-.87-1.45-1.74-3.13-2.61-4.87-5.74.7-12.01,1.1-17.92,1.16-2.03,0-3.07-1.1-3.13-2.96,0-1.74,1.1-2.9,2.73-2.9,5.22-.06,10.79-.35,15.72-.87-.46-1.1-.87-2.26-1.39-3.42-.17-.41-.23-.81-.23-1.16,0-1.22.87-2.32,2.44-2.61.52-.12.93-.17,1.33-.17,1.45,0,2.38.64,3.07,2.44.46,1.33,1.04,2.73,1.57,4.06,5.1-.7,9.74-1.62,13.8-2.67.46-.12.81-.17,1.22-.17,1.22,0,2.09.64,2.49,2.15.12.35.17.75.17,1.1,0,1.22-.7,2.15-2.15,2.55-3.94,1.04-8.35,1.91-13.28,2.73.81,1.74,1.62,3.31,2.55,4.76,4.29-.7,8.41-1.57,12.12-2.55.41-.12.81-.17,1.16-.17,1.39,0,2.32.7,2.67,2.15.06.41.12.75.12,1.1,0,1.33-.75,2.15-2.44,2.67-2.84.7-6.21,1.45-10.09,2.15,1.8,2.84,4.52,6.15,7.71,9.34.93.93,1.22,1.8,1.22,2.84,0,1.86-1.57,3.6-3.31,3.6-1.22,0-1.74-.17-3.31-.99-4.12-1.91-8.87-3.02-14.79-3.02-8.64,0-11.54,2.44-11.54,5.63,0,3.48,3.48,5.28,12.59,5.28,4.64,0,9.74-.7,14.15-2.03.41-.12.87-.17,1.28-.17,1.45,0,2.61.75,3.02,2.38.06.41.12.81.12,1.16,0,1.51-.87,2.61-2.38,3.07-4.93,1.45-10.21,2.03-16.41,2.03-12.93,0-19.31-4.23-19.31-11.48,0-6.67,6.09-11.31,18.21-11.31,4.7,0,8.93.75,12.18,2.32l.17-.23Z"/><path class="cls-1" d="M431.32,403.8c-.75,1.39-1.8,2.09-3.07,2.09-.7,0-1.45-.23-2.26-.75-1.1-.64-1.57-1.62-1.57-2.73,0-.75.23-1.57.7-2.38,3.71-6.32,7.31-14.04,9.51-21.11-1.62.06-3.42.06-5.22.06h-2.32c-1.8-.06-2.78-1.28-2.78-3.25s1.1-3.25,2.96-3.25h3.83c1.86,0,3.71,0,5.45-.06.7-2.55,1.22-5.1,1.68-7.6.23-1.68,1.45-2.55,3.13-2.55.29,0,.58,0,.87.06,1.8.35,2.84,1.22,2.84,2.84,0,.29-.06.58-.12.93-.35,1.68-.81,3.71-1.33,5.8,2.32-.17,4.47-.35,6.44-.64.17-.06.41-.06.58-.06,1.62,0,2.55,1.04,2.84,2.78v.46c0,1.62-.87,2.78-2.73,3.13-2.73.46-5.86.7-8.93.93-2.49,8.47-6.5,18.15-10.5,25.29ZM464.26,404.55c0,6.09-3.65,9.92-12.82,9.92-7.83,0-12.88-4.06-12.88-10.15s5.22-10.44,12.88-10.44c2.2,0,4.12.23,6.03.7-.29-2.73-.52-6.21-.52-9.34,0-2.15,1.39-3.02,3.25-3.02s3.31.93,3.31,3.02c0,3.89.23,7.66.64,11.31,3.65,1.74,7.37,4.29,10.21,7.08.75.75,1.1,1.57,1.1,2.44,0,.81-.29,1.62-.87,2.32-.7.81-1.51,1.28-2.38,1.28-.75,0-1.51-.35-2.2-.99-1.8-1.8-3.94-3.6-5.74-4.7v.58ZM451.62,399.62c-4,0-6.55,1.8-6.55,4.58,0,2.61,2.38,4.18,6.32,4.18,4.35,0,6.55-1.51,6.55-5.22,0-.7,0-1.33-.06-2.2-1.74-.87-4.06-1.33-6.26-1.33ZM473.66,376.54c.99.7,1.45,1.68,1.45,2.73,0,.7-.23,1.39-.64,2.03-.64.93-1.62,1.45-2.67,1.45-.7,0-1.39-.23-2.09-.64-3.19-2.2-7.31-4.41-11.19-6.03-1.04-.46-1.57-1.51-1.57-2.55,0-.64.17-1.33.58-1.91.75-1.1,1.8-1.62,2.84-1.62.52,0,1.04.12,1.57.29,4,1.57,8.58,4,11.72,6.26Z"/><path class="cls-1" d="M491.99,398.93c-1.45,0-2.32-1.1-2.32-2.84s.87-2.9,2.32-2.9h38.86c1.45,0,2.26,1.1,2.26,2.84s-.81,2.9-2.26,2.9h-16.53v9.51h21.29c1.45,0,2.26,1.1,2.26,2.84s-.81,2.96-2.26,2.96h-48.43c-1.45,0-2.26-1.16-2.26-2.9s.81-2.9,2.26-2.9h20.65v-9.51h-15.83ZM531.2,367.38c3.89,0,5.97,1.91,5.97,5.57v3.19c0,1.39-1.28,2.15-3.07,2.15s-3.13-.75-3.13-2.15v-1.28c0-1.28-.64-1.74-1.8-1.74h-9.69v8.41c0,1.51.06,1.74,4.18,1.74,3.48,0,4.41-.23,4.87-.81.35-.41.35-.87.52-1.8.23-1.16,1.1-1.68,2.38-1.68.29,0,.64,0,.99.06,1.86.35,2.73,1.1,2.73,2.67v.41c-.23,2.49-.75,3.6-1.68,4.52-1.28,1.33-2.78,1.86-7.54,2.09-1.04.06-2.09.06-3.02.06-2.44,0-4.47-.17-6.15-.52-2.2-.52-3.42-1.86-3.42-4.7v-10.44h-5.28c-.87,10.44-6.84,15.54-18.04,17.81-.35.06-.64.12-.93.12-1.45,0-2.32-.87-2.67-2.44-.06-.29-.12-.58-.12-.81,0-1.33.81-2.2,2.38-2.55,8.41-1.8,12.7-4.87,13.22-12.12h-8c-1.22,0-1.8.46-1.8,1.74v4.18c0,1.51-1.28,2.26-3.19,2.26s-3.07-.75-3.07-2.26v-6.09c0-3.65,2.09-5.57,5.97-5.57h16.01v-3.6c0-1.51,1.04-2.09,3.25-2.09s3.25.58,3.25,2.09v3.6h16.88Z"/><path class="cls-1" d="M555.21,413.78c0,1.45-1.22,2.2-3.19,2.2-1.86,0-3.07-.75-3.07-2.2v-45.24c0-3.48,1.62-5.39,5.57-5.39h11.83c3.83,0,5.51,1.45,5.51,4.87v10.73c0,3.42-1.68,4.87-5.51,4.87h-11.14v30.16ZM565.94,369.12c0-1.04-.46-1.33-1.45-1.33h-7.89c-.99,0-1.39.29-1.39,1.33v2.2h10.73v-2.2ZM564.49,379.09c.99,0,1.45-.29,1.45-1.28v-2.2h-10.73v3.48h9.28ZM580.79,386.75c3.94,0,5.45,1.39,5.45,5.22v13.17c0,3.83-1.51,5.34-5.45,5.34h-14.04c-3.83,0-5.39-1.51-5.39-5.34v-13.17c0-3.83,1.57-5.22,5.39-5.22h14.04ZM580.38,392.9c0-.99-.41-1.28-1.39-1.28h-10.38c-.99,0-1.39.29-1.39,1.28v3.13h13.17v-3.13ZM567.21,404.26c0,.93.41,1.22,1.39,1.22h10.38c.99,0,1.39-.29,1.39-1.22v-3.48h-13.17v3.48ZM581.08,383.62c-3.83,0-5.51-1.45-5.51-4.87v-10.73c0-3.42,1.68-4.87,5.51-4.87h12.47c3.94,0,5.57,1.91,5.57,5.39v40.43c0,4.41-2.09,6.32-7.13,6.32-1.57,0-3.48-.12-4.81-.35-1.28-.23-2.15-1.16-2.15-2.78,0-.17,0-.41.06-.58.12-1.62,1.22-2.55,2.26-2.55.12,0,.23,0,.35.06.93.17,2.38.29,3.25.29,1.57,0,2.03-.46,2.03-2.2v-23.55h-11.89ZM592.97,369.12c0-1.04-.35-1.33-1.39-1.33h-8.64c-1.04,0-1.51.29-1.51,1.33v2.2h11.54v-2.2ZM592.97,375.61h-11.54v2.2c0,.99.46,1.28,1.51,1.28h10.03v-3.48Z"/><path class="cls-1" d="M624.52,383.67c3.42-2.38,6.26-3.48,9.51-3.48,4.35,0,7.25,1.91,8.18,6.5,4.47-1.57,8.99-2.96,12.76-4.06.52-.12.93-.17,1.39-.17,1.45,0,2.49.75,2.9,2.26.12.41.17.81.17,1.22,0,1.39-.81,2.49-2.49,2.96-4,1.1-9.05,2.38-13.98,4.12.06,1.62.12,3.31.12,4.93,0,1.04,0,2.03-.06,3.02,0,2.09-1.33,3.07-3.31,3.13-2.03,0-3.02-1.1-3.02-2.96v-6.09c-7.08,2.55-9.92,5.51-9.92,8.41s2.96,4.47,10.27,4.47c5.74,0,11.43-.58,15.66-1.39.35-.06.7-.12,1.04-.12,1.57,0,2.61.81,2.96,2.55.06.23.06.52.06.75,0,1.74-1.04,3.02-2.84,3.36-4.35.81-10.03,1.33-16.24,1.33-11.66,0-17.86-3.31-17.86-10.44,0-5.92,5.28-11.14,16.24-15.08-.17-2.61-1.51-3.42-3.71-3.42-4.7,0-10.61,3.65-17.11,10.15-.75.75-1.68,1.16-2.61,1.16-.81,0-1.62-.35-2.38-.99-.64-.64-.99-1.51-.99-2.44,0-.99.41-1.97,1.16-2.67,4.64-4.29,9.16-9.45,12.59-14.56h-2.67c-2.26,0-4.93-.06-7.13-.06-1.86-.06-2.84-1.51-2.84-3.19v-.29c.17-1.74,1.39-3.07,3.13-3.02,2.09.12,4.87.17,7.95.17h4.81c.87-1.62,1.68-3.31,2.2-4.99.58-1.57,1.74-2.26,3.25-2.26.29,0,.64.06.99.12,1.74.29,2.67,1.33,2.67,2.55,0,.35-.06.7-.23,1.04-.46,1.16-.99,2.2-1.57,3.36,4.29-.23,10.09-.81,15.78-1.57.23-.06.41-.06.64-.06,1.62,0,2.73,1.04,2.9,2.73.06.17.06.41.06.58,0,1.57-.81,2.61-2.61,2.9-6.79.99-13.92,1.62-20.07,1.8-1.68,2.78-3.65,5.45-5.92,7.48l.17.23Z"/><path class="cls-1" d="M720.28,387.39c0,8.64-4.12,15.6-12.7,19.31-5.28,2.26-13.57,3.71-21.17,3.71-2.49,0-4-1.22-4.06-3.48v-.29c0-2.2,1.28-3.65,3.42-3.65,6.79-.06,14.33-1.16,18.85-3.19,5.45-2.44,8.06-6.73,8.06-12.3,0-6.21-4-10.73-12.88-10.73-7.08,0-15.83,1.62-24.36,4.47-.52.17-1.04.29-1.51.29-1.57,0-2.84-.87-3.31-2.55-.12-.41-.17-.81-.17-1.22,0-1.62.93-2.96,2.67-3.6,8-2.73,17.81-4.47,26.39-4.47,14.15,0,20.76,7.71,20.76,17.69Z"/><path class="cls-1" d="M770.5,366.8c0,.93-.41,1.86-1.22,2.61-5.86,5.51-14.27,11.77-21.69,16.24-1.45.87-1.74,1.51-1.74,2.26s.46,1.22,2.03,2.15c6.96,4.35,16.41,11.37,22.91,17.52.87.81,1.22,1.86,1.22,2.84,0,1.04-.41,2.09-.99,2.73-.81.93-1.8,1.39-2.84,1.39-.93,0-1.8-.35-2.61-1.16-6.55-6.32-15.2-12.99-23.72-18.73-3.36-2.2-4.35-4.23-4.35-6.79,0-2.78,1.28-5.05,4.35-6.9,7.6-4.64,16.3-11.19,22.1-16.82.64-.64,1.51-.93,2.38-.93.99,0,2.03.35,2.9,1.1.87.7,1.28,1.57,1.28,2.49Z"/><path class="cls-1" d="M802.81,382.69c.99-3.25,2.32-6.15,3.6-8.18,3.25-5.22,7.89-7.89,12.93-7.89,8.82,0,15.49,6.9,15.49,20.13,0,11.02-3.89,18.15-10.44,22.45-4.29,2.84-10.32,4.87-16.24,5.39h-.52c-1.86,0-3.19-.81-3.6-2.78-.06-.35-.06-.64-.06-.93,0-1.8,1.1-3.13,3.19-3.31,5.16-.58,10.27-2.26,13.69-4.7,4.35-3.13,6.67-8.29,6.67-16.12,0-9.05-3.83-13.63-9.16-13.63-4.47,0-8.7,3.13-11.48,9.34-1.97,4.35-3.02,8.99-3.02,13.51,0,2.09-.81,3.48-3.13,3.65h-.17c-1.68,0-3.02-.99-3.48-3.25-.52-2.9-.87-6.79-.87-10.56.06-6.38,1.39-14.09,3.19-20.76.58-1.91,1.8-2.73,3.42-2.73.23,0,.41,0,.64.06,1.74.23,2.61,1.1,2.61,2.55,0,.41-.06.87-.23,1.39-1.04,3.65-2.09,8.12-2.49,11.19-.29,1.68-.58,3.48-.81,5.1l.29.06Z"/><path class="cls-1" d="M857.85,410.7c-.7,1.45-1.86,2.15-3.13,2.15-.64,0-1.33-.17-1.97-.46-1.22-.64-1.91-1.68-1.91-3.02,0-.64.17-1.28.52-1.97,4.06-8.41,7.77-18.97,10.32-28.77-2.26.06-4.93.17-7.13.17h-1.45c-1.8-.12-2.78-1.1-2.78-3.19v-.17c.06-1.97,1.04-3.13,3.02-3.13,2.84,0,6.55-.06,9.8-.23.52-2.32.99-4.7,1.39-7.08.29-1.68,1.45-2.44,3.19-2.44.23,0,.46,0,.75.06,1.91.23,3.02,1.33,3.02,2.73,0,.17,0,.35-.06.52-.35,1.86-.7,3.77-1.1,5.68,3.19-.29,6.26-.7,8.99-1.16.29-.06.52-.06.81-.06,1.51,0,2.49.81,2.9,2.61.06.29.12.58.12.87,0,1.51-.93,2.67-2.26,2.9-3.71.64-7.89,1.16-12.18,1.51-2.67,11.19-6.55,23.2-10.85,32.48ZM878.15,396.72c0,.52-.17,1.04-.52,1.51-1.1,1.28-1.62,2.67-1.62,4.06,0,1.74.87,2.84,2.44,3.54,1.74.75,4.12.93,6.84.93,3.94,0,8.24-.41,11.48-1.1.35-.06.7-.12.99-.12,1.74,0,2.84.93,3.13,2.61.06.29.06.58.06.81,0,1.62-.87,2.9-2.84,3.42-3.36.75-7.71,1.16-12.47,1.16-4.18,0-7.83-.58-10.44-1.68-4.12-1.68-5.8-4.58-5.8-8.87,0-2.61,1.16-5.74,3.13-7.95.7-.75,1.57-1.16,2.44-1.16.58,0,1.16.17,1.68.46.99.52,1.51,1.45,1.51,2.38ZM895.67,379.61c1.97.12,3.07,1.62,3.07,3.54s-1.1,3.31-3.02,3.31h-.23c-1.45-.06-3.31-.06-4.93-.06-4.12,0-9.05.46-12.82,1.1-.23.06-.41.06-.58.06-1.74,0-2.96-1.22-3.13-3.13-.06-.17-.06-.41-.06-.58,0-1.45.75-2.84,2.49-3.13,4.29-.7,9.69-1.22,14.33-1.28,1.57,0,3.19.06,4.87.17Z"/><path class="cls-1" d="M927.39,365.75c.29-2.09,1.68-2.78,3.36-2.78h.64c1.97.23,3.07,1.33,3.07,3.02,0,.23,0,.46-.06.64-.41,2.78-1.16,5.8-1.68,8.35,1.39-.06,2.61-.06,3.83-.06,8.06,0,11.77,4.52,11.77,14.09,0,5.34-.7,11.02-1.91,15.31-1.68,6.26-5.39,8.76-10.56,8.76-2.55,0-5.57-.52-7.89-1.62-1.22-.58-1.91-1.74-1.91-3.02,0-.46.12-.99.29-1.45.58-1.51,1.68-2.26,2.9-2.26.41,0,.87.12,1.28.29,1.62.64,3.54,1.04,5.1,1.04,2.09,0,3.42-.99,4.29-4,.93-3.36,1.57-8.64,1.57-13.8,0-5.45-1.51-7.13-6.03-7.13-1.62,0-2.96.06-4.23.17-.81,3.25-1.86,6.67-3.02,10.09-2.55,7.37-5.57,14.44-8.76,20.01-.75,1.33-1.91,1.97-3.13,1.97-.64,0-1.33-.17-1.91-.52-1.28-.7-1.91-1.8-1.91-2.96,0-.7.23-1.45.64-2.15,3.13-5.16,6.03-11.48,8.41-18.15.93-2.61,1.8-5.22,2.49-7.77-2.49.23-5.68.64-8.47,1.04-.17.06-.35.06-.52.06-1.45,0-2.61-.93-2.84-2.73-.06-.17-.06-.35-.06-.58,0-1.62.93-2.9,2.67-3.13,3.19-.46,7.25-.87,10.85-1.16.75-3.19,1.33-6.44,1.74-9.57ZM951.46,369.87c1.16,0,2.2.58,2.84,1.45,4.35,5.57,8.82,14.67,10.44,21.4.06.41.12.81.12,1.16,0,1.39-.58,2.55-2.03,3.07-.58.17-1.1.29-1.62.29-1.39,0-2.61-.75-3.02-2.26-1.8-6.38-5.51-14.67-9.74-20.24-.41-.52-.58-1.1-.58-1.62,0-1.16.7-2.26,1.91-2.84.52-.29,1.1-.41,1.68-.41Z"/><path class="cls-1" d="M1018.16,393.42c0,7.19-3.31,13.05-10.21,15.95-4.12,1.74-10.61,2.9-16.47,2.9h-.41c-2.09,0-3.31-1.39-3.36-3.31v-.17c0-1.91,1.1-3.31,3.07-3.31,5.05-.06,11.14-.99,14.44-2.44,4.06-1.8,6.03-4.81,6.03-9.22,0-4.7-2.96-8.24-9.63-8.24-5.57,0-12.64,1.45-19.2,3.6-.35.12-.75.17-1.1.17-1.39,0-2.61-.87-2.96-2.32-.12-.46-.17-.87-.17-1.33,0-1.39.7-2.55,2.2-3.02,6.38-2.03,14.27-3.6,21.11-3.6,11.31,0,16.65,6.38,16.65,14.33Z"/><path class="cls-1" d="M1041.13,410.7c-.7,1.45-1.86,2.15-3.13,2.15-.64,0-1.33-.17-1.97-.46-1.22-.64-1.91-1.68-1.91-3.02,0-.64.17-1.28.52-1.97,4.06-8.41,7.77-18.97,10.32-28.77-2.26.06-4.93.17-7.13.17h-1.45c-1.8-.12-2.78-1.1-2.78-3.19v-.17c.06-1.97,1.04-3.13,3.02-3.13,2.84,0,6.55-.06,9.8-.23.52-2.32.99-4.7,1.39-7.08.29-1.68,1.45-2.44,3.19-2.44.23,0,.46,0,.75.06,1.91.23,3.02,1.33,3.02,2.73,0,.17,0,.35-.06.52-.35,1.86-.7,3.77-1.1,5.68,3.19-.29,6.26-.7,8.99-1.16.29-.06.52-.06.81-.06,1.51,0,2.49.81,2.9,2.61.06.29.12.58.12.87,0,1.51-.93,2.67-2.26,2.9-3.71.64-7.89,1.16-12.18,1.51-2.67,11.19-6.55,23.2-10.85,32.48ZM1061.43,396.72c0,.52-.17,1.04-.52,1.51-1.1,1.28-1.62,2.67-1.62,4.06,0,1.74.87,2.84,2.44,3.54,1.74.75,4.12.93,6.84.93,3.94,0,8.24-.41,11.48-1.1.35-.06.7-.12.99-.12,1.74,0,2.84.93,3.13,2.61.06.29.06.58.06.81,0,1.62-.87,2.9-2.84,3.42-3.36.75-7.71,1.16-12.47,1.16-4.18,0-7.83-.58-10.44-1.68-4.12-1.68-5.8-4.58-5.8-8.87,0-2.61,1.16-5.74,3.13-7.95.7-.75,1.57-1.16,2.44-1.16.58,0,1.16.17,1.68.46.99.52,1.51,1.45,1.51,2.38ZM1078.95,379.61c1.97.12,3.07,1.62,3.07,3.54s-1.1,3.31-3.02,3.31h-.23c-1.45-.06-3.31-.06-4.93-.06-4.12,0-9.05.46-12.82,1.1-.23.06-.41.06-.58.06-1.74,0-2.96-1.22-3.13-3.13-.06-.17-.06-.41-.06-.58,0-1.45.75-2.84,2.49-3.13,4.29-.7,9.69-1.22,14.33-1.28,1.57,0,3.19.06,4.87.17Z"/><path class="cls-1" d="M1112.76,405.71c0,5.45-4.41,9.86-9.86,9.86s-9.86-4.41-9.86-9.86,4.47-9.86,9.8-9.86,9.92,4.35,9.92,9.86ZM1097.68,405.71c0,2.84,2.38,5.28,5.22,5.28s5.28-2.44,5.28-5.28-2.44-5.28-5.28-5.28-5.22,2.44-5.22,5.28Z"/><path class="cls-1" d="M326.92,473.01c-1.91.41-4.23.81-6.67,1.1-6.5.81-13.05,1.68-18.85,2.61-.23.06-.46.06-.64.06-1.86,0-2.9-1.1-3.13-2.78-.06-.23-.06-.46-.06-.7,0-1.51.81-2.55,2.38-2.96,1.97-.52,3.94-1.16,5.86-1.97,7.66-3.36,16.36-8.47,23.37-13.8-6.5.7-14.21,1.1-20.18,1.16-1.51,0-2.78-1.1-2.78-3.07,0-2.15,1.1-3.19,3.25-3.25,4.29,0,9.05-.12,13.46-.29,4.35-.17,8.47-.41,11.43-.64h.7c1.8,0,2.9.46,3.71,1.97.35.58.52,1.22.52,1.86,0,1.1-.52,2.2-1.45,3.13-4.76,4.41-10.73,8.24-16.65,11.25-1.86.87-3.94,1.8-6.21,2.67l.06.29c2.55-.58,5.57-1.04,8.35-1.39,7.19-.81,15.37-1.57,22.62-1.97h.29c2.03,0,3.07,1.16,3.19,3.07v.29c0,1.86-1.16,3.07-2.9,3.13-6.32.29-12.24,1.33-16.82,3.42-4.64,2.03-7.42,4.93-7.42,8.47,0,3.19,2.55,5.28,8.93,5.68,1.74.17,4.29.23,6.38.23h.29c1.91,0,3.25,1.04,3.31,3.07v.17c0,2.2-1.16,3.48-3.19,3.65-1.04,0-2.15.06-3.19.06-1.45,0-2.9-.06-4.06-.17-9.8-.64-15.66-4.76-15.66-11.6,0-5.34,3.65-9.8,11.83-12.47l-.06-.29Z"/><path class="cls-1" d="M373.9,462.57c-.06.81-.12,1.91-.12,2.96,2.44-2.32,4.41-4.18,6.67-5.86,4.35-3.25,8.12-4.81,11.48-4.81,6.32,0,10.03,3.42,10.03,9.74,0,2.03-.35,4.58-1.39,9.34-1.33,6.09-1.8,9.45-1.8,11.48,0,2.26.87,3.07,2.49,3.07,1.74,0,2.73-1.22,4-5.28.46-1.45,1.57-2.26,2.9-2.26.41,0,.81.06,1.28.23,1.39.46,2.32,1.57,2.32,3.02,0,.41-.06.75-.17,1.16-2.2,7.42-5.97,10.5-11.19,10.5s-8.76-2.96-8.76-9.05c0-2.78.46-6.55,1.62-11.95,1.04-5.05,1.45-7.89,1.45-9.74,0-2.44-1.28-3.71-3.71-3.71-2.96,0-6.09,1.62-10.38,5.34-2.03,1.68-4.47,4.23-6.84,6.84-.06,2.78-.06,5.57-.06,8.29,0,4.76.06,9.57.12,14.33,0,1.86-1.22,2.96-3.31,2.96h-.17c-1.8,0-3.25-1.1-3.25-2.84v-7.42c0-2.67,0-5.34.06-7.6-1.68,2.26-3.07,4.23-4.58,6.15-.75.99-1.68,1.39-2.55,1.39-.75,0-1.51-.35-2.2-.93-.7-.64-1.1-1.57-1.1-2.49,0-.81.29-1.62.81-2.38,2.73-3.54,5.97-7.6,9.69-11.6.06-2.61.12-5.28.17-7.89-2.15.17-4.64.41-6.96.58h-.35c-1.57,0-2.78-1.04-2.84-2.67v-.46c0-1.86.99-3.07,2.61-3.25,2.44-.29,5.16-.46,7.71-.7.06-2.38.17-4.93.29-7.6.06-1.97,1.22-2.96,3.31-2.96h.17c2.03,0,3.13,1.04,3.13,2.84v.12c-.12,2.49-.23,4.64-.41,7.19,1.74,0,2.78,1.04,2.78,2.26,0,.81-.41,1.62-1.28,2.32l-1.68,1.33Z"/><path class="cls-1" d="M432.71,450.1c.29-2.09,1.68-2.78,3.36-2.78h.64c1.97.23,3.07,1.33,3.07,3.02,0,.23,0,.46-.06.64-.41,2.78-1.16,5.8-1.68,8.35,1.39-.06,2.61-.06,3.83-.06,8.06,0,11.77,4.52,11.77,14.09,0,5.34-.7,11.02-1.91,15.31-1.68,6.26-5.39,8.76-10.56,8.76-2.55,0-5.57-.52-7.89-1.62-1.22-.58-1.91-1.74-1.91-3.02,0-.46.12-.99.29-1.45.58-1.51,1.68-2.26,2.9-2.26.41,0,.87.12,1.28.29,1.62.64,3.54,1.04,5.1,1.04,2.09,0,3.42-.99,4.29-4,.93-3.36,1.57-8.64,1.57-13.8,0-5.45-1.51-7.13-6.03-7.13-1.62,0-2.96.06-4.23.17-.81,3.25-1.86,6.67-3.02,10.09-2.55,7.37-5.57,14.44-8.76,20.01-.75,1.33-1.91,1.97-3.13,1.97-.64,0-1.33-.17-1.91-.52-1.28-.7-1.91-1.8-1.91-2.96,0-.7.23-1.45.64-2.15,3.13-5.16,6.03-11.48,8.41-18.15.93-2.61,1.8-5.22,2.49-7.77-2.49.23-5.68.64-8.47,1.04-.17.06-.35.06-.52.06-1.45,0-2.61-.93-2.84-2.73-.06-.17-.06-.35-.06-.58,0-1.62.93-2.9,2.67-3.13,3.19-.46,7.25-.87,10.85-1.16.75-3.19,1.33-6.44,1.74-9.57ZM459.92,456.71c-.93-1.8-2.26-3.77-3.48-5.45-.29-.41-.41-.81-.41-1.22,0-.87.46-1.62,1.28-2.03.46-.23.99-.35,1.45-.35.75,0,1.39.29,1.91.93,1.33,1.74,2.67,3.77,3.6,5.51.17.46.29.87.29,1.33,0,.87-.41,1.62-1.16,2.03-.52.29-1.04.46-1.57.46-.29,0-.58-.06-.87-.17.29.17.46.41.7.7,3.65,5.51,6.96,12.93,8.35,18.62.12.41.17.81.17,1.22,0,1.33-.7,2.55-2.15,3.02-.52.17-1.04.29-1.57.29-1.39,0-2.55-.7-3.02-2.26-1.51-5.39-4.41-12.06-7.77-17.4-.29-.52-.46-1.1-.46-1.62,0-1.16.64-2.26,1.86-2.84.64-.29,1.22-.41,1.8-.41s1.1.12,1.57.35c-.23-.17-.41-.41-.52-.7ZM465.66,445.05c.75,0,1.45.41,2.03,1.16,1.28,1.57,2.44,3.48,3.19,5.05.23.41.35.87.35,1.28,0,.87-.52,1.62-1.33,2.09-.41.23-.87.35-1.28.35-.87,0-1.62-.46-2.09-1.45-.93-1.62-2.03-3.6-3.02-4.99-.29-.41-.41-.81-.41-1.22,0-.81.52-1.57,1.33-1.97.41-.17.81-.29,1.22-.29Z"/><path class="cls-1" d="M515.3,452.19c0-2.09,1.45-3.25,3.89-3.25s3.89,1.16,3.89,3.25v39.61c0,3.02-1.74,4.64-4.81,4.64-3.42,0-4.76-1.16-7.08-5.16l-11.66-20.13c-2.55-4.41-5.39-10.38-7.08-14.67.64,4.93,1.1,12.41,1.1,17.86v18.91c0,2.03-1.45,3.19-3.83,3.19-2.49,0-3.89-1.16-3.89-3.19v-39.79c0-2.96,1.97-4.52,4.99-4.52,3.65,0,4.93,1.39,6.44,4l11.83,20.3c2.9,4.93,5.8,10.67,7.42,15.25-.58-4.64-1.16-11.72-1.16-16.76l-.06-19.55Z"/><path class="cls-1" d="M575.51,472.6c0,14.79-8.18,24.48-21.23,24.48s-21.46-9.51-21.46-24.48,8.24-24.24,21.4-24.24,21.29,9.57,21.29,24.24ZM541.11,472.66c0,10.5,5.05,17.17,13.11,17.17s12.99-6.55,12.99-17.52c0-10.21-4.93-16.76-12.99-16.76s-13.11,6.61-13.11,17.11Z"/><path class="cls-1" d="M614.54,452.19c0-2.09,1.45-3.25,3.89-3.25s3.89,1.16,3.89,3.25v39.61c0,3.02-1.74,4.64-4.81,4.64-3.42,0-4.76-1.16-7.08-5.16l-11.66-20.13c-2.55-4.41-5.39-10.38-7.08-14.67.64,4.93,1.1,12.41,1.1,17.86v18.91c0,2.03-1.45,3.19-3.83,3.19-2.49,0-3.89-1.16-3.89-3.19v-39.79c0-2.96,1.97-4.52,4.99-4.52,3.65,0,4.93,1.39,6.44,4l11.83,20.3c2.9,4.93,5.8,10.67,7.42,15.25-.58-4.64-1.16-11.72-1.16-16.76l-.06-19.55Z"/><path class="cls-1" d="M655.49,449.35c8.64,0,13.75,4.23,13.75,11.43,0,5.68-2.55,9.05-7.6,10.73,6.09,1.33,9.16,5.28,9.16,11.6,0,8.06-5.39,12.93-14.67,12.93h-15.02c-5.1,0-7.19-2.15-7.19-7.37v-31.96c0-5.22,2.09-7.37,7.19-7.37h14.38ZM654.56,468.31c4.12,0,6.61-2.38,6.61-6.26s-2.26-5.92-6.73-5.92h-11.14c-1.04,0-1.68.64-1.68,1.8v10.38h12.93ZM641.63,487.45c0,1.16.64,1.74,1.74,1.74h11.54c4.87,0,7.6-2.55,7.6-7.13s-2.78-7.08-7.71-7.08h-13.17v12.47Z"/><path class="cls-1" d="M720.8,472.6c0,14.79-8.18,24.48-21.23,24.48s-21.46-9.51-21.46-24.48,8.24-24.24,21.4-24.24,21.29,9.57,21.29,24.24ZM686.4,472.66c0,10.5,5.05,17.17,13.11,17.17s12.99-6.55,12.99-17.52c0-10.21-4.93-16.76-12.99-16.76s-13.11,6.61-13.11,17.11Z"/><path class="cls-1" d="M767.25,491.63c.17.46.29.87.29,1.28,0,1.68-1.33,2.96-2.96,3.36-.52.12-1.04.17-1.57.17-1.45,0-2.67-.52-3.25-2.03l-1.45-3.83c-4.23-11.14-5.28-14.21-10.96-14.21h-9.4v16.82c0,2.09-1.33,3.25-3.77,3.25s-3.94-1.16-3.94-3.25v-36.48c0-5.28,2.15-7.37,7.19-7.37h14.21c8.58,0,13.63,4.64,13.63,12.18,0,6.67-3.42,10.15-8.93,11.66,3.83,1.16,5.05,4.64,9.45,15.02l1.45,3.42ZM750.38,469.65c4.23,0,7.02-2.73,7.02-6.84s-2.32-6.67-6.79-6.67h-10.79c-1.1,0-1.86.64-1.86,1.91v11.6h12.41Z"/><path class="cls-1" d="M784.13,493.25c0,2.03-1.62,3.19-4.06,3.19s-4-1.16-4-3.19v-41.06c0-2.09,1.51-3.25,4-3.25s4.06,1.16,4.06,3.25v41.06Z"/><path class="cls-1" d="M822.82,481.36c-1.91,5.22-3.77,7.89-5.97,9.63-1.97,1.57-4.29,2.26-6.84,2.26-6.26,0-11.83-5.68-11.83-16.99,0-14.5,10.38-25.46,26.74-25.46,14.44,0,23.84,9.45,23.84,22.79,0,8.35-3.54,14.73-9.51,18.73-3.42,2.38-7.89,3.89-12.47,4.47-.29.06-.52.06-.81.06-1.74,0-3.13-.81-3.42-2.78-.06-.29-.06-.58-.06-.81,0-1.74.99-3.07,2.84-3.36,4-.58,7.95-1.91,10.67-3.94,3.36-2.61,5.68-6.84,5.68-12.59,0-9.05-5.68-15.78-14.38-16.24-.58,9.45-2.15,17.92-4.47,24.24ZM804.9,476.14c0,6.9,2.44,9.86,5.05,9.86,1.1,0,2.2-.41,3.25-1.39,1.1-.99,2.2-3.07,3.36-6.38,1.8-5.16,3.36-12.99,3.77-20.94-8.99.93-15.43,8.58-15.43,18.85Z"/><path class="cls-1" d="M870.67,450.62c0,.35-.06.75-.12,1.16-1.62,7.19-2.96,16.88-2.96,24.36,0,5.51.58,11.95,1.62,17.28.06.41.12.81.12,1.16,0,1.8-.93,2.9-2.78,3.25-.35.06-.7.12-.99.12-1.74,0-2.9-1.1-3.31-3.02-1.04-5.1-1.68-11.72-1.68-18.62,0-7.89,1.33-18.73,3.19-25.98.41-1.8,1.62-2.61,3.19-2.61.35,0,.7.06,1.04.12,1.68.29,2.67,1.22,2.67,2.78ZM899.32,487.68c0,5.51-3.07,9.45-12.12,9.45-7.37,0-12.53-3.71-12.53-10.27,0-5.63,4.64-9.69,11.83-9.69,2.2,0,4.35.23,6.03.7-.12-1.62-.23-3.6-.35-5.34-.17-2.26-.29-4.7-.35-7.31-2.84.12-5.97.23-9.11.23-1.91,0-3.83-.06-5.68-.12-1.97-.06-2.9-1.45-2.9-3.36s1.16-3.25,3.02-3.19c1.8.06,3.6.06,5.45.06,2.96,0,5.97-.06,9.05-.23,0-2.67-.06-5.34-.06-7.83,0-2.03,1.22-3.07,3.25-3.07,2.2,0,3.48,1.16,3.42,3.02v7.48c2.55-.23,5.1-.46,7.37-.87.23-.06.46-.06.7-.06,1.62,0,2.67,1.1,2.78,2.67.06.23.06.46.06.7,0,1.68-.75,2.78-2.44,3.07-2.38.46-5.28.81-8.35,1.1.06,2.78.17,5.39.35,7.89.17,2.2.41,4.87.58,7.19,3.31,1.45,7.31,4.23,9.74,6.73.7.64,1.04,1.57,1.04,2.49,0,.87-.29,1.8-.93,2.49-.7.7-1.62,1.1-2.49,1.1-.75,0-1.45-.29-2.03-.81-1.86-1.97-3.65-3.48-5.34-4.58v.35ZM886.68,482.81c-3.42,0-5.74,1.62-5.74,4.18s2.32,4.18,5.86,4.18c4.52,0,6.26-1.86,6.26-5.39,0-.64,0-1.16-.06-1.68-1.8-.81-4.06-1.28-6.32-1.28Z"/><path class="cls-1" d="M933.48,451.09v.17c-.29,8.76-.75,18.73-.75,27.9,0,4.87.7,7.66,2.49,9.28,1.74,1.57,4.35,2.15,7.89,2.15,4.23,0,8.24-1.45,11.37-4.7,2.44-2.61,4.47-6.38,5.8-11.02.52-1.8,1.74-2.61,3.13-2.61.52,0,1.04.12,1.57.29,1.51.52,2.38,1.68,2.38,3.25,0,.46-.06.93-.23,1.45-1.8,6.03-4.41,10.9-8.06,14.38-4.29,4.06-9.86,6.15-16.18,6.15-5.63,0-9.86-1.28-12.88-4-3.02-2.84-4.47-7.08-4.47-14.27,0-9.4.29-20.07.7-28.59.06-1.97,1.45-3.19,3.48-3.19h.29c2.32.06,3.48,1.28,3.48,3.36ZM951.69,452.3c.7,0,1.45.29,1.97.93,1.57,1.8,3.31,4.23,4.29,5.97.29.52.41,1.04.41,1.51,0,.87-.41,1.68-1.16,2.09-.46.29-1.04.46-1.62.46-.81,0-1.62-.35-2.15-1.22-1.1-1.74-2.73-4.06-4-5.63-.41-.52-.58-1.04-.58-1.57,0-.87.46-1.62,1.28-2.15.52-.29,1.04-.41,1.57-.41ZM958.54,448.77c.75,0,1.45.35,2.03.99,1.45,1.62,3.02,3.77,4,5.51.35.58.46,1.1.46,1.62,0,.93-.46,1.62-1.16,2.03-.52.35-1.1.52-1.62.52-.81,0-1.62-.41-2.15-1.28-1.1-1.86-2.55-4-3.83-5.51-.35-.41-.52-.87-.52-1.33,0-.81.52-1.62,1.28-2.09.46-.29.99-.46,1.51-.46Z"/><path class="cls-1" d="M1008.71,486.7c0,6.67-2.67,11.14-13.05,11.14-8.58,0-14.09-3.94-14.09-10.21s5.28-10.5,15.25-10.5c1.74,0,3.31.17,4.93.46-.23-2.09-.29-3.94-.41-6.03-2.2.06-4.29.06-6.32.06-4.06,0-7.25,0-10.9-.23-1.8-.17-2.73-1.45-2.73-3.07v-.29c.17-1.74,1.22-2.9,2.78-2.9h.23c3.48.17,6.55.23,10.44.23.99.06,2.03.06,3.02.06,1.04,0,2.09,0,3.13-.06-.06-1.86-.12-3.77-.17-5.74h-5.28c-4.99,0-9.51-.06-12.35-.23-1.91-.12-2.73-1.51-2.73-3.07v-.35c.17-1.68,1.16-2.9,2.96-2.9h.23c2.9.17,7.08.29,11.66.29,1.8,0,3.6,0,5.39-.06v-3.89c0-1.86,1.16-2.78,3.31-2.78s3.25.81,3.25,3.07v3.54c5.45-.17,10.32-.52,15.14-1.1.29-.06.58-.06.81-.06,1.74,0,2.55.99,2.78,2.61.06.23.06.41.06.58,0,1.62-.87,2.73-2.61,2.96-5.34.7-10.44,1.1-16.12,1.28,0,1.86.06,3.65.17,5.68,5.05-.23,9.57-.64,14.33-1.28.23-.06.46-.06.7-.06,1.68,0,2.55.99,2.73,2.73.06.17.06.41.06.58,0,1.68-.99,2.61-2.73,2.9-4.7.7-9.51,1.1-14.91,1.28.17,2.67.35,4.93.58,7.54,1.45.46,2.73.87,4,1.39,4.76,1.97,9.63,4.7,13.34,8,.93.87,1.39,1.86,1.39,2.9,0,.75-.23,1.45-.7,2.15-.75.99-1.8,1.51-2.9,1.51-.81,0-1.68-.35-2.38-.99-2.96-2.73-6.5-5.05-9.86-6.79-.75-.35-1.62-.81-2.44-1.16v.81ZM996.12,483.1c-5.45,0-7.83,1.8-7.83,4.47s2.67,4.06,6.79,4.06c4.93,0,7.08-1.45,7.08-5.74,0-.58-.06-1.22-.12-1.86-1.8-.52-3.89-.93-5.92-.93Z"/><path class="cls-1" d="M1049.89,466.69c.99-3.25,2.32-6.15,3.6-8.18,3.25-5.22,7.89-7.89,12.93-7.89,8.82,0,15.49,6.9,15.49,20.13,0,11.02-3.89,18.15-10.44,22.45-4.29,2.84-10.32,4.87-16.24,5.39h-.52c-1.86,0-3.19-.81-3.6-2.78-.06-.35-.06-.64-.06-.93,0-1.8,1.1-3.13,3.19-3.31,5.16-.58,10.27-2.26,13.69-4.7,4.35-3.13,6.67-8.29,6.67-16.12,0-9.05-3.83-13.63-9.16-13.63-4.47,0-8.7,3.13-11.48,9.34-1.97,4.35-3.02,8.99-3.02,13.51,0,2.09-.81,3.48-3.13,3.65h-.17c-1.68,0-3.02-.99-3.48-3.25-.52-2.9-.87-6.79-.87-10.56.06-6.38,1.39-14.09,3.19-20.76.58-1.91,1.8-2.73,3.42-2.73.23,0,.41,0,.64.06,1.74.23,2.61,1.1,2.61,2.55,0,.41-.06.87-.23,1.39-1.04,3.65-2.09,8.12-2.49,11.19-.29,1.68-.58,3.48-.81,5.1l.29.06Z"/><path class="cls-1" d="M1116.24,489.71c0,5.45-4.41,9.86-9.86,9.86s-9.86-4.41-9.86-9.86,4.47-9.86,9.8-9.86,9.92,4.35,9.92,9.86ZM1101.16,489.71c0,2.84,2.38,5.28,5.22,5.28s5.28-2.44,5.28-5.28-2.44-5.28-5.28-5.28-5.22,2.44-5.22,5.28Z"/></svg>