<?xml version="1.0" encoding="UTF-8"?><svg id="_レイヤー_1" xmlns="http://www.w3.org/2000/svg" viewBox="0 0 1440 1440"><defs><style>.cls-1{fill:#fff;}.cls-2{fill:red;}</style></defs><path class="cls-2" d="M1440,720c0,397.65-322.38,720-720,720S0,1117.65,0,720"/><path class="cls-2" d="M1440,720C1440,322.35,1117.62,0,720,0S0,322.35,0,720"/><path class="cls-1" d="M820.09,821.12h-200.98c-12.92,0-23.4,10.48-23.4,23.4v3.25c0,12.92,10.48,23.4,23.4,23.4h200.98c12.92,0,23.4-10.48,23.4-23.4v-3.25c0-12.92-10.48-23.4-23.4-23.4Z"/><path class="cls-1" d="M418.37,554.11c-5.13.27-11.16.45-15.93.45-2.79,0-4.5-2.07-4.5-4.95,0-3.06,1.44-5.22,4.41-5.22,4.59,0,10.53-.18,16.02-.54v-11.7c0-2.88,1.98-4.41,5.04-4.41,3.24,0,5.13,1.53,5.13,4.41v10.98c4.86-.45,9.63-.99,13.59-1.71.36-.09.72-.09,1.08-.09,2.52,0,4.05,1.44,4.5,4.14.09.45.09.9.09,1.26,0,2.7-1.53,4.14-4.05,4.59-4.5.81-9.81,1.44-15.21,1.98v12.42c5.85-1.53,11.79-2.43,17.46-2.43,16.74,0,26.55,8.28,26.55,21.69s-8.37,21.42-20.16,21.42c-6.57,0-12.33-2.43-16.29-7.02-.99-1.17-1.44-2.43-1.44-3.6,0-1.44.72-2.79,1.89-3.87,1.26-1.08,2.52-1.62,3.78-1.62s2.52.54,3.51,1.62c2.7,2.7,5.22,3.96,8.37,3.96,5.04,0,9.45-4.05,9.45-10.8,0-7.65-5.4-12.6-16.29-12.6-5.67,0-11.7,1.08-16.83,2.97v18.81c0,8.28-4.41,12.69-11.97,12.69-3.6,0-7.65-1.26-11.7-4.05-4.68-3.06-7.83-7.2-7.83-12.87,0-2.88,1.08-5.67,2.97-8.37,3.69-4.95,10.35-9.81,18.36-12.96v-14.58ZM418.37,579.04c-4.59,2.16-8.1,4.86-9.72,7.2-.99,1.26-1.44,2.7-1.44,3.96,0,1.89,1.35,3.51,3.06,4.68,1.53.99,3.42,1.62,5.04,1.62,2.25,0,3.06-1.08,3.06-4.32v-13.14ZM475.43,549.88c.81,1.08,1.26,2.34,1.26,3.6,0,1.44-.54,2.79-1.53,3.78-1.08.99-2.43,1.53-3.87,1.53-1.35,0-2.61-.54-3.69-1.71-4.05-4.86-9.99-10.26-14.94-13.77-1.17-.81-1.8-2.16-1.8-3.6,0-1.17.45-2.43,1.44-3.51,1.08-1.17,2.43-1.71,3.87-1.71.99,0,2.16.36,3.06.99,5.31,3.42,12.15,9.36,16.2,14.4Z"/><path class="cls-1" d="M498.11,577.24c0-4.23.18-8.37.45-12.06-.99,1.53-1.98,3.06-3.15,4.32-1.26,1.35-2.61,2.07-3.96,2.07-1.17,0-2.34-.45-3.42-1.44-1.17-.99-1.71-2.25-1.71-3.6,0-1.17.45-2.34,1.35-3.42,7.47-8.82,14.22-21.15,17.19-33.03.45-2.07,2.16-3.15,4.41-3.15.63,0,1.26.09,1.98.27,2.34.45,3.6,1.98,3.6,4.05,0,.54-.09,1.17-.27,1.8-1.62,5.31-3.6,10.89-6.57,16.38v57.6c0,2.34-1.89,3.6-5.04,3.6-2.97,0-4.86-1.26-4.86-3.6v-29.79ZM565.61,597.31c2.25,0,3.51,1.8,3.51,4.68,0,2.7-1.26,4.77-3.51,4.77h-48.87c-2.34,0-3.51-1.98-3.51-4.77s1.17-4.68,3.51-4.68h18.72v-34.29h-20.43c-2.25,0-3.6-1.98-3.6-4.77s1.35-4.86,3.6-4.86h20.43v-22.05c0-2.43,1.89-3.78,5.13-3.78s5.13,1.35,5.13,3.69v22.14h22.5c2.34,0,3.6,1.98,3.6,4.86s-1.26,4.77-3.6,4.77h-22.5v34.29h19.89Z"/><path class="cls-1" d="M657.95,589.39c0,5.31-2.25,7.56-8.82,7.56h-22.05v4.5c0,6.75-3.24,9.45-12.06,9.45-2.97,0-6.39-.27-8.91-.81-1.8-.36-3.15-1.44-3.15-3.78,0-.36,0-.72.09-1.08.27-2.43,1.89-3.42,3.51-3.42.27,0,.54,0,.81.09,1.98.36,4.59.72,6.66.72,2.97,0,3.78-.63,3.78-2.88v-2.79h-28.44c-1.8,0-2.88-1.44-2.88-3.78s1.08-3.69,2.88-3.69h28.44v-4.23h-34.02c-1.8,0-2.79-1.53-2.79-3.78s.99-3.78,2.79-3.78h34.02v-4.05h-27.72c-1.8,0-2.88-1.53-2.88-3.69s1.08-3.69,2.88-3.69h27.72v-3.96h-20.43c-5.31,0-7.65-1.71-7.65-5.76v-6.57c0-4.05,2.34-5.76,7.65-5.76h20.43v-3.87h-33.12c-1.98,0-3.06-1.53-3.06-3.96s1.08-3.87,3.06-3.87h33.12v-3.24c0-2.16,1.8-3.06,4.68-3.06s4.59.9,4.59,3.06v3.24h34.29c1.98,0,3.06,1.53,3.06,3.87s-1.08,3.96-3.06,3.96h-34.29v3.87h21.69c5.4,0,7.65,1.71,7.65,5.76v6.57c0,4.05-2.25,5.76-7.65,5.76h-21.69v3.96h22.05c6.57,0,8.82,2.25,8.82,7.56v3.78h4.59c1.8,0,2.97,1.44,2.97,3.87s-1.17,3.87-2.97,3.87h-4.59v4.05ZM601.25,550.78c-1.62,0-2.25.27-2.25,1.44v2.07c0,1.17.63,1.44,2.25,1.44h16.56v-4.95h-16.56ZM644.9,555.73c1.62,0,2.25-.27,2.25-1.44v-2.07c0-1.17-.63-1.44-2.25-1.44h-17.82v4.95h17.82ZM648.5,575.44c0-1.53-.54-1.8-2.34-1.8h-19.08v4.05h21.42v-2.25ZM648.23,585.25h-21.15v4.23h19.08c1.8,0,2.34-.45,2.34-1.98v-2.25h-.27Z"/><path class="cls-1" d="M717.71,582.01c-2.97,8.1-5.85,12.24-9.27,14.94-3.06,2.43-6.66,3.51-10.62,3.51-9.72,0-18.36-8.82-18.36-26.37,0-22.5,16.11-39.51,41.49-39.51,22.41,0,36.99,14.67,36.99,35.37,0,12.96-5.49,22.86-14.76,29.07-5.31,3.69-12.24,6.03-19.35,6.93-.45.09-.81.09-1.26.09-2.7,0-4.86-1.26-5.31-4.32-.09-.45-.09-.9-.09-1.26,0-2.7,1.53-4.77,4.41-5.22,6.21-.9,12.33-2.97,16.56-6.12,5.22-4.05,8.82-10.62,8.82-19.53,0-14.04-8.82-24.48-22.32-25.2-.9,14.67-3.33,27.81-6.93,37.62ZM689.9,573.91c0,10.71,3.78,15.3,7.83,15.3,1.71,0,3.42-.63,5.04-2.16,1.71-1.53,3.42-4.77,5.22-9.9,2.79-8.01,5.22-20.16,5.85-32.49-13.95,1.44-23.94,13.32-23.94,29.25Z"/><path class="cls-1" d="M785.66,568.42c1.35-1.17,2.7-1.71,4.05-1.71s2.61.54,3.69,1.44c1.26,1.08,1.8,2.25,1.8,3.42s-.63,2.34-1.62,3.24c-3.51,3.15-5.4,6.75-5.4,9.99s2.07,5.58,6.66,7.02c4.32,1.35,10.08,1.89,17.55,1.89,9.09,0,18.09-1.17,25.2-2.88.63-.09,1.26-.18,1.8-.18,2.7,0,4.5,1.44,5.13,4.23.09.63.18,1.17.18,1.71,0,2.79-1.71,4.59-4.77,5.4-6.66,1.8-16.2,2.79-27.99,2.79-10.08,0-18.27-1.35-24.12-3.69-6.75-2.7-10.53-8.01-10.53-15.66,0-5.31,2.43-11.61,8.37-17.01ZM819.77,545.47c-4.86.54-10.89.81-16.29.81-6.21,0-12.51-.18-17.19-.63-2.88-.27-4.5-2.16-4.5-4.86,0-.27,0-.63.09-.9.27-2.97,2.07-4.68,4.86-4.68h.72c5.76.45,13.59.63,21.78.63s16.56-.27,22.32-.72h.54c3.15,0,5.22,1.62,5.85,4.23.18.63.27,1.26.27,1.8,0,2.16-1.08,3.96-3.33,5.31-5.76,3.24-13.23,7.83-19.17,11.25-1.53.99-2.97,1.44-4.32,1.44-1.44,0-2.61-.54-3.6-1.62-.72-.72-1.08-1.8-1.08-2.88,0-1.35.63-2.61,1.98-3.42,3.06-1.71,6.93-3.51,11.16-5.31l-.09-.45ZM833.27,553.93c1.08,0,2.16.45,3.06,1.44,2.25,2.52,4.68,5.85,6.39,8.55.45.81.63,1.53.63,2.25,0,1.35-.63,2.43-1.8,3.24-.72.54-1.71.81-2.61.81-1.26,0-2.43-.54-3.15-1.62-1.8-2.97-4.14-6.12-6.12-8.55-.45-.63-.72-1.44-.72-2.07,0-1.35.72-2.61,1.89-3.33.81-.45,1.62-.72,2.43-.72ZM843.53,548.26c1.17,0,2.25.45,3.15,1.35,2.25,2.43,4.41,5.58,5.85,8.1.45.9.72,1.71.72,2.52,0,1.17-.54,2.25-1.62,2.97-.81.54-1.71.81-2.61.81-1.26,0-2.43-.54-3.24-1.89-1.62-2.61-3.78-5.67-5.58-7.83-.63-.72-.9-1.44-.9-2.25,0-1.26.81-2.52,1.98-3.24.72-.36,1.44-.54,2.25-.54Z"/><path class="cls-1" d="M888.53,552.13c2.43,5.85,6.21,11.52,9.9,16.2.54.72.9,1.71.9,2.79s-.36,2.34-1.35,3.33c-.9.99-1.98,1.44-2.97,1.44-1.08,0-2.16-.54-2.79-1.44-1.89-2.7-4.05-6.39-5.85-11.61.81,5.04,1.17,9.81,1.17,14.22v30.51c0,2.34-1.8,3.6-4.77,3.6s-4.68-1.26-4.68-3.6v-25.2c0-4.32.45-10.35,1.17-15.66-1.98,7.02-5.22,14.76-8.73,19.98-.81,1.17-1.98,1.8-3.24,1.8-1.08,0-2.16-.45-3.06-1.35-.99-.9-1.53-2.16-1.53-3.51,0-.99.36-1.98.99-2.97,5.4-7.38,10.17-18.09,12.87-28.53h-9.18c-2.25,0-3.42-1.71-3.42-4.5s1.17-4.41,3.42-4.41h10.71v-13.32c0-2.25,1.8-3.51,4.68-3.51s4.77,1.26,4.77,3.51v13.32h7.2c2.25,0,3.42,1.71,3.42,4.41s-1.17,4.5-3.42,4.5h-6.21ZM900.77,538.9c0-7.2,2.97-9.54,9.27-9.54h26.37c6.03,0,8.73,2.34,8.73,9.54v59.94c0,7.02-2.7,9.45-8.73,9.45h-26.37c-6.3,0-9.27-2.43-9.27-9.45v-59.94ZM935.42,540.88c0-1.8-.63-2.16-2.16-2.16h-20.52c-1.53,0-2.25.36-2.25,2.16v11.34h24.93v-11.34ZM910.49,561.22v13.77h24.93v-13.77h-24.93ZM910.49,583.99v12.78c0,1.71.72,2.16,2.25,2.16h20.52c1.53,0,2.16-.45,2.16-2.16v-12.78h-24.93Z"/><path class="cls-1" d="M963.5,551.14c-2.16,0-3.24-1.98-3.24-4.5s1.08-4.5,3.24-4.5h25.83c2.25,0,3.33,1.98,3.33,4.5s-1.08,4.5-3.33,4.5h-25.83ZM991.04,602.35c0,4.86-2.25,6.75-7.29,6.75h-13.32c-5.04,0-7.29-1.89-7.29-6.75v-13.86c0-4.86,2.25-6.66,7.29-6.66h13.32c5.04,0,7.29,1.8,7.29,6.66v13.86ZM966.11,564.01c-1.98,0-2.88-1.8-2.88-4.05s.9-4.05,2.88-4.05h21.96c1.8,0,2.79,1.8,2.79,4.05s-.99,4.05-2.79,4.05h-21.96ZM966.11,576.97c-1.98,0-2.88-1.8-2.88-4.05s.9-4.05,2.88-4.05h21.96c1.8,0,2.79,1.8,2.79,4.05s-.99,4.05-2.79,4.05h-21.96ZM966.83,537.28c-1.89,0-3.06-1.71-3.06-4.14s1.17-4.14,3.06-4.14h21.15c1.89,0,3.06,1.71,3.06,4.14s-1.17,4.14-3.06,4.14h-21.15ZM982.04,591.55c0-1.53-.63-1.89-2.16-1.89h-5.67c-1.53,0-2.07.36-2.07,1.89v7.74c0,1.53.54,1.98,2.07,1.98h5.67c1.53,0,2.16-.45,2.16-1.98v-7.74ZM998.6,610.45c-.81.45-1.62.63-2.43.63-1.62,0-3.06-.81-4.05-2.61-.45-.81-.63-1.71-.63-2.61,0-1.62.9-3.15,2.52-3.96,8.01-3.6,13.14-8.91,16.29-16.47,2.16-5.13,2.88-10.8,2.88-18.36,0-2.34,1.8-3.42,4.77-3.42s4.77,1.08,4.77,3.42v.9c0,7.92,1.17,12.6,3.33,17.28,3.24,7.02,9.99,12.51,17.1,15.84,1.62.72,2.52,2.34,2.52,4.14,0,.9-.27,1.8-.72,2.79-.99,1.8-2.52,2.79-4.23,2.79-.9,0-1.89-.27-2.79-.72-8.73-4.86-15.93-11.43-19.71-22.5-3.15,11.43-10.62,18.72-19.62,22.86ZM999.59,569.05c-.81.36-1.53.54-2.34.54-1.62,0-3.15-.9-4.05-2.7-.45-.81-.63-1.62-.63-2.34,0-1.71.99-3.06,2.52-3.78,6.66-2.88,12.69-7.47,15.48-13.68,2.25-5.04,2.79-9.54,2.79-17.01,0-2.25,1.8-3.42,4.77-3.42s4.68,1.17,4.68,3.42c0,7.65.63,12.51,3.15,16.74,3.78,6.3,9.63,10.35,16.47,13.5,1.53.72,2.61,2.16,2.61,3.96,0,.72-.18,1.44-.54,2.25-.99,2.07-2.43,2.97-4.05,2.97-.81,0-1.53-.18-2.34-.54-8.19-3.78-16.11-10.26-19.8-20.34-2.79,9.9-10.26,16.56-18.72,20.43ZM1007.06,574.54c0,.27,0,.54-.09.81-.99,4.05-3.42,9.27-5.49,12.6-.81,1.26-1.98,1.89-3.42,1.89-.99,0-1.98-.27-3.06-.9-1.53-.9-2.25-2.34-2.25-3.69,0-.72.18-1.44.54-2.07,1.62-2.7,3.6-6.93,4.68-10.44.45-1.35,1.8-2.25,3.69-2.25.54,0,1.08.09,1.62.18,2.25.54,3.78,1.98,3.78,3.87ZM1007.78,534.67c0,.18,0,.45-.09.63-.9,4.41-2.61,8.64-4.86,12.51-.81,1.35-2.25,2.25-3.96,2.25-.72,0-1.44-.18-2.16-.54-1.98-.9-2.88-2.43-2.88-3.96,0-.54.18-1.08.45-1.62,1.8-3.24,3.51-7.2,4.32-10.53.45-1.71,1.89-2.7,3.87-2.7.45,0,.99.09,1.44.18,2.61.45,3.87,2.07,3.87,3.78ZM1043.15,535.03c0,.45-.09.9-.36,1.35-1.98,3.96-4.32,8.01-7.2,11.07-.9,1.08-1.98,1.62-3.15,1.62-1.08,0-2.16-.45-3.33-1.35s-1.71-2.07-1.71-3.24c0-.72.27-1.53.81-2.34,1.8-2.52,4.05-5.94,5.76-9.45.72-1.44,1.89-2.16,3.51-2.16.72,0,1.62.18,2.52.54,2.07.81,3.15,2.43,3.15,3.96ZM1032.89,588.31c-.99,0-1.98-.36-2.97-.99-1.44-.99-2.25-2.34-2.25-3.69,0-.72.18-1.44.63-2.07,2.07-2.52,4.14-5.94,5.58-9.09.54-1.26,1.89-2.07,3.6-2.07.63,0,1.44.18,2.25.45,1.98.81,3.24,2.43,3.24,4.05,0,.45-.09.9-.27,1.35-1.62,3.69-3.96,7.38-6.66,10.62-.81.9-1.89,1.44-3.15,1.44Z"/></svg>