<?xml version="1.0" encoding="UTF-8"?><svg id="_レイヤー_1" xmlns="http://www.w3.org/2000/svg" viewBox="0 0 94.59 92.63"><defs><style>.cls-1{fill:#920783;}.cls-2{fill:#fff;}.cls-3{fill:#ea5514;}.cls-4{fill:#e60012;}.cls-5{fill:#22ac38;}</style></defs><circle class="cls-5" cx="50.22" cy="44.11" r="22.82"/><path class="cls-3" d="M.25,56.18c-.62-1.33-.05-2.91,1.27-3.53s2.91-.05,3.53,1.27c1.48,3.15,5.25,4.5,8.39,3.02,3.15-1.48,4.5-5.25,3.02-8.39-.62-1.33-.05-2.91,1.27-3.53,1.33-.62,2.91-.05,3.53,1.27,2.73,5.8.23,12.73-5.57,15.46-5.8,2.73-12.73.23-15.46-5.57Z"/><path class="cls-3" d="M41.56,69c-1.72.27-2.89,1.87-2.62,3.59l.24,1.57,2.22,14.25.24,1.57c.27,1.72,1.87,2.89,3.59,2.62s2.89-1.87,2.62-3.59l-.24-1.57-2.22-14.25-.24-1.57c-.27-1.72-1.87-2.89-3.59-2.62Z"/><circle class="cls-3" cx="22.38" cy="19.36" r="10.38"/><circle class="cls-2" cx="22.38" cy="19.36" r="5.02"/><circle class="cls-3" cx="23.37" cy="18.5" r="2.61"/><path class="cls-1" d="M50.21,78.67c-18.98,0-34.42-15.44-34.42-34.42S31.23,9.82,50.21,9.82c3.76,0,6.81,3.05,6.81,6.81s-3.05,6.81-6.81,6.81c-11.47,0-20.79,9.33-20.79,20.79s9.33,20.79,20.79,20.79c3.76,0,6.81,3.05,6.81,6.81s-3.05,6.81-6.81,6.81Z"/><path class="cls-1" d="M50.21,78.67c-3.76,0-6.81-3.05-6.81-6.81s3.05-6.81,6.81-6.81c11.47,0,20.79-9.33,20.79-20.79s-9.33-20.79-20.79-20.79c-3.76,0-6.81-3.05-6.81-6.81s3.05-6.81,6.81-6.81c18.98,0,34.42,15.44,34.42,34.42s-15.44,34.42-34.42,34.42Z"/><circle class="cls-3" cx="42.4" cy="39.42" r="10.38"/><circle class="cls-2" cx="42.4" cy="39.42" r="5.02"/><circle class="cls-3" cx="43.39" cy="38.55" r="2.61"/><path class="cls-3" d="M79.26,16.71c-.44.53-1.22.6-1.75.16s-.6-1.22-.16-1.75c1.04-1.25.87-3.12-.38-4.16s-3.12-.87-4.16.38c-.44.53-1.22.6-1.75.16s-.6-1.22-.16-1.75c1.92-2.3,5.35-2.62,7.66-.7,2.3,1.92,2.62,5.35.7,7.66Z"/><path class="cls-3" d="M85.26,21.33c-1.05,1.26-2.92,1.43-4.19.38s-1.43-2.92-.38-4.19c2.49-2.99,2.08-7.46-.91-9.95-2.99-2.49-7.46-2.08-9.95.91-1.05,1.26-2.92,1.43-4.19.38-1.26-1.05-1.43-2.92-.38-4.19,4.59-5.51,12.81-6.26,18.32-1.68,5.51,4.59,6.26,12.81,1.68,18.32Z"/><path class="cls-4" d="M66.61,53.42c.52-.52.52-1.38,0-1.9l-1.27-1.27c-.52-.52-1.38-.52-1.9,0-.52.52-.52,1.38,0,1.9l1.27,1.27c.52.52,1.38.52,1.9,0Z"/><path class="cls-4" d="M61.61,53.42c.52-.52.52-1.38,0-1.9l-1.27-1.27c-.52-.52-1.38-.52-1.9,0s-.52,1.38,0,1.9l1.27,1.27c.52.52,1.38.52,1.9,0Z"/><path class="cls-4" d="M56.3,53.42c.52-.52.52-1.38,0-1.9l-1.27-1.27c-.52-.52-1.38-.52-1.9,0s-.52,1.38,0,1.9l1.27,1.27c.52.52,1.38.52,1.9,0Z"/><path class="cls-3" d="M55.64,71.42c-1.36,1.08-1.6,3.05-.52,4.42l.98,1.24,8.94,11.32.98,1.24c1.08,1.36,3.05,1.6,4.42.52,1.36-1.08,1.6-3.05.52-4.42l-.98-1.24-8.94-11.32-.98-1.24c-1.08-1.36-3.05-1.6-4.42-.52Z"/><path class="cls-3" d="M72.57,55.57c.5-1.38,2.02-2.09,3.4-1.6,1.38.5,2.09,2.02,1.6,3.4-1.18,3.27.53,6.89,3.8,8.07,3.27,1.18,6.89-.53,8.07-3.8.5-1.38,2.02-2.09,3.4-1.6s2.09,2.02,1.6,3.4c-2.17,6.03-8.84,9.16-14.87,6.99-6.03-2.17-9.16-8.84-6.99-14.87Z"/></svg>