<?xml version="1.0" encoding="UTF-8"?><svg id="_レイヤー_1" xmlns="http://www.w3.org/2000/svg" viewBox="0 0 275.26 632.95"><defs><style>.cls-1{fill:#e4007f;}.cls-2{fill:#fff;}.cls-3{fill:#3fb4cb;}.cls-4{fill:#ffda00;}.cls-5{fill:#e60012;}.cls-6{fill:#22ac38;}</style></defs><path class="cls-3" d="M34.05,62.46c1.33,3.91,2.67,7.83,4,11.74,1.07,0,2.14.01,3.21.02.02-.88-.23-1.75-.23-2.63s.31-1.86,1.1-2.24c.8-.39,1.8,0,2.39.66s.86,1.54,1.12,2.39c.77-.22,1.5-.55,2.17-.98.27-.18.55-.39.66-.69.09-.25.05-.52,0-.78-.42-1.97-1.87-3.78-3.83-4.27s-4.28.58-4.87,2.5c-1.42-3.08-2.84-6.15-4.25-9.23-.07-.16-.16-.33-.33-.39-.14-.04-.28.01-.41.07-.52.21-1.04.42-1.56.64-.16.06-.33.14-.4.3-.08.16-.02.35.03.52.33,1.01.66,2.03.99,3.04"/><path class="cls-3" d="M56.4,58.11c-.57-.12-1.14.37-1.29.94s0,1.17.21,1.72l-.25.19c-1.36-.5-2.92-1-4.2-.31-.49.26-.88.68-1.2,1.13-.91,1.3-1.26,3.01-.78,4.53s1.82,2.76,3.39,2.97,3.27-.69,3.84-2.18c.3.46.61.93,1.06,1.24.45.31,1.09.41,1.54.11.69-.47.57-1.51.37-2.32-.54-2.16-1.08-4.32-1.61-6.48-.16-.64-.43-1.4-1.08-1.54ZM54.74,65.48c-.07.22-.16.45-.31.62-.23.27-.6.39-.95.38-.81-.03-1.51-.8-1.46-1.61s.84-1.49,1.65-1.42l.16.1c.42-.12.87.22,1.01.63.14.42.04.87-.09,1.29Z"/><path class="cls-3" d="M85.07,50.96c-.22-.42-.49-.87-.93-1.04-.73-.26-1.52.47-1.61,1.25-.09.77.28,1.52.64,2.21l-.11-.16c-.78-.74-1.63-1.45-2.64-1.8-1.01-.35-2.23-.3-3.06.38-1.08.88-1.23,2.47-1.05,3.85.2,1.55.72,3.11,1.79,4.25,1.07,1.14,2.75,1.79,4.24,1.33,1.45-.44,2.42-1.75,3.3-2.98.25,1.38.44,2.79.23,4.18-.21,1.38-.85,2.75-1.99,3.58s-2.8.97-3.93.15c-.43-.31-.76-.74-1.19-1.07-.42-.32-1.01-.53-1.49-.31-.53.24-.74.93-.59,1.49s.57,1.01,1.02,1.37c1.91,1.5,4.73,1.74,6.86.58,2.82-1.53,4.07-5.07,3.8-8.27-.27-3.2-1.77-6.15-3.28-8.98ZM82.26,57.16c-.18.36-.45.7-.83.86-.8.34-1.76-.3-2-1.13-.14-.48-.08-1.03.22-1.44.29-.41.84-.64,1.33-.5l.09-.23c.55-.13,1.14.27,1.35.8.21.53.1,1.14-.16,1.65Z"/><path class="cls-3" d="M48.81,87.31c-.83-1.98-3.09-3.41-5.15-2.83l.26-.39c-2.77.43-5.35,2.36-6.2,5.04-.84,2.67.35,5.94,2.87,7.16.93.45,1.98.62,3.01.59.85-.02,1.7-.17,2.44-.58,1.07-.59,1.79-1.66,2.31-2.77.91-1.94,1.28-4.25.45-6.23ZM45.55,90.55c.23,1.13-.67,2.35-1.82,2.48s-2.29-.83-2.39-1.98c-.08-.92.67-1.95,1.58-1.82l-.03-.17c1.08-.4,2.42.36,2.65,1.49Z"/><path class="cls-3" d="M50.71,82.75c.2,2.48.79,4.92,1.73,7.22.51,1.23,1.16,2.48,2.26,3.23,1.7,1.16,4.16.78,5.71-.58s2.24-3.5,2.2-5.56-.73-4.05-1.6-5.92c-.05-.11-.12-.24-.23-.29-.11-.05-.25-.02-.37.02-.63.18-1.25.37-1.88.55-.22.06-.46.14-.58.34-.13.2-.09.46-.04.69.27,1.21.81,2.35,1.05,3.57s.1,2.62-.8,3.48c-.27.27-.63.47-1.01.48-.83.01-1.36-.86-1.69-1.63-.77-1.81-1.39-3.68-1.86-5.6-.06-.25-.14-.53-.38-.64-.19-.09-.41-.03-.6.03-.61.19-1.22.38-1.83.57"/><path class="cls-3" d="M69.77,77.67c-1.77.51-3.54,1.01-5.31,1.52.14,1.22.45,2.43.9,3.58,1.54-.35,3.04-.83,4.49-1.45.75,2.57,1.51,5.13,2.26,7.7.06.21.13.43.31.55.2.14.46.11.69.08.8-.11,1.6-.23,2.4-.34.18-.03.38-.06.49-.21.13-.17.07-.42,0-.62-.78-2.54-1.64-5.06-2.58-7.55,1.29-.43,2.59-.87,3.88-1.3.17-.06.36-.13.45-.28.08-.14.06-.31.03-.47-.12-.7-.34-1.39-.64-2.03-.12-.25-.26-.51-.5-.64-.31-.16-.69-.07-1.03.03-1.04.3-2.07.6-3.11.9-.56-1.52-1.11-3.04-1.67-4.56-.07-.18-.15-.38-.32-.46-.16-.08-.36-.02-.53.03-.6.19-1.2.38-1.8.58.18,1.6.56,3.18,1.14,4.68"/><path class="cls-3" d="M83.57,89.97c.73.42,1.04,1.43.69,2.19s-1.32,1.17-2.11.9-1.3-1.2-1.1-2.02c.06-.24.17-.47.33-.66.5-.58,1.4-.66,2.13-.44"/><path class="cls-3" d="M73.52,59.71c-.77-1.5-2.3-2.53-3.96-2.85-1.08-.2-2.25-.11-3.18.47s-1.57,1.7-1.38,2.78c-.25-1.15-.74-2.25-1.44-3.19-.16-.22-.34-.44-.59-.55-.27-.12-.58-.09-.88-.06-.48.05-.99.12-1.37.42-.38.3-.54.92-.2,1.27l.04-.27c.96,3.16,1.93,6.32,2.89,9.48,1.18-.15,2.33-.44,3.44-.86.09-.03.18-.07.23-.15.08-.12.03-.27-.02-.41-.33-.92-.58-1.9-.4-2.87.17-.96.86-1.88,1.82-2.07,1.01-.19,1.96.44,2.7,1.18.5.65.88,1.38,1.09,2.17.81-.25,1.62-.49,2.43-.74-.41-1.51-.53-2.27-1.23-3.76Z"/><path class="cls-3" d="M83.79,79.59c.24-2.39.15-4.86,1.05-7.08,1.19.41,2.39.81,3.58,1.22-1.13,4.73-2.17,9.47-3.13,14.24-.65-.25-2.04-.51-2.54-.99-.57-.54-.13-1.23.06-2.04.42-1.76.79-3.54.97-5.34Z"/><path class="cls-3" d="M20.6,41.9c1.96,4.93,3.92,9.85,5.87,14.78,3.47-.77,6.89-1.8,10.21-3.09.2-.08.42-.17.54-.35.15-.23.1-.54.04-.81-.2-.83-.46-1.64-.79-2.43-2.22.55-4.45,1.09-6.67,1.64-1.83-4.27-3.67-8.53-5.5-12.8-1.07.31-2.11.73-3.1,1.25-.3.16-.6.34-.78.63s-.17.72.11.92"/><path class="cls-3" d="M53.43,38.3l-4.36,1.2c-.18.05-.38.11-.51.24-.19.2-.2.52-.19.8.03.83.31,1.92,1.14,1.92.23,0,.45-.1.67-.19.61-.28,1.22-.55,1.83-.83.22-.1.48-.2.69-.09.16.08.24.26.31.43.49,1.14.98,2.29,1.47,3.43.29.67.61,1.38,1.21,1.78s1.59.33,1.89-.34c.15-.33.1-.71.04-1.07-.3-1.69-.86-3.34-1.64-4.87.54-.59,1.42-.66,2.19-.85s1.64-.72,1.61-1.51c-.03-.68-.75-1.17-1.43-1.19s-1.32.3-1.93.61c-.45-1.03-.9-2.07-1.55-2.99-.23-.33-.5-.66-.87-.84s-.85-.17-1.14.13c-.37.38-.25,1-.11,1.51.28,1,.56,2,.85,3"/><path class="cls-3" d="M67.63,31.95c-1.02.17-2.06.12-3.09.23-1.03.11-2.09.4-2.82,1.13s-1.04,1.96-.46,2.82c.54.8,1.62,1.02,2.59.99s1.94-.24,2.88-.03,1.85,1.05,1.69,2c-.12.74-.84,1.25-1.56,1.47-1.04.33-2.21.25-3.19-.22-.24,1.17-.48,2.33-.72,3.5-.03.16-.06.33.02.47.11.18.35.22.57.22,1.6.06,3.25-.15,4.68-.88s2.6-2.06,2.89-3.64-.46-3.36-1.91-4.05c-.69-.32-1.48-.39-2.15-.76.56-.71,1.53-1.07,2.42-.89.28-.62.38-1.39.02-1.97s-1.29-.79-1.74-.28"/><path class="cls-3" d="M55.86,27.9c.94.88.86,2.6-.15,3.4,1.15.67,2.82.22,3.47-.94.46-.81.43-1.8.33-2.72-.08-.77-.21-1.54-.33-2.31-1.06.28-2.09.72-3.02,1.31-.38.24-.78.73-.5,1.07"/><path class="cls-3" d="M47.88,44.41c-.18-.13-.44-.07-.66,0-.37.11-.74.23-1.1.34-.16.05-.33.1-.47.21-.2.17-.28.44-.38.68-.55,1.32-2.01,2.2-3.44,2.06-1.42-.14-2.69-1.29-2.96-2.7l-.61.04c2.36-.73,4.71-1.46,7.07-2.2.49-.15,1.05-.38,1.16-.88.12-.55-.39-1.02-.89-1.27-1.16-.58-2.51-.7-3.81-.65-1.41.05-2.91.3-3.94,1.26-1.21,1.14-1.47,2.96-1.39,4.62.04.91.17,1.84.66,2.6.78,1.21,2.31,1.72,3.74,1.89,1.8.22,3.71.02,5.23-.97,1.51-.99,2.49-2.92,2.01-4.66-.04-.14-.1-.3-.22-.38ZM39.93,41.22c.37-.34.9-.5,1.4-.42.14.02.28.07.37.17.08.09.11.22.12.34.05.45-.07.93-.4,1.24-.4.38-1.01.43-1.56.45l.77-.3c-.42.02-.91-.14-1.04-.54-.11-.33.08-.7.34-.94Z"/><path class="cls-3" d="M210.12,29.75c-1.15,1.87-1.99,3.94-3.32,5.69-1.33,1.75-3.33,3.2-5.53,3.1-2.2-.1-4.27-2.34-3.59-4.43.05-.14.1-.29.08-.44-.03-.14-.13-.25-.23-.35-1.2-1.09-3.29-.71-4.32.54s-1.13,3.08-.63,4.62c.78,2.39,2.86,4.23,5.24,5.06s5.01.72,7.43.06c7.71-2.09,13.2-9.6,14.38-17.5.03-.23.06-.47-.04-.67-.14-.29-.47-.42-.78-.52-1.01-.33-2.02-.66-3.04-.99-.34-.11-.71-.22-1.06-.13-.39.1-.67.43-.92.75-1.46,1.85-2.77,3.83-3.9,5.91"/><path class="cls-3" d="M224.79,50.42c.56-2.02,0-4.27-1.29-5.92-1.29-1.65-3.26-2.71-5.32-3.09l-.28.38c-1.55,1.51-3.11,3.11-3.91,5.12-.79,2.01-.61,4.57,1,6.02.57.51,1.27.85,1.98,1.11,1.11.4,2.3.62,3.46.44,2.07-.34,3.8-2.03,4.36-4.05ZM217.83,50.16c-.75-.51-.98-1.63-.56-2.44.42-.81,1.38-1.27,2.29-1.18l.65.02c.67.8.86,2.02.33,2.91s-1.84,1.27-2.7.69Z"/><path class="cls-3" d="M236.55,41.17c.79.37,1.58.81,2.1,1.5s.73,1.7.28,2.44c-.42.69-1.32,1-2.12.84s-1.46-.74-1.88-1.43c-.4-.66-.6-1.49-.35-2.22.25-.73,1.03-1.3,1.79-1.15"/><path class="cls-3" d="M226.59,59.01c1.83-3.28,3.66-6.57,5.49-9.85.19-.34.42-.72.81-.81.29-.07.59.06.86.18.48.21.96.42,1.44.63.21.09.43.19.54.39.15.26.06.59-.04.87-1.13,3.27-2.58,6.43-4.34,9.41-.12.2-.25.41-.46.5-.19.08-.42.05-.62.01-1.22-.24-2.4-.72-3.44-1.4"/><path class="cls-3" d="M244.25,49.02c-2.2,5.09-4.41,10.19-6.61,15.28-.06.14-.13.3-.09.45.04.16.18.28.32.38.6.44,1.23.82,1.9,1.14.83-1.55,1.79-3.03,2.87-4.42,1-1.28,2.35-2.6,3.97-2.47,1.69.13,2.87,1.85,3.07,3.53s-.34,3.34-.75,4.98c-.06.24-.11.51.02.72.1.16.29.25.47.32.99.42,2.2.82,3.06.18.46-.34.7-.9.91-1.44.83-2.11,1.6-4.38,1.12-6.59-.79-3.59-4.76-5.73-8.44-5.73-.31-.79.15-1.65.49-2.43.38-.88.6-1.9.24-2.79s-1.47-1.51-2.32-1.07"/><path class="cls-3" d="M196.02,56.14c-.8,2.12-1.61,4.25-1.91,6.5-.3,2.24-.03,4.64,1.18,6.55.86,1.35,2.14,2.38,3.43,3.33.49.36,1,.72,1.6.84,1.14.24,2.26-.44,3.15-1.18,2.84-2.34,4.85-5.65,5.62-9.25.05-.21.08-.44,0-.63-.1-.2-.31-.32-.51-.41-2.02-1-4.18-1.74-6.39-2.18.4,2.13.3,4.35-.28,6.44-.25.91-.77,1.94-1.71,2.05-1.02.12-1.8-.94-2.04-1.94-.57-2.37.46-4.79,1.19-7.13.08-.26.16-.55.05-.8-.1-.23-.33-.36-.55-.48-1.07-.57-2.21-1.01-3.38-1.32"/><path class="cls-3" d="M223.7,67.77c-1.54-1.73-3.74-2.86-6.04-3.12-.84-.09-1.71-.07-2.49.26s-1.43,1.03-1.55,1.86c-.11.82.3,1.63.87,2.24,1.65,1.76,4.61,2.25,5.53,4.48.19.46.26,1.01,0,1.43-.28.48-.88.65-1.43.73-2.56.35-5.27-.76-6.85-2.81-.1-.14-.22-.28-.39-.32-.22-.04-.41.12-.57.28-.83.81-1.61,1.67-2.37,2.55-.16.19-.33.4-.35.65-.02.26.12.51.27.73,1.42,2.11,3.63,3.68,6.1,4.32,2.47.64,5.16.34,7.42-.83,1.27-.65,2.49-1.69,2.78-3.09.33-1.58-.58-3.13-1.46-4.48-.24-.37-.48-.83-.27-1.22.19-.35.65-.44,1.05-.42,1.08.04,2.14.53,2.86,1.33.71-.5,1.51-1.35,1.06-2.09-.13-.22-.35-.36-.56-.5-1.56-1.02-3.18-1.95-4.84-2.79"/><path class="cls-3" d="M237.41,72.34c-2.34,3.63-4.68,7.27-7.27,10.72-.42.56-.87,1.16-.94,1.86s.41,1.5,1.12,1.5c.45,0,.83-.32,1.17-.63,3.62-3.36,6.56-7.46,8.57-11.97.07-.16.14-.33.12-.51-.03-.19-.16-.34-.28-.48-.35-.39-.69-.78-1.04-1.17"/><path class="cls-3" d="M226.78,92.37c-.82,0-1.6-.61-1.8-1.4s.21-1.7.94-2.08c.74-.39,1.68-.22,2.36.25.66.45,1.14,1.21,1.07,2-.07.79-.8,1.52-1.59,1.42"/><path class="cls-1" d="M84.25,186.82c1.91-2.92,1.09-6.83-1.83-8.74l-2.66-1.74-24.25-15.86-2.66-1.74c-2.92-1.91-6.83-1.09-8.74,1.83-1.91,2.92-1.09,6.83,1.83,8.74l2.66,1.74,24.25,15.86,2.66,1.74c2.92,1.91,6.83,1.09,8.74-1.83Z"/><path class="cls-1" d="M202.16,186.82c-1.91-2.92-1.09-6.83,1.83-8.74l2.66-1.74,24.25-15.86,2.66-1.74c2.92-1.91,6.83-1.09,8.74,1.83,1.91,2.92,1.09,6.83-1.83,8.74l-2.66,1.74-24.25,15.86-2.66,1.74c-2.92,1.91-6.83,1.09-8.74-1.83Z"/><circle class="cls-4" cx="142.12" cy="192.15" r="45.84"/><path class="cls-1" d="M99.68,278.53c2.66,1.25,5.84.11,7.09-2.55,1.25-2.66.11-5.84-2.55-7.09-6.32-2.97-9.04-10.54-6.07-16.86,2.97-6.32,10.54-9.04,16.86-6.07,2.66,1.25,5.84.11,7.09-2.55,1.25-2.66.11-5.84-2.55-7.09-11.64-5.48-25.57-.46-31.04,11.18-5.48,11.64-.46,25.57,11.18,31.04Z"/><path class="cls-1" d="M188.93,278.53c-2.66,1.25-5.84.11-7.09-2.55-1.25-2.66-.11-5.84,2.55-7.09,6.32-2.97,9.04-10.54,6.07-16.86-2.97-6.32-10.54-9.04-16.86-6.07-2.66,1.25-5.84.11-7.09-2.55-1.25-2.66-.11-5.84,2.55-7.09,11.64-5.48,25.57-.46,31.04,11.18,5.48,11.64.46,25.57-11.18,31.04Z"/><circle class="cls-1" cx="144.31" cy="228.67" r="30.36"/><circle class="cls-1" cx="91.46" cy="144.31" r="20.84"/><circle class="cls-2" cx="91.46" cy="144.31" r="10.08"/><circle class="cls-1" cx="91.46" cy="147.61" r="5.24"/><circle class="cls-1" cx="194.95" cy="144.31" r="20.84"/><circle class="cls-2" cx="194.95" cy="144.31" r="10.08"/><circle class="cls-1" cx="194.95" cy="147.61" r="5.24"/><path class="cls-6" d="M143.21,264.63c-38.12,0-69.13-31.01-69.13-69.13s31.01-69.13,69.13-69.13c7.56,0,13.69,6.13,13.69,13.69s-6.13,13.69-13.69,13.69c-23.03,0-41.76,18.73-41.76,41.76s18.73,41.76,41.76,41.76c7.56,0,13.69,6.13,13.69,13.69s-6.13,13.69-13.69,13.69Z"/><path class="cls-6" d="M143.21,264.63c-7.56,0-13.69-6.13-13.69-13.69s6.13-13.69,13.69-13.69c23.03,0,41.76-18.73,41.76-41.76s-18.73-41.76-41.76-41.76c-7.56,0-13.69-6.13-13.69-13.69s6.13-13.69,13.69-13.69c38.12,0,69.13,31.01,69.13,69.13s-31.01,69.13-69.13,69.13Z"/><path class="cls-1" d="M140.31,190.88c-3.33,0-6.04-2.71-6.04-6.04s2.71-6.04,6.04-6.04c.66,0,1.2.54,1.2,1.2s-.54,1.2-1.2,1.2c-2.01,0-3.65,1.64-3.65,3.65s1.64,3.65,3.65,3.65c.66,0,1.2.54,1.2,1.2s-.54,1.2-1.2,1.2Z"/><path class="cls-1" d="M140.31,190.88c-.66,0-1.2-.54-1.2-1.2s.54-1.2,1.2-1.2c2.01,0,3.65-1.64,3.65-3.65s-1.64-3.65-3.65-3.65c-.66,0-1.2-.54-1.2-1.2s.54-1.2,1.2-1.2c3.33,0,6.04,2.71,6.04,6.04s-2.71,6.04-6.04,6.04Z"/><path class="cls-1" d="M163.84,190.88c-3.33,0-6.04-2.71-6.04-6.04s2.71-6.04,6.04-6.04c.66,0,1.2.54,1.2,1.2s-.54,1.2-1.2,1.2c-2.01,0-3.65,1.64-3.65,3.65s1.64,3.65,3.65,3.65c.66,0,1.2.54,1.2,1.2s-.54,1.2-1.2,1.2Z"/><path class="cls-1" d="M163.84,190.88c-.66,0-1.2-.54-1.2-1.2s.54-1.2,1.2-1.2c2.01,0,3.65-1.64,3.65-3.65s-1.64-3.65-3.65-3.65c-.66,0-1.2-.54-1.2-1.2s.54-1.2,1.2-1.2c3.33,0,6.04,2.71,6.04,6.04s-2.71,6.04-6.04,6.04Z"/><path class="cls-1" d="M106.33,190.88c-.23,0-.46-.07-.66-.2-.55-.37-.7-1.11-.33-1.66l6.46-9.68c.37-.55,1.11-.7,1.66-.33.55.37.7,1.11.33,1.66l-6.46,9.68c-.23.35-.61.53-1,.53Z"/><path class="cls-1" d="M121.64,190.88c-.39,0-.77-.19-1-.53l-6.46-9.68c-.37-.55-.22-1.29.33-1.66.55-.37,1.29-.22,1.66.33l6.46,9.68c.37.55.22,1.29-.33,1.66-.2.14-.43.2-.66.2Z"/><path class="cls-1" d="M117.55,187.72h-7.13c-.4,0-.72-.32-.72-.72s.32-.72.72-.72h7.13c.4,0,.72.32.72.72s-.32.72-.72.72Z"/><path class="cls-1" d="M126.93,186.04c-1.99,0-3.62-1.62-3.62-3.62s1.62-3.62,3.62-3.62c.66,0,1.2.54,1.2,1.2s-.54,1.2-1.2,1.2-1.23.55-1.23,1.23.55,1.23,1.23,1.23,1.2.54,1.2,1.2-.54,1.2-1.2,1.2Z"/><path class="cls-1" d="M128.79,190.88c-.4,0-.72-.32-.72-.72s.32-.72.72-.72c.94,0,1.7-.76,1.7-1.7s-.76-1.7-1.7-1.7c-.4,0-.72-.32-.72-.72s.32-.72.72-.72c1.73,0,3.14,1.41,3.14,3.14s-1.41,3.14-3.14,3.14Z"/><path class="cls-1" d="M154.74,182.9c-.4,0-.72-.32-.72-.72,0-1.07-.87-1.94-1.94-1.94h-.06c-.4,0-.72-.32-.72-.72s.32-.72.72-.72h.06c1.86,0,3.38,1.52,3.38,3.38,0,.4-.32.72-.72.72Z"/><path class="cls-1" d="M152.08,185.56c-.4,0-.72-.32-.72-.72s.32-.72.72-.72c1.07,0,1.94-.87,1.94-1.94,0-.4.32-.72.72-.72s.72.32.72.72c0,1.86-1.52,3.38-3.38,3.38Z"/><path class="cls-1" d="M152.08,190.88h-.06c-.4,0-.72-.32-.72-.72s.32-.72.72-.72h.06c1.07,0,1.94-.87,1.94-1.94,0-.4.32-.72.72-.72s.72.32.72.72c0,1.86-1.52,3.38-3.38,3.38Z"/><path class="cls-1" d="M154.74,188.22c-.4,0-.72-.32-.72-.72,0-1.07-.87-1.94-1.94-1.94-.4,0-.72-.32-.72-.72s.32-.72.72-.72c1.86,0,3.38,1.52,3.38,3.38,0,.4-.32.72-.72.72Z"/><path class="cls-1" d="M150.16,190.88c-.66,0-1.2-.54-1.2-1.2v-9.68c0-.66.54-1.2,1.2-1.2s1.2.54,1.2,1.2v9.68c0,.66-.54,1.2-1.2,1.2Z"/><path class="cls-1" d="M174.59,188.5c-.66,0-1.2-.54-1.2-1.2v-7.31c0-.66.54-1.2,1.2-1.2s1.2.54,1.2,1.2v7.31c0,.66-.54,1.2-1.2,1.2Z"/><path class="cls-1" d="M174.59,190.88c-.4,0-.72-.32-.72-.72v-.96c0-.4.32-.72.72-.72s.72.32.72.72v.96c0,.4-.32.72-.72.72Z"/><path class="cls-1" d="M178.11,187.54c-.4,0-.72-.32-.72-.72v-7.31c0-.4.32-.72.72-.72s.72.32.72.72v7.31c0,.4-.32.72-.72.72Z"/><path class="cls-1" d="M178.11,190.88c-.66,0-1.2-.54-1.2-1.2v-.96c0-.66.54-1.2,1.2-1.2s1.2.54,1.2,1.2v.96c0,.66-.54,1.2-1.2,1.2Z"/><path class="cls-5" d="M255.64,299.55H31.92c-10.83,0-19.61,8.78-19.61,19.61s8.78,19.61,19.61,19.61h223.72c10.83,0,19.61-8.78,19.61-19.61s-8.78-19.61-19.61-19.61Z"/><path class="cls-5" d="M255.64,358.38H31.92c-10.83,0-19.61,8.78-19.61,19.61s8.78,19.61,19.61,19.61h223.72c10.83,0,19.61-8.78,19.61-19.61s-8.78-19.61-19.61-19.61Z"/><path class="cls-5" d="M255.64,417.22H31.92c-10.83,0-19.61,8.78-19.61,19.61s8.78,19.61,19.61,19.61h223.72c10.83,0,19.61-8.78,19.61-19.61s-8.78-19.61-19.61-19.61Z"/><path class="cls-5" d="M255.64,476.05H31.92c-10.83,0-19.61,8.78-19.61,19.61s8.78,19.61,19.61,19.61h223.72c10.83,0,19.61-8.78,19.61-19.61s-8.78-19.61-19.61-19.61Z"/><path class="cls-5" d="M255.64,534.89H31.92c-10.83,0-19.61,8.78-19.61,19.61s8.78,19.61,19.61,19.61h223.72c10.83,0,19.61-8.78,19.61-19.61s-8.78-19.61-19.61-19.61Z"/><path class="cls-5" d="M255.64,593.72H31.92c-10.83,0-19.61,8.78-19.61,19.61s8.78,19.61,19.61,19.61h223.72c10.83,0,19.61-8.78,19.61-19.61s-8.78-19.61-19.61-19.61Z"/><path class="cls-6" d="M130,97.32c-.34-.93.14-1.95,1.07-2.28s1.95.14,2.28,1.07l2.41,6.63,2.2,6.05c.34.93-.14,1.95-1.07,2.28s-1.95-.14-2.28-1.07l-2.17-5.98-2.43-6.7Z"/><path class="cls-6" d="M121.92,105.12c-.63-.75-.53-1.88.22-2.51s1.88-.53,2.51.22l4.53,5.41,4.13,4.93c.63.75.53,1.88-.22,2.51s-1.88.53-2.51-.22l-4.09-4.88-4.58-5.47Z"/><path class="cls-6" d="M155.47,97.34c.34-.92-.14-1.95-1.06-2.29s-1.95.14-2.29,1.06l-2.42,6.63-2.21,6.05c-.34.92.14,1.95,1.06,2.29s1.95-.14,2.29-1.06l2.18-5.98,2.45-6.7Z"/><path class="cls-6" d="M163.54,105.16c.63-.75.54-1.88-.22-2.51s-1.88-.54-2.51.22l-4.54,5.4-4.14,4.93c-.63.75-.54,1.88.22,2.51s1.88.54,2.51-.22l4.09-4.87,4.59-5.46Z"/><path class="cls-6" d="M142.73,109.17c-.77,0-1.4-.63-1.4-1.4v-14.26c.01-.77.64-1.4,1.41-1.4s1.4.63,1.4,1.4v14.26c-.01.77-.64,1.4-1.41,1.4Z"/><path class="cls-6" d="M142.73,109.17c-.77,0-1.4-.63-1.4-1.4v-14.26c.01-.77.64-1.4,1.41-1.4s1.4.63,1.4,1.4v14.26c-.01.77-.64,1.4-1.41,1.4Z"/><path class="cls-6" d="M140.96,93.89c0-.98.8-1.78,1.78-1.78s1.78.8,1.78,1.78v7.06s-.01,6.44-.01,6.44c0,.98-.8,1.78-1.78,1.78s-1.78-.8-1.78-1.78v-6.36s.01-7.13.01-7.13Z"/><path class="cls-3" d="M111.51,84.2c-.59-2.21-2.55-4.15-4.84-4.2,2.11-3.11,4.29-6.43,4.46-10.18s-2.55-7.9-6.31-7.79c1.82-3.78,3.23-7.76,4.2-11.85.34-1.43.6-3.01-.11-4.3-.59-1.06-1.73-1.68-2.84-2.16-3.09-1.33-6.47-1.97-9.84-1.87-.66-2.97.39-6.02.9-9.02.51-3,.25-6.58-2.2-8.39-1-.74-2.23-1.07-3.45-1.32-3.64-.75-7.42-.88-11.1-.38,1.05-5.09,1.49-11.75-4.17-13.51-1.03-.32-2.12-.38-3.19-.28-3.48.3-9.13,1.07-10.48,5-4.1-2.76-8.7-5.26-13.64-5.16s-10.1,3.73-10.25,8.67c-1.35-3.91-5.82-6.46-9.87-5.61-5.61,1.17-4.92,6.83-8.72,9.15-4.7,2.87-9.85,1.78-13.67,6.93-3.34,4.51-2.8,12.07,2.19,14.65-2.25,3.01-4.82,5.82-6.6,9.13-1.78,3.31-2.7,7.33-1.37,10.85,1.32,3.52,5.42,6.09,8.96,4.82-.74,5.42-3.86,10.29-3.87,15.91,0,1.57.28,3.14.94,4.56,2.4,5.13,7.65,5.21,12.3,5.1-2.21,4.69-.9,10.78,3.03,14.16,3.93,3.38,10.15,3.75,14.46.86-.59,4.12,3.62,7.45,7.7,8.28,7.54,1.55,15.86-2.7,19.04-9.7l9.1,7.38c.85.69,2.13.13,2.2-.96.2-3.12.08-6.26-.35-9.36,4.35.84,8.41,3.1,12.84,3.3,4.43.21,9.59-2.98,9.02-7.37,5.96.2,11.88-3.34,14.52-8.69,1.02-2.05,1.57-4.44.98-6.65ZM107.52,88.15c-.45.91-1.29,1.56-2.12,2.13-2.8,1.9-5.95,3.3-9.24,4.1-.69.17-1.17.75-1.23,1.45-.36,3.91-4.48,7-8.55,7.32-4.01.31-7.86-1.29-11.52-3.05-.57-.27-1.25.11-1.29.74-.09,1.27-.29,2.53-.61,3.76-.26,1-1.38,1.5-2.31,1.04-2.39-1.18-4.91-2.1-7.5-2.72-.71-.17-1.41.3-1.57,1.02-1.13,5.1-6.16,9.17-11.42,8.97-5.02-.19-9.54-4.24-10.59-9.1-.13-.6-.88-.82-1.3-.37-2.8,3.04-8.64,2.93-11.66-.22-3.06-3.19-3.47-8.16-2.12-12.43.22-.7-.42-1.39-1.14-1.23-4.72,1.06-10.18-.35-12.51-4.52-1.79-3.18-1.39-7.16-.31-10.64.89-2.87,2.2-5.6,3.07-8.46.24-.8-.42-1.55-1.25-1.51-2.57.13-5.23-1.47-6.4-3.83-1.44-2.91-.83-6.56,1.04-9.21,1.41-2.01,3.45-3.49,5.7-4.51.79-.36.93-1.44.24-1.95-3.46-2.52-5.25-7.31-3.99-11.45.71-2.32,2.34-4.29,4.38-5.58,1.97-1.25,4.61-.84,6.39-1.93,1.66-1.02,2.32-3.4,4.04-4.61,1.84-1.3,4.2-1.98,6.45-1.94,3.76.06,7.27,1.69,10.5,3.7.93.58,2.14.08,2.38-.98.83-3.69,2.39-7.38,5.87-8.34,4.63-1.28,8.5,3.25,12.94,5.3.65.3,1.42.03,1.75-.61,1.55-2.98,3.72-5.95,7.26-5.57,1.93.21,3.58,1.48,4.48,3.2,1.65,3.13,1.2,6.45.41,9.67-.23.93.52,1.81,1.48,1.74,3.06-.22,6.15-.25,9.04.71,3.52,1.17,6.68,4.23,6.78,7.93.07,2.77-1.53,5.34-2.05,8.04-.17.87.58,1.67,1.46,1.54,1.6-.23,3.2-.37,4.79-.1,2.12.36,4.22,1.57,5.05,3.55.53,1.26.5,2.69.37,4.05-.38,3.79-1.52,7.5-3.33,10.85-.45.83-.02,1.87.9,2.12,2.67.73,5.27,2.03,5.75,4.61.59,3.21-2.51,5.54-4.45,8.31-.53.75-.15,1.8.73,2.06,1.33.39,2.62.91,3.68,1.78,1.5,1.24,2.4,3.45,1.54,5.19Z"/><path class="cls-3" d="M275.84,51.77c-1.6-5.44-7.64-6.42-12.74-6.4.57-3.48,1.14-7.02.72-10.52-.42-3.5-1.97-7.03-4.86-9.05-2.89-2.02-7.25-2.08-9.72.44-.46-3.16-.93-6.39-2.38-9.24-1.45-2.85-4.06-5.3-7.24-5.69-3.45-.42-6.69,1.61-9.44,3.72-1.59-4.88-3.73-9.77-8.08-12.84-2.44-1.73-5.45-2.59-8.39-2.02-5.59,1.08-8.36,5.97-14.07,5.57-5.88-.41-11.46-.91-16.46,2.98-5.01,3.89-6.71,12.16-2.27,16.69-3.11,2.85-6.34,5.86-7.78,9.83-1.44,3.97-.43,9.17,3.32,11.1-4.34,4.37-8.1,9.93-8,16.08.1,6.15,5.58,12.39,11.64,11.31-1.37,3.17-.93,7.06,1.11,9.85,2.04,2.79,5.61,4.39,9.05,4.04-.84,5.2-1.52,10.43-2.02,15.68-.14,1.48-.2,3.13.28,4.49.4,1.14,1.77,1.62,2.84,1.05,6.12-3.29,12.04-6.94,17.71-10.94.67,4.74,3.99,9.01,8.42,10.82,4.43,1.81,9.79,1.09,13.59-1.82,1.56-1.2,2.97-2.79,4.89-3.23,2.11-.48,4.23.55,6.32,1.13,4.91,1.35,10.46.01,14.22-3.42,3.75-3.44,5.58-8.86,4.66-13.86,3.95-2.3,7.92-5.02,10.03-9.07,2.11-4.05,1.67-9.77-2.09-12.36,2.88-2.85,5.82-5.8,6.8-9.92.34-1.44.36-2.96-.05-4.37ZM269.45,57.41c-1.33,3.23-3.02,6.31-5.04,9.17-.46.65-.28,1.59.42,1.97,1.2.65,2.07,2.03,2.2,3.43.19,1.97-.72,3.88-1.84,5.51-2.07,3.01-4.96,5.45-8.26,7.02-.92.44-1.29,1.5-.86,2.42,1.24,2.7.68,6.21-1.2,8.61-2.29,2.92-6.07,4.35-9.77,4.6-3.13.21-6.25-.32-9.34-.96-.88-.18-1.81.2-2.25.99-2.34,4.2-8.69,5.43-13.29,3.42-4.39-1.92-7.5-5.79-10.26-9.78-.63-.9-1.93-.98-2.65-.15-3.49,3.99-7.63,7.85-12.54,8.54-1.16.16-2.06-.98-1.71-2.09,1.25-4.02,2.84-7.94,4.74-11.7.48-.95,0-2.09-1.01-2.4-3-.92-5.92-2.19-7.99-4.5s-2.92-6.02-1.6-8.72c.38-.79-.12-1.71-.98-1.9-3.34-.74-6.51-2.21-9.23-4.28-1.17-.89-2.31-1.97-2.74-3.38-.48-1.57,0-3.26.59-4.79,1.67-4.35,4.25-8.35,7.52-11.67.57-.58.44-1.54-.27-1.92-3.25-1.73-4.48-6.67-2.92-10.26,1.54-3.55,4.8-5.95,8.23-7.86.82-.46,1.03-1.51.48-2.26-1.74-2.4-1.89-5.93-.53-8.64,1.65-3.27,5.07-5.38,8.63-6.2,3-.69,6.27.42,9.09-.19,2.14-.46,2.21-1.4,4.01-2.65,3.34-2.3,8.13-1.94,11.33.48,3.57,2.7,5.43,6.97,6.94,11.25.29.83,1.29,1.15,2.01.65,3.16-2.2,7.73-2.29,11.04-.21,3.34,2.11,5.25,6.12,5.18,10.08-.01.79.71,1.39,1.49,1.28,3.66-.51,7.57,1.39,9.8,4.42,2.22,3.02,2.95,6.91,2.64,10.67-.08.94.61,1.78,1.55,1.85,1.75.12,3.5.36,5.1,1.06,2.14.93,4.02,2.86,4.19,5.18.1,1.35-.37,2.67-.88,3.91Z"/></svg>