<?xml version="1.0" encoding="UTF-8"?><svg id="_レイヤー_1" xmlns="http://www.w3.org/2000/svg" viewBox="0 0 67.31 76.52"><defs><style>.cls-1{fill:#ee9ab7;}.cls-2{fill:#fff;}.cls-3{fill:#00a0e9;}.cls-4{fill:#ea5514;}.cls-5{fill:#e60012;}</style></defs><path class="cls-4" d="M32.34,36.05c1.03.78,1.23,2.25.45,3.28-.78,1.03-2.25,1.23-3.28.45-2.44-1.85-5.93-1.37-7.78,1.06-1.85,2.44-1.37,5.93,1.06,7.78,1.03.78,1.23,2.25.45,3.28s-2.25,1.23-3.28.45c-4.49-3.41-5.37-9.84-1.96-14.33,3.41-4.49,9.84-5.37,14.33-1.96Z"/><path class="cls-4" d="M41.01,56.59c1.03.78,1.23,2.25.45,3.28s-2.25,1.23-3.28.45c-2.44-1.85-5.93-1.37-7.78,1.06s-1.37,5.93,1.06,7.78c1.03.78,1.23,2.25.45,3.28s-2.25,1.23-3.28.45c-4.49-3.41-5.37-9.84-1.96-14.33,3.41-4.49,9.84-5.37,14.33-1.96Z"/><circle class="cls-1" cx="43.71" cy="51.16" r="12.77"/><circle class="cls-1" cx="35.73" cy="25.17" r="13.23"/><path class="cls-3" d="M35.4,43.04c-10.01,0-18.16-8.15-18.16-18.16S25.38,6.73,35.4,6.73c3.31,0,6,2.69,6,6s-2.69,6-6,6-6.16,2.76-6.16,6.16,2.76,6.15,6.16,6.15,6,2.69,6,6-2.69,6-6,6Z"/><path class="cls-3" d="M44.69,67.34c-1.99,0-3.6-1.61-3.6-3.6s1.61-3.6,3.6-3.6c4.72,0,8.56-3.84,8.56-8.56s-3.84-8.56-8.56-8.56c-1.99,0-3.6-1.61-3.6-3.6s1.61-3.6,3.6-3.6c8.69,0,15.76,7.07,15.76,15.76s-7.07,15.76-15.76,15.76Z"/><circle class="cls-4" cx="20.18" cy="9.31" r="9.14"/><circle class="cls-2" cx="20.18" cy="9.31" r="4.42"/><circle class="cls-4" cx="21.08" cy="10.08" r="2.3"/><ellipse class="cls-4" cx="40.76" cy="19.01" rx="9.14" ry="9.43"/><ellipse class="cls-2" cx="40.76" cy="19.01" rx="4.42" ry="4.56"/><ellipse class="cls-4" cx="41.82" cy="19.89" rx="2.3" ry="2.37"/><path class="cls-4" d="M51.98,58.63c-1.27.86-1.59,2.58-.74,3.85l.78,1.15,7.13,10.51.78,1.15c.86,1.27,2.58,1.59,3.85.74s1.59-2.58.74-3.85l-.78-1.15-7.13-10.51-.78-1.15c-.86-1.27-2.58-1.59-3.85-.74Z"/><path class="cls-4" d="M65.23,51.14c-.78,1.03-2.25,1.23-3.28.45-1.03-.78-1.23-2.25-.45-3.28,1.85-2.44,1.37-5.93-1.06-7.78-2.44-1.85-5.93-1.37-7.78,1.06-.78,1.03-2.25,1.23-3.28.45s-1.23-2.25-.45-3.28c3.41-4.49,9.84-5.37,14.33-1.96,4.49,3.41,5.37,9.84,1.96,14.33Z"/><path class="cls-5" d="M61.31,5.53c0-1.72-1.4-3.12-3.12-3.12-.97,0-1.83.44-2.4,1.14-.57-.69-1.44-1.14-2.4-1.14-1.72,0-3.12,1.4-3.12,3.12,0,.05,0,.1.02.15.02.14.09.28.2.39l.27.27,1.46,1.46s0,0,0,0l.27.27,2.49,2.49.2.2s.01.01.02.02c0,0,.01.01.02.02l.03.03c.14.14.33.21.52.21,0,0,.01,0,.02,0,0,0,.01,0,.02,0,.19,0,.38-.07.52-.21l.03-.03s.01-.01.02-.02c0,0,.01-.01.02-.02l.2-.2,2.49-2.49.27-.27s0,0,0,0l.83-.83h.05v-.05l.58-.58.27-.27c.11-.11.17-.24.2-.39.01-.05.02-.1.02-.15Z"/><path class="cls-5" d="M11.04,34.85c0-1.72-1.4-3.12-3.12-3.12-.97,0-1.83.44-2.4,1.14-.57-.69-1.44-1.14-2.4-1.14-1.72,0-3.12,1.4-3.12,3.12,0,.05,0,.1.02.15.02.14.09.28.2.39l.27.27,1.46,1.46s0,0,0,0l.27.27,2.49,2.49.2.2s.01.01.02.02c0,0,.01.01.02.02l.03.03c.14.14.33.21.52.21,0,0,.01,0,.02,0,0,0,.01,0,.02,0,.19,0,.38-.07.52-.21l.03-.03s.01-.01.02-.02c0,0,.01-.01.02-.02l.2-.2,2.49-2.49.27-.27s0,0,0,0l.83-.83h.05v-.05l.58-.58.27-.27c.11-.11.17-.24.2-.39.01-.05.02-.1.02-.15Z"/></svg>