<?xml version="1.0" encoding="UTF-8"?><svg id="_レイヤー_1" xmlns="http://www.w3.org/2000/svg" viewBox="0 0 204.29 33.27"><defs><style>.cls-1{fill:#e60012;}</style></defs><path class="cls-1" d="M96.88,33.26c-9.17,0-16.63-7.46-16.63-16.63S87.71,0,96.88,0c1.82,0,3.29,1.47,3.29,3.29s-1.47,3.29-3.29,3.29c-5.54,0-10.05,4.51-10.05,10.05s4.51,10.05,10.05,10.05c1.82,0,3.29,1.47,3.29,3.29s-1.47,3.29-3.29,3.29Z"/><path class="cls-1" d="M96.88,33.26c-1.82,0-3.29-1.47-3.29-3.29s1.47-3.29,3.29-3.29c5.54,0,10.05-4.51,10.05-10.05s-4.51-10.05-10.05-10.05c-1.82,0-3.29-1.47-3.29-3.29s1.47-3.29,3.29-3.29c9.17,0,16.63,7.46,16.63,16.63s-7.46,16.63-16.63,16.63Z"/><path class="cls-1" d="M161.69,33.26c-9.17,0-16.63-7.46-16.63-16.63S152.52,0,161.69,0c1.82,0,3.29,1.47,3.29,3.29s-1.47,3.29-3.29,3.29c-5.54,0-10.05,4.51-10.05,10.05s4.51,10.05,10.05,10.05c1.82,0,3.29,1.47,3.29,3.29s-1.47,3.29-3.29,3.29Z"/><path class="cls-1" d="M161.69,33.26c-1.82,0-3.29-1.47-3.29-3.29s1.47-3.29,3.29-3.29c5.54,0,10.05-4.51,10.05-10.05s-4.51-10.05-10.05-10.05c-1.82,0-3.29-1.47-3.29-3.29s1.47-3.29,3.29-3.29c9.17,0,16.63,7.46,16.63,16.63s-7.46,16.63-16.63,16.63Z"/><path class="cls-1" d="M3.29,33.26c-.63,0-1.26-.18-1.82-.55-1.51-1.01-1.92-3.05-.91-4.57L18.34,1.47c1.01-1.51,3.05-1.92,4.57-.91,1.51,1.01,1.92,3.05.91,4.57L6.03,31.79c-.63.95-1.68,1.47-2.74,1.47Z"/><path class="cls-1" d="M45.46,33.26c-1.06,0-2.11-.51-2.74-1.47L24.94,5.12c-1.01-1.51-.6-3.56.91-4.57,1.51-1.01,3.56-.6,4.57.91l17.78,26.67c1.01,1.51.6,3.56-.91,4.57-.56.37-1.2.55-1.82.55Z"/><path class="cls-1" d="M34.2,24.56H14.56c-1.09,0-1.98-.88-1.98-1.98s.88-1.98,1.98-1.98h19.64c1.09,0,1.98.88,1.98,1.98s-.88,1.98-1.98,1.98Z"/><path class="cls-1" d="M60.04,19.93c-5.49,0-9.96-4.47-9.96-9.96S54.55,0,60.04,0c1.82,0,3.29,1.47,3.29,3.29s-1.47,3.29-3.29,3.29-3.38,1.52-3.38,3.38,1.52,3.38,3.38,3.38,3.29,1.47,3.29,3.29-1.47,3.29-3.29,3.29Z"/><path class="cls-1" d="M65.14,33.26c-1.09,0-1.98-.88-1.98-1.98s.88-1.98,1.98-1.98c2.59,0,4.69-2.11,4.69-4.69s-2.11-4.69-4.69-4.69c-1.09,0-1.98-.88-1.98-1.98s.88-1.98,1.98-1.98c4.77,0,8.65,3.88,8.65,8.64s-3.88,8.65-8.65,8.65Z"/><path class="cls-1" d="M136.62,11.28c-1.09,0-1.98-.88-1.98-1.98,0-2.95-2.4-5.36-5.35-5.36h-.17c-1.09,0-1.98-.88-1.98-1.98S128.03,0,129.12,0h.17c5.13,0,9.31,4.17,9.31,9.31,0,1.09-.88,1.98-1.98,1.98Z"/><path class="cls-1" d="M129.29,18.61c-1.09,0-1.98-.88-1.98-1.98s.88-1.98,1.98-1.98c2.95,0,5.35-2.4,5.35-5.36,0-1.09.88-1.98,1.98-1.98s1.98.88,1.98,1.98c0,5.13-4.17,9.31-9.31,9.31Z"/><path class="cls-1" d="M129.29,33.27h-.17c-1.09,0-1.98-.88-1.98-1.98s.88-1.98,1.98-1.98h.17c2.95,0,5.35-2.4,5.35-5.36,0-1.09.88-1.98,1.98-1.98s1.98.88,1.98,1.98c0,5.13-4.17,9.31-9.31,9.31Z"/><path class="cls-1" d="M136.62,25.94c-1.09,0-1.98-.88-1.98-1.98,0-2.95-2.4-5.35-5.35-5.35-1.09,0-1.98-.88-1.98-1.98s.88-1.98,1.98-1.98c5.13,0,9.31,4.17,9.31,9.31,0,1.09-.88,1.98-1.98,1.98Z"/><path class="cls-1" d="M124.02,33.27c-1.82,0-3.29-1.47-3.29-3.29V3.3c0-1.82,1.47-3.29,3.29-3.29s3.29,1.47,3.29,3.29v26.67c0,1.82-1.47,3.29-3.29,3.29Z"/><path class="cls-1" d="M191.31,26.71c-1.82,0-3.29-1.47-3.29-3.29V3.29C188.02,1.48,189.5,0,191.31,0s3.29,1.47,3.29,3.29v20.12c0,1.82-1.47,3.29-3.29,3.29Z"/><path class="cls-1" d="M191.31,33.26c-1.09,0-1.98-.88-1.98-1.98v-2.65c0-1.09.88-1.98,1.98-1.98s1.98.88,1.98,1.98v2.65c0,1.09-.88,1.98-1.98,1.98Z"/><path class="cls-1" d="M200.99,24.07c-1.09,0-1.98-.88-1.98-1.98V1.97c0-1.09.88-1.98,1.98-1.98s1.98.88,1.98,1.98v20.12c0,1.09-.88,1.98-1.98,1.98Z"/><path class="cls-1" d="M200.99,33.27c-1.82,0-3.29-1.47-3.29-3.29v-2.65c0-1.82,1.47-3.29,3.29-3.29s3.29,1.47,3.29,3.29v2.65c0,1.82-1.47,3.29-3.29,3.29Z"/></svg>