<?xml version="1.0" encoding="UTF-8"?><svg id="_レイヤー_1" xmlns="http://www.w3.org/2000/svg" viewBox="0 0 93.11 86.91"><defs><style>.cls-1{fill:#e4007f;}.cls-2{fill:#fff;}.cls-3{fill:#ffda00;}.cls-4{fill:#22ac38;}</style></defs><path class="cls-1" d="M19.14,44.04c.89-1.36.51-3.18-.85-4.06l-1.24-.81-11.27-7.37-1.24-.81c-1.36-.89-3.18-.51-4.06.85s-.51,3.18.85,4.06l1.24.81,11.27,7.37,1.24.81c1.36.89,3.18.51,4.06-.85Z"/><path class="cls-1" d="M73.97,44.04c-.89-1.36-.51-3.18.85-4.06l1.24-.81,11.27-7.37,1.24-.81c1.36-.89,3.18-.51,4.06.85.89,1.36.51,3.18-.85,4.06l-1.24.81-11.27,7.37-1.24.81c-1.36.89-3.18.51-4.06-.85Z"/><circle class="cls-3" cx="46.05" cy="46.52" r="21.31"/><path class="cls-1" d="M26.32,86.68c1.24.58,2.72.05,3.3-1.19.58-1.24.05-2.72-1.19-3.3-2.94-1.38-4.2-4.9-2.82-7.84,1.38-2.94,4.9-4.2,7.84-2.82,1.24.58,2.72.05,3.3-1.19.58-1.24.05-2.72-1.19-3.3-5.41-2.55-11.89-.21-14.43,5.2-2.55,5.41-.21,11.89,5.2,14.43Z"/><path class="cls-1" d="M67.82,86.68c-1.24.58-2.72.05-3.3-1.19-.58-1.24-.05-2.72,1.19-3.3,2.94-1.38,4.2-4.9,2.82-7.84s-4.9-4.2-7.84-2.82c-1.24.58-2.72.05-3.3-1.19s-.05-2.72,1.19-3.3c5.41-2.55,11.89-.21,14.43,5.2,2.55,5.41.21,11.89-5.2,14.43Z"/><circle class="cls-1" cx="47.07" cy="63.5" r="14.12"/><circle class="cls-1" cx="22.5" cy="24.27" r="9.69"/><circle class="cls-2" cx="22.5" cy="24.27" r="4.69"/><circle class="cls-1" cx="21.54" cy="23.37" r="2.44"/><circle class="cls-1" cx="70.61" cy="24.27" r="9.69"/><circle class="cls-2" cx="70.61" cy="24.27" r="4.69"/><circle class="cls-1" cx="69.66" cy="23.37" r="2.44"/><path class="cls-4" d="M46.56,80.21c-17.72,0-32.14-14.42-32.14-32.14S28.83,15.93,46.56,15.93c3.51,0,6.36,2.85,6.36,6.36s-2.85,6.36-6.36,6.36c-10.71,0-19.42,8.71-19.42,19.42s8.71,19.42,19.42,19.42c3.51,0,6.36,2.85,6.36,6.36s-2.85,6.36-6.36,6.36Z"/><path class="cls-4" d="M46.56,80.21c-3.51,0-6.36-2.85-6.36-6.36s2.85-6.36,6.36-6.36c10.71,0,19.42-8.71,19.42-19.42s-8.71-19.42-19.42-19.42c-3.51,0-6.36-2.85-6.36-6.36s2.85-6.36,6.36-6.36c17.72,0,32.14,14.42,32.14,32.14s-14.42,32.14-32.14,32.14Z"/><path class="cls-1" d="M45.21,45.92c-1.55,0-2.81-1.26-2.81-2.81s1.26-2.81,2.81-2.81c.31,0,.56.25.56.56s-.25.56-.56.56c-.94,0-1.7.76-1.7,1.7s.76,1.7,1.7,1.7c.31,0,.56.25.56.56s-.25.56-.56.56Z"/><path class="cls-1" d="M45.21,45.92c-.31,0-.56-.25-.56-.56s.25-.56.56-.56c.94,0,1.7-.76,1.7-1.7s-.76-1.7-1.7-1.7c-.31,0-.56-.25-.56-.56s.25-.56.56-.56c1.55,0,2.81,1.26,2.81,2.81s-1.26,2.81-2.81,2.81Z"/><path class="cls-1" d="M56.15,45.92c-1.55,0-2.81-1.26-2.81-2.81s1.26-2.81,2.81-2.81c.31,0,.56.25.56.56s-.25.56-.56.56c-.94,0-1.7.76-1.7,1.7s.76,1.7,1.7,1.7c.31,0,.56.25.56.56s-.25.56-.56.56Z"/><path class="cls-1" d="M56.15,45.92c-.31,0-.56-.25-.56-.56s.25-.56.56-.56c.94,0,1.7-.76,1.7-1.7s-.76-1.7-1.7-1.7c-.31,0-.56-.25-.56-.56s.25-.56.56-.56c1.55,0,2.81,1.26,2.81,2.81s-1.26,2.81-2.81,2.81Z"/><path class="cls-1" d="M29.41,45.92c-.11,0-.21-.03-.31-.09-.26-.17-.32-.52-.15-.77l3-4.5c.17-.26.52-.32.77-.15.26.17.32.52.15.77l-3,4.5c-.11.16-.28.25-.46.25Z"/><path class="cls-1" d="M36.53,45.92c-.18,0-.36-.09-.46-.25l-3-4.5c-.17-.26-.1-.6.15-.77.26-.17.6-.1.77.15l3,4.5c.17.26.1.6-.15.77-.09.06-.2.09-.31.09Z"/><path class="cls-1" d="M34.63,44.46h-3.32c-.18,0-.33-.15-.33-.33s.15-.33.33-.33h3.32c.18,0,.33.15.33.33s-.15.33-.33.33Z"/><path class="cls-1" d="M38.99,43.67c-.93,0-1.68-.75-1.68-1.68s.75-1.68,1.68-1.68c.31,0,.56.25.56.56s-.25.56-.56.56-.57.26-.57.57.26.57.57.57.56.25.56.56-.25.56-.56.56Z"/><path class="cls-1" d="M39.85,45.92c-.18,0-.33-.15-.33-.33s.15-.33.33-.33c.44,0,.79-.36.79-.79s-.36-.79-.79-.79c-.18,0-.33-.15-.33-.33s.15-.33.33-.33c.8,0,1.46.65,1.46,1.46s-.65,1.46-1.46,1.46Z"/><path class="cls-1" d="M51.92,42.21c-.18,0-.33-.15-.33-.33,0-.5-.41-.9-.9-.9h-.03c-.18,0-.33-.15-.33-.33s.15-.33.33-.33h.03c.87,0,1.57.7,1.57,1.57,0,.18-.15.33-.33.33Z"/><path class="cls-1" d="M50.68,43.45c-.18,0-.33-.15-.33-.33s.15-.33.33-.33c.5,0,.9-.41.9-.9,0-.18.15-.33.33-.33s.33.15.33.33c0,.87-.7,1.57-1.57,1.57Z"/><path class="cls-1" d="M50.68,45.93h-.03c-.18,0-.33-.15-.33-.33s.15-.33.33-.33h.03c.5,0,.9-.41.9-.9,0-.18.15-.33.33-.33s.33.15.33.33c0,.87-.7,1.57-1.57,1.57Z"/><path class="cls-1" d="M51.92,44.69c-.18,0-.33-.15-.33-.33,0-.5-.41-.9-.9-.9-.18,0-.33-.15-.33-.33s.15-.33.33-.33c.87,0,1.57.7,1.57,1.57,0,.18-.15.33-.33.33Z"/><path class="cls-1" d="M49.79,45.92c-.31,0-.56-.25-.56-.56v-4.5c0-.31.25-.56.56-.56s.56.25.56.56v4.5c0,.31-.25.56-.56.56Z"/><path class="cls-1" d="M61.15,44.82c-.31,0-.56-.25-.56-.56v-3.4c0-.31.25-.56.56-.56s.56.25.56.56v3.4c0,.31-.25.56-.56.56Z"/><path class="cls-1" d="M61.15,45.92c-.18,0-.33-.15-.33-.33v-.45c0-.18.15-.33.33-.33s.33.15.33.33v.45c0,.18-.15.33-.33.33Z"/><path class="cls-1" d="M62.78,44.37c-.18,0-.33-.15-.33-.33v-3.4c0-.18.15-.33.33-.33s.33.15.33.33v3.4c0,.18-.15.33-.33.33Z"/><path class="cls-1" d="M62.78,45.93c-.31,0-.56-.25-.56-.56v-.45c0-.31.25-.56.56-.56s.56.25.56.56v.45c0,.31-.25.56-.56.56Z"/><path class="cls-4" d="M39.09,2.97c-.19-.53.08-1.11.61-1.3s1.11.08,1.3.61l1.37,3.77,1.25,3.44c.19.53-.08,1.11-.61,1.3s-1.11-.08-1.3-.61l-1.24-3.4-1.39-3.81Z"/><path class="cls-4" d="M34.49,7.42c-.36-.43-.3-1.07.12-1.43s1.07-.3,1.43.12l2.58,3.08,2.35,2.81c.36.43.3,1.07-.12,1.43s-1.07.3-1.43-.12l-2.33-2.77-2.61-3.11Z"/><path class="cls-4" d="M53.58,2.97c.19-.53-.08-1.11-.61-1.3s-1.11.08-1.3.61l-1.37,3.77-1.25,3.44c-.19.53.08,1.11.61,1.3s1.11-.08,1.3-.61l1.24-3.4,1.39-3.81Z"/><path class="cls-4" d="M58.17,7.42c.36-.43.3-1.07-.12-1.43s-1.07-.3-1.43.12l-2.58,3.08-2.35,2.81c-.36.43-.3,1.07.12,1.43s1.07.3,1.43-.12l2.33-2.77,2.61-3.11Z"/><path class="cls-4" d="M46.33,9.7c-.44,0-.8-.36-.8-.8V.8C45.54.36,45.89,0,46.33,0s.8.36.8.8v8.11c0,.44-.36.8-.8.8Z"/><path class="cls-4" d="M46.33,9.7c-.44,0-.8-.36-.8-.8V.8C45.54.36,45.89,0,46.33,0s.8.36.8.8v8.11c0,.44-.36.8-.8.8Z"/><path class="cls-4" d="M45.32,1.01C45.32.45,45.77,0,46.33,0s1.01.45,1.01,1.01v7.68c0,.56-.45,1.01-1.01,1.01s-1.01-.45-1.01-1.01V1.01Z"/></svg>