<?xml version="1.0" encoding="UTF-8"?><svg id="_レイヤー_1" xmlns="http://www.w3.org/2000/svg" viewBox="0 0 64 64"><defs><style>.cls-1{fill:#fff;}.cls-2{fill:#ffda00;}.cls-3{fill:#e60012;}.cls-4{fill:#22ac38;}</style></defs><path class="cls-2" d="M19.75,34.88l12.25-18.75,12.51,18.75c2.06,0,3.73,1.67,3.73,3.73,0,9-7.33,16.33-16.33,16.33s-16.33-7.33-16.33-16.33c0-2.06,1.67-3.73,3.73-3.73"/><path class="cls-3" d="M4.32,55.39c-.82,0-1.66-.24-2.39-.73-1.99-1.32-2.52-4.01-1.2-6L24.08,13.64c1.32-1.99,4.01-2.52,6-1.2,1.99,1.32,2.52,4.01,1.2,6L7.92,53.47c-.83,1.25-2.2,1.93-3.6,1.93Z"/><path class="cls-3" d="M59.68,55.39c-1.4,0-2.77-.68-3.6-1.93l-23.35-35.03c-1.32-1.99-.79-4.67,1.2-6,1.99-1.32,4.67-.79,6,1.2l23.35,35.03c1.32,1.99.79,4.67-1.2,6-.74.49-1.57.73-2.39.73Z"/><circle class="cls-4" cx="17.99" cy="22.08" r="6.58"/><circle class="cls-1" cx="17.99" cy="22.08" r="3.18"/><circle class="cls-4" cx="17.99" cy="22.08" r="1.66"/><circle class="cls-4" cx="45.93" cy="22.08" r="6.58"/><circle class="cls-1" cx="45.93" cy="22.08" r="3.18"/><circle class="cls-4" cx="45.93" cy="22.08" r="1.66"/><path class="cls-4" d="M22.21,12.83c0,.53-.43.97-.97.97s-.97-.43-.97-.97c0-1.26-1.03-2.29-2.29-2.29s-2.29,1.03-2.29,2.29c0,.53-.43.97-.97.97s-.97-.43-.97-.97c0-2.33,1.89-4.22,4.22-4.22s4.22,1.89,4.22,4.22Z"/><path class="cls-4" d="M41.71,12.83c0,.53.43.97.97.97s.97-.43.97-.97c0-1.26,1.03-2.29,2.29-2.29s2.29,1.03,2.29,2.29c0,.53.43.97.97.97s.97-.43.97-.97c0-2.33-1.89-4.22-4.22-4.22s-4.22,1.89-4.22,4.22Z"/><path class="cls-2" d="M13.06,34.59c-.78.78-2.04.78-2.82,0l-.71-.71-6.47-6.47-.71-.71c-.78-.78-.78-2.04,0-2.82s2.04-.78,2.82,0l.71.71,6.47,6.47.71.71c.78.78.78,2.04,0,2.82Z"/><path class="cls-2" d="M50.02,34.59c.78.78,2.04.78,2.82,0l.71-.71,6.47-6.47.71-.71c.78-.78.78-2.04,0-2.82s-2.04-.78-2.82,0l-.71.71-6.47,6.47-.71.71c-.78.78-.78,2.04,0,2.82Z"/><path class="cls-4" d="M21.21,38.79c0-1.35,1.09-2.44,2.44-2.44s2.44,1.09,2.44,2.44c0,3.2,2.61,5.81,5.81,5.81s5.81-2.61,5.81-5.81c0-1.35,1.09-2.44,2.44-2.44s2.44,1.09,2.44,2.44c0,5.9-4.8,10.7-10.7,10.7s-10.7-4.8-10.7-10.7Z"/></svg>