<?xml version="1.0" encoding="UTF-8"?><svg id="_レイヤー_1" xmlns="http://www.w3.org/2000/svg" viewBox="0 0 353.15 57.52"><defs><style>.cls-1{fill:#920783;}.cls-2{fill:#e4007f;}.cls-3{fill:#ffda00;}.cls-4{fill:#00a0e9;}.cls-5{fill:red;}.cls-6{fill:#22ac38;}</style></defs><path class="cls-1" d="M279.79,57.54c-15.87,0-28.78-12.91-28.78-28.78S263.92-.02,279.79-.02c3.15,0,5.7,2.55,5.7,5.7s-2.55,5.7-5.7,5.7c-9.59,0-17.38,7.8-17.38,17.38s7.8,17.38,17.38,17.38c3.15,0,5.7,2.55,5.7,5.7s-2.55,5.7-5.7,5.7Z"/><path class="cls-1" d="M279.79,57.54c-3.15,0-5.7-2.55-5.7-5.7s2.55-5.7,5.7-5.7c9.59,0,17.38-7.8,17.38-17.38s-7.8-17.38-17.38-17.38c-3.15,0-5.7-2.55-5.7-5.7S276.64-.02,279.79-.02c15.87,0,28.78,12.91,28.78,28.78s-12.91,28.78-28.78,28.78Z"/><path class="cls-6" d="M167.63,57.54c-15.87,0-28.78-12.91-28.78-28.78S151.77-.02,167.63-.02c3.15,0,5.7,2.55,5.7,5.7s-2.55,5.7-5.7,5.7c-9.59,0-17.38,7.8-17.38,17.38s7.8,17.38,17.38,17.38c3.15,0,5.7,2.55,5.7,5.7s-2.55,5.7-5.7,5.7Z"/><path class="cls-6" d="M167.63,57.54c-3.15,0-5.7-2.55-5.7-5.7s2.55-5.7,5.7-5.7c9.59,0,17.38-7.8,17.38-17.38s-7.8-17.38-17.38-17.38c-3.15,0-5.7-2.55-5.7-5.7S164.49-.02,167.63-.02c15.87,0,28.78,12.91,28.78,28.78s-12.91,28.78-28.78,28.78Z"/><path class="cls-5" d="M5.69,57.53c-1.09,0-2.18-.31-3.16-.96-2.62-1.75-3.33-5.28-1.58-7.9L31.73,2.52c1.75-2.62,5.28-3.33,7.9-1.58,2.62,1.75,3.33,5.28,1.58,7.9L10.44,55c-1.1,1.65-2.9,2.54-4.75,2.54Z"/><path class="cls-5" d="M78.67,57.53c-1.84,0-3.65-.89-4.75-2.54L43.15,8.84c-1.75-2.62-1.04-6.15,1.58-7.9,2.62-1.75,6.15-1.04,7.9,1.58l30.77,46.15c1.75,2.62,1.04,6.15-1.58,7.9-.97.65-2.07.96-3.16.96Z"/><path class="cls-5" d="M59.18,42.48H25.19c-1.89,0-3.42-1.53-3.42-3.42s1.53-3.42,3.42-3.42h33.99c1.89,0,3.42,1.53,3.42,3.42s-1.53,3.42-3.42,3.42Z"/><path class="cls-4" d="M103.89,34.47c-9.51,0-17.24-7.73-17.24-17.24S94.39,0,103.89,0c3.15,0,5.7,2.55,5.7,5.7s-2.55,5.7-5.7,5.7-5.84,2.62-5.84,5.84,2.62,5.84,5.84,5.84,5.7,2.55,5.7,5.7-2.55,5.7-5.7,5.7Z"/><path class="cls-4" d="M112.71,57.53c-1.89,0-3.42-1.53-3.42-3.42s1.53-3.42,3.42-3.42c4.48,0,8.12-3.64,8.12-8.12s-3.64-8.12-8.12-8.12c-1.89,0-3.42-1.53-3.42-3.42s1.53-3.42,3.42-3.42c8.25,0,14.96,6.71,14.96,14.96s-6.71,14.96-14.96,14.96Z"/><path class="cls-3" d="M236.4,19.49c-1.89,0-3.42-1.53-3.42-3.42,0-5.11-4.16-9.27-9.27-9.27h-.3c-1.89,0-3.42-1.53-3.42-3.42S221.54-.03,223.42-.03h.3c8.88,0,16.1,7.22,16.1,16.1,0,1.89-1.53,3.42-3.42,3.42Z"/><path class="cls-3" d="M223.72,32.18c-1.89,0-3.42-1.53-3.42-3.42s1.53-3.42,3.42-3.42c5.11,0,9.27-4.16,9.27-9.27,0-1.89,1.53-3.42,3.42-3.42s3.42,1.53,3.42,3.42c0,8.88-7.22,16.1-16.1,16.1Z"/><path class="cls-3" d="M223.72,57.55h-.3c-1.89,0-3.42-1.53-3.42-3.42s1.53-3.42,3.42-3.42h.3c5.11,0,9.27-4.16,9.27-9.27,0-1.89,1.53-3.42,3.42-3.42s3.42,1.53,3.42,3.42c0,8.88-7.22,16.1-16.1,16.1Z"/><path class="cls-3" d="M236.4,44.86c-1.89,0-3.42-1.53-3.42-3.42,0-5.11-4.16-9.27-9.27-9.27-1.89,0-3.42-1.53-3.42-3.42s1.53-3.42,3.42-3.42c8.88,0,16.1,7.22,16.1,16.1,0,1.89-1.53,3.42-3.42,3.42Z"/><path class="cls-3" d="M214.6,57.54c-3.15,0-5.7-2.55-5.7-5.7V5.69C208.9,2.55,211.45,0,214.6,0s5.7,2.55,5.7,5.7v46.15c0,3.15-2.55,5.7-5.7,5.7Z"/><path class="cls-2" d="M331.04,46.2c-3.15,0-5.7-2.55-5.7-5.7V5.68c0-3.15,2.55-5.7,5.7-5.7s5.7,2.55,5.7,5.7v34.82c0,3.15-2.55,5.7-5.7,5.7Z"/><path class="cls-2" d="M331.04,57.54c-1.89,0-3.42-1.53-3.42-3.42v-4.58c0-1.89,1.53-3.42,3.42-3.42s3.42,1.53,3.42,3.42v4.58c0,1.89-1.53,3.42-3.42,3.42Z"/><circle class="cls-6" cx="167.64" cy="28.77" r="7.23"/><circle class="cls-1" cx="279.57" cy="28.77" r="7.23"/><path class="cls-6" d="M347.79,41.63c-1.89,0-3.42-1.53-3.42-3.42V3.39c0-1.89,1.53-3.42,3.42-3.42s3.42,1.53,3.42,3.42v34.82c0,1.89-1.53,3.42-3.42,3.42Z"/><path class="cls-6" d="M347.79,57.54c-3.15,0-5.7-2.55-5.7-5.7v-4.58c0-3.15,2.55-5.7,5.7-5.7s5.7,2.55,5.7,5.7v4.58c0,3.15-2.55,5.7-5.7,5.7Z"/></svg>