<?xml version="1.0" encoding="UTF-8"?><svg id="_レイヤー_1" xmlns="http://www.w3.org/2000/svg" viewBox="0 0 390 264.47"><defs><style>.cls-1{fill:#fff;}.cls-2{fill:#ffda00;}.cls-3{fill:#00a0e9;}.cls-4{fill:#e60012;}.cls-5{fill:#e60012;}</style></defs><path class="cls-5" d="M390,264.47H132.24C59.2,264.47,0,205.26,0,132.24,0,59.21,59.2,0,132.24,0h257.76s0,264.47,0,264.47Z"/><path class="cls-3" d="M287.66,94.19c-.53,0-.95-.43-.95-.95s.43-.95.95-.95h7.87c.53,0,.95.43.95.95s-.43.95-.95.95h-7.87Z"/><path class="cls-3" d="M287.66,90.7c-.53,0-.95-.43-.95-.95s.43-.95.95-.95h7.87c.53,0,.95.43.95.95s-.43.95-.95.95h-7.87Z"/><path class="cls-3" d="M287.66,97.69c-.53,0-.95-.43-.95-.95s.43-.95.95-.95h7.87c.53,0,.95.43.95.95s-.43.95-.95.95h-7.87Z"/><path class="cls-3" d="M280.75,89.35c0,.27-.22.48-.48.48s-.48-.22-.48-.48c0-.63-.51-1.15-1.15-1.15s-1.15.51-1.15,1.15c0,.27-.22.48-.48.48s-.48-.22-.48-.48c0-1.16.95-2.11,2.11-2.11s2.11.95,2.11,2.11Z"/><path class="cls-3" d="M279.93,89.01c-.19.19-.19.49,0,.68s.49.19.68,0c.45-.45,1.17-.45,1.62,0s.45,1.17,0,1.62c-.19.19-.19.49,0,.68s.49.19.68,0c.82-.82.82-2.16,0-2.99-.82-.82-2.16-.82-2.99,0Z"/><path class="cls-3" d="M282.57,91.18c-.27,0-.48.22-.48.48s.22.48.48.48c.63,0,1.15.51,1.15,1.15s-.51,1.15-1.15,1.15c-.27,0-.48.22-.48.48s.22.48.48.48c1.16,0,2.11-.95,2.11-2.11,0-1.16-.95-2.11-2.11-2.11Z"/><path class="cls-3" d="M277.35,89.01c.19.19.19.49,0,.68s-.49.19-.68,0c-.45-.45-1.17-.45-1.62,0s-.45,1.17,0,1.62c.19.19.19.49,0,.68s-.49.19-.68,0c-.82-.82-.82-2.16,0-2.99s2.16-.82,2.99,0Z"/><path class="cls-3" d="M280.75,97.22c0-.27-.22-.48-.48-.48s-.48.22-.48.48c0,.63-.51,1.15-1.15,1.15s-1.15-.51-1.15-1.15c0-.27-.22-.48-.48-.48s-.48.22-.48.48c0,1.16.95,2.11,2.11,2.11s2.11-.95,2.11-2.11Z"/><path class="cls-3" d="M279.93,97.56c-.19-.19-.19-.49,0-.68s.49-.19.68,0c.45.45,1.17.45,1.62,0s.45-1.17,0-1.62c-.19-.19-.19-.49,0-.68s.49-.19.68,0c.82.82.82,2.16,0,2.99s-2.16.82-2.99,0Z"/><path class="cls-3" d="M277.35,97.56c.19-.19.19-.49,0-.68s-.49-.19-.68,0c-.45.45-1.17.45-1.62,0s-.45-1.17,0-1.62c.19-.19.19-.49,0-.68s-.49-.19-.68,0c-.82.82-.82,2.16,0,2.99s2.16.82,2.99,0Z"/><path class="cls-3" d="M274.71,91.18c.27,0,.48.22.48.48s-.22.48-.48.48c-.63,0-1.15.51-1.15,1.15s.51,1.15,1.15,1.15c.27,0,.48.22.48.48s-.22.48-.48.48c-1.16,0-2.11-.95-2.11-2.11,0-1.16.95-2.11,2.11-2.11Z"/><polygon class="cls-3" points="282.92 89.96 281.36 88.9 280.39 89.29 279.1 87.93 277.86 87.85 277.11 89.27 275.41 88.82 274.59 89.65 274.36 91.59 273.08 92.89 273.38 94.01 274.54 94.93 274.31 96.87 275.42 97.84 277.01 97.48 277.6 98.56 278.94 98.82 280.11 98.04 280.24 97.38 282.01 97.71 283.15 96.58 282.6 94.85 284 94.19 284 92.93 283.14 91.89 282.66 91.41 282.92 89.96"/><rect class="cls-4" x="314.97" y="57.5" width="20.01" height="50.88"/><path class="cls-3" d="M336.91,71.22c-.86-1.26-.55-2.97.71-3.84l1.15-.79,10.43-7.17,1.15-.79c1.26-.86,2.97-.55,3.84.71.86,1.26.55,2.97-.71,3.84l-1.15.79-10.43,7.17-1.15.79c-1.26.86-2.97.55-3.84-.71Z"/><path class="cls-3" d="M334.21,102.92c-1.26.86-1.59,2.57-.73,3.83l.78,1.15,7.11,10.48.78,1.15c.86,1.26,2.57,1.59,3.83.73,1.26-.86,1.59-2.57.73-3.83l-.78-1.15-7.11-10.48-.78-1.15c-.86-1.26-2.57-1.59-3.83-.73Z"/><circle class="cls-3" cx="332.34" cy="50.61" r="9.11"/><circle class="cls-1" cx="332.34" cy="50.61" r="4.4"/><circle class="cls-3" cx="333.47" cy="50.61" r="2.29"/><path class="cls-2" d="M337.86,72.69c-1.98,0-3.59-1.61-3.59-3.59,0-5.36-4.36-9.73-9.73-9.73h-.31c-1.98,0-3.59-1.61-3.59-3.59s1.61-3.59,3.59-3.59h.31c9.32,0,16.9,7.58,16.9,16.9,0,1.98-1.61,3.59-3.59,3.59Z"/><path class="cls-2" d="M324.54,86c-1.98,0-3.59-1.61-3.59-3.59s1.61-3.59,3.59-3.59c5.36,0,9.73-4.36,9.73-9.73,0-1.98,1.61-3.59,3.59-3.59s3.59,1.61,3.59,3.59c0,9.32-7.58,16.9-16.9,16.9Z"/><path class="cls-2" d="M324.54,112.63h-.31c-1.98,0-3.59-1.61-3.59-3.59s1.61-3.59,3.59-3.59h.31c5.36,0,9.73-4.36,9.73-9.73,0-1.98,1.61-3.59,3.59-3.59s3.59,1.61,3.59,3.59c0,9.32-7.58,16.9-16.9,16.9Z"/><path class="cls-2" d="M337.86,99.32c-1.98,0-3.59-1.61-3.59-3.59,0-5.36-4.36-9.73-9.73-9.73-1.98,0-3.59-1.61-3.59-3.59s1.61-3.59,3.59-3.59c9.32,0,16.9,7.58,16.9,16.9,0,1.98-1.61,3.59-3.59,3.59Z"/><path class="cls-2" d="M314.97,112.63c-3.3,0-5.98-2.68-5.98-5.98v-48.45c0-3.3,2.68-5.98,5.98-5.98s5.98,2.68,5.98,5.98v48.45c0,3.3-2.68,5.98-5.98,5.98Z"/><circle class="cls-3" cx="321.41" cy="56.17" r="9.11"/><circle class="cls-1" cx="321.41" cy="56.17" r="4.4"/><circle class="cls-3" cx="322.54" cy="56.17" r="2.29"/><path class="cls-3" d="M316.55,70.84c-.86-1.26-2.57-1.59-3.83-.73l-1.15.78-10.48,7.11-1.15.78c-1.26.86-1.59,2.57-.73,3.83s2.57,1.59,3.83.73l1.15-.78,10.48-7.11,1.15-.78c1.26-.86,1.59-2.57.73-3.83Z"/><path class="cls-3" d="M297.14,106.62c-.21-1.3.68-2.52,1.98-2.72,1.3-.21,2.52.68,2.72,1.98.49,3.08,3.39,5.19,6.47,4.7,3.08-.49,5.19-3.39,4.7-6.47-.21-1.3.68-2.52,1.98-2.72s2.52.68,2.72,1.98c.9,5.67-2.99,11.02-8.66,11.91s-11.02-2.99-11.91-8.66Z"/></svg>