<?xml version="1.0" encoding="UTF-8"?><svg id="_レイヤー_1" xmlns="http://www.w3.org/2000/svg" viewBox="0 0 254.15 155.15"><defs><style>.cls-1{fill:#fff;}.cls-2{fill:#ffda00;}.cls-3{fill:#e60012;}.cls-4{fill:#e60012;}.cls-5{fill:#22ac38;}</style></defs><path class="cls-2" d="M95.5,67.75l31.58-48.35,32.26,48.35c5.31,0,9.62,4.31,9.62,9.62,0,23.22-18.89,42.12-42.11,42.12s-42.12-18.89-42.12-42.12c0-5.31,4.31-9.62,9.62-9.62"/><path class="cls-3" d="M55.69,120.65c-2.13,0-4.27-.61-6.18-1.87-5.12-3.42-6.51-10.34-3.09-15.46L106.65,12.99c3.42-5.13,10.34-6.51,15.46-3.09,5.12,3.42,6.51,10.34,3.09,15.46l-60.22,90.33c-2.15,3.22-5.69,4.97-9.29,4.97Z"/><path class="cls-3" d="M198.46,120.65c-3.6,0-7.14-1.74-9.29-4.97l-60.22-90.33c-3.42-5.12-2.03-12.05,3.09-15.46,5.12-3.42,12.05-2.03,15.46,3.09l60.22,90.33c3.42,5.12,2.03,12.05-3.09,15.46-1.9,1.27-4.05,1.87-6.18,1.87Z"/><circle class="cls-5" cx="90.94" cy="34.75" r="16.98"/><circle class="cls-1" cx="90.94" cy="34.75" r="8.21"/><circle class="cls-5" cx="90.94" cy="34.75" r="4.27"/><circle class="cls-5" cx="163" cy="34.75" r="16.98"/><circle class="cls-1" cx="163" cy="34.75" r="8.21"/><circle class="cls-5" cx="163" cy="34.75" r="4.27"/><path class="cls-5" d="M101.83,10.89c0,1.37-1.11,2.49-2.49,2.49s-2.49-1.11-2.49-2.49c0-3.26-2.65-5.91-5.91-5.91-3.26,0-5.91,2.65-5.91,5.91,0,1.37-1.11,2.49-2.49,2.49-1.37,0-2.49-1.11-2.49-2.49,0-6.01,4.89-10.89,10.89-10.89,6.01,0,10.89,4.89,10.89,10.89Z"/><path class="cls-5" d="M152.11,10.89c0,1.37,1.11,2.49,2.49,2.49s2.49-1.11,2.49-2.49c0-3.26,2.65-5.91,5.91-5.91,3.26,0,5.91,2.65,5.91,5.91,0,1.37,1.11,2.49,2.49,2.49s2.49-1.11,2.49-2.49C173.89,4.89,169.01,0,163,0s-10.89,4.89-10.89,10.89Z"/><path class="cls-2" d="M78.24,67.01c-2.01,2.01-5.27,2.01-7.27,0l-1.83-1.83-16.69-16.69-1.83-1.83c-2.01-2.01-2.01-5.27,0-7.27,2.01-2.01,5.27-2.01,7.27,0l1.83,1.83,16.69,16.69,1.83,1.83c2.01,2.01,2.01,5.27,0,7.27Z"/><path class="cls-2" d="M173.55,67.01c2.01,2.01,5.27,2.01,7.27,0l1.83-1.83,16.69-16.69,1.83-1.83c2.01-2.01,2.01-5.27,0-7.27s-5.27-2.01-7.27,0l-1.83,1.83-16.69,16.69-1.83,1.83c-2.01,2.01-2.01,5.27,0,7.27Z"/><path class="cls-5" d="M99.26,77.83c0-3.48,2.82-6.3,6.3-6.3s6.3,2.82,6.3,6.3c0,8.26,6.72,14.98,14.98,14.98s14.98-6.72,14.98-14.98c0-3.48,2.82-6.3,6.3-6.3s6.3,2.82,6.3,6.3c0,15.21-12.38,27.59-27.59,27.59s-27.59-12.38-27.59-27.59Z"/><path class="cls-4" d="M46.66,155.15c-25.77,0-46.66-20.89-46.66-46.66s20.89-46.66,46.66-46.66h160.83c25.77,0,46.66,20.89,46.66,46.66s-20.89,46.66-46.66,46.66H46.66Z"/></svg>