<?xml version="1.0" encoding="UTF-8"?><svg id="_レイヤー_1" xmlns="http://www.w3.org/2000/svg" viewBox="0 0 54.01 88.93"><defs><style>.cls-1{fill:#e4007f;}.cls-2{fill:#fff;}.cls-3{fill:#ffda00;}.cls-4{fill:#00a0e9;}.cls-5{fill:#e60012;}.cls-6{fill:#22ac38;}</style></defs><path class="cls-4" d="M11.96,35.11c1.33.17,2.26,1.38,2.09,2.71-.17,1.33-1.38,2.26-2.71,2.09-3.15-.41-6.04,1.83-6.44,4.97-.41,3.15,1.83,6.04,4.97,6.44,1.33.17,2.26,1.38,2.09,2.71-.17,1.33-1.38,2.26-2.71,2.09C3.45,55.39-.66,50.07.09,44.27c.75-5.8,6.07-9.91,11.87-9.16Z"/><path class="cls-5" d="M36.05,77.66c-.41,3.15,1.83,6.04,4.97,6.44,1.33.17,2.26,1.38,2.09,2.71-.17,1.33-1.38,2.26-2.71,2.09-5.8-.75-9.91-6.07-9.16-11.87l4.81.62Z"/><path class="cls-4" d="M13.29,74.73c-.41,3.15-3.3,5.38-6.44,4.97-1.33-.17-2.54.77-2.71,2.09s.77,2.54,2.09,2.71c5.8.75,11.12-3.36,11.87-9.16l-4.81-.62Z"/><path class="cls-1" d="M16.91,64.29c-3.41-.44-5.81-3.56-5.37-6.96l4.85-37.7c.44-3.41,3.56-5.81,6.96-5.37s5.81,3.56,5.37,6.96l-4.85,37.7c-.44,3.41-3.56,5.81-6.96,5.37Z"/><path class="cls-1" d="M15.33,76.57c-2.04-.26-3.49-2.13-3.22-4.18l.64-4.96c.26-2.04,2.13-3.49,4.18-3.22s3.49,2.13,3.22,4.18l-.64,4.96c-.26,2.04-2.13,3.49-4.18,3.22Z"/><path class="cls-6" d="M35.69,61.65c-2.04-.26-3.49-2.13-3.22-4.18l4.85-37.7c.26-2.04,2.13-3.49,4.18-3.22s3.49,2.13,3.22,4.18l-4.85,37.7c-.26,2.04-2.13,3.49-4.18,3.22Z"/><path class="cls-6" d="M33.47,78.87c-3.41-.44-5.81-3.56-5.37-6.96l.64-4.96c.44-3.41,3.56-5.81,6.96-5.37s5.81,3.56,5.37,6.96l-.64,4.96c-.44,3.41-3.56,5.81-6.96,5.37Z"/><circle class="cls-4" cx="22.15" cy="23.55" r="9.47"/><circle class="cls-2" cx="22.15" cy="23.55" r="4.58"/><circle class="cls-4" cx="21.19" cy="22.77" r="2.38"/><circle class="cls-5" cx="41.85" cy="13.74" r="9.47"/><circle class="cls-2" cx="41.85" cy="13.74" r="4.58"/><circle class="cls-5" cx="40.93" cy="12.91" r="2.38"/><path class="cls-3" d="M18.59,9.39l-.27-.35-2.48-3.21-.27-.35c-.11-.15-.26-.25-.42-.3-.11-.04-.22-.05-.34-.04-.17.01-.34.07-.48.18l-.35.27-3.21,2.48-.35.27c-.19.15-.31.36-.34.59-.03.23.03.46.18.66l.27.35,2.48,3.21.27.35c.11.15.26.25.42.3.11.04.22.05.34.04.17-.01.34-.07.48-.18l.35-.27,3.21-2.48.35-.27c.19-.15.31-.36.34-.59.03-.23-.03-.46-.18-.66Z"/><path class="cls-3" d="M13.02,2.13l-.14-.18-1.24-1.61-.14-.18c-.06-.07-.13-.12-.21-.15-.05-.02-.11-.03-.17-.02-.09,0-.17.04-.24.09l-.18.14-1.61,1.24-.18.14c-.1.07-.15.18-.17.29-.01.11.01.23.09.33l.14.18,1.24,1.61.14.18c.06.07.13.12.21.15.05.02.11.03.17.02.09,0,.17-.04.24-.09l.18-.14,1.61-1.24.18-.14c.1-.07.15-.18.17-.29.01-.11-.01-.23-.09-.33Z"/><path class="cls-5" d="M44.76,39.33c-1.33-.17-2.54.77-2.71,2.09s.77,2.54,2.09,2.71c3.15.41,5.38,3.3,4.97,6.44s-3.3,5.38-6.44,4.97c-1.33-.17-2.54.77-2.71,2.09-.17,1.33.77,2.54,2.09,2.71,5.8.75,11.12-3.36,11.87-9.16.75-5.8-3.36-11.12-9.16-11.87Z"/></svg>