<?xml version="1.0" encoding="UTF-8"?><svg id="_レイヤー_1" xmlns="http://www.w3.org/2000/svg" viewBox="0 0 535.34 396.1"><defs><style>.cls-1{fill:#fff;}.cls-2{fill:red;}</style></defs><path class="cls-2" d="M510.95,52.04H24.4C10.94,52.04,0,41.1,0,27.64v-3.25C0,10.94,10.94,0,24.4,0h486.55c13.45,0,24.4,10.94,24.4,24.4v3.25c0,13.45-10.94,24.4-24.4,24.4ZM24.4,2C12.05,2,2,12.05,2,24.4v3.25c0,12.35,10.05,22.4,22.4,22.4h486.55c12.35,0,22.4-10.05,22.4-22.4v-3.25c0-12.35-10.05-22.4-22.4-22.4H24.4Z"/><path class="cls-2" d="M510.95,112.78H24.4c-13.45,0-24.4-10.94-24.4-24.4v-3.25c0-13.45,10.94-24.4,24.4-24.4h486.55c13.45,0,24.4,10.94,24.4,24.4v3.25c0,13.45-10.94,24.4-24.4,24.4ZM24.4,62.73c-12.35,0-22.4,10.05-22.4,22.4v3.25c0,12.35,10.05,22.4,22.4,22.4h486.55c12.35,0,22.4-10.05,22.4-22.4v-3.25c0-12.35-10.05-22.4-22.4-22.4H24.4Z"/><path class="cls-2" d="M510.95,173.51H24.4c-13.45,0-24.4-10.94-24.4-24.4v-3.25c0-13.45,10.94-24.4,24.4-24.4h486.55c13.45,0,24.4,10.94,24.4,24.4v3.25c0,13.45-10.94,24.4-24.4,24.4ZM24.4,123.47c-12.35,0-22.4,10.05-22.4,22.4v3.25c0,12.35,10.05,22.4,22.4,22.4h486.55c12.35,0,22.4-10.05,22.4-22.4v-3.25c0-12.35-10.05-22.4-22.4-22.4H24.4Z"/><path class="cls-2" d="M510.95,344.06H24.4C10.94,344.06,0,355.01,0,368.46v3.66c0,6.89,2.98,13.09,7.72,17.37,4.37,4.09,10.23,6.61,16.67,6.61h486.55c13.45,0,24.4-10.94,24.4-24.4v-3.25c0-13.45-10.94-24.4-24.4-24.4Z"/><path class="cls-2" d="M502.35,334.33H33c-18.19,0-33-14.8-33-33v-86.13c0-18.19,14.8-33,33-33h469.35c18.19,0,33,14.8,33,33v86.13c0,18.19-14.8,33-33,33ZM33,184.2c-17.09,0-31,13.9-31,31v86.13c0,17.09,13.9,31,31,31h469.35c17.09,0,31-13.9,31-31v-86.13c0-17.09-13.9-31-31-31H33Z"/><path class="cls-2" d="M26.63,22.09c-.86.05-1.86.08-2.66.08-.46,0-.75-.34-.75-.82,0-.51.24-.87.74-.87.76,0,1.75-.03,2.67-.09v-1.95c0-.48.33-.74.84-.74.54,0,.86.26.86.74v1.83c.81-.07,1.6-.17,2.26-.28.06-.02.12-.02.18-.02.42,0,.67.24.75.69.01.08.01.15.01.21,0,.45-.25.69-.67.76-.75.14-1.63.24-2.53.33v2.07c.97-.26,1.96-.41,2.91-.41,2.79,0,4.42,1.38,4.42,3.61s-1.39,3.57-3.36,3.57c-1.1,0-2.05-.41-2.71-1.17-.17-.19-.24-.4-.24-.6,0-.24.12-.47.31-.65.21-.18.42-.27.63-.27s.42.09.58.27c.45.45.87.66,1.39.66.84,0,1.58-.67,1.58-1.8,0-1.27-.9-2.1-2.71-2.1-.95,0-1.95.18-2.8.49v3.14c0,1.38-.74,2.11-2,2.11-.6,0-1.28-.21-1.95-.67-.78-.51-1.3-1.2-1.3-2.15,0-.48.18-.95.5-1.4.61-.82,1.72-1.63,3.06-2.16v-2.43ZM26.63,26.24c-.76.36-1.35.81-1.62,1.2-.17.21-.24.45-.24.66,0,.31.23.58.51.78.25.16.57.27.84.27.38,0,.51-.18.51-.72v-2.19ZM36.14,21.38c.13.18.21.39.21.6,0,.24-.09.47-.25.63-.18.17-.41.25-.65.25-.22,0-.43-.09-.62-.28-.67-.81-1.66-1.71-2.49-2.29-.2-.14-.3-.36-.3-.6,0-.19.07-.4.24-.58.18-.19.41-.28.65-.28.17,0,.36.06.51.17.88.57,2.03,1.56,2.7,2.4Z"/><path class="cls-2" d="M41.94,27.7c0-.28.03-.52.11-.75-.83.45-1.68.85-2.52,1.22-.13.04-.27.07-.39.07-.33,0-.63-.2-.75-.57-.04-.12-.08-.25-.08-.36,0-.33.2-.61.54-.72,1.74-.61,3.42-1.49,4.91-2.49-.41-.42-.84-.81-1.26-1.16-.17-.15-.24-.31-.24-.49,0-.2.1-.39.27-.54.15-.14.33-.19.51-.19s.38.06.54.21c.5.38.96.81,1.42,1.27.99-.78,1.85-1.62,2.48-2.44.09-.12.13-.21.13-.27,0-.1-.11-.15-.3-.15h-3.69c-1.08,1.16-2.43,2.23-3.87,3.09-.14.08-.29.12-.42.12-.27,0-.51-.14-.68-.44-.07-.14-.1-.28-.1-.42,0-.28.15-.54.41-.69,1.84-1.01,3.57-2.53,4.48-4.09.18-.3.45-.43.75-.43.13,0,.27.01.41.06.38.09.58.3.58.58,0,.12-.04.26-.14.39-.06.1-.13.22-.21.33h3.69c.85,0,1.33.48,1.33,1.11,0,.3-.12.65-.38.99-1.05,1.42-2.55,2.8-4.28,4.05.36-.07.77-.1,1.12-.1h3.3c1.2,0,1.67.49,1.67,1.51v3.27c0,1.02-.48,1.53-1.67,1.53h-6.04c-1.19,0-1.65-.51-1.65-1.53v-1.96ZM49.16,29.66c.31,0,.45-.07.45-.4v-2.51c0-.33-.14-.42-.45-.42h-5.14c-.3,0-.45.09-.45.42v2.49c0,.34.15.42.45.42h5.14Z"/><path class="cls-2" d="M61.9,19.43c.46-.58.78-1.11,1.05-1.59.14-.27.41-.41.74-.41.12,0,.25.01.39.06.36.09.6.31.6.55,0,.07-.02.15-.06.22-.24.39-.52.78-.87,1.16h3.42c.36,0,.54.28.54.73s-.18.75-.54.75h-12.73c-.38,0-.55-.28-.55-.75,0-.43.18-.73.55-.73h3.46c-.25-.39-.52-.75-.78-1.05-.08-.09-.11-.18-.11-.28,0-.22.2-.47.54-.57.15-.04.29-.06.42-.06.32,0,.55.12.71.31.36.45.72,1.02,1.07,1.65h2.16ZM56.29,31c0,.36-.32.57-.79.57s-.78-.21-.78-.57v-7.86c0-.87.44-1.3,1.35-1.3h3.15c.9,0,1.35.44,1.35,1.32v6.81c0,.99-.58,1.47-1.69,1.47-.38,0-.81-.01-1.12-.09-.23-.04-.44-.25-.44-.61,0-.06,0-.12.02-.18.07-.41.33-.57.52-.57h.06c.21.03.48.06.64.06.33,0,.45-.1.45-.43v-1.32h-2.71v2.71ZM59,23.53c0-.25-.09-.31-.34-.31h-2.03c-.25,0-.34.06-.34.31v.89h2.71v-.89ZM56.29,26.95h2.71v-1.2h-2.71v1.2ZM63.59,28c0,.36-.33.55-.83.55s-.81-.2-.81-.55v-5.44c0-.36.33-.55.81-.55s.83.2.83.55v5.44ZM66.8,29.78c0,1.14-.6,1.68-2,1.68-.53,0-1.07-.03-1.47-.1-.3-.04-.54-.3-.54-.71,0-.06,0-.14.01-.19.08-.45.38-.65.65-.65.04,0,.09,0,.12.01.31.06.69.09.96.09.51,0,.63-.09.63-.55v-7.11c0-.39.28-.6.78-.6s.86.21.86.6v7.53Z"/><path class="cls-2" d="M25.04,91.46c-.13.06-.29.09-.44.09-.33,0-.61-.15-.79-.48-.07-.18-.12-.36-.12-.52,0-.34.2-.65.57-.82,1.71-.75,3.74-2.13,5.22-4.02-1.27-1.12-2.62-2.11-4-3.04-.21-.14-.31-.36-.31-.6,0-.21.09-.44.27-.63.18-.21.42-.31.66-.31.21,0,.42.07.63.19,1.25.79,2.56,1.77,3.83,2.85.78-1.29,1.41-2.88,1.83-4.56.12-.49.4-.75.81-.75.12,0,.24.02.36.06.49.14.75.45.75.87,0,.1-.02.21-.05.33-.48,1.91-1.29,3.81-2.23,5.32,1.05.93,2.02,1.95,2.87,2.98.16.19.25.43.25.66,0,.27-.11.52-.35.75-.19.17-.42.25-.64.25-.27,0-.54-.12-.75-.36-.81-.99-1.65-1.91-2.5-2.73-1.59,2.04-3.85,3.63-5.85,4.47Z"/><path class="cls-2" d="M39.02,86.39c-.52,0-.81-.42-.81-.99s.29-.99.83-.99h11.07c.54,0,.83.42.83.99s-.29.99-.83.99h-11.08Z"/><path class="cls-2" d="M55.82,79.85c0-.53.39-.84.95-.84s.96.3.96.87v3.16c0,2.53-.29,4.24-.79,5.5-.48,1.12-1.17,2.13-2,2.8-.25.23-.54.33-.79.33-.29,0-.54-.12-.74-.33-.17-.18-.24-.4-.24-.64,0-.29.12-.58.38-.78.64-.5,1.24-1.26,1.63-2.18.43-1.06.64-2.47.64-4.78v-3.12ZM59.98,79.75c0-.51.34-.82.94-.82.53,0,.93.31.93.82l-.06,9.15c0,.19.08.3.24.3.09,0,.2-.03.32-.09,1.05-.53,2.05-1.57,2.77-3.09.17-.36.44-.51.74-.51.15,0,.31.04.48.12.34.17.53.44.53.74,0,.14-.03.28-.11.43-.96,2.16-2.77,3.92-4.48,4.45-.27.07-.54.12-.78.12-.36,0-.69-.07-.92-.21-.42-.27-.66-.68-.66-1.49v-.07l.06-9.85Z"/><path class="cls-2" d="M79.87,79.49c.9,0,1.3.27,1.63.66.21.25.33.61.33,1.03,0,.34-.08.72-.25,1.12-.68,1.54-2.22,3.01-3.66,3.63-.15.08-.3.1-.45.1-.3,0-.57-.16-.75-.46-.09-.17-.13-.33-.13-.5,0-.31.17-.6.45-.73,1.12-.49,2.14-1.41,2.68-2.41.06-.12.09-.23.09-.32,0-.19-.13-.31-.43-.31h-9.5c-.45,0-.72-.34-.72-.9s.3-.92.72-.92h9.99ZM75.86,83.33c-.03,2.25-.35,3.76-.95,4.99-.78,1.59-2.17,2.76-3.73,3.33-.17.06-.33.09-.47.09-.34,0-.61-.17-.78-.5-.08-.16-.12-.34-.12-.49,0-.33.17-.63.52-.76,1.26-.5,2.34-1.38,2.9-2.55.45-.97.67-2.19.69-4.09,0-.57.38-.89.95-.89.62,0,.99.3.99.87Z"/><path class="cls-2" d="M89.12,91.04c0,.53-.41.79-.98.79s-.96-.27-.96-.79v-11.55c0-.54.38-.79.96-.79s.98.26.98.79v3.6c2.32.61,4.98,1.54,7.17,2.55.41.19.58.49.58.88,0,.14-.03.29-.07.44-.14.41-.47.68-.86.68-.13,0-.29-.03-.43-.1-1.86-.92-4.3-1.84-6.39-2.45v5.95ZM93.6,79.15c.2,0,.38.07.51.23.41.45.84,1.02,1.11,1.42.08.15.12.3.12.44,0,.21-.11.41-.29.54-.12.09-.29.14-.44.14-.21,0-.43-.1-.55-.31-.27-.44-.69-.98-1.05-1.41-.09-.1-.13-.24-.13-.36,0-.21.12-.42.31-.55.14-.07.27-.12.41-.12ZM95.36,78.2c.2,0,.39.07.53.24.38.42.78.94,1.02,1.38.09.14.12.27.12.41,0,.22-.12.42-.3.52-.12.09-.25.14-.41.14-.2,0-.39-.1-.54-.33-.29-.45-.64-.97-.97-1.35-.09-.12-.13-.25-.13-.38,0-.21.12-.41.3-.51.12-.07.25-.12.39-.12Z"/><path class="cls-2" d="M102.05,79.76c0-.49.39-.82.97-.82s.97.33.97.82l-.07,8.79c0,.51.18.73.58.73.06,0,.13,0,.22-.01,2.26-.33,4.98-1.91,6.5-4.4.21-.31.48-.46.78-.46.18,0,.38.06.56.18.28.2.42.48.42.78,0,.18-.04.36-.14.52-1.65,2.94-5.04,5.02-8.16,5.4-.21.01-.41.03-.58.03-.62,0-1.08-.15-1.46-.45-.43-.36-.67-.93-.67-1.78l.08-9.33Z"/><path class="cls-2" d="M117.64,81.55c-.45,0-.75-.38-.75-.93s.32-.9.77-.9l7.54-.07c.75,0,1.2.21,1.52.67.13.21.21.48.21.8s-.06.66-.2,1.05c-.46,1.38-1.27,2.66-2.23,3.88,1.51,1.17,2.7,2.16,3.85,3.45.2.21.3.45.3.71s-.1.49-.3.72c-.2.21-.48.33-.75.33-.25,0-.51-.09-.67-.3-1.05-1.23-2.17-2.32-3.67-3.51-1.61,1.71-3.79,3.12-5.99,3.91-.17.06-.31.09-.45.09-.36,0-.65-.18-.8-.57-.06-.14-.09-.28-.09-.42,0-.38.2-.69.57-.84,1.79-.71,3.58-1.77,5.07-3.14,1.46-1.32,2.58-2.89,3.14-4.44.04-.1.06-.21.06-.29,0-.21-.15-.3-.46-.3l-6.66.09Z"/><path class="cls-2" d="M36.16,143.56c-.86.05-1.86.08-2.66.08-.46,0-.75-.34-.75-.82,0-.51.24-.87.74-.87.76,0,1.75-.03,2.67-.09v-1.95c0-.48.33-.74.84-.74.54,0,.86.26.86.74v1.83c.81-.07,1.6-.17,2.26-.28.06-.02.12-.02.18-.02.42,0,.67.24.75.69.01.08.01.15.01.21,0,.45-.25.69-.67.76-.75.14-1.63.24-2.53.33v2.07c.97-.26,1.96-.41,2.91-.41,2.79,0,4.42,1.38,4.42,3.61s-1.39,3.57-3.36,3.57c-1.1,0-2.05-.41-2.71-1.17-.17-.19-.24-.4-.24-.6,0-.24.12-.47.31-.65.21-.18.42-.27.63-.27s.42.09.58.27c.45.45.87.66,1.39.66.84,0,1.58-.67,1.58-1.8,0-1.27-.9-2.1-2.71-2.1-.95,0-1.95.18-2.8.49v3.14c0,1.38-.74,2.11-2,2.11-.6,0-1.28-.21-1.95-.67-.78-.51-1.3-1.2-1.3-2.15,0-.48.18-.95.5-1.4.61-.82,1.72-1.63,3.06-2.16v-2.43ZM36.16,147.71c-.76.36-1.35.81-1.62,1.2-.17.21-.24.45-.24.66,0,.31.23.58.51.78.25.16.57.27.84.27.38,0,.51-.18.51-.72v-2.19ZM45.67,142.85c.13.18.21.39.21.6,0,.24-.09.47-.25.63-.18.17-.41.25-.65.25-.22,0-.43-.09-.62-.28-.67-.81-1.66-1.71-2.49-2.29-.2-.14-.3-.36-.3-.6,0-.19.07-.4.24-.58.18-.19.41-.28.65-.28.17,0,.36.06.51.17.88.57,2.03,1.56,2.7,2.4Z"/><path class="cls-2" d="M49.89,152.44c0,.39-.33.57-.83.57s-.81-.18-.81-.57v-11.65c0-.92.42-1.4,1.44-1.4h3.04c1,0,1.42.38,1.42,1.26v2.85c0,.9-.42,1.27-1.42,1.27h-2.85v7.66ZM52.65,140.92c0-.24-.12-.33-.39-.33h-2.03c-.25,0-.34.09-.34.33v.61h2.76v-.61ZM52.26,143.6c.27,0,.39-.07.39-.31v-.63h-2.76v.95h2.37ZM56.35,145.78c1.02,0,1.44.41,1.44,1.4v2.32c0,.99-.42,1.41-1.44,1.41h-3.42c-1.02,0-1.44-.42-1.44-1.41v-2.32c0-.99.42-1.4,1.44-1.4h3.42ZM55.84,149.54c.28,0,.4-.09.4-.38v-1.66c0-.29-.12-.38-.4-.38h-2.4c-.29,0-.41.09-.41.38v1.66c0,.28.12.38.41.38h2.4ZM56.53,144.77c-.99,0-1.41-.38-1.41-1.27v-2.85c0-.89.42-1.26,1.41-1.26h3.21c1,0,1.42.48,1.42,1.38v10.44c0,1.09-.55,1.6-1.96,1.6-.42,0-.99-.03-1.42-.1-.34-.06-.63-.28-.63-.73,0-.04,0-.09.01-.14.04-.44.32-.65.62-.65.04,0,.11,0,.15.02.31.04.79.09,1.08.09.41,0,.57-.1.57-.58v-5.94h-3.04ZM59.58,140.92c0-.24-.1-.33-.36-.33h-2.21c-.25,0-.38.09-.38.33v.61h2.94v-.61ZM59.58,142.66h-2.94v.63c0,.24.12.31.38.31h2.56v-.95Z"/><path class="cls-2" d="M66.84,149.12c.2.42.51.67.81.67s.52-.14.72-.51c.25-.44.46-1.16.6-2.01.08-.45.33-.68.77-.68.07,0,.17.02.27.03.48.07.76.33.76.81,0,.06,0,.14-.01.21-.21,1.41-.64,2.53-1.18,3.25-.53.69-1.23.99-1.86.99-.71,0-1.37-.3-1.9-.99-.72-.9-1.26-2.46-1.46-4.78-.11-1.29-.14-3.06-.14-4.83,0-.55.33-.87.95-.87.66,0,.9.33.9.89v1.14c0,1.32.01,2.61.09,3.52.12,1.41.33,2.4.69,3.15ZM73.53,141.22c.3,0,.57.14.76.45,1.37,1.97,2.4,5.05,2.59,7.48.01.06.01.12.01.18,0,.51-.24.9-.76.97-.09.02-.18.03-.25.03-.48,0-.81-.28-.87-.81-.24-2.39-1.05-4.99-2.33-6.93-.12-.18-.16-.36-.16-.52,0-.31.18-.6.51-.73.17-.07.34-.12.5-.12Z"/><path class="cls-2" d="M82.87,145.01c-.39,0-.6-.31-.6-.76,0-.17.03-.33.09-.45-.77.53-1.58.99-2.37,1.35-.12.06-.24.09-.38.09-.29,0-.57-.16-.74-.51-.06-.14-.09-.27-.09-.41,0-.31.17-.61.48-.75,2.08-.93,4.02-2.37,5.46-4.11.25-.3.71-.45,1.16-.45s.9.15,1.16.45c1.6,1.86,3.46,3.16,5.53,4.05.33.14.48.44.48.76,0,.14-.03.29-.09.42-.15.34-.45.55-.77.55-.12,0-.25-.03-.38-.09-.79-.39-1.59-.85-2.35-1.38.06.14.09.28.09.47,0,.45-.21.76-.58.76h-6.1ZM89.52,146.38c1.06,0,1.54.48,1.54,1.53v3.18c0,1.05-.48,1.53-1.54,1.53h-7.25c-1.05,0-1.54-.48-1.54-1.53v-3.18c0-1.05.5-1.53,1.54-1.53h7.25ZM88.89,151.09c.36,0,.48-.07.48-.41v-2.4c0-.31-.12-.39-.48-.39h-6c-.34,0-.45.07-.45.39v2.4c0,.33.11.41.45.41h6ZM82.87,143.47h6.15c-1.12-.81-2.13-1.72-2.88-2.62-.09-.12-.17-.18-.24-.18s-.13.04-.22.15c-.74.93-1.74,1.84-2.85,2.66h.04Z"/><path class="cls-2" d="M99.06,143.47c0,.28-.03.58-.03.87.3-.36.78-.76,1.2-1.06,1.2-.85,2.34-1.35,3.57-1.35,2.71,0,4.32,1.98,4.32,4.56,0,1.98-.74,3.57-2.37,4.47-1,.55-2.37.89-3.81.92-.57.01-.9-.36-.92-.9,0-.57.31-.92.85-.93,1.1-.03,2.22-.25,2.92-.66,1.04-.58,1.46-1.57,1.46-2.97,0-1.65-1.05-2.8-2.65-2.8-1.1,0-2.19.52-3.25,1.36-.45.36-.9.81-1.33,1.29,0,1.99.01,3.84.03,5.76,0,.5-.31.82-.88.82-.52,0-.84-.36-.84-.81,0-1.46,0-2.67.03-3.96-.39.52-.81,1.12-1.17,1.65-.17.26-.41.39-.67.39-.18,0-.38-.08-.57-.21-.2-.15-.3-.38-.3-.65,0-.21.08-.44.22-.66.65-.88,1.53-1.96,2.49-2.97,0-.66.03-1.44.04-2.08-.62.04-1.26.14-1.83.18h-.08c-.4,0-.69-.31-.71-.75v-.04c0-.55.29-.81.69-.87.66-.06,1.37-.14,1.96-.17.01-.66.04-1.27.08-1.96.03-.47.3-.72.88-.72.51,0,.79.31.79.76v.03c-.03.63-.06,1.21-.09,1.81.39.01.64.33.64.7,0,.21-.1.45-.33.65l-.36.3Z"/><path class="cls-2" d="M121.02,146.45c-.17,1.36-.88,2.17-2.29,2.17-.64,0-1.39-.22-2.05-.6-.29-.17-.44-.41-.44-.68,0-.17.05-.33.15-.49.17-.27.42-.42.67-.42.13,0,.27.03.41.11.45.25.87.4,1.21.4.39,0,.6-.25.69-.93.06-.45.09-1.06.1-1.71-.75.03-1.46.05-2.14.07-.84.06-1.68.09-2.54.15v2.11c0,2.01.08,2.62.38,2.98.39.54,1.16.69,2.71.69s2.94-.14,3.92-.33c.09-.01.18-.03.27-.03.44,0,.72.27.78.74.01.06.01.12.01.17,0,.48-.29.79-.73.88-1.07.21-2.66.33-4.07.33-2.31,0-3.61-.36-4.27-1.24-.55-.68-.75-1.59-.75-3.81v-2.39c-.62.03-1.35.09-2.07.15h-.09c-.45,0-.72-.34-.75-.76v-.04c0-.47.27-.81.72-.84.72-.04,1.46-.1,2.19-.17.01-.81.01-1.68.01-2.43.02-.51.39-.76.92-.76.62.03.88.31.88.79-.01.74-.01,1.52-.03,2.31.78-.06,1.59-.1,2.44-.14.65-.03,1.4-.06,2.19-.09.01-.28.01-.57.01-.84,0-.54-.01-1.05-.01-1.51s.34-.74.83-.74.88.23.88.69v1.5c0,.27,0,.55-.02.84.66-.01,1.42-.01,2.12-.03.6,0,.86.25.86.81v.04c0,.51-.26.81-.81.81-.71,0-1.42,0-2.16.02,0,.75-.06,1.54-.13,2.2Z"/><path class="cls-2" d="M127.75,141.11c-.39.07-.78.15-1.12.21-.06.02-.12.02-.17.02-.38,0-.63-.23-.69-.63-.01-.06-.01-.12-.01-.18,0-.34.21-.58.54-.63,1.17-.2,2.42-.53,3.29-.89.13-.06.28-.09.4-.09.27,0,.51.12.63.39.08.14.11.27.11.4,0,.27-.15.5-.44.61-.31.14-.66.26-1.03.38v2.04h.75c.36,0,.57.28.57.72s-.21.73-.57.73h-.66c.36.89.93,1.71,1.37,2.34.1.13.16.33.16.52,0,.17-.04.33-.16.46-.14.15-.32.24-.5.24-.17,0-.32-.06-.41-.21-.21-.33-.53-.9-.74-1.53.11.63.18,1.44.18,2.11v4.35c0,.36-.27.57-.77.57s-.75-.21-.75-.57v-3.46c0-.69.09-1.54.21-2.34-.27.9-.72,1.86-1.23,2.56-.13.18-.32.27-.53.27-.17,0-.33-.06-.48-.2-.18-.17-.27-.38-.27-.58,0-.18.06-.36.18-.51.9-1.11,1.59-2.58,2.01-4.03h-1.37c-.36,0-.57-.28-.57-.73s.21-.72.57-.72h1.49v-1.64ZM139.24,141.5c.32,0,.48.29.48.65s-.17.66-.48.66h-3.62v.75h2.13c.92,0,1.37.34,1.37,1.12v2.71c0,.78-.45,1.12-1.37,1.12h-2.13v.75h3.11c.3,0,.48.24.48.63s-.18.63-.48.63h-3.11v.81h3.66c.33,0,.51.25.51.64s-.18.66-.51.66h-8.73c-.33,0-.51-.26-.51-.66s.18-.64.51-.64h3.6v-.81h-3.09c-.3,0-.48-.24-.48-.63s.18-.63.48-.63h3.09v-.75h-1.93c-.9,0-1.35-.34-1.35-1.12v-2.71c0-.78.45-1.12,1.35-1.12h1.93v-.75h-3.25c-.31,0-.48-.29-.48-.66s.17-.65.48-.65h3.25v-.66c-.88.05-1.77.07-2.55.07-.42,0-.6-.24-.62-.66v-.04c0-.38.23-.61.57-.61,2.13,0,5-.25,6.75-.58.08-.02.15-.03.22-.03.34,0,.54.18.65.54.01.07.03.15.03.22,0,.33-.19.57-.52.63-.88.15-1.95.28-3.06.38v.75h3.62ZM132.66,144.7c-.22,0-.33.06-.33.27v.52h1.83v-.79h-1.5ZM134.16,146.56h-1.83v.57c0,.19.11.25.33.25h1.5v-.82ZM135.62,145.49h2.03v-.52c0-.21-.08-.27-.3-.27h-1.73v.79ZM137.35,147.38c.22,0,.3-.06.3-.25v-.57h-2.03v.82h1.73Z"/><path class="cls-2" d="M143.32,144.79c-1.18,0-1.58-.39-1.58-1.48v-2.26c0-1.09.48-1.48,1.62-1.48h3.54c1.14,0,1.62.39,1.62,1.48v2.26c0,1.09-.44,1.48-1.62,1.48h-1.83c-.01.44-.03.85-.06,1.29h1.9c1.14,0,1.56.39,1.56,1.35,0,1.77-.11,3.07-.29,3.99-.18.94-.81,1.35-1.86,1.35-.58,0-.93-.03-1.29-.1-.36-.07-.57-.38-.57-.75,0-.06,0-.12.01-.2.09-.42.33-.63.62-.63.04,0,.09,0,.13.01.21.05.51.09.79.09.41,0,.54-.09.62-.51.12-.66.19-1.48.19-2.67,0-.36-.12-.45-.45-.45h-1.56c-.33,2.19-.99,3.75-1.98,5.04-.17.23-.42.33-.69.33-.21,0-.42-.07-.6-.21-.22-.17-.34-.39-.34-.63,0-.18.07-.38.21-.54,1.3-1.54,1.88-3.31,2-6.76h-.11ZM146.4,143.41c.38,0,.48-.06.48-.45v-1.51c0-.39-.1-.44-.48-.44h-2.54c-.38,0-.46.04-.46.42v1.54c0,.38.09.44.46.44h2.54ZM151.48,148.79c0,.38-.35.6-.84.6s-.87-.23-.87-.61v-8.1c0-.37.38-.58.87-.58s.84.23.84.6v8.1ZM154.77,151.06c0,1.14-.62,1.71-2.1,1.71-.55,0-1.17-.03-1.58-.1s-.62-.36-.62-.75c0-.06,0-.14.02-.2.09-.45.34-.66.69-.66.04,0,.11,0,.17.02.38.06.81.1,1.12.1.53,0,.58-.08.58-.56v-10.8c0-.42.35-.65.84-.65s.87.22.87.65v11.23Z"/><path class="cls-2" d="M33.69,212.93c-.13.06-.29.09-.44.09-.33,0-.61-.15-.79-.48-.07-.18-.12-.36-.12-.52,0-.34.2-.65.57-.82,1.71-.75,3.74-2.13,5.22-4.02-1.27-1.12-2.62-2.11-4-3.04-.21-.14-.31-.36-.31-.6,0-.21.09-.44.27-.63.18-.21.42-.31.66-.31.21,0,.42.07.63.19,1.25.79,2.57,1.77,3.83,2.85.78-1.29,1.41-2.88,1.83-4.56.12-.49.4-.75.81-.75.12,0,.24.02.36.06.49.14.75.45.75.87,0,.1-.02.21-.05.33-.48,1.91-1.29,3.81-2.23,5.32,1.05.93,2.02,1.95,2.87,2.98.17.19.25.43.25.66,0,.27-.11.52-.35.75-.19.17-.42.25-.64.25-.27,0-.54-.12-.75-.36-.81-.99-1.65-1.91-2.5-2.73-1.59,2.04-3.85,3.63-5.85,4.47Z"/><path class="cls-2" d="M49.78,203.9c.31,0,.55.15.69.44.46.85.9,2.04,1.14,2.94.01.07.03.15.03.21,0,.38-.25.6-.63.72-.1.03-.22.04-.33.04-.33,0-.63-.15-.72-.49-.24-.85-.66-2.05-1.04-2.83-.06-.09-.08-.2-.08-.29,0-.3.23-.55.57-.67.12-.04.25-.06.36-.06ZM58.78,204.5v.1c-.18,1.93-.81,3.93-1.88,5.37-1.17,1.6-3.1,2.82-5.1,3.24-.09.01-.18.03-.25.03-.38,0-.63-.2-.72-.56-.04-.1-.06-.22-.06-.33,0-.34.18-.63.57-.74,1.58-.38,3.29-1.38,4.2-2.65.9-1.23,1.38-2.91,1.59-4.66.03-.42.36-.6.73-.6.06,0,.12,0,.18.02.45.07.73.33.73.78ZM52.08,204.05c0-.3.22-.55.55-.66.12-.04.24-.06.34-.06.3,0,.58.14.74.45.45.82.83,1.9,1.05,2.85.01.07.03.15.03.21,0,.34-.23.58-.6.7-.12.03-.22.05-.33.05-.36,0-.66-.17-.73-.5-.21-.85-.62-1.99-.98-2.76-.06-.1-.07-.2-.07-.29Z"/><path class="cls-2" d="M63.72,205.85s-.11.01-.15.01c-.41,0-.73-.28-.78-.75-.01-.04-.01-.09-.01-.13,0-.44.25-.8.69-.85l2.7-.38v-2.71c0-.54.32-.83.95-.83s.92.29.92.85v2.45l5.7-.77c.17-.01.33-.03.47-.03.57,0,.99.17,1.27.53.2.22.32.57.32.96,0,.28-.06.58-.18.89-.58,1.41-1.99,2.94-3.22,3.69-.2.12-.39.18-.58.18-.25,0-.5-.12-.67-.34-.15-.16-.21-.36-.21-.55,0-.27.13-.55.39-.7.9-.55,1.89-1.49,2.31-2.32.06-.12.09-.21.09-.28,0-.17-.11-.26-.32-.26-.03,0-.08,0-.12.02l-5.23.75v3.89c0,1.66.21,1.89,2.75,1.89,1.29,0,2.56-.12,3.43-.27.09-.03.17-.03.24-.03.45,0,.76.26.84.72.01.07.01.15.01.21,0,.44-.24.79-.73.87-.93.15-2.25.25-3.77.25-3.84,0-4.63-.68-4.63-3.48v-3.79l-2.44.34Z"/><path class="cls-2" d="M79.46,207.86c-.52,0-.81-.42-.81-.99s.29-.99.83-.99h11.07c.54,0,.83.42.83.99s-.29.99-.83.99h-11.08Z"/><path class="cls-2" d="M98.97,205.97c.31.2.43.45.43.74,0,.18-.04.36-.13.54-.17.3-.48.48-.81.48-.18,0-.38-.06-.54-.17-.78-.51-2.08-1.2-3.08-1.64-.3-.14-.46-.39-.46-.69,0-.15.04-.33.13-.49.17-.34.43-.53.75-.53.12,0,.25.03.38.07,1.04.39,2.37,1.08,3.33,1.68ZM105.66,203.41c.11,0,.2.01.32.04.42.07.69.39.69.84,0,.09-.01.2-.04.3-.63,2.39-1.91,4.45-3.78,5.95-1.77,1.42-4.5,2.34-7.07,2.49h-.09c-.52,0-.92-.29-.96-.85-.01-.05-.01-.09-.01-.14,0-.5.29-.84.82-.87,2.28-.14,4.75-.96,6.2-2.13,1.48-1.23,2.56-2.92,3.1-4.92.12-.45.41-.72.83-.72ZM100.08,202.19c.3.2.45.45.45.75,0,.17-.04.34-.15.51-.17.33-.48.51-.79.51-.15,0-.32-.04-.48-.15-.93-.57-2.07-1.18-3.01-1.56-.33-.12-.5-.41-.5-.72,0-.15.04-.3.12-.47.18-.31.46-.51.81-.51.12,0,.25.01.39.06.97.38,2.17.96,3.16,1.57ZM104.54,200.18c.21,0,.41.09.56.3.36.48.69,1.04.92,1.5.04.1.08.23.08.33,0,.24-.12.45-.38.57-.11.06-.23.09-.33.09-.26,0-.5-.14-.6-.33-.22-.46-.54-.99-.85-1.48-.08-.1-.11-.21-.11-.31,0-.23.13-.47.38-.57.11-.06.23-.09.34-.09ZM106.48,199.54c.21,0,.42.09.55.27.33.48.65,1.02.84,1.47.04.12.08.23.08.35,0,.24-.13.45-.34.55-.12.06-.24.09-.36.09-.22,0-.45-.12-.57-.39-.23-.47-.51-.99-.81-1.38-.08-.1-.1-.23-.1-.33,0-.22.15-.44.39-.55.1-.04.21-.07.33-.07Z"/><path class="cls-1" d="M240.79,372.1c.46.8,1.25,1.17,2.4,1.32.75.09,1.8.14,2.8.14,1.59,0,3.27-.07,4.59-.18h.12c.45,0,.69.25.71.78v.05c0,.48-.27.76-.81.79-1.27.06-3.07.1-4.66.1-1.05,0-2.08-.06-3.03-.17-1.17-.14-2.29-.61-2.94-1.6-.42.54-1.02,1.16-1.58,1.59-.12.09-.27.15-.44.15-.19,0-.42-.09-.61-.34-.14-.18-.2-.38-.2-.55,0-.24.09-.44.25-.55.55-.39,1.26-1.02,1.77-1.62v-2.91c0-.32-.06-.39-.38-.39h-.99c-.38,0-.62-.28-.62-.75s.24-.75.62-.75h1.65c.96,0,1.33.45,1.33,1.46v3.45ZM240.9,364.02c.1.15.15.31.15.48,0,.24-.12.48-.34.66-.2.17-.41.24-.6.24-.23,0-.44-.1-.58-.33-.5-.73-1.12-1.47-1.67-2.01-.15-.15-.23-.31-.23-.5,0-.21.11-.41.32-.6.2-.17.41-.24.62-.24.19,0,.39.07.54.21.63.57,1.39,1.47,1.8,2.08ZM246.96,368.52c.76,1.35,2.1,2.23,3.5,2.68.31.09.51.38.51.71,0,.12-.01.24-.06.36-.15.39-.44.57-.78.57-.12,0-.25-.03-.39-.06-1.44-.48-2.86-1.51-3.79-3.13-.6,1.3-1.68,2.34-3.06,3-.15.09-.3.12-.45.12-.31,0-.57-.18-.73-.51-.06-.14-.09-.27-.09-.39,0-.3.18-.54.45-.68,1.38-.63,2.22-1.44,2.67-2.58l.03-.09h-2.82c-.38,0-.58-.28-.58-.74s.21-.75.58-.75h3.15c.04-.58.06-1.17.08-1.76h-2.92c-.36,0-.57-.3-.57-.73s.21-.71.57-.71h1.53c-.22-.46-.54-1.02-.82-1.48-.04-.09-.08-.18-.08-.28,0-.23.15-.45.48-.57.15-.06.3-.09.44-.09.27,0,.5.12.63.34.39.63.84,1.47,1.04,2.08h1.08c.43-.63.79-1.36,1.03-1.96.12-.28.36-.46.71-.46.09,0,.2.01.3.03.42.1.63.35.63.61,0,.06-.02.12-.03.18-.2.49-.54,1.08-.88,1.6h1.83c.38,0,.57.26.57.71s-.2.73-.57.73h-3.39c0,.58-.01,1.17-.09,1.76h3.83c.38,0,.6.28.6.75,0,.44-.22.74-.6.74h-3.5Z"/><path class="cls-1" d="M254.64,369.49c0-.51.04-1.05.11-1.57-.11.18-.23.36-.35.53-.13.19-.36.3-.6.3-.2,0-.42-.07-.62-.22-.19-.17-.3-.38-.3-.6,0-.18.06-.37.2-.54,1.26-1.56,2.17-3.66,2.65-5.43.09-.38.32-.54.66-.54.09,0,.2.01.32.04.42.09.63.3.63.63,0,.09-.02.17-.04.27-.24.85-.58,1.81-1.02,2.74v9.78c0,.39-.31.6-.83.6s-.81-.21-.81-.6v-5.38ZM257.64,365.59c-.38,0-.57-.32-.57-.75s.2-.75.57-.75h9.01c.38,0,.57.3.57.73s-.2.77-.57.77h-9.01ZM264.84,370.69c.98,0,1.38.44,1.38,1.19v2.07c0,.77-.41,1.22-1.38,1.22h-5.67c-.96,0-1.37-.45-1.37-1.22v-2.07c0-.75.41-1.19,1.37-1.19h5.67ZM258.42,367.75c-.35,0-.53-.27-.53-.69,0-.36.18-.66.53-.66h7.18c.34,0,.52.27.52.66s-.18.69-.52.69h-7.18ZM258.42,369.91c-.36,0-.53-.27-.53-.66s.17-.69.53-.69h7.2c.34,0,.51.27.51.66s-.17.69-.51.69h-7.2ZM258.61,363.28c-.33,0-.5-.27-.5-.67s.17-.71.5-.71h7c.32,0,.5.28.5.69s-.18.69-.5.69h-7ZM264.22,373.81c.27,0,.39-.04.39-.31v-1.17c0-.27-.12-.31-.39-.31h-4.44c-.27,0-.39.04-.39.31v1.17c0,.27.12.31.39.31h4.44Z"/><path class="cls-1" d="M276.66,370.33c-.42.92-1.26,1.36-2.33,1.36-1.65,0-2.82-1.11-2.82-2.7s1.33-2.77,3.21-2.77c.63,0,1.15.17,1.54.47-.02-.45-.02-1.02-.02-1.49-2.08.05-4.29.15-6.34.27h-.09c-.48,0-.74-.33-.74-.84v-.05c0-.45.27-.78.75-.81,1.95-.1,4.21-.18,6.41-.24,0-.47-.02-.87-.02-1.22v-.03c0-.42.32-.69.86-.69.62,0,.9.24.9.75v1.16c.63-.02,1.24-.02,1.84-.02s1.2,0,1.75.02c.55.01.87.25.87.85v.03c0,.52-.3.78-.81.78-.92,0-1.88-.03-2.89-.03-.25,0-.51,0-.76.01v2.76c.36.65.51,1.32.51,2.13,0,2.04-.93,3.42-2.62,4.27-.72.36-1.58.63-2.45.75-.08.02-.13.02-.19.02-.44,0-.75-.23-.86-.71-.01-.09-.03-.2-.03-.27,0-.42.24-.7.69-.79,2.44-.45,3.71-1.44,3.71-2.86v-.12h-.08ZM273.27,368.92c0,.81.58,1.26,1.36,1.26.95,0,1.58-.6,1.58-1.47,0-.69-.55-1.14-1.39-1.14-.89,0-1.54.56-1.54,1.35Z"/><path class="cls-1" d="M289.9,367.6c1.02-.41,1.95-.6,2.82-.6,2.78,0,4.4,1.51,4.4,3.6,0,2.61-2.29,4.32-6.09,4.32-2.36,0-3.87-.96-3.87-2.47,0-1.31,1.12-2.22,2.7-2.22,1.75,0,2.95,1.02,3.27,2.73,1.26-.34,2.12-1.14,2.12-2.31,0-1.24-1.05-2.23-3.03-2.23s-3.75.69-6,2.1c-.17.09-.34.15-.52.15-.29,0-.58-.13-.77-.4-.1-.15-.15-.33-.15-.51,0-.3.15-.61.43-.76,2.25-1.33,5.28-3.51,7.14-5.07-1.46.12-3.49.21-5.08.21-.49,0-.81-.31-.81-.81,0-.52.25-.89.75-.89h.45c1.96,0,4.27-.09,6.01-.24.06-.01.13-.01.2-.01.45,0,.79.15,1,.54.09.15.13.33.13.52,0,.3-.12.61-.38.85-1.11,1-2.36,1.93-3.46,2.67-.39.25-.84.54-1.29.76l.03.07ZM289.78,371.62c-.65,0-1.02.32-1.02.74,0,.65.69,1.06,2.16,1.06.24,0,.44-.01.62-.03-.12-1.16-.9-1.77-1.75-1.77Z"/></svg>