<?xml version="1.0" encoding="UTF-8"?><svg id="_レイヤー_1" xmlns="http://www.w3.org/2000/svg" viewBox="0 0 689.58 86.13"><defs><style>.cls-1{fill:red;}</style></defs><path class="cls-1" d="M21.33,28.89c-5.13.27-11.16.45-15.93.45-2.79,0-4.5-2.07-4.5-4.95,0-3.06,1.44-5.22,4.41-5.22,4.59,0,10.53-.18,16.02-.54V6.93c0-2.88,1.98-4.41,5.04-4.41,3.24,0,5.13,1.53,5.13,4.41v10.98c4.86-.45,9.63-.99,13.59-1.71.36-.09.72-.09,1.08-.09,2.52,0,4.05,1.44,4.5,4.14.09.45.09.9.09,1.26,0,2.7-1.53,4.14-4.05,4.59-4.5.81-9.81,1.44-15.21,1.98v12.42c5.85-1.53,11.79-2.43,17.46-2.43,16.74,0,26.55,8.28,26.55,21.69s-8.37,21.42-20.16,21.42c-6.57,0-12.33-2.43-16.29-7.02-.99-1.17-1.44-2.43-1.44-3.6,0-1.44.72-2.79,1.89-3.87,1.26-1.08,2.52-1.62,3.78-1.62s2.52.54,3.51,1.62c2.7,2.7,5.22,3.96,8.37,3.96,5.04,0,9.45-4.05,9.45-10.8,0-7.65-5.4-12.6-16.29-12.6-5.67,0-11.7,1.08-16.83,2.97v18.81c0,8.28-4.41,12.69-11.97,12.69-3.6,0-7.65-1.26-11.7-4.05-4.68-3.06-7.83-7.2-7.83-12.87,0-2.88,1.08-5.67,2.97-8.37,3.69-4.95,10.35-9.81,18.36-12.96v-14.58ZM21.33,53.82c-4.59,2.16-8.1,4.86-9.72,7.2-.99,1.26-1.44,2.7-1.44,3.96,0,1.89,1.35,3.51,3.06,4.68,1.53.99,3.42,1.62,5.04,1.62,2.25,0,3.06-1.08,3.06-4.32v-13.14ZM78.39,24.66c.81,1.08,1.26,2.34,1.26,3.6,0,1.44-.54,2.79-1.53,3.78-1.08.99-2.43,1.53-3.87,1.53-1.35,0-2.61-.54-3.69-1.71-4.05-4.86-9.99-10.26-14.94-13.77-1.17-.81-1.8-2.16-1.8-3.6,0-1.17.45-2.43,1.44-3.51,1.08-1.17,2.43-1.71,3.87-1.71.99,0,2.16.36,3.06.99,5.31,3.42,12.15,9.36,16.2,14.4Z"/><path class="cls-1" d="M111.24,17.01c-3.6,5.49-7.74,10.53-12.06,14.58-.9.9-2.07,1.35-3.33,1.35-1.44,0-2.88-.54-3.96-1.71-.99-.9-1.53-2.07-1.53-3.15,0-1.26.54-2.52,1.71-3.51,6.39-5.67,11.88-13.41,15.48-21.06.81-1.62,2.25-2.43,4.32-2.43.54,0,1.08.09,1.71.18,2.88.45,4.14,1.53,4.14,3.15,0,.72-.27,1.62-.72,2.52-.27.45-.45.99-.72,1.44h50.04c2.43,0,3.69,1.62,3.69,4.23s-1.26,4.41-3.69,4.41h-55.08ZM104.13,56.25c-1.08-.54-1.71-1.71-1.71-3.06,0-.81.27-1.8.99-2.61,1.17-1.71,2.61-2.43,4.14-2.43.81,0,1.62.27,2.43.63,4.86,2.7,9.63,5.58,14.22,8.73,2.52-2.7,4.77-5.49,6.75-8.46.81-1.35,2.16-2.07,3.69-2.07.9,0,1.89.27,2.97.72,2.07.99,2.97,2.43,2.97,3.87,0,.81-.27,1.71-.81,2.43-2.34,3.24-4.95,6.3-7.65,9.18,4.41,3.33,8.64,6.84,12.6,10.44,1.08.9,1.62,2.25,1.62,3.6s-.54,2.79-1.62,3.69c-1.08,1.17-2.25,1.8-3.51,1.8-1.08,0-2.25-.45-3.33-1.62-3.96-3.87-8.37-7.56-12.96-11.16-7.29,6.21-15.48,11.16-23.94,14.67-.9.36-1.8.54-2.61.54-1.8,0-3.24-1.08-4.23-3.06-.36-.81-.54-1.62-.54-2.34,0-1.8.99-3.33,2.97-4.05,7.29-2.88,14.22-6.84,20.25-11.52-4.05-2.79-8.37-5.4-12.69-7.92ZM150.66,35.91c5.85,0,9.27,2.88,9.27,8.01,0,15.03,1.35,24.12,4.05,28.8.36.63.63.9.9.9s.54-.36.72-.99c.45-1.53.81-4.23.99-7.74.09-2.43,1.98-3.42,4.14-3.42h.45c2.61.27,4.23,1.71,4.23,4.23v.45c-.45,6.66-1.44,11.79-4.5,16.11-1.26,1.8-3.42,2.7-5.58,2.7-1.98,0-4.05-.72-5.58-2.16-4.95-4.32-9.72-12.06-9.72-35.37,0-2.07-.63-2.97-3.06-2.97h-48.6c-2.52,0-3.78-1.71-3.78-4.23s1.26-4.32,3.78-4.32h52.29ZM160.2,22.41c2.16,0,3.33,1.53,3.33,3.96s-1.17,4.05-3.33,4.05h-49.41c-2.07,0-3.24-1.71-3.24-3.96s1.17-4.05,3.24-4.05h49.41Z"/><path class="cls-1" d="M191.34,17.37c-1.98,0-3.15-1.8-3.15-4.32,0-2.34,1.17-4.05,3.15-4.05h12.42v-4.68c0-2.16,1.53-3.24,4.41-3.24,3.06,0,4.5,1.08,4.5,3.24v4.68h11.07c2.07,0,3.15,1.71,3.15,4.05,0,2.52-1.08,4.32-3.15,4.32h-11.07v5.31h5.58c5.13,0,8.01,1.98,8.01,7.38v21.42c0,5.4-2.88,7.47-8.01,7.47h-5.49v5.4h12.06c2.07,0,3.15,1.71,3.15,4.23s-1.08,4.23-3.15,4.23h-12.06v10.08c0,2.16-1.53,3.24-4.5,3.24s-4.5-1.08-4.5-3.24v-10.08h-12.78c-1.98,0-3.06-1.71-3.06-4.23s1.08-4.23,3.06-4.23h12.78v-5.4h-5.58c-5.13,0-8.01-2.07-8.01-7.47v-21.51c0-5.31,2.88-7.29,8.01-7.29h5.58v-5.31h-12.42ZM200.43,30.42c-1.35,0-2.07.36-2.07,1.8v4.77h5.67v-6.57h-3.6ZM204.03,44.37h-5.67v5.04c0,1.53.72,1.8,2.07,1.8h3.6v-6.84ZM212.4,36.99h5.58v-4.77c0-1.44-.63-1.8-1.98-1.8h-3.6v6.57ZM216,51.21c1.35,0,1.98-.27,1.98-1.8v-5.04h-5.58v6.84h3.6ZM232.38,61.38c-2.16,0-3.42-1.8-3.42-4.41s1.26-4.32,3.42-4.32h11.07v-7.56c0-2.25,1.98-3.51,4.68-3.51,2.88,0,4.77,1.26,4.77,3.51v7.56h12.69c2.34,0,3.42,1.8,3.42,4.32s-1.08,4.41-3.42,4.41h-12.69v12.78h15.75c2.34,0,3.51,1.8,3.51,4.41s-1.17,4.5-3.51,4.5h-40.5c-2.25,0-3.42-1.8-3.42-4.5s1.17-4.41,3.42-4.41h15.3v-12.78h-11.07ZM231.39,13.05c-2.34,0-3.6-1.71-3.6-4.41s1.26-4.32,3.6-4.32h29.43c5.04,0,7.56,2.88,7.56,6.57,0,1.35-.36,2.88-1.08,4.41-2.7,5.4-6.66,10.53-11.34,15.03,4.05,2.34,8.37,4.14,13.32,5.76,1.98.63,2.97,2.16,2.97,3.96,0,.72-.09,1.44-.36,2.16-.81,2.16-2.34,3.24-4.14,3.24-.72,0-1.35-.09-2.07-.36-6.21-2.25-11.79-5.13-16.92-8.73-4.59,3.42-9.63,6.3-14.67,8.46-.81.36-1.62.54-2.34.54-1.71,0-3.24-.9-3.96-2.79-.27-.81-.45-1.62-.45-2.43,0-1.71.9-3.15,2.61-3.87,4.14-1.53,8.1-3.6,11.7-6.03-3.33-3.24-6.3-6.93-9.18-11.25-.45-.72-.63-1.44-.63-2.07,0-1.44.99-2.7,2.52-3.42.45-.18.9-.36,1.26-.45h-4.23ZM237.87,13.05c1.08.27,2.07.99,2.7,1.98,2.61,3.96,5.31,7.11,8.1,9.81,3.33-3.06,6.12-6.3,8.19-9.54.27-.54.45-.9.45-1.26,0-.63-.54-.99-1.8-.99h-17.64Z"/><path class="cls-1" d="M307.98,9.27c0,.36-.09.9-.18,1.35-2.79,11.34-4.59,25.83-4.59,37.89,0,8.37.81,18.54,2.34,27.09.09.54.09,1.08.09,1.62,0,2.97-1.62,4.5-4.5,5.13-.54.09-1.08.18-1.53.18-2.52,0-4.32-1.53-4.95-4.68-1.62-8.1-2.43-18.45-2.43-28.89,0-13.14,1.8-28.71,4.95-40.59.72-2.52,2.52-3.6,5.04-3.6.45,0,.9,0,1.35.09,2.7.45,4.41,1.89,4.41,4.41ZM328.95,47.79c0,1.08-.45,2.07-1.35,2.97-2.7,2.7-4.05,5.67-4.05,8.37,0,4.86,4.05,7.2,15.39,7.2,7.11,0,14.49-.72,20.79-2.07.45-.09.9-.18,1.26-.18,2.61,0,4.41,1.8,4.86,4.32.09.45.09.9.09,1.26,0,2.61-1.35,4.77-4.14,5.4-5.49,1.17-13.59,1.98-22.68,1.98-16.38,0-25.83-5.49-25.83-17.19,0-5.04,2.07-10.53,6.3-14.76,1.26-1.26,2.79-1.89,4.32-1.89,1.08,0,2.16.36,3.06.99,1.35.99,1.98,2.34,1.98,3.6ZM357.57,14.13c3.15,0,4.68,2.07,5.04,4.95v.54c0,2.7-1.44,5.13-4.77,5.67-7.65.9-18.09,1.35-27.36,1.35-3.24,0-6.3-.09-9.09-.18-3.96-.09-5.4-2.61-5.4-5.58.09-2.97,1.8-5.49,5.22-5.49h.36c2.34.09,4.95.09,7.65.09,9.09,0,19.71-.45,27.36-1.26.36-.09.63-.09.99-.09Z"/><path class="cls-1" d="M444.96,22.95c.72-.18,1.35-.27,1.98-.27,2.52,0,4.14,1.35,4.77,3.87.18.63.27,1.26.27,1.89,0,2.34-1.35,4.14-4.14,4.86-10.08,2.43-22.14,6.3-31.14,10.35-10.71,4.77-16.38,10.71-16.38,16.83,0,6.93,5.76,10.26,22.77,10.26,8.55,0,17.91-.99,24.66-2.34.54-.09.99-.18,1.53-.18,2.79,0,4.68,1.71,5.13,4.68.09.45.09.81.09,1.26,0,2.88-1.62,4.86-4.86,5.49-6.75,1.35-15.84,2.07-26.55,2.07-24.93,0-33.93-7.92-33.93-21.33,0-10.17,7.83-18.99,20.43-25.02-2.52-7.74-4.68-16.83-6.12-25.02-.09-.36-.09-.63-.09-.99,0-2.79,2.07-4.59,4.68-5.04.45-.09.9-.09,1.35-.09,2.7,0,4.77,1.44,5.22,4.32,1.26,7.11,3.06,15.48,5.4,22.5,8.1-3.24,17.46-6.39,24.93-8.1ZM438.66,3.78c1.26,0,2.43.54,3.42,1.8,2.07,2.7,4.14,6.03,5.67,8.73.27.63.36,1.26.36,1.89,0,1.44-.72,2.79-2.16,3.42-.72.36-1.44.54-2.16.54-1.44,0-2.79-.63-3.42-2.07-1.44-2.61-3.51-5.94-5.4-8.55-.45-.63-.63-1.26-.63-1.89,0-1.44.9-2.7,2.25-3.42.72-.27,1.44-.45,2.07-.45ZM449.91,0c1.26,0,2.52.54,3.33,1.71,2.07,2.61,3.96,5.58,5.22,8.37.27.72.45,1.44.45,2.07,0,1.44-.81,2.61-2.07,3.33-.63.27-1.35.45-1.98.45-1.44,0-2.79-.72-3.51-2.34-1.44-2.61-3.24-5.67-5.04-8.1-.36-.63-.54-1.26-.54-1.89,0-1.35.81-2.61,2.25-3.24.63-.27,1.26-.36,1.89-.36Z"/><path class="cls-1" d="M544.59,47.88c0,12.6-6.3,22.68-20.52,29.07-6.93,3.24-16.02,5.58-24.3,6.3-.36.09-.72.09-1.08.09-2.97,0-4.86-1.44-5.31-4.32-.09-.54-.18-1.08-.18-1.62,0-2.88,1.62-4.68,4.77-5.13,7.29-.81,16.11-2.97,22.32-5.85,8.55-4.05,12.69-10.26,12.69-17.64,0-6.93-4.59-11.34-15.57-11.34-9.54,0-22.05,2.61-31.86,5.58-.63.18-1.26.27-1.89.27-2.25,0-4.23-1.35-4.86-3.87-.18-.72-.27-1.35-.27-1.98,0-2.43,1.35-4.32,3.78-5.04,9.54-2.97,23.31-5.4,34.74-5.4,18.36,0,27.54,8.55,27.54,20.88ZM532.62,8.19c3.24.09,4.95,2.43,4.95,5.49v.27c-.09,3.15-2.25,5.04-5.58,5.04-11.97-.18-28.8-1.98-39.96-4.14-2.7-.54-4.05-2.7-4.05-5.13,0-.45,0-.9.09-1.35.72-2.88,2.7-4.32,5.13-4.32.27,0,.63,0,.99.09,11.16,2.07,26.37,3.6,38.43,4.05Z"/><path class="cls-1" d="M609.93,43.83c-2.97.63-6.57,1.26-10.35,1.71-10.08,1.26-20.25,2.61-29.25,4.05-.36.09-.72.09-.99.09-2.88,0-4.5-1.71-4.86-4.32-.09-.36-.09-.72-.09-1.08,0-2.34,1.26-3.96,3.69-4.59,3.06-.81,6.12-1.8,9.09-3.06,11.88-5.22,25.38-13.14,36.27-21.42-10.08,1.08-22.05,1.71-31.32,1.8-2.34,0-4.32-1.71-4.32-4.77,0-3.33,1.71-4.95,5.04-5.04,6.66,0,14.04-.18,20.88-.45,6.75-.27,13.14-.63,17.73-.99h1.08c2.79,0,4.5.72,5.76,3.06.54.9.81,1.89.81,2.88,0,1.71-.81,3.42-2.25,4.86-7.38,6.84-16.65,12.78-25.83,17.46-2.88,1.35-6.12,2.79-9.63,4.14l.09.45c3.96-.9,8.64-1.62,12.96-2.16,11.16-1.26,23.85-2.43,35.1-3.06h.45c3.15,0,4.77,1.8,4.95,4.77v.45c0,2.88-1.8,4.77-4.5,4.86-9.81.45-18.99,2.07-26.1,5.31-7.2,3.15-11.52,7.65-11.52,13.14,0,4.95,3.96,8.19,13.86,8.82,2.7.27,6.66.36,9.9.36h.45c2.97,0,5.04,1.62,5.13,4.77v.27c0,3.42-1.8,5.4-4.95,5.67-1.62,0-3.33.09-4.95.09-2.25,0-4.5-.09-6.3-.27-15.21-.99-24.3-7.38-24.3-18,0-8.28,5.67-15.21,18.36-19.35l-.09-.45ZM627.93,20.79c0-1.08.63-2.16,1.8-2.88.72-.45,1.53-.63,2.25-.63.99,0,1.89.45,2.52,1.17,1.71,2.25,3.69,5.31,4.86,7.38.27.54.45,1.17.45,1.8,0,1.17-.54,2.25-1.71,2.97-.63.27-1.35.45-1.98.45-1.26,0-2.52-.54-3.24-1.8-1.35-2.25-3.06-4.95-4.41-6.84-.36-.45-.54-1.08-.54-1.62ZM641.07,11.7c1.08,0,2.25.54,2.97,1.44,1.89,2.43,3.78,5.4,5.13,7.83.36.72.54,1.44.54,2.07,0,1.17-.63,2.25-1.62,2.79-.63.45-1.44.63-2.16.63-1.26,0-2.52-.63-3.15-1.8-1.26-2.43-3.15-5.31-4.86-7.65-.54-.63-.72-1.26-.72-1.89,0-1.26.81-2.34,1.98-2.97.63-.27,1.26-.45,1.89-.45Z"/><path class="cls-1" d="M689.58,69.75c0,8.46-6.84,15.3-15.3,15.3s-15.3-6.84-15.3-15.3,6.93-15.3,15.21-15.3,15.39,6.75,15.39,15.3ZM666.18,69.75c0,4.41,3.69,8.19,8.1,8.19s8.19-3.78,8.19-8.19-3.78-8.19-8.19-8.19-8.1,3.78-8.1,8.19Z"/></svg>