<?xml version="1.0" encoding="UTF-8"?><svg id="_レイヤー_1" xmlns="http://www.w3.org/2000/svg" viewBox="0 0 1440 77"><defs><style>.cls-1{fill:#fff;}.cls-2{fill:red;}</style></defs><rect class="cls-2" x="0" width="1440" height="77"/><path class="cls-1" d="M871.78,51.64c-6.28,0-11.38-5.11-11.38-11.38s5.11-11.38,11.38-11.38c1.24,0,2.25,1.01,2.25,2.25s-1.01,2.25-2.25,2.25c-3.79,0-6.88,3.08-6.88,6.88s3.08,6.88,6.88,6.88c1.24,0,2.25,1.01,2.25,2.25s-1.01,2.25-2.25,2.25Z"/><path class="cls-1" d="M871.78,51.64c-1.24,0-2.25-1.01-2.25-2.25s1.01-2.25,2.25-2.25c3.79,0,6.88-3.08,6.88-6.88s-3.08-6.88-6.88-6.88c-1.24,0-2.25-1.01-2.25-2.25s1.01-2.25,2.25-2.25c6.28,0,11.38,5.11,11.38,11.38s-5.11,11.38-11.38,11.38Z"/><path class="cls-1" d="M939.44,51.64c-.43,0-.86-.12-1.25-.38-1.04-.69-1.32-2.09-.62-3.12l12.17-18.26c.69-1.04,2.09-1.32,3.12-.62,1.04.69,1.32,2.09.62,3.12l-12.17,18.26c-.43.65-1.15,1-1.88,1Z"/><path class="cls-1" d="M968.3,51.64c-.73,0-1.44-.35-1.88-1l-12.17-18.26c-.69-1.04-.41-2.43.62-3.12,1.04-.69,2.43-.41,3.12.62l12.17,18.26c.69,1.04.41,2.43-.62,3.12-.38.26-.82.38-1.25.38Z"/><path class="cls-1" d="M960.59,45.68h-13.44c-.75,0-1.35-.61-1.35-1.35s.61-1.35,1.35-1.35h13.44c.75,0,1.35.61,1.35,1.35s-.61,1.35-1.35,1.35Z"/><path class="cls-1" d="M927.28,51.63c-.75,0-1.35-.61-1.35-1.35v-15.55c0-.75.61-1.35,1.35-1.35s1.35.61,1.35,1.35v15.55c0,.75-.61,1.35-1.35,1.35Z"/><path class="cls-1" d="M932.31,33.38h-10.06c-1.24,0-2.25-1.01-2.25-2.25s1.01-2.25,2.25-2.25h10.06c1.24,0,2.25,1.01,2.25,2.25s-1.01,2.25-2.25,2.25Z"/><path class="cls-1" d="M1001.58,51.63c-.75,0-1.35-.61-1.35-1.35v-15.55c0-.75.61-1.35,1.35-1.35s1.35.61,1.35,1.35v15.55c0,.75-.61,1.35-1.35,1.35Z"/><path class="cls-1" d="M1006.61,33.38h-10.06c-1.24,0-2.25-1.01-2.25-2.25s1.01-2.25,2.25-2.25h10.06c1.24,0,2.25,1.01,2.25,2.25s-1.01,2.25-2.25,2.25Z"/><path class="cls-1" d="M852.16,51.65c-6.28,0-11.39-5.11-11.39-11.39,0-1.24,1.01-2.25,2.25-2.25s2.25,1.01,2.25,2.25c0,3.79,3.09,6.88,6.88,6.88,1.24,0,2.25,1.01,2.25,2.25s-1.01,2.25-2.25,2.25Z"/><path class="cls-1" d="M843.02,42.51c-1.24,0-2.25-1.01-2.25-2.25,0-6.28,5.11-11.39,11.39-11.39,1.24,0,2.25,1.01,2.25,2.25s-1.01,2.25-2.25,2.25c-3.79,0-6.88,3.09-6.88,6.88,0,1.24-1.01,2.25-2.25,2.25Z"/><path class="cls-1" d="M986.15,51.65c-6.28,0-11.39-5.11-11.39-11.39,0-1.24,1.01-2.25,2.25-2.25s2.25,1.01,2.25,2.25c0,3.79,3.09,6.88,6.88,6.88,1.24,0,2.25,1.01,2.25,2.25s-1.01,2.25-2.25,2.25Z"/><path class="cls-1" d="M977.01,42.51c-1.24,0-2.25-1.01-2.25-2.25,0-6.28,5.11-11.39,11.39-11.39,1.24,0,2.25,1.01,2.25,2.25s-1.01,2.25-2.25,2.25c-3.79,0-6.88,3.09-6.88,6.88,0,1.24-1.01,2.25-2.25,2.25Z"/><path class="cls-1" d="M908.27,51.65c-.44,0-.87-.21-1.13-.6l-13.38-20.07c-.41-.62-.25-1.46.37-1.87.62-.41,1.46-.25,1.87.38l13.38,20.07c.41.62.25,1.46-.37,1.87-.23.15-.49.23-.75.23Z"/><path class="cls-1" d="M891.4,51.64c-1.24,0-2.25-1.01-2.25-2.25v-18.26c0-1.24,1.01-2.25,2.25-2.25s2.25,1.01,2.25,2.25v18.26c0,1.24-1.01,2.25-2.25,2.25Z"/><path class="cls-1" d="M911.76,51.64c-1.24,0-2.25-1.01-2.25-2.25v-18.26c0-1.24,1.01-2.25,2.25-2.25s2.25,1.01,2.25,2.25v18.26c0,1.24-1.01,2.25-2.25,2.25Z"/><path class="cls-1" d="M543.83,51.65c-.75,0-1.35-.61-1.35-1.35v-15.55c0-.75.61-1.35,1.35-1.35s1.35.61,1.35,1.35v15.55c0,.75-.61,1.35-1.35,1.35Z"/><path class="cls-1" d="M548.86,33.39h-10.06c-1.24,0-2.25-1.01-2.25-2.25s1.01-2.25,2.25-2.25h10.06c1.24,0,2.25,1.01,2.25,2.25s-1.01,2.25-2.25,2.25Z"/><path class="cls-1" d="M463.85,51.65c-.44,0-.87-.21-1.13-.6l-13.37-20.06c-.41-.62-.25-1.46.37-1.87.62-.41,1.46-.25,1.87.37l13.37,20.06c.41.62.25,1.46-.37,1.87-.23.15-.49.23-.75.23Z"/><path class="cls-1" d="M467.33,51.66c-.43,0-.86-.12-1.25-.38-1.04-.69-1.32-2.09-.62-3.12l12.17-18.26c.69-1.04,2.09-1.32,3.12-.62,1.04.69,1.32,2.09.62,3.12l-12.17,18.26c-.43.65-1.15,1-1.88,1Z"/><path class="cls-1" d="M441.74,31.59h-4.87c-.75,0-1.35-.61-1.35-1.35s.61-1.35,1.35-1.35h4.87c.75,0,1.35.61,1.35,1.35s-.61,1.35-1.35,1.35Z"/><path class="cls-1" d="M441.74,51.66h-4.87c-.75,0-1.35-.61-1.35-1.35s.61-1.35,1.35-1.35h4.87c.75,0,1.35.61,1.35,1.35s-.61,1.35-1.35,1.35Z"/><path class="cls-1" d="M433.39,51.66c-1.24,0-2.25-1.01-2.25-2.25v-18.26c0-1.24,1.01-2.25,2.25-2.25s2.25,1.01,2.25,2.25v18.26c0,1.24-1.01,2.25-2.25,2.25Z"/><path class="cls-1" d="M441.74,41.63h-4.75c-.75,0-1.35-.61-1.35-1.35s.61-1.35,1.35-1.35h4.75c.75,0,1.35.61,1.35,1.35s-.61,1.35-1.35,1.35Z"/><path class="cls-1" d="M498.36,31.59h-4.87c-.75,0-1.35-.61-1.35-1.35s.61-1.35,1.35-1.35h4.87c.75,0,1.35.61,1.35,1.35s-.61,1.35-1.35,1.35Z"/><path class="cls-1" d="M498.36,51.66h-4.87c-.75,0-1.35-.61-1.35-1.35s.61-1.35,1.35-1.35h4.87c.75,0,1.35.61,1.35,1.35s-.61,1.35-1.35,1.35Z"/><path class="cls-1" d="M490,51.66c-1.24,0-2.25-1.01-2.25-2.25v-18.26c0-1.24,1.01-2.25,2.25-2.25s2.25,1.01,2.25,2.25v18.26c0,1.24-1.01,2.25-2.25,2.25Z"/><path class="cls-1" d="M498.36,41.63h-4.75c-.75,0-1.35-.61-1.35-1.35s.61-1.35,1.35-1.35h4.75c.75,0,1.35.61,1.35,1.35s-.61,1.35-1.35,1.35Z"/><path class="cls-1" d="M524.82,51.66c-.44,0-.87-.21-1.13-.6l-13.38-20.07c-.41-.62-.25-1.46.37-1.87.62-.41,1.46-.25,1.87.38l13.38,20.07c.41.62.25,1.46-.37,1.87-.23.15-.49.23-.75.23Z"/><path class="cls-1" d="M507.95,51.66c-1.24,0-2.25-1.01-2.25-2.25v-18.26c0-1.24,1.01-2.25,2.25-2.25s2.25,1.01,2.25,2.25v18.26c0,1.24-1.01,2.25-2.25,2.25Z"/><path class="cls-1" d="M528.31,51.66c-1.24,0-2.25-1.01-2.25-2.25v-18.26c0-1.24,1.01-2.25,2.25-2.25s2.25,1.01,2.25,2.25v18.26c0,1.24-1.01,2.25-2.25,2.25Z"/><path class="cls-1" d="M670.07,51.62c-6.27,0-11.38-5.1-11.38-11.38s5.1-11.38,11.38-11.38c1.24,0,2.25,1.01,2.25,2.25s-1.01,2.25-2.25,2.25c-3.79,0-6.87,3.08-6.87,6.87s3.08,6.87,6.87,6.87c1.24,0,2.25,1.01,2.25,2.25s-1.01,2.25-2.25,2.25Z"/><path class="cls-1" d="M670.07,51.62c-1.24,0-2.25-1.01-2.25-2.25s1.01-2.25,2.25-2.25c3.79,0,6.87-3.08,6.87-6.87s-3.08-6.87-6.87-6.87c-1.24,0-2.25-1.01-2.25-2.25s1.01-2.25,2.25-2.25c6.27,0,11.38,5.1,11.38,11.38s-5.1,11.38-11.38,11.38Z"/><path class="cls-1" d="M603.41,51.62c-.43,0-.86-.12-1.25-.38-1.03-.69-1.31-2.09-.62-3.12l12.16-18.24c.69-1.03,2.09-1.31,3.12-.62,1.03.69,1.31,2.09.62,3.12l-12.16,18.24c-.43.65-1.15,1-1.88,1Z"/><path class="cls-1" d="M632.26,51.62c-.73,0-1.44-.35-1.88-1l-12.16-18.24c-.69-1.03-.41-2.43.62-3.12,1.03-.69,2.43-.41,3.12.62l12.16,18.24c.69,1.03.41,2.43-.62,3.12-.38.26-.82.38-1.25.38Z"/><path class="cls-1" d="M624.55,45.67h-13.44c-.75,0-1.35-.6-1.35-1.35s.61-1.35,1.35-1.35h13.44c.75,0,1.35.6,1.35,1.35s-.61,1.35-1.35,1.35Z"/><path class="cls-1" d="M707.92,38c-.75,0-1.35-.6-1.35-1.35v-6.42c0-.75.61-1.35,1.35-1.35s1.35.6,1.35,1.35v6.42c0,.75-.61,1.35-1.35,1.35Z"/><path class="cls-1" d="M689.67,38c-.75,0-1.35-.6-1.35-1.35v-6.42c0-.75.61-1.35,1.35-1.35s1.35.6,1.35,1.35v6.42c0,.75-.61,1.35-1.35,1.35Z"/><path class="cls-1" d="M698.8,51.63c-6.27,0-11.38-5.1-11.38-11.38,0-1.24,1.01-2.25,2.25-2.25s2.25,1.01,2.25,2.25c0,3.79,3.08,6.87,6.87,6.87s6.87-3.08,6.87-6.87c0-1.24,1.01-2.25,2.25-2.25s2.25,1.01,2.25,2.25c0,6.27-5.1,11.38-11.38,11.38Z"/><path class="cls-1" d="M651.36,36.59c-.75,0-1.35-.6-1.35-1.35,0-2.02-1.64-3.66-3.66-3.66h-.12c-.75,0-1.35-.6-1.35-1.35s.61-1.35,1.35-1.35h.12c3.51,0,6.37,2.86,6.37,6.37,0,.75-.61,1.35-1.35,1.35Z"/><path class="cls-1" d="M646.35,41.6c-.75,0-1.35-.6-1.35-1.35s.61-1.35,1.35-1.35c2.02,0,3.66-1.64,3.66-3.66,0-.75.61-1.35,1.35-1.35s1.35.6,1.35,1.35c0,3.51-2.86,6.37-6.37,6.37Z"/><path class="cls-1" d="M646.35,51.63h-.12c-.75,0-1.35-.6-1.35-1.35s.61-1.35,1.35-1.35h.12c2.02,0,3.66-1.64,3.66-3.66,0-.75.61-1.35,1.35-1.35s1.35.6,1.35,1.35c0,3.51-2.86,6.37-6.37,6.37Z"/><path class="cls-1" d="M651.36,46.62c-.75,0-1.35-.6-1.35-1.35,0-2.02-1.64-3.66-3.66-3.66-.75,0-1.35-.6-1.35-1.35s.61-1.35,1.35-1.35c3.51,0,6.37,2.86,6.37,6.37,0,.75-.61,1.35-1.35,1.35Z"/><path class="cls-1" d="M642.74,51.63c-1.24,0-2.25-1.01-2.25-2.25v-18.24c0-1.24,1.01-2.25,2.25-2.25s2.25,1.01,2.25,2.25v18.24c0,1.24-1.01,2.25-2.25,2.25Z"/><path class="cls-1" d="M723.43,51.62c-.75,0-1.35-.6-1.35-1.35v-15.54c0-.75.61-1.35,1.35-1.35s1.35.6,1.35,1.35v15.54c0,.75-.61,1.35-1.35,1.35Z"/><path class="cls-1" d="M728.46,33.38h-10.05c-1.24,0-2.25-1.01-2.25-2.25s1.01-2.25,2.25-2.25h10.05c1.24,0,2.25,1.01,2.25,2.25s-1.01,2.25-2.25,2.25Z"/><path class="cls-1" d="M781.32,42.5c-3.76,0-6.81-3.06-6.81-6.81s3.06-6.81,6.81-6.81c1.24,0,2.25,1.01,2.25,2.25s-1.01,2.25-2.25,2.25-2.31,1.04-2.31,2.31,1.04,2.31,2.31,2.31,2.25,1.01,2.25,2.25-1.01,2.25-2.25,2.25Z"/><path class="cls-1" d="M784.81,51.62c-.75,0-1.35-.6-1.35-1.35s.61-1.35,1.35-1.35c1.77,0,3.21-1.44,3.21-3.21s-1.44-3.21-3.21-3.21c-.75,0-1.35-.6-1.35-1.35s.61-1.35,1.35-1.35c3.26,0,5.91,2.65,5.91,5.91s-2.65,5.91-5.91,5.91Z"/><path class="cls-1" d="M768.21,38c-.75,0-1.35-.6-1.35-1.35v-6.42c0-.75.61-1.35,1.35-1.35s1.35.6,1.35,1.35v6.42c0,.75-.61,1.35-1.35,1.35Z"/><path class="cls-1" d="M749.97,38c-.75,0-1.35-.6-1.35-1.35v-6.42c0-.75.61-1.35,1.35-1.35s1.35.6,1.35,1.35v6.42c0,.75-.61,1.35-1.35,1.35Z"/><path class="cls-1" d="M759.09,51.63c-6.27,0-11.38-5.1-11.38-11.38,0-1.24,1.01-2.25,2.25-2.25s2.25,1.01,2.25,2.25c0,3.79,3.08,6.87,6.87,6.87s6.87-3.08,6.87-6.87c0-1.24,1.01-2.25,2.25-2.25s2.25,1.01,2.25,2.25c0,6.27-5.1,11.38-11.38,11.38Z"/><path class="cls-1" d="M1337.96,14.02c-2.66.13-4.48.55-6.06,1.17-1.64.64-3.04,1.5-4.42,2.89-1.39,1.39-2.24,2.79-2.88,4.43-.62,1.59-1.03,3.41-1.15,6.07-.12,2.67-.14,3.52-.13,10.31.01,6.79.04,7.64.17,10.31.13,2.66.55,4.48,1.17,6.06.64,1.64,1.5,3.04,2.89,4.42,1.39,1.39,2.79,2.24,4.43,2.87,1.59.61,3.41,1.03,6.07,1.15,2.67.12,3.52.14,10.3.13,6.79-.01,7.64-.04,10.31-.17,2.66-.13,4.48-.55,6.06-1.17,1.64-.64,3.04-1.5,4.42-2.89,1.39-1.39,2.24-2.79,2.87-4.43.62-1.59,1.03-3.41,1.15-6.07.12-2.67.14-3.52.13-10.31-.01-6.79-.04-7.64-.17-10.3-.13-2.66-.55-4.48-1.17-6.07-.64-1.64-1.5-3.04-2.89-4.42-1.39-1.39-2.79-2.24-4.43-2.87-1.59-.62-3.41-1.04-6.07-1.15-2.67-.12-3.52-.14-10.31-.13-6.79.01-7.64.04-10.31.17M1338.26,59.21c-2.44-.11-3.76-.51-4.64-.85-1.17-.45-2-.99-2.88-1.86-.88-.87-1.42-1.71-1.88-2.87-.34-.88-.75-2.2-.87-4.64-.12-2.63-.15-3.43-.16-10.1-.01-6.67.01-7.46.13-10.1.1-2.44.51-3.76.85-4.64.45-1.17.99-2,1.86-2.88.87-.88,1.71-1.42,2.87-1.88.88-.34,2.2-.75,4.64-.87,2.64-.12,3.43-.15,10.1-.16,6.68-.01,7.47.01,10.1.13,2.44.11,3.76.51,4.64.85,1.17.45,2,.99,2.88,1.86.88.87,1.42,1.7,1.88,2.87.34.88.75,2.2.87,4.64.13,2.64.15,3.43.17,10.1.01,6.68-.01,7.47-.13,10.1-.11,2.44-.51,3.76-.85,4.64-.45,1.17-.99,2-1.87,2.88-.87.87-1.7,1.42-2.87,1.88-.88.34-2.2.75-4.64.87-2.64.12-3.43.15-10.1.16-6.67.01-7.46-.01-10.1-.13M1358.64,25.48c0,1.66,1.35,3,3.01,2.99,1.66,0,3-1.35,2.99-3,0-1.66-1.35-3-3.01-2.99-1.66,0-3,1.35-2.99,3.01M1335.48,38.87c.01,7.09,5.77,12.82,12.86,12.81,7.09-.01,12.83-5.77,12.81-12.86-.01-7.09-5.77-12.83-12.86-12.81-7.09.01-12.82,5.77-12.81,12.86M1339.98,38.86c0-4.6,3.72-8.34,8.32-8.35,4.6,0,8.34,3.71,8.35,8.32,0,4.6-3.72,8.34-8.32,8.35-4.6,0-8.34-3.71-8.35-8.32"/></svg>