<?xml version="1.0" encoding="UTF-8"?><svg id="_レイヤー_1" xmlns="http://www.w3.org/2000/svg" viewBox="0 0 1140.88 396.53"><defs><style>.cls-1{fill:#fff;}</style></defs><rect class="cls-1" x="119.31" y="-119.31" width="396.53" height="635.15" rx="120" ry="120" transform="translate(515.84 -119.31) rotate(90)"/><rect class="cls-1" x="683.31" y="290.28" width="150.16" height="50.04" rx="23.4" ry="23.4" transform="translate(1516.77 630.59) rotate(180)"/><path class="cls-1" d="M702.8,64.5c-3.93,2.91-8.02,5.43-11.41,7.16-.87.39-1.73.63-2.52.63-1.5,0-2.83-.79-3.62-2.2-.39-.79-.63-1.65-.63-2.36,0-1.42.71-2.67,2.12-3.3,7.55-3.46,15.58-9.44,19.99-15.34.87-1.1,1.97-1.57,3.23-1.57.87,0,1.81.24,2.67.79,1.5.79,2.2,1.97,2.2,3.15,0,.79-.31,1.57-.87,2.36-1.97,2.6-4.56,5.19-7.4,7.63h29.98c-2.91-2.44-5.51-5.11-7.71-7.79-.71-.79-1.02-1.65-1.02-2.52,0-1.1.71-2.2,1.97-2.91.94-.55,1.81-.79,2.68-.79,1.18,0,2.28.55,3.07,1.57,4.72,5.74,12.83,11.49,20.61,14.71,1.57.71,2.52,2.05,2.52,3.62,0,.71-.16,1.5-.55,2.28-.79,1.57-2.04,2.44-3.62,2.44-.79,0-1.57-.16-2.44-.63-2.13-.87-4.33-2.12-6.53-3.46v.55c0,4.56-.71,9.52-1.97,12.98-1.34,3.7-4.25,5.59-9.76,5.59-3.38,0-6.3-.39-8.58-1.1-1.42-.39-2.2-1.73-2.2-3.31,0-.39.08-.79.16-1.26.47-1.81,1.89-2.83,3.38-2.83.32,0,.55.08.87.08,1.57.39,3.22.71,4.8.71,2.2,0,3.31-.32,3.86-1.73.71-2.05,1.1-4.48,1.18-7.16,0-1.65-.47-1.89-1.89-1.89h-13.53c-4.33,13.85-15.74,18.8-28.88,22.03-.39.08-.71.08-1.02.08-1.81,0-3.31-1.1-3.78-2.99-.16-.47-.24-.94-.24-1.42,0-1.81,1.1-3.23,2.99-3.62,11.02-2.28,18.41-6.22,21.87-14.08h-7.24c-1.81,0-2.83-1.65-2.83-3.7l.08-.39ZM755.68,111.39c1.89,0,2.99,1.42,2.99,3.86,0,2.28-1.1,4.01-2.99,4.01h-67.9c-1.97,0-2.99-1.65-2.99-4.01s1.02-3.86,2.99-3.86h5.19v-13.14c0-5.04,2.36-7.55,7.32-7.55h42.72c4.96,0,7.08,2.2,7.08,7v13.69h5.59ZM709.25,98.25h-5.82c-1.5,0-1.97.32-1.97,2.05v11.09h7.79v-13.14ZM725.07,98.25h-7.63v13.14h7.63v-13.14ZM741.59,100.3c0-1.73-.47-2.05-1.97-2.05h-6.37v13.14h8.34v-11.09Z"/><path class="cls-1" d="M822.13,119.26c-15.85,0-28.74-12.89-28.74-28.74s12.89-28.74,28.74-28.74c3.14,0,5.69,2.55,5.69,5.69s-2.55,5.69-5.69,5.69c-9.57,0-17.36,7.79-17.36,17.36s7.79,17.36,17.36,17.36c3.14,0,5.69,2.55,5.69,5.69s-2.55,5.69-5.69,5.69Z"/><path class="cls-1" d="M822.13,119.26c-3.14,0-5.69-2.55-5.69-5.69s2.55-5.69,5.69-5.69c9.57,0,17.36-7.79,17.36-17.36s-7.79-17.36-17.36-17.36c-3.14,0-5.69-2.55-5.69-5.69s2.55-5.69,5.69-5.69c15.85,0,28.74,12.89,28.74,28.74s-12.89,28.74-28.74,28.74Z"/><path class="cls-1" d="M950.87,119.26c-15.85,0-28.74-12.89-28.74-28.74s12.89-28.74,28.74-28.74c3.14,0,5.69,2.55,5.69,5.69s-2.55,5.69-5.69,5.69c-9.57,0-17.36,7.79-17.36,17.36s7.79,17.36,17.36,17.36c3.14,0,5.69,2.55,5.69,5.69s-2.55,5.69-5.69,5.69Z"/><path class="cls-1" d="M950.87,119.26c-3.14,0-5.69-2.55-5.69-5.69s2.55-5.69,5.69-5.69c9.57,0,17.36-7.79,17.36-17.36s-7.79-17.36-17.36-17.36c-3.14,0-5.69-2.55-5.69-5.69s2.55-5.69,5.69-5.69c15.85,0,28.74,12.89,28.74,28.74s-12.89,28.74-28.74,28.74Z"/><path class="cls-1" d="M1058.27,68.61h-12c-1.89,0-3.41-1.53-3.41-3.41s1.53-3.41,3.41-3.41h12c1.89,0,3.41,1.53,3.41,3.41s-1.53,3.41-3.41,3.41Z"/><path class="cls-1" d="M1058.27,119.26h-12c-1.89,0-3.41-1.53-3.41-3.41s1.53-3.41,3.41-3.41h12c1.89,0,3.41,1.53,3.41,3.41s-1.53,3.41-3.41,3.41Z"/><path class="cls-1" d="M1052.22,112.44h0c-3.14,0-5.69-2.56-5.68-5.7l.05-32.46c0-3.14,2.55-5.68,5.69-5.68h0c3.14,0,5.69,2.56,5.68,5.7l-.05,32.46c0,3.14-2.55,5.68-5.69,5.68Z"/><path class="cls-1" d="M869.38,119.27c-1.89,0-3.41-1.53-3.41-3.41v-50.67c0-1.89,1.53-3.41,3.41-3.41s3.41,1.53,3.41,3.41v50.67c0,1.89-1.53,3.41-3.41,3.41Z"/><path class="cls-1" d="M878.48,119.28c-3.14,0-5.69-2.55-5.69-5.69s2.55-5.69,5.69-5.69c9.58,0,17.37-7.79,17.37-17.37,0-3.14,2.55-5.69,5.69-5.69s5.69,2.55,5.69,5.69c0,15.85-12.9,28.75-28.75,28.75Z"/><path class="cls-1" d="M901.54,96.22c-3.14,0-5.69-2.55-5.69-5.69,0-9.58-7.79-17.37-17.37-17.37-3.14,0-5.69-2.55-5.69-5.69s2.55-5.69,5.69-5.69c15.85,0,28.75,12.9,28.75,28.75,0,3.14-2.55,5.69-5.69,5.69Z"/><path class="cls-1" d="M1009.49,98.32c-1.89,0-3.41-1.53-3.41-3.41s1.53-3.41,3.41-3.41c6.31,0,11.44-5.13,11.44-11.44s-5.13-11.44-11.44-11.44h-.28c-1.89,0-3.41-1.53-3.41-3.41s1.53-3.41,3.41-3.41h.28c10.07,0,18.27,8.2,18.27,18.27s-8.2,18.27-18.27,18.27Z"/><path class="cls-1" d="M1024.35,119.26c-1.1,0-2.19-.53-2.84-1.52l-9.81-14.71c-1.05-1.57-.62-3.69.95-4.73s3.69-.62,4.73.95l9.81,14.71c1.05,1.57.62,3.69-.95,4.73-.58.39-1.24.57-1.89.57Z"/><path class="cls-1" d="M1000.4,119.27c-3.14,0-5.69-2.55-5.69-5.69v-46.09c0-3.14,2.55-5.69,5.69-5.69s5.69,2.55,5.69,5.69v46.09c0,3.14-2.55,5.69-5.69,5.69Z"/><path class="cls-1" d="M1110.82,107.95c-3.14,0-5.69-2.55-5.69-5.69v-34.77c0-3.14,2.55-5.69,5.69-5.69s5.69,2.55,5.69,5.69v34.77c0,3.14-2.55,5.69-5.69,5.69Z"/><path class="cls-1" d="M1110.82,119.27c-1.89,0-3.41-1.53-3.41-3.41v-4.58c0-1.89,1.53-3.41,3.41-3.41s3.41,1.53,3.41,3.41v4.58c0,1.89-1.53,3.41-3.41,3.41Z"/><path class="cls-1" d="M1135.19,103.38c-1.89,0-3.41-1.53-3.41-3.41v-34.77c0-1.89,1.53-3.41,3.41-3.41s3.41,1.53,3.41,3.41v34.77c0,1.89-1.53,3.41-3.41,3.41Z"/><path class="cls-1" d="M1135.19,119.27c-3.14,0-5.69-2.55-5.69-5.69v-4.58c0-3.14,2.55-5.69,5.69-5.69s5.69,2.55,5.69,5.69v4.58c0,3.14-2.55,5.69-5.69,5.69Z"/></svg>