<?xml version="1.0" encoding="UTF-8"?><svg id="_レイヤー_1" xmlns="http://www.w3.org/2000/svg" viewBox="0 0 635.54 82.05"><defs><style>.cls-1{fill:red;}</style></defs><path class="cls-1" d="M426.86,9.76h-17.13c-2.69,0-4.87-2.18-4.87-4.87S407.04.01,409.73.01h17.13c2.69,0,4.87,2.18,4.87,4.87s-2.18,4.87-4.87,4.87Z"/><path class="cls-1" d="M426.86,82.05h-17.13c-2.69,0-4.87-2.18-4.87-4.87s2.18-4.87,4.87-4.87h17.13c2.69,0,4.87,2.18,4.87,4.87s-2.18,4.87-4.87,4.87Z"/><path class="cls-1" d="M418.22,72.31h-.01c-4.48,0-8.11-3.65-8.11-8.13l.07-46.32c0-4.48,3.64-8.11,8.12-8.11h.01c4.48,0,8.11,3.65,8.11,8.13l-.07,46.32c0,4.48-3.64,8.11-8.12,8.11Z"/><path class="cls-1" d="M251.34,82.05c-22.62,0-41.03-18.41-41.03-41.03,0-4.48,3.64-8.12,8.12-8.12s8.12,3.64,8.12,8.12c0,13.67,11.12,24.79,24.79,24.79,4.48,0,8.12,3.64,8.12,8.12s-3.64,8.12-8.12,8.12Z"/><path class="cls-1" d="M218.44,49.14c-4.48,0-8.12-3.64-8.12-8.12C210.32,18.4,228.72,0,251.34,0c4.48,0,8.12,3.64,8.12,8.12s-3.64,8.12-8.12,8.12c-13.67,0-24.79,11.12-24.79,24.79,0,4.48-3.64,8.12-8.12,8.12Z"/><path class="cls-1" d="M362.2,45.91h-60.08c-2.69,0-4.87-2.18-4.87-4.87s2.18-4.87,4.87-4.87h60.08c2.69,0,4.87,2.18,4.87,4.87s-2.18,4.87-4.87,4.87Z"/><path class="cls-1" d="M289.13,82.05c-4.48,0-8.12-3.64-8.12-8.12V8.15c0-4.48,3.64-8.12,8.12-8.12s8.12,3.64,8.12,8.12v65.78c0,4.48-3.64,8.12-8.12,8.12Z"/><path class="cls-1" d="M375.19,82.05c-4.48,0-8.12-3.64-8.12-8.12V8.15c0-4.48,3.64-8.12,8.12-8.12s8.12,3.64,8.12,8.12v65.78c0,4.48-3.64,8.12-8.12,8.12Z"/><path class="cls-1" d="M506.33,82.01c-1.57,0-3.12-.76-4.06-2.17L454.09,7.57c-1.49-2.24-.89-5.26,1.35-6.76,2.24-1.49,5.26-.89,6.76,1.35l48.18,72.27c1.49,2.24.89,5.26-1.35,6.76-.83.55-1.77.82-2.7.82Z"/><path class="cls-1" d="M518.9,82.05c-1.55,0-3.11-.44-4.5-1.36-3.73-2.49-4.74-7.53-2.25-11.26L556.02,3.63c2.49-3.73,7.53-4.74,11.26-2.25,3.73,2.49,4.74,7.53,2.25,11.26l-43.86,65.8c-1.56,2.35-4.14,3.62-6.76,3.62Z"/><path class="cls-1" d="M630.67,9.74h-17.54c-2.69,0-4.87-2.18-4.87-4.87S610.44,0,613.13,0h17.54c2.69,0,4.87,2.18,4.87,4.87s-2.18,4.87-4.87,4.87Z"/><path class="cls-1" d="M630.67,82.05h-17.54c-2.69,0-4.87-2.18-4.87-4.87s2.18-4.87,4.87-4.87h17.54c2.69,0,4.87,2.18,4.87,4.87s-2.18,4.87-4.87,4.87Z"/><path class="cls-1" d="M600.56,82.05c-4.48,0-8.12-3.64-8.12-8.12V8.15c0-4.48,3.64-8.12,8.12-8.12s8.12,3.64,8.12,8.12v65.78c0,4.48-3.64,8.12-8.12,8.12Z"/><path class="cls-1" d="M630.67,45.9h-17.13c-2.69,0-4.87-2.18-4.87-4.87s2.18-4.87,4.87-4.87h17.13c2.69,0,4.87,2.18,4.87,4.87s-2.18,4.87-4.87,4.87Z"/><path class="cls-1" d="M8.11,82.05c-1.55,0-3.11-.44-4.5-1.36-3.73-2.49-4.74-7.53-2.25-11.26L45.22,3.65c2.49-3.73,7.53-4.74,11.26-2.25,3.73,2.49,4.74,7.53,2.25,11.26L14.88,78.43c-1.56,2.35-4.14,3.62-6.76,3.62Z"/><path class="cls-1" d="M112.12,82.05c-2.62,0-5.2-1.27-6.76-3.62L61.5,12.65c-2.49-3.73-1.48-8.77,2.25-11.26,3.73-2.49,8.77-1.48,11.26,2.25l43.85,65.78c2.49,3.73,1.48,8.77-2.25,11.26-1.38.92-2.95,1.36-4.5,1.36Z"/><path class="cls-1" d="M84.34,60.6h-48.44c-2.69,0-4.87-2.18-4.87-4.87s2.18-4.87,4.87-4.87h48.44c2.69,0,4.87,2.18,4.87,4.87s-2.18,4.87-4.87,4.87Z"/><path class="cls-1" d="M162.7,52.14c-2.69,0-4.87-2.18-4.87-4.87s2.18-4.87,4.87-4.87c9,0,16.33-7.32,16.33-16.33s-7.33-16.33-16.33-16.33h-.4c-2.69,0-4.87-2.18-4.87-4.87S159.61,0,162.3,0h.4C177.07,0,188.77,11.7,188.77,26.07s-11.7,26.07-26.07,26.07Z"/><path class="cls-1" d="M183.9,82.04c-1.57,0-3.12-.76-4.06-2.17l-14-21c-1.49-2.24-.89-5.26,1.35-6.76,2.24-1.49,5.26-.89,6.76,1.35l14,21c1.49,2.24.89,5.26-1.35,6.76-.83.55-1.77.82-2.7.82Z"/><path class="cls-1" d="M149.72,82.05c-4.48,0-8.12-3.64-8.12-8.12V8.15C141.6,3.67,145.24.03,149.72.03s8.12,3.64,8.12,8.12v65.78c0,4.48-3.64,8.12-8.12,8.12Z"/></svg>