<?xml version="1.0" encoding="UTF-8"?><svg id="_レイヤー_1" xmlns="http://www.w3.org/2000/svg" xmlns:xlink="http://www.w3.org/1999/xlink" viewBox="0 0 1214.44 396.53"><defs><style>.cls-1{fill:none;}.cls-2{fill:#3767ab;}.cls-3{fill:#fff;}.cls-4{clip-path:url(#clippath);}</style><clipPath id="clippath"><rect class="cls-1" y="0" width="635.15" height="396.53" rx="120" ry="120"/></clipPath></defs><rect class="cls-3" x="686.42" y="285.82" width="150.16" height="50.04" rx="23.4" ry="23.4" transform="translate(1523.01 621.69) rotate(180)"/><path class="cls-3" d="M690.6,67.17c-1.66,0-2.56-1.34-2.56-3.33s.9-3.33,2.56-3.33h49.66c1.6,0,2.56,1.34,2.56,3.33s-.96,3.33-2.56,3.33h-19.58v15.81h16.51c1.73,0,2.62,1.34,2.62,3.26s-.9,3.26-2.62,3.26h-16.51v18.62h21.38c1.6,0,2.56,1.41,2.56,3.33s-.96,3.33-2.56,3.33h-53.82c-1.66,0-2.56-1.34-2.56-3.33s.9-3.33,2.56-3.33h7.36v-27.26c0-1.66,1.6-2.62,3.65-2.62s3.71.96,3.71,2.62v27.26h10.37v-40.96h-22.72Z"/><path class="cls-3" d="M775.33,72.86c3.52,0,4.93,1.86,4.93,6.46v31.93c0,3.97-2.37,5.82-6.78,5.82-1.92,0-3.9-.13-5.18-.45-1.15-.26-1.98-1.28-1.98-2.82,0-.19,0-.38.06-.64.13-1.79,1.22-2.56,2.3-2.56h.38c.7.06,2.11.32,2.94.32,1.66,0,2.24-.32,2.24-1.47v-7.62h-13.44c-.51,4.99-1.41,9.66-2.75,13.5-.38,1.22-1.54,1.98-2.88,1.98-.45,0-.9-.06-1.34-.26-1.47-.58-2.18-1.6-2.18-2.82,0-.45.06-.9.26-1.34,1.28-3.46,2.3-7.81,2.82-12.8.45-5.06.7-11.78.7-20.8,0-.58,0-1.09.06-1.6h-.19c-.77,0-1.47-.19-2.05-.58-.7-.51-1.02-1.28-1.02-2.05,0-.7.26-1.47.77-2.05,2.94-3.39,5.5-8.25,7.17-13.44.51-1.54,1.41-2.05,2.75-2.05.38,0,.77.06,1.22.13,1.79.26,2.62.9,2.62,1.92,0,.26-.06.58-.19.96-.06.19-.13.45-.19.64h6.21c2.82,0,4.35,1.66,4.35,3.78,0,.45-.06.96-.19,1.47-.58,1.73-1.6,4.22-2.82,6.4h1.41ZM760.94,90.01c0,2.05-.06,4.16-.13,6.21h4.35v-6.21h-4.22ZM767.72,72.86c.9-1.66,1.66-3.33,2.11-4.54.06-.19.13-.38.13-.58,0-.38-.26-.58-.77-.58h-5.18c-.9,1.98-1.92,3.84-3.01,5.7h6.72ZM762.41,78.69c-.96,0-1.41.26-1.41,1.34v4.54h4.16v-5.89h-2.75ZM774.57,80.03c0-1.09-.45-1.34-1.41-1.34h-2.75v5.89h4.16v-4.54ZM774.57,90.01h-4.16v6.21h4.16v-6.21ZM794.15,83.42c0-1.79,1.02-2.69,3.07-2.69s3.26.9,3.26,2.69v3.2h7.87c1.6,0,2.5,1.15,2.5,3.01s-.9,3.2-2.5,3.2h-7.87v5.95h9.34c1.6,0,2.43,1.15,2.43,3.07s-.83,3.2-2.43,3.2h-9.34v9.98c0,1.73-1.28,2.69-3.26,2.69-2.11,0-3.33-.96-3.33-2.69v-9.98h-9.73c-1.54,0-2.43-1.28-2.43-3.14,0-1.98.9-3.14,2.43-3.14h9.73v-5.95h-5.63c-.38.96-.77,1.86-1.15,2.69-.51,1.15-1.47,1.73-2.62,1.73-.45,0-1.02-.13-1.54-.32-1.15-.51-1.79-1.47-1.79-2.56,0-.51.13-1.02.38-1.47,1.41-2.43,2.62-5.89,3.2-8.9.19-1.34,1.22-2.11,2.62-2.11.26,0,.51,0,.77.06,1.54.32,2.5,1.09,2.5,2.37,0,.19,0,.45-.06.64-.13.51-.26,1.09-.38,1.66h3.97v-3.2ZM783.78,65.82c-1.6,0-2.5-1.22-2.5-3.07s.9-2.94,2.5-2.94h19.9c4.1,0,6.27,2.11,6.21,5.76-.06,3.2-.45,7.04-1.15,9.28-.96,3.01-2.82,4.8-7.17,4.8-1.98,0-3.84-.19-4.93-.45-1.09-.19-1.92-1.15-1.92-2.62,0-.26,0-.58.06-.9.32-1.6,1.15-2.37,2.05-2.37h.32c1.09.19,2.05.32,2.82.32,1.41,0,2.05-.45,2.43-1.79.32-1.09.51-3.07.51-4.61,0-1.15-.32-1.41-1.47-1.41h-5.31c-.83,6.53-4.42,12.22-9.6,15.1-.58.32-1.22.51-1.79.51-1.09,0-2.18-.58-2.82-1.66-.38-.64-.58-1.22-.58-1.86,0-.9.51-1.79,1.41-2.37,3.84-2.3,5.95-5.44,6.53-9.73h-5.5Z"/><path class="cls-3" d="M849,97.05c-2.11,5.76-4.16,8.7-6.59,10.62-2.18,1.73-4.74,2.5-7.55,2.5-6.91,0-13.05-6.27-13.05-18.75,0-16,11.46-28.09,29.5-28.09,15.93,0,26.3,10.43,26.3,25.15,0,9.22-3.9,16.25-10.5,20.67-3.78,2.62-8.7,4.29-13.76,4.93-.32.06-.58.06-.9.06-1.92,0-3.46-.9-3.78-3.07-.06-.32-.06-.64-.06-.9,0-1.92,1.09-3.39,3.14-3.71,4.42-.64,8.77-2.11,11.77-4.35,3.71-2.88,6.27-7.55,6.27-13.89,0-9.98-6.27-17.41-15.87-17.92-.64,10.43-2.37,19.78-4.93,26.75ZM829.23,91.3c0,7.62,2.69,10.88,5.57,10.88,1.22,0,2.43-.45,3.58-1.54,1.22-1.09,2.43-3.39,3.71-7.04,1.98-5.7,3.71-14.33,4.16-23.1-9.92,1.02-17.02,9.47-17.02,20.8Z"/><path class="cls-3" d="M897,104.16c-.83,1.54-1.98,2.3-3.39,2.3-.77,0-1.6-.26-2.5-.83-1.22-.7-1.73-1.79-1.73-3.01,0-.83.26-1.73.77-2.62,4.1-6.98,8.06-15.49,10.5-23.29-1.79.06-3.78.06-5.76.06h-2.56c-1.98-.06-3.07-1.41-3.07-3.58s1.22-3.58,3.26-3.58h4.22c2.05,0,4.1,0,6.02-.06.77-2.82,1.34-5.63,1.86-8.38.26-1.86,1.6-2.82,3.46-2.82.32,0,.64,0,.96.06,1.98.38,3.14,1.34,3.14,3.14,0,.32-.06.64-.13,1.02-.38,1.86-.9,4.1-1.47,6.4,2.56-.19,4.93-.38,7.1-.7.19-.06.45-.06.64-.06,1.79,0,2.82,1.15,3.14,3.07v.51c0,1.79-.96,3.07-3.01,3.46-3.01.51-6.46.77-9.86,1.02-2.75,9.34-7.17,20.03-11.58,27.9ZM933.35,104.99c0,6.72-4.03,10.94-14.14,10.94-8.64,0-14.21-4.48-14.21-11.2s5.76-11.52,14.21-11.52c2.43,0,4.54.26,6.66.77-.32-3.01-.58-6.85-.58-10.3,0-2.37,1.54-3.33,3.58-3.33s3.65,1.02,3.65,3.33c0,4.29.26,8.45.7,12.48,4.03,1.92,8.13,4.74,11.26,7.81.83.83,1.22,1.73,1.22,2.69,0,.9-.32,1.79-.96,2.56-.77.9-1.66,1.41-2.62,1.41-.83,0-1.66-.38-2.43-1.09-1.98-1.98-4.35-3.97-6.33-5.18v.64ZM919.4,99.55c-4.42,0-7.23,1.98-7.23,5.06,0,2.88,2.62,4.61,6.98,4.61,4.8,0,7.23-1.66,7.23-5.76,0-.77,0-1.47-.06-2.43-1.92-.96-4.48-1.47-6.91-1.47ZM943.72,74.08c1.09.77,1.6,1.86,1.6,3.01,0,.77-.26,1.54-.7,2.24-.7,1.02-1.79,1.6-2.94,1.6-.77,0-1.54-.26-2.3-.7-3.52-2.43-8.06-4.86-12.35-6.66-1.15-.51-1.73-1.66-1.73-2.82,0-.7.19-1.47.64-2.11.83-1.22,1.98-1.79,3.14-1.79.58,0,1.15.13,1.73.32,4.42,1.73,9.47,4.42,12.93,6.91Z"/><path class="cls-3" d="M969.26,100.96c.83,1.79,2.18,2.88,3.46,2.88s2.24-.58,3.07-2.18c1.09-1.86,1.98-4.93,2.56-8.58.32-1.92,1.41-2.88,3.26-2.88.32,0,.7.06,1.15.13,2.05.32,3.26,1.41,3.26,3.46,0,.26,0,.58-.06.9-.9,6.02-2.75,10.82-5.06,13.89-2.24,2.94-5.25,4.22-7.94,4.22-3.01,0-5.82-1.28-8.13-4.22-3.07-3.84-5.38-10.5-6.21-20.41-.45-5.5-.58-13.06-.58-20.61,0-2.37,1.41-3.71,4.03-3.71,2.82,0,3.84,1.41,3.84,3.78v4.86c0,5.63.06,11.14.38,15.04.51,6.02,1.41,10.24,2.94,13.44ZM997.8,67.23c1.28,0,2.43.58,3.26,1.92,5.82,8.38,10.24,21.57,11.07,31.93.06.26.06.51.06.77,0,2.18-1.02,3.84-3.26,4.16-.38.06-.77.13-1.09.13-2.05,0-3.46-1.22-3.71-3.46-1.02-10.17-4.48-21.31-9.92-29.57-.51-.77-.7-1.54-.7-2.24,0-1.34.77-2.56,2.18-3.14.7-.32,1.47-.51,2.11-.51Z"/><path class="cls-3" d="M1035.05,103.71c1.41,2.69,3.65,4.22,6.4,5.06-.58-.26-1.09-.77-1.47-1.54-.19-.45-.32-.96-.32-1.41,0-1.02.58-1.86,1.66-2.18,2.75-.83,5.89-1.98,7.74-3.07.58-.32,1.28-.51,1.92-.51.83,0,1.73.32,2.43,1.02.58.58.83,1.22.83,1.79,0,.77-.38,1.47-1.15,1.98-2.82,1.79-6.21,3.26-9.22,4.03-.45.13-.83.19-1.15.19-.13,0-.26,0-.32-.06.45.13.9.26,1.41.32,2.75.45,6.27.64,10.62.64,6.02,0,12.54-.19,18.24-.51-.13,0-.32,0-.45-.06-2.75-.7-7.1-2.69-9.98-4.48-.83-.51-1.28-1.28-1.28-2.05,0-.7.32-1.34.96-1.92.7-.7,1.54-.96,2.37-.96.77,0,1.54.19,2.24.64,2.43,1.34,6.02,2.75,9.09,3.58,1.15.32,1.86,1.09,1.86,2.11,0,.38-.13.77-.32,1.22-.45.96-1.28,1.54-2.3,1.86.9-.06,1.79-.13,2.62-.19h.51c1.92,0,2.88,1.09,3.01,3.26v.32c0,2.05-1.15,3.2-3.39,3.33-6.46.26-16.25.45-23.93.45-5.06,0-9.41-.38-12.54-1.09-4.35-.96-7.68-3.07-9.66-6.27-1.66,2.43-3.97,5.06-6.21,6.66-.45.32-.96.51-1.47.51-.9,0-1.86-.45-2.75-1.54-.64-.77-.96-1.6-.96-2.37,0-.96.45-1.86,1.22-2.43,2.05-1.47,4.99-4.1,6.91-6.72v-12.54c0-1.41-.26-1.73-1.6-1.73h-3.65c-1.6,0-2.62-1.15-2.62-3.14,0-2.11,1.02-3.26,2.62-3.26h6.46c4.1,0,5.63,1.86,5.63,6.14v14.91ZM1035.43,68.77c.45.64.64,1.34.64,1.98,0,1.02-.45,1.98-1.41,2.75-.83.7-1.86,1.09-2.75,1.09-.83,0-1.6-.32-2.11-1.09-2.18-3.2-4.48-6.21-6.97-8.77-.51-.58-.83-1.28-.83-1.98,0-.83.45-1.73,1.34-2.43.9-.77,1.79-1.09,2.69-1.09.77,0,1.47.26,2.05.83,2.75,2.43,5.5,5.82,7.36,8.7ZM1056.1,68.13c0,2.18-.83,3.26-2.3,3.78h.9c1.6.13,2.62.9,2.62,2.18v.19c-.13,1.41-.58,3.01-1.28,3.9-.7.9-1.92,1.54-3.71,1.79-1.54.19-3.52.26-5.95.26-2.3,0-4.8-.06-6.27-.51-2.05-.58-2.62-1.98-2.62-4.54v-3.97c0-2.62,1.34-3.9,4.22-3.9h7.3c1.02,0,1.28-.26,1.28-.96v-.9c0-.7-.26-.96-1.28-.96h-10.3c-1.22,0-1.98-1.09-1.98-2.75s.77-2.75,1.98-2.75h12.8c3.26,0,4.61,1.41,4.61,4.48v4.67ZM1062.44,84.58v-1.47c0-1.47,1.28-2.3,3.2-2.3,2.05,0,3.26.83,3.26,2.3v1.47h6.46c1.22,0,2.05,1.15,2.05,2.69s-.83,2.75-2.05,2.75h-6.46v4.35h8.9c1.28,0,2.11,1.15,2.11,2.69s-.83,2.75-2.11,2.75h-38.85c-1.28,0-2.05-1.22-2.05-2.75s.77-2.69,2.05-2.69h8v-4.35h-5.82c-1.34,0-2.05-1.22-2.05-2.75s.7-2.69,2.05-2.69h5.82v-1.47c0-1.47,1.28-2.3,3.2-2.3,2.05,0,3.33.83,3.33,2.3v1.47h8.96ZM1044.65,72.16c-1.09,0-1.28.19-1.28.96v.64c0,1.02.26,1.47,2.94,1.47,2.5,0,3.52-.06,4.22-.32.7-.26.96-.7,1.15-1.73.06-.51.38-.83.77-1.09-.26.06-.58.06-.9.06h-6.91ZM1062.44,94.37v-4.35h-8.96v4.35h8.96ZM1059.05,70.94c0-2.43,1.41-3.65,4.1-3.65h7.62c1.02,0,1.22-.32,1.22-1.02v-.83c0-.7-.19-.96-1.28-.96h-9.98c-1.22,0-2.05-1.09-2.05-2.75s.83-2.75,2.05-2.75h12.74c3.2,0,4.61,1.41,4.61,4.48v4.67c0,1.98-.77,3.14-2.11,3.65h1.02c1.54.13,2.69,1.02,2.69,2.3v.06c-.06,1.6-.64,3.2-1.22,3.9-.7.83-1.86,1.47-3.52,1.79-1.41.26-3.9.38-6.53.38s-5.25-.13-6.78-.51c-1.92-.51-2.56-1.86-2.56-4.54v-4.22ZM1065,73.76c0,1.02.32,1.47,3.14,1.47,2.5,0,3.97-.06,4.67-.32.77-.26,1.15-.83,1.22-1.73.06-.51.32-.9.7-1.09-.38.06-.83.06-1.34.06h-7.1c-1.02,0-1.28.19-1.28.96v.64Z"/><path class="cls-3" d="M1105.26,70.24c-3.65.96-7.55,1.54-11.71,1.54-1.92,0-3.14-1.15-3.26-3.39v-.32c0-1.92,1.15-3.39,3.2-3.46,5.95-.13,11.84-.7,17.34-1.6.45-.06.83-.06,1.22-.06,1.79,0,3.01.64,3.9,2.18.38.7.58,1.47.58,2.18,0,1.22-.64,2.43-1.79,3.26-9.6,6.53-14.91,15.36-14.91,24.25s5.5,13.25,12.35,13.25c9.66,0,15.29-6.53,15.29-20.42,0-7.62-1.22-14.46-3.14-19.97-.13-.45-.19-.9-.19-1.28,0-1.6,1.02-2.69,2.75-3.2.51-.13,1.02-.19,1.47-.19,1.6,0,2.82.83,3.39,2.3,3.46,8,9.02,15.62,14.65,20.67,1.02.9,1.47,1.98,1.47,3.07,0,1.02-.38,1.98-1.09,2.82-.64.83-1.66,1.28-2.69,1.28-.96,0-1.98-.45-2.75-1.34-3.65-3.65-6.33-7.81-8.77-13.31l-.32.13c1.34,4.35,2.11,8.83,2.11,12.35,0,15.29-8,24.7-22.14,24.7-11.2,0-19.9-6.91-19.9-20.8,0-8.96,4.8-17.73,13.06-24.38l-.13-.26ZM1136.81,59.81c.83,0,1.6.38,2.11,1.15,1.22,1.79,2.56,4.35,3.33,6.02.19.45.32.9.32,1.34,0,.9-.45,1.66-1.34,2.11-.38.19-.9.32-1.34.32-.9,0-1.86-.45-2.37-1.47-.83-1.79-1.98-4.16-3.07-5.76-.26-.45-.38-.83-.38-1.28,0-.9.51-1.66,1.41-2.11.45-.19.9-.32,1.34-.32ZM1144.29,57.31c.83,0,1.54.38,2.11,1.22,1.15,1.54,2.3,3.78,3.07,5.57.19.38.26.77.26,1.15,0,1.02-.58,1.86-1.41,2.24-.38.19-.77.26-1.22.26-.9,0-1.79-.45-2.37-1.54-.7-1.54-1.86-3.71-2.94-5.38-.19-.38-.32-.83-.32-1.15,0-.96.64-1.73,1.54-2.11.45-.19.83-.26,1.28-.26Z"/><path class="cls-3" d="M1158.31,74.14c-1.73,0-2.69-1.54-2.69-3.52s.96-3.46,2.69-3.46h22.53v-6.78c0-1.66,1.6-2.56,3.78-2.56s3.71.9,3.71,2.56v6.78h23.42c1.73,0,2.69,1.54,2.69,3.46,0,2.05-.96,3.52-2.69,3.52h-29.44c0,.58-.06,1.09-.06,1.66-.13,1.79-.19,3.65-.45,5.44h17.98c4.86,0,6.85,1.92,6.85,6.59,0,8.06-1.28,17.09-2.75,21.63-1.47,4.93-4.42,6.78-9.86,6.78-2.62,0-5.7-.26-7.87-.7-1.6-.32-2.62-1.54-2.62-3.26,0-.32.06-.64.13-.96.32-1.79,1.41-2.88,2.94-2.88.32,0,.64.06.96.13,1.47.26,3.84.58,5.7.58,2.37,0,3.26-.7,3.84-2.62,1.09-3.9,2.11-10.5,2.11-16.58,0-1.47-.64-1.92-2.11-1.92h-16.38c-2.82,13.44-9.15,21.76-19.2,27.97-.7.45-1.47.7-2.3.7-1.15,0-2.3-.58-3.07-1.66-.58-.83-.83-1.66-.83-2.5,0-1.15.58-2.18,1.6-2.82,11.52-6.85,17.47-17.02,17.79-35.58h-16.38Z"/><rect class="cls-2" width="635.15" height="396.53" rx="120" ry="120"/><g class="cls-4"><path class="cls-3" d="M293.89,176.89s-1.8-.29-2.1-.33c-.29-.03-.95-.23-.95-.76s.59-.72,1.21-.95l7.83-2.03c.08-.02.13.03.11.11l-2.03,7.83c-.23.62-.42,1.22-.95,1.22s-.72-.66-.76-.95c-.03-.29-.33-2.1-.33-2.1l-8.52,8.52c-.06.06-.16.06-.22,0l-1.82-1.82c-.06-.06-.06-.16,0-.22l8.52-8.53M358.3,211.96s1.8-.29,2.1-.33c.29-.03.95-.23.95-.76s-.59-.72-1.21-.95l-7.83-2.03c-.08-.02-.13.03-.11.11l2.03,7.83c.23.62.42,1.22.95,1.22s.72-.66.76-.95c.03-.29.33-2.1.33-2.1l8.52,8.52c.06.06.16.06.22,0l1.82-1.82c.06-.06.06-.16,0-.22l-8.52-8.53M338.55,126.66s1.8-.29,2.1-.33c.29-.03.95-.23.95-.76s-.59-.72-1.21-.95l-7.83-2.03c-.08-.02-.13.03-.11.11l2.03,7.83c.23.62.42,1.22.95,1.22s.72-.66.76-.95c.03-.29.33-2.1.33-2.1l8.52,8.52c.06.06.16.06.22,0l1.82-1.82c.06-.06.06-.16,0-.22l-8.52-8.53M311.31,215.27l3.05,4.88,3.05-4.88c.34-.77-.32-1.12-.78-.89-.94.48-1.07.57-1.07.57l-.11.07v-6.48h-2.18v6.47l-.11-.06s-.13-.09-1.07-.57c-.46-.24-1.12.12-.78.89M342.73,177.14l-4.14-7.22c-.07-.13-.2-.13-.27,0l-4.14,7.22c-.3.64-.54,1.1-.14,1.49s.98.14,1.26-.02c.27-.15,1.19-.69,1.49-.86v13.76h3.13v-13.82h.11s1.27.74,1.59.92c.28.16.85.41,1.26.02.4-.39.16-.86-.14-1.49M325.21,159.19l7.22-4.14c.13-.07.13-.2,0-.27l-7.22-4.14c-.64-.3-1.1-.54-1.49-.14-.39.4-.14.98.02,1.26.15.27.69,1.19.86,1.49h-13.76v3.13h13.82v.11s-.74,1.27-.92,1.59c-.16.28-.41.85-.02,1.26.39.4.86.16,1.49-.14M305.58,133.46l.12-2.06,4.05,1.03-5.27-6.03-5.93,5.38,4.14-.55-.12,2.06,3.01.17h0ZM304.56,168.15v-2.06l4.1.79-5.61-5.71-5.61,5.71,4.1-.79v2.06h3.02,0ZM366.65,155.23v-2.06l4.1.79-5.61-5.71-5.61,5.71,4.1-.79v2.06h3.02,0ZM314.29,228.95h2.06l-.79,4.1,5.71-5.61-5.71-5.61.79,4.1h-2.06v3.02h0ZM277.94,156h7.91s-.61,1.36-.77,1.64c-.13.24-.35.73-.02,1.08.34.35.74.14,1.29-.12l6.23-3.57c.11-.06.11-.17,0-.23l-6.23-3.57c-.55-.26-.95-.47-1.29-.12s-.12.84.02,1.08c.16.28.77,1.64.77,1.64h-7.91v2.17ZM348.98,145.41c2.81,2.95,7.06,4.25,10.91,2.49.28-.13.56-.27.84-.42l-1.34-2.28c-.18.1-.35.2-.54.29-2.68,1.11-5.42.45-7.55-1.45l2.56.08h.02v-.02h0v-.02h0v-.03h0v-.03h0v-.02h0v-.02h0s-5.5-2.23-5.5-2.23h-.02s0,.01,0,.01h0l-1.01,5.53h0v.03h0v.02h0v.02h.02v-.02l1.53-1.98M441.98,268.41c2.81,2.95,7.06,4.25,10.91,2.49.28-.13.56-.27.84-.42l-1.34-2.28c-.18.1-.35.2-.54.29-2.68,1.11-5.42.45-7.55-1.45l2.56.08h.02v-.02h0v-.02h0v-.03h0v-.03h0v-.02h0v-.02h0s-5.5-2.23-5.5-2.23h-.02s0,0,0,0h0l-1.01,5.53h0v.03h0v.02h0v.02h.02v-.02l1.53-1.98M307.77,151.32v-5.5h0s1.27.74,1.59.92c.28.16.85.41,1.26.02.4-.39.16-.86-.14-1.49l-4.13-7.22c-.07-.13-.2-.13-.27,0l-4.13,7.22c-.3.64-.54,1.1-.14,1.49s.98.14,1.26-.02c.32-.18,1.59-.92,1.59-.92h0v5.5c0,1.29-1.05,2.34-2.34,2.34h-7.04v3.13h7.04c3.01,0,5.46-2.45,5.46-5.46M340.23,225.79v-5.5h0s1.27.74,1.59.92c.28.16.85.41,1.26.02.4-.39.16-.86-.14-1.49l-4.13-7.22c-.07-.13-.2-.13-.27,0l-4.13,7.22c-.3.64-.54,1.1-.14,1.49s.98.14,1.26-.02c.32-.18,1.59-.92,1.59-.92h0v5.5c0,1.29-1.05,2.34-2.34,2.34h-7.04v3.13h7.04c3.01,0,5.46-2.45,5.46-5.46M330.21,201.78h-7.91s.61-1.36.77-1.64c.13-.24.35-.73.02-1.08-.34-.35-.74-.14-1.29.12l-6.23,3.57c-.11.06-.11.17,0,.23l6.23,3.57c.55.26.95.47,1.29.12s.12-.84-.02-1.08c-.16-.28-.77-1.64-.77-1.64h7.91v-2.17ZM457.76,243.13h-7.91s.61-1.36.77-1.64c.13-.24.35-.73.02-1.08-.34-.35-.74-.14-1.29.12l-6.23,3.57c-.11.06-.11.17,0,.23l6.23,3.57c.55.26.95.47,1.29.12s.12-.84-.02-1.08c-.16-.28-.77-1.64-.77-1.64h7.91v-2.17ZM343.62,207.89c.08,0,.15-.07.15-.15v-3.6l6.26,1.63c.23.06.3-.04.15-.23l-8.39-10.41c-.07-.09-.2-.09-.27,0l-8.39,10.41c-.15.19-.08.29.15.23l6.26-1.63v3.6c0,.08.06.15.14.15h3.95-.01ZM439.4,200.42l-8.52,8.53c-.06.06-.06.16,0,.22l1.82,1.82c.06.06.16.06.22,0l8.52-8.52s.3,1.81.33,2.1c.03.29.23.95.76.95s.72-.59.95-1.22l2.03-7.83c.02-.08-.03-.13-.11-.11l-7.83,2.03c-.62.23-1.21.43-1.21.95s.66.72.95.76c.3.03,2.1.33,2.1.33M429.19,151.46s1.8-.29,2.1-.33c.29-.03.95-.23.95-.76s-.59-.72-1.21-.95l-7.83-2.03c-.08-.02-.13.03-.11.11l2.03,7.83c.23.62.42,1.22.95,1.22s.72-.66.76-.95c.03-.29.33-2.1.33-2.1l8.52,8.52c.06.06.16.06.22,0l1.82-1.82c.06-.06.06-.16,0-.22l-8.52-8.53M445.43,166.7h0v-.02h0v-.02h0v-.03h0v-.02h0v-.02h0v-.02h-.02l-5.61-.4h-.02v.02h0v.02h0v.02h0v.02h0v.02l.78,5.88h0v.02h0v.02h0s.01,0,.01,0h.01v-.02h0v-.02l.68-2.53c1.36,2.59,1.24,5.44-.64,7.75-.15.17-.31.33-.47.49l-.02.02,1.9,1.82c.26-.25.5-.54.74-.82,2.68-3.19,2.58-7.8.36-11.18.73-.32,1.47-.64,2.2-.95M409.02,212.82h-2.06l.79-4.1-5.71,5.61,5.71,5.61-.79-4.1h2.06v-3.02h0ZM387.51,185.71v-7.92s1.36.61,1.64.77c.24.14.73.36,1.08.02.35-.34.14-.74-.12-1.29l-3.57-6.22c-.06-.11-.17-.11-.23,0l-3.57,6.22c-.26.55-.47.95-.12,1.29s.84.12,1.08-.02c.28-.15,1.64-.77,1.64-.77v7.92h2.17ZM386.3,212.83c0,3.01,2.45,5.46,5.46,5.46h7.04v-3.13h-7.04c-1.29,0-2.34-1.05-2.34-2.34v-5.5h0s1.27.74,1.59.92c.28.16.85.41,1.26.02.4-.39.16-.86-.14-1.49l-4.13-7.22c-.07-.13-.2-.13-.27,0l-4.13,7.22c-.3.64-.54,1.1-.14,1.49.41.39.98.14,1.26-.02.32-.18,1.59-.92,1.59-.92h0v5.5M445.29,190.76v-2.06l4.1.79-5.61-5.72-5.61,5.72,4.11-.79v2.06h3.01,0ZM388.4,166.05c.08,0,.15-.07.15-.15v-3.6l6.26,1.63c.23.06.3-.04.15-.23l-8.39-10.41c-.07-.09-.2-.09-.27,0l-8.39,10.41c-.15.19-.08.29.15.23l6.26-1.63v3.6c0,.08.06.15.14.15h3.95-.01ZM385.82,196.07v-2.06l4.1.79-5.61-5.71-5.61,5.71,4.1-.79v2.06h3.02,0ZM210.51,206.09l8.52-8.53c.06-.06.06-.16,0-.22l-1.82-1.82c-.06-.06-.16-.06-.22,0l-8.52,8.52s-.3-1.81-.33-2.1c-.03-.29-.23-.95-.76-.95s-.72.59-.95,1.22l-2.03,7.83c-.02.08.03.13.11.11l7.83-2.03c.62-.23,1.21-.43,1.21-.95s-.66-.72-.95-.76c-.3-.03-2.1-.33-2.1-.33M186.13,210.79c.32-.73.64-1.47.95-2.2,3.38,2.22,7.99,2.32,11.18-.36.28-.24.56-.47.82-.74l-1.82-1.9-.02.02c-.16.16-.32.33-.49.47-2.31,1.88-5.16,1.99-7.75.64l2.53-.68h.02v-.02h0v-.02h0v-.03h0v-.02h0v-.02h0v-.02h0v-.02h0l-5.88-.78h-.02v.03h0v.03h0v.02h0s.4,5.62.4,5.62h0v.02h0v.02h.03v-.02h0v-.02M235.65,138.83h0v.02h0v.02h.04v-.02h0v-.02l.4-5.61h0v-.03h0v-.02h0v-.03h0s0,0,0,0h-.02l-5.88.78h0v.02h0v.02h0v.04h0v.02h0v.02h0v.02h0s0,0,0,0h0l2.53.69c-2.59,1.36-5.44,1.24-7.75-.64-.17-.15-.33-.31-.49-.47l-.02-.02-1.82,1.9c.25.26.54.5.82.74,3.19,2.68,7.8,2.58,11.18.36.32.73.64,1.47.95,2.2M260.45,194.13l4.14,7.22c.07.13.2.13.27,0l4.14-7.22c.3-.64.54-1.1.14-1.49s-.98-.14-1.26.02c-.27.15-1.19.69-1.49.86v-13.76h-3.13v13.82h-.11s-1.27-.74-1.59-.92c-.28-.16-.85-.41-1.26-.02-.4.39-.16.86.14,1.49M261.54,161.35v7.92s-1.36-.61-1.64-.77c-.24-.14-.73-.36-1.08-.02s-.14.74.12,1.29l3.57,6.22c.06.11.17.11.23,0l3.57-6.22c.26-.55.47-.95.12-1.29s-.84-.12-1.08.02c-.28.15-1.64.77-1.64.77v-7.92h-2.17,0ZM239.06,139.58h7.91s-.61,1.36-.77,1.64c-.13.24-.35.73-.02,1.08.34.35.74.14,1.29-.12l6.23-3.57c.11-.06.11-.17,0-.23l-6.23-3.57c-.55-.26-.95-.47-1.29-.12s-.12.84.02,1.08c.16.28.77,1.64.77,1.64h-7.91v2.17ZM180.5,166.26v-7.91s1.36.61,1.64.77c.24.13.73.35,1.08.02.35-.34.14-.74-.12-1.29l-3.57-6.23c-.06-.11-.17-.11-.23,0l-3.57,6.23c-.26.55-.47.95-.12,1.29s.84.12,1.08-.02c.28-.16,1.64-.77,1.64-.77v7.91h2.17ZM189,193.44l-5.31-4.34c-.07-.06-.15-.09-.24-.1-.12,0-.24.02-.33.1l-5.32,4.34c-.06.05-.1.1-.14.16-.09.15-.13.34-.09.51.04.17.15.33.3.42.15.1.33.13.51.09l3.23-.73v5.98c0,.06.03.12.07.16s.1.07.16.07h3.14c.06,0,.12-.02.16-.07.04-.04.07-.1.07-.16v-5.98l3.23.73c.07.02.14.02.22,0,.17-.02.34-.11.45-.24.11-.14.17-.32.15-.49s-.11-.34-.24-.45M214.18,166.8l5.31,4.34c.07.06.15.09.24.1.12,0,.24-.02.33-.1l5.32-4.34c.06-.05.1-.1.14-.16.09-.15.13-.34.09-.51-.04-.17-.15-.33-.3-.42-.15-.1-.33-.13-.51-.09l-3.23.73v-5.98c0-.06-.03-.12-.07-.16s-.1-.07-.16-.07h-3.14c-.06,0-.12.02-.16.07-.04.04-.07.1-.07.16v5.98l-3.23-.73c-.07-.02-.14-.02-.22,0-.17.02-.34.11-.45.24-.11.14-.17.32-.15.49s.11.34.24.45M262.84,151.97c.1-4.07-1.99-8-5.96-9.48-.29-.11-.59-.21-.88-.3l-.66,2.56c.19.05.39.11.58.17,2.68,1.11,4.15,3.51,4.31,6.36l-1.75-1.86h-.02s0,0,0,0h0v.02h0v.02h0v.02h0v.02h0v.02h0v.02l2.32,5.46h0v.02h0s.01,0,.01,0h.01l4.63-3.19h0v-.02h0v-.02h0v-.02h0v-.02h0v-.03h0v-.02h0v-.02h0v-.02h0s-.02,0-.02,0l-2.48.31M196.58,140.17h2.06l-.79,4.1,5.71-5.61-5.71-5.61.79,4.1h-2.06v3.02h0ZM259.24,216.1c3.01,0,5.46-2.45,5.46-5.46v-7.04h-3.13v7.04c0,1.29-1.05,2.34-2.34,2.34h-5.5s.74-1.27.92-1.59c.16-.28.41-.85.02-1.26-.39-.4-.86-.16-1.49.14l-7.22,4.13c-.13.07-.13.2,0,.27l7.22,4.13c.64.3,1.1.54,1.49.14.39-.41.14-.98-.02-1.26-.18-.32-.92-1.59-.92-1.59h5.5M220.93,141.17c0-3.01-2.45-5.46-5.46-5.46h-7.04v3.13h7.04c1.29,0,2.34,1.05,2.34,2.34v5.5h0s-1.27-.74-1.59-.92c-.28-.16-.85-.41-1.26-.02-.4.39-.16.86.14,1.49l4.13,7.22c.07.13.2.13.27,0l4.13-7.22c.3-.64.54-1.1.14-1.49-.41-.39-.98-.14-1.26.02-.32.18-1.59.92-1.59.92h0v-5.5M180.17,184.64c.08,0,.15-.07.15-.15v-3.6l6.26,1.63c.23.06.3-.04.15-.23l-8.39-10.41c-.07-.09-.2-.09-.27,0l-8.39,10.41c-.15.19-.08.29.15.23l6.26-1.63v3.6c0,.08.06.15.14.15h3.95,0ZM189.16,141.01c-4.07-.1-8,1.99-9.48,5.96-.11.29-.21.59-.3.88l2.56.66c.05-.19.11-.39.17-.58,1.11-2.68,3.51-4.15,6.36-4.31l-1.86,1.75h0v.02h0v.02h0v.02h0v.02h0v.02h0v.02h0v.02h0v.02h0l5.46-2.32h.02v-.02h0v-.02h0v-.02h0v-.04h0l-3.19-4.63h0v-.02h-.02v.02h0v.02h0v.02h0v.02h0v.03l.31,2.48M219.5,176.79v7.92s-1.36-.61-1.64-.77c-.24-.14-.73-.36-1.08-.02s-.14.74.12,1.29l3.57,6.22c.06.11.17.11.23,0l3.57-6.22c.26-.55.47-.95.12-1.29s-.84-.12-1.08.02c-.28.15-1.64.77-1.64.77v-7.92h-2.17ZM294.39,35.48c.32-.73.64-1.47.95-2.2,3.38,2.22,7.99,2.32,11.18-.36.28-.24.56-.47.82-.74l-1.82-1.9-.02.02c-.16.16-.32.33-.49.47-2.31,1.88-5.16,1.99-7.75.64l2.53-.68h.02v-.02h0v-.02h0v-.03h0v-.02h0v-.02h0v-.02h0v-.02h0l-5.88-.78h-.02v.03h0v.03h0v.02h0s.4,5.62.4,5.62h0v.02h0v.02h.03v-.02h0v-.02M455.72,103.3h0v.02h0v.02h.04v-.02h0v-.02l.4-5.61h0v-.03h0v-.02h0v-.03h0s-.01-.01-.01-.01h-.01l-5.88.78h0v.02h0v.02h0v.04h0v.02h0v.02h0v.02h0s.01.01.01.01h.01l2.53.69c-2.59,1.36-5.44,1.24-7.75-.64-.17-.15-.33-.31-.49-.47l-.02-.02-1.82,1.9c.25.26.54.5.82.74,3.19,2.68,7.8,2.58,11.18.36.32.73.64,1.47.95,2.2M417.53,84.75h0v.02h0v.02h.03v-.03h0l.4-5.62h0v-.03h0v-.02h0v-.03h0s-.01-.01-.01-.01h-.02l-5.88.78h0v.02h0v.02h0v.04h0v.02h0v.02h0v.02h0s.01.01.01.01h.01l2.53.69c-2.59,1.36-5.44,1.24-7.75-.64-.17-.15-.33-.31-.49-.47l-.02-.02-1.82,1.9c.25.26.54.5.82.74,3.19,2.68,7.8,2.58,11.18.36.32.73.64,1.47.95,2.2M401.95,68.16l-4.14-7.22c-.07-.13-.2-.13-.27,0l-4.14,7.22c-.3.64-.54,1.1-.14,1.49s.98.14,1.26-.02c.27-.15,1.19-.69,1.49-.86v13.76h3.13v-13.82h.11s1.27.74,1.59.92c.28.16.85.41,1.26.02.4-.39.16-.86-.14-1.49M325.46,89.54l-4.14-7.22c-.07-.13-.2-.13-.27,0l-4.14,7.22c-.3.64-.54,1.1-.14,1.49s.98.14,1.26-.02c.27-.15,1.19-.69,1.49-.86v13.76h3.13v-13.82h.11s1.27.74,1.59.92c.28.16.85.41,1.26.02.4-.39.16-.86-.14-1.49M408.93,13.54h-7.91s.61-1.36.77-1.64c.13-.24.35-.73.02-1.08-.34-.35-.74-.14-1.29.12l-6.23,3.57c-.11.06-.11.17,0,.23l6.23,3.57c.55.26.95.47,1.29.12.34-.35.12-.84-.02-1.08-.16-.28-.77-1.64-.77-1.64h7.91v-2.17ZM398.57,94.45v-2.06l4.1.79-5.61-5.71-5.61,5.71,4.1-.79v2.06h3.02,0ZM344.13,51.04v2.06l-4.1-.79,5.61,5.71,5.61-5.71-4.1.79v-2.06h-3.02,0ZM422.12,94.19v-2.06l4.1.79-5.61-5.71-5.61,5.71,4.1-.79v2.06h3.02,0ZM433.46,103.12h2.06l-.79,4.1,5.71-5.61-5.71-5.61.79,4.1h-2.06v3.02ZM346.71,77.98v2.06l-4.1-.79,5.61,5.71,5.61-5.71-4.1.79v-2.06h-3.02,0ZM318.12,56.43v-2.06l4.1.79-5.61-5.71-5.61,5.71,4.1-.79v2.06h3.02,0ZM369.1,81.62v2.06l-4.1-.79,5.61,5.71,5.61-5.71-4.1.79v-2.06h-3.02,0ZM429.08,52.73v-2.06l4.1.79-5.61-5.71-5.61,5.71,4.1-.79v2.06h3.02,0ZM424.72,82.54h2.06l-.79,4.1,5.71-5.61-5.71-5.61.79,4.1h-2.06v3.02ZM369.52,60.85v7.92s-1.36-.61-1.64-.77c-.24-.14-.73-.36-1.08-.02-.35.34-.14.74.12,1.29l3.57,6.22c.06.11.17.11.23,0l3.57-6.22c.26-.55.47-.95.12-1.29-.35-.34-.84-.12-1.08.02-.28.15-1.64.77-1.64.77v-7.92h-2.17ZM370.31,91.42v7.92s-1.36-.61-1.64-.77c-.24-.14-.73-.36-1.08-.02-.35.34-.14.74.12,1.29l3.57,6.22c.06.11.17.11.23,0l3.57-6.22c.26-.55.47-.95.12-1.29-.35-.34-.84-.12-1.08.02-.28.15-1.64.77-1.64.77v-7.92h-2.17ZM348.86,41.08h7.91s-.61,1.36-.77,1.64c-.13.24-.35.73-.02,1.08.34.35.74.14,1.29-.12l6.23-3.57c.11-.06.11-.17,0-.23l-6.23-3.57c-.55-.26-.95-.47-1.29-.12-.34.35-.12.84.02,1.08.16.28.77,1.64.77,1.64h-7.91s0,2.17,0,2.17ZM416.38,122.57c-.32.68-.63,1.32-.21,1.73.42.42,1.11.05,1.37-.16.26-.21,1.95-1.42,1.95-1.42v13.65c0,.1.08.18.18.18h2.91c.1,0,.18-.08.18-.18v-13.65s1.68,1.21,1.95,1.42c.26.21.95.58,1.37.16.42-.42.1-1.05-.21-1.73l-4.64-7.89c-.05-.09-.13-.09-.18,0l-4.64,7.89h-.03ZM402.57,32.35l8.78-8.78c.06-.06.06-.16,0-.23l-1.87-1.87c-.06-.06-.16-.06-.22,0l-8.78,8.78s-.3-1.86-.34-2.16c-.03-.3-.24-.98-.78-.98s-.75.61-.98,1.25l-2.09,8.06c-.02.08.03.14.11.11l8.07-2.09c.64-.24,1.25-.44,1.25-.98s-.68-.75-.98-.78c-.31-.04-2.16-.34-2.16-.34M392.36,100.87l-.31,2.48h0v.02h0v.02h0v.03h0v.02h0s.01.01.01.01h0s.01.01.01.01h.03s3.19-4.64,3.19-4.64h0v-.03h0v-.02h0v-.02h0v-.02h0s-.01-.01-.01-.01h-.01l-5.46-2.32h-.02v.02h0v.02h0v.02h0v.03h0v.02h0v.02h0v.02h0v.02l1.86,1.75c-2.85-.16-5.25-1.63-6.36-4.31-.07-.19-.12-.39-.17-.58l-2.56.66c.09.3.19.59.3.88,1.48,3.97,5.41,6.06,9.48,5.96M387.59,46.61c4.07.1,8-1.99,9.48-5.96.11-.29.21-.59.3-.88l-2.56-.66c-.05.19-.11.39-.17.58-1.11,2.68-3.51,4.15-6.36,4.31l1.86-1.75h0v-.02h0v-.02h0v-.02h0v-.02h0v-.02h0v-.02h0v-.02h0v-.03h-.04l-5.46,2.32h-.02v.02h0v.02h0v.02h0v.02h0v.02h0l3.19,4.63h0v.02h.04s.01,0,.01,0h0v-.02h0v-.02h0v-.02h0v-.02h0v-.02l-.31-2.48M321,110.45l2.48.31h0v-.03h0v-.02h0v-.03h0v-.02h0v-.02h0v-.02h0v-.02h0v-.02l-4.63-3.19h-.02v.03l-2.32,5.46h0v.02h0v.02h0v.02h0v.02h0v.02h0s.01.01.01.01h0s.01.01.01.01h.02s1.75-1.87,1.75-1.87c-.16,2.85-1.63,5.25-4.31,6.36-.19.07-.39.12-.58.17l.66,2.56c.3-.09.59-.19.88-.3,3.97-1.48,6.06-5.41,5.96-9.48M424.45,12.03h-5.5s.74-1.27.92-1.59c.16-.28.41-.85.02-1.26-.39-.4-.86-.16-1.49.14l-7.22,4.13c-.13.07-.13.2,0,.27l7.22,4.13c.64.3,1.1.54,1.49.14.39-.4.14-.98-.02-1.26-.18-.32-.92-1.59-.92-1.59h5.5c1.29,0,2.34,1.05,2.34,2.34v7.04h3.13v-7.04c0-3.01-2.45-5.46-5.46-5.46M341.98,9.93h-5.5s.74-1.27.92-1.59c.16-.28.41-.85.02-1.26-.39-.4-.86-.16-1.49.14l-7.22,4.13c-.13.07-.13.2,0,.27l7.22,4.13c.64.3,1.1.54,1.49.14.39-.4.14-.98-.02-1.26-.18-.32-.92-1.59-.92-1.59h5.5c1.29,0,2.34,1.05,2.34,2.34v7.04h3.13v-7.04c0-3.01-2.45-5.46-5.46-5.46M427.35,42.22v-7.91s1.36.61,1.64.77c.24.13.73.35,1.08.02.35-.34.14-.74-.12-1.29l-3.57-6.23c-.06-.11-.17-.11-.23,0l-3.57,6.23c-.26.55-.47.95-.12,1.29s.84.12,1.08-.02c.28-.16,1.64-.77,1.64-.77v7.91h2.17ZM415.78,65.04c-.26.56-.52,1.09-.17,1.43.35.35.91.04,1.13-.13s1.61-1.17,1.61-1.17v11.26c0,.08.07.15.15.15h2.4c.08,0,.15-.07.15-.15v-11.26s1.39,1,1.6,1.17c.22.17.78.48,1.13.13.35-.34.09-.87-.17-1.43l-3.83-6.51c-.04-.07-.11-.07-.15,0l-3.83,6.51h-.02ZM447.17,75.07c-.56-.26-1.09-.52-1.43-.17-.35.35-.04.91.13,1.13.17.22,1.17,1.61,1.17,1.61h-11.26c-.08,0-.15.07-.15.15v2.4c0,.08.07.15.15.15h11.26s-1,1.39-1.17,1.6c-.17.22-.48.78-.13,1.13.34.35.87.09,1.43-.17l6.51-3.83c.07-.04.07-.11,0-.15l-6.51-3.83v-.02ZM316.05,65.49c-.26.56-.52,1.09-.17,1.43.35.35.91.04,1.13-.13s1.61-1.17,1.61-1.17v11.26c0,.08.07.15.15.15h2.4c.08,0,.15-.07.15-.15v-11.26s1.39,1,1.6,1.17c.22.17.78.48,1.13.13.35-.34.09-.87-.17-1.43l-3.83-6.51c-.04-.07-.11-.07-.15,0l-3.83,6.51h-.02ZM315.2,24.28l9.79-9.79c.07-.07.07-.18,0-.25l-2.09-2.09c-.07-.07-.18-.07-.25,0l-9.79,9.79s-.34-2.07-.38-2.41-.26-1.09-.87-1.09-.83.68-1.09,1.4l-2.33,8.99c-.02.09.03.15.13.13l9-2.33c.71-.26,1.39-.49,1.39-1.09s-.75-.83-1.09-.87-2.41-.38-2.41-.38M343.8,66.36c-.15,1.39-1.08,2.66-2.22,2.95l-2.24.57s.54-1.38.64-1.6.23-.76-.13-.98c-.37-.22-.75.12-1.17.45l-4.61,4.59c-.07.07-.05.15.05.17l6.25,1.8c.53.1,1.02.2,1.24-.16s-.16-.77-.35-.92c-.19-.14-1.33-1.09-1.33-1.09l2.13-.55c.81-.21,2.02-.72,2.89-1.76.87,1.03,2.08,1.55,2.89,1.76l2.13.55s-1.14.95-1.33,1.09c-.19.15-.57.56-.35.92.22.37.71.26,1.24.16l6.25-1.8c.09-.03.11-.1.04-.17l-4.61-4.59c-.42-.34-.8-.67-1.16-.45-.37.21-.24.76-.13.97.1.22.64,1.6.64,1.6l-2.24-.57c-1.14-.29-2.07-1.56-2.22-2.94v-5.55c0-.1-.08-.18-.18-.18h-1.92c-.1,0-.18.08-.18.18v5.55h-.02ZM336.88,37.15c1.39.15,2.66,1.08,2.95,2.22l.57,2.24s-1.38-.54-1.6-.64-.76-.23-.98.13c-.22.37.12.75.45,1.17l4.59,4.61c.07.07.15.05.17-.05l1.8-6.25c.1-.53.2-1.02-.16-1.24s-.77.16-.92.35c-.14.19-1.09,1.33-1.09,1.33l-.55-2.13c-.21-.81-.72-2.02-1.76-2.89,1.03-.87,1.55-2.08,1.76-2.89l.55-2.13s.95,1.14,1.09,1.33c.15.19.56.57.92.35.37-.22.26-.71.16-1.24l-1.8-6.25c-.03-.09-.1-.11-.17-.04l-4.59,4.61c-.34.42-.67.8-.45,1.16.21.37.76.24.97.13.22-.1,1.6-.64,1.6-.64l-.57,2.24c-.29,1.14-1.56,2.07-2.94,2.22h-5.55c-.1,0-.18.08-.18.18v1.92c0,.1.08.18.18.18h5.55v.02ZM420.82,105.58c.15-1.39,1.08-2.66,2.22-2.95l2.24-.57s-.54,1.38-.64,1.6-.23.76.13.98c.37.22.75-.12,1.17-.45l4.61-4.59c.07-.07.05-.15-.05-.17l-6.25-1.8c-.53-.1-1.02-.2-1.24.16s.16.77.35.92c.19.14,1.33,1.09,1.33,1.09l-2.13.55c-.81.21-2.02.72-2.89,1.76-.87-1.03-2.08-1.55-2.89-1.76l-2.13-.55s1.14-.95,1.33-1.09c.19-.15.57-.56.35-.92-.22-.37-.71-.26-1.24-.16l-6.25,1.8c-.09.03-.11.1-.04.17l4.61,4.59c.42.34.8.67,1.16.45.37-.21.24-.76.13-.97-.1-.22-.64-1.6-.64-1.6l2.24.57c1.14.29,2.07,1.56,2.22,2.94v5.55c0,.1.08.18.18.18h1.92c.1,0,.18-.08.18-.18v-5.55h.02ZM345.16,94.27c-.15,1.39-1.08,2.66-2.22,2.95l-2.24.57s.54-1.38.64-1.6.23-.76-.13-.98c-.37-.22-.75.12-1.17.45l-4.61,4.59c-.07.07-.05.15.05.17l6.25,1.8c.53.1,1.02.2,1.24-.16s-.16-.77-.35-.92c-.19-.14-1.33-1.09-1.33-1.09l2.13-.55c.81-.21,2.02-.72,2.89-1.76.87,1.03,2.08,1.55,2.89,1.76l2.13.55s-1.14.95-1.33,1.09c-.19.15-.57.56-.35.92.22.37.71.26,1.24.16l6.25-1.8c.09-.03.11-.1.04-.17l-4.61-4.59c-.42-.34-.8-.67-1.16-.45-.37.21-.24.76-.13.97.1.22.64,1.6.64,1.6l-2.24-.57c-1.14-.29-2.07-1.56-2.22-2.94v-5.55c0-.1-.08-.18-.18-.18h-1.92c-.1,0-.18.08-.18.18v5.55h-.02ZM368.63,108.96c-.08,0-.15.07-.15.15v3.6l-6.26-1.63c-.23-.06-.3.04-.15.23l8.39,10.41c.07.09.2.09.27,0l8.39-10.41c.15-.19.08-.29-.15-.23l-6.26,1.63v-3.6c0-.08-.06-.15-.14-.15h-3.95.01ZM373.04,52.74c.1-4.07-1.99-8-5.96-9.48-.29-.11-.59-.21-.88-.3l-.66,2.56c.19.05.39.11.58.17,2.68,1.11,4.15,3.51,4.31,6.36l-1.75-1.86h-.02s-.01,0-.01,0h-.01v.02h0v.02h0v.02h0v.02h0v.02h0v.02l2.32,5.46h0v.02h0s.01,0,.01,0h.01l4.63-3.19h0v-.02h0v-.02h0v-.02h0v-.02h0v-.03h0v-.02h0v-.02h0v-.02h0s-.02,0-.02,0l-2.48.31M326.12,39.51c-4.07-.1-8,1.99-9.48,5.96-.11.29-.21.59-.3.88l2.56.66c.05-.19.11-.39.17-.58,1.11-2.68,3.51-4.15,6.36-4.31l-1.86,1.75h0v.02h0v.02h0v.02h0v.02h0v.02h0v.02h0v.02h0v.02h0l5.46-2.32h.02v-.02h0v-.02h0v-.02h0v-.04h0l-3.19-4.63h0v-.02h-.02v.02h0v.02h0v.02h0v.02h0v.03l.31,2.48M284.15,99.35l-7.22,4.14c-.13.07-.13.2,0,.27l7.22,4.14c.64.3,1.1.54,1.49.14.39-.4.14-.98-.02-1.26-.15-.27-.69-1.19-.86-1.49h13.76v-3.13h-13.82v-.11s.74-1.27.92-1.59c.16-.28.41-.85.02-1.26-.39-.4-.86-.16-1.49.14M161.29,100.15l-7.22,4.14c-.13.07-.13.2,0,.27l7.22,4.14c.64.3,1.1.54,1.49.14s.14-.98-.02-1.26c-.15-.27-.69-1.19-.86-1.49h13.76v-3.13h-13.82v-.11s.74-1.27.92-1.59c.16-.28.41-.85.02-1.26-.39-.4-.86-.16-1.49.14M273.22,106.52h-7.91s.61-1.36.77-1.64c.13-.24.35-.73.02-1.08-.34-.35-.74-.14-1.29.12l-6.23,3.57c-.11.06-.11.17,0,.23l6.23,3.57c.55.26.95.47,1.29.12s.12-.84-.02-1.08c-.16-.28-.77-1.64-.77-1.64h7.91v-2.17ZM208.97,106.52h-7.91s.61-1.36.77-1.64c.13-.24.35-.73.02-1.08-.34-.35-.74-.14-1.29.12l-6.23,3.57c-.11.06-.11.17,0,.23l6.23,3.57c.55.26.95.47,1.29.12s.12-.84-.02-1.08c-.16-.28-.77-1.64-.77-1.64h7.91v-2.17ZM214.04,85.72v-7.92s1.36.61,1.64.77c.24.14.73.36,1.08.02.35-.34.14-.74-.12-1.29l-3.57-6.22c-.06-.11-.17-.11-.23,0l-3.57,6.22c-.26.55-.47.95-.12,1.29.35.34.84.12,1.08-.02.28-.15,1.64-.77,1.64-.77v7.92h2.17ZM246.44,87.2v-7.92s1.36.61,1.64.77c.24.14.73.36,1.08.02.35-.34.14-.74-.12-1.29l-3.57-6.22c-.06-.11-.17-.11-.23,0l-3.57,6.22c-.26.55-.47.95-.12,1.29.35.34.84.12,1.08-.02.28-.15,1.64-.77,1.64-.77v7.92h2.17ZM258.5,14.04h7.91s-.61,1.36-.77,1.64c-.13.24-.35.73-.02,1.08.34.35.74.14,1.29-.12l6.23-3.57c.11-.06.11-.17,0-.23l-6.23-3.57c-.55-.26-.95-.47-1.29-.12s-.12.84.02,1.08c.16.28.77,1.64.77,1.64h-7.91v2.17h0ZM293.52,10.74V2.83s1.36.61,1.64.77c.24.13.73.35,1.08.02.35-.34.14-.74-.12-1.29l-3.57-6.23c-.06-.11-.17-.11-.23,0l-3.57,6.23c-.26.55-.47.95-.12,1.29s.84.12,1.08-.02c.28-.16,1.64-.77,1.64-.77v7.91h2.17ZM218.23,17.69c.68.32,1.32.63,1.73.21.42-.42.05-1.11-.16-1.37s-1.42-1.95-1.42-1.95h13.65c.1,0,.18-.08.18-.18v-2.91c0-.1-.08-.18-.18-.18h-13.65s1.21-1.68,1.42-1.95c.21-.26.58-.95.16-1.37s-1.05-.1-1.73.21l-7.89,4.64c-.09.05-.09.13,0,.18l7.89,4.64v.03ZM204.23,54.09c-.32.68-.63,1.32-.21,1.73.42.42,1.11.05,1.37-.16s1.95-1.42,1.95-1.42v13.65c0,.1.08.18.18.18h2.91c.1,0,.18-.08.18-.18v-13.65s1.68,1.21,1.95,1.42c.26.21.95.58,1.37.16.42-.42.1-1.05-.21-1.73l-4.64-7.89c-.05-.09-.13-.09-.18,0l-4.64,7.89h-.03ZM247.12,57.59c-3.01,0-5.46,2.45-5.46,5.46v7.04h3.13v-7.04c0-1.29,1.05-2.34,2.34-2.34h5.5s-.74,1.27-.92,1.59c-.16.28-.41.85-.02,1.26.39.4.86.16,1.49-.14l7.22-4.13c.13-.07.13-.2,0-.27l-7.22-4.13c-.64-.3-1.1-.54-1.49-.14-.39.41-.14.98.02,1.26.18.32.92,1.59.92,1.59h-5.5M175.86,12.67c0,3.01,2.45,5.46,5.46,5.46h7.04v-3.13h-7.04c-1.29,0-2.34-1.05-2.34-2.34v-5.5h0s1.27.74,1.59.92c.28.16.85.41,1.26.02.4-.39.16-.86-.14-1.49l-4.13-7.22c-.07-.13-.2-.13-.27,0l-4.13,7.22c-.3.64-.54,1.1-.14,1.49.41.39.98.14,1.26-.02.32-.18,1.59-.92,1.59-.92h0v5.5M379.28,12.19c0,3.01,2.45,5.46,5.46,5.46h7.04v-3.13h-7.04c-1.29,0-2.34-1.05-2.34-2.34v-5.5h0s1.27.74,1.59.92c.28.16.85.41,1.26.02.4-.39.16-.86-.14-1.49l-4.13-7.22c-.07-.13-.2-.13-.27,0l-4.13,7.22c-.3.64-.54,1.1-.14,1.49.41.39.98.14,1.26-.02.32-.18,1.59-.92,1.59-.92h0v5.5M241.86,102.95c0,3.01,2.45,5.46,5.46,5.46h7.04v-3.13h-7.04c-1.29,0-2.34-1.05-2.34-2.34v-5.5h0s1.27.74,1.59.92c.28.16.85.41,1.26.02.4-.39.16-.86-.14-1.49l-4.13-7.22c-.07-.13-.2-.13-.27,0l-4.13,7.22c-.3.64-.54,1.1-.14,1.49.41.39.98.14,1.26-.02.32-.18,1.59-.92,1.59-.92h0v5.5M212.65,102.95c0,3.01,2.45,5.46,5.46,5.46h7.04v-3.13h-7.04c-1.29,0-2.34-1.05-2.34-2.34v-5.5h0s1.27.74,1.59.92c.28.16.85.41,1.26.02.4-.39.16-.86-.14-1.49l-4.13-7.22c-.07-.13-.2-.13-.27,0l-4.13,7.22c-.3.64-.54,1.1-.14,1.49.41.39.98.14,1.26-.02.32-.18,1.59-.92,1.59-.92h0v5.5M263.48,62.29h7.91s-.61,1.36-.77,1.64c-.13.24-.35.73-.02,1.08.34.35.74.14,1.29-.12l6.23-3.57c.11-.06.11-.17,0-.23l-6.23-3.57c-.55-.26-.95-.47-1.29-.12-.34.35-.12.84.02,1.08.16.28.77,1.64.77,1.64h-7.91v2.17ZM196.34,16.86c.56.26,1.09.52,1.43.17.35-.35.04-.91-.13-1.13s-1.17-1.61-1.17-1.61h11.26c.08,0,.15-.07.15-.15v-2.4c0-.08-.07-.15-.15-.15h-11.26s1-1.39,1.17-1.6c.17-.22.48-.78.13-1.13-.34-.35-.87-.09-1.43.17l-6.51,3.83c-.07.04-.07.11,0,.15l6.51,3.83v.02ZM246.5,17.41c.15-1.39,1.08-2.66,2.22-2.95l2.24-.57s-.54,1.38-.64,1.6-.23.76.13.98c.37.22.75-.12,1.17-.45l4.61-4.59c.07-.07.05-.15-.05-.17l-6.25-1.8c-.53-.1-1.02-.2-1.24.16s.16.77.35.92c.19.14,1.33,1.09,1.33,1.09l-2.13.55c-.81.21-2.02.72-2.89,1.76-.87-1.03-2.08-1.55-2.89-1.76l-2.13-.55s1.14-.95,1.33-1.09c.19-.15.57-.56.35-.92-.22-.37-.71-.26-1.24-.16l-6.25,1.8c-.09.03-.11.1-.04.17l4.61,4.59c.42.34.8.67,1.16.45.37-.21.24-.76.13-.97-.1-.22-.64-1.6-.64-1.6l2.24.57c1.14.29,2.07,1.56,2.22,2.94v5.55c0,.1.08.18.18.18h1.92c.1,0,.18-.08.18-.18v-5.55h.02ZM190.61,104.32c0-.08-.07-.15-.15-.15h-3.6l1.63-6.26c.06-.23-.04-.3-.23-.15l-10.41,8.39c-.09.07-.09.2,0,.27l10.41,8.39c.19.15.29.08.23-.15l-1.63-6.26h3.6c.08,0,.15-.06.15-.14v-3.95h0ZM246.73,39.66c.08,0,.15-.07.15-.15v-3.6l6.26,1.63c.23.06.3-.04.15-.23l-8.39-10.41c-.07-.09-.2-.09-.27,0l-8.39,10.41c-.15.19-.08.29.15.23l6.26-1.63v3.6c0,.08.06.15.14.15h3.95,0ZM246.01,52.09v-2.06l4.1.79-5.61-5.71-5.61,5.71,4.1-.79v2.06h3.02,0ZM236.24,102.91h-2.06l.79-4.1-5.71,5.61,5.71,5.61-.79-4.1h2.06v-3.02ZM293.11,61.78h0v.02h0v.02h.04v-.02h0v-.02l.4-5.61h0v-.03h0v-.02h0v-.03h0s-.01,0-.01,0h-.02l-5.88.78h0v.02h0v.02h0v.04h0v.02h0v.02h0v.02h0s.01,0,.01,0h.01l2.53.69c-2.59,1.36-5.44,1.24-7.75-.64-.17-.15-.33-.31-.49-.47l-.02-.02-1.82,1.9c.25.26.54.5.82.74,3.19,2.68,7.8,2.58,11.18.36.32.73.64,1.47.95,2.2M289.12,18.73h0v.02h0v.02h.04v-.02h0v-.02l.4-5.61h0v-.03h0v-.02h0v-.03h0s-.01-.01-.01-.01h-.02l-5.88.78h0v.02h0v.02h0v.04h0v.02h0v.02h0v.02h0s.01.01.01.01h.01l2.53.69c-2.59,1.36-5.44,1.24-7.75-.64-.17-.15-.33-.31-.49-.47l-.02-.02-1.82,1.9c.25.26.54.5.82.74,3.19,2.68,7.8,2.58,11.18.36.32.73.64,1.47.95,2.2M392.7,239.35h0v-.02h0v-.02h-.02v.02h0v.02l-.4,5.61h0v.02h0v.02h0v.02h0s.01,0,.01,0h.01l5.88-.78h0v-.02h0v-.02h0v-.04h0v-.02h0v-.02h0v-.02h0s-.01,0-.01,0h-.01l-2.53-.68c2.59-1.36,5.44-1.24,7.75.64.17.15.33.31.49.47l.02.02,1.82-1.9c-.25-.26-.54-.5-.82-.74-3.19-2.68-7.8-2.58-11.18-.36-.32-.73-.64-1.47-.95-2.2M333.03,290.85c0,3.01,2.45,5.46,5.46,5.46h7.04v-3.13h-7.04c-1.29,0-2.34-1.05-2.34-2.34v-5.5h0s1.27.74,1.59.92c.28.16.85.41,1.26.02.4-.39.16-.86-.14-1.49l-4.13-7.22c-.07-.13-.2-.13-.27,0l-4.13,7.22c-.3.64-.54,1.1-.14,1.49.41.39.98.14,1.26-.02.32-.18,1.59-.92,1.59-.92h0v5.5M358.15,292.31h-2.06l.79-4.1-5.71,5.61,5.71,5.61-.79-4.1h2.06v-3.02h0ZM437.37,263.11h-7.92s.61-1.36.77-1.64c.14-.24.36-.73.02-1.08-.34-.35-.74-.14-1.29.12l-6.22,3.57c-.11.06-.11.17,0,.23l6.22,3.57c.55.26.95.47,1.29.12s.12-.84-.02-1.08c-.15-.28-.77-1.64-.77-1.64h7.92v-2.17ZM313.53,256.13l8.52-8.53c.06-.06.06-.16,0-.22l-1.82-1.82c-.06-.06-.16-.06-.22,0l-8.52,8.52s-.3-1.81-.33-2.1c-.03-.29-.23-.95-.76-.95s-.72.59-.95,1.22l-2.03,7.83c-.02.08.03.13.11.11l7.83-2.03c.62-.23,1.21-.43,1.21-.95s-.66-.72-.95-.76c-.3-.03-2.1-.33-2.1-.33M429.61,234.38l8.53,8.52c.06.06.16.06.22,0l1.82-1.82c.06-.06.06-.16,0-.22l-8.52-8.52s1.81-.3,2.1-.33.95-.23.95-.76-.59-.72-1.22-.95l-7.83-2.03c-.08-.02-.13.03-.11.11l2.03,7.83c.23.62.43,1.21.95,1.21s.72-.66.76-.95c.03-.3.33-2.1.33-2.1M387.74,263.08l4.14,7.22c.07.13.2.13.27,0l4.14-7.22c.3-.64.54-1.1.14-1.49-.4-.39-.98-.14-1.26.02-.27.15-1.19.69-1.49.86v-13.76h-3.13v13.82h-.11s-1.27-.74-1.59-.92c-.28-.16-.85-.41-1.26-.02-.4.39-.16.86.14,1.49M412.13,226.62c-.1,4.07,1.99,8,5.96,9.48.29.11.59.21.88.3l.66-2.56c-.19-.05-.39-.11-.58-.17-2.68-1.11-4.15-3.51-4.31-6.36l1.75,1.86h.02s.01,0,.01,0h.01v-.02h0v-.02h0v-.02h0v-.02h0v-.02h0v-.02l-2.32-5.46h0v-.02h0s-.01,0-.01,0h-.01l-4.63,3.19h0v.02h0v.02h0v.02h0v.02h0v.03h0v.02h0v.02h0v.02h0s.02,0,.02,0l2.48-.31M337.41,273.4v-7.91s1.36.61,1.64.77c.24.13.73.35,1.08.02.35-.34.14-.74-.12-1.29l-3.57-6.23c-.06-.11-.17-.11-.23,0l-3.57,6.23c-.26.55-.47.95-.12,1.29s.84.12,1.08-.02c.28-.16,1.64-.77,1.64-.77v7.91h2.17ZM409.85,254.29l8.78,8.78c.06.06.16.06.23,0l1.87-1.87c.06-.06.06-.16,0-.22l-8.78-8.78s1.86-.3,2.16-.34c.3-.03.98-.24.98-.78s-.61-.75-1.25-.98l-8.06-2.09c-.08-.02-.14.03-.11.11l2.09,8.07c.24.64.44,1.25.98,1.25s.75-.68.78-.98c.04-.31.34-2.16.34-2.16M387.05,288.16l8.78-8.78c.06-.06.06-.16,0-.23l-1.87-1.87c-.06-.06-.16-.06-.22,0l-8.78,8.78s-.3-1.86-.34-2.16c-.03-.3-.24-.98-.78-.98s-.75.61-.98,1.25l-2.09,8.06c-.02.08.03.14.11.11l8.06-2.09c.64-.24,1.25-.44,1.25-.98s-.68-.75-.98-.78c-.31-.04-2.16-.34-2.16-.34M336.92,243.06h-5.5s.74-1.27.92-1.59c.16-.28.41-.85.02-1.26-.39-.4-.86-.16-1.49.14l-7.22,4.13c-.13.07-.13.2,0,.27l7.22,4.13c.64.3,1.1.54,1.49.14.39-.4.14-.98-.02-1.26-.18-.32-.92-1.59-.92-1.59h5.5c1.29,0,2.34,1.05,2.34,2.34v7.04h3.13v-7.04c0-3.01-2.45-5.46-5.46-5.46M376.51,290.35h-7.91s.61-1.36.77-1.64c.13-.24.35-.73.02-1.08-.34-.35-.74-.14-1.29.12l-6.23,3.57c-.11.06-.11.17,0,.23l6.23,3.57c.55.26.95.47,1.29.12s.12-.84-.02-1.08c-.16-.28-.77-1.64-.77-1.64h7.91v-2.17ZM429.2,307.36v-2.06l4.1.79-5.61-5.71-5.61,5.71,4.1-.79v2.06h3.02,0ZM419.96,315.24s.3,1.86.34,2.16c.03.3.24.98.78.98s.74-.61.98-1.25l2.09-8.07c.02-.08-.03-.14-.11-.11l-8.06,2.09c-.64.24-1.25.44-1.25.98s.68.74.98.78c.3.03,2.16.34,2.16.34l-8.78,8.78c-.06.06-.06.16,0,.22l1.87,1.87c.06.06.16.06.23,0l8.78-8.78M354.53,369.53l-8.52,8.53c-.06.06-.06.16,0,.22l1.82,1.82c.06.06.16.06.22,0l8.52-8.52s.3,1.81.33,2.1.23.95.76.95.72-.59.95-1.22l2.03-7.83c.02-.08-.03-.13-.11-.11l-7.83,2.03c-.62.23-1.21.43-1.21.95s.66.72.95.76c.3.03,2.1.33,2.1.33M395.93,387.5h0v.02h0v.02h.04v-.02h0v-.02l.4-5.61h0v-.03h0v-.02h0v-.03h0s-.01-.01-.01-.01h-.02l-5.88.78h0v.02h0v.02h0v.04h0v.02h0v.02h0v.02h0s.01.01.01.01h.01l2.53.69c-2.59,1.36-5.44,1.24-7.75-.64-.17-.15-.33-.31-.49-.47l-.02-.02-1.82,1.9c.25.26.54.5.82.74,3.19,2.68,7.8,2.58,11.18.36.32.73.64,1.47.95,2.2M392.37,347.15l-7.22,4.14c-.13.07-.13.2,0,.27l7.22,4.14c.64.3,1.1.54,1.49.14.39-.4.14-.98-.02-1.26-.15-.27-.69-1.19-.86-1.49h13.76v-3.13h-13.82v-.11s.74-1.27.92-1.59c.16-.28.41-.85.02-1.26-.39-.4-.86-.16-1.49.14M398.18,329.28l7.22-4.14c.13-.07.13-.2,0-.27l-7.22-4.14c-.64-.3-1.1-.54-1.49-.14-.39.4-.14.98.02,1.26.15.27.69,1.19.86,1.49h-13.76v3.13h13.82v.11s-.74,1.27-.92,1.59c-.16.28-.41.85-.02,1.26.39.4.86.16,1.49-.14M355.17,324.56h-7.91s.61-1.36.77-1.64c.13-.24.35-.73.02-1.08-.34-.35-.74-.14-1.29.12l-6.23,3.57c-.11.06-.11.17,0,.23l6.23,3.57c.55.26.95.47,1.29.12s.12-.84-.02-1.08c-.16-.28-.77-1.64-.77-1.64h7.91v-2.17ZM366.42,362.15v-2.06l4.1.79-5.61-5.71-5.61,5.71,4.1-.79v2.06h3.02,0ZM345.52,398.17v-7.91s1.36.61,1.64.77c.24.13.73.35,1.08.02.35-.34.14-.74-.12-1.29l-3.57-6.23c-.06-.11-.17-.11-.23,0l-3.57,6.23c-.26.55-.47.95-.12,1.29s.84.12,1.08-.02c.28-.16,1.64-.77,1.64-.77v7.91h2.17ZM373.8,309.85l-5.31-4.34c-.07-.06-.15-.09-.24-.1-.12-.01-.24.02-.33.1l-5.32,4.34c-.06.05-.1.1-.14.16-.09.15-.13.34-.09.51s.15.33.3.42c.15.1.33.13.51.09l3.23-.73v5.98c0,.06.03.12.07.16s.1.07.16.07h3.14c.06,0,.12-.02.16-.07.04-.04.07-.1.07-.16v-5.98l3.23.73c.07.02.14.02.22.01.17-.02.34-.11.45-.24.11-.14.17-.32.15-.49-.02-.17-.11-.34-.24-.45M422.23,347.31h-5.5s.74-1.27.92-1.59c.16-.28.41-.85.02-1.26-.39-.4-.86-.16-1.49.14l-7.22,4.13c-.13.07-.13.2,0,.27l7.22,4.13c.64.3,1.1.54,1.49.14.39-.4.14-.98-.02-1.26-.18-.32-.92-1.59-.92-1.59h5.5c1.29,0,2.34,1.05,2.34,2.34v7.04h3.13v-7.04c0-3.01-2.45-5.46-5.46-5.46M370.21,327.78c.15-1.39,1.08-2.66,2.22-2.95l2.24-.57s-.54,1.38-.64,1.6-.23.76.13.98c.37.22.75-.12,1.17-.45l4.61-4.59c.07-.07.05-.15-.05-.17l-6.25-1.8c-.53-.1-1.02-.2-1.24.16s.16.77.35.92c.19.14,1.33,1.09,1.33,1.09l-2.13.55c-.81.21-2.02.72-2.89,1.76-.87-1.03-2.08-1.55-2.89-1.76l-2.13-.55s1.14-.95,1.33-1.09c.19-.15.57-.56.35-.92-.22-.37-.71-.26-1.24-.16l-6.25,1.8c-.09.03-.11.1-.04.17l4.61,4.59c.42.34.8.67,1.16.45.37-.21.24-.76.13-.97-.1-.22-.64-1.6-.64-1.6l2.24.57c1.14.29,2.07,1.56,2.22,2.94v5.55c0,.1.08.18.18.18h1.92c.1,0,.18-.08.18-.18v-5.55h.02ZM335.86,321.35c0-.08-.07-.15-.15-.15h-3.6l1.63-6.26c.06-.23-.04-.3-.23-.15l-10.41,8.39c-.09.07-.09.2,0,.27l10.41,8.39c.19.15.29.08.23-.15l-1.63-6.26h3.6c.08,0,.15-.06.15-.14v-3.95h0ZM368.12,348.46c0,3.01,2.45,5.46,5.46,5.46h7.04v-3.13h-7.04c-1.29,0-2.34-1.05-2.34-2.34v-5.5h0s1.27.74,1.59.92c.28.16.85.41,1.26.02.4-.39.16-.86-.14-1.49l-4.13-7.22c-.07-.13-.2-.13-.27,0l-4.13,7.22c-.3.64-.54,1.1-.14,1.49.41.39.98.14,1.26-.02.32-.18,1.59-.92,1.59-.92h0v5.5M432.72,368.41l-5.31-4.34c-.07-.06-.15-.09-.24-.1-.12-.01-.24.02-.33.1l-5.32,4.34c-.06.05-.1.1-.14.16-.09.15-.13.34-.09.51s.15.33.3.42c.15.1.33.13.51.09l3.23-.73v5.98c0,.06.03.12.07.16s.1.07.16.07h3.14c.06,0,.12-.02.16-.07.04-.04.07-.1.07-.16v-5.98l3.23.73c.07.02.14.02.22.01.17-.02.34-.11.45-.24.11-.14.17-.32.15-.49-.02-.17-.11-.34-.24-.45M280.58,359.88l8.53,8.52c.06.06.16.06.22,0l1.82-1.82c.06-.06.06-.16,0-.22l-8.52-8.52s1.81-.3,2.1-.33.95-.23.95-.76-.59-.72-1.22-.95l-7.83-2.03c-.08-.02-.13.03-.11.11l2.03,7.83c.23.62.43,1.21.95,1.21s.72-.66.76-.95c.03-.3.33-2.1.33-2.1M191.21,357.64s1.8-.29,2.1-.33c.29-.03.95-.23.95-.76s-.59-.72-1.21-.95l-7.83-2.03c-.08-.02-.13.03-.11.11l2.03,7.83c.23.62.42,1.22.95,1.22s.72-.66.76-.95c.03-.29.33-2.1.33-2.1l8.52,8.52c.06.06.16.06.22,0l1.82-1.82c.06-.06.06-.16,0-.22l-8.52-8.53M281.15,232.9c0-.05-.05-.1-.1-.1h-2.46l1.11-4.28c.04-.16-.03-.2-.16-.1l-7.11,5.73c-.06.05-.06.13,0,.19l7.11,5.73c.13.1.2.06.16-.1l-1.11-4.28h2.46s.1-.04.1-.1v-2.7h0ZM225.42,310.89s.05.1.1.1h2.46l-1.11,4.28c-.04.16.03.2.16.1l7.11-5.73c.06-.05.06-.13,0-.19l-7.11-5.73c-.13-.1-.2-.06-.16.1l1.11,4.28h-2.46c-.05,0-.1.04-.1.1v2.7h0ZM187.32,254.54c.05,0,.1-.05.1-.1v-2.46l4.28,1.11c.16.04.2-.03.1-.16l-5.73-7.11c-.05-.06-.13-.06-.19,0l-5.73,7.11c-.1.13-.06.2.1.16l4.28-1.11v2.46c0,.05.04.1.1.1h2.7-.01ZM275.69,291.27s.1-.05.1-.1v-2.46l4.28,1.11c.16.04.2-.03.1-.16l-5.73-7.11c-.05-.06-.13-.06-.19,0l-5.73,7.11c-.1.13-.06.2.1.16l4.28-1.11v2.46s.04.1.1.1h2.7-.01ZM245.2,332.06l3.05,4.88,3.05-4.88c.34-.77-.32-1.12-.78-.89-.94.48-1.07.57-1.07.57l-.11.07v-6.48h-2.18v6.47l-.11-.06s-.13-.09-1.07-.57c-.46-.24-1.12.12-.78.89M277.39,318.08l-3.05-4.88-3.05,4.88c-.34.77.32,1.12.78.89.94-.48,1.07-.57,1.07-.57l.11-.07v6.48h2.18v-6.47l.11.06s.13.09,1.07.57c.46.24,1.12-.12.78-.89M251.3,292.07l-3.05-4.88-3.05,4.88c-.34.77.32,1.12.78.89.94-.48,1.07-.57,1.07-.57l.11-.07v6.48h2.18v-6.47l.11.06s.13.09,1.07.57c.46.24,1.12-.12.78-.89M234.56,367.34c.32-.73.64-1.47.95-2.2,3.38,2.22,7.99,2.32,11.18-.36.28-.24.56-.47.82-.74l-1.82-1.9-.02.02c-.16.16-.32.33-.49.47-2.31,1.88-5.16,1.99-7.75.64l2.53-.68h.02v-.02h0v-.02h0v-.03h0v-.02h0v-.02h0v-.02h0v-.02h0l-5.88-.78h-.02v.03h0v.03h0v.02h0s.4,5.62.4,5.62h0v.02h0v.02h.03v-.02h0v-.02M265.16,257.34c.73.32,1.47.64,2.2.95-2.22,3.38-2.32,7.99.36,11.18.24.28.47.56.74.82l1.9-1.82-.02-.02c-.16-.16-.33-.32-.47-.49-1.88-2.31-1.99-5.16-.64-7.75l.68,2.53h0v.02h0v.02h.02v-.02h0v-.02h0s.78-5.89.78-5.89h0v-.02h0v-.02h0v-.02h0v-.02h0v-.02h-.03l-5.61.4h-.02v.02h0v.02h0v.02h0v.02h0v.02h0v.02h0M243.1,280.43c.32-.73.64-1.47.95-2.2,3.38,2.22,7.99,2.32,11.18-.36.28-.24.56-.47.82-.74l-1.82-1.9-.02.02c-.16.16-.32.33-.49.47-2.31,1.88-5.16,1.99-7.75.64l2.53-.68h.02v-.02h0v-.02h0v-.03h0v-.02h0v-.02h0v-.02h0v-.02h0l-5.88-.78h-.02v.03h0v.03h0v.02h0s.4,5.62.4,5.62h0v.02h0v.02h.02v-.02h0v-.02M221.23,374.48h0v-.02h0v-.02h-.02v.02h0v.02l-.4,5.61h0v.02h0v.02h0v.02h0s0,.01,0,.01h0l5.88-.78h0v-.02h0v-.02h0v-.04h0v-.02h0v-.02h0v-.02h0s0-.01,0-.01h0l-2.53-.68c2.59-1.36,5.44-1.24,7.75.64.17.15.33.31.49.47l.02.02,1.82-1.9c-.25-.26-.54-.5-.82-.74-3.19-2.68-7.8-2.58-11.18-.36-.32-.73-.64-1.47-.95-2.2M282.18,265.83l-7.22,4.14c-.13.07-.13.2,0,.27l7.22,4.14c.64.3,1.1.54,1.49.14.39-.4.14-.98-.02-1.26-.15-.27-.69-1.19-.86-1.49h13.76v-3.13h-13.82v-.11s.74-1.27.92-1.59c.16-.28.41-.85.02-1.26-.39-.4-.86-.16-1.49.14M272.98,375.24l-7.22,4.14c-.13.07-.13.2,0,.27l7.22,4.14c.64.3,1.1.54,1.49.14.39-.4.14-.98-.02-1.26-.15-.27-.69-1.19-.86-1.49h13.76v-3.13h-13.82v-.11s.74-1.27.92-1.59c.16-.28.41-.85.02-1.26-.39-.4-.86-.16-1.49.14M271.64,255.85h7.91s-.61,1.36-.77,1.64c-.13.24-.35.73-.02,1.08.34.35.74.14,1.29-.12l6.23-3.57c.11-.06.11-.17,0-.23l-6.23-3.57c-.55-.26-.95-.47-1.29-.12s-.12.84.02,1.08c.16.28.77,1.64.77,1.64h-7.91v2.17ZM309.44,348.68v7.91s-1.36-.61-1.64-.77c-.24-.13-.73-.35-1.08-.02-.35.34-.14.74.12,1.29l3.57,6.23c.06.11.17.11.23,0l3.57-6.23c.26-.55.47-.95.12-1.29s-.84-.12-1.08.02c-.28.16-1.64.77-1.64.77v-7.91h-2.17ZM426.34,393.1v-7.91s1.36.61,1.64.77c.24.13.73.35,1.08.02.35-.34.14-.74-.12-1.29l-3.57-6.23c-.06-.11-.17-.11-.23,0l-3.57,6.23c-.26.55-.47.95-.12,1.29s.84.12,1.08-.02c.28-.16,1.64-.77,1.64-.77v7.91h2.17ZM232.78,342.1h-7.91s.61-1.36.77-1.64c.13-.24.35-.73.02-1.08-.34-.35-.74-.14-1.29.12l-6.23,3.57c-.11.06-.11.17,0,.23l6.23,3.57c.55.26.95.47,1.29.12s.12-.84-.02-1.08c-.16-.28-.77-1.64-.77-1.64h7.91v-2.17ZM238.76,345.62c4.07.1,8-1.99,9.48-5.96.11-.29.21-.59.3-.88l-2.56-.66c-.05.19-.11.39-.17.58-1.11,2.68-3.51,4.15-6.36,4.31l1.86-1.75h0v-.02h0v-.02h0v-.02h0v-.02h0v-.02h0v-.02h0v-.02h0v-.03h-.04l-5.46,2.32h-.02v.02h0v.02h0v.02h0v.02h0v.02h0l3.19,4.63h0v.02h.04s0-.01,0-.01h0v-.02h0v-.02h0v-.02h0v-.02h0v-.02l-.31-2.48M308.04,342.52l-2.48-.31h0v.03h0v.02h0v.03h0v.02h0v.02h0v.02h0v.02h0v.02l4.63,3.19h.02v-.03l2.32-5.46h0v-.02h0v-.02h0v-.02h0v-.02h0v-.02h0s-.01-.01-.01-.01h0s-.01-.01-.01-.01h-.02s-1.75,1.87-1.75,1.87c.16-2.85,1.63-5.25,4.31-6.36.19-.07.39-.12.58-.17l-.66-2.56c-.3.09-.59.19-.88.3-3.97,1.48-6.06,5.41-5.96,9.48M182.72,261.43c-.1,4.07,1.99,8,5.96,9.48.29.11.59.21.88.3l.66-2.56c-.19-.05-.39-.11-.58-.17-2.68-1.11-4.15-3.51-4.31-6.36l1.75,1.86h.02s0,.01,0,.01h0v-.02h0v-.02h0v-.02h0v-.02h0v-.02h0v-.02l-2.32-5.46h0v-.02h0s0-.01,0-.01h0l-4.63,3.19h0v.02h0v.02h0v.02h0v.02h0v.03h0v.02h0v.02h0v.02h0s.02.01.02.01l2.48-.31M207.98,306.51c-4.07-.1-8,1.99-9.48,5.96-.11.29-.21.59-.3.88l2.56.66c.05-.19.11-.39.17-.58,1.11-2.68,3.51-4.15,6.36-4.31l-1.86,1.75h0v.02h0v.02h0v.02h0v.02h0v.02h0v.02h0v.02h0v.02h0l5.46-2.32h.02v-.02h0v-.02h0v-.02h0v-.04h0l-3.19-4.63h0v-.02h-.02v.02h0v.02h0v.02h0v.02h0v.03l.31,2.48M240.41,235.68l.31-2.48h0v-.02h0v-.02h0v-.03h0v-.02h0s0,0,0,0h0s0,0,0,0v.02l-3.19,4.63h0v.03h0v.02h0v.02h0v.02h0s0,0,0,0h0l5.46,2.32h0v-.02h0v-.02h0v-.02h0v-.02h0v-.02h0v-.02h0v-.02h0v-.02l-1.86-1.75c2.85.16,5.25,1.63,6.36,4.31.07.19.12.39.17.58l2.56-.66c-.09-.3-.19-.59-.3-.88-1.48-3.97-5.41-6.06-9.48-5.96M243.52,258.29l1.53,1.98h0v.02h.02v-.02h0v-.02h0v-.03l-1.01-5.53h0v-.02h-.02s-5.5,2.23-5.5,2.23h0v.02h0v.02h0v.03h0v.03h0v.02h0v.02h0s0,.01,0,.01h0l2.56-.08c-2.13,1.9-4.86,2.56-7.55,1.45-.18-.09-.36-.19-.54-.29l-1.34,2.28c.27.15.55.28.84.42,3.85,1.76,8.11.46,10.91-2.49M276.38,334.63v-2.06l4.1.79-5.61-5.71-5.61,5.71,4.1-.79v2.06h3.02,0ZM205.34,378.06c0,3.01,2.45,5.46,5.46,5.46h7.04v-3.13h-7.04c-1.29,0-2.34-1.05-2.34-2.34v-5.5h0s1.27.74,1.59.92c.28.16.85.41,1.26.02.4-.39.16-.86-.14-1.49l-4.13-7.22c-.07-.13-.2-.13-.27,0l-4.13,7.22c-.3.64-.54,1.1-.14,1.49.41.39.98.14,1.26-.02.32-.18,1.59-.92,1.59-.92h0v5.5M275.74,306.83v-5.5h0s1.27.74,1.59.92c.28.16.85.41,1.26.02.4-.39.16-.86-.14-1.49l-4.13-7.22c-.07-.13-.2-.13-.27,0l-4.13,7.22c-.3.64-.54,1.1-.14,1.49.4.39.98.14,1.26-.02.32-.18,1.59-.92,1.59-.92h0v5.5c0,1.29-1.05,2.34-2.34,2.34h-7.04v3.13h7.04c3.01,0,5.46-2.45,5.46-5.46M207.18,269.05h-5.5s.74-1.27.92-1.59c.16-.28.41-.85.02-1.26-.39-.4-.86-.16-1.49.14l-7.22,4.13c-.13.07-.13.2,0,.27l7.22,4.13c.64.3,1.1.54,1.49.14s.14-.98-.02-1.26c-.18-.32-.92-1.59-.92-1.59h5.5c1.29,0,2.34,1.05,2.34,2.34v7.04h3.13v-7.04c0-3.01-2.45-5.46-5.46-5.46M179.47,229.53h-5.5s.74-1.27.92-1.59c.16-.28.41-.85.02-1.26-.39-.4-.86-.16-1.49.14l-7.22,4.13c-.13.07-.13.2,0,.27l7.22,4.13c.64.3,1.1.54,1.49.14s.14-.98-.02-1.26c-.18-.32-.92-1.59-.92-1.59h5.5c1.29,0,2.34,1.05,2.34,2.34v7.04h3.13v-7.04c0-3.01-2.45-5.46-5.46-5.46M305.01,379.61c3.01,0,5.46-2.45,5.46-5.46v-7.04h-3.13v7.04c0,1.29-1.05,2.34-2.34,2.34h-5.5s.74-1.27.92-1.59c.16-.28.41-.85.02-1.26-.39-.4-.86-.16-1.49.14l-7.22,4.13c-.13.07-.13.2,0,.27l7.22,4.13c.64.3,1.1.54,1.49.14.39-.41.14-.98-.02-1.26-.18-.32-.92-1.59-.92-1.59h5.5M301.28,250.35v-5.5h0s1.27.74,1.59.92c.28.16.85.41,1.26.02.4-.39.16-.86-.14-1.49l-4.13-7.22c-.07-.13-.2-.13-.27,0l-4.13,7.22c-.3.64-.54,1.1-.14,1.49s.98.14,1.26-.02c.32-.18,1.59-.92,1.59-.92h0v5.5c0,1.29-1.05,2.34-2.34,2.34h-7.04v3.13h7.04c3.01,0,5.46-2.45,5.46-5.46M261.97,376.24h-7.91s.61-1.36.77-1.64c.13-.24.35-.73.02-1.08-.34-.35-.74-.14-1.29.12l-6.23,3.57c-.11.06-.11.17,0,.23l6.23,3.57c.55.26.95.47,1.29.12s.12-.84-.02-1.08c-.16-.28-.77-1.64-.77-1.64h7.91v-2.17ZM277.89,313.37h7.91s-.61,1.36-.77,1.64c-.13.24-.35.73-.02,1.08.34.35.74.14,1.29-.12l6.23-3.57c.11-.06.11-.17,0-.23l-6.23-3.57c-.55-.26-.95-.47-1.29-.12s-.12.84.02,1.08c.16.28.77,1.64.77,1.64h-7.91v2.17ZM298.06,232.03h-7.91s.61-1.36.77-1.64c.13-.24.35-.73.02-1.08-.34-.35-.74-.14-1.29.12l-6.23,3.57c-.11.06-.11.17,0,.23l6.23,3.57c.55.26.95.47,1.29.12s.12-.84-.02-1.08c-.16-.28-.77-1.64-.77-1.64h7.91v-2.17ZM235.37,236.92h-7.91s.61-1.36.77-1.64c.13-.24.35-.73.02-1.08-.34-.35-.74-.14-1.29.12l-6.23,3.57c-.11.06-.11.17,0,.23l6.23,3.57c.55.26.95.47,1.29.12s.12-.84-.02-1.08c-.16-.28-.77-1.64-.77-1.64h7.91v-2.17ZM210.4,291.34c-.26.56-.52,1.09-.17,1.43.35.35.91.04,1.13-.13s1.61-1.17,1.61-1.17v11.26c0,.08.07.15.15.15h2.4c.08,0,.15-.07.15-.15v-11.26s1.39,1,1.6,1.17c.22.17.78.48,1.13.13.35-.34.09-.87-.17-1.43l-3.83-6.51c-.04-.07-.11-.07-.15,0l-3.83,6.51h-.02ZM253.95,313.42h2.06l-.79,4.1,5.72-5.61-5.72-5.61.79,4.11h-2.06v3.01h0ZM269.22,231.48h-2.06l.79-4.1-5.72,5.61,5.72,5.61-.79-4.11h2.06v-3.01ZM248.95,252.75v-2.06l4.1.79-5.61-5.72-5.61,5.72,4.11-.79v2.06h3.01ZM260.04,336.61h-2.06l.79-4.1-5.72,5.61,5.72,5.61-.79-4.11h2.06v-3.01h0ZM243.51,313.04c1.39.15,2.66,1.08,2.95,2.22l.57,2.24s-1.38-.54-1.6-.64-.76-.23-.98.13c-.22.37.12.75.45,1.17l4.59,4.61c.07.07.15.05.17-.05l1.8-6.25c.1-.53.2-1.02-.16-1.24s-.77.16-.92.35c-.14.19-1.09,1.33-1.09,1.33l-.55-2.13c-.21-.81-.72-2.02-1.76-2.89,1.03-.87,1.55-2.08,1.76-2.89l.55-2.13s.95,1.14,1.09,1.33c.15.19.56.57.92.35.37-.22.26-.71.16-1.24l-1.8-6.25c-.03-.09-.1-.11-.17-.04l-4.59,4.61c-.34.42-.67.8-.45,1.16.21.37.76.24.97.13.22-.1,1.6-.64,1.6-.64l-.57,2.24c-.29,1.14-1.56,2.07-2.94,2.22h-5.55c-.1,0-.18.08-.18.18v1.92c0,.1.08.18.18.18h5.55v.02ZM275.48,344.77c.15-1.39,1.08-2.66,2.22-2.95l2.24-.57s-.54,1.38-.64,1.6-.23.76.13.98c.37.22.75-.12,1.17-.45l4.61-4.59c.07-.07.05-.15-.05-.17l-6.25-1.8c-.53-.1-1.02-.2-1.24.16s.16.77.35.92c.19.14,1.33,1.09,1.33,1.09l-2.13.55c-.81.21-2.02.72-2.89,1.76-.87-1.03-2.08-1.55-2.89-1.76l-2.13-.55s1.14-.95,1.33-1.09c.19-.15.57-.56.35-.92-.22-.37-.71-.26-1.24-.16l-6.25,1.8c-.09.03-.11.1-.04.17l4.61,4.59c.42.34.8.67,1.16.45.37-.21.24-.76.13-.97-.1-.22-.64-1.6-.64-1.6l2.24.57c1.14.29,2.07,1.56,2.22,2.94v5.55c0,.1.08.18.18.18h1.92c.1,0,.18-.08.18-.18v-5.55h.02ZM194.41,329.74c.08,0,.15-.07.15-.15v-3.6l6.26,1.63c.23.06.3-.04.15-.23l-8.39-10.41c-.07-.09-.2-.09-.27,0l-8.39,10.41c-.15.19-.08.29.15.23l6.26-1.63v3.6c0,.08.06.15.14.15h3.95,0ZM228.24,273.77v-7.92s1.36.61,1.64.77c.24.14.73.36,1.08.02s.14-.74-.12-1.29l-3.57-6.22c-.06-.11-.17-.11-.23,0l-3.57,6.22c-.26.55-.47.95-.12,1.29s.84.12,1.08-.02c.28-.15,1.64-.77,1.64-.77v7.92h2.17ZM187.93,348.84v-7.92s1.36.61,1.64.77c.24.14.73.36,1.08.02s.14-.74-.12-1.29l-3.57-6.22c-.06-.11-.17-.11-.23,0l-3.57,6.22c-.26.55-.47.95-.12,1.29s.84.12,1.08-.02c.28-.15,1.64-.77,1.64-.77v7.92h2.17ZM240.67,276.5h-7.91s.61-1.36.77-1.64c.13-.24.35-.73.02-1.08-.34-.35-.74-.14-1.29.12l-6.23,3.57c-.11.06-.11.17,0,.23l6.23,3.57c.55.26.95.47,1.29.12s.12-.84-.02-1.08c-.16-.28-.77-1.64-.77-1.64h7.91v-2.17ZM248.39,346.85v7.91s-1.36-.61-1.64-.77c-.24-.13-.73-.35-1.08-.02-.35.34-.14.74.12,1.29l3.57,6.23c.06.11.17.11.23,0l3.57-6.23c.26-.55.47-.95.12-1.29s-.84-.12-1.08.02c-.28.16-1.64.77-1.64.77v-7.91h-2.17ZM295.12,344.8l4.34-5.31c.06-.07.09-.15.1-.24.01-.12-.02-.24-.1-.33l-4.34-5.32c-.05-.06-.1-.1-.16-.14-.15-.09-.34-.13-.51-.09s-.33.15-.42.3c-.1.15-.13.33-.09.51l.73,3.23h-5.98c-.06,0-.12.03-.16.07s-.07.1-.07.16v3.14c0,.06.02.12.07.16.04.04.1.07.16.07h5.98l-.73,3.23c-.02.07-.02.14-.01.22.02.17.11.34.24.45.14.11.32.17.49.15.17-.02.34-.11.45-.24M244.63,378h-2.06l.79-4.1-5.72,5.61,5.72,5.61-.79-4.11h2.06v-3.01h0ZM411.08,392.81l-8.53-8.52c-.06-.06-.16-.06-.22,0l-1.82,1.82c-.06.06-.06.16,0,.22l8.52,8.52s-1.81.3-2.1.33-.95.23-.95.76.59.72,1.22.95l7.83,2.03c.08.02.13-.03.11-.11l-2.03-7.83c-.23-.62-.43-1.21-.95-1.21s-.72.66-.76.95c-.03.3-.33,2.1-.33,2.1"/></g></svg>