<?xml version="1.0" encoding="UTF-8"?><svg id="_レイヤー_1" xmlns="http://www.w3.org/2000/svg" viewBox="0 0 1068.31 396.53"><defs><style>.cls-1{fill:#fff;}</style></defs><rect class="cls-1" x="552.47" y="-119.31" width="396.53" height="635.15" rx="120" ry="120" transform="translate(949 -552.47) rotate(90)"/><path class="cls-1" d="M6.75,75.7c-1.89,0-3.42-1.53-3.42-3.42V21.54c0-1.89,1.53-3.42,3.42-3.42s3.42,1.53,3.42,3.42v50.74c0,1.89-1.53,3.42-3.42,3.42Z"/><path class="cls-1" d="M27.89,29.54h-12.02c-3.15,0-5.7-2.55-5.7-5.7s2.55-5.7,5.7-5.7h12.02c3.15,0,5.7,2.55,5.7,5.7s-2.55,5.7-5.7,5.7Z"/><path class="cls-1" d="M27.89,52.62h-12.02c-3.15,0-5.7-2.55-5.7-5.7s2.55-5.7,5.7-5.7h12.02c3.15,0,5.7,2.55,5.7,5.7s-2.55,5.7-5.7,5.7Z"/><path class="cls-1" d="M221.99,75.67c-1.89,0-3.42-1.53-3.42-3.42v-39.32c0-1.89,1.53-3.42,3.42-3.42s3.42,1.53,3.42,3.42v39.32c0,1.89-1.53,3.42-3.42,3.42Z"/><path class="cls-1" d="M234.71,29.52h-25.43c-3.15,0-5.7-2.55-5.7-5.7s2.55-5.7,5.7-5.7h25.43c3.15,0,5.7,2.55,5.7,5.7s-2.55,5.7-5.7,5.7Z"/><path class="cls-1" d="M185.04,24.96h-12.02c-1.89,0-3.42-1.53-3.42-3.42s1.53-3.42,3.42-3.42h12.02c1.89,0,3.42,1.53,3.42,3.42s-1.53,3.42-3.42,3.42Z"/><path class="cls-1" d="M185.04,75.69h-12.02c-1.89,0-3.42-1.53-3.42-3.42s1.53-3.42,3.42-3.42h12.02c1.89,0,3.42,1.53,3.42,3.42s-1.53,3.42-3.42,3.42Z"/><path class="cls-1" d="M178.98,68.86h0c-3.15,0-5.69-2.56-5.69-5.71l.05-32.51c0-3.14,2.56-5.69,5.7-5.69h0c3.15,0,5.69,2.56,5.69,5.71l-.05,32.51c0,3.14-2.56,5.69-5.7,5.69Z"/><path class="cls-1" d="M148.79,41.21c-1.89,0-3.42-1.53-3.42-3.42v-16.25c0-1.89,1.53-3.42,3.42-3.42s3.42,1.53,3.42,3.42v16.25c0,1.89-1.53,3.42-3.42,3.42Z"/><path class="cls-1" d="M102.62,41.21c-1.89,0-3.42-1.53-3.42-3.42v-16.25c0-1.89,1.53-3.42,3.42-3.42s3.42,1.53,3.42,3.42v16.25c0,1.89-1.53,3.42-3.42,3.42Z"/><path class="cls-1" d="M125.7,75.7c-15.87,0-28.78-12.91-28.78-28.78,0-3.15,2.55-5.7,5.7-5.7s5.7,2.55,5.7,5.7c0,9.59,7.8,17.39,17.39,17.39s17.39-7.8,17.39-17.39c0-3.15,2.55-5.7,5.7-5.7s5.7,2.55,5.7,5.7c0,15.87-12.91,28.78-28.78,28.78Z"/><path class="cls-1" d="M269.3,52.61c-9.51,0-17.24-7.73-17.24-17.24s7.73-17.24,17.24-17.24c3.15,0,5.7,2.55,5.7,5.7s-2.55,5.7-5.7,5.7-5.84,2.62-5.84,5.84,2.62,5.84,5.84,5.84,5.7,2.55,5.7,5.7-2.55,5.7-5.7,5.7Z"/><path class="cls-1" d="M278.12,75.67c-1.89,0-3.42-1.53-3.42-3.42s1.53-3.42,3.42-3.42c4.48,0,8.12-3.64,8.12-8.12s-3.64-8.12-8.12-8.12c-1.89,0-3.42-1.53-3.42-3.42s1.53-3.42,3.42-3.42c8.25,0,14.96,6.71,14.96,14.96s-6.71,14.96-14.96,14.96Z"/><path class="cls-1" d="M63.5,54.72c-1.89,0-3.42-1.53-3.42-3.42s1.53-3.42,3.42-3.42c6.32,0,11.46-5.14,11.46-11.46s-5.14-11.46-11.46-11.46h-.28c-1.89,0-3.42-1.53-3.42-3.42s1.53-3.42,3.42-3.42h.28c10.09,0,18.3,8.21,18.3,18.3s-8.21,18.3-18.3,18.3Z"/><path class="cls-1" d="M78.38,75.69c-1.11,0-2.19-.53-2.85-1.52l-9.82-14.73c-1.05-1.57-.62-3.69.95-4.74,1.57-1.05,3.69-.62,4.74.95l9.82,14.73c1.05,1.57.62,3.69-.95,4.74-.58.39-1.24.57-1.89.57Z"/><path class="cls-1" d="M54.4,75.7c-3.15,0-5.7-2.55-5.7-5.7V23.85c0-3.15,2.55-5.7,5.7-5.7s5.7,2.55,5.7,5.7v46.16c0,3.15-2.55,5.7-5.7,5.7Z"/><path class="cls-1" d="M147.22,155.01c-15.86,0-28.76-12.9-28.76-28.76s12.9-28.76,28.76-28.76c3.14,0,5.69,2.55,5.69,5.69s-2.55,5.69-5.69,5.69c-9.58,0-17.38,7.79-17.38,17.38s7.79,17.38,17.38,17.38c3.14,0,5.69,2.55,5.69,5.69s-2.55,5.69-5.69,5.69Z"/><path class="cls-1" d="M147.22,155.01c-3.14,0-5.69-2.55-5.69-5.69s2.55-5.69,5.69-5.69c9.58,0,17.38-7.79,17.38-17.38s-7.79-17.38-17.38-17.38c-3.14,0-5.69-2.55-5.69-5.69s2.55-5.69,5.69-5.69c15.86,0,28.76,12.9,28.76,28.76s-12.9,28.76-28.76,28.76Z"/><path class="cls-1" d="M55.16,131.96c-3.14,0-5.69-2.55-5.69-5.69,0-9.58-7.79-17.38-17.38-17.38s-17.38,7.79-17.38,17.38c0,3.14-2.55,5.69-5.69,5.69s-5.69-2.55-5.69-5.69c0-15.86,12.9-28.76,28.76-28.76s28.76,12.9,28.76,28.76c0,3.14-2.55,5.69-5.69,5.69Z"/><path class="cls-1" d="M101.3,131.96c-3.14,0-5.69-2.55-5.69-5.69,0-9.58-7.79-17.38-17.38-17.38s-17.38,7.79-17.38,17.38c0,3.14-2.55,5.69-5.69,5.69s-5.69-2.55-5.69-5.69c0-15.86,12.9-28.76,28.76-28.76s28.76,12.9,28.76,28.76c0,3.14-2.55,5.69-5.69,5.69Z"/><path class="cls-1" d="M9.02,155.01c-1.89,0-3.42-1.53-3.42-3.42v-16.22c0-1.89,1.53-3.42,3.42-3.42s3.42,1.53,3.42,3.42v16.22c0,1.89-1.53,3.42-3.42,3.42Z"/><path class="cls-1" d="M55.16,155.01c-1.89,0-3.42-1.53-3.42-3.42v-16.22c0-1.89,1.53-3.42,3.42-3.42s3.42,1.53,3.42,3.42v16.22c0,1.89-1.53,3.42-3.42,3.42Z"/><path class="cls-1" d="M101.3,155.01c-1.89,0-3.42-1.53-3.42-3.42v-16.22c0-1.89,1.53-3.42,3.42-3.42s3.42,1.53,3.42,3.42v16.22c0,1.89-1.53,3.42-3.42,3.42Z"/><path class="cls-1" d="M315.48,120.55c-1.89,0-3.42-1.53-3.42-3.42v-16.24c0-1.89,1.53-3.42,3.42-3.42s3.42,1.53,3.42,3.42v16.24c0,1.89-1.53,3.42-3.42,3.42Z"/><path class="cls-1" d="M269.34,120.55c-1.89,0-3.42-1.53-3.42-3.42v-16.24c0-1.89,1.53-3.42,3.42-3.42s3.42,1.53,3.42,3.42v16.24c0,1.89-1.53,3.42-3.42,3.42Z"/><path class="cls-1" d="M292.41,155.02c-15.86,0-28.76-12.9-28.76-28.76,0-3.14,2.55-5.69,5.69-5.69s5.69,2.55,5.69,5.69c0,9.58,7.79,17.38,17.38,17.38s17.38-7.79,17.38-17.38c0-3.14,2.55-5.69,5.69-5.69s5.69,2.55,5.69,5.69c0,15.86-12.9,28.76-28.76,28.76Z"/><path class="cls-1" d="M219.86,155.01c-15.86,0-28.76-12.9-28.76-28.76s12.9-28.76,28.76-28.76c3.14,0,5.69,2.55,5.69,5.69s-2.55,5.69-5.69,5.69c-9.58,0-17.38,7.79-17.38,17.38s7.79,17.38,17.38,17.38c3.14,0,5.69,2.55,5.69,5.69s-2.55,5.69-5.69,5.69Z"/><path class="cls-1" d="M219.87,155.02c-15.87,0-28.77-12.91-28.77-28.77,0-3.14,2.55-5.69,5.69-5.69s5.69,2.55,5.69,5.69c0,9.59,7.8,17.38,17.38,17.38,3.14,0,5.69,2.55,5.69,5.69s-2.55,5.69-5.69,5.69Z"/><path class="cls-1" d="M196.79,131.94c-3.14,0-5.69-2.55-5.69-5.69,0-15.87,12.91-28.77,28.77-28.77,3.14,0,5.69,2.55,5.69,5.69s-2.55,5.69-5.69,5.69c-9.59,0-17.38,7.8-17.38,17.38,0,3.14-2.55,5.69-5.69,5.69Z"/><path class="cls-1" d="M219.87,155.02c-3.14,0-5.69-2.55-5.69-5.69s2.55-5.69,5.69-5.69c8.99,0,16.43-6.74,17.3-15.67.31-3.13,3.1-5.42,6.22-5.11,3.13.31,5.42,3.09,5.11,6.22-1.44,14.8-13.75,25.95-28.64,25.95Z"/><path class="cls-1" d="M234.02,129.66h-12.01c-1.89,0-3.42-1.53-3.42-3.42s1.53-3.42,3.42-3.42h12.01c1.89,0,3.42,1.53,3.42,3.42s-1.53,3.42-3.42,3.42Z"/><path class="cls-1" d="M365.06,120.41c-3.15,0-5.7-2.55-5.7-5.7s-2.62-5.84-5.84-5.84-5.84,2.62-5.84,5.84-2.55,5.7-5.7,5.7-5.7-2.55-5.7-5.7c0-9.5,7.73-17.24,17.24-17.24s17.24,7.73,17.24,17.24c0,3.15-2.55,5.7-5.7,5.7Z"/><path class="cls-1" d="M345.58,148.16c-.6,0-1.2-.16-1.75-.48-1.62-.97-2.15-3.06-1.18-4.69l13.7-22.96c.97-1.62,3.07-2.15,4.69-1.18,1.62.97,2.15,3.06,1.18,4.69l-13.7,22.96c-.64,1.07-1.77,1.67-2.94,1.67Z"/><path class="cls-1" d="M365.06,155.01h-23.08c-1.89,0-3.42-1.53-3.42-3.42s1.53-3.42,3.42-3.42h23.08c1.89,0,3.42,1.53,3.42,3.42s-1.53,3.42-3.42,3.42Z"/><rect class="cls-1" x="0" y="326.79" width="150.16" height="50.04" rx="23.4" ry="23.4" transform="translate(150.16 703.62) rotate(180)"/></svg>