<?xml version="1.0" encoding="UTF-8"?><svg id="_レイヤー_1" xmlns="http://www.w3.org/2000/svg" viewBox="0 0 1440 2396.81"><defs><style>.cls-1{fill:#fff;}.cls-2{fill:red;}</style></defs><path class="cls-2" d="M1440,1676.81c0,397.65-322.38,720-720,720S0,2074.46,0,1676.81v-956.81C0,322.35,322.38,0,720,0s720,322.35,720,720v956.81Z"/><path class="cls-1" d="M623.76,448.19c-22.61,0-41.01-18.4-41.01-41.01s18.4-41.01,41.01-41.01c4.48,0,8.12,3.63,8.12,8.12s-3.63,8.12-8.12,8.12c-13.66,0-24.77,11.11-24.77,24.77s11.11,24.77,24.77,24.77c4.48,0,8.12,3.63,8.12,8.12s-3.63,8.12-8.12,8.12Z"/><path class="cls-1" d="M623.76,448.19c-4.48,0-8.12-3.63-8.12-8.12s3.63-8.12,8.12-8.12c13.66,0,24.77-11.11,24.77-24.77s-11.11-24.77-24.77-24.77c-4.48,0-8.12-3.63-8.12-8.12s3.63-8.12,8.12-8.12c22.61,0,41.01,18.4,41.01,41.01s-18.4,41.01-41.01,41.01Z"/><path class="cls-1" d="M877.63,375.92h-17.12c-2.69,0-4.87-2.18-4.87-4.87s2.18-4.87,4.87-4.87h17.12c2.69,0,4.87,2.18,4.87,4.87s-2.18,4.87-4.87,4.87Z"/><path class="cls-1" d="M877.63,448.19h-17.12c-2.69,0-4.87-2.18-4.87-4.87s2.18-4.87,4.87-4.87h17.12c2.69,0,4.87,2.18,4.87,4.87s-2.18,4.87-4.87,4.87Z"/><path class="cls-1" d="M868.99,438.46h-.01c-4.48,0-8.11-3.65-8.11-8.13l.07-46.31c0-4.48,3.64-8.11,8.12-8.11h.01c4.48,0,8.11,3.65,8.11,8.13l-.07,46.31c0,4.48-3.64,8.11-8.12,8.11Z"/><path class="cls-1" d="M760.2,415.3c-4.48,0-8.12-3.63-8.12-8.12,0-13.66-11.11-24.77-24.77-24.77s-24.77,11.11-24.77,24.77c0,4.48-3.63,8.12-8.12,8.12s-8.12-3.63-8.12-8.12c0-22.61,18.4-41.01,41.01-41.01s41.01,18.4,41.01,41.01c0,4.48-3.63,8.12-8.12,8.12Z"/><path class="cls-1" d="M825.97,415.3c-4.48,0-8.12-3.63-8.12-8.12,0-13.66-11.11-24.77-24.77-24.77s-24.77,11.11-24.77,24.77c0,4.48-3.63,8.12-8.12,8.12s-8.12-3.63-8.12-8.12c0-22.61,18.4-41.01,41.01-41.01s41.01,18.4,41.01,41.01c0,4.48-3.63,8.12-8.12,8.12Z"/><path class="cls-1" d="M694.42,448.17c-2.69,0-4.87-2.18-4.87-4.87v-23.13c0-2.69,2.18-4.87,4.87-4.87s4.87,2.18,4.87,4.87v23.13c0,2.69-2.18,4.87-4.87,4.87Z"/><path class="cls-1" d="M760.2,448.17c-2.69,0-4.87-2.18-4.87-4.87v-23.13c0-2.69,2.18-4.87,4.87-4.87s4.87,2.18,4.87,4.87v23.13c0,2.69-2.18,4.87-4.87,4.87Z"/><path class="cls-1" d="M825.97,448.17c-2.69,0-4.87-2.18-4.87-4.87v-23.13c0-2.69,2.18-4.87,4.87-4.87s4.87,2.18,4.87,4.87v23.13c0,2.69-2.18,4.87-4.87,4.87Z"/><path class="cls-1" d="M416.85,399.07c-2.69,0-4.87-2.18-4.87-4.87v-23.15c0-2.69,2.18-4.87,4.87-4.87s4.87,2.18,4.87,4.87v23.15c0,2.69-2.18,4.87-4.87,4.87Z"/><path class="cls-1" d="M351.08,399.07c-2.69,0-4.87-2.18-4.87-4.87v-23.15c0-2.69,2.18-4.87,4.87-4.87s4.87,2.18,4.87,4.87v23.15c0,2.69-2.18,4.87-4.87,4.87Z"/><path class="cls-1" d="M383.96,448.21c-22.61,0-41.01-18.4-41.01-41.01,0-4.48,3.63-8.12,8.12-8.12s8.12,3.63,8.12,8.12c0,13.66,11.11,24.77,24.77,24.77s24.77-11.11,24.77-24.77c0-4.48,3.63-8.12,8.12-8.12s8.12,3.63,8.12,8.12c0,22.61-18.4,41.01-41.01,41.01Z"/><path class="cls-1" d="M553.1,448.22c-22.62,0-41.02-18.4-41.02-41.02,0-4.48,3.63-8.12,8.12-8.12s8.12,3.63,8.12,8.12c0,13.67,11.12,24.78,24.78,24.78,4.48,0,8.12,3.63,8.12,8.12s-3.63,8.12-8.12,8.12Z"/><path class="cls-1" d="M520.2,415.31c-4.48,0-8.12-3.63-8.12-8.12,0-22.62,18.4-41.02,41.02-41.02,4.48,0,8.12,3.63,8.12,8.12s-3.63,8.12-8.12,8.12c-13.67,0-24.78,11.12-24.78,24.78,0,4.48-3.63,8.12-8.12,8.12Z"/><path class="cls-1" d="M451.38,448.19c-2.69,0-4.87-2.18-4.87-4.87v-72.27c0-2.69,2.18-4.87,4.87-4.87s4.87,2.18,4.87,4.87v72.27c0,2.69-2.18,4.87-4.87,4.87Z"/><path class="cls-1" d="M464.36,418.58c-4.48,0-8.12-3.63-8.12-8.12s3.63-8.12,8.12-8.12c5.49,0,9.95-4.46,9.95-9.95s-4.46-9.95-9.95-9.95c-4.48,0-8.12-3.63-8.12-8.12s3.63-8.12,8.12-8.12c14.44,0,26.18,11.75,26.18,26.18s-11.75,26.18-26.18,26.18Z"/><path class="cls-1" d="M1056.17,448.2c-22.61,0-41.01-18.4-41.01-41.01s18.4-41.01,41.01-41.01c4.48,0,8.12,3.63,8.12,8.12s-3.63,8.12-8.12,8.12c-13.66,0-24.77,11.11-24.77,24.77s11.11,24.77,24.77,24.77c4.48,0,8.12,3.63,8.12,8.12s-3.63,8.12-8.12,8.12Z"/><path class="cls-1" d="M1056.18,448.22c-22.62,0-41.02-18.4-41.02-41.02,0-4.48,3.63-8.12,8.12-8.12s8.12,3.63,8.12,8.12c0,13.67,11.12,24.78,24.78,24.78,4.48,0,8.12,3.63,8.12,8.12s-3.63,8.12-8.12,8.12Z"/><path class="cls-1" d="M1023.28,415.31c-4.48,0-8.12-3.63-8.12-8.12,0-22.62,18.4-41.02,41.02-41.02,4.48,0,8.12,3.63,8.12,8.12s-3.63,8.12-8.12,8.12c-13.67,0-24.78,11.12-24.78,24.78,0,4.48-3.63,8.12-8.12,8.12Z"/><path class="cls-1" d="M1056.18,448.22c-4.48,0-8.12-3.63-8.12-8.12s3.63-8.12,8.12-8.12c12.82,0,23.42-9.6,24.66-22.34.44-4.46,4.41-7.73,8.87-7.29,4.46.44,7.73,4.4,7.29,8.87-2.06,21.09-19.61,37-40.82,37Z"/><path class="cls-1" d="M1076.35,412.06h-17.12c-2.69,0-4.87-2.18-4.87-4.87s2.18-4.87,4.87-4.87h17.12c2.69,0,4.87,2.18,4.87,4.87s-2.18,4.87-4.87,4.87Z"/><path class="cls-1" d="M972.94,448.22c-1.57,0-3.12-.76-4.06-2.17l-48.2-72.3c-1.49-2.24-.89-5.26,1.35-6.75,2.24-1.49,5.26-.89,6.75,1.35l48.2,72.3c1.49,2.24.89,5.26-1.35,6.75-.83.55-1.77.82-2.7.82Z"/><path class="cls-1" d="M912.15,448.21c-4.48,0-8.12-3.63-8.12-8.12v-65.76c0-4.48,3.63-8.12,8.12-8.12s8.12,3.63,8.12,8.12v65.76c0,4.48-3.63,8.12-8.12,8.12Z"/><path class="cls-1" d="M985.5,448.21c-4.48,0-8.12-3.63-8.12-8.12v-65.76c0-4.48,3.63-8.12,8.12-8.12s8.12,3.63,8.12,8.12v65.76c0,4.48-3.63,8.12-8.12,8.12Z"/></svg>
