<?xml version="1.0" encoding="UTF-8"?><svg id="_レイヤー_1" xmlns="http://www.w3.org/2000/svg" viewBox="0 0 1198.87 398.53"><defs><style>.cls-1{fill:none;stroke:red;stroke-miterlimit:10;stroke-width:2px;}.cls-2{fill:red;}</style></defs><path class="cls-2" d="M173.01,117.29c-15.86,0-28.77-12.91-28.77-28.77s12.91-28.77,28.77-28.77c3.15,0,5.7,2.55,5.7,5.7s-2.55,5.7-5.7,5.7c-9.58,0-17.38,7.8-17.38,17.38s7.8,17.38,17.38,17.38c3.15,0,5.7,2.55,5.7,5.7s-2.55,5.7-5.7,5.7Z"/><path class="cls-2" d="M173.01,117.29c-3.15,0-5.7-2.55-5.7-5.7s2.55-5.7,5.7-5.7c9.58,0,17.38-7.8,17.38-17.38s-7.8-17.38-17.38-17.38c-3.15,0-5.7-2.55-5.7-5.7s2.55-5.7,5.7-5.7c15.86,0,28.77,12.91,28.77,28.77s-12.91,28.77-28.77,28.77Z"/><path class="cls-2" d="M292.09,117.29c-15.86,0-28.77-12.91-28.77-28.77s12.91-28.77,28.77-28.77c3.15,0,5.7,2.55,5.7,5.7s-2.55,5.7-5.7,5.7c-9.58,0-17.38,7.8-17.38,17.38s7.8,17.38,17.38,17.38c3.15,0,5.7,2.55,5.7,5.7s-2.55,5.7-5.7,5.7Z"/><path class="cls-2" d="M292.09,117.29c-3.15,0-5.7-2.55-5.7-5.7s2.55-5.7,5.7-5.7c9.58,0,17.38-7.8,17.38-17.38s-7.8-17.38-17.38-17.38c-3.15,0-5.7-2.55-5.7-5.7s2.55-5.7,5.7-5.7c15.86,0,28.77,12.91,28.77,28.77s-12.91,28.77-28.77,28.77Z"/><path class="cls-2" d="M9.3,117.29c-1.09,0-2.18-.31-3.15-.96-2.62-1.74-3.32-5.28-1.58-7.9l30.76-46.14c1.74-2.62,5.28-3.32,7.9-1.58,2.62,1.74,3.32,5.28,1.58,7.9l-30.76,46.14c-1.1,1.65-2.9,2.54-4.74,2.54Z"/><path class="cls-2" d="M82.25,117.29c-1.84,0-3.65-.89-4.74-2.54l-30.76-46.14c-1.74-2.62-1.04-6.15,1.58-7.9,2.62-1.74,6.15-1.04,7.9,1.58l30.76,46.14c1.74,2.62,1.04,6.15-1.58,7.9-.97.65-2.07.96-3.15.96Z"/><path class="cls-2" d="M62.77,102.24H28.79c-1.89,0-3.42-1.53-3.42-3.42s1.53-3.42,3.42-3.42h33.98c1.89,0,3.42,1.53,3.42,3.42s-1.53,3.42-3.42,3.42Z"/><path class="cls-2" d="M108.46,94.22c-9.5,0-17.23-7.73-17.23-17.23s7.73-17.23,17.23-17.23c3.15,0,5.7,2.55,5.7,5.7s-2.55,5.7-5.7,5.7-5.84,2.62-5.84,5.84,2.62,5.84,5.84,5.84,5.7,2.55,5.7,5.7-2.55,5.7-5.7,5.7Z"/><path class="cls-2" d="M117.28,117.28c-1.89,0-3.42-1.53-3.42-3.42s1.53-3.42,3.42-3.42c4.48,0,8.12-3.64,8.12-8.12s-3.64-8.12-8.12-8.12c-1.89,0-3.42-1.53-3.42-3.42s1.53-3.42,3.42-3.42c8.25,0,14.95,6.71,14.95,14.95s-6.71,14.95-14.95,14.95Z"/><path class="cls-2" d="M244.79,79.27c-1.89,0-3.42-1.53-3.42-3.42,0-5.11-4.16-9.26-9.26-9.26h-.3c-1.89,0-3.42-1.53-3.42-3.42s1.53-3.42,3.42-3.42h.3c8.88,0,16.1,7.22,16.1,16.1,0,1.89-1.53,3.42-3.42,3.42Z"/><path class="cls-2" d="M232.11,91.95c-1.89,0-3.42-1.53-3.42-3.42s1.53-3.42,3.42-3.42c5.11,0,9.26-4.16,9.26-9.26,0-1.89,1.53-3.42,3.42-3.42s3.42,1.53,3.42,3.42c0,8.88-7.22,16.1-16.1,16.1Z"/><path class="cls-2" d="M232.11,117.31h-.3c-1.89,0-3.42-1.53-3.42-3.42s1.53-3.42,3.42-3.42h.3c5.11,0,9.26-4.16,9.26-9.26,0-1.89,1.53-3.42,3.42-3.42s3.42,1.53,3.42,3.42c0,8.88-7.22,16.1-16.1,16.1Z"/><path class="cls-2" d="M244.79,104.63c-1.89,0-3.42-1.53-3.42-3.42,0-5.11-4.16-9.26-9.26-9.26-1.89,0-3.42-1.53-3.42-3.42s1.53-3.42,3.42-3.42c8.88,0,16.1,7.22,16.1,16.1,0,1.89-1.53,3.42-3.42,3.42Z"/><path class="cls-2" d="M222.99,117.31c-3.15,0-5.7-2.55-5.7-5.7v-46.14c0-3.15,2.55-5.7,5.7-5.7s5.7,2.55,5.7,5.7v46.14c0,3.15-2.55,5.7-5.7,5.7Z"/><path class="cls-2" d="M341.66,105.94c-3.14,0-5.69-2.55-5.69-5.69v-34.8c0-3.14,2.55-5.69,5.69-5.69s5.69,2.55,5.69,5.69v34.8c0,3.14-2.55,5.69-5.69,5.69Z"/><path class="cls-2" d="M341.66,117.28c-1.89,0-3.42-1.53-3.42-3.42v-4.58c0-1.89,1.53-3.42,3.42-3.42s3.42,1.53,3.42,3.42v4.58c0,1.89-1.53,3.42-3.42,3.42Z"/><rect class="cls-1" x="682.03" y="-118.31" width="396.53" height="635.15" rx="120" ry="120" transform="translate(1079.56 -681.03) rotate(90)"/><path class="cls-2" d="M143.05,361.3H23.4C10.48,361.3,0,350.82,0,337.9v-3.25c0-12.92,10.48-23.4,23.4-23.4h119.65s21.71,0,21.71,0c12.92,0,23.4,10.48,23.4,23.4v3.25c0,12.92-10.48,23.4-23.4,23.4h-21.71Z"/></svg>