<?xml version="1.0" encoding="UTF-8"?><svg id="_レイヤー_1" xmlns="http://www.w3.org/2000/svg" viewBox="0 0 439.79 82.03"><defs><style>.cls-1{fill:red;}</style></defs><path class="cls-1" d="M283.07,81.99c-22.61,0-41.01-18.4-41.01-41.01,0-4.48,3.63-8.12,8.12-8.12s8.12,3.63,8.12,8.12c0,13.66,11.11,24.77,24.77,24.77s24.77-11.11,24.77-24.77c0-4.48,3.63-8.12,8.12-8.12s8.12,3.63,8.12,8.12c0,22.61-18.4,41.01-41.01,41.01Z"/><path class="cls-1" d="M217.29,81.99c-22.61,0-41.01-18.4-41.01-41.01,0-4.48,3.63-8.12,8.12-8.12s8.12,3.63,8.12,8.12c0,13.66,11.11,24.77,24.77,24.77s24.77-11.11,24.77-24.77c0-4.48,3.63-8.12,8.12-8.12s8.12,3.63,8.12,8.12c0,22.61-18.4,41.01-41.01,41.01Z"/><path class="cls-1" d="M315.95,32.87c-2.69,0-4.87-2.18-4.87-4.87V4.87c0-2.69,2.18-4.87,4.87-4.87s4.87,2.18,4.87,4.87v23.13c0,2.69-2.18,4.87-4.87,4.87Z"/><path class="cls-1" d="M250.18,32.87c-2.69,0-4.87-2.18-4.87-4.87V4.87c0-2.69,2.18-4.87,4.87-4.87s4.87,2.18,4.87,4.87v23.13c0,2.69-2.18,4.87-4.87,4.87Z"/><path class="cls-1" d="M184.4,32.87c-2.69,0-4.87-2.18-4.87-4.87V4.87c0-2.69,2.18-4.87,4.87-4.87s4.87,2.18,4.87,4.87v23.13c0,2.69-2.18,4.87-4.87,4.87Z"/><path class="cls-1" d="M149.38,9.74h-17.53c-2.69,0-4.87-2.18-4.87-4.87s2.18-4.87,4.87-4.87h17.53c2.69,0,4.87,2.18,4.87,4.87s-2.18,4.87-4.87,4.87Z"/><path class="cls-1" d="M149.38,82.03h-17.53c-2.69,0-4.87-2.18-4.87-4.87s2.18-4.87,4.87-4.87h17.53c2.69,0,4.87,2.18,4.87,4.87s-2.18,4.87-4.87,4.87Z"/><path class="cls-1" d="M119.28,82.03c-4.48,0-8.12-3.63-8.12-8.12V8.15C111.16,3.66,114.79.03,119.28.03s8.12,3.63,8.12,8.12v65.76c0,4.48-3.63,8.12-8.12,8.12Z"/><path class="cls-1" d="M149.38,45.89h-17.12c-2.69,0-4.87-2.18-4.87-4.87s2.18-4.87,4.87-4.87h17.12c2.69,0,4.87,2.18,4.87,4.87s-2.18,4.87-4.87,4.87Z"/><path class="cls-1" d="M68.9,82.04c-1.57,0-3.12-.76-4.06-2.17L16.64,7.57c-1.49-2.24-.89-5.26,1.35-6.75,2.24-1.49,5.26-.89,6.75,1.35l48.2,72.3c1.49,2.24.89,5.26-1.35,6.75-.83.55-1.77.82-2.7.82Z"/><path class="cls-1" d="M8.12,82.03c-4.48,0-8.12-3.63-8.12-8.12V8.15C0,3.67,3.63.03,8.12.03s8.12,3.63,8.12,8.12v65.76c0,4.48-3.63,8.12-8.12,8.12Z"/><path class="cls-1" d="M81.47,82.03c-4.48,0-8.12-3.63-8.12-8.12V8.15C73.35,3.67,76.99.03,81.47.03s8.12,3.63,8.12,8.12v65.76c0,4.48-3.63,8.12-8.12,8.12Z"/><path class="cls-1" d="M396.9,65.87c-4.48,0-8.12-3.63-8.12-8.12V8.15c0-4.48,3.63-8.12,8.12-8.12s8.12,3.63,8.12,8.12v49.61c0,4.48-3.63,8.12-8.12,8.12Z"/><path class="cls-1" d="M396.9,82.03c-2.69,0-4.87-2.18-4.87-4.87v-6.53c0-2.69,2.18-4.87,4.87-4.87s4.87,2.18,4.87,4.87v6.53c0,2.69-2.18,4.87-4.87,4.87Z"/><path class="cls-1" d="M431.67,59.35c-2.69,0-4.87-2.18-4.87-4.87V4.87c0-2.69,2.18-4.87,4.87-4.87s4.87,2.18,4.87,4.87v49.61c0,2.69-2.18,4.87-4.87,4.87Z"/><path class="cls-1" d="M431.67,82.02c-4.48,0-8.12-3.63-8.12-8.12v-6.53c0-4.48,3.63-8.12,8.12-8.12s8.12,3.63,8.12,8.12v6.53c0,4.48-3.63,8.12-8.12,8.12Z"/></svg>