<?xml version="1.0" encoding="UTF-8"?><svg id="_レイヤー_1" xmlns="http://www.w3.org/2000/svg" viewBox="0 0 416.45 49.97"><defs><style>.cls-1{fill:red;}</style></defs><path class="cls-1" d="M151.38,49.98c-13.78,0-24.99-11.21-24.99-24.99S137.6,0,151.38,0C154.11,0,156.33,2.22,156.33,4.95s-2.22,4.95-4.95,4.95c-8.32,0-15.1,6.77-15.1,15.1s6.77,15.1,15.1,15.1c2.73,0,4.95,2.22,4.95,4.95s-2.22,4.95-4.95,4.95Z"/><path class="cls-1" d="M151.38,49.98c-2.73,0-4.95-2.22-4.95-4.95s2.22-4.95,4.95-4.95c8.32,0,15.1-6.77,15.1-15.1s-6.77-15.1-15.1-15.1c-2.73,0-4.95-2.22-4.95-4.95S148.65,0,151.38,0C165.16,0,176.37,11.21,176.37,24.99s-11.21,24.99-24.99,24.99Z"/><path class="cls-1" d="M4.94,49.98c-.94,0-1.9-.27-2.74-.83-2.27-1.52-2.89-4.59-1.37-6.86L27.55,2.2c1.52-2.27,4.59-2.89,6.86-1.37,2.27,1.52,2.89,4.59,1.37,6.86L9.06,47.77c-.95,1.43-2.52,2.2-4.12,2.2Z"/><path class="cls-1" d="M68.32,49.98c-1.6,0-3.17-.77-4.12-2.2L37.48,7.69c-1.52-2.27-.9-5.35,1.37-6.86,2.27-1.52,5.35-.9,6.86,1.37l26.72,40.08c1.52,2.27.9,5.35-1.37,6.86-.84.56-1.8.83-2.74.83Z"/><path class="cls-1" d="M51.39,36.91h-29.52c-1.64,0-2.97-1.33-2.97-2.97s1.33-2.97,2.97-2.97h29.52c1.64,0,2.97,1.33,2.97,2.97s-1.33,2.97-2.97,2.97Z"/><path class="cls-1" d="M234.55,20.05c-1.64,0-2.97-1.33-2.97-2.97V2.97C231.58,1.33,232.91,0,234.55,0s2.97,1.33,2.97,2.97v14.11c0,1.64-1.33,2.97-2.97,2.97Z"/><path class="cls-1" d="M194.46,20.05c-1.64,0-2.97-1.33-2.97-2.97V2.97C191.49,1.33,192.82,0,194.46,0s2.97,1.33,2.97,2.97v14.11c0,1.64-1.33,2.97-2.97,2.97Z"/><path class="cls-1" d="M214.5,50c-13.78,0-24.99-11.21-24.99-24.99,0-2.73,2.22-4.95,4.95-4.95s4.95,2.22,4.95,4.95c0,8.32,6.77,15.1,15.1,15.1s15.1-6.77,15.1-15.1c0-2.73,2.22-4.95,4.95-4.95s4.95,2.22,4.95,4.95c0,13.78-11.21,24.99-24.99,24.99Z"/><path class="cls-1" d="M110.28,16.95c-1.64,0-2.97-1.33-2.97-2.97,0-4.44-3.61-8.05-8.05-8.05h-.26c-1.64,0-2.97-1.33-2.97-2.97S97.37,0,99.01,0h.26C106.98,0,113.25,6.27,113.25,13.98c0,1.64-1.33,2.97-2.97,2.97Z"/><path class="cls-1" d="M99.27,27.97c-1.64,0-2.97-1.33-2.97-2.97s1.33-2.97,2.97-2.97c4.44,0,8.05-3.61,8.05-8.05,0-1.64,1.33-2.97,2.97-2.97s2.97,1.33,2.97,2.97c0,7.71-6.27,13.98-13.98,13.98Z"/><path class="cls-1" d="M99.27,50h-.26c-1.64,0-2.97-1.33-2.97-2.97s1.33-2.97,2.97-2.97h.26c4.44,0,8.05-3.61,8.05-8.05,0-1.64,1.33-2.97,2.97-2.97s2.97,1.33,2.97,2.97c0,7.71-6.27,13.98-13.98,13.98Z"/><path class="cls-1" d="M110.28,38.98c-1.64,0-2.97-1.33-2.97-2.97,0-4.44-3.61-8.05-8.05-8.05-1.64,0-2.97-1.33-2.97-2.97s1.33-2.97,2.97-2.97c7.71,0,13.98,6.27,13.98,13.98,0,1.64-1.33,2.97-2.97,2.97Z"/><path class="cls-1" d="M91.35,50c-2.73,0-4.95-2.22-4.95-4.95V4.97c0-2.73,2.22-4.95,4.95-4.95s4.95,2.22,4.95,4.95v40.08c0,2.73-2.22,4.95-4.95,4.95Z"/><path class="cls-1" d="M268.62,49.97c-1.64,0-2.97-1.33-2.97-2.97V12.86c0-1.64,1.33-2.97,2.97-2.97s2.97,1.33,2.97,2.97v34.14c0,1.64-1.33,2.97-2.97,2.97Z"/><path class="cls-1" d="M279.66,9.9h-22.08c-2.73,0-4.95-2.22-4.95-4.95S254.85,0,257.58,0h22.08C282.39,0,284.61,2.22,284.61,4.95s-2.22,4.95-4.95,4.95Z"/><path class="cls-1" d="M395.79,29.94c-8.25,0-14.97-6.72-14.97-14.97S387.54,0,395.79,0C398.53,0,400.74,2.22,400.74,4.95s-2.22,4.95-4.95,4.95-5.07,2.28-5.07,5.07,2.28,5.07,5.07,5.07,4.95,2.22,4.95,4.95-2.22,4.95-4.95,4.95Z"/><path class="cls-1" d="M403.46,49.97c-1.64,0-2.97-1.33-2.97-2.97s1.33-2.97,2.97-2.97c3.89,0,7.05-3.16,7.05-7.05s-3.16-7.05-7.05-7.05c-1.64,0-2.97-1.33-2.97-2.97s1.33-2.97,2.97-2.97c7.16,0,12.99,5.83,12.99,12.99s-5.83,12.99-12.99,12.99Z"/><path class="cls-1" d="M367.01,20.05c-1.64,0-2.97-1.33-2.97-2.97V2.97C364.04,1.33,365.37,0,367.01,0s2.97,1.33,2.97,2.97v14.11c0,1.64-1.33,2.97-2.97,2.97Z"/><path class="cls-1" d="M326.92,20.05c-1.64,0-2.97-1.33-2.97-2.97V2.97C323.95,1.33,325.28,0,326.92,0s2.97,1.33,2.97,2.97v14.11c0,1.64-1.33,2.97-2.97,2.97Z"/><path class="cls-1" d="M346.96,50c-13.78,0-24.99-11.21-24.99-24.99,0-2.73,2.22-4.95,4.95-4.95s4.95,2.22,4.95,4.95c0,8.32,6.77,15.1,15.1,15.1s15.1-6.77,15.1-15.1c0-2.73,2.22-4.95,4.95-4.95s4.95,2.22,4.95,4.95c0,13.78-11.21,24.99-24.99,24.99Z"/></svg>