<?xml version="1.0" encoding="UTF-8"?><svg id="_レイヤー_1" xmlns="http://www.w3.org/2000/svg" viewBox="0 0 853.15 49.96"><defs><style>.cls-1{fill:red;}</style></defs><path class="cls-1" d="M183.59,49.97c-.94,0-1.9-.27-2.74-.83-2.27-1.52-2.89-4.59-1.37-6.86L206.2,2.2c1.52-2.27,4.59-2.89,6.86-1.37,2.27,1.52,2.89,4.59,1.37,6.86l-26.72,40.08c-.95,1.43-2.52,2.2-4.12,2.2Z"/><path class="cls-1" d="M246.96,49.97c-1.6,0-3.17-.77-4.12-2.2l-26.72-40.08c-1.52-2.27-.9-5.34,1.37-6.86,2.27-1.52,5.34-.9,6.86,1.37l26.72,40.08c1.52,2.27.9,5.34-1.37,6.86-.84.56-1.8.83-2.74.83Z"/><path class="cls-1" d="M230.04,36.9h-29.52c-1.64,0-2.97-1.33-2.97-2.97s1.33-2.97,2.97-2.97h29.52c1.64,0,2.97,1.33,2.97,2.97s-1.33,2.97-2.97,2.97Z"/><path class="cls-1" d="M273.52,49.96c-1.64,0-2.97-1.33-2.97-2.97V12.86c0-1.64,1.33-2.97,2.97-2.97s2.97,1.33,2.97,2.97v34.14c0,1.64-1.33,2.97-2.97,2.97Z"/><path class="cls-1" d="M284.56,9.89h-22.08c-2.73,0-4.95-2.21-4.95-4.95S259.75,0,262.48,0h22.08C287.29,0,289.51,2.21,289.51,4.95s-2.22,4.95-4.95,4.95Z"/><path class="cls-1" d="M340.84,5.94h-10.44c-1.64,0-2.97-1.33-2.97-2.97S328.76,0,330.4,0h10.44C342.48,0,343.81,1.33,343.81,2.97s-1.33,2.97-2.97,2.97Z"/><path class="cls-1" d="M340.84,49.98h-10.44c-1.64,0-2.97-1.33-2.97-2.97s1.33-2.97,2.97-2.97h10.44c1.64,0,2.97,1.33,2.97,2.97s-1.33,2.97-2.97,2.97Z"/><path class="cls-1" d="M335.58,44.05h0c-2.73,0-4.94-2.22-4.94-4.95l.04-28.22c0-2.73,2.22-4.94,4.95-4.94h0c2.73,0,4.94,2.22,4.94,4.95l-.04,28.22c0,2.73-2.22,4.94-4.95,4.94Z"/><path class="cls-1" d="M65.08,49.97c-13.78,0-24.99-11.21-24.99-24.99,0-2.73,2.22-4.95,4.95-4.95s4.95,2.21,4.95,4.95c0,8.32,6.77,15.1,15.1,15.1s15.1-6.77,15.1-15.1c0-2.73,2.22-4.95,4.95-4.95s4.95,2.21,4.95,4.95c0,13.78-11.21,24.99-24.99,24.99Z"/><path class="cls-1" d="M24.99,49.97C11.21,49.97,0,38.75,0,24.98c0-2.73,2.22-4.95,4.95-4.95s4.95,2.21,4.95,4.95c0,8.32,6.77,15.1,15.1,15.1s15.1-6.77,15.1-15.1c0-2.73,2.22-4.95,4.95-4.95s4.95,2.21,4.95,4.95c0,13.78-11.21,24.99-24.99,24.99Z"/><path class="cls-1" d="M85.12,20.03c-1.64,0-2.97-1.33-2.97-2.97V2.97C82.15,1.33,83.48,0,85.12,0s2.97,1.33,2.97,2.97v14.09c0,1.64-1.33,2.97-2.97,2.97Z"/><path class="cls-1" d="M45.03,20.03c-1.64,0-2.97-1.33-2.97-2.97V2.97C42.06,1.33,43.39,0,45.03,0s2.97,1.33,2.97,2.97v14.09c0,1.64-1.33,2.97-2.97,2.97Z"/><path class="cls-1" d="M4.95,20.03c-1.64,0-2.97-1.33-2.97-2.97V2.97C1.98,1.33,3.31,0,4.95,0s2.97,1.33,2.97,2.97v14.09c0,1.64-1.33,2.97-2.97,2.97Z"/><path class="cls-1" d="M371.9,29.94c-8.25,0-14.97-6.71-14.97-14.97S363.65,0,371.9,0C374.63,0,376.85,2.21,376.85,4.95s-2.22,4.95-4.95,4.95-5.07,2.28-5.07,5.07,2.28,5.07,5.07,5.07,4.95,2.21,4.95,4.95-2.22,4.95-4.95,4.95Z"/><path class="cls-1" d="M379.56,49.96c-1.64,0-2.97-1.33-2.97-2.97s1.33-2.97,2.97-2.97c3.89,0,7.05-3.16,7.05-7.05s-3.16-7.05-7.05-7.05c-1.64,0-2.97-1.33-2.97-2.97s1.33-2.97,2.97-2.97c7.16,0,12.99,5.83,12.99,12.99s-5.83,12.99-12.99,12.99Z"/><path class="cls-1" d="M152.66,27.95h-36.61c-1.64,0-2.97-1.33-2.97-2.97s1.33-2.97,2.97-2.97h36.61c1.64,0,2.97,1.33,2.97,2.97s-1.33,2.97-2.97,2.97Z"/><path class="cls-1" d="M108.14,49.97c-2.73,0-4.95-2.21-4.95-4.95V4.95C103.19,2.21,105.41,0,108.14,0s4.95,2.21,4.95,4.95v40.08c0,2.73-2.22,4.95-4.95,4.95Z"/><path class="cls-1" d="M160.58,49.97c-2.73,0-4.95-2.21-4.95-4.95V4.95C155.63,2.21,157.84,0,160.58,0s4.95,2.21,4.95,4.95v40.08c0,2.73-2.22,4.95-4.95,4.95Z"/><path class="cls-1" d="M522.63,49.98c-13.78,0-24.99-11.21-24.99-24.99S508.85,0,522.63,0C525.36,0,527.57,2.21,527.57,4.95s-2.22,4.95-4.95,4.95c-8.32,0-15.1,6.77-15.1,15.1s6.77,15.1,15.1,15.1c2.73,0,4.95,2.21,4.95,4.95s-2.22,4.95-4.95,4.95Z"/><path class="cls-1" d="M522.63,49.98c-2.73,0-4.95-2.21-4.95-4.95s2.22-4.95,4.95-4.95c8.32,0,15.1-6.77,15.1-15.1s-6.77-15.1-15.1-15.1c-2.73,0-4.95-2.21-4.95-4.95S519.9,0,522.63,0C536.41,0,547.62,11.21,547.62,24.99s-11.21,24.99-24.99,24.99Z"/><path class="cls-1" d="M692.36,49.98c-13.78,0-24.99-11.21-24.99-24.99S678.58,0,692.36,0C695.09,0,697.3,2.21,697.3,4.95s-2.22,4.95-4.95,4.95c-8.32,0-15.1,6.77-15.1,15.1s6.77,15.1,15.1,15.1c2.73,0,4.95,2.21,4.95,4.95s-2.22,4.95-4.95,4.95Z"/><path class="cls-1" d="M692.36,49.98c-2.73,0-4.95-2.21-4.95-4.95s2.22-4.95,4.95-4.95c8.32,0,15.1-6.77,15.1-15.1s-6.77-15.1-15.1-15.1c-2.73,0-4.95-2.21-4.95-4.95S689.63,0,692.36,0C706.14,0,717.35,11.21,717.35,24.99s-11.21,24.99-24.99,24.99Z"/><path class="cls-1" d="M785.74,5.94h-10.44c-1.64,0-2.97-1.33-2.97-2.97S773.67,0,775.31,0h10.44C787.38,0,788.71,1.33,788.71,2.97s-1.33,2.97-2.97,2.97Z"/><path class="cls-1" d="M785.74,49.98h-10.44c-1.64,0-2.97-1.33-2.97-2.97s1.33-2.97,2.97-2.97h10.44c1.64,0,2.97,1.33,2.97,2.97s-1.33,2.97-2.97,2.97Z"/><path class="cls-1" d="M780.48,44.05h0c-2.73,0-4.94-2.22-4.94-4.95l.04-28.22c0-2.73,2.22-4.94,4.95-4.94h0c2.73,0,4.94,2.22,4.94,4.95l-.04,28.22c0,2.73-2.22,4.94-4.95,4.94Z"/><path class="cls-1" d="M652.35,16.95c-1.64,0-2.97-1.33-2.97-2.97,0-4.44-3.61-8.05-8.05-8.05h-.26c-1.64,0-2.97-1.33-2.97-2.97S639.44,0,641.08,0h.26C649.05,0,655.32,6.27,655.32,13.98c0,1.64-1.33,2.97-2.97,2.97Z"/><path class="cls-1" d="M641.34,27.97c-1.64,0-2.97-1.33-2.97-2.97s1.33-2.97,2.97-2.97c4.44,0,8.05-3.61,8.05-8.05,0-1.64,1.33-2.97,2.97-2.97s2.97,1.33,2.97,2.97c0,7.71-6.27,13.98-13.98,13.98Z"/><path class="cls-1" d="M641.34,50h-.26c-1.64,0-2.97-1.33-2.97-2.97s1.33-2.97,2.97-2.97h.26c4.44,0,8.05-3.61,8.05-8.05,0-1.64,1.33-2.97,2.97-2.97s2.97,1.33,2.97,2.97c0,7.71-6.27,13.98-13.98,13.98Z"/><path class="cls-1" d="M652.35,38.98c-1.64,0-2.97-1.33-2.97-2.97,0-4.44-3.61-8.05-8.05-8.05-1.64,0-2.97-1.33-2.97-2.97s1.33-2.97,2.97-2.97c7.71,0,13.98,6.27,13.98,13.98,0,1.64-1.33,2.97-2.97,2.97Z"/><path class="cls-1" d="M633.42,49.99c-2.73,0-4.95-2.21-4.95-4.95V4.97c0-2.73,2.22-4.95,4.95-4.95s4.95,2.21,4.95,4.95v40.08c0,2.73-2.22,4.95-4.95,4.95Z"/><path class="cls-1" d="M471.9,50c-.96,0-1.9-.46-2.47-1.32l-29.38-44.06c-.91-1.36-.54-3.21.82-4.12,1.36-.91,3.21-.54,4.12.82l29.38,44.06c.91,1.36.54,3.21-.82,4.12-.51.34-1.08.5-1.64.5Z"/><path class="cls-1" d="M434.86,49.99c-2.73,0-4.95-2.21-4.95-4.95V4.97c0-2.73,2.22-4.95,4.95-4.95s4.95,2.21,4.95,4.95v40.08c0,2.73-2.22,4.95-4.95,4.95Z"/><path class="cls-1" d="M479.56,49.99c-2.73,0-4.95-2.21-4.95-4.95V4.97c0-2.73,2.22-4.95,4.95-4.95s4.95,2.21,4.95,4.95v40.08c0,2.73-2.22,4.95-4.95,4.95Z"/><path class="cls-1" d="M602.73,50c-.96,0-1.9-.46-2.47-1.32l-29.38-44.06c-.91-1.36-.54-3.21.82-4.12,1.36-.91,3.21-.54,4.12.82l29.38,44.06c.91,1.36.54,3.21-.82,4.12-.51.34-1.08.5-1.64.5Z"/><path class="cls-1" d="M565.69,49.99c-2.73,0-4.95-2.21-4.95-4.95V4.97c0-2.73,2.22-4.95,4.95-4.95s4.95,2.21,4.95,4.95v40.08c0,2.73-2.22,4.95-4.95,4.95Z"/><path class="cls-1" d="M610.39,49.99c-2.73,0-4.95-2.21-4.95-4.95V4.97c0-2.73,2.22-4.95,4.95-4.95s4.95,2.21,4.95,4.95v40.08c0,2.73-2.22,4.95-4.95,4.95Z"/><path class="cls-1" d="M743.33,31.77c-1.64,0-2.97-1.33-2.97-2.97s1.33-2.97,2.97-2.97c5.49,0,9.95-4.46,9.95-9.95s-4.46-9.95-9.95-9.95h-.24c-1.64,0-2.97-1.33-2.97-2.97S741.44,0,743.08,0h.24C752.08,0,759.21,7.13,759.21,15.88s-7.13,15.88-15.88,15.88Z"/><path class="cls-1" d="M756.25,49.98c-.96,0-1.9-.46-2.47-1.32l-8.53-12.79c-.91-1.36-.54-3.21.82-4.12s3.21-.54,4.12.82l8.53,12.79c.91,1.36.54,3.21-.82,4.12-.51.34-1.08.5-1.64.5Z"/><path class="cls-1" d="M735.42,49.99c-2.73,0-4.95-2.21-4.95-4.95V4.97c0-2.73,2.22-4.95,4.95-4.95s4.95,2.21,4.95,4.95v40.08c0,2.73-2.22,4.95-4.95,4.95Z"/><path class="cls-1" d="M850.19,16.43c-1.64,0-2.97-1.33-2.97-2.97,0-4.15-3.38-7.52-7.52-7.52s-7.52,3.38-7.52,7.52c0,1.64-1.33,2.97-2.97,2.97s-2.97-1.33-2.97-2.97C826.24,6.04,832.27,0,839.7,0s13.46,6.04,13.46,13.46c0,1.64-1.33,2.97-2.97,2.97Z"/><path class="cls-1" d="M839.7,26.92c-1.64,0-2.97-1.33-2.97-2.97s1.33-2.97,2.97-2.97c4.15,0,7.52-3.38,7.52-7.52,0-1.64,1.33-2.97,2.97-2.97s2.97,1.33,2.97,2.97c0,7.42-6.04,13.46-13.46,13.46Z"/><path class="cls-1" d="M839.7,41.02c-2.73,0-4.95-2.21-4.95-4.95v-4.21c0-2.73,2.21-4.95,4.95-4.95s4.95,2.21,4.95,4.95v4.21c0,2.73-2.21,4.95-4.95,4.95Z"/><path class="cls-1" d="M839.7,49.96c-1.64,0-2.97-1.33-2.97-2.97v-3.01c0-1.64,1.33-2.97,2.97-2.97s2.97,1.33,2.97,2.97v3.01c0,1.64-1.33,2.97-2.97,2.97Z"/></svg>