<?xml version="1.0" encoding="UTF-8"?><svg id="_レイヤー_1" xmlns="http://www.w3.org/2000/svg" viewBox="0 0 197.08 32.98"><defs><style>.cls-1{fill:red;}</style></defs><path class="cls-1" d="M97.12,32.99c-9.1,0-16.49-7.4-16.49-16.49S88.03,0,97.12,0C98.93,0,100.39,1.46,100.39,3.27s-1.46,3.27-3.27,3.27c-5.49,0-9.96,4.47-9.96,9.96s4.47,9.96,9.96,9.96c1.8,0,3.27,1.46,3.27,3.27s-1.46,3.27-3.27,3.27Z"/><path class="cls-1" d="M97.12,32.99c-1.8,0-3.27-1.46-3.27-3.27s1.46-3.27,3.27-3.27c5.49,0,9.96-4.47,9.96-9.96s-4.47-9.96-9.96-9.96c-1.8,0-3.27-1.46-3.27-3.27S95.32,0,97.12,0C106.22,0,113.62,7.4,113.62,16.49s-7.4,16.49-16.49,16.49Z"/><path class="cls-1" d="M165.4,32.99c-9.1,0-16.49-7.4-16.49-16.49S156.3,0,165.4,0C167.2,0,168.66,1.46,168.66,3.27s-1.46,3.27-3.27,3.27c-5.49,0-9.96,4.47-9.96,9.96s4.47,9.96,9.96,9.96c1.8,0,3.27,1.46,3.27,3.27s-1.46,3.27-3.27,3.27Z"/><path class="cls-1" d="M165.4,32.99c-1.8,0-3.27-1.46-3.27-3.27s1.46-3.27,3.27-3.27c5.49,0,9.96-4.47,9.96-9.96s-4.47-9.96-9.96-9.96c-1.8,0-3.27-1.46-3.27-3.27S163.59,0,165.4,0C174.49,0,181.89,7.4,181.89,16.49s-7.4,16.49-16.49,16.49Z"/><path class="cls-1" d="M3.26,32.99c-.62,0-1.25-.18-1.81-.55-1.5-1-1.91-3.03-.91-4.53L18.18,1.45c1-1.5,3.03-1.91,4.53-.91,1.5,1,1.91,3.03.91,4.53L5.98,31.53c-.63.94-1.66,1.45-2.72,1.45Z"/><path class="cls-1" d="M45.09,32.99c-1.06,0-2.09-.51-2.72-1.45L24.73,5.08c-1-1.5-.6-3.53.91-4.53,1.5-1,3.53-.59,4.53.91l17.64,26.45c1,1.5.6,3.53-.91,4.53-.56.37-1.19.55-1.81.55Z"/><path class="cls-1" d="M33.92,24.36H14.44c-1.08,0-1.96-.88-1.96-1.96s.88-1.96,1.96-1.96h19.48c1.08,0,1.96.88,1.96,1.96s-.88,1.96-1.96,1.96Z"/><path class="cls-1" d="M60.11,19.76c-5.45,0-9.88-4.43-9.88-9.88S54.66,0,60.11,0C61.91,0,63.38,1.46,63.38,3.27s-1.46,3.27-3.27,3.27-3.35,1.5-3.35,3.35,1.5,3.35,3.35,3.35,3.27,1.46,3.27,3.27-1.46,3.27-3.27,3.27Z"/><path class="cls-1" d="M65.17,32.98c-1.08,0-1.96-.88-1.96-1.96s.88-1.96,1.96-1.96c2.57,0,4.66-2.09,4.66-4.66s-2.09-4.66-4.66-4.66c-1.08,0-1.96-.88-1.96-1.96s.88-1.96,1.96-1.96c4.73,0,8.57,3.85,8.57,8.57s-3.85,8.57-8.57,8.57Z"/><path class="cls-1" d="M138.28,11.19c-1.08,0-1.96-.88-1.96-1.96,0-2.93-2.38-5.31-5.31-5.31h-.17c-1.08,0-1.96-.88-1.96-1.96S129.76,0,130.84,0h.17C136.1,0,140.24,4.14,140.24,9.23c0,1.08-.88,1.96-1.96,1.96Z"/><path class="cls-1" d="M131.01,18.46c-1.08,0-1.96-.88-1.96-1.96s.88-1.96,1.96-1.96c2.93,0,5.31-2.38,5.31-5.31,0-1.08.88-1.96,1.96-1.96s1.96.88,1.96,1.96c0,5.09-4.14,9.23-9.23,9.23Z"/><path class="cls-1" d="M131.01,33h-.17c-1.08,0-1.96-.88-1.96-1.96s.88-1.96,1.96-1.96h.17c2.93,0,5.31-2.38,5.31-5.31,0-1.08.88-1.96,1.96-1.96s1.96.88,1.96,1.96c0,5.09-4.14,9.23-9.23,9.23Z"/><path class="cls-1" d="M138.28,25.73c-1.08,0-1.96-.88-1.96-1.96,0-2.93-2.38-5.31-5.31-5.31-1.08,0-1.96-.88-1.96-1.96s.88-1.96,1.96-1.96c5.09,0,9.23,4.14,9.23,9.23,0,1.08-.88,1.96-1.96,1.96Z"/><path class="cls-1" d="M125.78,33c-1.8,0-3.27-1.46-3.27-3.27V3.28c0-1.8,1.46-3.27,3.27-3.27s3.27,1.46,3.27,3.27v26.45c0,1.8-1.46,3.27-3.27,3.27Z"/><path class="cls-1" d="M193.82,26.48c-1.8,0-3.26-1.46-3.26-3.26V3.26C190.56,1.46,192.02,0,193.82,0s3.26,1.46,3.26,3.26v19.95c0,1.8-1.46,3.26-3.26,3.26Z"/><path class="cls-1" d="M193.82,32.98c-1.08,0-1.96-.88-1.96-1.96v-2.63c0-1.08.88-1.96,1.96-1.96s1.96.88,1.96,1.96v2.63c0,1.08-.88,1.96-1.96,1.96Z"/></svg>