<?xml version="1.0" encoding="UTF-8"?><svg id="_レイヤー_1" xmlns="http://www.w3.org/2000/svg" viewBox="0 0 211.78 89.68"><defs><style>.cls-1{fill:red;}</style></defs><path class="cls-1" d="M92.31,50.55c-1.81-1.21-4.26-.72-5.47,1.09l-21.27,31.91c-1.21,1.81-.72,4.26,1.09,5.47.67.45,1.43.66,2.18.66,1.27,0,2.52-.62,3.28-1.76l21.27-31.91c1.21-1.81.72-4.26-1.09-5.47Z"/><path class="cls-1" d="M101.31,51.64c-1.21-1.81-3.66-2.3-5.47-1.09-1.81,1.21-2.3,3.65-1.09,5.47l21.27,31.91c.76,1.14,2.01,1.76,3.28,1.76.75,0,1.51-.21,2.18-.66,1.81-1.21,2.3-3.66,1.09-5.47l-21.27-31.91Z"/><path class="cls-1" d="M105.84,74.56h-23.52c-1.31,0-2.37,1.06-2.37,2.37s1.06,2.37,2.37,2.37h23.52c1.31,0,2.37-1.06,2.37-2.37s-1.06-2.37-2.37-2.37Z"/><path class="cls-1" d="M54.38,49.88c-2.18,0-3.94,1.76-3.94,3.94v16.34c-.02-1.29-1.07-2.33-2.36-2.33h-29.17c-1.29,0-2.33,1.03-2.36,2.31v-16.33c0-2.18-1.76-3.94-3.94-3.94s-3.94,1.76-3.94,3.94v31.92c0,2.18,1.76,3.94,3.94,3.94s3.94-1.76,3.94-3.94v-15.49c.03,1.28,1.07,2.31,2.36,2.31h29.17c1.29,0,2.34-1.04,2.36-2.33v15.5c0,2.18,1.76,3.94,3.94,3.94s3.94-1.76,3.94-3.94v-31.92c0-2.18-1.76-3.94-3.94-3.94Z"/><path class="cls-1" d="M140.75,49.9h-.19c-1.31,0-2.37,1.06-2.37,2.37s1.06,2.37,2.37,2.37h.19c4.37,0,7.93,3.56,7.93,7.93s-3.56,7.93-7.93,7.93c-1.28,0-2.33,1.02-2.36,2.3v-18.95c0-2.18-1.76-3.94-3.94-3.94s-3.94,1.76-3.94,3.94v31.98c0,2.18,1.76,3.94,3.94,3.94s3.94-1.76,3.94-3.94v-12.89c.04,1.27,1.08,2.3,2.36,2.3,6.98,0,12.66-5.68,12.66-12.66s-5.68-12.66-12.66-12.66Z"/><path class="cls-1" d="M146.1,75.88c-.72-1.09-2.19-1.38-3.28-.66-1.09.72-1.38,2.19-.66,3.28l6.78,10.17c.46.68,1.21,1.05,1.97,1.05.45,0,.91-.13,1.31-.4,1.09-.72,1.38-2.19.66-3.28l-6.78-10.17Z"/><path class="cls-1" d="M199.25,57.81c1.27-.04,2.29-1.08,2.29-2.36v-3.2c0-1.31-1.06-2.37-2.37-2.37s-2.37,1.06-2.37,2.37v3.2c0,1.28,1.02,2.32,2.29,2.36-2.14.04-3.87,1.79-3.87,3.94v8.07c0,6.63-5.4,12.03-12.03,12.03s-12.03-5.4-12.03-12.03v-8.07c0-2.15-1.73-3.9-3.87-3.94,1.27-.04,2.29-1.08,2.29-2.36v-3.2c0-1.31-1.06-2.37-2.37-2.37s-2.37,1.06-2.37,2.37v3.2c0,1.28,1.02,2.32,2.29,2.36-2.14.04-3.87,1.79-3.87,3.94v8.07c0,10.98,8.93,19.91,19.91,19.91s19.91-8.93,19.91-19.91v-8.07c0-2.15-1.73-3.9-3.87-3.94Z"/><path class="cls-1" d="M185.05,19.99c-5.51,0-9.99-4.48-9.99-9.99S179.54,0,185.05,0C186.14,0,187.02.89,187.02,1.98s-.89,1.98-1.98,1.98c-3.33,0-6.04,2.71-6.04,6.04s2.71,6.04,6.04,6.04c1.09,0,1.98.89,1.98,1.98s-.89,1.98-1.98,1.98Z"/><path class="cls-1" d="M185.05,19.99c-1.09,0-1.98-.89-1.98-1.98s.89-1.98,1.98-1.98c3.33,0,6.04-2.71,6.04-6.04s-2.71-6.04-6.04-6.04c-1.09,0-1.98-.89-1.98-1.98S183.95,0,185.05,0C190.56,0,195.04,4.48,195.04,9.99s-4.48,9.99-9.99,9.99Z"/><path class="cls-1" d="M1.98,19.98c-.38,0-.76-.11-1.1-.33-.91-.61-1.15-1.83-.55-2.74L11.02.88c.61-.91,1.83-1.15,2.74-.55.91.61,1.15,1.83.55,2.74L3.62,19.1c-.38.57-1.01.88-1.65.88Z"/><path class="cls-1" d="M27.32,19.98c-.64,0-1.27-.31-1.65-.88L14.98,3.08c-.61-.91-.36-2.14.55-2.74.91-.61,2.14-.36,2.74.55l10.68,16.03c.61.91.36,2.14-.55,2.74-.34.22-.72.33-1.1.33Z"/><path class="cls-1" d="M20.55,14.76h-11.8c-.66,0-1.19-.53-1.19-1.19s.53-1.19,1.19-1.19h11.8c.66,0,1.19.53,1.19,1.19s-.53,1.19-1.19,1.19Z"/><path class="cls-1" d="M165.67,19.98c-.66,0-1.19-.53-1.19-1.19V5.14c0-.66.53-1.19,1.19-1.19s1.19.53,1.19,1.19v13.65c0,.66-.53,1.19-1.19,1.19Z"/><path class="cls-1" d="M170.08,3.96h-8.83c-1.09,0-1.98-.89-1.98-1.98S160.16,0,161.25,0h8.83C171.17,0,172.06.89,172.06,1.98s-.89,1.98-1.98,1.98Z"/><path class="cls-1" d="M57.55,19.98c-.66,0-1.19-.53-1.19-1.19V5.14c0-.66.53-1.19,1.19-1.19s1.19.53,1.19,1.19v13.65c0,.66-.53,1.19-1.19,1.19Z"/><path class="cls-1" d="M61.96,3.96h-8.83c-1.09,0-1.98-.89-1.98-1.98S52.04,0,53.13,0h8.83C63.06,0,63.94.89,63.94,1.98s-.89,1.98-1.98,1.98Z"/><path class="cls-1" d="M104.06,2.37h-4.17c-.66,0-1.19-.53-1.19-1.19S99.24,0,99.89,0h4.17C104.72,0,105.25.53,105.25,1.19s-.53,1.19-1.19,1.19Z"/><path class="cls-1" d="M104.06,19.99h-4.17c-.66,0-1.19-.53-1.19-1.19s.53-1.19,1.19-1.19h4.17c.66,0,1.19.53,1.19,1.19s-.53,1.19-1.19,1.19Z"/><path class="cls-1" d="M101.96,17.61h0c-1.09,0-1.98-.89-1.98-1.98l.02-11.29c0-1.09.89-1.98,1.98-1.98h0c1.09,0,1.98.89,1.98,1.98l-.02,11.29c0,1.09-.89,1.98-1.98,1.98Z"/><path class="cls-1" d="M152.99,19.99c-5.51,0-10-4.48-10-10,0-1.09.89-1.98,1.98-1.98s1.98.89,1.98,1.98c0,3.33,2.71,6.04,6.04,6.04,1.09,0,1.98.89,1.98,1.98s-.89,1.98-1.98,1.98Z"/><path class="cls-1" d="M144.97,11.97c-1.09,0-1.98-.89-1.98-1.98C142.99,4.48,147.48,0,152.99,0,154.08,0,154.97.89,154.97,1.98s-.89,1.98-1.98,1.98c-3.33,0-6.04,2.71-6.04,6.04,0,1.09-.89,1.98-1.98,1.98Z"/><path class="cls-1" d="M80.29,19.99c-.66,0-1.19-.53-1.19-1.19V1.19C79.11.53,79.64,0,80.29,0s1.19.53,1.19,1.19v17.62c0,.66-.53,1.19-1.19,1.19Z"/><path class="cls-1" d="M83.46,19.99c-1.09,0-1.98-.89-1.98-1.98s.89-1.98,1.98-1.98c3.33,0,6.04-2.71,6.04-6.04,0-1.09.89-1.98,1.98-1.98s1.98.89,1.98,1.98c0,5.51-4.48,10-10,10Z"/><path class="cls-1" d="M91.48,11.97c-1.09,0-1.98-.89-1.98-1.98,0-3.33-2.71-6.04-6.04-6.04-1.09,0-1.98-.89-1.98-1.98S82.37,0,83.46,0C88.97,0,93.46,4.48,93.46,10c0,1.09-.89,1.98-1.98,1.98Z"/><path class="cls-1" d="M136.56,2.37h-4.27c-.66,0-1.19-.53-1.19-1.19S131.63,0,132.28,0h4.27c.66,0,1.19.53,1.19,1.19s-.53,1.19-1.19,1.19Z"/><path class="cls-1" d="M136.56,19.99h-4.27c-.66,0-1.19-.53-1.19-1.19s.53-1.19,1.19-1.19h4.27c.66,0,1.19.53,1.19,1.19s-.53,1.19-1.19,1.19Z"/><path class="cls-1" d="M129.22,19.99c-1.09,0-1.98-.89-1.98-1.98V1.99c0-1.09.89-1.98,1.98-1.98s1.98.89,1.98,1.98v16.03c0,1.09-.89,1.98-1.98,1.98Z"/><path class="cls-1" d="M136.56,11.18h-4.17c-.66,0-1.19-.53-1.19-1.19s.53-1.19,1.19-1.19h4.17c.66,0,1.19.53,1.19,1.19s-.53,1.19-1.19,1.19Z"/><path class="cls-1" d="M205.43,12.7c-.66,0-1.19-.53-1.19-1.19s.53-1.19,1.19-1.19c2.19,0,3.98-1.78,3.98-3.98s-1.78-3.98-3.98-3.98h-.1c-.66,0-1.19-.53-1.19-1.19S204.67,0,205.33,0h.1C208.93,0,211.78,2.85,211.78,6.35s-2.85,6.35-6.35,6.35Z"/><path class="cls-1" d="M210.59,19.99c-.38,0-.76-.19-.99-.53l-3.41-5.12c-.36-.55-.22-1.28.33-1.65s1.28-.22,1.65.33l3.41,5.12c.36.55.22,1.28-.33,1.65-.2.13-.43.2-.66.2Z"/><path class="cls-1" d="M202.27,19.99c-1.09,0-1.98-.89-1.98-1.98V1.99c0-1.09.89-1.98,1.98-1.98s1.98.89,1.98,1.98v16.03c0,1.09-.89,1.98-1.98,1.98Z"/><path class="cls-1" d="M115.64,12.7c-.66,0-1.19-.53-1.19-1.19s.53-1.19,1.19-1.19c2.19,0,3.98-1.78,3.98-3.98s-1.78-3.98-3.98-3.98h-.1c-.66,0-1.19-.53-1.19-1.19S114.89,0,115.54,0h.1C119.14,0,121.99,2.85,121.99,6.35s-2.85,6.35-6.35,6.35Z"/><path class="cls-1" d="M120.81,19.99c-.38,0-.76-.19-.99-.53l-3.41-5.12c-.36-.55-.22-1.28.33-1.65s1.28-.22,1.65.33l3.41,5.12c.36.55.22,1.28-.33,1.65-.2.13-.43.2-.66.2Z"/><path class="cls-1" d="M112.48,19.99c-1.09,0-1.98-.89-1.98-1.98V1.99c0-1.09.89-1.98,1.98-1.98s1.98.89,1.98,1.98v16.03c0,1.09-.89,1.98-1.98,1.98Z"/><path class="cls-1" d="M39.64,12.7c-.66,0-1.19-.53-1.19-1.19s.53-1.19,1.19-1.19c2.19,0,3.98-1.78,3.98-3.98s-1.78-3.98-3.98-3.98h-.1c-.66,0-1.19-.53-1.19-1.19S38.89,0,39.54,0h.1C43.14,0,45.99,2.85,45.99,6.35s-2.85,6.35-6.35,6.35Z"/><path class="cls-1" d="M44.81,19.99c-.38,0-.76-.19-.99-.53l-3.41-5.12c-.36-.55-.22-1.28.33-1.65s1.28-.22,1.65.33l3.41,5.12c.36.55.22,1.28-.33,1.65-.2.13-.43.2-.66.2Z"/><path class="cls-1" d="M36.48,19.99c-1.09,0-1.98-.89-1.98-1.98V1.99c0-1.09.89-1.98,1.98-1.98s1.98.89,1.98,1.98v16.03c0,1.09-.89,1.98-1.98,1.98Z"/></svg>