<?xml version="1.0" encoding="UTF-8"?><svg id="_レイヤー_1" xmlns="http://www.w3.org/2000/svg" viewBox="0 0 257.69 89.68"><defs><style>.cls-1{fill:red;}</style></defs><path class="cls-1" d="M198.19,49.88c-10.98,0-19.91,8.93-19.91,19.91s8.93,19.91,19.91,19.91,19.91-8.93,19.91-19.91-8.93-19.91-19.91-19.91ZM198.19,81.82c-6.63,0-12.03-5.4-12.03-12.03s5.4-12.03,12.03-12.03,12.03,5.4,12.03,12.03-5.4,12.03-12.03,12.03Z"/><path class="cls-1" d="M109.85,49.88h-8.32c-1.31,0-2.37,1.06-2.37,2.37s1.06,2.37,2.37,2.37h8.32c1.31,0,2.37-1.06,2.37-2.37s-1.06-2.37-2.37-2.37Z"/><path class="cls-1" d="M109.85,84.89h-3.96c2.08-.1,3.74-1.82,3.74-3.93v-22.41c0-2.18-1.76-3.94-3.94-3.94s-3.94,1.76-3.94,3.94v22.41c0,2.11,1.66,3.83,3.74,3.93h-3.96c-1.31,0-2.37,1.06-2.37,2.37s1.06,2.37,2.37,2.37h8.32c1.31,0,2.37-1.06,2.37-2.37s-1.06-2.37-2.37-2.37Z"/><path class="cls-1" d="M69.31,49.88c-6.53,0-12.34,3.16-15.97,8.03-3.63-4.87-9.44-8.03-15.97-8.03-10.98,0-19.91,8.93-19.91,19.91,0,2.17,1.75,3.93,3.92,3.94-1.3.01-2.35,1.06-2.35,2.36v11.24c0,1.31,1.06,2.37,2.37,2.37s2.37-1.06,2.37-2.37v-11.24c0-1.3-1.05-2.35-2.35-2.36,2.17-.01,3.92-1.77,3.92-3.94,0-6.63,5.4-12.03,12.03-12.03s12.03,5.4,12.03,12.03c0,2.17,1.75,3.93,3.92,3.94-1.3.01-2.35,1.06-2.35,2.36v11.24c0,1.31,1.06,2.37,2.37,2.37s2.37-1.06,2.37-2.37v-11.24c0-1.3-1.05-2.35-2.35-2.36,2.17-.01,3.92-1.77,3.92-3.94,0-6.63,5.4-12.03,12.03-12.03s12.03,5.4,12.03,12.03c0,2.17,1.75,3.93,3.92,3.94-1.3.01-2.35,1.06-2.35,2.36v11.24c0,1.31,1.06,2.37,2.37,2.37s2.37-1.06,2.37-2.37v-11.24c0-1.3-1.05-2.35-2.35-2.36,2.17-.01,3.92-1.77,3.92-3.94,0-10.98-8.93-19.91-19.91-19.91Z"/><path class="cls-1" d="M169.7,61.08c0-6.13-4.99-11.13-11.13-11.13h-.19c-1.31,0-2.37,1.06-2.37,2.37s1.06,2.37,2.37,2.37h.19c3.53,0,6.4,2.87,6.4,6.4s-2.87,6.4-6.4,6.4c-1.31,0-2.37,1.06-2.37,2.37s1.06,2.37,2.37,2.37c3.53,0,6.4,2.87,6.4,6.4s-2.87,6.4-6.4,6.4h-.19c-1.31,0-2.37,1.06-2.37,2.37s1.06,2.37,2.37,2.37h.19c6.14,0,11.13-4.99,11.13-11.13,0-3.55-1.68-6.72-4.28-8.76,2.6-2.04,4.28-5.21,4.28-8.76Z"/><path class="cls-1" d="M156.2,53.82c0-2.18-1.76-3.94-3.94-3.94s-3.94,1.76-3.94,3.94v31.97c0,2.18,1.76,3.94,3.94,3.94s3.94-1.76,3.94-3.94v-31.97Z"/><path class="cls-1" d="M134.42,67.35h-8.32c-2.18,0-3.94,1.76-3.94,3.94s1.76,3.94,3.94,3.94h8.32c2.18,0,3.94-1.76,3.94-3.94s-1.76-3.94-3.94-3.94Z"/><path class="cls-1" d="M238.55,67.39h-8.32c-2.18,0-3.94,1.76-3.94,3.94s1.76,3.94,3.94,3.94h8.32c2.18,0,3.94-1.76,3.94-3.94s-1.76-3.94-3.94-3.94Z"/><path class="cls-1" d="M204.55,2.37h-4.17c-.66,0-1.19-.53-1.19-1.19S199.73,0,200.38,0h4.17C205.21,0,205.74.53,205.74,1.19s-.53,1.19-1.19,1.19Z"/><path class="cls-1" d="M204.55,19.97h-4.17c-.66,0-1.19-.53-1.19-1.19s.53-1.19,1.19-1.19h4.17c.66,0,1.19.53,1.19,1.19s-.53,1.19-1.19,1.19Z"/><path class="cls-1" d="M202.45,17.6h0c-1.09,0-1.98-.89-1.97-1.98l.02-11.28c0-1.09.89-1.97,1.98-1.97h0c1.09,0,1.98.89,1.97,1.98l-.02,11.28c0,1.09-.89,1.97-1.98,1.97Z"/><path class="cls-1" d="M180.83,19.98c-.66,0-1.19-.53-1.19-1.19V1.19C179.64.53,180.17,0,180.83,0s1.19.53,1.19,1.19v17.6c0,.66-.53,1.19-1.19,1.19Z"/><path class="cls-1" d="M183.99,19.98c-1.09,0-1.98-.89-1.98-1.98s.89-1.98,1.98-1.98c3.33,0,6.04-2.71,6.04-6.04,0-1.09.89-1.98,1.98-1.98s1.98.89,1.98,1.98c0,5.51-4.48,9.99-9.99,9.99Z"/><path class="cls-1" d="M192,11.97c-1.09,0-1.98-.89-1.98-1.98,0-3.33-2.71-6.04-6.04-6.04-1.09,0-1.98-.89-1.98-1.98S182.9,0,183.99,0C189.5,0,193.98,4.48,193.98,9.99c0,1.09-.89,1.98-1.98,1.98Z"/><path class="cls-1" d="M216.97,11.96c-3.3,0-5.98-2.68-5.98-5.98S213.67,0,216.97,0C218.06,0,218.94.89,218.94,1.98s-.89,1.98-1.98,1.98-2.03.91-2.03,2.03.91,2.03,2.03,2.03,1.98.89,1.98,1.98-.89,1.98-1.98,1.98Z"/><path class="cls-1" d="M220.03,19.97c-.66,0-1.19-.53-1.19-1.19s.53-1.19,1.19-1.19c1.55,0,2.82-1.26,2.82-2.82s-1.26-2.82-2.82-2.82c-.66,0-1.19-.53-1.19-1.19s.53-1.19,1.19-1.19c2.86,0,5.19,2.33,5.19,5.19s-2.33,5.19-5.19,5.19Z"/><path class="cls-1" d="M110.53,11.17h-14.63c-.66,0-1.19-.53-1.19-1.19s.53-1.19,1.19-1.19h14.63c.66,0,1.19.53,1.19,1.19s-.53,1.19-1.19,1.19Z"/><path class="cls-1" d="M92.74,19.97c-1.09,0-1.98-.89-1.98-1.98V1.98C90.76.89,91.65,0,92.74,0s1.98.89,1.98,1.98v16.02c0,1.09-.89,1.98-1.98,1.98Z"/><path class="cls-1" d="M113.69,19.97c-1.09,0-1.98-.89-1.98-1.98V1.98C111.72.89,112.6,0,113.69,0s1.98.89,1.98,1.98v16.02c0,1.09-.89,1.98-1.98,1.98Z"/><path class="cls-1" d="M239.77,2.37h-4.27c-.66,0-1.19-.53-1.19-1.19S234.85,0,235.5,0h4.27c.66,0,1.19.53,1.19,1.19s-.53,1.19-1.19,1.19Z"/><path class="cls-1" d="M239.77,19.98h-4.27c-.66,0-1.19-.53-1.19-1.19s.53-1.19,1.19-1.19h4.27c.66,0,1.19.53,1.19,1.19s-.53,1.19-1.19,1.19Z"/><path class="cls-1" d="M232.44,19.98c-1.09,0-1.98-.89-1.98-1.98V1.98c0-1.09.89-1.98,1.98-1.98s1.98.89,1.98,1.98v16.02c0,1.09-.89,1.98-1.98,1.98Z"/><path class="cls-1" d="M239.77,11.17h-4.17c-.66,0-1.19-.53-1.19-1.19s.53-1.19,1.19-1.19h4.17c.66,0,1.19.53,1.19,1.19s-.53,1.19-1.19,1.19Z"/><path class="cls-1" d="M50.54,2.37h-4.27c-.66,0-1.19-.53-1.19-1.19S45.62,0,46.27,0h4.27c.66,0,1.19.53,1.19,1.19s-.53,1.19-1.19,1.19Z"/><path class="cls-1" d="M50.54,19.98h-4.27c-.66,0-1.19-.53-1.19-1.19s.53-1.19,1.19-1.19h4.27c.66,0,1.19.53,1.19,1.19s-.53,1.19-1.19,1.19Z"/><path class="cls-1" d="M43.21,19.98c-1.09,0-1.98-.89-1.98-1.98V1.98c0-1.09.89-1.98,1.98-1.98s1.98.89,1.98,1.98v16.02c0,1.09-.89,1.98-1.98,1.98Z"/><path class="cls-1" d="M50.54,11.17h-4.17c-.66,0-1.19-.53-1.19-1.19s.53-1.19,1.19-1.19h4.17c.66,0,1.19.53,1.19,1.19s-.53,1.19-1.19,1.19Z"/><path class="cls-1" d="M169.37,19.98c-.38,0-.76-.19-.99-.53l-11.74-17.61c-.36-.55-.22-1.28.33-1.64.54-.36,1.28-.22,1.64.33l11.74,17.61c.36.55.22,1.28-.33,1.64-.2.13-.43.2-.66.2Z"/><path class="cls-1" d="M154.57,19.98c-1.09,0-1.98-.89-1.98-1.98V1.98c0-1.09.89-1.98,1.98-1.98s1.98.89,1.98,1.98v16.02c0,1.09-.89,1.98-1.98,1.98Z"/><path class="cls-1" d="M172.43,19.98c-1.09,0-1.98-.89-1.98-1.98V1.98c0-1.09.89-1.98,1.98-1.98s1.98.89,1.98,1.98v16.02c0,1.09-.89,1.98-1.98,1.98Z"/><path class="cls-1" d="M251.34,12.69c-.66,0-1.19-.53-1.19-1.19s.53-1.19,1.19-1.19c2.19,0,3.98-1.78,3.98-3.98s-1.78-3.98-3.98-3.98h-.1c-.66,0-1.19-.53-1.19-1.19S250.59,0,251.24,0h.1C254.84,0,257.69,2.85,257.69,6.35s-2.85,6.35-6.35,6.35Z"/><path class="cls-1" d="M256.5,19.97c-.38,0-.76-.19-.99-.53l-3.41-5.11c-.36-.55-.22-1.28.33-1.64s1.28-.22,1.64.33l3.41,5.11c.36.55.22,1.28-.33,1.64-.2.13-.43.2-.66.2Z"/><path class="cls-1" d="M248.18,19.98c-1.09,0-1.98-.89-1.98-1.98V1.98c0-1.09.89-1.98,1.98-1.98s1.98.89,1.98,1.98v16.02c0,1.09-.89,1.98-1.98,1.98Z"/><path class="cls-1" d="M121.34,19.97c-.38,0-.76-.11-1.09-.33-.91-.61-1.15-1.83-.55-2.74L130.37.88c.61-.91,1.83-1.15,2.74-.55.91.61,1.15,1.83.55,2.74l-10.68,16.02c-.38.57-1.01.88-1.65.88Z"/><path class="cls-1" d="M146.66,19.97c-.64,0-1.27-.31-1.65-.88l-10.68-16.02c-.61-.91-.36-2.14.55-2.74.91-.61,2.14-.36,2.74.55l10.68,16.02c.61.91.36,2.14-.55,2.74-.34.22-.72.33-1.09.33Z"/><path class="cls-1" d="M139.9,14.75h-11.79c-.66,0-1.19-.53-1.19-1.19s.53-1.19,1.19-1.19h11.79c.66,0,1.19.53,1.19,1.19s-.53,1.19-1.19,1.19Z"/><path class="cls-1" d="M17.99,11.96c-1.09,0-1.98-.89-1.98-1.98,0-3.33-2.71-6.03-6.03-6.03s-6.03,2.71-6.03,6.03c0,1.09-.89,1.98-1.98,1.98s-1.98-.89-1.98-1.98C0,4.48,4.48,0,9.99,0s9.99,4.48,9.99,9.99c0,1.09-.89,1.98-1.98,1.98Z"/><path class="cls-1" d="M34.01,11.96c-1.09,0-1.98-.89-1.98-1.98,0-3.33-2.71-6.03-6.03-6.03s-6.03,2.71-6.03,6.03c0,1.09-.89,1.98-1.98,1.98s-1.98-.89-1.98-1.98C16.02,4.48,20.5,0,26,0s9.99,4.48,9.99,9.99c0,1.09-.89,1.98-1.98,1.98Z"/><path class="cls-1" d="M1.98,19.97c-.66,0-1.19-.53-1.19-1.19v-5.63c0-.66.53-1.19,1.19-1.19s1.19.53,1.19,1.19v5.63c0,.66-.53,1.19-1.19,1.19Z"/><path class="cls-1" d="M17.99,19.97c-.66,0-1.19-.53-1.19-1.19v-5.63c0-.66.53-1.19,1.19-1.19s1.19.53,1.19,1.19v5.63c0,.66-.53,1.19-1.19,1.19Z"/><path class="cls-1" d="M34.01,19.97c-.66,0-1.19-.53-1.19-1.19v-5.63c0-.66.53-1.19,1.19-1.19s1.19.53,1.19,1.19v5.63c0,.66-.53,1.19-1.19,1.19Z"/><path class="cls-1" d="M83.69,19.98c-5.51,0-9.99-4.48-9.99-9.99,0-1.09.89-1.98,1.98-1.98s1.98.89,1.98,1.98c0,3.33,2.71,6.04,6.04,6.04,1.09,0,1.98.89,1.98,1.98s-.89,1.98-1.98,1.98Z"/><path class="cls-1" d="M75.68,11.97c-1.09,0-1.98-.89-1.98-1.98C73.7,4.48,78.18,0,83.69,0,84.78,0,85.67.89,85.67,1.98s-.89,1.98-1.98,1.98c-3.33,0-6.04,2.71-6.04,6.04,0,1.09-.89,1.98-1.98,1.98Z"/><path class="cls-1" d="M62.11,12.69c-.66,0-1.19-.53-1.19-1.19s.53-1.19,1.19-1.19c2.19,0,3.98-1.78,3.98-3.98s-1.78-3.98-3.98-3.98h-.1c-.66,0-1.19-.53-1.19-1.19S61.36,0,62.01,0h.1C65.61,0,68.46,2.85,68.46,6.35s-2.85,6.35-6.35,6.35Z"/><path class="cls-1" d="M67.27,19.97c-.38,0-.76-.19-.99-.53l-3.41-5.11c-.36-.55-.22-1.28.33-1.64s1.28-.22,1.64.33l3.41,5.11c.36.55.22,1.28-.33,1.64-.2.13-.43.2-.66.2Z"/><path class="cls-1" d="M58.95,19.98c-1.09,0-1.98-.89-1.98-1.98V1.98c0-1.09.89-1.98,1.98-1.98s1.98.89,1.98,1.98v16.02c0,1.09-.89,1.98-1.98,1.98Z"/></svg>