<?xml version="1.0" encoding="UTF-8"?><svg id="_レイヤー_1" xmlns="http://www.w3.org/2000/svg" viewBox="0 0 50 50"><defs><style>.cls-1{fill:#fff;}</style></defs><path class="cls-1" d="M14.65.17c-2.66.13-4.48.55-6.06,1.17-1.64.64-3.04,1.5-4.42,2.89-1.39,1.39-2.24,2.79-2.88,4.43-.62,1.59-1.03,3.41-1.15,6.07C.02,17.41-.01,18.26,0,25.05c.01,6.79.04,7.64.17,10.31.13,2.66.55,4.48,1.17,6.06.64,1.64,1.5,3.04,2.89,4.42,1.39,1.39,2.79,2.24,4.43,2.87,1.59.61,3.41,1.03,6.07,1.15,2.67.12,3.52.14,10.3.13,6.79-.01,7.64-.04,10.31-.17,2.66-.13,4.48-.55,6.06-1.17,1.64-.64,3.04-1.5,4.42-2.89,1.39-1.39,2.24-2.79,2.87-4.43.62-1.59,1.03-3.41,1.15-6.07.12-2.67.14-3.52.13-10.31-.01-6.79-.04-7.64-.17-10.3-.13-2.66-.55-4.48-1.17-6.07-.64-1.64-1.5-3.04-2.89-4.42-1.39-1.39-2.79-2.24-4.43-2.87-1.59-.62-3.41-1.04-6.07-1.15C32.59.02,31.74,0,24.95,0c-6.79.01-7.64.04-10.31.17M14.94,45.37c-2.44-.11-3.76-.51-4.64-.85-1.17-.45-2-.99-2.88-1.86-.88-.87-1.42-1.71-1.88-2.87-.34-.88-.75-2.2-.87-4.64-.12-2.63-.15-3.43-.16-10.1-.01-6.67.01-7.46.13-10.1.1-2.44.51-3.76.85-4.64.45-1.17.99-2,1.86-2.88.87-.88,1.71-1.42,2.87-1.88.88-.34,2.2-.75,4.64-.87,2.64-.12,3.43-.15,10.1-.16,6.68-.01,7.47.01,10.1.13,2.44.11,3.76.51,4.64.85,1.17.45,2,.99,2.88,1.86.88.87,1.42,1.7,1.88,2.87.34.88.75,2.2.87,4.64.13,2.64.15,3.43.17,10.1.01,6.68-.01,7.47-.13,10.1-.11,2.44-.51,3.76-.85,4.64-.45,1.17-.99,2-1.87,2.88-.87.87-1.7,1.42-2.87,1.88-.88.34-2.2.75-4.64.87-2.64.12-3.43.15-10.1.16-6.67.01-7.46-.01-10.1-.13M35.32,11.64c0,1.66,1.35,3,3.01,2.99,1.66,0,3-1.35,2.99-3,0-1.66-1.35-3-3.01-2.99-1.66,0-3,1.35-2.99,3.01M12.16,25.02c.01,7.09,5.77,12.82,12.86,12.81,7.09-.01,12.83-5.77,12.81-12.86-.01-7.09-5.77-12.83-12.86-12.81-7.09.01-12.82,5.77-12.81,12.86M16.67,25.02c0-4.6,3.72-8.34,8.32-8.35,4.6,0,8.34,3.71,8.35,8.32,0,4.6-3.72,8.34-8.32,8.35-4.6,0-8.34-3.71-8.35-8.32"/></svg>