<?xml version="1.0" encoding="UTF-8"?><svg id="_レイヤー_1" xmlns="http://www.w3.org/2000/svg" viewBox="0 0 168.1 22.76"><defs><style>.cls-1{fill:red;}</style></defs><path class="cls-1" d="M31.01,22.77c-6.28,0-11.38-5.11-11.38-11.38S24.73,0,31.01,0C32.25,0,33.26,1.01,33.26,2.25s-1.01,2.25-2.25,2.25c-3.79,0-6.88,3.08-6.88,6.88s3.08,6.88,6.88,6.88c1.24,0,2.25,1.01,2.25,2.25s-1.01,2.25-2.25,2.25Z"/><path class="cls-1" d="M31.01,22.77c-1.24,0-2.25-1.01-2.25-2.25s1.01-2.25,2.25-2.25c3.79,0,6.88-3.08,6.88-6.88s-3.08-6.88-6.88-6.88c-1.24,0-2.25-1.01-2.25-2.25S29.76,0,31.01,0C37.28,0,42.39,5.11,42.39,11.38s-5.11,11.38-11.38,11.38Z"/><path class="cls-1" d="M98.67,22.76c-.43,0-.86-.12-1.25-.38-1.04-.69-1.32-2.09-.62-3.12L108.96,1c.69-1.04,2.09-1.32,3.12-.62,1.04.69,1.32,2.09.62,3.12l-12.17,18.26c-.43.65-1.15,1-1.88,1Z"/><path class="cls-1" d="M127.53,22.76c-.73,0-1.44-.35-1.88-1l-12.17-18.26c-.69-1.04-.41-2.43.62-3.12,1.04-.69,2.43-.41,3.12.62l12.17,18.26c.69,1.04.41,2.43-.62,3.12-.38.26-.82.38-1.25.38Z"/><path class="cls-1" d="M119.82,16.81h-13.44c-.75,0-1.35-.61-1.35-1.35s.61-1.35,1.35-1.35h13.44c.75,0,1.35.61,1.35,1.35s-.61,1.35-1.35,1.35Z"/><path class="cls-1" d="M86.51,22.76c-.75,0-1.35-.61-1.35-1.35V5.86c0-.75.61-1.35,1.35-1.35s1.35.61,1.35,1.35v15.55c0,.75-.61,1.35-1.35,1.35Z"/><path class="cls-1" d="M91.54,4.51h-10.06c-1.24,0-2.25-1.01-2.25-2.25S80.24,0,81.48,0h10.06C92.78,0,93.79,1.01,93.79,2.25s-1.01,2.25-2.25,2.25Z"/><path class="cls-1" d="M160.81,22.76c-.75,0-1.35-.61-1.35-1.35V5.86c0-.75.61-1.35,1.35-1.35s1.35.61,1.35,1.35v15.55c0,.75-.61,1.35-1.35,1.35Z"/><path class="cls-1" d="M165.84,4.51h-10.06c-1.24,0-2.25-1.01-2.25-2.25S154.54,0,155.78,0h10.06C167.09,0,168.1,1.01,168.1,2.25s-1.01,2.25-2.25,2.25Z"/><path class="cls-1" d="M11.39,22.77C5.11,22.77,0,17.67,0,11.39c0-1.24,1.01-2.25,2.25-2.25s2.25,1.01,2.25,2.25c0,3.79,3.09,6.88,6.88,6.88,1.24,0,2.25,1.01,2.25,2.25s-1.01,2.25-2.25,2.25Z"/><path class="cls-1" d="M2.25,13.64c-1.24,0-2.25-1.01-2.25-2.25C0,5.11,5.11,0,11.39,0,12.63,0,13.64,1.01,13.64,2.25s-1.01,2.25-2.25,2.25c-3.79,0-6.88,3.09-6.88,6.88,0,1.24-1.01,2.25-2.25,2.25Z"/><path class="cls-1" d="M145.38,22.77c-6.28,0-11.39-5.11-11.39-11.39,0-1.24,1.01-2.25,2.25-2.25s2.25,1.01,2.25,2.25c0,3.79,3.09,6.88,6.88,6.88,1.24,0,2.25,1.01,2.25,2.25s-1.01,2.25-2.25,2.25Z"/><path class="cls-1" d="M136.24,13.64c-1.24,0-2.25-1.01-2.25-2.25C133.99,5.11,139.1,0,145.38,0,146.62,0,147.63,1.01,147.63,2.25s-1.01,2.25-2.25,2.25c-3.79,0-6.88,3.09-6.88,6.88,0,1.24-1.01,2.25-2.25,2.25Z"/><path class="cls-1" d="M67.5,22.78c-.44,0-.87-.21-1.13-.6L52.99,2.1c-.41-.62-.25-1.46.37-1.87.62-.41,1.46-.25,1.87.38l13.38,20.07c.41.62.25,1.46-.37,1.87-.23.15-.49.23-.75.23Z"/><path class="cls-1" d="M50.63,22.77c-1.24,0-2.25-1.01-2.25-2.25V2.26C48.37,1.02,49.38,0,50.63,0s2.25,1.01,2.25,2.25v18.26c0,1.24-1.01,2.25-2.25,2.25Z"/><path class="cls-1" d="M70.99,22.77c-1.24,0-2.25-1.01-2.25-2.25V2.26c0-1.24,1.01-2.25,2.25-2.25s2.25,1.01,2.25,2.25v18.26c0,1.24-1.01,2.25-2.25,2.25Z"/></svg>