<?xml version="1.0" encoding="UTF-8"?><svg id="_レイヤー_1" xmlns="http://www.w3.org/2000/svg" viewBox="0 0 129.63 22.76"><defs><style>.cls-1{fill:red;}</style></defs><path class="cls-1" d="M68.95,22.77c-6.28,0-11.38-5.11-11.38-11.38S62.67,0,68.95,0C70.19,0,71.2,1.01,71.2,2.25s-1.01,2.25-2.25,2.25c-3.79,0-6.88,3.08-6.88,6.88s3.08,6.88,6.88,6.88c1.24,0,2.25,1.01,2.25,2.25s-1.01,2.25-2.25,2.25Z"/><path class="cls-1" d="M68.95,22.77c-1.24,0-2.25-1.01-2.25-2.25s1.01-2.25,2.25-2.25c3.79,0,6.88-3.08,6.88-6.88s-3.08-6.88-6.88-6.88c-1.24,0-2.25-1.01-2.25-2.25S67.7,0,68.95,0C75.23,0,80.33,5.11,80.33,11.38s-5.11,11.38-11.38,11.38Z"/><path class="cls-1" d="M2.25,22.76c-.43,0-.86-.12-1.25-.38-1.04-.69-1.32-2.09-.62-3.12L12.55,1c.69-1.04,2.09-1.32,3.12-.62,1.04.69,1.32,2.09.62,3.12L4.13,21.76c-.43.65-1.15,1-1.88,1Z"/><path class="cls-1" d="M31.12,22.76c-.73,0-1.44-.35-1.88-1L17.07,3.5c-.69-1.04-.41-2.43.62-3.12,1.04-.69,2.43-.41,3.12.62l12.17,18.26c.69,1.04.41,2.43-.62,3.12-.38.26-.82.38-1.25.38Z"/><path class="cls-1" d="M23.41,16.81h-13.44c-.75,0-1.35-.61-1.35-1.35s.61-1.35,1.35-1.35h13.44c.75,0,1.35.61,1.35,1.35s-.61,1.35-1.35,1.35Z"/><path class="cls-1" d="M106.83,9.13c-.75,0-1.35-.61-1.35-1.35V1.35C105.48.61,106.08,0,106.83,0s1.35.61,1.35,1.35v6.43c0,.75-.61,1.35-1.35,1.35Z"/><path class="cls-1" d="M88.57,9.13c-.75,0-1.35-.61-1.35-1.35V1.35C87.22.61,87.82,0,88.57,0s1.35.61,1.35,1.35v6.43c0,.75-.61,1.35-1.35,1.35Z"/><path class="cls-1" d="M97.7,22.77c-6.28,0-11.38-5.11-11.38-11.38,0-1.24,1.01-2.25,2.25-2.25s2.25,1.01,2.25,2.25c0,3.79,3.08,6.88,6.88,6.88s6.88-3.08,6.88-6.88c0-1.24,1.01-2.25,2.25-2.25s2.25,1.01,2.25,2.25c0,6.28-5.11,11.38-11.38,11.38Z"/><path class="cls-1" d="M50.23,7.72c-.75,0-1.35-.61-1.35-1.35,0-2.02-1.64-3.67-3.67-3.67h-.12c-.75,0-1.35-.61-1.35-1.35S44.35,0,45.1,0h.12C48.72,0,51.58,2.86,51.58,6.37c0,.75-.61,1.35-1.35,1.35Z"/><path class="cls-1" d="M45.21,12.74c-.75,0-1.35-.61-1.35-1.35s.61-1.35,1.35-1.35c2.02,0,3.67-1.64,3.67-3.67,0-.75.61-1.35,1.35-1.35s1.35.61,1.35,1.35c0,3.51-2.86,6.37-6.37,6.37Z"/><path class="cls-1" d="M45.21,22.77h-.12c-.75,0-1.35-.61-1.35-1.35s.61-1.35,1.35-1.35h.12c2.02,0,3.67-1.64,3.67-3.67,0-.75.61-1.35,1.35-1.35s1.35.61,1.35,1.35c0,3.51-2.86,6.37-6.37,6.37Z"/><path class="cls-1" d="M50.23,17.76c-.75,0-1.35-.61-1.35-1.35,0-2.02-1.64-3.67-3.67-3.67-.75,0-1.35-.61-1.35-1.35s.61-1.35,1.35-1.35c3.51,0,6.37,2.86,6.37,6.37,0,.75-.61,1.35-1.35,1.35Z"/><path class="cls-1" d="M41.61,22.77c-1.24,0-2.25-1.01-2.25-2.25V2.26C39.35,1.02,40.36,0,41.61,0s2.25,1.01,2.25,2.25v18.26c0,1.24-1.01,2.25-2.25,2.25Z"/><path class="cls-1" d="M122.35,22.76c-.75,0-1.35-.61-1.35-1.35V5.86c0-.75.61-1.35,1.35-1.35s1.35.61,1.35,1.35v15.55c0,.75-.61,1.35-1.35,1.35Z"/><path class="cls-1" d="M127.38,4.51h-10.06c-1.24,0-2.25-1.01-2.25-2.25S116.07,0,117.32,0h10.06C128.62,0,129.63,1.01,129.63,2.25s-1.01,2.25-2.25,2.25Z"/></svg>