<?xml version="1.0" encoding="UTF-8"?><svg id="_レイヤー_1" xmlns="http://www.w3.org/2000/svg" viewBox="0 0 119.98 22.77"><defs><style>.cls-1{fill:#fff;}</style></defs><path class="cls-1" d="M112.69,22.76c-.75,0-1.35-.61-1.35-1.35V5.86c0-.75.61-1.35,1.35-1.35s1.35.61,1.35,1.35v15.55c0,.75-.61,1.35-1.35,1.35Z"/><path class="cls-1" d="M117.72,4.51h-10.06c-1.24,0-2.25-1.01-2.25-2.25S106.42,0,107.67,0h10.06C118.97,0,119.98,1.01,119.98,2.25s-1.01,2.25-2.25,2.25Z"/><path class="cls-1" d="M32.71,22.76c-.44,0-.87-.21-1.13-.6L18.21,2.1c-.41-.62-.25-1.46.37-1.87.62-.41,1.46-.25,1.87.37l13.37,20.06c.41.62.25,1.46-.37,1.87-.23.15-.49.23-.75.23Z"/><path class="cls-1" d="M36.2,22.77c-.43,0-.86-.12-1.25-.38-1.04-.69-1.32-2.09-.62-3.12L46.5,1.01c.69-1.04,2.09-1.32,3.12-.62,1.04.69,1.32,2.09.62,3.12l-12.17,18.26c-.43.65-1.15,1-1.88,1Z"/><path class="cls-1" d="M10.61,2.7h-4.87c-.75,0-1.35-.61-1.35-1.35S5,0,5.74,0h4.87c.75,0,1.35.61,1.35,1.35s-.61,1.35-1.35,1.35Z"/><path class="cls-1" d="M10.61,22.77h-4.87c-.75,0-1.35-.61-1.35-1.35s.61-1.35,1.35-1.35h4.87c.75,0,1.35.61,1.35,1.35s-.61,1.35-1.35,1.35Z"/><path class="cls-1" d="M2.25,22.77c-1.24,0-2.25-1.01-2.25-2.25V2.26C0,1.02,1.01,0,2.25,0s2.25,1.01,2.25,2.25v18.26c0,1.24-1.01,2.25-2.25,2.25Z"/><path class="cls-1" d="M10.61,12.74h-4.75c-.75,0-1.35-.61-1.35-1.35s.61-1.35,1.35-1.35h4.75c.75,0,1.35.61,1.35,1.35s-.61,1.35-1.35,1.35Z"/><path class="cls-1" d="M67.22,2.7h-4.87c-.75,0-1.35-.61-1.35-1.35S61.61,0,62.36,0h4.87c.75,0,1.35.61,1.35,1.35s-.61,1.35-1.35,1.35Z"/><path class="cls-1" d="M67.22,22.77h-4.87c-.75,0-1.35-.61-1.35-1.35s.61-1.35,1.35-1.35h4.87c.75,0,1.35.61,1.35,1.35s-.61,1.35-1.35,1.35Z"/><path class="cls-1" d="M58.87,22.77c-1.24,0-2.25-1.01-2.25-2.25V2.26C56.61,1.02,57.62,0,58.87,0s2.25,1.01,2.25,2.25v18.26c0,1.24-1.01,2.25-2.25,2.25Z"/><path class="cls-1" d="M67.22,12.74h-4.75c-.75,0-1.35-.61-1.35-1.35s.61-1.35,1.35-1.35h4.75c.75,0,1.35.61,1.35,1.35s-.61,1.35-1.35,1.35Z"/><path class="cls-1" d="M93.69,22.78c-.44,0-.87-.21-1.13-.6l-13.38-20.07c-.41-.62-.25-1.46.37-1.87.62-.41,1.46-.25,1.87.38l13.38,20.07c.41.62.25,1.46-.37,1.87-.23.15-.49.23-.75.23Z"/><path class="cls-1" d="M76.81,22.77c-1.24,0-2.25-1.01-2.25-2.25V2.26c0-1.24,1.01-2.25,2.25-2.25s2.25,1.01,2.25,2.25v18.26c0,1.24-1.01,2.25-2.25,2.25Z"/><path class="cls-1" d="M97.17,22.77c-1.24,0-2.25-1.01-2.25-2.25V2.26c0-1.24,1.01-2.25,2.25-2.25s2.25,1.01,2.25,2.25v18.26c0,1.24-1.01,2.25-2.25,2.25Z"/></svg>