<?xml version="1.0" encoding="UTF-8"?><svg id="_レイヤー_1" xmlns="http://www.w3.org/2000/svg" viewBox="0 0 189.56 22.77"><defs><style>.cls-1{fill:#fff;}</style></defs><path class="cls-1" d="M68.9,22.75c-6.27,0-11.38-5.1-11.38-11.38S62.63,0,68.9,0C70.15,0,71.16,1.01,71.16,2.25s-1.01,2.25-2.25,2.25c-3.79,0-6.87,3.08-6.87,6.87s3.08,6.87,6.87,6.87c1.24,0,2.25,1.01,2.25,2.25s-1.01,2.25-2.25,2.25Z"/><path class="cls-1" d="M68.9,22.75c-1.24,0-2.25-1.01-2.25-2.25s1.01-2.25,2.25-2.25c3.79,0,6.87-3.08,6.87-6.87s-3.08-6.87-6.87-6.87c-1.24,0-2.25-1.01-2.25-2.25S67.66,0,68.9,0C75.18,0,80.28,5.1,80.28,11.38s-5.1,11.38-11.38,11.38Z"/><path class="cls-1" d="M2.25,22.75c-.43,0-.86-.12-1.25-.38-1.03-.69-1.31-2.09-.62-3.12L12.54,1c.69-1.03,2.09-1.31,3.12-.62,1.03.69,1.31,2.09.62,3.12L4.13,21.75c-.43.65-1.15,1-1.88,1Z"/><path class="cls-1" d="M31.1,22.75c-.73,0-1.44-.35-1.88-1L17.06,3.5c-.69-1.03-.41-2.43.62-3.12,1.03-.69,2.43-.41,3.12.62l12.16,18.24c.69,1.03.41,2.43-.62,3.12-.38.26-.82.38-1.25.38Z"/><path class="cls-1" d="M23.39,16.8h-13.44c-.75,0-1.35-.6-1.35-1.35s.61-1.35,1.35-1.35h13.44c.75,0,1.35.6,1.35,1.35s-.61,1.35-1.35,1.35Z"/><path class="cls-1" d="M106.76,9.13c-.75,0-1.35-.6-1.35-1.35V1.35C105.41.6,106.01,0,106.76,0s1.35.6,1.35,1.35v6.42c0,.75-.61,1.35-1.35,1.35Z"/><path class="cls-1" d="M88.51,9.13c-.75,0-1.35-.6-1.35-1.35V1.35C87.16.6,87.77,0,88.51,0s1.35.6,1.35,1.35v6.42c0,.75-.61,1.35-1.35,1.35Z"/><path class="cls-1" d="M97.64,22.76c-6.27,0-11.38-5.1-11.38-11.38,0-1.24,1.01-2.25,2.25-2.25s2.25,1.01,2.25,2.25c0,3.79,3.08,6.87,6.87,6.87s6.87-3.08,6.87-6.87c0-1.24,1.01-2.25,2.25-2.25s2.25,1.01,2.25,2.25c0,6.27-5.1,11.38-11.38,11.38Z"/><path class="cls-1" d="M50.2,7.72c-.75,0-1.35-.6-1.35-1.35,0-2.02-1.64-3.66-3.66-3.66h-.12c-.75,0-1.35-.6-1.35-1.35S44.32,0,45.07,0h.12C48.69,0,51.55,2.86,51.55,6.37c0,.75-.61,1.35-1.35,1.35Z"/><path class="cls-1" d="M45.18,12.73c-.75,0-1.35-.6-1.35-1.35s.61-1.35,1.35-1.35c2.02,0,3.66-1.64,3.66-3.66,0-.75.61-1.35,1.35-1.35s1.35.6,1.35,1.35c0,3.51-2.86,6.37-6.37,6.37Z"/><path class="cls-1" d="M45.18,22.76h-.12c-.75,0-1.35-.6-1.35-1.35s.61-1.35,1.35-1.35h.12c2.02,0,3.66-1.64,3.66-3.66,0-.75.61-1.35,1.35-1.35s1.35.6,1.35,1.35c0,3.51-2.86,6.37-6.37,6.37Z"/><path class="cls-1" d="M50.2,17.74c-.75,0-1.35-.6-1.35-1.35,0-2.02-1.64-3.66-3.66-3.66-.75,0-1.35-.6-1.35-1.35s.61-1.35,1.35-1.35c3.51,0,6.37,2.86,6.37,6.37,0,.75-.61,1.35-1.35,1.35Z"/><path class="cls-1" d="M41.58,22.76c-1.24,0-2.25-1.01-2.25-2.25V2.26C39.33,1.02,40.33,0,41.58,0s2.25,1.01,2.25,2.25v18.24c0,1.24-1.01,2.25-2.25,2.25Z"/><path class="cls-1" d="M122.27,22.74c-.75,0-1.35-.6-1.35-1.35V5.85c0-.75.61-1.35,1.35-1.35s1.35.6,1.35,1.35v15.54c0,.75-.61,1.35-1.35,1.35Z"/><path class="cls-1" d="M127.29,4.5h-10.05c-1.24,0-2.25-1.01-2.25-2.25S116,0,117.24,0h10.05C128.54,0,129.55,1.01,129.55,2.25s-1.01,2.25-2.25,2.25Z"/><path class="cls-1" d="M180.16,13.63c-3.76,0-6.81-3.06-6.81-6.81S176.4,0,180.16,0C181.4,0,182.41,1.01,182.41,2.25s-1.01,2.25-2.25,2.25-2.31,1.04-2.31,2.31,1.04,2.31,2.31,2.31,2.25,1.01,2.25,2.25-1.01,2.25-2.25,2.25Z"/><path class="cls-1" d="M183.64,22.74c-.75,0-1.35-.6-1.35-1.35s.61-1.35,1.35-1.35c1.77,0,3.21-1.44,3.21-3.21s-1.44-3.21-3.21-3.21c-.75,0-1.35-.6-1.35-1.35s.61-1.35,1.35-1.35c3.26,0,5.91,2.65,5.91,5.91s-2.65,5.91-5.91,5.91Z"/><path class="cls-1" d="M167.05,9.13c-.75,0-1.35-.6-1.35-1.35V1.35C165.7.6,166.31,0,167.05,0s1.35.6,1.35,1.35v6.42c0,.75-.61,1.35-1.35,1.35Z"/><path class="cls-1" d="M148.8,9.13c-.75,0-1.35-.6-1.35-1.35V1.35C147.45.6,148.06,0,148.8,0s1.35.6,1.35,1.35v6.42c0,.75-.61,1.35-1.35,1.35Z"/><path class="cls-1" d="M157.93,22.76c-6.27,0-11.38-5.1-11.38-11.38,0-1.24,1.01-2.25,2.25-2.25s2.25,1.01,2.25,2.25c0,3.79,3.08,6.87,6.87,6.87s6.87-3.08,6.87-6.87c0-1.24,1.01-2.25,2.25-2.25s2.25,1.01,2.25,2.25c0,6.27-5.1,11.38-11.38,11.38Z"/></svg>