<?xml version="1.0" encoding="UTF-8"?><svg id="_レイヤー_1" xmlns="http://www.w3.org/2000/svg" viewBox="0 0 390 509.67"><defs><style>.cls-1{fill:#fff;}.cls-2{fill:red;}</style></defs><path class="cls-2" d="M390,0l-.39,310.58c0,107.48-87.14,194.61-194.61,194.61S.39,418.06.39,310.58L0,0h390Z"/><path class="cls-1" d="M63.13,153.66c-.86,0-1.29-.66-1.29-1.65s.43-1.62,1.29-1.62h2.84c.26-1.52.5-3.07.66-4.59.07-.83.63-1.32,1.58-1.32.13,0,.23,0,.36.03,1.12.1,1.68.66,1.68,1.55v.1c-.2,1.42-.43,2.84-.73,4.22h2.44c2.11,0,3.13.86,3.13,3v.4c-.43,4.59-1.55,8.65-3.33,12.08.96.86,1.88,1.75,2.71,2.61.3.36.5.79.5,1.22s-.17.89-.53,1.29c-.4.4-.86.66-1.35.66-.43,0-.83-.17-1.22-.59-.59-.66-1.25-1.39-1.98-2.11-1.49,2.08-3.23,3.83-5.28,5.28-.36.26-.76.36-1.12.36-.56,0-1.09-.26-1.45-.83-.23-.33-.36-.73-.36-1.12,0-.53.23-1.02.69-1.35,1.91-1.29,3.56-2.84,4.95-4.72-1.16-.96-2.31-1.88-3.43-2.67-.79-.56-1.16-1.25-1.16-2.11,0-.46.1-.99.33-1.55.79-1.88,1.55-4.13,2.18-6.57h-2.11ZM68.78,153.66c-.63,2.54-1.39,4.92-2.15,6.9-.1.26-.17.5-.17.69,0,.26.13.5.5.76.69.49,1.42,1.06,2.15,1.62,1.29-2.61,2.15-5.61,2.48-9.08v-.26c0-.46-.2-.63-.73-.63h-2.08ZM85.54,171.15c0,2.57-1.68,3.66-4.49,3.66-1.19,0-2.61-.13-3.5-.33-.69-.13-1.25-.69-1.25-1.58,0-.13,0-.26.03-.4.17-1.02.79-1.52,1.52-1.52.1,0,.23,0,.33.03.66.13,1.75.26,2.44.26.92,0,1.22-.23,1.22-1.09v-8.52h-5.51c-.83,0-1.29-.66-1.29-1.72s.46-1.72,1.29-1.72h5.51v-3.56c0-1.09.76-1.49,1.85-1.49h.07c1.35-1.02,2.51-2.11,3.3-3.23.13-.2.2-.33.2-.43,0-.17-.17-.23-.49-.23h-9.51c-.86,0-1.39-.69-1.39-1.75s.53-1.72,1.39-1.72h11.62c1.98,0,2.9,1.16,2.9,2.48,0,.59-.2,1.22-.56,1.78-1.32,2.08-3.3,3.93-5.68,5.74v2.41h5.97c.86,0,1.32.66,1.32,1.72s-.46,1.72-1.32,1.72h-5.97v9.47Z"/><path class="cls-1" d="M117.88,162.24c-1.25-1.19-2.44-2.61-3.53-4.19-4.03.56-8.58.96-13.3,1.02-1.09,0-1.75-.63-1.78-1.58v-.1c0-1.09.59-1.65,1.62-1.68,3.7-.03,7.56-.26,11.58-.79-.5-.83-.99-1.78-1.49-2.77-3.27.4-6.83.63-10.2.66-1.16,0-1.75-.63-1.78-1.68,0-.99.63-1.65,1.55-1.65,2.97-.03,6.14-.2,8.94-.49-.26-.63-.5-1.29-.79-1.95-.1-.23-.13-.46-.13-.66,0-.69.5-1.32,1.39-1.49.3-.07.53-.1.76-.1.83,0,1.35.36,1.75,1.39.26.76.59,1.55.89,2.31,2.9-.4,5.54-.92,7.86-1.52.26-.07.46-.1.69-.1.69,0,1.19.36,1.42,1.22.07.2.1.43.1.63,0,.69-.4,1.22-1.22,1.45-2.24.59-4.75,1.09-7.56,1.55.46.99.92,1.88,1.45,2.71,2.44-.4,4.79-.89,6.9-1.45.23-.07.46-.1.66-.1.79,0,1.32.4,1.52,1.22.03.23.07.43.07.63,0,.76-.43,1.22-1.39,1.52-1.62.4-3.53.83-5.74,1.22,1.02,1.62,2.57,3.5,4.39,5.31.53.53.69,1.02.69,1.62,0,1.06-.89,2.05-1.88,2.05-.69,0-.99-.1-1.88-.56-2.34-1.09-5.05-1.72-8.42-1.72-4.92,0-6.57,1.39-6.57,3.2,0,1.98,1.98,3,7.16,3,2.64,0,5.54-.4,8.05-1.16.23-.07.5-.1.73-.1.83,0,1.49.43,1.72,1.35.03.23.07.46.07.66,0,.86-.5,1.49-1.35,1.75-2.81.83-5.81,1.16-9.34,1.16-7.36,0-10.99-2.41-10.99-6.53,0-3.8,3.47-6.44,10.36-6.44,2.67,0,5.08.43,6.93,1.32l.1-.13Z"/><path class="cls-1" d="M135.9,168.21c-.43.79-1.02,1.19-1.75,1.19-.4,0-.83-.13-1.29-.43-.63-.36-.89-.92-.89-1.55,0-.43.13-.89.4-1.35,2.11-3.6,4.16-7.99,5.41-12.01-.92.03-1.95.03-2.97.03h-1.32c-1.02-.03-1.58-.73-1.58-1.85s.63-1.85,1.68-1.85h2.18c1.06,0,2.11,0,3.1-.03.4-1.45.69-2.9.96-4.32.13-.96.83-1.45,1.78-1.45.17,0,.33,0,.5.03,1.02.2,1.62.69,1.62,1.62,0,.17-.03.33-.07.53-.2.96-.46,2.11-.76,3.3,1.32-.1,2.54-.2,3.66-.36.1-.03.23-.03.33-.03.92,0,1.45.59,1.62,1.58v.26c0,.92-.5,1.58-1.55,1.78-1.55.26-3.33.4-5.08.53-1.42,4.82-3.7,10.33-5.97,14.39ZM154.64,168.64c0,3.47-2.08,5.64-7.29,5.64-4.46,0-7.33-2.31-7.33-5.78s2.97-5.94,7.33-5.94c1.25,0,2.34.13,3.43.4-.17-1.55-.3-3.53-.3-5.31,0-1.22.79-1.72,1.85-1.72s1.88.53,1.88,1.72c0,2.21.13,4.36.36,6.44,2.08.99,4.19,2.44,5.81,4.03.43.43.63.89.63,1.39,0,.46-.17.92-.5,1.32-.4.46-.86.73-1.35.73-.43,0-.86-.2-1.25-.56-1.02-1.02-2.24-2.05-3.27-2.67v.33ZM147.45,165.84c-2.28,0-3.73,1.02-3.73,2.61,0,1.49,1.35,2.38,3.6,2.38,2.48,0,3.73-.86,3.73-2.97,0-.4,0-.76-.03-1.25-.99-.5-2.31-.76-3.56-.76ZM159.99,152.7c.56.4.83.96.83,1.55,0,.4-.13.79-.36,1.16-.36.53-.92.83-1.52.83-.4,0-.79-.13-1.19-.36-1.82-1.25-4.16-2.51-6.37-3.43-.59-.26-.89-.86-.89-1.45,0-.36.1-.76.33-1.09.43-.63,1.02-.92,1.62-.92.3,0,.59.07.89.17,2.28.89,4.88,2.28,6.67,3.56Z"/><path class="cls-1" d="M171.47,173.33c-.3.13-.63.2-.96.2-.73,0-1.35-.33-1.75-1.06-.17-.4-.26-.79-.26-1.16,0-.76.43-1.42,1.25-1.82,3.76-1.65,8.22-4.69,11.49-8.85-2.81-2.48-5.78-4.65-8.81-6.7-.46-.3-.69-.79-.69-1.32,0-.46.2-.96.59-1.39.4-.46.92-.69,1.45-.69.46,0,.92.17,1.39.43,2.74,1.75,5.64,3.89,8.42,6.27,1.72-2.84,3.1-6.34,4.03-10.03.26-1.09.89-1.65,1.78-1.65.26,0,.53.03.79.13,1.09.3,1.65.99,1.65,1.91,0,.23-.03.46-.1.73-1.06,4.19-2.84,8.38-4.92,11.72,2.31,2.05,4.46,4.29,6.3,6.57.36.43.56.96.56,1.45,0,.59-.23,1.16-.76,1.65-.43.36-.92.56-1.42.56-.59,0-1.19-.26-1.65-.79-1.78-2.18-3.63-4.19-5.51-6.01-3.5,4.49-8.48,7.99-12.87,9.84Z"/><path class="cls-1" d="M229.06,152.47c0,.26-.03.5-.1.79-1.25,5.31-4.46,10.83-9.04,14.29-4.03,3.1-10.23,5.02-15.31,5.15h-.07c-1.29,0-2.05-.69-2.15-1.88v-.23c0-1.12.69-2.05,1.88-2.11,4.55-.23,10.03-2.05,13.27-4.59,3.56-2.84,6.24-7.39,7.39-11.75.4-1.25,1.02-1.72,1.82-1.72.26,0,.56.03.83.13.99.3,1.49.96,1.49,1.91ZM213.02,153.69c.4.46.56.99.56,1.49,0,.56-.23,1.12-.63,1.58-.43.46-.99.73-1.58.73-.56,0-1.12-.23-1.58-.76-1.72-1.91-4.22-4.13-6.34-5.58-.5-.36-.69-.89-.69-1.42s.2-1.06.56-1.45c.46-.53,1.06-.76,1.62-.76.43,0,.86.13,1.19.36,2.31,1.45,5.15,3.73,6.9,5.81Z"/><path class="cls-1" d="M244.14,149.5v.1c-.17,4.13-.79,8.32-1.68,11.58-1.19,4.49-3.07,8.15-5.15,10.73-.5.66-1.19.99-1.88.99-.53,0-1.09-.2-1.52-.59-.43-.4-.66-.96-.66-1.55,0-.53.2-1.09.56-1.55,1.91-2.28,3.56-5.45,4.62-9.37.83-2.81,1.39-6.67,1.52-10.43.07-1.25.86-1.91,2.05-1.91h.17c1.35.07,1.98.86,1.98,2.01ZM253.55,147.49c1.29,0,2.08.73,2.11,1.91.07,3.66.83,7.49,1.68,10.43,1.02,3.7,2.74,6.8,4.75,9.24.33.43.53.99.53,1.52,0,.63-.26,1.29-.79,1.75-.43.36-.96.53-1.49.53-.63,0-1.29-.3-1.78-.89-2.15-2.64-3.99-6.2-5.21-10.63-.99-3.43-1.72-7.76-1.85-11.75v-.1c0-1.16.63-1.95,1.88-2.01h.17ZM260.15,149.43c0,.53-.3.96-.86,1.19-.2.1-.46.13-.69.13-.53,0-1.02-.26-1.25-.76-.4-1.02-.99-2.24-1.58-3.3-.1-.2-.13-.4-.13-.59,0-.53.33-.99.89-1.22.23-.1.46-.13.69-.13.46,0,.89.23,1.12.66.69,1.09,1.29,2.34,1.68,3.4.1.2.13.43.13.63ZM261.24,143.69c.53,0,.99.3,1.29.79.59.96,1.12,2.11,1.45,3.1.07.2.1.4.1.56,0,.59-.33,1.06-.86,1.25-.2.07-.4.1-.59.1-.53,0-1.02-.26-1.25-.86-.4-.99-.92-2.21-1.45-3.07-.1-.2-.13-.43-.13-.63,0-.53.33-.99.89-1.16.2-.07.36-.1.56-.1Z"/><path class="cls-1" d="M269.55,162.17c-1.16,0-1.78-.92-1.78-2.18s.63-2.18,1.82-2.18h24.36c1.19,0,1.82.92,1.82,2.18s-.63,2.18-1.82,2.18h-24.39Z"/><path class="cls-1" d="M321.23,151.84c.26-.07.5-.1.73-.1.92,0,1.52.5,1.75,1.42.07.23.1.46.1.69,0,.86-.5,1.52-1.52,1.78-3.7.89-8.12,2.31-11.42,3.8-3.93,1.75-6.01,3.93-6.01,6.17,0,2.54,2.11,3.76,8.35,3.76,3.14,0,6.57-.36,9.04-.86.2-.03.36-.07.56-.07,1.02,0,1.72.63,1.88,1.72.03.17.03.3.03.46,0,1.06-.59,1.78-1.78,2.01-2.48.5-5.81.76-9.74.76-9.14,0-12.44-2.9-12.44-7.82,0-3.73,2.87-6.96,7.49-9.18-.92-2.84-1.72-6.17-2.24-9.18-.03-.13-.03-.23-.03-.36,0-1.02.76-1.68,1.72-1.85.17-.03.33-.03.5-.03.99,0,1.75.53,1.91,1.58.46,2.61,1.12,5.68,1.98,8.25,2.97-1.19,6.4-2.34,9.14-2.97Z"/><path class="cls-1" d="M93.49,193.66c-.86,0-1.29-.66-1.29-1.65s.43-1.62,1.29-1.62h2.84c.26-1.52.5-3.07.66-4.59.07-.83.63-1.32,1.58-1.32.13,0,.23,0,.36.03,1.12.1,1.68.66,1.68,1.55v.1c-.2,1.42-.43,2.84-.73,4.22h2.44c2.11,0,3.13.86,3.13,3v.4c-.43,4.59-1.55,8.65-3.33,12.08.96.86,1.88,1.75,2.71,2.61.3.36.5.79.5,1.22s-.17.89-.53,1.29c-.4.4-.86.66-1.35.66-.43,0-.83-.17-1.22-.59-.59-.66-1.25-1.39-1.98-2.11-1.49,2.08-3.23,3.83-5.28,5.28-.36.26-.76.36-1.12.36-.56,0-1.09-.26-1.45-.82-.23-.33-.36-.73-.36-1.12,0-.53.23-1.02.69-1.35,1.91-1.29,3.56-2.84,4.95-4.72-1.16-.96-2.31-1.88-3.43-2.67-.79-.56-1.16-1.25-1.16-2.11,0-.46.1-.99.33-1.55.79-1.88,1.55-4.13,2.18-6.57h-2.11ZM99.14,193.66c-.63,2.54-1.39,4.92-2.15,6.9-.1.26-.17.49-.17.69,0,.26.13.49.5.76.69.5,1.42,1.06,2.15,1.62,1.29-2.61,2.15-5.61,2.48-9.08v-.26c0-.46-.2-.63-.73-.63h-2.08ZM115.9,211.15c0,2.57-1.68,3.66-4.49,3.66-1.19,0-2.61-.13-3.5-.33-.69-.13-1.25-.69-1.25-1.58,0-.13,0-.26.03-.4.17-1.02.79-1.52,1.52-1.52.1,0,.23,0,.33.03.66.13,1.75.26,2.44.26.92,0,1.22-.23,1.22-1.09v-8.52h-5.51c-.83,0-1.29-.66-1.29-1.72s.46-1.72,1.29-1.72h5.51v-3.56c0-1.09.76-1.49,1.85-1.49h.07c1.35-1.02,2.51-2.11,3.3-3.23.13-.2.2-.33.2-.43,0-.17-.17-.23-.49-.23h-9.51c-.86,0-1.39-.69-1.39-1.75s.53-1.72,1.39-1.72h11.62c1.98,0,2.9,1.16,2.9,2.48,0,.59-.2,1.22-.56,1.78-1.32,2.08-3.3,3.93-5.68,5.74v2.41h5.97c.86,0,1.32.66,1.32,1.72s-.46,1.72-1.32,1.72h-5.97v9.47Z"/><path class="cls-1" d="M148.24,202.24c-1.25-1.19-2.44-2.61-3.53-4.19-4.03.56-8.58.96-13.3,1.02-1.09,0-1.75-.63-1.78-1.58v-.1c0-1.09.59-1.65,1.62-1.68,3.7-.03,7.56-.26,11.58-.79-.5-.83-.99-1.78-1.49-2.77-3.27.4-6.83.63-10.2.66-1.16,0-1.75-.63-1.78-1.68,0-.99.63-1.65,1.55-1.65,2.97-.03,6.14-.2,8.94-.49-.26-.63-.5-1.29-.79-1.95-.1-.23-.13-.46-.13-.66,0-.69.5-1.32,1.39-1.49.3-.07.53-.1.76-.1.83,0,1.35.36,1.75,1.39.26.76.59,1.55.89,2.31,2.9-.4,5.54-.92,7.86-1.52.26-.07.46-.1.69-.1.69,0,1.19.36,1.42,1.22.07.2.1.43.1.63,0,.69-.4,1.22-1.22,1.45-2.24.59-4.75,1.09-7.56,1.55.46.99.92,1.88,1.45,2.71,2.44-.4,4.79-.89,6.9-1.45.23-.07.46-.1.66-.1.79,0,1.32.4,1.52,1.22.03.23.07.43.07.63,0,.76-.43,1.22-1.39,1.52-1.62.4-3.53.83-5.74,1.22,1.02,1.62,2.57,3.5,4.39,5.31.53.53.69,1.02.69,1.62,0,1.06-.89,2.05-1.88,2.05-.69,0-.99-.1-1.88-.56-2.34-1.09-5.05-1.72-8.42-1.72-4.92,0-6.57,1.39-6.57,3.2,0,1.98,1.98,3,7.16,3,2.64,0,5.54-.4,8.05-1.16.23-.07.5-.1.73-.1.83,0,1.49.43,1.72,1.35.03.23.07.46.07.66,0,.86-.5,1.49-1.35,1.75-2.81.82-5.81,1.16-9.34,1.16-7.36,0-10.99-2.41-10.99-6.53,0-3.8,3.47-6.44,10.36-6.44,2.67,0,5.08.43,6.93,1.32l.1-.13Z"/><path class="cls-1" d="M166.92,208.21c-.43.79-1.02,1.19-1.75,1.19-.4,0-.83-.13-1.29-.43-.63-.36-.89-.92-.89-1.55,0-.43.13-.89.4-1.35,2.11-3.6,4.16-7.99,5.41-12.01-.92.03-1.95.03-2.97.03h-1.32c-1.02-.03-1.58-.73-1.58-1.85s.63-1.85,1.68-1.85h2.18c1.06,0,2.11,0,3.1-.03.4-1.45.69-2.9.96-4.32.13-.96.83-1.45,1.78-1.45.17,0,.33,0,.5.03,1.02.2,1.62.69,1.62,1.62,0,.17-.03.33-.07.53-.2.96-.46,2.11-.76,3.3,1.32-.1,2.54-.2,3.66-.36.1-.03.23-.03.33-.03.92,0,1.45.59,1.62,1.58v.26c0,.92-.5,1.58-1.55,1.78-1.55.26-3.33.4-5.08.53-1.42,4.82-3.7,10.33-5.97,14.39ZM185.66,208.64c0,3.47-2.08,5.64-7.29,5.64-4.46,0-7.33-2.31-7.33-5.78s2.97-5.94,7.33-5.94c1.25,0,2.34.13,3.43.4-.17-1.55-.3-3.53-.3-5.31,0-1.22.79-1.72,1.85-1.72s1.88.53,1.88,1.72c0,2.21.13,4.36.36,6.44,2.08.99,4.19,2.44,5.81,4.03.43.43.63.89.63,1.39,0,.46-.17.92-.5,1.32-.4.46-.86.73-1.35.73-.43,0-.86-.2-1.25-.56-1.02-1.02-2.24-2.05-3.27-2.67v.33ZM178.47,205.84c-2.28,0-3.73,1.02-3.73,2.61,0,1.49,1.35,2.38,3.6,2.38,2.48,0,3.73-.86,3.73-2.97,0-.4,0-.76-.03-1.25-.99-.5-2.31-.76-3.56-.76ZM191.01,192.7c.56.4.83.96.83,1.55,0,.4-.13.79-.36,1.16-.36.53-.92.83-1.52.83-.4,0-.79-.13-1.19-.36-1.82-1.25-4.16-2.51-6.37-3.43-.59-.26-.89-.86-.89-1.45,0-.36.1-.76.33-1.09.43-.63,1.02-.92,1.62-.92.3,0,.59.07.89.17,2.28.89,4.88,2.28,6.67,3.56Z"/><path class="cls-1" d="M201.44,205.44c-.82,0-1.32-.63-1.32-1.62s.5-1.65,1.32-1.65h22.11c.83,0,1.29.63,1.29,1.62s-.46,1.65-1.29,1.65h-9.41v5.41h12.11c.83,0,1.29.63,1.29,1.62s-.46,1.68-1.29,1.68h-27.56c-.83,0-1.29-.66-1.29-1.65s.46-1.65,1.29-1.65h11.75v-5.41h-9.01ZM223.75,187.49c2.21,0,3.4,1.09,3.4,3.17v1.82c0,.79-.73,1.22-1.75,1.22s-1.78-.43-1.78-1.22v-.73c0-.73-.36-.99-1.02-.99h-5.51v4.79c0,.86.03.99,2.38.99,1.98,0,2.51-.13,2.77-.46.2-.23.2-.5.3-1.02.13-.66.63-.96,1.35-.96.17,0,.36,0,.56.03,1.06.2,1.55.63,1.55,1.52v.23c-.13,1.42-.43,2.05-.96,2.57-.73.76-1.58,1.06-4.29,1.19-.59.03-1.19.03-1.72.03-1.39,0-2.54-.1-3.5-.3-1.25-.3-1.95-1.06-1.95-2.67v-5.94h-3c-.5,5.94-3.89,8.85-10.26,10.13-.2.03-.36.07-.53.07-.83,0-1.32-.5-1.52-1.39-.03-.17-.07-.33-.07-.46,0-.76.46-1.25,1.35-1.45,4.79-1.02,7.23-2.77,7.53-6.9h-4.55c-.69,0-1.02.26-1.02.99v2.38c0,.86-.73,1.29-1.82,1.29s-1.75-.43-1.75-1.29v-3.47c0-2.08,1.19-3.17,3.4-3.17h9.11v-2.05c0-.86.59-1.19,1.85-1.19s1.85.33,1.85,1.19v2.05h9.6Z"/><path class="cls-1" d="M237.4,213.89c0,.83-.69,1.25-1.81,1.25-1.06,0-1.75-.43-1.75-1.25v-25.74c0-1.98.92-3.07,3.17-3.07h6.73c2.18,0,3.14.83,3.14,2.77v6.11c0,1.95-.96,2.77-3.14,2.77h-6.34v17.16ZM243.51,188.48c0-.59-.26-.76-.83-.76h-4.49c-.56,0-.79.17-.79.76v1.25h6.11v-1.25ZM242.69,194.15c.56,0,.83-.17.83-.73v-1.25h-6.11v1.98h5.28ZM251.96,198.51c2.24,0,3.1.79,3.1,2.97v7.49c0,2.18-.86,3.04-3.1,3.04h-7.99c-2.18,0-3.07-.86-3.07-3.04v-7.49c0-2.18.89-2.97,3.07-2.97h7.99ZM251.73,202.01c0-.56-.23-.73-.79-.73h-5.91c-.56,0-.79.17-.79.73v1.78h7.49v-1.78ZM244.24,208.48c0,.53.23.69.79.69h5.91c.56,0,.79-.17.79-.69v-1.98h-7.49v1.98ZM252.13,196.73c-2.18,0-3.14-.83-3.14-2.77v-6.11c0-1.95.96-2.77,3.14-2.77h7.1c2.24,0,3.17,1.09,3.17,3.07v23c0,2.51-1.19,3.6-4.06,3.6-.89,0-1.98-.07-2.74-.2-.73-.13-1.22-.66-1.22-1.58,0-.1,0-.23.03-.33.07-.92.69-1.45,1.29-1.45.07,0,.13,0,.2.03.53.1,1.35.17,1.85.17.89,0,1.16-.26,1.16-1.25v-13.4h-6.77ZM258.89,188.48c0-.59-.2-.76-.79-.76h-4.92c-.59,0-.86.17-.86.76v1.25h6.57v-1.25ZM258.89,192.17h-6.57v1.25c0,.56.26.73.86.73h5.71v-1.98Z"/><path class="cls-1" d="M276.84,196.76c1.95-1.35,3.56-1.98,5.41-1.98,2.47,0,4.12,1.09,4.65,3.7,2.54-.89,5.12-1.68,7.26-2.31.3-.07.53-.1.79-.1.83,0,1.42.43,1.65,1.29.07.23.1.46.1.69,0,.79-.46,1.42-1.42,1.68-2.28.63-5.15,1.35-7.95,2.34.03.92.07,1.88.07,2.81,0,.59,0,1.16-.03,1.72,0,1.19-.76,1.75-1.88,1.78-1.16,0-1.72-.63-1.72-1.68v-3.47c-4.03,1.45-5.64,3.14-5.64,4.79s1.68,2.54,5.84,2.54c3.27,0,6.5-.33,8.91-.79.2-.03.4-.07.59-.07.89,0,1.48.46,1.68,1.45.03.13.03.3.03.43,0,.99-.59,1.72-1.62,1.91-2.48.46-5.71.76-9.24.76-6.63,0-10.17-1.88-10.17-5.94,0-3.37,3-6.34,9.24-8.58-.1-1.49-.86-1.95-2.11-1.95-2.67,0-6.04,2.08-9.74,5.78-.43.43-.96.66-1.48.66-.46,0-.92-.2-1.35-.56-.36-.36-.56-.86-.56-1.39,0-.56.23-1.12.66-1.52,2.64-2.44,5.21-5.38,7.16-8.28h-1.52c-1.29,0-2.81-.03-4.06-.03-1.06-.03-1.62-.86-1.62-1.82v-.17c.1-.99.79-1.75,1.78-1.72,1.19.07,2.77.1,4.52.1h2.74c.5-.92.96-1.88,1.25-2.84.33-.89.99-1.29,1.85-1.29.17,0,.36.03.56.07.99.17,1.52.76,1.52,1.45,0,.2-.03.4-.13.59-.26.66-.56,1.25-.89,1.91,2.44-.13,5.74-.46,8.98-.89.13-.03.23-.03.36-.03.92,0,1.55.59,1.65,1.55.03.1.03.23.03.33,0,.89-.46,1.49-1.48,1.65-3.86.56-7.92.92-11.42,1.02-.96,1.58-2.08,3.1-3.37,4.26l.1.13Z"/><path class="cls-1" d="M93.07,238.87c0,4.92-2.34,8.88-7.23,10.99-3,1.29-7.72,2.11-12.05,2.11-1.42,0-2.28-.69-2.31-1.98v-.17c0-1.25.73-2.08,1.95-2.08,3.86-.03,8.15-.66,10.73-1.82,3.1-1.39,4.59-3.83,4.59-7,0-3.53-2.28-6.11-7.33-6.11-4.03,0-9.01.92-13.86,2.54-.3.1-.59.17-.86.17-.89,0-1.62-.5-1.88-1.45-.07-.23-.1-.46-.1-.69,0-.92.53-1.68,1.52-2.05,4.55-1.55,10.13-2.54,15.02-2.54,8.05,0,11.82,4.39,11.82,10.07Z"/><path class="cls-1" d="M119.66,227.16c0,.53-.23,1.06-.69,1.49-3.33,3.14-8.12,6.7-12.34,9.24-.82.5-.99.86-.99,1.29s.26.69,1.15,1.22c3.96,2.48,9.34,6.47,13.04,9.97.5.46.69,1.06.69,1.62,0,.59-.23,1.19-.56,1.55-.46.53-1.02.79-1.62.79-.53,0-1.02-.2-1.48-.66-3.73-3.6-8.65-7.39-13.5-10.66-1.92-1.25-2.48-2.41-2.48-3.86,0-1.58.73-2.87,2.48-3.93,4.32-2.64,9.27-6.37,12.57-9.57.36-.36.86-.53,1.35-.53.56,0,1.16.2,1.65.63.5.4.73.89.73,1.42Z"/><path class="cls-1" d="M134.08,236.2c.56-1.85,1.32-3.5,2.05-4.65,1.85-2.97,4.49-4.49,7.36-4.49,5.02,0,8.81,3.93,8.81,11.45,0,6.27-2.21,10.33-5.94,12.77-2.44,1.62-5.88,2.77-9.24,3.07h-.3c-1.06,0-1.81-.46-2.05-1.58-.03-.2-.03-.36-.03-.53,0-1.02.63-1.78,1.82-1.88,2.94-.33,5.84-1.29,7.79-2.67,2.48-1.78,3.8-4.72,3.8-9.18,0-5.15-2.18-7.76-5.21-7.76-2.54,0-4.95,1.78-6.54,5.31-1.12,2.48-1.72,5.12-1.72,7.69,0,1.19-.46,1.98-1.78,2.08h-.1c-.96,0-1.72-.56-1.98-1.85-.3-1.65-.5-3.86-.5-6.01.03-3.63.79-8.02,1.82-11.82.33-1.09,1.02-1.55,1.95-1.55.13,0,.23,0,.36.03.99.13,1.49.63,1.49,1.45,0,.23-.03.5-.13.79-.59,2.08-1.19,4.62-1.42,6.37-.17.96-.33,1.98-.46,2.9l.17.03Z"/><path class="cls-1" d="M164.74,252.14c-.4.83-1.06,1.22-1.78,1.22-.36,0-.76-.1-1.12-.26-.69-.36-1.09-.96-1.09-1.72,0-.36.1-.73.3-1.12,2.31-4.79,4.42-10.79,5.87-16.37-1.29.03-2.8.1-4.06.1h-.83c-1.02-.07-1.58-.63-1.58-1.82v-.1c.03-1.12.59-1.78,1.72-1.78,1.62,0,3.73-.03,5.58-.13.3-1.32.56-2.67.79-4.03.17-.96.83-1.39,1.82-1.39.13,0,.26,0,.43.03,1.09.13,1.72.76,1.72,1.55,0,.1,0,.2-.03.3-.2,1.06-.4,2.15-.63,3.23,1.82-.17,3.56-.4,5.12-.66.17-.03.3-.03.46-.03.86,0,1.42.46,1.65,1.49.03.17.07.33.07.5,0,.86-.53,1.52-1.29,1.65-2.11.36-4.49.66-6.93.86-1.52,6.37-3.73,13.2-6.17,18.48ZM176.29,244.19c0,.3-.1.59-.3.86-.63.73-.92,1.52-.92,2.31,0,.99.5,1.62,1.39,2.01.99.43,2.34.53,3.89.53,2.24,0,4.69-.23,6.54-.63.2-.03.4-.07.56-.07.99,0,1.62.53,1.78,1.49.03.17.03.33.03.46,0,.92-.5,1.65-1.62,1.95-1.91.43-4.39.66-7.1.66-2.38,0-4.46-.33-5.94-.96-2.34-.96-3.3-2.61-3.3-5.05,0-1.49.66-3.27,1.78-4.52.4-.43.89-.66,1.39-.66.33,0,.66.1.96.26.56.3.86.82.86,1.35ZM186.26,234.45c1.12.07,1.75.92,1.75,2.01s-.63,1.88-1.72,1.88h-.13c-.83-.03-1.88-.03-2.81-.03-2.34,0-5.15.26-7.29.63-.13.03-.23.03-.33.03-.99,0-1.68-.69-1.78-1.78-.03-.1-.03-.23-.03-.33,0-.83.43-1.62,1.42-1.78,2.44-.4,5.51-.69,8.15-.73.89,0,1.82.03,2.77.1Z"/><path class="cls-1" d="M204.31,226.56c.17-1.19.96-1.58,1.91-1.58h.36c1.12.13,1.75.76,1.75,1.72,0,.13,0,.26-.03.36-.23,1.58-.66,3.3-.96,4.75.79-.03,1.49-.03,2.18-.03,4.59,0,6.7,2.57,6.7,8.02,0,3.04-.4,6.27-1.09,8.71-.96,3.56-3.07,4.98-6.01,4.98-1.45,0-3.17-.3-4.49-.92-.69-.33-1.09-.99-1.09-1.72,0-.26.07-.56.17-.83.33-.86.96-1.29,1.65-1.29.23,0,.5.07.73.17.92.36,2.01.59,2.9.59,1.19,0,1.95-.56,2.44-2.28.53-1.91.89-4.92.89-7.85,0-3.1-.86-4.06-3.43-4.06-.92,0-1.68.03-2.41.1-.46,1.85-1.06,3.8-1.72,5.74-1.45,4.19-3.17,8.22-4.98,11.39-.43.76-1.09,1.12-1.78,1.12-.36,0-.76-.1-1.09-.3-.73-.4-1.09-1.02-1.09-1.68,0-.4.13-.83.36-1.22,1.78-2.94,3.43-6.53,4.79-10.33.53-1.49,1.02-2.97,1.42-4.42-1.42.13-3.23.36-4.82.59-.1.03-.2.03-.3.03-.83,0-1.49-.53-1.62-1.55-.03-.1-.03-.2-.03-.33,0-.92.53-1.65,1.52-1.78,1.82-.26,4.12-.5,6.17-.66.43-1.82.76-3.66.99-5.45ZM218,228.91c.66,0,1.25.33,1.62.83,2.48,3.17,5.02,8.35,5.94,12.18.03.23.07.46.07.66,0,.79-.33,1.45-1.15,1.75-.33.1-.63.17-.92.17-.79,0-1.49-.43-1.72-1.29-1.02-3.63-3.14-8.35-5.54-11.52-.23-.3-.33-.63-.33-.92,0-.66.4-1.29,1.09-1.62.3-.17.63-.23.96-.23Z"/><path class="cls-1" d="M255.29,242.31c0,4.09-1.88,7.43-5.81,9.08-2.34.99-6.04,1.65-9.37,1.65h-.23c-1.19,0-1.88-.79-1.91-1.88v-.1c0-1.09.63-1.88,1.75-1.88,2.87-.03,6.34-.56,8.22-1.39,2.31-1.02,3.43-2.74,3.43-5.25,0-2.67-1.68-4.69-5.48-4.69-3.17,0-7.2.83-10.92,2.05-.2.07-.43.1-.63.1-.79,0-1.49-.49-1.68-1.32-.07-.26-.1-.5-.1-.76,0-.79.4-1.45,1.25-1.72,3.63-1.16,8.12-2.05,12.01-2.05,6.44,0,9.47,3.63,9.47,8.15Z"/><path class="cls-1" d="M266.38,252.14c-.4.83-1.06,1.22-1.78,1.22-.36,0-.76-.1-1.12-.26-.69-.36-1.09-.96-1.09-1.72,0-.36.1-.73.3-1.12,2.31-4.79,4.42-10.79,5.87-16.37-1.29.03-2.8.1-4.06.1h-.83c-1.02-.07-1.58-.63-1.58-1.82v-.1c.03-1.12.59-1.78,1.72-1.78,1.62,0,3.73-.03,5.58-.13.3-1.32.56-2.67.79-4.03.17-.96.83-1.39,1.82-1.39.13,0,.26,0,.43.03,1.09.13,1.72.76,1.72,1.55,0,.1,0,.2-.03.3-.2,1.06-.4,2.15-.63,3.23,1.82-.17,3.56-.4,5.12-.66.17-.03.3-.03.46-.03.86,0,1.42.46,1.65,1.49.03.17.07.33.07.5,0,.86-.53,1.52-1.29,1.65-2.11.36-4.49.66-6.93.86-1.52,6.37-3.73,13.2-6.17,18.48ZM277.93,244.19c0,.3-.1.59-.3.86-.63.73-.92,1.52-.92,2.31,0,.99.5,1.62,1.39,2.01.99.43,2.34.53,3.89.53,2.24,0,4.69-.23,6.53-.63.2-.03.4-.07.56-.07.99,0,1.62.53,1.78,1.49.03.17.03.33.03.46,0,.92-.5,1.65-1.62,1.95-1.91.43-4.39.66-7.1.66-2.38,0-4.46-.33-5.94-.96-2.34-.96-3.3-2.61-3.3-5.05,0-1.49.66-3.27,1.78-4.52.4-.43.89-.66,1.39-.66.33,0,.66.1.96.26.56.3.86.82.86,1.35ZM287.9,234.45c1.12.07,1.75.92,1.75,2.01s-.63,1.88-1.72,1.88h-.13c-.83-.03-1.88-.03-2.81-.03-2.34,0-5.15.26-7.29.63-.13.03-.23.03-.33.03-.99,0-1.68-.69-1.78-1.78-.03-.1-.03-.23-.03-.33,0-.83.43-1.62,1.42-1.78,2.44-.4,5.51-.69,8.15-.73.89,0,1.82.03,2.77.1Z"/><path class="cls-1" d="M307.14,249.3c0,3.1-2.51,5.61-5.61,5.61s-5.61-2.51-5.61-5.61,2.54-5.61,5.58-5.61,5.64,2.48,5.64,5.61ZM298.55,249.3c0,1.62,1.35,3,2.97,3s3-1.39,3-3-1.39-3-3-3-2.97,1.39-2.97,3Z"/><path class="cls-1" d="M54.72,279.8c-1.09.23-2.41.46-3.79.63-3.7.46-7.43.96-10.73,1.49-.13.03-.26.03-.36.03-1.06,0-1.65-.63-1.78-1.58-.03-.13-.03-.26-.03-.4,0-.86.46-1.45,1.35-1.68,1.12-.3,2.24-.66,3.33-1.12,4.36-1.91,9.31-4.82,13.3-7.85-3.7.4-8.09.63-11.49.66-.86,0-1.58-.63-1.58-1.75,0-1.22.63-1.82,1.85-1.85,2.44,0,5.15-.07,7.66-.17,2.48-.1,4.82-.23,6.5-.36h.4c1.02,0,1.65.26,2.11,1.12.2.33.3.69.3,1.06,0,.63-.3,1.25-.83,1.78-2.71,2.51-6.11,4.69-9.47,6.4-1.06.5-2.25,1.02-3.53,1.52l.03.17c1.45-.33,3.17-.59,4.75-.79,4.09-.46,8.75-.89,12.87-1.12h.17c1.15,0,1.75.66,1.81,1.75v.17c0,1.06-.66,1.75-1.65,1.78-3.6.16-6.96.76-9.57,1.95-2.64,1.16-4.22,2.81-4.22,4.82,0,1.82,1.45,3,5.08,3.23.99.1,2.44.13,3.63.13h.17c1.09,0,1.85.59,1.88,1.75v.1c0,1.25-.66,1.98-1.82,2.08-.59,0-1.22.03-1.81.03-.83,0-1.65-.03-2.31-.1-5.58-.36-8.91-2.71-8.91-6.6,0-3.04,2.08-5.58,6.73-7.1l-.03-.17Z"/><path class="cls-1" d="M81.45,273.86c-.03.46-.07,1.09-.07,1.68,1.39-1.32,2.51-2.38,3.79-3.33,2.48-1.85,4.62-2.74,6.54-2.74,3.6,0,5.71,1.95,5.71,5.54,0,1.16-.2,2.61-.79,5.31-.76,3.47-1.02,5.38-1.02,6.53,0,1.29.5,1.75,1.42,1.75.99,0,1.55-.69,2.28-3,.26-.82.89-1.29,1.65-1.29.23,0,.46.03.73.13.79.26,1.32.89,1.32,1.72,0,.23-.03.43-.1.66-1.25,4.22-3.4,5.97-6.37,5.97s-4.98-1.68-4.98-5.15c0-1.58.26-3.73.92-6.8.59-2.87.83-4.49.83-5.54,0-1.39-.73-2.11-2.11-2.11-1.68,0-3.46.92-5.91,3.04-1.16.96-2.54,2.41-3.89,3.89-.03,1.58-.03,3.17-.03,4.72,0,2.71.03,5.45.07,8.15,0,1.06-.69,1.68-1.88,1.68h-.1c-1.02,0-1.85-.63-1.85-1.62v-4.22c0-1.52,0-3.04.03-4.32-.96,1.29-1.75,2.41-2.61,3.5-.43.56-.96.79-1.45.79-.43,0-.86-.2-1.25-.53-.4-.36-.63-.89-.63-1.42,0-.46.17-.92.46-1.35,1.55-2.01,3.4-4.32,5.51-6.6.03-1.49.07-3,.1-4.49-1.22.1-2.64.23-3.96.33h-.2c-.89,0-1.58-.59-1.62-1.52v-.26c0-1.06.56-1.75,1.49-1.85,1.39-.17,2.94-.26,4.39-.4.03-1.35.1-2.81.17-4.32.03-1.12.69-1.68,1.88-1.68h.1c1.16,0,1.78.59,1.78,1.62v.07c-.07,1.42-.13,2.64-.23,4.09.99,0,1.58.59,1.58,1.29,0,.46-.23.92-.73,1.32l-.96.76Z"/><path class="cls-1" d="M114.91,266.76c.17-1.19.96-1.58,1.92-1.58h.36c1.12.13,1.75.76,1.75,1.72,0,.13,0,.26-.03.36-.23,1.58-.66,3.3-.96,4.75.79-.03,1.49-.03,2.18-.03,4.59,0,6.7,2.57,6.7,8.02,0,3.04-.4,6.27-1.09,8.71-.96,3.56-3.07,4.98-6.01,4.98-1.45,0-3.17-.3-4.49-.92-.69-.33-1.09-.99-1.09-1.72,0-.26.07-.56.17-.82.33-.86.96-1.29,1.65-1.29.23,0,.5.07.73.17.92.36,2.01.59,2.91.59,1.19,0,1.95-.56,2.44-2.28.53-1.91.89-4.92.89-7.86,0-3.1-.86-4.06-3.43-4.06-.92,0-1.68.03-2.41.1-.46,1.85-1.06,3.8-1.72,5.74-1.45,4.19-3.17,8.22-4.98,11.39-.43.76-1.09,1.12-1.78,1.12-.36,0-.76-.1-1.09-.3-.73-.4-1.09-1.02-1.09-1.68,0-.4.13-.83.36-1.22,1.78-2.94,3.43-6.53,4.79-10.33.53-1.49,1.02-2.97,1.42-4.42-1.42.13-3.23.36-4.82.59-.1.03-.2.03-.3.03-.83,0-1.49-.53-1.62-1.55-.03-.1-.03-.2-.03-.33,0-.92.53-1.65,1.52-1.78,1.81-.26,4.12-.5,6.17-.66.43-1.82.76-3.66.99-5.45ZM130.39,270.52c-.53-1.02-1.29-2.15-1.98-3.1-.17-.23-.23-.46-.23-.69,0-.5.26-.92.73-1.16.26-.13.56-.2.83-.2.43,0,.79.17,1.09.53.76.99,1.52,2.15,2.05,3.14.1.26.17.5.17.76,0,.49-.23.92-.66,1.16-.3.17-.59.26-.89.26-.16,0-.33-.03-.49-.1.17.1.26.23.4.4,2.08,3.14,3.96,7.36,4.75,10.59.07.23.1.46.1.69,0,.76-.4,1.45-1.22,1.72-.3.1-.59.17-.89.17-.79,0-1.45-.4-1.72-1.29-.86-3.07-2.51-6.86-4.42-9.9-.17-.3-.26-.63-.26-.92,0-.66.36-1.29,1.06-1.62.36-.17.69-.23,1.02-.23s.63.07.89.2c-.13-.1-.23-.23-.3-.4ZM133.66,263.89c.43,0,.83.23,1.16.66.73.89,1.39,1.98,1.82,2.87.13.23.2.5.2.73,0,.5-.3.92-.76,1.19-.23.13-.5.2-.73.2-.5,0-.92-.26-1.19-.83-.53-.92-1.16-2.05-1.72-2.84-.17-.23-.23-.46-.23-.69,0-.46.3-.89.76-1.12.23-.1.46-.17.69-.17Z"/><path class="cls-1" d="M161.9,267.95c0-1.19.83-1.85,2.21-1.85s2.21.66,2.21,1.85v22.54c0,1.72-.99,2.64-2.74,2.64-1.95,0-2.71-.66-4.03-2.94l-6.63-11.45c-1.45-2.51-3.07-5.91-4.03-8.35.36,2.81.63,7.06.63,10.17v10.76c0,1.16-.83,1.82-2.18,1.82s-2.21-.66-2.21-1.82v-22.64c0-1.68,1.12-2.57,2.84-2.57,2.08,0,2.81.79,3.66,2.28l6.73,11.55c1.65,2.81,3.3,6.07,4.22,8.68-.33-2.64-.66-6.67-.66-9.54l-.03-11.12Z"/><path class="cls-1" d="M196.16,279.57c0,8.42-4.65,13.93-12.08,13.93s-12.21-5.41-12.21-13.93,4.69-13.8,12.18-13.8,12.11,5.45,12.11,13.8ZM176.59,279.6c0,5.97,2.87,9.77,7.46,9.77s7.39-3.73,7.39-9.97c0-5.81-2.8-9.54-7.39-9.54s-7.46,3.76-7.46,9.74Z"/><path class="cls-1" d="M218.37,267.95c0-1.19.83-1.85,2.21-1.85s2.21.66,2.21,1.85v22.54c0,1.72-.99,2.64-2.74,2.64-1.95,0-2.71-.66-4.03-2.94l-6.63-11.45c-1.45-2.51-3.07-5.91-4.03-8.35.36,2.81.63,7.06.63,10.17v10.76c0,1.16-.83,1.82-2.18,1.82s-2.21-.66-2.21-1.82v-22.64c0-1.68,1.12-2.57,2.84-2.57,2.08,0,2.81.79,3.66,2.28l6.73,11.55c1.65,2.81,3.3,6.07,4.22,8.68-.33-2.64-.66-6.67-.66-9.54l-.03-11.12Z"/><path class="cls-1" d="M241.66,266.33c4.92,0,7.82,2.41,7.82,6.5,0,3.23-1.45,5.15-4.32,6.11,3.47.76,5.21,3,5.21,6.6,0,4.59-3.07,7.36-8.35,7.36h-8.55c-2.9,0-4.09-1.22-4.09-4.19v-18.19c0-2.97,1.19-4.19,4.09-4.19h8.19ZM241.14,277.12c2.34,0,3.76-1.35,3.76-3.56s-1.29-3.37-3.83-3.37h-6.34c-.59,0-.96.36-.96,1.02v5.91h7.36ZM233.77,288.01c0,.66.36.99.99.99h6.57c2.77,0,4.32-1.45,4.32-4.06s-1.58-4.03-4.39-4.03h-7.49v7.1Z"/><path class="cls-1" d="M278.82,279.57c0,8.42-4.65,13.93-12.08,13.93s-12.21-5.41-12.21-13.93,4.69-13.8,12.18-13.8,12.11,5.45,12.11,13.8ZM259.25,279.6c0,5.97,2.87,9.77,7.46,9.77s7.39-3.73,7.39-9.97c0-5.81-2.8-9.54-7.39-9.54s-7.46,3.76-7.46,9.74Z"/><path class="cls-1" d="M305.26,290.39c.1.26.17.5.17.73,0,.96-.76,1.68-1.68,1.91-.3.07-.59.1-.89.1-.83,0-1.52-.3-1.85-1.16l-.83-2.18c-2.41-6.34-3-8.09-6.24-8.09h-5.35v9.57c0,1.19-.76,1.85-2.14,1.85s-2.25-.66-2.25-1.85v-20.76c0-3,1.22-4.19,4.09-4.19h8.09c4.88,0,7.76,2.64,7.76,6.93,0,3.8-1.95,5.78-5.08,6.63,2.18.66,2.87,2.64,5.38,8.55l.83,1.95ZM295.65,277.88c2.41,0,3.99-1.55,3.99-3.89s-1.32-3.8-3.86-3.8h-6.14c-.63,0-1.06.36-1.06,1.09v6.6h7.06Z"/><path class="cls-1" d="M315.52,291.32c0,1.16-.92,1.82-2.31,1.82s-2.28-.66-2.28-1.82v-23.37c0-1.19.86-1.85,2.28-1.85s2.31.66,2.31,1.85v23.37Z"/><path class="cls-1" d="M336.87,284.55c-1.09,2.97-2.15,4.49-3.4,5.48-1.12.89-2.44,1.29-3.89,1.29-3.56,0-6.73-3.23-6.73-9.67,0-8.25,5.91-14.49,15.21-14.49,8.22,0,13.57,5.38,13.57,12.97,0,4.75-2.01,8.38-5.41,10.66-1.95,1.35-4.49,2.21-7.1,2.54-.17.03-.3.03-.46.03-.99,0-1.78-.46-1.95-1.58-.03-.17-.03-.33-.03-.46,0-.99.56-1.75,1.62-1.91,2.28-.33,4.52-1.09,6.07-2.24,1.91-1.49,3.23-3.89,3.23-7.16,0-5.15-3.23-8.98-8.19-9.24-.33,5.38-1.22,10.2-2.54,13.8ZM326.67,281.58c0,3.93,1.39,5.61,2.87,5.61.63,0,1.25-.23,1.85-.79.63-.56,1.25-1.75,1.92-3.63,1.02-2.94,1.91-7.39,2.14-11.91-5.12.53-8.78,4.88-8.78,10.73Z"/><path class="cls-1" d="M120.88,307.06c0,.2-.03.43-.07.66-.92,4.09-1.68,9.6-1.68,13.86,0,3.14.33,6.8.92,9.84.03.23.07.46.07.66,0,1.02-.53,1.65-1.58,1.85-.2.03-.4.07-.56.07-.99,0-1.65-.63-1.88-1.72-.59-2.9-.96-6.67-.96-10.59,0-4.49.76-10.66,1.82-14.79.23-1.02.92-1.49,1.81-1.49.2,0,.4.03.59.07.96.17,1.52.69,1.52,1.58ZM137.19,328.15c0,3.14-1.75,5.38-6.9,5.38-4.19,0-7.13-2.11-7.13-5.84,0-3.2,2.64-5.51,6.73-5.51,1.25,0,2.48.13,3.43.4-.07-.92-.13-2.05-.2-3.04-.1-1.29-.17-2.67-.2-4.16-1.62.07-3.4.13-5.18.13-1.09,0-2.18-.03-3.23-.07-1.12-.03-1.65-.83-1.65-1.91s.66-1.85,1.72-1.82c1.02.03,2.05.03,3.1.03,1.68,0,3.4-.03,5.15-.13,0-1.52-.03-3.04-.03-4.46,0-1.16.69-1.75,1.85-1.75,1.25,0,1.98.66,1.95,1.72v4.26c1.45-.13,2.9-.26,4.19-.49.13-.03.26-.03.4-.03.92,0,1.52.63,1.58,1.52.03.13.03.26.03.4,0,.96-.43,1.58-1.39,1.75-1.35.26-3,.46-4.75.63.03,1.58.1,3.07.2,4.49.1,1.25.23,2.77.33,4.09,1.88.82,4.16,2.41,5.54,3.83.4.36.59.89.59,1.42,0,.5-.17,1.02-.53,1.42-.4.4-.92.63-1.42.63-.43,0-.83-.17-1.16-.46-1.06-1.12-2.08-1.98-3.04-2.61v.2ZM129.99,325.37c-1.95,0-3.27.92-3.27,2.38s1.32,2.38,3.33,2.38c2.57,0,3.56-1.06,3.56-3.07,0-.36,0-.66-.03-.96-1.02-.46-2.31-.73-3.6-.73Z"/><path class="cls-1" d="M154.64,307.32v.1c-.17,4.98-.43,10.66-.43,15.88,0,2.77.4,4.36,1.42,5.28.99.89,2.48,1.22,4.49,1.22,2.41,0,4.69-.83,6.47-2.67,1.39-1.49,2.54-3.63,3.3-6.27.3-1.02.99-1.49,1.78-1.49.3,0,.59.07.89.17.86.3,1.35.96,1.35,1.85,0,.26-.03.53-.13.83-1.02,3.43-2.51,6.2-4.59,8.19-2.44,2.31-5.61,3.5-9.21,3.5-3.2,0-5.61-.73-7.33-2.28-1.72-1.62-2.54-4.03-2.54-8.12,0-5.35.17-11.42.4-16.27.03-1.12.83-1.82,1.98-1.82h.17c1.32.03,1.98.73,1.98,1.91ZM165.01,308.01c.4,0,.83.17,1.12.53.89,1.02,1.88,2.41,2.44,3.4.17.3.23.59.23.86,0,.49-.23.96-.66,1.19-.26.17-.59.26-.92.26-.46,0-.92-.2-1.22-.69-.63-.99-1.55-2.31-2.28-3.2-.23-.3-.33-.59-.33-.89,0-.5.26-.92.73-1.22.3-.17.59-.23.89-.23ZM168.9,306c.43,0,.83.2,1.16.56.83.92,1.72,2.15,2.28,3.14.2.33.26.63.26.92,0,.53-.26.92-.66,1.16-.3.2-.63.3-.92.3-.46,0-.92-.23-1.22-.73-.63-1.06-1.45-2.28-2.18-3.14-.2-.23-.3-.49-.3-.76,0-.46.3-.92.73-1.19.26-.17.56-.26.86-.26Z"/><path class="cls-1" d="M196.78,327.59c0,3.8-1.52,6.34-7.43,6.34-4.88,0-8.02-2.24-8.02-5.81s3-5.97,8.68-5.97c.99,0,1.88.1,2.81.26-.13-1.19-.17-2.24-.23-3.43-1.25.03-2.44.03-3.6.03-2.31,0-4.12,0-6.21-.13-1.02-.1-1.55-.83-1.55-1.75v-.17c.1-.99.69-1.65,1.58-1.65h.13c1.98.1,3.73.13,5.94.13.56.03,1.16.03,1.72.03.59,0,1.19,0,1.78-.03-.03-1.06-.07-2.15-.1-3.27h-3c-2.84,0-5.41-.03-7.03-.13-1.09-.07-1.55-.86-1.55-1.75v-.2c.1-.96.66-1.65,1.68-1.65h.13c1.65.1,4.03.17,6.63.17,1.02,0,2.05,0,3.07-.03v-2.21c0-1.06.66-1.58,1.88-1.58s1.85.46,1.85,1.75v2.01c3.1-.1,5.88-.3,8.61-.63.17-.03.33-.03.46-.03.99,0,1.45.56,1.58,1.49.03.13.03.23.03.33,0,.92-.5,1.55-1.49,1.68-3.04.4-5.94.63-9.18.73,0,1.06.03,2.08.1,3.23,2.87-.13,5.45-.36,8.15-.73.13-.03.26-.03.4-.03.96,0,1.45.56,1.55,1.55.03.1.03.23.03.33,0,.96-.56,1.49-1.55,1.65-2.67.4-5.41.63-8.48.73.1,1.52.2,2.81.33,4.29.83.26,1.55.5,2.28.79,2.71,1.12,5.48,2.67,7.59,4.55.53.49.79,1.06.79,1.65,0,.43-.13.83-.4,1.22-.43.56-1.02.86-1.65.86-.46,0-.96-.2-1.35-.56-1.68-1.55-3.7-2.87-5.61-3.86-.43-.2-.92-.46-1.39-.66v.46ZM189.62,325.54c-3.1,0-4.46,1.02-4.46,2.54s1.52,2.31,3.86,2.31c2.81,0,4.03-.82,4.03-3.27,0-.33-.03-.69-.07-1.06-1.02-.3-2.21-.53-3.37-.53Z"/><path class="cls-1" d="M220.21,316.2c.56-1.85,1.32-3.5,2.05-4.65,1.85-2.97,4.49-4.49,7.36-4.49,5.02,0,8.81,3.93,8.81,11.45,0,6.27-2.21,10.33-5.94,12.77-2.44,1.62-5.88,2.77-9.24,3.07h-.3c-1.06,0-1.81-.46-2.05-1.58-.03-.2-.03-.36-.03-.53,0-1.02.63-1.78,1.82-1.88,2.94-.33,5.84-1.29,7.79-2.67,2.48-1.78,3.8-4.72,3.8-9.18,0-5.15-2.18-7.76-5.21-7.76-2.54,0-4.95,1.78-6.54,5.31-1.12,2.48-1.72,5.12-1.72,7.69,0,1.19-.46,1.98-1.78,2.08h-.1c-.96,0-1.72-.56-1.98-1.85-.3-1.65-.5-3.86-.5-6.01.03-3.63.79-8.02,1.82-11.82.33-1.09,1.02-1.55,1.95-1.55.13,0,.23,0,.36.03.99.13,1.49.63,1.49,1.45,0,.23-.03.5-.13.79-.59,2.08-1.19,4.62-1.42,6.37-.16.96-.33,1.98-.46,2.9l.17.03Z"/><path class="cls-1" d="M257.97,329.3c0,3.1-2.51,5.61-5.61,5.61s-5.61-2.51-5.61-5.61,2.54-5.61,5.58-5.61,5.64,2.48,5.64,5.61ZM249.38,329.3c0,1.62,1.35,3,2.97,3s3-1.39,3-3-1.39-3-3-3-2.97,1.39-2.97,3Z"/></svg>