<?xml version="1.0" encoding="UTF-8"?><svg id="_レイヤー_1" xmlns="http://www.w3.org/2000/svg" viewBox="0 0 389.22 617.06"><defs><style>.cls-1{fill:#fff;}.cls-2{fill:red;}</style></defs><path class="cls-2" d="M389.22,194.61C389.22,87.13,302.08,0,194.61,0S0,87.13,0,194.61v227.84c0,107.48,87.14,194.61,194.61,194.61s194.61-87.13,194.61-194.61v-227.84Z"/><path class="cls-1" d="M273.09,431.08H116.91c-10.04,0-18.18,8.14-18.18,18.18v2.52c0,10.04,8.14,18.18,18.18,18.18h156.18c10.04,0,18.18-8.14,18.18-18.18v-2.52c0-10.04-8.14-18.18-18.18-18.18Z"/><path class="cls-1" d="M104.88,162.1c-2.91.15-6.32.25-9.03.25-1.58,0-2.55-1.17-2.55-2.8,0-1.73.82-2.96,2.5-2.96,2.6,0,5.97-.1,9.08-.31v-6.63c0-1.63,1.12-2.5,2.86-2.5,1.83,0,2.91.87,2.91,2.5v6.22c2.75-.25,5.46-.56,7.7-.97.2-.05.41-.05.61-.05,1.43,0,2.29.82,2.55,2.35.05.25.05.51.05.71,0,1.53-.87,2.35-2.29,2.6-2.55.46-5.56.82-8.62,1.12v7.04c3.31-.87,6.68-1.38,9.89-1.38,9.49,0,15.04,4.69,15.04,12.29s-4.74,12.14-11.42,12.14c-3.72,0-6.99-1.38-9.23-3.98-.56-.66-.82-1.38-.82-2.04,0-.82.41-1.58,1.07-2.19.71-.61,1.43-.92,2.14-.92s1.43.31,1.99.92c1.53,1.53,2.96,2.24,4.74,2.24,2.86,0,5.35-2.29,5.35-6.12,0-4.33-3.06-7.14-9.23-7.14-3.21,0-6.63.61-9.54,1.68v10.66c0,4.69-2.5,7.19-6.78,7.19-2.04,0-4.33-.71-6.63-2.29-2.65-1.73-4.44-4.08-4.44-7.29,0-1.63.61-3.21,1.68-4.74,2.09-2.8,5.86-5.56,10.4-7.34v-8.26ZM104.88,176.23c-2.6,1.22-4.59,2.75-5.51,4.08-.56.71-.82,1.53-.82,2.24,0,1.07.76,1.99,1.73,2.65.87.56,1.94.92,2.86.92,1.27,0,1.73-.61,1.73-2.45v-7.45ZM137.21,159.71c.46.61.71,1.33.71,2.04,0,.82-.31,1.58-.87,2.14-.61.56-1.38.87-2.19.87-.76,0-1.48-.31-2.09-.97-2.29-2.75-5.66-5.81-8.46-7.8-.66-.46-1.02-1.22-1.02-2.04,0-.66.25-1.38.82-1.99.61-.66,1.38-.97,2.19-.97.56,0,1.22.2,1.73.56,3.01,1.94,6.88,5.3,9.18,8.16Z"/><path class="cls-1" d="M150.07,175.21c0-2.4.1-4.74.25-6.83-.56.87-1.12,1.73-1.79,2.45-.71.77-1.48,1.17-2.24,1.17-.66,0-1.33-.26-1.94-.82-.66-.56-.97-1.27-.97-2.04,0-.66.25-1.33.76-1.94,4.23-5,8.06-11.98,9.74-18.72.25-1.17,1.22-1.78,2.5-1.78.36,0,.71.05,1.12.15,1.33.26,2.04,1.12,2.04,2.29,0,.31-.05.66-.15,1.02-.92,3.01-2.04,6.17-3.72,9.28v32.64c0,1.33-1.07,2.04-2.86,2.04-1.68,0-2.75-.71-2.75-2.04v-16.88ZM188.31,186.58c1.27,0,1.99,1.02,1.99,2.65,0,1.53-.71,2.7-1.99,2.7h-27.69c-1.33,0-1.99-1.12-1.99-2.7s.66-2.65,1.99-2.65h10.61v-19.43h-11.58c-1.28,0-2.04-1.12-2.04-2.7s.76-2.75,2.04-2.75h11.58v-12.49c0-1.38,1.07-2.14,2.91-2.14s2.91.76,2.91,2.09v12.54h12.75c1.33,0,2.04,1.12,2.04,2.75s-.71,2.7-2.04,2.7h-12.75v19.43h11.27Z"/><path class="cls-1" d="M240.64,182.09c0,3.01-1.28,4.28-5,4.28h-12.49v2.55c0,3.82-1.84,5.35-6.83,5.35-1.68,0-3.62-.15-5.05-.46-1.02-.2-1.79-.82-1.79-2.14,0-.2,0-.41.05-.61.15-1.38,1.07-1.94,1.99-1.94.15,0,.31,0,.46.05,1.12.2,2.6.41,3.77.41,1.68,0,2.14-.36,2.14-1.63v-1.58h-16.11c-1.02,0-1.63-.82-1.63-2.14s.61-2.09,1.63-2.09h16.11v-2.4h-19.28c-1.02,0-1.58-.87-1.58-2.14s.56-2.14,1.58-2.14h19.28v-2.29h-15.71c-1.02,0-1.63-.87-1.63-2.09s.61-2.09,1.63-2.09h15.71v-2.24h-11.58c-3.01,0-4.33-.97-4.33-3.26v-3.72c0-2.29,1.33-3.26,4.33-3.26h11.58v-2.19h-18.77c-1.12,0-1.73-.87-1.73-2.24s.61-2.19,1.73-2.19h18.77v-1.84c0-1.22,1.02-1.73,2.65-1.73s2.6.51,2.6,1.73v1.84h19.43c1.12,0,1.73.87,1.73,2.19s-.61,2.24-1.73,2.24h-19.43v2.19h12.29c3.06,0,4.33.97,4.33,3.26v3.72c0,2.29-1.28,3.26-4.33,3.26h-12.29v2.24h12.49c3.72,0,5,1.27,5,4.28v2.14h2.6c1.02,0,1.68.82,1.68,2.19s-.66,2.19-1.68,2.19h-2.6v2.29ZM208.51,160.22c-.92,0-1.28.15-1.28.82v1.17c0,.66.36.82,1.28.82h9.38v-2.8h-9.38ZM233.25,163.02c.92,0,1.27-.15,1.27-.82v-1.17c0-.66-.36-.82-1.27-.82h-10.1v2.8h10.1ZM235.29,174.19c0-.87-.31-1.02-1.33-1.02h-10.81v2.29h12.14v-1.27ZM235.13,179.75h-11.98v2.4h10.81c1.02,0,1.33-.26,1.33-1.12v-1.27h-.15Z"/><path class="cls-1" d="M274.51,177.91c-1.68,4.59-3.31,6.94-5.25,8.47-1.73,1.38-3.77,1.99-6.02,1.99-5.51,0-10.4-5-10.4-14.94,0-12.75,9.13-22.39,23.51-22.39,12.7,0,20.96,8.31,20.96,20.04,0,7.34-3.11,12.95-8.36,16.47-3.01,2.09-6.94,3.42-10.96,3.93-.25.05-.46.05-.71.05-1.53,0-2.75-.71-3.01-2.45-.05-.26-.05-.51-.05-.71,0-1.53.87-2.7,2.5-2.96,3.52-.51,6.99-1.68,9.38-3.47,2.96-2.29,5-6.02,5-11.07,0-7.96-5-13.87-12.65-14.28-.51,8.31-1.89,15.76-3.93,21.32ZM258.75,173.32c0,6.07,2.14,8.67,4.44,8.67.97,0,1.94-.36,2.86-1.22.97-.87,1.94-2.7,2.96-5.61,1.58-4.54,2.96-11.42,3.32-18.41-7.9.82-13.57,7.55-13.57,16.57Z"/><path class="cls-1" d="M125.84,228.21c.76-.66,1.53-.97,2.29-.97s1.48.31,2.09.82c.71.61,1.02,1.27,1.02,1.94s-.36,1.33-.92,1.84c-1.99,1.78-3.06,3.82-3.06,5.66s1.17,3.16,3.77,3.98c2.45.76,5.71,1.07,9.94,1.07,5.15,0,10.25-.66,14.28-1.63.36-.05.71-.1,1.02-.1,1.53,0,2.55.82,2.91,2.4.05.36.1.66.1.97,0,1.58-.97,2.6-2.7,3.06-3.77,1.02-9.18,1.58-15.86,1.58-5.71,0-10.35-.77-13.67-2.09-3.83-1.53-5.97-4.54-5.97-8.87,0-3.01,1.38-6.58,4.74-9.64ZM145.17,215.21c-2.75.31-6.17.46-9.23.46-3.52,0-7.09-.1-9.74-.36-1.63-.15-2.55-1.22-2.55-2.75,0-.15,0-.36.05-.51.15-1.68,1.17-2.65,2.75-2.65h.41c3.26.26,7.7.36,12.34.36s9.38-.15,12.65-.41h.31c1.79,0,2.96.92,3.32,2.4.1.36.15.71.15,1.02,0,1.22-.61,2.24-1.89,3.01-3.26,1.84-7.5,4.44-10.86,6.37-.87.56-1.68.82-2.45.82-.82,0-1.48-.31-2.04-.92-.41-.41-.61-1.02-.61-1.63,0-.76.36-1.48,1.12-1.94,1.73-.97,3.93-1.99,6.32-3.01l-.05-.25ZM152.82,220c.61,0,1.22.26,1.73.82,1.27,1.43,2.65,3.31,3.62,4.84.25.46.36.87.36,1.27,0,.76-.36,1.38-1.02,1.84-.41.31-.97.46-1.48.46-.71,0-1.38-.31-1.79-.92-1.02-1.68-2.35-3.47-3.47-4.84-.25-.36-.41-.82-.41-1.17,0-.76.41-1.48,1.07-1.89.46-.25.92-.41,1.38-.41ZM158.63,216.79c.66,0,1.28.25,1.79.76,1.27,1.38,2.5,3.16,3.31,4.59.25.51.41.97.41,1.43,0,.66-.31,1.27-.92,1.68-.46.31-.97.46-1.48.46-.71,0-1.38-.31-1.84-1.07-.92-1.48-2.14-3.21-3.16-4.44-.36-.41-.51-.82-.51-1.27,0-.71.46-1.43,1.12-1.84.41-.2.82-.31,1.27-.31Z"/><path class="cls-1" d="M184.14,218.98c1.38,3.31,3.52,6.53,5.61,9.18.31.41.51.97.51,1.58s-.2,1.33-.76,1.89c-.51.56-1.12.82-1.68.82-.61,0-1.22-.31-1.58-.82-1.07-1.53-2.29-3.62-3.31-6.58.46,2.86.66,5.56.66,8.06v17.29c0,1.33-1.02,2.04-2.7,2.04s-2.65-.71-2.65-2.04v-14.28c0-2.45.25-5.86.66-8.87-1.12,3.98-2.96,8.36-4.95,11.32-.46.66-1.12,1.02-1.83,1.02-.61,0-1.22-.25-1.73-.76-.56-.51-.87-1.22-.87-1.99,0-.56.2-1.12.56-1.68,3.06-4.18,5.76-10.25,7.29-16.17h-5.2c-1.28,0-1.94-.97-1.94-2.55s.66-2.5,1.94-2.5h6.07v-7.55c0-1.27,1.02-1.99,2.65-1.99s2.7.71,2.7,1.99v7.55h4.08c1.28,0,1.94.97,1.94,2.5s-.66,2.55-1.94,2.55h-3.52ZM191.07,211.49c0-4.08,1.68-5.41,5.25-5.41h14.94c3.42,0,4.95,1.33,4.95,5.41v33.96c0,3.98-1.53,5.35-4.95,5.35h-14.94c-3.57,0-5.25-1.38-5.25-5.35v-33.96ZM210.7,212.61c0-1.02-.36-1.22-1.22-1.22h-11.63c-.87,0-1.27.2-1.27,1.22v6.43h14.12v-6.43ZM196.58,224.13v7.8h14.12v-7.8h-14.12ZM196.58,237.03v7.24c0,.97.41,1.22,1.27,1.22h11.63c.87,0,1.22-.26,1.22-1.22v-7.24h-14.12Z"/><path class="cls-1" d="M226.62,218.42c-1.22,0-1.84-1.12-1.84-2.55s.61-2.55,1.84-2.55h14.64c1.27,0,1.89,1.12,1.89,2.55s-.61,2.55-1.89,2.55h-14.64ZM242.22,247.44c0,2.75-1.27,3.82-4.13,3.82h-7.55c-2.86,0-4.13-1.07-4.13-3.82v-7.85c0-2.75,1.28-3.77,4.13-3.77h7.55c2.86,0,4.13,1.02,4.13,3.77v7.85ZM228.1,225.71c-1.12,0-1.63-1.02-1.63-2.29s.51-2.29,1.63-2.29h12.44c1.02,0,1.58,1.02,1.58,2.29s-.56,2.29-1.58,2.29h-12.44ZM228.1,233.06c-1.12,0-1.63-1.02-1.63-2.29s.51-2.29,1.63-2.29h12.44c1.02,0,1.58,1.02,1.58,2.29s-.56,2.29-1.58,2.29h-12.44ZM228.51,210.57c-1.07,0-1.73-.97-1.73-2.35s.66-2.35,1.73-2.35h11.98c1.07,0,1.73.97,1.73,2.35s-.66,2.35-1.73,2.35h-11.98ZM237.13,241.32c0-.87-.36-1.07-1.22-1.07h-3.21c-.87,0-1.17.2-1.17,1.07v4.39c0,.87.31,1.12,1.17,1.12h3.21c.87,0,1.22-.25,1.22-1.12v-4.39ZM246.51,252.03c-.46.25-.92.36-1.38.36-.92,0-1.73-.46-2.29-1.48-.25-.46-.36-.97-.36-1.48,0-.92.51-1.78,1.43-2.24,4.54-2.04,7.45-5.05,9.23-9.33,1.22-2.91,1.63-6.12,1.63-10.4,0-1.33,1.02-1.94,2.7-1.94s2.7.61,2.7,1.94v.51c0,4.49.66,7.14,1.89,9.79,1.84,3.98,5.66,7.09,9.69,8.98.92.41,1.43,1.33,1.43,2.35,0,.51-.15,1.02-.41,1.58-.56,1.02-1.43,1.58-2.4,1.58-.51,0-1.07-.15-1.58-.41-4.95-2.75-9.03-6.48-11.17-12.75-1.79,6.48-6.02,10.61-11.12,12.95ZM247.07,228.57c-.46.2-.87.31-1.33.31-.92,0-1.78-.51-2.29-1.53-.25-.46-.36-.92-.36-1.33,0-.97.56-1.73,1.43-2.14,3.77-1.63,7.19-4.23,8.77-7.75,1.27-2.86,1.58-5.41,1.58-9.64,0-1.27,1.02-1.94,2.7-1.94s2.65.66,2.65,1.94c0,4.33.36,7.09,1.79,9.49,2.14,3.57,5.46,5.86,9.33,7.65.87.41,1.48,1.22,1.48,2.24,0,.41-.1.82-.31,1.27-.56,1.17-1.38,1.68-2.29,1.68-.46,0-.87-.1-1.33-.31-4.64-2.14-9.13-5.81-11.22-11.52-1.58,5.61-5.81,9.38-10.61,11.58ZM251.3,231.68c0,.15,0,.31-.05.46-.56,2.29-1.94,5.25-3.11,7.14-.46.71-1.12,1.07-1.94,1.07-.56,0-1.12-.15-1.73-.51-.87-.51-1.28-1.33-1.28-2.09,0-.41.1-.82.31-1.17.92-1.53,2.04-3.93,2.65-5.92.25-.76,1.02-1.27,2.09-1.27.31,0,.61.05.92.1,1.27.31,2.14,1.12,2.14,2.19ZM251.71,209.09c0,.1,0,.25-.05.36-.51,2.5-1.48,4.9-2.75,7.09-.46.76-1.28,1.27-2.24,1.27-.41,0-.82-.1-1.22-.31-1.12-.51-1.63-1.38-1.63-2.24,0-.31.1-.61.25-.92,1.02-1.84,1.99-4.08,2.45-5.97.26-.97,1.07-1.53,2.19-1.53.25,0,.56.05.82.1,1.48.26,2.19,1.17,2.19,2.14ZM271.75,209.29c0,.26-.05.51-.2.76-1.12,2.24-2.45,4.54-4.08,6.27-.51.61-1.12.92-1.78.92-.61,0-1.22-.25-1.89-.76-.66-.51-.97-1.17-.97-1.84,0-.41.15-.87.46-1.33,1.02-1.43,2.29-3.37,3.26-5.35.41-.82,1.07-1.22,1.99-1.22.41,0,.92.1,1.43.31,1.17.46,1.79,1.38,1.79,2.24ZM265.94,239.48c-.56,0-1.12-.2-1.68-.56-.82-.56-1.28-1.33-1.28-2.09,0-.41.1-.82.36-1.17,1.17-1.43,2.35-3.37,3.16-5.15.31-.71,1.07-1.17,2.04-1.17.36,0,.82.1,1.27.26,1.12.46,1.84,1.38,1.84,2.29,0,.25-.05.51-.15.76-.92,2.09-2.24,4.18-3.77,6.02-.46.51-1.07.82-1.78.82Z"/></svg>