<?xml version="1.0" encoding="UTF-8"?><svg id="_レイヤー_1" xmlns="http://www.w3.org/2000/svg" viewBox="0 0 344.68 468.18"><defs><style>.cls-1{fill:#fff;}.cls-2{fill:red;}</style></defs><path class="cls-2" d="M54.3,10.59c-1.88.1-4.09.17-5.84.17-1.02,0-1.65-.76-1.65-1.82,0-1.12.53-1.91,1.62-1.91,1.68,0,3.86-.07,5.87-.2V2.54c0-1.06.73-1.62,1.85-1.62,1.19,0,1.88.56,1.88,1.62v4.03c1.78-.17,3.53-.36,4.98-.63.13-.03.26-.03.4-.03.92,0,1.49.53,1.65,1.52.03.17.03.33.03.46,0,.99-.56,1.52-1.49,1.68-1.65.3-3.6.53-5.58.73v4.55c2.15-.56,4.32-.89,6.4-.89,6.14,0,9.74,3.04,9.74,7.95s-3.07,7.86-7.39,7.86c-2.41,0-4.52-.89-5.97-2.57-.36-.43-.53-.89-.53-1.32,0-.53.26-1.02.69-1.42.46-.4.92-.59,1.39-.59s.92.2,1.29.59c.99.99,1.91,1.45,3.07,1.45,1.85,0,3.47-1.49,3.47-3.96,0-2.81-1.98-4.62-5.97-4.62-2.08,0-4.29.4-6.17,1.09v6.9c0,3.04-1.62,4.65-4.39,4.65-1.32,0-2.81-.46-4.29-1.49-1.72-1.12-2.87-2.64-2.87-4.72,0-1.06.4-2.08,1.09-3.07,1.35-1.82,3.8-3.6,6.73-4.75v-5.35ZM54.3,19.74c-1.68.79-2.97,1.78-3.56,2.64-.36.46-.53.99-.53,1.45,0,.69.5,1.29,1.12,1.72.56.36,1.25.59,1.85.59.83,0,1.12-.4,1.12-1.58v-4.82ZM75.22,9.04c.3.4.46.86.46,1.32,0,.53-.2,1.02-.56,1.39-.4.36-.89.56-1.42.56-.5,0-.96-.2-1.35-.63-1.49-1.78-3.66-3.76-5.48-5.05-.43-.3-.66-.79-.66-1.32,0-.43.17-.89.53-1.29.4-.43.89-.63,1.42-.63.36,0,.79.13,1.12.36,1.95,1.25,4.46,3.43,5.94,5.28Z"/><path class="cls-2" d="M87.27,6.24c-1.32,2.01-2.84,3.86-4.42,5.35-.33.33-.76.5-1.22.5-.53,0-1.06-.2-1.45-.63-.36-.33-.56-.76-.56-1.16,0-.46.2-.92.63-1.29,2.34-2.08,4.36-4.92,5.68-7.72.3-.59.83-.89,1.58-.89.2,0,.4.03.63.07,1.06.17,1.52.56,1.52,1.16,0,.26-.1.59-.26.92-.1.17-.17.36-.26.53h18.35c.89,0,1.35.59,1.35,1.55s-.46,1.62-1.35,1.62h-20.2ZM84.66,20.63c-.4-.2-.63-.63-.63-1.12,0-.3.1-.66.36-.96.43-.63.96-.89,1.52-.89.3,0,.59.1.89.23,1.78.99,3.53,2.05,5.21,3.2.92-.99,1.75-2.01,2.47-3.1.3-.5.79-.76,1.35-.76.33,0,.69.1,1.09.26.76.36,1.09.89,1.09,1.42,0,.3-.1.63-.3.89-.86,1.19-1.81,2.31-2.8,3.37,1.62,1.22,3.17,2.51,4.62,3.83.4.33.59.83.59,1.32s-.2,1.02-.59,1.35c-.4.43-.83.66-1.29.66-.4,0-.83-.17-1.22-.59-1.45-1.42-3.07-2.77-4.75-4.09-2.67,2.28-5.68,4.09-8.78,5.38-.33.13-.66.2-.96.2-.66,0-1.19-.4-1.55-1.12-.13-.3-.2-.59-.2-.86,0-.66.36-1.22,1.09-1.49,2.67-1.06,5.21-2.51,7.43-4.22-1.49-1.02-3.07-1.98-4.65-2.9ZM101.72,13.17c2.15,0,3.4,1.06,3.4,2.94,0,5.51.5,8.85,1.49,10.56.13.23.23.33.33.33s.2-.13.26-.36c.17-.56.3-1.55.36-2.84.03-.89.73-1.25,1.52-1.25h.16c.96.1,1.55.63,1.55,1.55v.17c-.17,2.44-.53,4.32-1.65,5.91-.46.66-1.25.99-2.05.99-.73,0-1.49-.26-2.05-.79-1.82-1.58-3.56-4.42-3.56-12.97,0-.76-.23-1.09-1.12-1.09h-17.82c-.92,0-1.39-.63-1.39-1.55s.46-1.58,1.39-1.58h19.18ZM105.22,8.22c.79,0,1.22.56,1.22,1.45s-.43,1.49-1.22,1.49h-18.12c-.76,0-1.19-.63-1.19-1.45s.43-1.49,1.19-1.49h18.12Z"/><path class="cls-2" d="M116.63,6.37c-.73,0-1.16-.66-1.16-1.58,0-.86.43-1.49,1.16-1.49h4.55v-1.72c0-.79.56-1.19,1.62-1.19,1.12,0,1.65.4,1.65,1.19v1.72h4.06c.76,0,1.16.63,1.16,1.49,0,.92-.4,1.58-1.16,1.58h-4.06v1.95h2.05c1.88,0,2.94.73,2.94,2.71v7.85c0,1.98-1.06,2.74-2.94,2.74h-2.01v1.98h4.42c.76,0,1.16.63,1.16,1.55s-.4,1.55-1.16,1.55h-4.42v3.7c0,.79-.56,1.19-1.65,1.19s-1.65-.4-1.65-1.19v-3.7h-4.69c-.73,0-1.12-.63-1.12-1.55s.4-1.55,1.12-1.55h4.69v-1.98h-2.05c-1.88,0-2.94-.76-2.94-2.74v-7.89c0-1.95,1.06-2.67,2.94-2.67h2.05v-1.95h-4.55ZM119.97,11.16c-.5,0-.76.13-.76.66v1.75h2.08v-2.41h-1.32ZM121.29,16.27h-2.08v1.85c0,.56.26.66.76.66h1.32v-2.51ZM124.36,13.56h2.05v-1.75c0-.53-.23-.66-.73-.66h-1.32v2.41ZM125.68,18.78c.5,0,.73-.1.73-.66v-1.85h-2.05v2.51h1.32ZM131.69,22.51c-.79,0-1.25-.66-1.25-1.62s.46-1.58,1.25-1.58h4.06v-2.77c0-.83.73-1.29,1.72-1.29,1.06,0,1.75.46,1.75,1.29v2.77h4.65c.86,0,1.25.66,1.25,1.58s-.4,1.62-1.25,1.62h-4.65v4.69h5.78c.86,0,1.29.66,1.29,1.62s-.43,1.65-1.29,1.65h-14.85c-.83,0-1.25-.66-1.25-1.65s.43-1.62,1.25-1.62h5.61v-4.69h-4.06ZM131.32,4.79c-.86,0-1.32-.63-1.32-1.62s.46-1.58,1.32-1.58h10.79c1.85,0,2.77,1.06,2.77,2.41,0,.5-.13,1.06-.4,1.62-.99,1.98-2.44,3.86-4.16,5.51,1.48.86,3.07,1.52,4.88,2.11.73.23,1.09.79,1.09,1.45,0,.26-.03.53-.13.79-.3.79-.86,1.19-1.52,1.19-.26,0-.5-.03-.76-.13-2.28-.83-4.32-1.88-6.21-3.2-1.68,1.25-3.53,2.31-5.38,3.1-.3.13-.59.2-.86.2-.63,0-1.19-.33-1.45-1.02-.1-.3-.17-.59-.17-.89,0-.63.33-1.16.96-1.42,1.52-.56,2.97-1.32,4.29-2.21-1.22-1.19-2.31-2.54-3.37-4.13-.17-.26-.23-.53-.23-.76,0-.53.36-.99.92-1.25.17-.07.33-.13.46-.17h-1.55ZM133.7,4.79c.4.1.76.36.99.73.96,1.45,1.95,2.61,2.97,3.6,1.22-1.12,2.24-2.31,3-3.5.1-.2.16-.33.16-.46,0-.23-.2-.36-.66-.36h-6.47Z"/><path class="cls-2" d="M159.4,3.4c0,.13-.03.33-.07.5-1.02,4.16-1.68,9.47-1.68,13.9,0,3.07.3,6.8.86,9.93.03.2.03.4.03.59,0,1.09-.59,1.65-1.65,1.88-.2.03-.4.07-.56.07-.92,0-1.58-.56-1.81-1.72-.59-2.97-.89-6.77-.89-10.59,0-4.82.66-10.53,1.82-14.89.26-.92.92-1.32,1.85-1.32.16,0,.33,0,.49.03.99.17,1.62.69,1.62,1.62ZM167.09,17.53c0,.4-.17.76-.5,1.09-.99.99-1.49,2.08-1.49,3.07,0,1.78,1.49,2.64,5.64,2.64,2.61,0,5.31-.26,7.62-.76.17-.03.33-.07.46-.07.96,0,1.62.66,1.78,1.58.03.17.03.33.03.46,0,.96-.5,1.75-1.52,1.98-2.01.43-4.98.73-8.32.73-6.01,0-9.47-2.01-9.47-6.3,0-1.85.76-3.86,2.31-5.41.46-.46,1.02-.69,1.58-.69.4,0,.79.13,1.12.36.5.36.73.86.73,1.32ZM177.59,5.18c1.15,0,1.72.76,1.85,1.82v.2c0,.99-.53,1.88-1.75,2.08-2.81.33-6.63.5-10.03.5-1.19,0-2.31-.03-3.33-.07-1.45-.03-1.98-.96-1.98-2.05.03-1.09.66-2.01,1.92-2.01h.13c.86.03,1.82.03,2.81.03,3.33,0,7.23-.17,10.03-.46.13-.03.23-.03.36-.03Z"/><path class="cls-2" d="M208.97,8.42c.26-.07.5-.1.73-.1.92,0,1.52.5,1.75,1.42.07.23.1.46.1.69,0,.86-.5,1.52-1.52,1.78-3.7.89-8.12,2.31-11.42,3.8-3.93,1.75-6.01,3.93-6.01,6.17,0,2.54,2.11,3.76,8.35,3.76,3.14,0,6.57-.36,9.04-.86.2-.03.36-.07.56-.07,1.02,0,1.72.63,1.88,1.72.03.17.03.3.03.46,0,1.06-.59,1.78-1.78,2.01-2.48.5-5.81.76-9.74.76-9.14,0-12.44-2.9-12.44-7.82,0-3.73,2.87-6.96,7.49-9.18-.92-2.84-1.72-6.17-2.24-9.18-.03-.13-.03-.23-.03-.36,0-1.02.76-1.68,1.72-1.85.17-.03.33-.03.5-.03.99,0,1.75.53,1.91,1.58.46,2.61,1.12,5.68,1.98,8.25,2.97-1.19,6.4-2.34,9.14-2.97ZM206.66,1.39c.46,0,.89.2,1.25.66.76.99,1.52,2.21,2.08,3.2.1.23.13.46.13.69,0,.53-.26,1.02-.79,1.25-.26.13-.53.2-.79.2-.53,0-1.02-.23-1.25-.76-.53-.96-1.29-2.18-1.98-3.14-.17-.23-.23-.46-.23-.69,0-.53.33-.99.83-1.25.26-.1.53-.17.76-.17ZM210.79,0c.46,0,.92.2,1.22.63.76.96,1.45,2.05,1.91,3.07.1.26.17.53.17.76,0,.53-.3.96-.76,1.22-.23.1-.5.17-.73.17-.53,0-1.02-.26-1.29-.86-.53-.96-1.19-2.08-1.85-2.97-.13-.23-.2-.46-.2-.69,0-.5.3-.96.83-1.19.23-.1.46-.13.69-.13Z"/><path class="cls-2" d="M244.84,17.56c0,4.62-2.31,8.32-7.53,10.66-2.54,1.19-5.88,2.05-8.91,2.31-.13.03-.26.03-.4.03-1.09,0-1.78-.53-1.95-1.58-.03-.2-.07-.4-.07-.59,0-1.06.59-1.72,1.75-1.88,2.67-.3,5.91-1.09,8.19-2.15,3.13-1.49,4.65-3.76,4.65-6.47,0-2.54-1.68-4.16-5.71-4.16-3.5,0-8.09.96-11.68,2.05-.23.07-.46.1-.69.1-.82,0-1.55-.5-1.78-1.42-.07-.26-.1-.5-.1-.73,0-.89.5-1.58,1.39-1.85,3.5-1.09,8.55-1.98,12.74-1.98,6.73,0,10.1,3.14,10.1,7.66ZM240.45,3c1.19.03,1.82.89,1.82,2.01v.1c-.03,1.16-.83,1.85-2.05,1.85-4.39-.07-10.56-.73-14.65-1.52-.99-.2-1.49-.99-1.49-1.88,0-.17,0-.33.03-.5.26-1.06.99-1.58,1.88-1.58.1,0,.23,0,.36.03,4.09.76,9.67,1.32,14.09,1.49Z"/><path class="cls-2" d="M268.14,16.07c-1.09.23-2.41.46-3.8.63-3.7.46-7.43.96-10.73,1.49-.13.03-.26.03-.36.03-1.06,0-1.65-.63-1.78-1.58-.03-.13-.03-.26-.03-.4,0-.86.46-1.45,1.35-1.68,1.12-.3,2.24-.66,3.33-1.12,4.36-1.91,9.31-4.82,13.3-7.85-3.7.4-8.09.63-11.49.66-.86,0-1.58-.63-1.58-1.75,0-1.22.63-1.82,1.85-1.85,2.44,0,5.15-.07,7.66-.17,2.47-.1,4.82-.23,6.5-.36h.4c1.02,0,1.65.26,2.11,1.12.2.33.3.69.3,1.06,0,.63-.3,1.25-.82,1.78-2.71,2.51-6.11,4.69-9.47,6.4-1.06.5-2.24,1.02-3.53,1.52l.03.16c1.45-.33,3.17-.59,4.75-.79,4.09-.46,8.75-.89,12.87-1.12h.17c1.16,0,1.75.66,1.82,1.75v.16c0,1.06-.66,1.75-1.65,1.78-3.6.17-6.96.76-9.57,1.95-2.64,1.16-4.22,2.81-4.22,4.82,0,1.82,1.45,3,5.08,3.23.99.1,2.44.13,3.63.13h.17c1.09,0,1.85.59,1.88,1.75v.1c0,1.25-.66,1.98-1.82,2.08-.59,0-1.22.03-1.82.03-.83,0-1.65-.03-2.31-.1-5.58-.36-8.91-2.71-8.91-6.6,0-3.04,2.08-5.58,6.73-7.1l-.03-.17ZM274.74,7.62c0-.4.23-.79.66-1.06.26-.17.56-.23.83-.23.36,0,.69.17.92.43.63.83,1.35,1.95,1.78,2.71.1.2.17.43.17.66,0,.43-.2.82-.63,1.09-.23.1-.5.17-.73.17-.46,0-.92-.2-1.19-.66-.5-.83-1.12-1.82-1.62-2.51-.13-.17-.2-.4-.2-.59ZM279.56,4.29c.4,0,.83.2,1.09.53.69.89,1.39,1.98,1.88,2.87.13.26.2.53.2.76,0,.43-.23.83-.59,1.02-.23.17-.53.23-.79.23-.46,0-.92-.23-1.15-.66-.46-.89-1.16-1.95-1.78-2.81-.2-.23-.26-.46-.26-.69,0-.46.3-.86.73-1.09.23-.1.46-.17.69-.17Z"/><path class="cls-2" d="M297.34,25.58c0,3.1-2.51,5.61-5.61,5.61s-5.61-2.51-5.61-5.61,2.54-5.61,5.58-5.61,5.64,2.48,5.64,5.61ZM288.76,25.58c0,1.62,1.35,3,2.97,3s3-1.39,3-3-1.39-3-3-3-2.97,1.39-2.97,3Z"/><path class="cls-2" d="M328.97,246.66H15.71c-8.66,0-15.71-7.05-15.71-15.71v-2.09c0-8.66,7.05-15.71,15.71-15.71h313.26c8.66,0,15.71,7.05,15.71,15.71v2.09c0,8.66-7.05,15.71-15.71,15.71ZM15.71,214.44c-7.95,0-14.42,6.47-14.42,14.42v2.09c0,7.95,6.47,14.42,14.42,14.42h313.26c7.95,0,14.42-6.47,14.42-14.42v-2.09c0-7.95-6.47-14.42-14.42-14.42H15.71Z"/><path class="cls-2" d="M328.97,285.76H15.71c-8.66,0-15.71-7.05-15.71-15.71v-2.09c0-8.66,7.05-15.71,15.71-15.71h313.26c8.66,0,15.71,7.05,15.71,15.71v2.09c0,8.66-7.05,15.71-15.71,15.71ZM15.71,253.55c-7.95,0-14.42,6.47-14.42,14.42v2.09c0,7.95,6.47,14.42,14.42,14.42h313.26c7.95,0,14.42-6.47,14.42-14.42v-2.09c0-7.95-6.47-14.42-14.42-14.42H15.71Z"/><path class="cls-2" d="M328.97,324.87H15.71c-8.66,0-15.71-7.05-15.71-15.71v-2.09c0-8.66,7.05-15.71,15.71-15.71h313.26c8.66,0,15.71,7.05,15.71,15.71v2.09c0,8.66-7.05,15.71-15.71,15.71ZM15.71,292.65c-7.95,0-14.42,6.47-14.42,14.42v2.09c0,7.95,6.47,14.42,14.42,14.42h313.26c7.95,0,14.42-6.47,14.42-14.42v-2.09c0-7.95-6.47-14.42-14.42-14.42H15.71Z"/><path class="cls-2" d="M323.43,428.41H21.24c-11.71,0-21.24-9.53-21.24-21.24v-55.46c0-11.71,9.53-21.24,21.24-21.24h302.19c11.71,0,21.24,9.53,21.24,21.24v55.46c0,11.71-9.53,21.24-21.24,21.24ZM21.24,331.75c-11,0-19.96,8.95-19.96,19.96v55.46c0,11,8.95,19.96,19.96,19.96h302.19c11,0,19.96-8.95,19.96-19.96v-55.46c0-11-8.95-19.96-19.96-19.96H21.24Z"/><path class="cls-2" d="M17.81,227.33c-.57.03-1.24.05-1.77.05-.31,0-.5-.23-.5-.55,0-.34.16-.58.49-.58.51,0,1.17-.02,1.78-.06v-1.3c0-.32.22-.49.56-.49.36,0,.57.17.57.49v1.22c.54-.05,1.07-.11,1.51-.19.04-.01.08-.01.12-.01.28,0,.45.16.5.46.01.05.01.1.01.14,0,.3-.17.46-.45.51-.5.09-1.09.16-1.69.22v1.38c.65-.17,1.31-.27,1.94-.27,1.86,0,2.95.92,2.95,2.41s-.93,2.38-2.24,2.38c-.73,0-1.37-.27-1.81-.78-.11-.13-.16-.27-.16-.4,0-.16.08-.31.21-.43.14-.12.28-.18.42-.18s.28.06.39.18c.3.3.58.44.93.44.56,0,1.05-.45,1.05-1.2,0-.85-.6-1.4-1.81-1.4-.63,0-1.3.12-1.87.33v2.09c0,.92-.49,1.41-1.33,1.41-.4,0-.85-.14-1.3-.45-.52-.34-.87-.8-.87-1.43,0-.32.12-.63.33-.93.41-.55,1.15-1.09,2.04-1.44v-1.62ZM17.81,230.1c-.51.24-.9.54-1.08.8-.11.14-.16.3-.16.44,0,.21.15.39.34.52.17.11.38.18.56.18.25,0,.34-.12.34-.48v-1.46ZM24.15,226.86c.09.12.14.26.14.4,0,.16-.06.31-.17.42-.12.11-.27.17-.43.17-.15,0-.29-.06-.41-.19-.45-.54-1.11-1.14-1.66-1.53-.13-.09-.2-.24-.2-.4,0-.13.05-.27.16-.39.12-.13.27-.19.43-.19.11,0,.24.04.34.11.59.38,1.35,1.04,1.8,1.6Z"/><path class="cls-2" d="M28.02,231.07c0-.19.02-.35.07-.5-.55.3-1.12.57-1.68.81-.09.03-.18.05-.26.05-.22,0-.42-.13-.5-.38-.03-.08-.05-.17-.05-.24,0-.22.13-.41.36-.48,1.16-.41,2.28-.99,3.27-1.66-.27-.28-.56-.54-.84-.77-.11-.1-.16-.21-.16-.33,0-.13.07-.26.18-.36.1-.09.22-.13.34-.13s.25.04.36.14c.33.25.64.54.95.85.66-.52,1.23-1.08,1.65-1.63.06-.08.09-.14.09-.18,0-.07-.07-.1-.2-.1h-2.46c-.72.77-1.62,1.49-2.58,2.06-.09.05-.19.08-.28.08-.18,0-.34-.09-.45-.29-.05-.09-.07-.19-.07-.28,0-.19.1-.36.27-.46,1.23-.67,2.38-1.69,2.99-2.73.12-.2.3-.29.5-.29.09,0,.18.01.27.04.25.06.39.2.39.39,0,.08-.03.17-.09.26-.04.07-.09.15-.14.22h2.46c.57,0,.89.32.89.74,0,.2-.08.43-.25.66-.7.95-1.7,1.87-2.85,2.7.24-.05.51-.07.75-.07h2.2c.8,0,1.11.33,1.11,1.01v2.18c0,.68-.32,1.02-1.11,1.02h-4.03c-.79,0-1.1-.34-1.1-1.02v-1.31ZM32.83,232.38c.21,0,.3-.05.3-.27v-1.67c0-.22-.09-.28-.3-.28h-3.43c-.2,0-.3.06-.3.28v1.66c0,.23.1.28.3.28h3.43Z"/><path class="cls-2" d="M41.32,225.57c.31-.39.52-.74.7-1.06.09-.18.27-.27.49-.27.08,0,.17.01.26.04.24.06.4.21.4.37,0,.05,0,.1-.04.15-.16.26-.35.52-.58.77h2.28c.24,0,.36.19.36.49s-.12.5-.36.5h-8.49c-.25,0-.37-.19-.37-.5,0-.29.12-.49.37-.49h2.31c-.17-.26-.35-.5-.52-.7-.05-.06-.07-.12-.07-.19,0-.15.13-.31.36-.38.1-.03.19-.04.28-.04.21,0,.37.08.47.21.24.3.48.68.71,1.1h1.44ZM37.58,233.27c0,.24-.21.38-.53.38s-.52-.14-.52-.38v-5.24c0-.58.29-.87.9-.87h2.1c.6,0,.9.29.9.88v4.54c0,.66-.39.98-1.13.98-.25,0-.54-.01-.75-.06-.15-.03-.29-.17-.29-.41,0-.04,0-.08,0-.12.05-.27.22-.38.35-.38h.04c.14.02.32.04.43.04.22,0,.3-.07.3-.29v-.88h-1.81v1.81ZM39.39,228.29c0-.17-.06-.21-.23-.21h-1.35c-.17,0-.23.04-.23.21v.59h1.81v-.59ZM37.58,230.57h1.81v-.8h-1.81v.8ZM42.45,231.27c0,.24-.22.37-.55.37s-.54-.13-.54-.37v-3.63c0-.24.22-.37.54-.37s.55.13.55.37v3.63ZM44.59,232.46c0,.76-.4,1.12-1.33,1.12-.35,0-.71-.02-.98-.07-.2-.03-.36-.2-.36-.47,0-.04,0-.09,0-.13.05-.3.25-.43.43-.43.03,0,.06,0,.08.01.21.04.46.06.64.06.34,0,.42-.06.42-.37v-4.74c0-.26.19-.4.52-.4s.57.14.57.4v5.02Z"/><path class="cls-2" d="M16.75,272.19c-.09.04-.19.06-.29.06-.22,0-.41-.1-.53-.32-.05-.12-.08-.24-.08-.35,0-.23.13-.43.38-.55,1.14-.5,2.49-1.42,3.48-2.68-.85-.75-1.75-1.41-2.67-2.03-.14-.09-.21-.24-.21-.4,0-.14.06-.29.18-.42.12-.14.28-.21.44-.21.14,0,.28.05.42.13.83.53,1.71,1.18,2.55,1.9.52-.86.94-1.92,1.22-3.04.08-.33.27-.5.54-.5.08,0,.16.01.24.04.33.09.5.3.5.58,0,.07,0,.14-.03.22-.32,1.27-.86,2.54-1.49,3.55.7.62,1.35,1.3,1.91,1.99.11.13.17.29.17.44,0,.18-.07.35-.23.5-.13.11-.28.17-.43.17-.18,0-.36-.08-.5-.24-.54-.66-1.1-1.27-1.67-1.82-1.06,1.36-2.57,2.42-3.9,2.98Z"/><path class="cls-2" d="M26.07,268.82c-.35,0-.54-.28-.54-.66s.19-.66.55-.66h7.38c.36,0,.55.28.55.66s-.19.66-.55.66h-7.39Z"/><path class="cls-2" d="M37.27,264.46c0-.35.26-.56.63-.56s.64.2.64.58v2.11c0,1.69-.19,2.83-.53,3.67-.32.75-.78,1.42-1.33,1.87-.17.15-.36.22-.53.22-.19,0-.36-.08-.49-.22-.11-.12-.16-.27-.16-.43,0-.19.08-.39.25-.52.43-.33.83-.84,1.09-1.45.29-.71.43-1.65.43-3.19v-2.08ZM40.04,264.39c0-.34.23-.55.63-.55.35,0,.62.21.62.55l-.04,6.1c0,.13.05.2.16.2.06,0,.13-.02.21-.06.7-.35,1.37-1.05,1.85-2.06.11-.24.29-.34.49-.34.1,0,.21.03.32.08.23.11.35.29.35.49,0,.09-.02.19-.07.29-.64,1.44-1.85,2.61-2.99,2.97-.18.05-.36.08-.52.08-.24,0-.46-.05-.61-.14-.28-.18-.44-.45-.44-.99v-.05l.04-6.57Z"/><path class="cls-2" d="M53.3,264.22c.6,0,.87.18,1.09.44.14.17.22.41.22.69,0,.23-.05.48-.17.75-.45,1.03-1.48,2.01-2.44,2.42-.1.05-.2.07-.3.07-.2,0-.38-.11-.5-.31-.06-.11-.09-.22-.09-.33,0-.21.11-.4.3-.49.75-.33,1.43-.94,1.79-1.61.04-.08.06-.15.06-.21,0-.13-.09-.21-.29-.21h-6.33c-.3,0-.48-.23-.48-.6s.2-.61.48-.61h6.66ZM50.63,266.78c-.02,1.5-.23,2.51-.63,3.33-.52,1.06-1.45,1.84-2.49,2.22-.11.04-.22.06-.31.06-.23,0-.41-.11-.52-.33-.05-.11-.08-.23-.08-.33,0-.22.11-.42.35-.51.84-.33,1.56-.92,1.93-1.7.3-.65.45-1.46.46-2.73,0-.38.25-.59.63-.59.41,0,.66.2.66.58Z"/><path class="cls-2" d="M59.47,271.91c0,.35-.27.53-.65.53s-.64-.18-.64-.53v-7.7c0-.36.25-.53.64-.53s.65.17.65.53v2.4c1.55.41,3.32,1.03,4.78,1.7.27.13.39.33.39.59,0,.09-.02.19-.05.29-.09.27-.31.45-.57.45-.09,0-.19-.02-.29-.07-1.24-.61-2.87-1.23-4.26-1.63v3.97ZM62.46,263.99c.13,0,.25.05.34.15.27.3.56.68.74.95.05.1.08.2.08.29,0,.14-.07.27-.19.36-.08.06-.19.09-.29.09-.14,0-.29-.07-.37-.21-.18-.29-.46-.65-.7-.94-.06-.07-.09-.16-.09-.24,0-.14.08-.28.21-.37.09-.05.18-.08.27-.08ZM63.63,263.36c.13,0,.26.05.35.16.25.28.52.63.68.92.06.09.08.18.08.27,0,.15-.08.28-.2.35-.08.06-.17.09-.27.09-.13,0-.26-.07-.36-.22-.19-.3-.43-.65-.65-.9-.06-.08-.09-.17-.09-.25,0-.14.08-.27.2-.34.08-.05.17-.08.26-.08Z"/><path class="cls-2" d="M68.09,264.4c0-.33.26-.55.65-.55s.65.22.65.55l-.05,5.86c0,.34.12.49.39.49.04,0,.09,0,.15-.01,1.51-.22,3.32-1.27,4.33-2.93.14-.21.32-.31.52-.31.12,0,.25.04.37.12.19.13.28.32.28.52,0,.12-.03.24-.09.35-1.1,1.96-3.36,3.35-5.44,3.6-.14.01-.27.02-.39.02-.41,0-.72-.1-.97-.3-.29-.24-.45-.62-.45-1.19l.05-6.22Z"/><path class="cls-2" d="M78.48,265.59c-.3,0-.5-.25-.5-.62s.21-.6.51-.6l5.03-.05c.5,0,.8.14,1.01.45.09.14.14.32.14.53s-.04.44-.13.7c-.31.92-.85,1.77-1.49,2.59,1.01.78,1.8,1.44,2.57,2.3.13.14.2.3.2.47s-.07.33-.2.48c-.13.14-.32.22-.5.22-.17,0-.34-.06-.45-.2-.7-.82-1.45-1.55-2.45-2.34-1.07,1.14-2.53,2.08-3.99,2.61-.11.04-.21.06-.3.06-.24,0-.43-.12-.53-.38-.04-.09-.06-.19-.06-.28,0-.25.13-.46.38-.56,1.19-.47,2.39-1.18,3.38-2.09.97-.88,1.72-1.93,2.09-2.96.03-.07.04-.14.04-.19,0-.14-.1-.2-.31-.2l-4.44.06Z"/><path class="cls-2" d="M17.81,305.54c-.57.03-1.24.05-1.77.05-.31,0-.5-.23-.5-.55,0-.34.16-.58.49-.58.51,0,1.17-.02,1.78-.06v-1.3c0-.32.22-.49.56-.49.36,0,.57.17.57.49v1.22c.54-.05,1.07-.11,1.51-.19.04-.01.08-.01.12-.01.28,0,.45.16.5.46.01.05.01.1.01.14,0,.3-.17.46-.45.51-.5.09-1.09.16-1.69.22v1.38c.65-.17,1.31-.27,1.94-.27,1.86,0,2.95.92,2.95,2.41s-.93,2.38-2.24,2.38c-.73,0-1.37-.27-1.81-.78-.11-.13-.16-.27-.16-.4,0-.16.08-.31.21-.43.14-.12.28-.18.42-.18s.28.06.39.18c.3.3.58.44.93.44.56,0,1.05-.45,1.05-1.2,0-.85-.6-1.4-1.81-1.4-.63,0-1.3.12-1.87.33v2.09c0,.92-.49,1.41-1.33,1.41-.4,0-.85-.14-1.3-.45-.52-.34-.87-.8-.87-1.43,0-.32.12-.63.33-.93.41-.55,1.15-1.09,2.04-1.44v-1.62ZM17.81,308.31c-.51.24-.9.54-1.08.8-.11.14-.16.3-.16.44,0,.21.15.39.34.52.17.11.38.18.56.18.25,0,.34-.12.34-.48v-1.46ZM24.15,305.07c.09.12.14.26.14.4,0,.16-.06.31-.17.42-.12.11-.27.17-.43.17-.15,0-.29-.06-.41-.19-.45-.54-1.11-1.14-1.66-1.53-.13-.09-.2-.24-.2-.4,0-.13.05-.27.16-.39.12-.13.27-.19.43-.19.11,0,.24.04.34.11.59.38,1.35,1.04,1.8,1.6Z"/><path class="cls-2" d="M26.96,311.46c0,.26-.22.38-.55.38s-.54-.12-.54-.38v-7.77c0-.61.28-.93.96-.93h2.03c.67,0,.95.25.95.84v1.9c0,.6-.28.85-.95.85h-1.9v5.11ZM28.8,303.78c0-.16-.08-.22-.26-.22h-1.35c-.17,0-.23.06-.23.22v.41h1.84v-.41ZM28.54,305.57c.18,0,.26-.05.26-.21v-.42h-1.84v.63h1.58ZM31.27,307.02c.68,0,.96.27.96.93v1.55c0,.66-.28.94-.96.94h-2.28c-.68,0-.96-.28-.96-.94v-1.55c0-.66.28-.93.96-.93h2.28ZM30.93,309.53c.19,0,.27-.06.27-.25v-1.11c0-.19-.08-.25-.27-.25h-1.6c-.19,0-.27.06-.27.25v1.11c0,.19.08.25.27.25h1.6ZM31.39,306.35c-.66,0-.94-.25-.94-.85v-1.9c0-.59.28-.84.94-.84h2.14c.67,0,.95.32.95.92v6.96c0,.73-.37,1.07-1.31,1.07-.28,0-.66-.02-.95-.07-.23-.04-.42-.19-.42-.49,0-.03,0-.06,0-.09.03-.29.21-.43.41-.43.03,0,.07,0,.1.01.21.03.53.06.72.06.27,0,.38-.07.38-.39v-3.96h-2.03ZM33.42,303.78c0-.16-.07-.22-.24-.22h-1.47c-.17,0-.25.06-.25.22v.41h1.96v-.41ZM33.42,304.94h-1.96v.42c0,.16.08.21.25.21h1.71v-.63Z"/><path class="cls-2" d="M38.26,309.25c.13.28.34.45.54.45s.35-.09.48-.34c.17-.29.31-.77.4-1.34.05-.3.22-.45.51-.45.05,0,.11.01.18.02.32.05.51.22.51.54,0,.04,0,.09,0,.14-.14.94-.43,1.69-.79,2.17-.35.46-.82.66-1.24.66-.47,0-.91-.2-1.27-.66-.48-.6-.84-1.64-.97-3.19-.07-.86-.09-2.04-.09-3.22,0-.37.22-.58.63-.58.44,0,.6.22.6.59v.76c0,.88,0,1.74.06,2.35.08.94.22,1.6.46,2.1ZM42.72,303.98c.2,0,.38.09.51.3.91,1.31,1.6,3.37,1.73,4.99,0,.04,0,.08,0,.12,0,.34-.16.6-.51.65-.06.01-.12.02-.17.02-.32,0-.54-.19-.58-.54-.16-1.59-.7-3.33-1.55-4.62-.08-.12-.11-.24-.11-.35,0-.21.12-.4.34-.49.11-.05.23-.08.33-.08Z"/><path class="cls-2" d="M48.95,306.51c-.26,0-.4-.21-.4-.51,0-.11.02-.22.06-.3-.51.35-1.05.66-1.58.9-.08.04-.16.06-.25.06-.19,0-.38-.11-.49-.34-.04-.09-.06-.18-.06-.27,0-.21.11-.41.32-.5,1.39-.62,2.68-1.58,3.64-2.74.17-.2.47-.3.77-.3s.6.1.77.3c1.07,1.24,2.31,2.11,3.69,2.7.22.09.32.29.32.51,0,.09-.02.19-.06.28-.1.23-.3.37-.51.37-.08,0-.17-.02-.25-.06-.53-.26-1.06-.57-1.57-.92.04.09.06.19.06.31,0,.3-.14.51-.39.51h-4.07ZM53.38,307.42c.71,0,1.03.32,1.03,1.02v2.12c0,.7-.32,1.02-1.03,1.02h-4.83c-.7,0-1.03-.32-1.03-1.02v-2.12c0-.7.33-1.02,1.03-1.02h4.83ZM52.96,310.56c.24,0,.32-.05.32-.27v-1.6c0-.21-.08-.26-.32-.26h-4c-.23,0-.3.05-.3.26v1.6c0,.22.07.27.3.27h4ZM48.95,305.48h4.1c-.75-.54-1.42-1.15-1.92-1.75-.06-.08-.11-.12-.16-.12s-.09.03-.15.1c-.49.62-1.16,1.23-1.9,1.77h.03Z"/><path class="cls-2" d="M59.74,305.48c0,.19-.02.39-.02.58.2-.24.52-.51.8-.71.8-.57,1.56-.9,2.38-.9,1.81,0,2.88,1.32,2.88,3.04,0,1.32-.49,2.38-1.58,2.98-.67.37-1.58.59-2.54.61-.38.01-.6-.24-.61-.6,0-.38.21-.61.57-.62.73-.02,1.48-.17,1.95-.44.69-.39.97-1.05.97-1.98,0-1.1-.7-1.87-1.77-1.87-.73,0-1.46.35-2.17.91-.3.24-.6.54-.89.86,0,1.33,0,2.56.02,3.84,0,.33-.21.55-.59.55-.35,0-.56-.24-.56-.54,0-.97,0-1.78.02-2.64-.26.35-.54.75-.78,1.1-.11.17-.27.26-.45.26-.12,0-.25-.05-.38-.14-.13-.1-.2-.25-.2-.43,0-.14.05-.29.15-.44.43-.59,1.02-1.31,1.66-1.98,0-.44.02-.96.03-1.39-.41.03-.84.09-1.22.12h-.05c-.27,0-.46-.21-.47-.5v-.03c0-.37.19-.54.46-.58.44-.04.91-.09,1.31-.11.01-.44.03-.85.05-1.31.02-.31.2-.48.59-.48.34,0,.53.21.53.51v.02c-.02.42-.04.81-.06,1.21.26.01.43.22.43.47,0,.14-.07.3-.22.43l-.24.2Z"/><path class="cls-2" d="M74.38,307.47c-.11.91-.59,1.45-1.53,1.45-.43,0-.93-.15-1.37-.4-.19-.11-.29-.27-.29-.45,0-.11.03-.22.1-.33.11-.18.28-.28.45-.28.09,0,.18.02.27.07.3.17.58.27.81.27.26,0,.4-.17.46-.62.04-.3.06-.71.07-1.14-.5.02-.97.03-1.43.05-.56.04-1.12.06-1.69.1v1.41c0,1.34.05,1.75.25,1.99.26.36.77.46,1.81.46s1.96-.09,2.61-.22c.06-.01.12-.02.18-.02.29,0,.48.18.52.49,0,.04,0,.08,0,.11,0,.32-.19.53-.49.59-.71.14-1.77.22-2.71.22-1.54,0-2.41-.24-2.85-.83-.37-.45-.5-1.06-.5-2.54v-1.59c-.41.02-.9.06-1.38.1h-.06c-.3,0-.48-.23-.5-.51v-.03c0-.31.18-.54.48-.56.48-.03.97-.07,1.46-.11.01-.54.01-1.12.01-1.62,0-.34.26-.51.61-.51.41.02.59.21.59.53,0,.49,0,1.01-.02,1.54.52-.04,1.06-.07,1.63-.09.43-.02.93-.04,1.46-.06,0-.19,0-.38,0-.56,0-.36,0-.7,0-1.01s.23-.49.55-.49.59.15.59.46v1c0,.18,0,.37,0,.56.44-.01.95-.01,1.41-.02.4,0,.57.17.57.54v.03c0,.34-.17.54-.54.54-.47,0-.95,0-1.44.01,0,.5-.04,1.03-.09,1.47Z"/><path class="cls-2" d="M78.87,303.91c-.26.05-.52.1-.75.14-.04.01-.08.01-.11.01-.25,0-.42-.15-.46-.42-.01-.04-.01-.08-.01-.12,0-.23.14-.39.36-.42.78-.13,1.61-.35,2.19-.59.09-.04.19-.06.27-.06.18,0,.34.08.42.26.05.09.07.18.07.27,0,.18-.1.33-.29.41-.21.09-.44.17-.69.25v1.36h.5c.24,0,.38.19.38.48s-.14.49-.38.49h-.44c.24.59.62,1.14.91,1.56.07.09.11.22.11.35,0,.11-.03.22-.11.31-.09.1-.21.16-.33.16-.11,0-.21-.04-.27-.14-.14-.22-.35-.6-.49-1.02.07.42.12.96.12,1.41v2.9c0,.24-.18.38-.51.38s-.5-.14-.5-.38v-2.31c0-.46.06-1.03.14-1.56-.18.6-.48,1.24-.82,1.71-.09.12-.21.18-.35.18-.11,0-.22-.04-.32-.13-.12-.11-.18-.25-.18-.39,0-.12.04-.24.12-.34.6-.74,1.06-1.72,1.34-2.69h-.91c-.24,0-.38-.19-.38-.49s.14-.48.38-.48h.99v-1.09ZM86.53,304.17c.21,0,.32.19.32.43s-.11.44-.32.44h-2.41v.5h1.42c.61,0,.91.23.91.75v1.81c0,.52-.3.75-.91.75h-1.42v.5h2.07c.2,0,.32.16.32.42s-.12.42-.32.42h-2.07v.54h2.44c.22,0,.34.17.34.43s-.12.44-.34.44h-5.82c-.22,0-.34-.17-.34-.44s.12-.43.34-.43h2.4v-.54h-2.06c-.2,0-.32-.16-.32-.42s.12-.42.32-.42h2.06v-.5h-1.29c-.6,0-.9-.23-.9-.75v-1.81c0-.52.3-.75.9-.75h1.29v-.5h-2.17c-.21,0-.32-.19-.32-.44s.11-.43.32-.43h2.17v-.44c-.59.03-1.18.05-1.7.05-.28,0-.4-.16-.41-.44v-.03c0-.25.15-.41.38-.41,1.42,0,3.33-.17,4.5-.39.05-.01.1-.02.15-.02.23,0,.36.12.43.36,0,.05.02.1.02.15,0,.22-.13.38-.35.42-.59.1-1.3.19-2.04.25v.5h2.41ZM82.14,306.3c-.15,0-.22.04-.22.18v.35h1.22v-.53h-1ZM83.14,307.54h-1.22v.38c0,.13.07.17.22.17h1v-.55ZM84.12,306.83h1.35v-.35c0-.14-.05-.18-.2-.18h-1.15v.53ZM85.27,308.09c.15,0,.2-.04.2-.17v-.38h-1.35v.55h1.15Z"/><path class="cls-2" d="M89.25,306.36c-.79,0-1.05-.26-1.05-.99v-1.51c0-.73.32-.99,1.08-.99h2.36c.76,0,1.08.26,1.08.99v1.51c0,.73-.29.99-1.08.99h-1.22c-.01.29-.02.57-.04.86h1.27c.76,0,1.04.26,1.04.9,0,1.18-.07,2.05-.19,2.66-.12.63-.54.9-1.24.9-.39,0-.62-.02-.86-.07s-.38-.25-.38-.5c0-.04,0-.08,0-.13.06-.28.22-.42.41-.42.03,0,.06,0,.09,0,.14.03.34.06.53.06.27,0,.36-.06.41-.34.08-.44.13-.99.13-1.78,0-.24-.08-.3-.3-.3h-1.04c-.22,1.46-.66,2.5-1.32,3.36-.11.15-.28.22-.46.22-.14,0-.28-.05-.4-.14-.15-.11-.23-.26-.23-.42,0-.12.05-.25.14-.36.87-1.03,1.25-2.21,1.33-4.51h-.07ZM91.3,305.44c.25,0,.32-.04.32-.3v-1.01c0-.26-.07-.29-.32-.29h-1.69c-.25,0-.31.03-.31.28v1.03c0,.25.06.29.31.29h1.69ZM94.69,309.03c0,.25-.23.4-.56.4s-.58-.15-.58-.41v-5.4c0-.25.25-.39.58-.39s.56.15.56.4v5.4ZM96.88,310.54c0,.76-.41,1.14-1.4,1.14-.37,0-.78-.02-1.05-.07-.27-.05-.41-.24-.41-.5,0-.04,0-.09,0-.13.06-.3.23-.44.46-.44.03,0,.07,0,.11.01.25.04.54.07.75.07.35,0,.39-.05.39-.37v-7.2c0-.28.23-.43.56-.43s.58.15.58.43v7.49Z"/><path class="cls-2" d="M16.75,350.4c-.09.04-.19.06-.29.06-.22,0-.41-.1-.53-.32-.05-.12-.08-.24-.08-.35,0-.23.13-.43.38-.55,1.14-.5,2.49-1.42,3.48-2.68-.85-.75-1.75-1.41-2.67-2.03-.14-.09-.21-.24-.21-.4,0-.14.06-.29.18-.42.12-.14.28-.21.44-.21.14,0,.28.05.42.13.83.53,1.71,1.18,2.55,1.9.52-.86.94-1.92,1.22-3.04.08-.33.27-.5.54-.5.08,0,.16.01.24.04.33.09.5.3.5.58,0,.07,0,.14-.03.22-.32,1.27-.86,2.54-1.49,3.55.7.62,1.35,1.3,1.91,1.99.11.13.17.29.17.44,0,.18-.07.35-.23.5-.13.11-.28.17-.43.17-.18,0-.36-.08-.5-.24-.54-.66-1.1-1.27-1.67-1.82-1.06,1.36-2.57,2.42-3.9,2.98Z"/><path class="cls-2" d="M27.48,344.38c.21,0,.37.1.46.29.31.57.6,1.36.76,1.96,0,.05.02.1.02.14,0,.25-.17.4-.42.48-.07.02-.15.03-.22.03-.22,0-.42-.1-.48-.33-.16-.57-.44-1.37-.69-1.89-.04-.06-.05-.13-.05-.19,0-.2.15-.37.38-.45.08-.03.17-.04.24-.04ZM33.48,344.78v.07c-.12,1.29-.54,2.62-1.25,3.58-.78,1.07-2.07,1.88-3.4,2.16-.06.01-.12.02-.17.02-.25,0-.42-.13-.48-.37-.03-.07-.04-.15-.04-.22,0-.23.12-.42.38-.49,1.05-.25,2.19-.92,2.8-1.77.6-.82.92-1.94,1.06-3.11.02-.28.24-.4.49-.4.04,0,.08,0,.12.01.3.05.49.22.49.52ZM29.01,344.48c0-.2.15-.37.37-.44.08-.03.16-.04.23-.04.2,0,.39.09.49.3.3.55.55,1.27.7,1.9,0,.05.02.1.02.14,0,.23-.15.39-.4.47-.08.02-.15.03-.22.03-.24,0-.44-.11-.49-.33-.14-.57-.41-1.33-.65-1.84-.04-.07-.05-.13-.05-.19Z"/><path class="cls-2" d="M36.77,345.68s-.07.01-.1.01c-.27,0-.49-.19-.52-.5,0-.03,0-.06,0-.09,0-.29.17-.53.46-.57l1.8-.25v-1.81c0-.36.21-.55.63-.55s.61.19.61.57v1.63l3.8-.51c.11-.01.22-.02.31-.02.38,0,.66.11.85.35.13.15.21.38.21.64,0,.19-.04.39-.12.59-.39.94-1.33,1.96-2.15,2.46-.13.08-.26.12-.39.12-.17,0-.33-.08-.45-.23-.1-.11-.14-.24-.14-.37,0-.18.09-.37.26-.47.6-.37,1.26-.99,1.54-1.55.04-.08.06-.14.06-.19,0-.11-.07-.17-.21-.17-.02,0-.05,0-.08.01l-3.49.5v2.59c0,1.11.14,1.26,1.83,1.26.86,0,1.71-.08,2.29-.18.06-.02.11-.02.16-.02.3,0,.51.17.56.48,0,.05,0,.1,0,.14,0,.29-.16.53-.49.58-.62.1-1.5.17-2.51.17-2.56,0-3.09-.45-3.09-2.32v-2.53l-1.63.23Z"/><path class="cls-2" d="M47.27,347.02c-.35,0-.54-.28-.54-.66s.19-.66.55-.66h7.38c.36,0,.55.28.55.66s-.19.66-.55.66h-7.39Z"/><path class="cls-2" d="M60.27,345.76c.21.13.29.3.29.49,0,.12-.03.24-.09.36-.11.2-.32.32-.54.32-.12,0-.25-.04-.36-.11-.52-.34-1.39-.8-2.05-1.09-.2-.09-.31-.26-.31-.46,0-.1.03-.22.09-.33.11-.23.29-.35.5-.35.08,0,.17.02.25.05.69.26,1.58.72,2.22,1.12ZM64.73,344.05c.07,0,.13.01.21.03.28.05.46.26.46.56,0,.06,0,.13-.03.2-.42,1.59-1.27,2.97-2.52,3.97-1.18.95-3,1.56-4.71,1.66h-.06c-.35,0-.61-.19-.64-.57,0-.03,0-.06,0-.09,0-.33.19-.56.55-.58,1.52-.09,3.17-.64,4.13-1.42.99-.82,1.71-1.95,2.07-3.28.08-.3.27-.48.55-.48ZM61.01,343.24c.2.13.3.3.3.5,0,.11-.03.23-.1.34-.11.22-.32.34-.53.34-.1,0-.21-.03-.32-.1-.62-.38-1.38-.79-2.01-1.04-.22-.08-.33-.27-.33-.48,0-.1.03-.2.08-.31.12-.21.31-.34.54-.34.08,0,.17,0,.26.04.65.25,1.45.64,2.11,1.05ZM63.99,341.91c.14,0,.27.06.37.2.24.32.46.69.61,1,.03.07.05.15.05.22,0,.16-.08.3-.25.38-.07.04-.15.06-.22.06-.17,0-.33-.09-.4-.22-.15-.31-.36-.66-.57-.99-.05-.07-.07-.14-.07-.21,0-.15.09-.31.25-.38.07-.04.15-.06.23-.06ZM65.28,341.48c.14,0,.28.06.37.18.22.32.43.68.56.98.03.08.05.15.05.23,0,.16-.09.3-.23.37-.08.04-.16.06-.24.06-.15,0-.3-.08-.38-.26-.15-.31-.34-.66-.54-.92-.05-.07-.07-.15-.07-.22,0-.15.1-.29.26-.37.07-.03.14-.05.22-.05Z"/><path class="cls-2" d="M328.97,434.67H15.71c-8.66,0-15.71,7.05-15.71,15.71v2.36c0,4.44,1.92,8.43,4.97,11.18,2.81,2.64,6.59,4.26,10.73,4.26h313.26c8.66,0,15.71-7.05,15.71-15.71v-2.09c0-8.66-7.05-15.71-15.71-15.71Z"/><path class="cls-1" d="M151.58,452.37c.31.53.83.78,1.6.88.5.06,1.2.09,1.87.09,1.06,0,2.18-.05,3.06-.12h.08c.3,0,.46.17.47.52v.03c0,.32-.18.51-.54.53-.85.04-2.05.07-3.11.07-.7,0-1.39-.04-2.02-.11-.78-.09-1.53-.41-1.96-1.07-.28.36-.68.77-1.05,1.06-.08.06-.18.1-.29.1-.13,0-.28-.06-.41-.23-.09-.12-.13-.25-.13-.37,0-.16.06-.29.17-.37.37-.26.84-.68,1.18-1.08v-1.94c0-.21-.04-.26-.25-.26h-.66c-.25,0-.41-.19-.41-.5s.16-.5.41-.5h1.1c.64,0,.89.3.89.97v2.3ZM151.65,446.99c.07.1.1.21.1.32,0,.16-.08.32-.23.44-.13.11-.27.16-.4.16-.15,0-.29-.07-.39-.22-.33-.49-.75-.98-1.11-1.34-.1-.1-.15-.21-.15-.33,0-.14.07-.27.21-.4.13-.11.27-.16.41-.16.13,0,.26.05.36.14.42.38.93.98,1.2,1.39ZM155.69,449.98c.51.9,1.4,1.49,2.33,1.79.21.06.34.25.34.47,0,.08-.01.16-.04.24-.1.26-.29.38-.52.38-.08,0-.17-.02-.26-.04-.96-.32-1.91-1.01-2.53-2.09-.4.87-1.12,1.56-2.04,2-.1.06-.2.08-.3.08-.21,0-.38-.12-.49-.34-.04-.09-.06-.18-.06-.26,0-.2.12-.36.3-.45.92-.42,1.48-.96,1.78-1.72l.02-.06h-1.88c-.25,0-.39-.19-.39-.49s.14-.5.39-.5h2.1c.03-.39.04-.78.05-1.17h-1.95c-.24,0-.38-.2-.38-.49s.14-.47.38-.47h1.02c-.15-.31-.36-.68-.55-.99-.03-.06-.05-.12-.05-.19,0-.15.1-.3.32-.38.1-.04.2-.06.29-.06.18,0,.33.08.42.23.26.42.56.98.69,1.39h.72c.29-.42.53-.91.69-1.31.08-.19.24-.31.47-.31.06,0,.13.01.2.02.28.07.42.23.42.41,0,.04,0,.08-.02.12-.13.33-.36.72-.59,1.07h1.22c.25,0,.38.17.38.47s-.13.49-.38.49h-2.26c0,.39,0,.78-.06,1.17h2.55c.25,0,.4.19.4.5,0,.29-.15.49-.4.49h-2.33Z"/><path class="cls-1" d="M160.81,450.63c0-.34.03-.7.07-1.05-.07.12-.15.24-.23.35-.09.13-.24.2-.4.2-.13,0-.28-.05-.41-.15-.13-.11-.2-.25-.2-.4,0-.12.04-.25.13-.36.84-1.04,1.45-2.44,1.77-3.62.06-.25.21-.36.44-.36.06,0,.13.01.21.03.28.06.42.2.42.42,0,.06,0,.11-.03.18-.16.57-.39,1.21-.68,1.83v6.52c0,.26-.21.4-.55.4s-.54-.14-.54-.4v-3.59ZM162.81,448.04c-.25,0-.38-.21-.38-.5s.13-.5.38-.5h6.01c.25,0,.38.2.38.49s-.13.51-.38.51h-6.01ZM167.61,451.43c.65,0,.92.29.92.79v1.38c0,.51-.27.81-.92.81h-3.78c-.64,0-.91-.3-.91-.81v-1.38c0-.5.27-.79.91-.79h3.78ZM163.33,449.47c-.23,0-.35-.18-.35-.46,0-.24.12-.44.35-.44h4.79c.23,0,.35.18.35.44s-.12.46-.35.46h-4.79ZM163.33,450.91c-.24,0-.35-.18-.35-.44s.11-.46.35-.46h4.8c.23,0,.34.18.34.44s-.11.46-.34.46h-4.8ZM163.46,446.5c-.22,0-.33-.18-.33-.45s.11-.47.33-.47h4.67c.21,0,.33.19.33.46s-.12.46-.33.46h-4.67ZM167.2,453.51c.18,0,.26-.03.26-.21v-.78c0-.18-.08-.21-.26-.21h-2.96c-.18,0-.26.03-.26.21v.78c0,.18.08.21.26.21h2.96Z"/><path class="cls-1" d="M175.49,451.19c-.28.61-.84.91-1.55.91-1.1,0-1.88-.74-1.88-1.8s.89-1.85,2.14-1.85c.42,0,.77.11,1.03.31,0-.3,0-.68,0-.99-1.39.03-2.86.1-4.23.18h-.06c-.32,0-.49-.22-.49-.56v-.03c0-.3.18-.52.5-.54,1.3-.07,2.81-.12,4.27-.16,0-.31,0-.58,0-.81v-.02c0-.28.21-.46.57-.46.41,0,.6.16.6.5v.77c.42-.01.83-.01,1.23-.01s.8,0,1.17.01.58.17.58.57v.02c0,.35-.2.52-.54.52-.61,0-1.25-.02-1.93-.02-.17,0-.34,0-.51,0v1.84c.24.43.34.88.34,1.42,0,1.36-.62,2.28-1.75,2.85-.48.24-1.05.42-1.63.5-.05.01-.09.01-.13.01-.29,0-.5-.15-.57-.47,0-.06-.02-.13-.02-.18,0-.28.16-.47.46-.53,1.63-.3,2.47-.96,2.47-1.91v-.08h-.05ZM173.23,450.25c0,.54.39.84.91.84.63,0,1.05-.4,1.05-.98,0-.46-.37-.76-.93-.76-.59,0-1.03.37-1.03.9Z"/><path class="cls-1" d="M184.32,449.37c.68-.27,1.3-.4,1.88-.4,1.85,0,2.93,1.01,2.93,2.4,0,1.74-1.53,2.88-4.06,2.88-1.57,0-2.58-.64-2.58-1.65,0-.87.75-1.48,1.8-1.48,1.17,0,1.97.68,2.18,1.82.84-.23,1.41-.76,1.41-1.54,0-.83-.7-1.49-2.02-1.49s-2.5.46-4,1.4c-.11.06-.23.1-.35.1-.19,0-.39-.09-.51-.27-.07-.1-.1-.22-.1-.34,0-.2.1-.41.29-.51,1.5-.89,3.52-2.34,4.76-3.38-.97.08-2.33.14-3.39.14-.33,0-.54-.21-.54-.54,0-.35.17-.59.5-.59h.3c1.31,0,2.85-.06,4.01-.16.04-.01.09-.01.13-.01.3,0,.53.1.67.36.06.1.09.22.09.35,0,.2-.08.41-.25.57-.74.67-1.57,1.29-2.31,1.78-.26.17-.56.36-.86.51l.02.05ZM184.24,452.05c-.43,0-.68.21-.68.49,0,.43.46.71,1.44.71.16,0,.29-.01.41-.02-.08-.77-.6-1.18-1.17-1.18Z"/></svg>