<?xml version="1.0" encoding="UTF-8"?><svg id="_レイヤー_1" xmlns="http://www.w3.org/2000/svg" viewBox="0 0 256.46 47.82"><defs><style>.cls-1{fill:red;}</style></defs><path class="cls-1" d="M165.07,47.79c-13.18,0-23.91-10.73-23.91-23.91,0-2.61,2.12-4.73,4.73-4.73s4.73,2.12,4.73,4.73c0,7.96,6.48,14.44,14.44,14.44s14.44-6.48,14.44-14.44c0-2.61,2.12-4.73,4.73-4.73s4.73,2.12,4.73,4.73c0,13.19-10.73,23.91-23.91,23.91Z"/><path class="cls-1" d="M126.71,47.79c-13.18,0-23.91-10.73-23.91-23.91,0-2.61,2.12-4.73,4.73-4.73s4.73,2.12,4.73,4.73c0,7.96,6.48,14.44,14.44,14.44s14.44-6.48,14.44-14.44c0-2.61,2.12-4.73,4.73-4.73s4.73,2.12,4.73,4.73c0,13.19-10.73,23.91-23.91,23.91Z"/><path class="cls-1" d="M184.25,19.15c-1.57,0-2.84-1.27-2.84-2.84V2.82c0-1.57,1.27-2.84,2.84-2.84s2.84,1.27,2.84,2.84v13.49c0,1.57-1.27,2.84-2.84,2.84Z"/><path class="cls-1" d="M145.89,19.15c-1.57,0-2.84-1.27-2.84-2.84V2.82c0-1.57,1.27-2.84,2.84-2.84s2.84,1.27,2.84,2.84v13.49c0,1.57-1.27,2.84-2.84,2.84Z"/><path class="cls-1" d="M107.53,19.15c-1.57,0-2.84-1.27-2.84-2.84V2.82c0-1.57,1.27-2.84,2.84-2.84s2.84,1.27,2.84,2.84v13.49c0,1.57-1.27,2.84-2.84,2.84Z"/><path class="cls-1" d="M87.11,5.66h-10.22c-1.57,0-2.84-1.27-2.84-2.84S75.32-.02,76.88-.02h10.22c1.57,0,2.84,1.27,2.84,2.84s-1.27,2.84-2.84,2.84Z"/><path class="cls-1" d="M87.11,47.82h-10.22c-1.57,0-2.84-1.27-2.84-2.84s1.27-2.84,2.84-2.84h10.22c1.57,0,2.84,1.27,2.84,2.84s-1.27,2.84-2.84,2.84Z"/><path class="cls-1" d="M69.55,47.82c-2.61,0-4.73-2.12-4.73-4.73V4.73C64.82,2.12,66.94,0,69.55,0s4.73,2.12,4.73,4.73v38.35c0,2.61-2.12,4.73-4.73,4.73Z"/><path class="cls-1" d="M87.11,26.74h-9.99c-1.57,0-2.84-1.27-2.84-2.84s1.27-2.84,2.84-2.84h9.99c1.57,0,2.84,1.27,2.84,2.84s-1.27,2.84-2.84,2.84Z"/><path class="cls-1" d="M40.18,47.82c-.92,0-1.82-.44-2.37-1.27L9.7,4.4c-.87-1.31-.52-3.07.79-3.94,1.3-.87,3.07-.52,3.94.79l28.11,42.16c.87,1.31.52,3.07-.79,3.94-.48.32-1.03.48-1.57.48Z"/><path class="cls-1" d="M4.73,47.82C2.12,47.82,0,45.7,0,43.08V4.73C0,2.12,2.12,0,4.73,0s4.73,2.12,4.73,4.73v38.35c0,2.61-2.12,4.73-4.73,4.73Z"/><path class="cls-1" d="M47.51,47.82c-2.61,0-4.73-2.12-4.73-4.73V4.73c0-2.61,2.12-4.73,4.73-4.73s4.73,2.12,4.73,4.73v38.35c0,2.61-2.12,4.73-4.73,4.73Z"/><path class="cls-1" d="M231.45,38.39c-2.61,0-4.73-2.12-4.73-4.73V4.73C226.72,2.12,228.84,0,231.45,0s4.73,2.12,4.73,4.73v28.93c0,2.61-2.12,4.73-4.73,4.73Z"/><path class="cls-1" d="M231.45,47.82c-1.57,0-2.84-1.27-2.84-2.84v-3.81c0-1.57,1.27-2.84,2.84-2.84s2.84,1.27,2.84,2.84v3.81c0,1.57-1.27,2.84-2.84,2.84Z"/><path class="cls-1" d="M251.73,34.59c-1.57,0-2.84-1.27-2.84-2.84V2.82c0-1.57,1.27-2.84,2.84-2.84s2.84,1.27,2.84,2.84v28.93c0,1.57-1.27,2.84-2.84,2.84Z"/><path class="cls-1" d="M251.73,47.81c-2.61,0-4.73-2.12-4.73-4.73v-3.81c0-2.61,2.12-4.73,4.73-4.73s4.73,2.12,4.73,4.73v3.81c0,2.61-2.12,4.73-4.73,4.73Z"/></svg>