<?xml version="1.0" encoding="UTF-8"?><svg id="_レイヤー_1" xmlns="http://www.w3.org/2000/svg" viewBox="0 0 345.04 657.54"><defs><style>.cls-1{fill:red;}</style></defs><path class="cls-1" d="M284.04,398.53H61c-33.64,0-61-27.36-61-61V61C0,27.36,27.36,0,61,0h223.04c33.64,0,61,27.36,61,61v276.53c0,33.64-27.36,61-61,61ZM61,2C28.47,2,2,28.47,2,61v276.53c0,32.53,26.47,59,59,59h223.04c32.53,0,59-26.47,59-59V61c0-32.53-26.47-59-59-59H61Z"/><path class="cls-1" d="M171.5,463.78c-8.03,0-14.57-6.53-14.57-14.57s6.53-14.57,14.57-14.57c1.59,0,2.88,1.29,2.88,2.88s-1.29,2.88-2.88,2.88c-4.85,0-8.8,3.95-8.8,8.8s3.95,8.8,8.8,8.8c1.59,0,2.88,1.29,2.88,2.88s-1.29,2.88-2.88,2.88Z"/><path class="cls-1" d="M171.5,463.78c-1.59,0-2.88-1.29-2.88-2.88s1.29-2.88,2.88-2.88c4.85,0,8.8-3.95,8.8-8.8s-3.95-8.8-8.8-8.8c-1.59,0-2.88-1.29-2.88-2.88s1.29-2.88,2.88-2.88c8.03,0,14.57,6.53,14.57,14.57s-6.53,14.57-14.57,14.57Z"/><path class="cls-1" d="M231.79,463.78c-8.03,0-14.57-6.53-14.57-14.57s6.53-14.57,14.57-14.57c1.59,0,2.88,1.29,2.88,2.88s-1.29,2.88-2.88,2.88c-4.85,0-8.8,3.95-8.8,8.8s3.95,8.8,8.8,8.8c1.59,0,2.88,1.29,2.88,2.88s-1.29,2.88-2.88,2.88Z"/><path class="cls-1" d="M231.79,463.78c-1.59,0-2.88-1.29-2.88-2.88s1.29-2.88,2.88-2.88c4.85,0,8.8-3.95,8.8-8.8s-3.95-8.8-8.8-8.8c-1.59,0-2.88-1.29-2.88-2.88s1.29-2.88,2.88-2.88c8.03,0,14.57,6.53,14.57,14.57s-6.53,14.57-14.57,14.57Z"/><path class="cls-1" d="M88.61,463.78c-.55,0-1.11-.16-1.6-.48-1.33-.88-1.68-2.67-.8-4l15.57-23.36c.88-1.33,2.67-1.68,4-.8,1.33.88,1.68,2.67.8,4l-15.57,23.36c-.56.83-1.47,1.28-2.4,1.28Z"/><path class="cls-1" d="M125.55,463.78c-.93,0-1.85-.45-2.4-1.28l-15.57-23.36c-.88-1.33-.53-3.12.8-4,1.32-.88,3.12-.53,4,.8l15.57,23.36c.88,1.33.53,3.12-.8,4-.49.33-1.05.48-1.6.48Z"/><path class="cls-1" d="M115.68,456.16h-17.2c-.96,0-1.73-.77-1.73-1.73s.77-1.73,1.73-1.73h17.2c.96,0,1.73.77,1.73,1.73s-.77,1.73-1.73,1.73Z"/><path class="cls-1" d="M138.81,452.1c-4.81,0-8.72-3.91-8.72-8.72s3.91-8.72,8.72-8.72c1.59,0,2.88,1.29,2.88,2.88s-1.29,2.88-2.88,2.88-2.96,1.33-2.96,2.96,1.33,2.96,2.96,2.96,2.88,1.29,2.88,2.88-1.29,2.88-2.88,2.88Z"/><path class="cls-1" d="M143.28,463.77c-.96,0-1.73-.77-1.73-1.73s.77-1.73,1.73-1.73c2.27,0,4.11-1.84,4.11-4.11s-1.84-4.11-4.11-4.11c-.96,0-1.73-.77-1.73-1.73s.77-1.73,1.73-1.73c4.17,0,7.57,3.4,7.57,7.57s-3.4,7.57-7.57,7.57Z"/><path class="cls-1" d="M207.84,444.53c-.96,0-1.73-.77-1.73-1.73,0-2.59-2.1-4.69-4.69-4.69h-.15c-.96,0-1.73-.77-1.73-1.73s.77-1.73,1.73-1.73h.15c4.49,0,8.15,3.66,8.15,8.15,0,.96-.77,1.73-1.73,1.73Z"/><path class="cls-1" d="M201.42,450.95c-.96,0-1.73-.77-1.73-1.73s.77-1.73,1.73-1.73c2.59,0,4.69-2.1,4.69-4.69,0-.96.77-1.73,1.73-1.73s1.73.77,1.73,1.73c0,4.49-3.66,8.15-8.15,8.15Z"/><path class="cls-1" d="M201.42,463.79h-.15c-.96,0-1.73-.77-1.73-1.73s.77-1.73,1.73-1.73h.15c2.59,0,4.69-2.1,4.69-4.69,0-.96.77-1.73,1.73-1.73s1.73.77,1.73,1.73c0,4.49-3.66,8.15-8.15,8.15Z"/><path class="cls-1" d="M207.84,457.37c-.96,0-1.73-.77-1.73-1.73,0-2.59-2.1-4.69-4.69-4.69-.96,0-1.73-.77-1.73-1.73s.77-1.73,1.73-1.73c4.49,0,8.15,3.66,8.15,8.15,0,.96-.77,1.73-1.73,1.73Z"/><path class="cls-1" d="M196.8,463.79c-1.59,0-2.88-1.29-2.88-2.88v-23.36c0-1.59,1.29-2.88,2.88-2.88s2.88,1.29,2.88,2.88v23.36c0,1.59-1.29,2.88-2.88,2.88Z"/><path class="cls-1" d="M256.89,458.04c-1.59,0-2.88-1.29-2.88-2.88v-17.62c0-1.59,1.29-2.88,2.88-2.88s2.88,1.29,2.88,2.88v17.62c0,1.59-1.29,2.88-2.88,2.88Z"/><path class="cls-1" d="M256.89,463.77c-.96,0-1.73-.77-1.73-1.73v-2.32c0-.96.77-1.73,1.73-1.73s1.73.77,1.73,1.73v2.32c0,.96-.77,1.73-1.73,1.73Z"/><path class="cls-1" d="M210.42,657.54h-92.6c-10,0-18.11-8.11-18.11-18.11v-2.51c0-10,8.11-18.11,18.11-18.11h92.6s16.8,0,16.8,0c10,0,18.11,8.11,18.11,18.11v2.51c0,10-8.11,18.11-18.11,18.11h-16.8Z"/></svg>