<?xml version="1.0" encoding="UTF-8"?><svg id="_レイヤー_1" xmlns="http://www.w3.org/2000/svg" viewBox="0 0 389.22 2526.36"><defs><style>.cls-1,.cls-2{fill:#fff;}.cls-3{fill:red;}.cls-2{stroke:red;stroke-miterlimit:10;stroke-width:2px;}</style></defs><path class="cls-3" d="M389.22,1428.84V194.61C389.22,87.13,302.08,0,194.61,0S0,87.13,0,194.61v2137.15c0,107.48,87.14,194.61,194.61,194.61s194.61-87.13,194.61-194.61v-902.92Z"/><path class="cls-1" d="M195.05,166.27c-1.57,0-2.84-1.27-2.84-2.84v-13.5c0-1.57,1.27-2.84,2.84-2.84s2.84,1.27,2.84,2.84v13.5c0,1.57-1.27,2.84-2.84,2.84Z"/><path class="cls-1" d="M156.7,166.27c-1.57,0-2.84-1.27-2.84-2.84v-13.5c0-1.57,1.27-2.84,2.84-2.84s2.84,1.27,2.84,2.84v13.5c0,1.57-1.27,2.84-2.84,2.84Z"/><path class="cls-1" d="M175.87,194.91c-13.18,0-23.91-10.72-23.91-23.91,0-2.61,2.12-4.73,4.73-4.73s4.73,2.12,4.73,4.73c0,7.96,6.48,14.44,14.44,14.44s14.44-6.48,14.44-14.44c0-2.61,2.12-4.73,4.73-4.73s4.73,2.12,4.73,4.73c0,13.18-10.73,23.91-23.91,23.91Z"/><path class="cls-1" d="M215.18,194.91c-1.57,0-2.84-1.27-2.84-2.84v-42.14c0-1.57,1.27-2.84,2.84-2.84s2.84,1.27,2.84,2.84v42.14c0,1.57-1.27,2.84-2.84,2.84Z"/><path class="cls-1" d="M222.75,177.64c-2.61,0-4.73-2.12-4.73-4.73s2.12-4.73,4.73-4.73c3.2,0,5.8-2.6,5.8-5.8s-2.6-5.8-5.8-5.8c-2.61,0-4.73-2.12-4.73-4.73s2.12-4.73,4.73-4.73c8.42,0,15.27,6.85,15.27,15.27s-6.85,15.27-15.27,15.27Z"/><path class="cls-1" d="M89.58,260.8c-13.18,0-23.91-10.72-23.91-23.91s10.73-23.91,23.91-23.91c2.61,0,4.73,2.12,4.73,4.73s-2.12,4.73-4.73,4.73c-7.96,0-14.44,6.48-14.44,14.44s6.48,14.44,14.44,14.44c2.61,0,4.73,2.12,4.73,4.73s-2.12,4.73-4.73,4.73Z"/><path class="cls-1" d="M89.58,260.8c-2.61,0-4.73-2.12-4.73-4.73s2.12-4.73,4.73-4.73c7.96,0,14.44-6.48,14.44-14.44s-6.48-14.44-14.44-14.44c-2.61,0-4.73-2.12-4.73-4.73s2.12-4.73,4.73-4.73c13.18,0,23.91,10.72,23.91,23.91s-10.73,23.91-23.91,23.91Z"/><path class="cls-1" d="M237.59,218.67h-9.98c-1.57,0-2.84-1.27-2.84-2.84s1.27-2.84,2.84-2.84h9.98c1.57,0,2.84,1.27,2.84,2.84s-1.27,2.84-2.84,2.84Z"/><path class="cls-1" d="M237.59,260.8h-9.98c-1.57,0-2.84-1.27-2.84-2.84s1.27-2.84,2.84-2.84h9.98c1.57,0,2.84,1.27,2.84,2.84s-1.27,2.84-2.84,2.84Z"/><path class="cls-1" d="M232.56,255.13h0c-2.61,0-4.73-2.13-4.73-4.74l.04-27c0-2.61,2.12-4.73,4.73-4.73h0c2.61,0,4.73,2.13,4.73,4.74l-.04,27c0,2.61-2.12,4.73-4.73,4.73Z"/><path class="cls-1" d="M169.12,241.63c-2.61,0-4.73-2.12-4.73-4.73,0-7.96-6.48-14.44-14.44-14.44s-14.44,6.48-14.44,14.44c0,2.61-2.12,4.73-4.73,4.73s-4.73-2.12-4.73-4.73c0-13.18,10.73-23.91,23.91-23.91s23.91,10.72,23.91,23.91c0,2.61-2.12,4.73-4.73,4.73Z"/><path class="cls-1" d="M207.47,241.63c-2.61,0-4.73-2.12-4.73-4.73,0-7.96-6.48-14.44-14.44-14.44s-14.44,6.48-14.44,14.44c0,2.61-2.12,4.73-4.73,4.73s-4.73-2.12-4.73-4.73c0-13.18,10.73-23.91,23.91-23.91s23.91,10.72,23.91,23.91c0,2.61-2.12,4.73-4.73,4.73Z"/><path class="cls-1" d="M130.78,260.79c-1.57,0-2.84-1.27-2.84-2.84v-13.48c0-1.57,1.27-2.84,2.84-2.84s2.84,1.27,2.84,2.84v13.48c0,1.57-1.27,2.84-2.84,2.84Z"/><path class="cls-1" d="M169.12,260.79c-1.57,0-2.84-1.27-2.84-2.84v-13.48c0-1.57,1.27-2.84,2.84-2.84s2.84,1.27,2.84,2.84v13.48c0,1.57-1.27,2.84-2.84,2.84Z"/><path class="cls-1" d="M207.47,260.79c-1.57,0-2.84-1.27-2.84-2.84v-13.48c0-1.57,1.27-2.84,2.84-2.84s2.84,1.27,2.84,2.84v13.48c0,1.57-1.27,2.84-2.84,2.84Z"/><path class="cls-1" d="M48.38,260.82c-13.19,0-23.91-10.73-23.91-23.91,0-2.61,2.12-4.73,4.73-4.73s4.73,2.12,4.73,4.73c0,7.97,6.48,14.45,14.45,14.45,2.61,0,4.73,2.12,4.73,4.73s-2.12,4.73-4.73,4.73Z"/><path class="cls-1" d="M29.2,241.63c-2.61,0-4.73-2.12-4.73-4.73,0-13.19,10.73-23.91,23.91-23.91,2.61,0,4.73,2.12,4.73,4.73s-2.12,4.73-4.73,4.73c-7.97,0-14.45,6.48-14.45,14.45,0,2.61-2.12,4.73-4.73,4.73Z"/><path class="cls-1" d="M341.69,260.81c-13.18,0-23.91-10.72-23.91-23.91s10.73-23.91,23.91-23.91c2.61,0,4.73,2.12,4.73,4.73s-2.12,4.73-4.73,4.73c-7.96,0-14.44,6.48-14.44,14.44s6.48,14.44,14.44,14.44c2.61,0,4.73,2.12,4.73,4.73s-2.12,4.73-4.73,4.73Z"/><path class="cls-1" d="M341.69,260.82c-13.19,0-23.91-10.73-23.91-23.91,0-2.61,2.12-4.73,4.73-4.73s4.73,2.12,4.73,4.73c0,7.97,6.48,14.45,14.45,14.45,2.61,0,4.73,2.12,4.73,4.73s-2.12,4.73-4.73,4.73Z"/><path class="cls-1" d="M322.51,241.63c-2.61,0-4.73-2.12-4.73-4.73,0-13.19,10.73-23.91,23.91-23.91,2.61,0,4.73,2.12,4.73,4.73s-2.12,4.73-4.73,4.73c-7.97,0-14.45,6.48-14.45,14.45,0,2.61-2.12,4.73-4.73,4.73Z"/><path class="cls-1" d="M341.69,260.82c-2.61,0-4.73-2.12-4.73-4.73s2.12-4.73,4.73-4.73c7.47,0,13.66-5.6,14.38-13.02.25-2.6,2.57-4.5,5.17-4.25,2.6.25,4.5,2.57,4.25,5.17-1.2,12.3-11.43,21.57-23.8,21.57Z"/><path class="cls-1" d="M353.45,239.74h-9.98c-1.57,0-2.84-1.27-2.84-2.84s1.27-2.84,2.84-2.84h9.98c1.57,0,2.84,1.27,2.84,2.84s-1.27,2.84-2.84,2.84Z"/><path class="cls-1" d="M293.16,260.82c-.92,0-1.82-.44-2.37-1.26l-28.1-42.15c-.87-1.3-.52-3.07.79-3.94,1.3-.87,3.07-.52,3.94.79l28.1,42.15c.87,1.3.52,3.07-.79,3.94-.48.32-1.03.48-1.57.48Z"/><path class="cls-1" d="M257.72,260.81c-2.61,0-4.73-2.12-4.73-4.73v-38.34c0-2.61,2.12-4.73,4.73-4.73s4.73,2.12,4.73,4.73v38.34c0,2.61-2.12,4.73-4.73,4.73Z"/><path class="cls-1" d="M300.49,260.81c-2.61,0-4.73-2.12-4.73-4.73v-38.34c0-2.61,2.12-4.73,4.73-4.73s4.73,2.12,4.73,4.73v38.34c0,2.61-2.12,4.73-4.73,4.73Z"/><path class="cls-1" d="M122.31,1478.7c-.96,0-1.74-.78-1.74-1.74v-25.75c0-.96.78-1.74,1.74-1.74s1.74.78,1.74,1.74v25.75c0,.96-.78,1.74-1.74,1.74Z"/><path class="cls-1" d="M133.04,1455.27h-6.1c-1.6,0-2.89-1.29-2.89-2.89s1.29-2.89,2.89-2.89h6.1c1.6,0,2.89,1.29,2.89,2.89s-1.29,2.89-2.89,2.89Z"/><path class="cls-1" d="M133.04,1466.98h-6.1c-1.6,0-2.89-1.29-2.89-2.89s1.29-2.89,2.89-2.89h6.1c1.6,0,2.89,1.29,2.89,2.89s-1.29,2.89-2.89,2.89Z"/><path class="cls-1" d="M231.56,1478.68c-.96,0-1.74-.78-1.74-1.74v-19.96c0-.96.78-1.74,1.74-1.74s1.74.78,1.74,1.74v19.96c0,.96-.78,1.74-1.74,1.74Z"/><path class="cls-1" d="M238.01,1455.26h-12.91c-1.6,0-2.89-1.29-2.89-2.89s1.29-2.89,2.89-2.89h12.91c1.6,0,2.89,1.29,2.89,2.89s-1.29,2.89-2.89,2.89Z"/><path class="cls-1" d="M212.81,1452.94h-6.1c-.96,0-1.74-.78-1.74-1.74s.78-1.74,1.74-1.74h6.1c.96,0,1.74.78,1.74,1.74s-.78,1.74-1.74,1.74Z"/><path class="cls-1" d="M212.81,1478.69h-6.1c-.96,0-1.74-.78-1.74-1.74s.78-1.74,1.74-1.74h6.1c.96,0,1.74.78,1.74,1.74s-.78,1.74-1.74,1.74Z"/><path class="cls-1" d="M209.73,1475.22h0c-1.6,0-2.89-1.3-2.89-2.9l.02-16.5c0-1.6,1.3-2.89,2.89-2.89h0c1.6,0,2.89,1.3,2.89,2.9l-.02,16.5c0,1.6-1.3,2.89-2.89,2.89Z"/><path class="cls-1" d="M194.4,1461.19c-.96,0-1.74-.78-1.74-1.74v-8.25c0-.96.78-1.74,1.74-1.74s1.74.78,1.74,1.74v8.25c0,.96-.78,1.74-1.74,1.74Z"/><path class="cls-1" d="M170.97,1461.19c-.96,0-1.74-.78-1.74-1.74v-8.25c0-.96.78-1.74,1.74-1.74s1.74.78,1.74,1.74v8.25c0,.96-.78,1.74-1.74,1.74Z"/><path class="cls-1" d="M182.69,1478.7c-8.06,0-14.61-6.55-14.61-14.61,0-1.6,1.29-2.89,2.89-2.89s2.89,1.29,2.89,2.89c0,4.87,3.96,8.82,8.82,8.82s8.82-3.96,8.82-8.82c0-1.6,1.29-2.89,2.89-2.89s2.89,1.29,2.89,2.89c0,8.06-6.55,14.61-14.61,14.61Z"/><path class="cls-1" d="M254.87,1466.97c-4.82,0-8.75-3.93-8.75-8.75s3.93-8.75,8.75-8.75c1.6,0,2.89,1.29,2.89,2.89s-1.29,2.89-2.89,2.89-2.97,1.33-2.97,2.97,1.33,2.97,2.97,2.97,2.89,1.29,2.89,2.89-1.29,2.89-2.89,2.89Z"/><path class="cls-1" d="M259.35,1478.68c-.96,0-1.74-.78-1.74-1.74s.78-1.74,1.74-1.74c2.27,0,4.12-1.85,4.12-4.12s-1.85-4.12-4.12-4.12c-.96,0-1.74-.78-1.74-1.74s.78-1.74,1.74-1.74c4.19,0,7.59,3.41,7.59,7.59s-3.41,7.59-7.59,7.59Z"/><path class="cls-1" d="M151.12,1468.04c-.96,0-1.74-.78-1.74-1.74s.78-1.74,1.74-1.74c3.21,0,5.82-2.61,5.82-5.82s-2.61-5.82-5.82-5.82h-.14c-.96,0-1.74-.78-1.74-1.74s.78-1.74,1.74-1.74h.14c5.12,0,9.29,4.17,9.29,9.29s-4.17,9.29-9.29,9.29Z"/><path class="cls-1" d="M158.67,1478.69c-.56,0-1.11-.27-1.45-.77l-4.99-7.48c-.53-.8-.32-1.87.48-2.41s1.87-.32,2.41.48l4.99,7.48c.53.8.32,1.87-.48,2.41-.3.2-.63.29-.96.29Z"/><path class="cls-1" d="M146.5,1478.7c-1.6,0-2.89-1.29-2.89-2.89v-23.43c0-1.6,1.29-2.89,2.89-2.89s2.89,1.29,2.89,2.89v23.43c0,1.6-1.29,2.89-2.89,2.89Z"/><path class="cls-1" d="M174.77,1518.97c-8.06,0-14.61-6.55-14.61-14.61s6.55-14.61,14.61-14.61c1.6,0,2.89,1.29,2.89,2.89s-1.29,2.89-2.89,2.89c-4.87,0-8.82,3.96-8.82,8.82s3.96,8.82,8.82,8.82c1.6,0,2.89,1.29,2.89,2.89s-1.29,2.89-2.89,2.89Z"/><path class="cls-1" d="M174.77,1518.97c-1.6,0-2.89-1.29-2.89-2.89s1.29-2.89,2.89-2.89c4.87,0,8.82-3.96,8.82-8.82s-3.96-8.82-8.82-8.82c-1.6,0-2.89-1.29-2.89-2.89s1.29-2.89,2.89-2.89c8.06,0,14.61,6.55,14.61,14.61s-6.55,14.61-14.61,14.61Z"/><path class="cls-1" d="M128.01,1507.26c-1.6,0-2.89-1.29-2.89-2.89,0-4.87-3.96-8.82-8.82-8.82s-8.82,3.96-8.82,8.82c0,1.6-1.29,2.89-2.89,2.89s-2.89-1.29-2.89-2.89c0-8.06,6.55-14.61,14.61-14.61s14.61,6.55,14.61,14.61c0,1.6-1.29,2.89-2.89,2.89Z"/><path class="cls-1" d="M151.45,1507.26c-1.6,0-2.89-1.29-2.89-2.89,0-4.87-3.96-8.82-8.82-8.82s-8.82,3.96-8.82,8.82c0,1.6-1.29,2.89-2.89,2.89s-2.89-1.29-2.89-2.89c0-8.06,6.55-14.61,14.61-14.61s14.61,6.55,14.61,14.61c0,1.6-1.29,2.89-2.89,2.89Z"/><path class="cls-1" d="M104.58,1518.97c-.96,0-1.74-.78-1.74-1.74v-8.24c0-.96.78-1.74,1.74-1.74s1.74.78,1.74,1.74v8.24c0,.96-.78,1.74-1.74,1.74Z"/><path class="cls-1" d="M128.01,1518.97c-.96,0-1.74-.78-1.74-1.74v-8.24c0-.96.78-1.74,1.74-1.74s1.74.78,1.74,1.74v8.24c0,.96-.78,1.74-1.74,1.74Z"/><path class="cls-1" d="M151.45,1518.97c-.96,0-1.74-.78-1.74-1.74v-8.24c0-.96.78-1.74,1.74-1.74s1.74.78,1.74,1.74v8.24c0,.96-.78,1.74-1.74,1.74Z"/><path class="cls-1" d="M260.22,1501.46c-.96,0-1.74-.78-1.74-1.74v-8.25c0-.96.78-1.74,1.74-1.74s1.74.78,1.74,1.74v8.25c0,.96-.78,1.74-1.74,1.74Z"/><path class="cls-1" d="M236.79,1501.46c-.96,0-1.74-.78-1.74-1.74v-8.25c0-.96.78-1.74,1.74-1.74s1.74.78,1.74,1.74v8.25c0,.96-.78,1.74-1.74,1.74Z"/><path class="cls-1" d="M248.5,1518.97c-8.06,0-14.61-6.55-14.61-14.61,0-1.6,1.29-2.89,2.89-2.89s2.89,1.29,2.89,2.89c0,4.87,3.96,8.82,8.82,8.82s8.82-3.96,8.82-8.82c0-1.6,1.29-2.89,2.89-2.89s2.89,1.29,2.89,2.89c0,8.06-6.55,14.61-14.61,14.61Z"/><path class="cls-1" d="M211.66,1518.97c-8.06,0-14.61-6.55-14.61-14.61s6.55-14.61,14.61-14.61c1.6,0,2.89,1.29,2.89,2.89s-1.29,2.89-2.89,2.89c-4.87,0-8.82,3.96-8.82,8.82s3.96,8.82,8.82,8.82c1.6,0,2.89,1.29,2.89,2.89s-1.29,2.89-2.89,2.89Z"/><path class="cls-1" d="M211.66,1518.97c-8.06,0-14.61-6.56-14.61-14.61,0-1.6,1.29-2.89,2.89-2.89s2.89,1.29,2.89,2.89c0,4.87,3.96,8.83,8.83,8.83,1.6,0,2.89,1.29,2.89,2.89s-1.29,2.89-2.89,2.89Z"/><path class="cls-1" d="M199.94,1507.25c-1.6,0-2.89-1.29-2.89-2.89,0-8.06,6.56-14.61,14.61-14.61,1.6,0,2.89,1.29,2.89,2.89s-1.29,2.89-2.89,2.89c-4.87,0-8.83,3.96-8.83,8.83,0,1.6-1.29,2.89-2.89,2.89Z"/><path class="cls-1" d="M211.66,1518.97c-1.6,0-2.89-1.29-2.89-2.89s1.29-2.89,2.89-2.89c4.57,0,8.34-3.42,8.79-7.96.16-1.59,1.57-2.75,3.16-2.6,1.59.15,2.75,1.57,2.6,3.16-.73,7.51-6.99,13.18-14.54,13.18Z"/><path class="cls-1" d="M218.85,1506.09h-6.1c-.96,0-1.74-.78-1.74-1.74s.78-1.74,1.74-1.74h6.1c.96,0,1.74.78,1.74,1.74s-.78,1.74-1.74,1.74Z"/><path class="cls-1" d="M285.4,1501.39c-1.6,0-2.89-1.3-2.89-2.89s-1.33-2.97-2.97-2.97-2.97,1.33-2.97,2.97-1.3,2.89-2.89,2.89-2.89-1.3-2.89-2.89c0-4.83,3.93-8.75,8.75-8.75s8.75,3.93,8.75,8.75c0,1.6-1.3,2.89-2.89,2.89Z"/><path class="cls-1" d="M275.51,1515.48c-.3,0-.61-.08-.89-.25-.82-.49-1.09-1.56-.6-2.38l6.96-11.66c.49-.82,1.56-1.09,2.38-.6.82.49,1.09,1.56.6,2.38l-6.96,11.66c-.32.54-.9.85-1.49.85Z"/><path class="cls-1" d="M285.4,1518.97h-11.72c-.96,0-1.74-.78-1.74-1.74s.78-1.74,1.74-1.74h11.72c.96,0,1.74.78,1.74,1.74s-.78,1.74-1.74,1.74Z"/><path class="cls-1" d="M61.15,761.42c-.86,0-1.32-.69-1.32-1.72s.46-1.72,1.32-1.72h25.61c.83,0,1.32.69,1.32,1.72s-.5,1.72-1.32,1.72h-10.1v8.15h8.52c.89,0,1.35.69,1.35,1.68s-.46,1.68-1.35,1.68h-8.52v9.6h11.02c.82,0,1.32.73,1.32,1.72s-.5,1.72-1.32,1.72h-27.76c-.86,0-1.32-.69-1.32-1.72s.46-1.72,1.32-1.72h3.8v-14.06c0-.86.83-1.35,1.88-1.35s1.92.5,1.92,1.35v14.06h5.35v-21.12h-11.72Z"/><path class="cls-1" d="M104.85,764.36c1.82,0,2.54.96,2.54,3.33v16.47c0,2.05-1.22,3-3.5,3-.99,0-2.01-.07-2.67-.23-.59-.13-1.02-.66-1.02-1.45,0-.1,0-.2.03-.33.07-.92.63-1.32,1.19-1.32h.2c.36.03,1.09.17,1.52.17.86,0,1.16-.17,1.16-.76v-3.93h-6.93c-.26,2.57-.73,4.98-1.42,6.96-.2.63-.79,1.02-1.49,1.02-.23,0-.46-.03-.69-.13-.76-.3-1.12-.83-1.12-1.45,0-.23.03-.46.13-.69.66-1.78,1.19-4.03,1.45-6.6.23-2.61.36-6.07.36-10.73,0-.3,0-.56.03-.82h-.1c-.4,0-.76-.1-1.06-.3-.36-.26-.53-.66-.53-1.06,0-.36.13-.76.4-1.06,1.52-1.75,2.84-4.26,3.7-6.93.26-.79.73-1.06,1.42-1.06.2,0,.4.03.63.07.92.13,1.35.46,1.35.99,0,.13-.03.3-.1.49-.03.1-.07.23-.1.33h3.2c1.45,0,2.24.86,2.24,1.95,0,.23-.03.5-.1.76-.3.89-.83,2.18-1.45,3.3h.73ZM97.42,773.21c0,1.06-.03,2.15-.07,3.2h2.24v-3.2h-2.18ZM100.92,764.36c.46-.86.86-1.72,1.09-2.34.03-.1.07-.2.07-.3,0-.2-.13-.3-.4-.3h-2.67c-.46,1.02-.99,1.98-1.55,2.94h3.46ZM98.18,767.37c-.5,0-.73.13-.73.69v2.34h2.14v-3.04h-1.42ZM104.45,768.06c0-.56-.23-.69-.73-.69h-1.42v3.04h2.15v-2.34ZM104.45,773.21h-2.15v3.2h2.15v-3.2ZM114.55,769.81c0-.92.53-1.39,1.58-1.39s1.68.46,1.68,1.39v1.65h4.06c.83,0,1.29.59,1.29,1.55s-.46,1.65-1.29,1.65h-4.06v3.07h4.82c.83,0,1.25.59,1.25,1.58s-.43,1.65-1.25,1.65h-4.82v5.15c0,.89-.66,1.39-1.68,1.39-1.09,0-1.72-.5-1.72-1.39v-5.15h-5.02c-.79,0-1.25-.66-1.25-1.62,0-1.02.46-1.62,1.25-1.62h5.02v-3.07h-2.9c-.2.5-.4.96-.59,1.39-.26.59-.76.89-1.35.89-.23,0-.53-.07-.79-.17-.59-.26-.92-.76-.92-1.32,0-.26.07-.53.2-.76.73-1.25,1.35-3.04,1.65-4.59.1-.69.63-1.09,1.35-1.09.13,0,.26,0,.4.03.79.17,1.29.56,1.29,1.22,0,.1,0,.23-.03.33-.07.26-.13.56-.2.86h2.05v-1.65ZM109.2,760.73c-.83,0-1.29-.63-1.29-1.58s.46-1.52,1.29-1.52h10.26c2.11,0,3.23,1.09,3.2,2.97-.03,1.65-.23,3.63-.59,4.79-.5,1.55-1.45,2.48-3.7,2.48-1.02,0-1.98-.1-2.54-.23-.56-.1-.99-.59-.99-1.35,0-.13,0-.3.03-.46.17-.83.59-1.22,1.06-1.22h.17c.56.1,1.06.17,1.45.17.73,0,1.06-.23,1.25-.92.17-.56.26-1.58.26-2.38,0-.59-.17-.73-.76-.73h-2.74c-.43,3.37-2.28,6.3-4.95,7.79-.3.17-.63.26-.92.26-.56,0-1.12-.3-1.45-.86-.2-.33-.3-.63-.3-.96,0-.46.26-.92.73-1.22,1.98-1.19,3.07-2.81,3.37-5.02h-2.84Z"/><path class="cls-1" d="M142.83,776.84c-1.09,2.97-2.15,4.49-3.4,5.48-1.12.89-2.44,1.29-3.89,1.29-3.57,0-6.73-3.23-6.73-9.67,0-8.25,5.91-14.49,15.21-14.49,8.22,0,13.57,5.38,13.57,12.97,0,4.75-2.01,8.38-5.41,10.66-1.95,1.35-4.49,2.21-7.1,2.54-.17.03-.3.03-.46.03-.99,0-1.78-.46-1.95-1.58-.03-.17-.03-.33-.03-.46,0-.99.56-1.75,1.62-1.91,2.28-.33,4.52-1.09,6.07-2.24,1.91-1.49,3.23-3.89,3.23-7.16,0-5.15-3.23-8.98-8.19-9.24-.33,5.38-1.22,10.2-2.54,13.8ZM132.63,773.87c0,3.93,1.39,5.61,2.87,5.61.63,0,1.25-.23,1.85-.79.63-.56,1.25-1.75,1.92-3.63,1.02-2.94,1.91-7.39,2.14-11.91-5.12.53-8.78,4.88-8.78,10.73Z"/><path class="cls-1" d="M167.58,780.5c-.43.79-1.02,1.19-1.75,1.19-.4,0-.83-.13-1.29-.43-.63-.36-.89-.92-.89-1.55,0-.43.13-.89.4-1.35,2.11-3.6,4.16-7.99,5.41-12.01-.92.03-1.95.03-2.97.03h-1.32c-1.02-.03-1.58-.73-1.58-1.85s.63-1.85,1.68-1.85h2.18c1.06,0,2.11,0,3.1-.03.4-1.45.69-2.9.96-4.32.13-.96.83-1.45,1.78-1.45.16,0,.33,0,.49.03,1.02.2,1.62.69,1.62,1.62,0,.17-.03.33-.07.53-.2.96-.46,2.11-.76,3.3,1.32-.1,2.54-.2,3.66-.36.1-.03.23-.03.33-.03.92,0,1.45.59,1.62,1.58v.26c0,.92-.5,1.58-1.55,1.78-1.55.26-3.33.4-5.08.53-1.42,4.82-3.7,10.33-5.97,14.39ZM186.32,780.93c0,3.47-2.08,5.64-7.29,5.64-4.46,0-7.33-2.31-7.33-5.78s2.97-5.94,7.33-5.94c1.25,0,2.34.13,3.43.4-.17-1.55-.3-3.53-.3-5.31,0-1.22.79-1.72,1.85-1.72s1.88.53,1.88,1.72c0,2.21.13,4.36.36,6.44,2.08.99,4.19,2.44,5.81,4.03.43.43.63.89.63,1.39,0,.46-.17.92-.5,1.32-.4.46-.86.73-1.35.73-.43,0-.86-.2-1.25-.56-1.02-1.02-2.24-2.05-3.27-2.67v.33ZM179.13,778.13c-2.28,0-3.73,1.02-3.73,2.61,0,1.49,1.35,2.38,3.6,2.38,2.48,0,3.73-.86,3.73-2.97,0-.4,0-.76-.03-1.25-.99-.5-2.31-.76-3.56-.76ZM191.67,764.99c.56.4.83.96.83,1.55,0,.4-.13.79-.36,1.16-.36.53-.92.83-1.52.83-.4,0-.79-.13-1.19-.36-1.82-1.25-4.16-2.51-6.37-3.43-.59-.26-.89-.86-.89-1.45,0-.36.1-.76.33-1.09.43-.63,1.02-.92,1.62-.92.3,0,.59.07.89.17,2.28.89,4.88,2.28,6.67,3.56Z"/><path class="cls-1" d="M204.84,778.85c.43.92,1.12,1.49,1.78,1.49s1.15-.3,1.58-1.12c.56-.96,1.02-2.54,1.32-4.42.17-.99.73-1.49,1.68-1.49.17,0,.36.03.59.07,1.06.17,1.68.73,1.68,1.78,0,.13,0,.3-.03.46-.46,3.1-1.42,5.58-2.61,7.16-1.16,1.52-2.71,2.18-4.09,2.18-1.55,0-3-.66-4.19-2.18-1.58-1.98-2.77-5.41-3.2-10.53-.23-2.84-.3-6.73-.3-10.63,0-1.22.73-1.91,2.08-1.91,1.45,0,1.98.73,1.98,1.95v2.51c0,2.9.03,5.74.2,7.76.26,3.1.73,5.28,1.52,6.93ZM219.55,761.46c.66,0,1.25.3,1.68.99,3,4.32,5.28,11.12,5.71,16.47.03.13.03.26.03.4,0,1.12-.53,1.98-1.68,2.15-.2.03-.4.07-.56.07-1.06,0-1.78-.63-1.91-1.78-.53-5.25-2.31-10.99-5.12-15.25-.26-.4-.36-.79-.36-1.16,0-.69.4-1.32,1.12-1.62.36-.17.76-.26,1.09-.26Z"/><path class="cls-1" d="M238.76,780.27c.73,1.39,1.88,2.18,3.3,2.61-.3-.13-.56-.4-.76-.79-.1-.23-.17-.5-.17-.73,0-.53.3-.96.86-1.12,1.42-.43,3.04-1.02,3.99-1.58.3-.17.66-.26.99-.26.43,0,.89.17,1.25.53.3.3.43.63.43.92,0,.4-.2.76-.59,1.02-1.45.92-3.2,1.68-4.75,2.08-.23.07-.43.1-.59.1-.07,0-.13,0-.17-.03.23.07.46.13.73.17,1.42.23,3.23.33,5.48.33,3.1,0,6.47-.1,9.41-.26-.07,0-.17,0-.23-.03-1.42-.36-3.66-1.39-5.15-2.31-.43-.26-.66-.66-.66-1.06,0-.36.17-.69.5-.99.36-.36.79-.5,1.22-.5.4,0,.79.1,1.16.33,1.25.69,3.1,1.42,4.69,1.85.59.17.96.56.96,1.09,0,.2-.07.4-.17.63-.23.5-.66.79-1.19.96.46-.03.92-.07,1.35-.1h.26c.99,0,1.49.56,1.55,1.68v.17c0,1.06-.59,1.65-1.75,1.72-3.33.13-8.38.23-12.34.23-2.61,0-4.85-.2-6.47-.56-2.24-.5-3.96-1.58-4.98-3.23-.86,1.25-2.05,2.61-3.2,3.43-.23.17-.5.26-.76.26-.46,0-.96-.23-1.42-.79-.33-.4-.49-.82-.49-1.22,0-.49.23-.96.63-1.25,1.06-.76,2.57-2.11,3.56-3.47v-6.47c0-.73-.13-.89-.83-.89h-1.88c-.83,0-1.35-.59-1.35-1.62,0-1.09.53-1.68,1.35-1.68h3.33c2.11,0,2.9.96,2.9,3.17v7.69ZM238.96,762.25c.23.33.33.69.33,1.02,0,.53-.23,1.02-.73,1.42-.43.36-.96.56-1.42.56-.43,0-.83-.17-1.09-.56-1.12-1.65-2.31-3.2-3.6-4.52-.26-.3-.43-.66-.43-1.02,0-.43.23-.89.69-1.25.46-.4.92-.56,1.39-.56.4,0,.76.13,1.06.43,1.42,1.25,2.84,3,3.8,4.49ZM249.62,761.92c0,1.12-.43,1.68-1.19,1.95h.46c.83.07,1.35.46,1.35,1.12v.1c-.07.73-.3,1.55-.66,2.01-.36.46-.99.79-1.91.92-.79.1-1.82.13-3.07.13-1.19,0-2.48-.03-3.23-.26-1.06-.3-1.35-1.02-1.35-2.34v-2.05c0-1.35.69-2.01,2.18-2.01h3.76c.53,0,.66-.13.66-.5v-.46c0-.36-.13-.5-.66-.5h-5.31c-.63,0-1.02-.56-1.02-1.42s.4-1.42,1.02-1.42h6.6c1.68,0,2.38.73,2.38,2.31v2.41ZM252.88,770.4v-.76c0-.76.66-1.19,1.65-1.19,1.06,0,1.68.43,1.68,1.19v.76h3.33c.63,0,1.06.59,1.06,1.39s-.43,1.42-1.06,1.42h-3.33v2.24h4.59c.66,0,1.09.59,1.09,1.39s-.43,1.42-1.09,1.42h-20.03c-.66,0-1.06-.63-1.06-1.42s.4-1.39,1.06-1.39h4.12v-2.24h-3c-.69,0-1.06-.63-1.06-1.42s.36-1.39,1.06-1.39h3v-.76c0-.76.66-1.19,1.65-1.19,1.06,0,1.72.43,1.72,1.19v.76h4.62ZM243.71,764c-.56,0-.66.1-.66.5v.33c0,.53.13.76,1.52.76,1.29,0,1.82-.03,2.18-.17.36-.13.5-.36.59-.89.03-.26.2-.43.4-.56-.13.03-.3.03-.46.03h-3.56ZM252.88,775.45v-2.24h-4.62v2.24h4.62ZM251.14,763.37c0-1.25.73-1.88,2.11-1.88h3.93c.53,0,.63-.17.63-.53v-.43c0-.36-.1-.5-.66-.5h-5.15c-.63,0-1.06-.56-1.06-1.42s.43-1.42,1.06-1.42h6.57c1.65,0,2.38.73,2.38,2.31v2.41c0,1.02-.4,1.62-1.09,1.88h.53c.79.07,1.39.53,1.39,1.19v.03c-.03.83-.33,1.65-.63,2.01-.36.43-.96.76-1.82.92-.73.13-2.01.2-3.37.2s-2.71-.07-3.5-.26c-.99-.26-1.32-.96-1.32-2.34v-2.18ZM254.21,764.82c0,.53.17.76,1.62.76,1.29,0,2.05-.03,2.41-.17.4-.13.59-.43.63-.89.03-.26.17-.46.36-.56-.2.03-.43.03-.69.03h-3.66c-.53,0-.66.1-.66.5v.33Z"/><path class="cls-1" d="M274.96,763.01c-1.88.5-3.89.79-6.04.79-.99,0-1.62-.59-1.68-1.75v-.17c0-.99.59-1.75,1.65-1.78,3.07-.07,6.11-.36,8.94-.82.23-.03.43-.03.63-.03.92,0,1.55.33,2.01,1.12.2.36.3.76.3,1.12,0,.63-.33,1.25-.92,1.68-4.95,3.37-7.69,7.92-7.69,12.51s2.84,6.83,6.37,6.83c4.98,0,7.89-3.37,7.89-10.53,0-3.93-.63-7.46-1.62-10.3-.07-.23-.1-.46-.1-.66,0-.83.53-1.39,1.42-1.65.26-.07.53-.1.76-.1.83,0,1.45.43,1.75,1.19,1.78,4.13,4.65,8.05,7.56,10.66.53.46.76,1.02.76,1.58,0,.53-.2,1.02-.56,1.45-.33.43-.86.66-1.39.66-.5,0-1.02-.23-1.42-.69-1.88-1.88-3.27-4.03-4.52-6.86l-.17.07c.69,2.24,1.09,4.55,1.09,6.37,0,7.89-4.13,12.74-11.42,12.74-5.78,0-10.26-3.56-10.26-10.73,0-4.62,2.47-9.14,6.73-12.57l-.07-.13ZM291.23,757.63c.43,0,.83.2,1.09.59.63.92,1.32,2.24,1.72,3.1.1.23.17.46.17.69,0,.46-.23.86-.69,1.09-.2.1-.46.17-.69.17-.46,0-.96-.23-1.22-.76-.43-.92-1.02-2.15-1.58-2.97-.13-.23-.2-.43-.2-.66,0-.46.26-.86.73-1.09.23-.1.46-.17.69-.17ZM295.09,756.34c.43,0,.79.2,1.09.63.59.79,1.19,1.95,1.58,2.87.1.2.13.4.13.59,0,.53-.3.96-.73,1.16-.2.1-.4.13-.63.13-.46,0-.92-.23-1.22-.79-.36-.79-.96-1.91-1.52-2.77-.1-.2-.16-.43-.16-.59,0-.5.33-.89.79-1.09.23-.1.43-.13.66-.13Z"/><path class="cls-1" d="M302.32,765.02c-.89,0-1.39-.79-1.39-1.82s.5-1.78,1.39-1.78h11.62v-3.5c0-.86.83-1.32,1.95-1.32s1.91.46,1.91,1.32v3.5h12.08c.89,0,1.39.79,1.39,1.78,0,1.06-.5,1.82-1.39,1.82h-15.18c0,.3-.03.56-.03.86-.07.92-.1,1.88-.23,2.81h9.27c2.51,0,3.53.99,3.53,3.4,0,4.16-.66,8.81-1.42,11.16-.76,2.54-2.28,3.5-5.08,3.5-1.35,0-2.94-.13-4.06-.36-.83-.17-1.35-.79-1.35-1.68,0-.17.03-.33.07-.5.17-.92.73-1.49,1.52-1.49.17,0,.33.03.5.07.76.13,1.98.3,2.94.3,1.22,0,1.68-.36,1.98-1.35.56-2.01,1.09-5.41,1.09-8.55,0-.76-.33-.99-1.09-.99h-8.45c-1.45,6.93-4.72,11.22-9.9,14.42-.36.23-.76.36-1.19.36-.59,0-1.19-.3-1.58-.86-.3-.43-.43-.86-.43-1.29,0-.59.3-1.12.83-1.45,5.94-3.53,9.01-8.78,9.17-18.35h-8.45Z"/><path class="cls-1" d="M88.66,2182.34c-1.99,1.47-4.06,2.75-5.78,3.63-.44.2-.88.32-1.27.32-.76,0-1.43-.4-1.83-1.12-.2-.4-.32-.84-.32-1.2,0-.72.36-1.35,1.08-1.67,3.83-1.75,7.89-4.78,10.12-7.77.44-.56,1-.8,1.63-.8.44,0,.92.12,1.35.4.76.4,1.12,1,1.12,1.59,0,.4-.16.8-.44,1.2-1,1.32-2.31,2.63-3.75,3.87h15.18c-1.47-1.24-2.79-2.59-3.91-3.95-.36-.4-.52-.84-.52-1.28,0-.56.36-1.12,1-1.47.48-.28.92-.4,1.36-.4.6,0,1.16.28,1.55.8,2.39,2.91,6.5,5.82,10.44,7.45.8.36,1.27,1.04,1.27,1.83,0,.36-.08.76-.28,1.16-.4.8-1.04,1.24-1.83,1.24-.4,0-.8-.08-1.23-.32-1.08-.44-2.19-1.08-3.31-1.75v.28c0,2.31-.36,4.82-1,6.57-.68,1.87-2.15,2.83-4.94,2.83-1.71,0-3.19-.2-4.34-.56-.72-.2-1.12-.88-1.12-1.67,0-.2.04-.4.08-.64.24-.92.96-1.43,1.71-1.43.16,0,.28.04.44.04.8.2,1.63.36,2.43.36,1.12,0,1.67-.16,1.95-.88.36-1.04.56-2.27.6-3.63,0-.84-.24-.96-.96-.96h-6.85c-2.19,7.01-7.97,9.52-14.62,11.16-.2.04-.36.04-.52.04-.92,0-1.67-.56-1.91-1.51-.08-.24-.12-.48-.12-.72,0-.92.56-1.63,1.51-1.83,5.58-1.16,9.32-3.15,11.08-7.13h-3.67c-.92,0-1.43-.84-1.43-1.87l.04-.2ZM115.43,2206.09c.96,0,1.51.72,1.51,1.95,0,1.16-.56,2.03-1.51,2.03h-34.39c-1,0-1.51-.84-1.51-2.03s.52-1.95,1.51-1.95h2.63v-6.66c0-2.55,1.2-3.83,3.71-3.83h21.64c2.51,0,3.59,1.12,3.59,3.55v6.93h2.83ZM91.92,2199.43h-2.95c-.76,0-1,.16-1,1.04v5.62h3.95v-6.66ZM99.93,2199.43h-3.87v6.66h3.87v-6.66ZM108.3,2200.47c0-.88-.24-1.04-1-1.04h-3.23v6.66h4.22v-5.62Z"/><path class="cls-1" d="M149.09,2210.07c-8.03,0-14.56-6.53-14.56-14.56s6.53-14.56,14.56-14.56c1.59,0,2.88,1.29,2.88,2.88s-1.29,2.88-2.88,2.88c-4.85,0-8.79,3.94-8.79,8.79s3.94,8.79,8.79,8.79c1.59,0,2.88,1.29,2.88,2.88s-1.29,2.88-2.88,2.88Z"/><path class="cls-1" d="M149.09,2210.07c-1.59,0-2.88-1.29-2.88-2.88s1.29-2.88,2.88-2.88c4.85,0,8.79-3.94,8.79-8.79s-3.94-8.79-8.79-8.79c-1.59,0-2.88-1.29-2.88-2.88s1.29-2.88,2.88-2.88c8.03,0,14.56,6.53,14.56,14.56s-6.53,14.56-14.56,14.56Z"/><path class="cls-1" d="M214.3,2210.07c-8.03,0-14.56-6.53-14.56-14.56s6.53-14.56,14.56-14.56c1.59,0,2.88,1.29,2.88,2.88s-1.29,2.88-2.88,2.88c-4.85,0-8.79,3.94-8.79,8.79s3.94,8.79,8.79,8.79c1.59,0,2.88,1.29,2.88,2.88s-1.29,2.88-2.88,2.88Z"/><path class="cls-1" d="M214.3,2210.07c-1.59,0-2.88-1.29-2.88-2.88s1.29-2.88,2.88-2.88c4.85,0,8.79-3.94,8.79-8.79s-3.94-8.79-8.79-8.79c-1.59,0-2.88-1.29-2.88-2.88s1.29-2.88,2.88-2.88c8.03,0,14.56,6.53,14.56,14.56s-6.53,14.56-14.56,14.56Z"/><path class="cls-1" d="M268.69,2184.42h-6.08c-.95,0-1.73-.77-1.73-1.73s.77-1.73,1.73-1.73h6.08c.95,0,1.73.77,1.73,1.73s-.77,1.73-1.73,1.73Z"/><path class="cls-1" d="M268.69,2210.08h-6.08c-.95,0-1.73-.77-1.73-1.73s.77-1.73,1.73-1.73h6.08c.95,0,1.73.77,1.73,1.73s-.77,1.73-1.73,1.73Z"/><path class="cls-1" d="M265.63,2206.62h0c-1.59,0-2.88-1.29-2.88-2.89l.02-16.44c0-1.59,1.29-2.88,2.88-2.88h0c1.59,0,2.88,1.29,2.88,2.89l-.02,16.44c0,1.59-1.29,2.88-2.88,2.88Z"/><path class="cls-1" d="M173.02,2210.08c-.95,0-1.73-.77-1.73-1.73v-25.66c0-.95.77-1.73,1.73-1.73s1.73.77,1.73,1.73v25.66c0,.95-.77,1.73-1.73,1.73Z"/><path class="cls-1" d="M177.63,2210.08c-1.59,0-2.88-1.29-2.88-2.88s1.29-2.88,2.88-2.88c4.85,0,8.8-3.95,8.8-8.8,0-1.59,1.29-2.88,2.88-2.88s2.88,1.29,2.88,2.88c0,8.03-6.53,14.56-14.56,14.56Z"/><path class="cls-1" d="M189.31,2198.4c-1.59,0-2.88-1.29-2.88-2.88,0-4.85-3.95-8.8-8.8-8.8-1.59,0-2.88-1.29-2.88-2.88s1.29-2.88,2.88-2.88c8.03,0,14.56,6.53,14.56,14.56,0,1.59-1.29,2.88-2.88,2.88Z"/><path class="cls-1" d="M243.98,2199.47c-.95,0-1.73-.77-1.73-1.73s.77-1.73,1.73-1.73c3.2,0,5.79-2.6,5.79-5.79s-2.6-5.79-5.79-5.79h-.14c-.95,0-1.73-.77-1.73-1.73s.77-1.73,1.73-1.73h.14c5.1,0,9.25,4.15,9.25,9.25s-4.15,9.25-9.25,9.25Z"/><path class="cls-1" d="M251.51,2210.08c-.56,0-1.11-.27-1.44-.77l-4.97-7.45c-.53-.79-.31-1.87.48-2.4.79-.53,1.87-.31,2.4.48l4.97,7.45c.53.79.31,1.87-.48,2.4-.29.2-.63.29-.96.29Z"/><path class="cls-1" d="M239.38,2210.08c-1.59,0-2.88-1.29-2.88-2.88v-23.34c0-1.59,1.29-2.88,2.88-2.88s2.88,1.29,2.88,2.88v23.34c0,1.59-1.29,2.88-2.88,2.88Z"/><path class="cls-1" d="M295.3,2204.35c-1.59,0-2.88-1.29-2.88-2.88v-17.61c0-1.59,1.29-2.88,2.88-2.88s2.88,1.29,2.88,2.88v17.61c0,1.59-1.29,2.88-2.88,2.88Z"/><path class="cls-1" d="M295.3,2210.08c-.95,0-1.73-.77-1.73-1.73v-2.32c0-.95.77-1.73,1.73-1.73s1.73.77,1.73,1.73v2.32c0,.95-.77,1.73-1.73,1.73Z"/><path class="cls-1" d="M307.65,2202.03c-.95,0-1.73-.77-1.73-1.73v-17.61c0-.95.77-1.73,1.73-1.73s1.73.77,1.73,1.73v17.61c0,.95-.77,1.73-1.73,1.73Z"/><path class="cls-1" d="M307.65,2210.08c-1.59,0-2.88-1.29-2.88-2.88v-2.32c0-1.59,1.29-2.88,2.88-2.88s2.88,1.29,2.88,2.88v2.32c0,1.59-1.29,2.88-2.88,2.88Z"/><rect class="cls-1" x="-3.28" y="349.12" width="396.53" height="343.04" rx="60" ry="60" transform="translate(715.63 325.65) rotate(90)"/><rect class="cls-2" x="-3.28" y="1042.57" width="396.53" height="343.04" rx="60" ry="60" transform="translate(1409.08 1019.1) rotate(90)"/><path class="cls-1" d="M232.89,954.27h-92.6c-10,0-18.11-8.11-18.11-18.11v-2.51c0-10,8.11-18.11,18.11-18.11h92.6s16.8,0,16.8,0c10,0,18.11,8.11,18.11,18.11v2.51c0,10-8.11,18.11-18.11,18.11h-16.8Z"/><rect class="cls-2" x="-3.28" y="1774.13" width="396.53" height="343.04" rx="60" ry="60" transform="translate(2140.64 1750.66) rotate(90)"/><path class="cls-1" d="M232.89,2379.28h-92.6c-10,0-18.11-8.11-18.11-18.11v-2.51c0-10,8.11-18.11,18.11-18.11h92.6s16.8,0,16.8,0c10,0,18.11,8.11,18.11,18.11v2.51c0,10-8.11,18.11-18.11,18.11h-16.8Z"/><path class="cls-1" d="M232.89,1685.83h-92.6c-10,0-18.11-8.11-18.11-18.11v-2.51c0-10,8.11-18.11,18.11-18.11h92.6s16.8,0,16.8,0c10,0,18.11,8.11,18.11,18.11v2.51c0,10-8.11,18.11-18.11,18.11h-16.8Z"/></svg>