<?xml version="1.0" encoding="UTF-8"?><svg id="_レイヤー_1" xmlns="http://www.w3.org/2000/svg" xmlns:xlink="http://www.w3.org/1999/xlink" viewBox="0 0 190.18 58.53"><defs><style>.cls-1{fill:none;}.cls-2{fill:red;}.cls-3{clip-path:url(#clippath);}</style><clipPath id="clippath"><circle class="cls-1" cx="100" cy="-200.42" r="98.57"/></clipPath></defs><g class="cls-3"><image width="1054" height="1578" transform="translate(-10.61 -298.49) scale(.2)" xlink:href="../Haru.jpg"/></g><path class="cls-2" d="M146.4,29.55c-7.98,0-14.48,6.5-14.48,14.48s6.5,14.48,14.48,14.48,14.48-6.5,14.48-14.48-6.5-14.48-14.48-14.48ZM146.4,52.78c-4.82,0-8.75-3.92-8.75-8.75s3.92-8.75,8.75-8.75,8.75,3.92,8.75,8.75-3.92,8.75-8.75,8.75Z"/><path class="cls-2" d="M82.15,29.55h-6.05c-.95,0-1.72.77-1.72,1.72s.77,1.72,1.72,1.72h6.05c.95,0,1.72-.77,1.72-1.72s-.77-1.72-1.72-1.72Z"/><path class="cls-2" d="M82.15,55.01h-2.88c1.52-.08,2.72-1.32,2.72-2.86v-16.29c0-1.58-1.28-2.87-2.87-2.87s-2.87,1.28-2.87,2.87v16.29c0,1.53,1.21,2.78,2.72,2.86h-2.88c-.95,0-1.72.77-1.72,1.72s.77,1.72,1.72,1.72h6.05c.95,0,1.72-.77,1.72-1.72s-.77-1.72-1.72-1.72Z"/><path class="cls-2" d="M52.67,29.55c-4.75,0-8.97,2.3-11.61,5.84-2.64-3.54-6.86-5.84-11.61-5.84-7.98,0-14.48,6.5-14.48,14.48,0,1.58,1.28,2.86,2.85,2.87-.94,0-1.71.77-1.71,1.72v8.18c0,.95.77,1.72,1.72,1.72s1.72-.77,1.72-1.72v-8.18c0-.95-.76-1.71-1.71-1.72,1.58,0,2.85-1.29,2.85-2.87,0-4.82,3.92-8.75,8.75-8.75s8.75,3.92,8.75,8.75c0,1.58,1.28,2.86,2.85,2.87-.94,0-1.71.77-1.71,1.72v8.18c0,.95.77,1.72,1.72,1.72s1.72-.77,1.72-1.72v-8.18c0-.95-.76-1.71-1.71-1.72,1.58,0,2.85-1.29,2.85-2.87,0-4.82,3.92-8.75,8.75-8.75s8.75,3.92,8.75,8.75c0,1.58,1.28,2.86,2.85,2.87-.94,0-1.71.77-1.71,1.72v8.18c0,.95.77,1.72,1.72,1.72s1.72-.77,1.72-1.72v-8.18c0-.95-.76-1.71-1.71-1.72,1.58,0,2.85-1.29,2.85-2.87,0-7.98-6.5-14.48-14.48-14.48Z"/><path class="cls-2" d="M125.68,37.7c0-4.46-3.63-8.09-8.09-8.09h-.14c-.95,0-1.72.77-1.72,1.72s.77,1.72,1.72,1.72h.14c2.56,0,4.65,2.09,4.65,4.65s-2.09,4.65-4.65,4.65c-.95,0-1.72.77-1.72,1.72s.77,1.72,1.72,1.72c2.56,0,4.65,2.09,4.65,4.65s-2.09,4.65-4.65,4.65h-.14c-.95,0-1.72.77-1.72,1.72s.77,1.72,1.72,1.72h.14c4.46,0,8.09-3.63,8.09-8.09,0-2.59-1.22-4.89-3.11-6.37,1.89-1.48,3.11-3.79,3.11-6.37Z"/><path class="cls-2" d="M115.86,32.42c0-1.58-1.28-2.87-2.87-2.87s-2.87,1.28-2.87,2.87v23.25c0,1.58,1.28,2.87,2.87,2.87s2.87-1.28,2.87-2.87v-23.25Z"/><path class="cls-2" d="M100.02,42.26h-6.05c-1.58,0-2.87,1.28-2.87,2.87s1.28,2.87,2.87,2.87h6.05c1.58,0,2.87-1.28,2.87-2.87s-1.28-2.87-2.87-2.87Z"/><path class="cls-2" d="M175.76,42.28h-6.05c-1.58,0-2.87,1.28-2.87,2.87s1.28,2.87,2.87,2.87h6.05c1.58,0,2.87-1.28,2.87-2.87s-1.28-2.87-2.87-2.87Z"/><path class="cls-2" d="M150.97,1.75h-3.08c-.48,0-.88-.39-.88-.88S147.41,0,147.89,0h3.08C151.45,0,151.84.39,151.84.88s-.39.88-.88.88Z"/><path class="cls-2" d="M150.97,14.74h-3.08c-.48,0-.88-.39-.88-.88s.39-.88.88-.88h3.08c.48,0,.88.39.88.88s-.39.88-.88.88Z"/><path class="cls-2" d="M149.42,12.99h0c-.81,0-1.46-.66-1.46-1.46V3.21c.01-.8.67-1.46,1.47-1.46h0c.81,0,1.46.66,1.46,1.46v8.32c-.01.8-.67,1.46-1.47,1.46Z"/><path class="cls-2" d="M133.46,14.74c-.48,0-.88-.39-.88-.88V.88C132.58.39,132.97,0,133.46,0s.88.39.88.88v12.99c0,.48-.39.88-.88.88Z"/><path class="cls-2" d="M135.79,14.74c-.81,0-1.46-.65-1.46-1.46s.65-1.46,1.46-1.46c2.46,0,4.45-2,4.45-4.45,0-.81.65-1.46,1.46-1.46s1.46.65,1.46,1.46c0,4.07-3.31,7.37-7.37,7.37Z"/><path class="cls-2" d="M141.7,8.83c-.81,0-1.46-.65-1.46-1.46,0-2.46-2-4.45-4.45-4.45-.81,0-1.46-.65-1.46-1.46S134.99,0,135.79,0C139.86,0,143.16,3.31,143.16,7.37c0,.81-.65,1.46-1.46,1.46Z"/><path class="cls-2" d="M160.13,8.83c-2.43,0-4.41-1.98-4.41-4.41S157.7,0,160.13,0C160.94,0,161.59.65,161.59,1.46s-.65,1.46-1.46,1.46-1.5.67-1.5,1.5.67,1.5,1.5,1.5,1.46.65,1.46,1.46-.65,1.46-1.46,1.46Z"/><path class="cls-2" d="M162.39,14.74c-.48,0-.88-.39-.88-.88s.39-.88.88-.88c1.15,0,2.08-.93,2.08-2.08s-.93-2.08-2.08-2.08c-.48,0-.88-.39-.88-.88s.39-.88.88-.88c2.11,0,3.83,1.72,3.83,3.83s-1.72,3.83-3.83,3.83Z"/><path class="cls-2" d="M81.58,8.24h-10.8c-.48,0-.88-.39-.88-.88s.39-.88.88-.88h10.8c.48,0,.88.39.88.88s-.39.88-.88.88Z"/><path class="cls-2" d="M68.45,14.74c-.81,0-1.46-.65-1.46-1.46V1.46C66.99.65,67.64,0,68.45,0s1.46.65,1.46,1.46v11.82c0,.81-.65,1.46-1.46,1.46Z"/><path class="cls-2" d="M83.91,14.74c-.81,0-1.46-.65-1.46-1.46V1.46C82.45.65,83.1,0,83.91,0s1.46.65,1.46,1.46v11.82c0,.81-.65,1.46-1.46,1.46Z"/><path class="cls-2" d="M176.96,1.75h-3.15c-.48,0-.88-.39-.88-.88S173.33,0,173.81,0h3.15c.48,0,.88.39.88.88s-.39.88-.88.88Z"/><path class="cls-2" d="M176.96,14.74h-3.15c-.48,0-.88-.39-.88-.88s.39-.88.88-.88h3.15c.48,0,.88.39.88.88s-.39.88-.88.88Z"/><path class="cls-2" d="M171.55,14.74c-.81,0-1.46-.65-1.46-1.46V1.46c0-.81.65-1.46,1.46-1.46s1.46.65,1.46,1.46v11.82c0,.81-.65,1.46-1.46,1.46Z"/><path class="cls-2" d="M176.96,8.25h-3.08c-.48,0-.88-.39-.88-.88s.39-.88.88-.88h3.08c.48,0,.88.39.88.88s-.39.88-.88.88Z"/><path class="cls-2" d="M37.3,1.75h-3.15c-.48,0-.88-.39-.88-.88S33.67,0,34.15,0h3.15c.48,0,.88.39.88.88s-.39.88-.88.88Z"/><path class="cls-2" d="M37.3,14.74h-3.15c-.48,0-.88-.39-.88-.88s.39-.88.88-.88h3.15c.48,0,.88.39.88.88s-.39.88-.88.88Z"/><path class="cls-2" d="M31.89,14.74c-.81,0-1.46-.65-1.46-1.46V1.46C30.43.66,31.09,0,31.89,0s1.46.65,1.46,1.46v11.82c0,.81-.65,1.46-1.46,1.46Z"/><path class="cls-2" d="M37.3,8.25h-3.08c-.48,0-.88-.39-.88-.88s.39-.88.88-.88h3.08c.48,0,.88.39.88.88s-.39.88-.88.88Z"/><path class="cls-2" d="M125,14.75c-.28,0-.56-.14-.73-.39l-8.66-12.99c-.27-.4-.16-.95.24-1.21.4-.27.95-.16,1.21.24l8.66,12.99c.27.4.16.95-.24,1.21-.15.1-.32.15-.48.15Z"/><path class="cls-2" d="M114.08,14.74c-.81,0-1.46-.65-1.46-1.46V1.46c0-.81.65-1.46,1.46-1.46s1.46.65,1.46,1.46v11.82c0,.81-.65,1.46-1.46,1.46Z"/><path class="cls-2" d="M127.26,14.74c-.81,0-1.46-.65-1.46-1.46V1.46c0-.81.65-1.46,1.46-1.46s1.46.65,1.46,1.46v11.82c0,.81-.65,1.46-1.46,1.46Z"/><path class="cls-2" d="M185.5,9.37c-.48,0-.88-.39-.88-.88s.39-.88.88-.88c1.62,0,2.93-1.32,2.93-2.93s-1.32-2.93-2.93-2.93h-.07c-.48,0-.88-.39-.88-.88S184.94,0,185.43,0h.07C188.08,0,190.18,2.1,190.18,4.68s-2.1,4.68-4.68,4.68Z"/><path class="cls-2" d="M189.31,14.74c-.28,0-.56-.14-.73-.39l-2.52-3.77c-.27-.4-.16-.95.24-1.21s.95-.16,1.21.24l2.52,3.77c.27.4.16.95-.24,1.21-.15.1-.32.15-.48.15Z"/><path class="cls-2" d="M183.17,14.74c-.81,0-1.46-.65-1.46-1.46V1.46c0-.81.65-1.46,1.46-1.46s1.46.65,1.46,1.46v11.82c0,.81-.65,1.46-1.46,1.46Z"/><path class="cls-2" d="M89.55,14.74c-.28,0-.56-.08-.81-.25-.67-.45-.85-1.35-.4-2.02l7.88-11.82c.45-.67,1.35-.85,2.02-.4.67.45.85,1.35.4,2.02l-7.88,11.82c-.28.42-.74.65-1.22.65Z"/><path class="cls-2" d="M108.24,14.74c-.47,0-.93-.23-1.22-.65l-7.88-11.82c-.45-.67-.27-1.58.4-2.02.67-.45,1.58-.27,2.02.4l7.88,11.82c.45.67.27,1.58-.4,2.02-.25.17-.53.25-.81.25Z"/><path class="cls-2" d="M103.25,10.88h-8.7c-.48,0-.88-.39-.88-.88s.39-.88.88-.88h8.7c.48,0,.88.39.88.88s-.39.88-.88.88Z"/><path class="cls-2" d="M13.28,8.83c-.81,0-1.46-.65-1.46-1.46,0-2.45-2-4.45-4.45-4.45s-4.45,2-4.45,4.45c0,.81-.65,1.46-1.46,1.46s-1.46-.65-1.46-1.46C0,3.31,3.31,0,7.37,0s7.37,3.31,7.37,7.37c0,.81-.65,1.46-1.46,1.46Z"/><path class="cls-2" d="M25.1,8.83c-.81,0-1.46-.65-1.46-1.46,0-2.45-2-4.45-4.45-4.45s-4.45,2-4.45,4.45c0,.81-.65,1.46-1.46,1.46s-1.46-.65-1.46-1.46C11.82,3.31,15.13,0,19.19,0s7.37,3.31,7.37,7.37c0,.81-.65,1.46-1.46,1.46Z"/><path class="cls-2" d="M1.46,14.74c-.48,0-.88-.39-.88-.88v-4.16c0-.48.39-.88.88-.88s.88.39.88.88v4.16c0,.48-.39.88-.88.88Z"/><path class="cls-2" d="M13.28,14.74c-.48,0-.88-.39-.88-.88v-4.16c0-.48.39-.88.88-.88s.88.39.88.88v4.16c0,.48-.39.88-.88.88Z"/><path class="cls-2" d="M25.1,14.74c-.48,0-.88-.39-.88-.88v-4.16c0-.48.39-.88.88-.88s.88.39.88.88v4.16c0,.48-.39.88-.88.88Z"/><path class="cls-2" d="M61.77,14.74c-4.07,0-7.37-3.31-7.37-7.37,0-.81.65-1.46,1.46-1.46s1.46.65,1.46,1.46c0,2.46,2,4.45,4.45,4.45.81,0,1.46.65,1.46,1.46s-.65,1.46-1.46,1.46Z"/><path class="cls-2" d="M55.85,8.83c-.81,0-1.46-.65-1.46-1.46C54.4,3.31,57.7,0,61.77,0,62.57,0,63.23.65,63.23,1.46s-.65,1.46-1.46,1.46c-2.46,0-4.45,2-4.45,4.45,0,.81-.65,1.46-1.46,1.46Z"/><path class="cls-2" d="M45.84,9.37c-.48,0-.88-.39-.88-.88s.39-.88.88-.88c1.62,0,2.93-1.32,2.93-2.93s-1.32-2.93-2.93-2.93h-.07c-.48,0-.88-.39-.88-.88S45.28,0,45.77,0h.07C48.42,0,50.52,2.1,50.52,4.68s-2.1,4.68-4.68,4.68Z"/><path class="cls-2" d="M49.65,14.74c-.28,0-.56-.14-.73-.39l-2.52-3.77c-.27-.4-.16-.95.24-1.21s.95-.16,1.21.24l2.52,3.77c.27.4.16.95-.24,1.21-.15.1-.32.15-.48.15Z"/><path class="cls-2" d="M43.51,14.74c-.81,0-1.46-.65-1.46-1.46V1.46c0-.81.65-1.46,1.46-1.46s1.46.65,1.46,1.46v11.82c0,.81-.65,1.46-1.46,1.46Z"/></svg>