<?xml version="1.0" encoding="UTF-8"?><svg id="_レイヤー_1" xmlns="http://www.w3.org/2000/svg" viewBox="0 0 156.55 58.58"><defs><style>.cls-1{fill:red;}</style></defs><path class="cls-1" d="M68.39,30.03c-1.32-.88-3.1-.52-3.98.8l-15.49,23.24c-.88,1.32-.52,3.1.8,3.98.49.33,1.04.48,1.59.48.93,0,1.84-.45,2.39-1.28l15.49-23.24c.88-1.32.52-3.1-.8-3.98Z"/><path class="cls-1" d="M74.94,30.83c-.88-1.32-2.66-1.68-3.98-.8-1.32.88-1.68,2.66-.8,3.98l15.49,23.24c.55.83,1.46,1.28,2.39,1.28.55,0,1.1-.16,1.59-.48,1.32-.88,1.68-2.66.8-3.98l-15.49-23.24Z"/><path class="cls-1" d="M78.24,47.52h-17.13c-.95,0-1.72.77-1.72,1.72s.77,1.72,1.72,1.72h17.13c.95,0,1.72-.77,1.72-1.72s-.77-1.72-1.72-1.72Z"/><path class="cls-1" d="M40.76,29.55c-1.59,0-2.87,1.29-2.87,2.87v11.9c-.01-.94-.78-1.69-1.72-1.69H14.92c-.94,0-1.7.75-1.72,1.68v-11.89c0-1.59-1.29-2.87-2.87-2.87s-2.87,1.29-2.87,2.87v23.25c0,1.59,1.29,2.87,2.87,2.87s2.87-1.29,2.87-2.87v-11.28c.02.93.78,1.68,1.72,1.68h21.24c.94,0,1.71-.76,1.72-1.69v11.29c0,1.59,1.29,2.87,2.87,2.87s2.87-1.29,2.87-2.87v-23.25c0-1.59-1.29-2.87-2.87-2.87Z"/><path class="cls-1" d="M103.66,29.56h-.14c-.95,0-1.72.77-1.72,1.72s.77,1.72,1.72,1.72h.14c3.18,0,5.77,2.59,5.77,5.77s-2.59,5.77-5.77,5.77c-.93,0-1.69.74-1.72,1.67v-13.8c0-1.59-1.29-2.87-2.87-2.87s-2.87,1.29-2.87,2.87v23.29c0,1.59,1.29,2.87,2.87,2.87s2.87-1.29,2.87-2.87v-9.39c.03.93.79,1.67,1.72,1.67,5.08,0,9.22-4.14,9.22-9.22s-4.14-9.22-9.22-9.22Z"/><path class="cls-1" d="M107.57,48.49c-.53-.79-1.6-1.01-2.39-.48-.79.53-1.01,1.6-.48,2.39l4.94,7.41c.33.5.88.77,1.43.77.33,0,.66-.09.95-.29.79-.53,1.01-1.6.48-2.39l-4.94-7.41Z"/><path class="cls-1" d="M146.28,35.32c.93-.03,1.67-.79,1.67-1.72v-2.33c0-.95-.77-1.72-1.72-1.72s-1.72.77-1.72,1.72v2.33c0,.93.74,1.69,1.67,1.72-1.56.03-2.82,1.3-2.82,2.87v5.88c0,4.83-3.93,8.76-8.76,8.76s-8.76-3.93-8.76-8.76v-5.88c0-1.57-1.26-2.84-2.82-2.87.93-.03,1.67-.79,1.67-1.72v-2.33c0-.95-.77-1.72-1.72-1.72s-1.72.77-1.72,1.72v2.33c0,.93.74,1.69,1.67,1.72-1.56.03-2.82,1.3-2.82,2.87v5.88c0,8,6.51,14.5,14.5,14.5s14.5-6.51,14.5-14.5v-5.88c0-1.57-1.26-2.84-2.82-2.87Z"/><path class="cls-1" d="M136.79,14.77c-4.07,0-7.39-3.31-7.39-7.39S132.72,0,136.79,0C137.6,0,138.25.65,138.25,1.46s-.65,1.46-1.46,1.46c-2.46,0-4.46,2-4.46,4.46s2,4.46,4.46,4.46c.81,0,1.46.65,1.46,1.46s-.65,1.46-1.46,1.46Z"/><path class="cls-1" d="M136.79,14.77c-.81,0-1.46-.65-1.46-1.46s.65-1.46,1.46-1.46c2.46,0,4.46-2,4.46-4.46s-2-4.46-4.46-4.46c-.81,0-1.46-.65-1.46-1.46S135.98,0,136.79,0C140.86,0,144.18,3.31,144.18,7.39s-3.31,7.39-7.39,7.39Z"/><path class="cls-1" d="M1.46,14.77c-.28,0-.56-.08-.81-.25-.67-.45-.85-1.36-.41-2.03L8.14.65c.45-.67,1.36-.85,2.03-.41.67.45.85,1.36.41,2.03L2.68,14.12c-.28.42-.75.65-1.22.65Z"/><path class="cls-1" d="M20.19,14.77c-.47,0-.94-.23-1.22-.65L11.08,2.27c-.45-.67-.27-1.58.41-2.03.67-.45,1.58-.27,2.03.41l7.9,11.85c.45.67.27,1.58-.41,2.03-.25.17-.53.25-.81.25Z"/><path class="cls-1" d="M15.19,10.91H6.47c-.48,0-.88-.39-.88-.88s.39-.88.88-.88h8.72c.48,0,.88.39.88.88s-.39.88-.88.88Z"/><path class="cls-1" d="M122.46,14.77c-.48,0-.88-.39-.88-.88V3.8c0-.48.39-.88.88-.88s.88.39.88.88v10.09c0,.48-.39.88-.88.88Z"/><path class="cls-1" d="M125.73,2.92h-6.53c-.81,0-1.46-.65-1.46-1.46S118.39,0,119.2,0h6.53C126.54,0,127.19.65,127.19,1.46s-.65,1.46-1.46,1.46Z"/><path class="cls-1" d="M42.54,14.77c-.48,0-.88-.39-.88-.88V3.8c0-.48.39-.88.88-.88s.88.39.88.88v10.09c0,.48-.39.88-.88.88Z"/><path class="cls-1" d="M45.8,2.92h-6.53c-.81,0-1.46-.65-1.46-1.46S38.47,0,39.28,0h6.53C46.61,0,47.27.65,47.27,1.46s-.65,1.46-1.46,1.46Z"/><path class="cls-1" d="M76.93,1.75h-3.08c-.48,0-.88-.39-.88-.88S73.36,0,73.84,0h3.08C77.41,0,77.8.39,77.8.88s-.39.88-.88.88Z"/><path class="cls-1" d="M76.93,14.77h-3.08c-.48,0-.88-.39-.88-.88s.39-.88.88-.88h3.08c.48,0,.88.39.88.88s-.39.88-.88.88Z"/><path class="cls-1" d="M75.37,13.02h0c-.81,0-1.46-.66-1.46-1.46V3.21c.01-.81.67-1.46,1.47-1.46h0c.81,0,1.46.66,1.46,1.46v8.34c-.01.81-.67,1.46-1.47,1.46Z"/><path class="cls-1" d="M113.09,14.78c-4.07,0-7.39-3.31-7.39-7.39,0-.81.65-1.46,1.46-1.46s1.46.65,1.46,1.46c0,2.46,2,4.46,4.46,4.46.81,0,1.46.65,1.46,1.46s-.65,1.46-1.46,1.46Z"/><path class="cls-1" d="M107.17,8.85c-.81,0-1.46-.65-1.46-1.46C105.7,3.31,109.02,0,113.09,0,113.9,0,114.55.65,114.55,1.46s-.65,1.46-1.46,1.46c-2.46,0-4.46,2-4.46,4.46,0,.81-.65,1.46-1.46,1.46Z"/><path class="cls-1" d="M59.36,14.78c-.48,0-.88-.39-.88-.88V.88C58.48.39,58.87,0,59.36,0s.88.39.88.88v13.02c0,.48-.39.88-.88.88Z"/><path class="cls-1" d="M61.69,14.78c-.81,0-1.46-.65-1.46-1.46s.65-1.46,1.46-1.46c2.46,0,4.46-2,4.46-4.46,0-.81.65-1.46,1.46-1.46s1.46.65,1.46,1.46c0,4.07-3.31,7.39-7.39,7.39Z"/><path class="cls-1" d="M67.62,8.85c-.81,0-1.46-.65-1.46-1.46,0-2.46-2-4.46-4.46-4.46-.81,0-1.46-.65-1.46-1.46S60.89,0,61.69,0C65.77,0,69.08,3.31,69.08,7.39c0,.81-.65,1.46-1.46,1.46Z"/><path class="cls-1" d="M100.95,1.75h-3.16c-.48,0-.88-.39-.88-.88S97.3,0,97.79,0h3.16c.48,0,.88.39.88.88s-.39.88-.88.88Z"/><path class="cls-1" d="M100.95,14.78h-3.16c-.48,0-.88-.39-.88-.88s.39-.88.88-.88h3.16c.48,0,.88.39.88.88s-.39.88-.88.88Z"/><path class="cls-1" d="M95.52,14.78c-.81,0-1.46-.65-1.46-1.46V1.47c0-.81.65-1.46,1.46-1.46s1.46.65,1.46,1.46v11.85c0,.81-.65,1.46-1.46,1.46Z"/><path class="cls-1" d="M100.95,8.27h-3.08c-.48,0-.88-.39-.88-.88s.39-.88.88-.88h3.08c.48,0,.88.39.88.88s-.39.88-.88.88Z"/><path class="cls-1" d="M151.86,9.39c-.48,0-.88-.39-.88-.88s.39-.88.88-.88c1.62,0,2.94-1.32,2.94-2.94s-1.32-2.94-2.94-2.94h-.07c-.48,0-.88-.39-.88-.88S151.3,0,151.78,0h.07C154.45,0,156.55,2.11,156.55,4.7s-2.11,4.7-4.7,4.7Z"/><path class="cls-1" d="M155.68,14.78c-.28,0-.56-.14-.73-.39l-2.52-3.78c-.27-.4-.16-.95.24-1.22s.95-.16,1.22.24l2.52,3.78c.27.4.16.95-.24,1.22-.15.1-.32.15-.49.15Z"/><path class="cls-1" d="M149.52,14.78c-.81,0-1.46-.65-1.46-1.46V1.47c0-.81.65-1.46,1.46-1.46s1.46.65,1.46,1.46v11.85c0,.81-.65,1.46-1.46,1.46Z"/><path class="cls-1" d="M85.48,9.39c-.48,0-.88-.39-.88-.88s.39-.88.88-.88c1.62,0,2.94-1.32,2.94-2.94s-1.32-2.94-2.94-2.94h-.07c-.48,0-.88-.39-.88-.88S84.93,0,85.41,0h.07C88.07,0,90.18,2.11,90.18,4.7s-2.11,4.7-4.7,4.7Z"/><path class="cls-1" d="M89.3,14.78c-.28,0-.56-.14-.73-.39l-2.52-3.78c-.27-.4-.16-.95.24-1.22s.95-.16,1.22.24l2.52,3.78c.27.4.16.95-.24,1.22-.15.1-.32.15-.49.15Z"/><path class="cls-1" d="M83.15,14.78c-.81,0-1.46-.65-1.46-1.46V1.47c0-.81.65-1.46,1.46-1.46s1.46.65,1.46,1.46v11.85c0,.81-.65,1.46-1.46,1.46Z"/><path class="cls-1" d="M29.3,9.39c-.48,0-.88-.39-.88-.88s.39-.88.88-.88c1.62,0,2.94-1.32,2.94-2.94s-1.32-2.94-2.94-2.94h-.07c-.48,0-.88-.39-.88-.88S28.75,0,29.23,0h.07C31.89,0,34,2.11,34,4.7s-2.11,4.7-4.7,4.7Z"/><path class="cls-1" d="M33.12,14.78c-.28,0-.56-.14-.73-.39l-2.52-3.78c-.27-.4-.16-.95.24-1.22s.95-.16,1.22.24l2.52,3.78c.27.4.16.95-.24,1.22-.15.1-.32.15-.49.15Z"/><path class="cls-1" d="M26.97,14.78c-.81,0-1.46-.65-1.46-1.46V1.47C25.5.66,26.16,0,26.97,0s1.46.65,1.46,1.46v11.85c0,.81-.65,1.46-1.46,1.46Z"/></svg>