<?xml version="1.0" encoding="UTF-8"?><svg id="_レイヤー_1" xmlns="http://www.w3.org/2000/svg" viewBox="0 0 390 535.8"><defs><style>.cls-1{fill:#fff;}.cls-2{fill:red;}</style></defs><rect class="cls-2" width="390" height="535.8"/><path class="cls-1" d="M365.07,23.25h-44.25c-1.28,0-2.32,1.04-2.32,2.32s1.04,2.32,2.32,2.32h44.25c1.28,0,2.32-1.04,2.32-2.32s-1.04-2.32-2.32-2.32Z"/><path class="cls-1" d="M365.07,34.89h-44.25c-1.28,0-2.32,1.04-2.32,2.32s1.04,2.32,2.32,2.32h44.25c1.28,0,2.32-1.04,2.32-2.32s-1.04-2.32-2.32-2.32Z"/><path class="cls-1" d="M365.07,46.53h-44.25c-1.28,0-2.32,1.04-2.32,2.32s1.04,2.32,2.32,2.32h44.25c1.28,0,2.32-1.04,2.32-2.32s-1.04-2.32-2.32-2.32Z"/><path class="cls-1" d="M76.46,326.5c-10.77,0-19.53-8.76-19.53-19.53s8.76-19.53,19.53-19.53c2.14,0,3.87,1.73,3.87,3.87s-1.73,3.87-3.87,3.87c-6.51,0-11.8,5.29-11.8,11.8s5.29,11.8,11.8,11.8c2.14,0,3.87,1.73,3.87,3.87s-1.73,3.87-3.87,3.87Z"/><path class="cls-1" d="M76.46,326.5c-2.14,0-3.87-1.73-3.87-3.87s1.73-3.87,3.87-3.87c6.51,0,11.8-5.29,11.8-11.8s-5.29-11.8-11.8-11.8c-2.14,0-3.87-1.73-3.87-3.87s1.73-3.87,3.87-3.87c10.77,0,19.53,8.76,19.53,19.53s-8.76,19.53-19.53,19.53Z"/><path class="cls-1" d="M192.56,326.49c-.74,0-1.48-.21-2.14-.65-1.78-1.18-2.26-3.59-1.07-5.36l20.88-31.33c1.18-1.78,3.59-2.26,5.36-1.07,1.78,1.18,2.26,3.59,1.07,5.36l-20.88,31.33c-.75,1.12-1.97,1.72-3.22,1.72Z"/><path class="cls-1" d="M242.09,326.49c-1.25,0-2.48-.6-3.22-1.72l-20.88-31.33c-1.18-1.78-.7-4.18,1.07-5.36,1.78-1.18,4.18-.7,5.36,1.07l20.88,31.33c1.18,1.78.7,4.18-1.07,5.36-.66.44-1.4.65-2.14.65Z"/><path class="cls-1" d="M228.86,316.28h-23.07c-1.28,0-2.32-1.04-2.32-2.32s1.04-2.32,2.32-2.32h23.07c1.28,0,2.32,1.04,2.32,2.32s-1.04,2.32-2.32,2.32Z"/><path class="cls-1" d="M171.7,326.49c-1.28,0-2.32-1.04-2.32-2.32v-26.68c0-1.28,1.04-2.32,2.32-2.32s2.32,1.04,2.32,2.32v26.68c0,1.28-1.04,2.32-2.32,2.32Z"/><path class="cls-1" d="M180.33,295.17h-17.26c-2.14,0-3.87-1.73-3.87-3.87s1.73-3.87,3.87-3.87h17.26c2.14,0,3.87,1.73,3.87,3.87s-1.73,3.87-3.87,3.87Z"/><path class="cls-1" d="M299.2,326.49c-1.28,0-2.32-1.04-2.32-2.32v-26.68c0-1.28,1.04-2.32,2.32-2.32s2.32,1.04,2.32,2.32v26.68c0,1.28-1.04,2.32-2.32,2.32Z"/><path class="cls-1" d="M307.83,295.17h-17.26c-2.14,0-3.87-1.73-3.87-3.87s1.73-3.87,3.87-3.87h17.26c2.14,0,3.87,1.73,3.87,3.87s-1.73,3.87-3.87,3.87Z"/><path class="cls-1" d="M42.79,326.51c-10.77,0-19.54-8.77-19.54-19.54,0-2.14,1.73-3.87,3.87-3.87s3.87,1.73,3.87,3.87c0,6.51,5.3,11.81,11.81,11.81,2.14,0,3.87,1.73,3.87,3.87s-1.73,3.87-3.87,3.87Z"/><path class="cls-1" d="M27.12,310.84c-2.14,0-3.87-1.73-3.87-3.87,0-10.77,8.77-19.54,19.54-19.54,2.14,0,3.87,1.73,3.87,3.87s-1.73,3.87-3.87,3.87c-6.51,0-11.81,5.3-11.81,11.81,0,2.14-1.73,3.87-3.87,3.87Z"/><path class="cls-1" d="M272.71,326.51c-10.77,0-19.54-8.77-19.54-19.54,0-2.14,1.73-3.87,3.87-3.87s3.87,1.73,3.87,3.87c0,6.51,5.3,11.81,11.81,11.81,2.14,0,3.87,1.73,3.87,3.87s-1.73,3.87-3.87,3.87Z"/><path class="cls-1" d="M257.04,310.84c-2.14,0-3.87-1.73-3.87-3.87,0-10.77,8.77-19.54,19.54-19.54,2.14,0,3.87,1.73,3.87,3.87s-1.73,3.87-3.87,3.87c-6.51,0-11.81,5.3-11.81,11.81,0,2.14-1.73,3.87-3.87,3.87Z"/><path class="cls-1" d="M139.08,326.51c-.75,0-1.49-.36-1.93-1.03l-22.96-34.44c-.71-1.07-.42-2.51.64-3.22,1.07-.71,2.51-.42,3.22.64l22.96,34.44c.71,1.07.42,2.51-.64,3.22-.4.26-.84.39-1.28.39Z"/><path class="cls-1" d="M110.13,326.51c-2.14,0-3.87-1.73-3.87-3.87v-31.33c0-2.14,1.73-3.87,3.87-3.87s3.87,1.73,3.87,3.87v31.33c0,2.14-1.73,3.87-3.87,3.87Z"/><path class="cls-1" d="M145.07,326.51c-2.14,0-3.87-1.73-3.87-3.87v-31.33c0-2.14,1.73-3.87,3.87-3.87s3.87,1.73,3.87,3.87v31.33c0,2.14-1.73,3.87-3.87,3.87Z"/><path class="cls-1" d="M216.63,170.29c-1.28,0-2.32-1.04-2.32-2.32v-26.68c0-1.28,1.04-2.32,2.32-2.32s2.32,1.04,2.32,2.32v26.68c0,1.28-1.04,2.32-2.32,2.32Z"/><path class="cls-1" d="M225.26,138.97h-17.26c-2.14,0-3.87-1.73-3.87-3.87s1.73-3.87,3.87-3.87h17.26c2.14,0,3.87,1.73,3.87,3.87s-1.73,3.87-3.87,3.87Z"/><path class="cls-1" d="M79.38,170.3c-.75,0-1.49-.36-1.93-1.03l-22.94-34.42c-.71-1.07-.42-2.51.64-3.22,1.07-.71,2.51-.42,3.22.64l22.94,34.42c.71,1.07.42,2.51-.64,3.22-.4.26-.84.39-1.28.39Z"/><path class="cls-1" d="M85.37,170.31c-.74,0-1.48-.21-2.14-.65-1.78-1.18-2.26-3.59-1.07-5.36l20.89-31.33c1.18-1.78,3.59-2.26,5.36-1.07,1.78,1.18,2.26,3.59,1.07,5.36l-20.89,31.33c-.75,1.12-1.97,1.72-3.22,1.72Z"/><path class="cls-1" d="M41.46,135.88h-8.35c-1.28,0-2.32-1.04-2.32-2.32s1.04-2.32,2.32-2.32h8.35c1.28,0,2.32,1.04,2.32,2.32s-1.04,2.32-2.32,2.32Z"/><path class="cls-1" d="M41.46,170.31h-8.35c-1.28,0-2.32-1.04-2.32-2.32s1.04-2.32,2.32-2.32h8.35c1.28,0,2.32,1.04,2.32,2.32s-1.04,2.32-2.32,2.32Z"/><path class="cls-1" d="M27.12,170.31c-2.14,0-3.87-1.73-3.87-3.87v-31.33c0-2.14,1.73-3.87,3.87-3.87s3.87,1.73,3.87,3.87v31.33c0,2.14-1.73,3.87-3.87,3.87Z"/><path class="cls-1" d="M41.46,153.1h-8.16c-1.28,0-2.32-1.04-2.32-2.32s1.04-2.32,2.32-2.32h8.16c1.28,0,2.32,1.04,2.32,2.32s-1.04,2.32-2.32,2.32Z"/><path class="cls-1" d="M138.6,135.88h-8.35c-1.28,0-2.32-1.04-2.32-2.32s1.04-2.32,2.32-2.32h8.35c1.28,0,2.32,1.04,2.32,2.32s-1.04,2.32-2.32,2.32Z"/><path class="cls-1" d="M138.6,170.31h-8.35c-1.28,0-2.32-1.04-2.32-2.32s1.04-2.32,2.32-2.32h8.35c1.28,0,2.32,1.04,2.32,2.32s-1.04,2.32-2.32,2.32Z"/><path class="cls-1" d="M124.26,170.31c-2.14,0-3.87-1.73-3.87-3.87v-31.33c0-2.14,1.73-3.87,3.87-3.87s3.87,1.73,3.87,3.87v31.33c0,2.14-1.73,3.87-3.87,3.87Z"/><path class="cls-1" d="M138.6,153.1h-8.16c-1.28,0-2.32-1.04-2.32-2.32s1.04-2.32,2.32-2.32h8.16c1.28,0,2.32,1.04,2.32,2.32s-1.04,2.32-2.32,2.32Z"/><path class="cls-1" d="M184.01,170.32c-.75,0-1.49-.36-1.93-1.03l-22.96-34.44c-.71-1.07-.42-2.51.64-3.22,1.07-.71,2.51-.42,3.22.64l22.96,34.44c.71,1.07.42,2.51-.64,3.22-.4.26-.84.39-1.28.39Z"/><path class="cls-1" d="M155.06,170.31c-2.14,0-3.87-1.73-3.87-3.87v-31.33c0-2.14,1.73-3.87,3.87-3.87s3.87,1.73,3.87,3.87v31.33c0,2.14-1.73,3.87-3.87,3.87Z"/><path class="cls-1" d="M190,170.31c-2.14,0-3.87-1.73-3.87-3.87v-31.33c0-2.14,1.73-3.87,3.87-3.87s3.87,1.73,3.87,3.87v31.33c0,2.14-1.73,3.87-3.87,3.87Z"/><path class="cls-1" d="M141.49,248.39c-10.76,0-19.52-8.76-19.52-19.52s8.76-19.52,19.52-19.52c2.13,0,3.86,1.73,3.86,3.86s-1.73,3.86-3.86,3.86c-6.5,0-11.79,5.29-11.79,11.79s5.29,11.79,11.79,11.79c2.13,0,3.86,1.73,3.86,3.86s-1.73,3.86-3.86,3.86Z"/><path class="cls-1" d="M141.49,248.39c-2.13,0-3.86-1.73-3.86-3.86s1.73-3.86,3.86-3.86c6.5,0,11.79-5.29,11.79-11.79s-5.29-11.79-11.79-11.79c-2.13,0-3.86-1.73-3.86-3.86s1.73-3.86,3.86-3.86c10.76,0,19.52,8.76,19.52,19.52s-8.76,19.52-19.52,19.52Z"/><path class="cls-1" d="M27.11,248.39c-.74,0-1.48-.21-2.14-.65-1.78-1.18-2.26-3.58-1.07-5.36l20.87-31.31c1.18-1.78,3.58-2.26,5.36-1.07,1.78,1.18,2.26,3.58,1.07,5.36l-20.87,31.31c-.74,1.12-1.97,1.72-3.22,1.72Z"/><path class="cls-1" d="M76.61,248.39c-1.25,0-2.47-.6-3.22-1.72l-20.87-31.31c-1.18-1.78-.7-4.18,1.07-5.36,1.78-1.18,4.17-.7,5.36,1.07l20.87,31.31c1.18,1.78.7,4.18-1.07,5.36-.66.44-1.4.65-2.14.65Z"/><path class="cls-1" d="M63.39,238.18h-23.06c-1.28,0-2.32-1.04-2.32-2.32s1.04-2.32,2.32-2.32h23.06c1.28,0,2.32,1.04,2.32,2.32s-1.04,2.32-2.32,2.32Z"/><path class="cls-1" d="M206.45,225.01c-1.28,0-2.32-1.04-2.32-2.32v-11.02c0-1.28,1.04-2.32,2.32-2.32s2.32,1.04,2.32,2.32v11.02c0,1.28-1.04,2.32-2.32,2.32Z"/><path class="cls-1" d="M175.14,225.01c-1.28,0-2.32-1.04-2.32-2.32v-11.02c0-1.28,1.04-2.32,2.32-2.32s2.32,1.04,2.32,2.32v11.02c0,1.28-1.04,2.32-2.32,2.32Z"/><path class="cls-1" d="M190.79,248.4c-10.76,0-19.52-8.76-19.52-19.52,0-2.13,1.73-3.86,3.86-3.86s3.86,1.73,3.86,3.86c0,6.5,5.29,11.79,11.79,11.79s11.79-5.29,11.79-11.79c0-2.13,1.73-3.86,3.86-3.86s3.86,1.73,3.86,3.86c0,10.76-8.76,19.52-19.52,19.52Z"/><path class="cls-1" d="M109.39,222.59c-1.28,0-2.32-1.04-2.32-2.32,0-3.47-2.82-6.29-6.29-6.29h-.2c-1.28,0-2.32-1.04-2.32-2.32s1.04-2.32,2.32-2.32h.2c6.02,0,10.92,4.9,10.92,10.92,0,1.28-1.04,2.32-2.32,2.32Z"/><path class="cls-1" d="M100.78,231.19c-1.28,0-2.32-1.04-2.32-2.32s1.04-2.32,2.32-2.32c3.47,0,6.29-2.82,6.29-6.29,0-1.28,1.04-2.32,2.32-2.32s2.32,1.04,2.32,2.32c0,6.02-4.9,10.92-10.92,10.92Z"/><path class="cls-1" d="M100.78,248.4h-.2c-1.28,0-2.32-1.04-2.32-2.32s1.04-2.32,2.32-2.32h.2c3.47,0,6.29-2.82,6.29-6.29,0-1.28,1.04-2.32,2.32-2.32s2.32,1.04,2.32,2.32c0,6.02-4.9,10.92-10.92,10.92Z"/><path class="cls-1" d="M109.39,239.8c-1.28,0-2.32-1.04-2.32-2.32,0-3.47-2.82-6.29-6.29-6.29-1.28,0-2.32-1.04-2.32-2.32s1.04-2.32,2.32-2.32c6.02,0,10.92,4.9,10.92,10.92,0,1.28-1.04,2.32-2.32,2.32Z"/><path class="cls-1" d="M94.6,248.4c-2.13,0-3.86-1.73-3.86-3.86v-31.31c0-2.13,1.73-3.86,3.86-3.86s3.86,1.73,3.86,3.86v31.31c0,2.13-1.73,3.86-3.86,3.86Z"/><path class="cls-1" d="M233.06,248.38c-1.28,0-2.32-1.04-2.32-2.32v-26.67c0-1.28,1.04-2.32,2.32-2.32s2.32,1.04,2.32,2.32v26.67c0,1.28-1.04,2.32-2.32,2.32Z"/><path class="cls-1" d="M241.69,217.08h-17.25c-2.13,0-3.86-1.73-3.86-3.86s1.73-3.86,3.86-3.86h17.25c2.13,0,3.86,1.73,3.86,3.86s-1.73,3.86-3.86,3.86Z"/><path class="cls-1" d="M332.4,232.73c-6.45,0-11.69-5.25-11.69-11.69s5.25-11.69,11.69-11.69c2.13,0,3.86,1.73,3.86,3.86s-1.73,3.86-3.86,3.86-3.96,1.78-3.96,3.96,1.78,3.96,3.96,3.96,3.86,1.73,3.86,3.86-1.73,3.86-3.86,3.86Z"/><path class="cls-1" d="M338.38,248.38c-1.28,0-2.32-1.04-2.32-2.32s1.04-2.32,2.32-2.32c3.04,0,5.51-2.47,5.51-5.51s-2.47-5.51-5.51-5.51c-1.28,0-2.32-1.04-2.32-2.32s1.04-2.32,2.32-2.32c5.6,0,10.15,4.55,10.15,10.15s-4.55,10.15-10.15,10.15Z"/><path class="cls-1" d="M309.91,225.01c-1.28,0-2.32-1.04-2.32-2.32v-11.02c0-1.28,1.04-2.32,2.32-2.32s2.32,1.04,2.32,2.32v11.02c0,1.28-1.04,2.32-2.32,2.32Z"/><path class="cls-1" d="M278.6,225.01c-1.28,0-2.32-1.04-2.32-2.32v-11.02c0-1.28,1.04-2.32,2.32-2.32s2.32,1.04,2.32,2.32v11.02c0,1.28-1.04,2.32-2.32,2.32Z"/><path class="cls-1" d="M294.25,248.4c-10.76,0-19.52-8.76-19.52-19.52,0-2.13,1.73-3.86,3.86-3.86s3.86,1.73,3.86,3.86c0,6.5,5.29,11.79,11.79,11.79s11.79-5.29,11.79-11.79c0-2.13,1.73-3.86,3.86-3.86s3.86,1.73,3.86,3.86c0,10.76-8.76,19.52-19.52,19.52Z"/><path class="cls-1" d="M34.7,365.62c-2.08.1-3.5.43-4.74.92-1.28.5-2.37,1.17-3.46,2.26-1.08,1.09-1.75,2.18-2.25,3.46-.48,1.24-.81,2.66-.9,4.74-.09,2.08-.11,2.75-.1,8.05.01,5.31.03,5.97.13,8.06.1,2.08.43,3.5.92,4.74.5,1.28,1.17,2.37,2.26,3.46,1.09,1.08,2.18,1.75,3.47,2.25,1.24.48,2.66.81,4.74.9,2.08.09,2.75.11,8.05.1,5.31-.01,5.97-.03,8.06-.13,2.08-.1,3.5-.43,4.74-.92,1.28-.5,2.37-1.17,3.46-2.26,1.08-1.09,1.75-2.18,2.25-3.47.48-1.24.81-2.66.9-4.74.09-2.09.11-2.75.1-8.06-.01-5.31-.03-5.97-.13-8.05-.1-2.08-.43-3.5-.92-4.74-.5-1.28-1.17-2.37-2.26-3.46-1.09-1.08-2.18-1.75-3.47-2.25-1.24-.48-2.66-.81-4.74-.9-2.08-.09-2.75-.11-8.06-.1-5.31.01-5.97.03-8.05.13M34.92,400.94c-1.9-.08-2.94-.4-3.63-.66-.91-.35-1.56-.78-2.25-1.46-.68-.68-1.11-1.33-1.47-2.24-.27-.69-.59-1.72-.68-3.63-.1-2.06-.12-2.68-.13-7.89-.01-5.22,0-5.83.1-7.9.08-1.9.4-2.94.66-3.63.35-.91.78-1.56,1.46-2.25.68-.69,1.33-1.11,2.24-1.47.69-.27,1.72-.59,3.63-.68,2.06-.1,2.68-.12,7.89-.13,5.22-.01,5.84,0,7.9.1,1.9.08,2.94.4,3.63.66.91.35,1.56.77,2.25,1.46.68.68,1.11,1.33,1.47,2.24.27.69.59,1.72.68,3.63.1,2.06.12,2.68.13,7.89.01,5.22,0,5.84-.1,7.9-.08,1.9-.4,2.94-.66,3.63-.35.91-.78,1.56-1.46,2.25-.68.68-1.33,1.11-2.24,1.47-.69.27-1.72.59-3.63.68-2.06.1-2.68.12-7.9.13-5.22.01-5.83,0-7.89-.1M50.85,374.58c0,1.29,1.05,2.34,2.35,2.34,1.29,0,2.34-1.05,2.34-2.35,0-1.29-1.05-2.34-2.35-2.34-1.29,0-2.34,1.05-2.34,2.35M32.76,385.04c.01,5.54,4.51,10.02,10.05,10.01,5.54-.01,10.03-4.51,10.01-10.05-.01-5.54-4.51-10.02-10.05-10.01-5.54.01-10.02,4.51-10.01,10.05M36.28,385.04c0-3.6,2.9-6.52,6.5-6.52,3.6,0,6.52,2.9,6.53,6.5,0,3.6-2.9,6.52-6.5,6.53-3.6,0-6.52-2.9-6.53-6.5"/></svg>