<?xml version="1.0" encoding="UTF-8"?><svg id="_レイヤー_1" xmlns="http://www.w3.org/2000/svg" viewBox="0 0 222.1 58.64"><defs><style>.cls-1{fill:red;}</style></defs><path class="cls-1" d="M207.59,29.55c-8,0-14.52,6.51-14.52,14.52s6.51,14.52,14.52,14.52,14.52-6.51,14.52-14.52-6.51-14.52-14.52-14.52ZM207.59,52.84c-4.84,0-8.77-3.93-8.77-8.77s3.93-8.77,8.77-8.77,8.77,3.93,8.77,8.77-3.93,8.77-8.77,8.77Z"/><path class="cls-1" d="M144.85,29.62c-1.59,0-2.87,1.29-2.87,2.87v11.91c-.02-.94-.78-1.7-1.72-1.7h-21.27c-.94,0-1.7.75-1.72,1.69v-11.9c0-1.59-1.29-2.87-2.87-2.87s-2.87,1.29-2.87,2.87v23.27c0,1.59,1.29,2.87,2.87,2.87s2.87-1.29,2.87-2.87v-11.29c.02.93.78,1.69,1.72,1.69h21.27c.94,0,1.71-.76,1.72-1.7v11.3c0,1.59,1.29,2.87,2.87,2.87s2.87-1.29,2.87-2.87v-23.27c0-1.59-1.29-2.87-2.87-2.87Z"/><path class="cls-1" d="M78.93,29.61h-6.06c-.95,0-1.72.77-1.72,1.72s.77,1.72,1.72,1.72h6.06c.95,0,1.72-.77,1.72-1.72s-.77-1.72-1.72-1.72Z"/><path class="cls-1" d="M78.93,55.14h-2.88c1.52-.08,2.73-1.33,2.73-2.87v-16.33c0-1.59-1.29-2.87-2.87-2.87s-2.87,1.29-2.87,2.87v16.33c0,1.54,1.21,2.79,2.73,2.87h-2.88c-.95,0-1.72.77-1.72,1.72s.77,1.72,1.72,1.72h6.06c.95,0,1.72-.77,1.72-1.72s-.77-1.72-1.72-1.72Z"/><path class="cls-1" d="M162.82,29.62h-6.06c-.95,0-1.72.77-1.72,1.72s.77,1.72,1.72,1.72h6.06c.95,0,1.72-.77,1.72-1.72s-.77-1.72-1.72-1.72Z"/><path class="cls-1" d="M162.82,55.14h-2.89c1.52-.08,2.73-1.33,2.73-2.87v-16.33c0-1.59-1.29-2.87-2.87-2.87s-2.87,1.29-2.87,2.87v16.33c0,1.54,1.21,2.79,2.73,2.87h-2.89c-.95,0-1.72.77-1.72,1.72s.77,1.72,1.72,1.72h6.06c.95,0,1.72-.77,1.72-1.72s-.77-1.72-1.72-1.72Z"/><path class="cls-1" d="M101.38,35.37c1.59,0,2.87-1.29,2.87-2.87s-1.29-2.87-2.87-2.87c-8,0-14.51,6.51-14.51,14.51s6.51,14.51,14.51,14.51c1.59,0,2.87-1.29,2.87-2.87s-1.29-2.87-2.87-2.87c-4.83,0-8.76-3.93-8.76-8.76s3.93-8.76,8.76-8.76Z"/><path class="cls-1" d="M179.34,29.63h-.14c-.95,0-1.72.77-1.72,1.72s.77,1.72,1.72,1.72h.14c3.19,0,5.78,2.59,5.78,5.78s-2.59,5.78-5.78,5.78c-.94,0-1.7.75-1.72,1.67v-13.82c0-1.59-1.29-2.87-2.87-2.87s-2.87,1.29-2.87,2.87v23.31c0,1.59,1.29,2.87,2.87,2.87s2.87-1.29,2.87-2.87v-9.4c.03.93.79,1.67,1.72,1.67,5.09,0,9.23-4.14,9.23-9.23s-4.14-9.23-9.23-9.23Z"/><path class="cls-1" d="M183.24,48.58c-.53-.79-1.6-1.01-2.39-.48s-1.01,1.6-.48,2.39l4.94,7.42c.33.5.88.77,1.44.77.33,0,.66-.09.95-.29.79-.53,1.01-1.6.48-2.39l-4.94-7.42Z"/><path class="cls-1" d="M26.16,29.62c-1.59,0-2.87,1.29-2.87,2.87,0,4.84-3.93,8.77-8.77,8.77s-8.77-3.93-8.77-8.77c0-1.59-1.29-2.87-2.87-2.87s-2.87,1.29-2.87,2.87c0,7.99,6.49,14.5,14.48,14.52-.94.02-1.69.78-1.69,1.72v8.18c0,.95.77,1.72,1.72,1.72s1.72-.77,1.72-1.72v-8.18c0-.94-.75-1.7-1.69-1.72,7.99-.02,14.48-6.52,14.48-14.52,0-1.59-1.29-2.87-2.87-2.87Z"/><path class="cls-1" d="M61.05,35.39c.93-.03,1.67-.79,1.67-1.72v-2.33c0-.95-.77-1.72-1.72-1.72s-1.72.77-1.72,1.72v2.33c0,.93.74,1.69,1.67,1.72-1.56.03-2.82,1.3-2.82,2.87v5.89c0,4.84-3.93,8.77-8.77,8.77s-8.77-3.93-8.77-8.77v-5.89c0-1.57-1.26-2.84-2.82-2.87.93-.03,1.67-.79,1.67-1.72v-2.33c0-.95-.77-1.72-1.72-1.72s-1.72.77-1.72,1.72v2.33c0,.93.74,1.69,1.67,1.72-1.56.03-2.82,1.3-2.82,2.87v5.89c0,8,6.51,14.52,14.52,14.52s14.52-6.51,14.52-14.52v-5.89c0-1.57-1.26-2.84-2.82-2.87Z"/><path class="cls-1" d="M131.88,14.78c-.28,0-.56-.08-.81-.25-.67-.45-.85-1.36-.41-2.03l7.9-11.85c.45-.67,1.36-.85,2.03-.41.67.45.85,1.36.41,2.03l-7.9,11.85c-.28.42-.75.65-1.22.65Z"/><path class="cls-1" d="M150.63,14.78c-.47,0-.94-.23-1.22-.65l-7.9-11.85c-.45-.67-.27-1.58.41-2.03.67-.45,1.58-.27,2.03.41l7.9,11.85c.45.67.27,1.58-.41,2.03-.25.17-.53.25-.81.25Z"/><path class="cls-1" d="M145.62,10.92h-8.73c-.48,0-.88-.39-.88-.88s.39-.88.88-.88h8.73c.48,0,.88.39.88.88s-.39.88-.88.88Z"/><path class="cls-1" d="M124.9,14.78c-.48,0-.88-.39-.88-.88V3.8c0-.48.39-.88.88-.88s.88.39.88.88v10.1c0,.48-.39.88-.88.88Z"/><path class="cls-1" d="M128.16,2.93h-6.53c-.81,0-1.46-.66-1.46-1.46S120.82,0,121.63,0h6.53C128.97,0,129.63.66,129.63,1.46s-.66,1.46-1.46,1.46Z"/><path class="cls-1" d="M157.61,14.78c-.48,0-.88-.39-.88-.88V3.8c0-.48.39-.88.88-.88s.88.39.88.88v10.1c0,.48-.39.88-.88.88Z"/><path class="cls-1" d="M160.88,2.93h-6.53c-.81,0-1.46-.66-1.46-1.46S153.54,0,154.35,0h6.53C161.69,0,162.34.66,162.34,1.46s-.66,1.46-1.46,1.46Z"/><path class="cls-1" d="M170.19,1.76h-3.09c-.48,0-.88-.39-.88-.88S166.62,0,167.1,0h3.09C170.68,0,171.07.39,171.07.88s-.39.88-.88.88Z"/><path class="cls-1" d="M170.19,14.78h-3.09c-.48,0-.88-.39-.88-.88s.39-.88.88-.88h3.09c.48,0,.88.39.88.88s-.39.88-.88.88Z"/><path class="cls-1" d="M168.63,13.03h0c-.81,0-1.46-.66-1.46-1.47V3.22c.01-.81.67-1.46,1.48-1.46h0c.81,0,1.46.66,1.46,1.47v8.35c-.01.81-.67,1.46-1.48,1.46Z"/><path class="cls-1" d="M78.62,8.86c-2.44,0-4.43-1.99-4.43-4.43S76.18,0,78.62,0C79.43,0,80.08.66,80.08,1.46s-.66,1.46-1.46,1.46-1.5.67-1.5,1.5.67,1.5,1.5,1.5,1.46.66,1.46,1.46-.66,1.46-1.46,1.46Z"/><path class="cls-1" d="M80.88,14.78c-.48,0-.88-.39-.88-.88s.39-.88.88-.88c1.15,0,2.09-.94,2.09-2.09s-.94-2.09-2.09-2.09c-.48,0-.88-.39-.88-.88s.39-.88.88-.88c2.12,0,3.84,1.72,3.84,3.84s-1.72,3.84-3.84,3.84Z"/><path class="cls-1" d="M39.21,14.78c-.48,0-.88-.39-.88-.88V.88C38.34.39,38.73,0,39.21,0s.88.39.88.88v13.03c0,.48-.39.88-.88.88Z"/><path class="cls-1" d="M41.55,9.45c-.81,0-1.46-.66-1.46-1.46s.66-1.46,1.46-1.46c.99,0,1.79-.8,1.79-1.79s-.8-1.79-1.79-1.79c-.81,0-1.46-.66-1.46-1.46S40.75,0,41.55,0c2.6,0,4.72,2.12,4.72,4.72s-2.12,4.72-4.72,4.72Z"/><path class="cls-1" d="M184.51,14.78c-.28,0-.56-.14-.73-.39l-8.68-13.02c-.27-.4-.16-.95.24-1.22.4-.27.95-.16,1.22.24l8.68,13.02c.27.4.16.95-.24,1.22-.15.1-.32.15-.49.15Z"/><path class="cls-1" d="M186.78,14.79c-.28,0-.56-.08-.81-.25-.67-.45-.85-1.36-.41-2.03l7.9-11.86c.45-.67,1.36-.85,2.03-.41.67.45.85,1.36.41,2.03l-7.9,11.86c-.28.42-.75.65-1.22.65Z"/><path class="cls-1" d="M206.92,1.76h-3.16c-.48,0-.88-.39-.88-.88S203.28,0,203.76,0h3.16c.48,0,.88.39.88.88s-.39.88-.88.88Z"/><path class="cls-1" d="M206.92,14.79h-3.16c-.48,0-.88-.39-.88-.88s.39-.88.88-.88h3.16c.48,0,.88.39.88.88s-.39.88-.88.88Z"/><path class="cls-1" d="M201.49,14.79c-.81,0-1.46-.66-1.46-1.46V1.47c0-.81.66-1.46,1.46-1.46s1.46.66,1.46,1.46v11.85c0,.81-.66,1.46-1.46,1.46Z"/><path class="cls-1" d="M206.92,8.27h-3.09c-.48,0-.88-.39-.88-.88s.39-.88.88-.88h3.09c.48,0,.88.39.88.88s-.39.88-.88.88Z"/><path class="cls-1" d="M95.5,1.76h-3.16c-.48,0-.88-.39-.88-.88S91.85,0,92.34,0h3.16c.48,0,.88.39.88.88s-.39.88-.88.88Z"/><path class="cls-1" d="M95.5,14.79h-3.16c-.48,0-.88-.39-.88-.88s.39-.88.88-.88h3.16c.48,0,.88.39.88.88s-.39.88-.88.88Z"/><path class="cls-1" d="M90.07,14.79c-.81,0-1.46-.66-1.46-1.46V1.47c0-.81.66-1.46,1.46-1.46s1.46.66,1.46,1.46v11.85c0,.81-.66,1.46-1.46,1.46Z"/><path class="cls-1" d="M95.5,8.27h-3.09c-.48,0-.88-.39-.88-.88s.39-.88.88-.88h3.09c.48,0,.88.39.88.88s-.39.88-.88.88Z"/><path class="cls-1" d="M69.43,1.76h-3.16c-.48,0-.88-.39-.88-.88S65.78,0,66.27,0h3.16c.48,0,.88.39.88.88s-.39.88-.88.88Z"/><path class="cls-1" d="M69.43,14.79h-3.16c-.48,0-.88-.39-.88-.88s.39-.88.88-.88h3.16c.48,0,.88.39.88.88s-.39.88-.88.88Z"/><path class="cls-1" d="M64,14.79c-.81,0-1.46-.66-1.46-1.46V1.47c0-.81.66-1.46,1.46-1.46s1.46.66,1.46,1.46v11.85c0,.81-.66,1.46-1.46,1.46Z"/><path class="cls-1" d="M69.43,8.27h-3.09c-.48,0-.88-.39-.88-.88s.39-.88.88-.88h3.09c.48,0,.88.39.88.88s-.39.88-.88.88Z"/><path class="cls-1" d="M33.58,1.76h-3.16c-.48,0-.88-.39-.88-.88S29.93,0,30.42,0h3.16c.48,0,.88.39.88.88s-.39.88-.88.88Z"/><path class="cls-1" d="M33.58,14.79h-3.16c-.48,0-.88-.39-.88-.88s.39-.88.88-.88h3.16c.48,0,.88.39.88.88s-.39.88-.88.88Z"/><path class="cls-1" d="M28.15,14.79c-.81,0-1.46-.66-1.46-1.46V1.47C26.69.66,27.34,0,28.15,0s1.46.66,1.46,1.46v11.85c0,.81-.66,1.46-1.46,1.46Z"/><path class="cls-1" d="M33.58,8.27h-3.09c-.48,0-.88-.39-.88-.88s.39-.88.88-.88h3.09c.48,0,.88.39.88.88s-.39.88-.88.88Z"/><path class="cls-1" d="M112.56,14.79c-.28,0-.56-.14-.73-.39l-8.69-13.03c-.27-.4-.16-.95.24-1.22.4-.27.95-.16,1.22.24l8.69,13.03c.27.4.16.95-.24,1.22-.15.1-.32.15-.49.15Z"/><path class="cls-1" d="M101.6,14.79c-.81,0-1.46-.66-1.46-1.46V1.47c0-.81.66-1.46,1.46-1.46s1.46.66,1.46,1.46v11.85c0,.81-.66,1.46-1.46,1.46Z"/><path class="cls-1" d="M114.82,14.79c-.81,0-1.46-.66-1.46-1.46V1.47c0-.81.66-1.46,1.46-1.46s1.46.66,1.46,1.46v11.85c0,.81-.66,1.46-1.46,1.46Z"/><path class="cls-1" d="M53.96,9.4c-.48,0-.88-.39-.88-.88s.39-.88.88-.88c1.62,0,2.94-1.32,2.94-2.94s-1.32-2.94-2.94-2.94h-.07c-.48,0-.88-.39-.88-.88S53.4,0,53.89,0h.07C56.55,0,58.66,2.11,58.66,4.7s-2.11,4.7-4.7,4.7Z"/><path class="cls-1" d="M57.78,14.78c-.28,0-.56-.14-.73-.39l-2.52-3.78c-.27-.4-.16-.95.24-1.22s.95-.16,1.22.24l2.52,3.78c.27.4.16.95-.24,1.22-.15.1-.32.15-.49.15Z"/><path class="cls-1" d="M51.62,14.79c-.81,0-1.46-.66-1.46-1.46V1.47c0-.81.66-1.46,1.46-1.46s1.46.66,1.46,1.46v11.85c0,.81-.66,1.46-1.46,1.46Z"/><path class="cls-1" d="M18.1,9.4c-.48,0-.88-.39-.88-.88s.39-.88.88-.88c1.62,0,2.94-1.32,2.94-2.94s-1.32-2.94-2.94-2.94h-.07c-.48,0-.88-.39-.88-.88S17.55,0,18.03,0h.07C20.7,0,22.8,2.11,22.8,4.7s-2.11,4.7-4.7,4.7Z"/><path class="cls-1" d="M21.93,14.78c-.28,0-.56-.14-.73-.39l-2.52-3.78c-.27-.4-.16-.95.24-1.22s.95-.16,1.22.24l2.52,3.78c.27.4.16.95-.24,1.22-.15.1-.32.15-.49.15Z"/><path class="cls-1" d="M15.77,14.79c-.81,0-1.46-.66-1.46-1.46V1.47C14.3.66,14.96,0,15.77,0s1.46.66,1.46,1.46v11.85c0,.81-.66,1.46-1.46,1.46Z"/></svg>