<?xml version="1.0" encoding="UTF-8"?><svg id="_レイヤー_1" xmlns="http://www.w3.org/2000/svg" viewBox="0 0 48.89 27.92"><defs><style>.cls-1{fill:red;}</style></defs><path class="cls-1" d="M46.57,0H2.32C1.04,0,0,1.04,0,2.32s1.04,2.32,2.32,2.32h44.25c1.28,0,2.32-1.04,2.32-2.32s-1.04-2.32-2.32-2.32Z"/><path class="cls-1" d="M46.57,11.64H2.32c-1.28,0-2.32,1.04-2.32,2.32s1.04,2.32,2.32,2.32h44.25c1.28,0,2.32-1.04,2.32-2.32s-1.04-2.32-2.32-2.32Z"/><path class="cls-1" d="M46.57,23.28H2.32c-1.28,0-2.32,1.04-2.32,2.32s1.04,2.32,2.32,2.32h44.25c1.28,0,2.32-1.04,2.32-2.32s-1.04-2.32-2.32-2.32Z"/></svg>