<?xml version="1.0" encoding="UTF-8"?><svg id="_レイヤー_1" xmlns="http://www.w3.org/2000/svg" viewBox="0 0 343.5 245.85"><defs><style>.cls-1{fill:red;}</style></defs><path class="cls-1" d="M153.41,71.58h-9.99c-1.57,0-2.84-1.27-2.84-2.84s1.27-2.84,2.84-2.84h9.99c1.57,0,2.84,1.27,2.84,2.84s-1.27,2.84-2.84,2.84Z"/><path class="cls-1" d="M153.41,113.75h-9.99c-1.57,0-2.84-1.27-2.84-2.84s1.27-2.84,2.84-2.84h9.99c1.57,0,2.84,1.27,2.84,2.84s-1.27,2.84-2.84,2.84Z"/><path class="cls-1" d="M148.38,108.07h0c-2.62,0-4.73-2.13-4.73-4.74l.04-27.02c0-2.61,2.12-4.73,4.74-4.73h0c2.62,0,4.73,2.13,4.73,4.74l-.04,27.02c0,2.61-2.12,4.73-4.74,4.73Z"/><path class="cls-1" d="M183.15,94.56c-7.9,0-14.33-6.43-14.33-14.33s6.43-14.33,14.33-14.33c2.62,0,4.74,2.12,4.74,4.74s-2.12,4.74-4.74,4.74-4.86,2.18-4.86,4.86,2.18,4.86,4.86,4.86,4.74,2.12,4.74,4.74-2.12,4.74-4.74,4.74Z"/><path class="cls-1" d="M190.49,113.73c-1.57,0-2.84-1.27-2.84-2.84s1.27-2.84,2.84-2.84c3.72,0,6.75-3.03,6.75-6.75s-3.03-6.75-6.75-6.75c-1.57,0-2.84-1.27-2.84-2.84s1.27-2.84,2.84-2.84c6.86,0,12.44,5.58,12.44,12.44s-5.58,12.44-12.44,12.44Z"/><path class="cls-1" d="M208.93,47.84c-.9,0-1.82-.26-2.62-.8-2.18-1.45-2.76-4.39-1.31-6.57L230.58,2.11c1.45-2.18,4.39-2.76,6.57-1.31,2.18,1.45,2.76,4.39,1.31,6.57l-25.58,38.37c-.91,1.37-2.41,2.11-3.94,2.11Z"/><path class="cls-1" d="M269.6,47.84c-1.53,0-3.03-.74-3.94-2.11l-25.58-38.37c-1.45-2.18-.86-5.12,1.31-6.57,2.18-1.45,5.12-.86,6.57,1.31l25.58,38.37c1.45,2.18.86,5.12-1.31,6.57-.81.54-1.72.8-2.62.8Z"/><path class="cls-1" d="M253.4,35.33h-28.26c-1.57,0-2.84-1.27-2.84-2.84s1.27-2.84,2.84-2.84h28.26c1.57,0,2.84,1.27,2.84,2.84s-1.27,2.84-2.84,2.84Z"/><path class="cls-1" d="M295.03,47.83c-1.57,0-2.84-1.27-2.84-2.84V12.31c0-1.57,1.27-2.84,2.84-2.84s2.84,1.27,2.84,2.84v32.68c0,1.57-1.27,2.84-2.84,2.84Z"/><path class="cls-1" d="M305.6,9.47h-21.14c-2.62,0-4.74-2.12-4.74-4.74S281.84,0,284.46,0h21.14C308.21,0,310.33,2.12,310.33,4.74s-2.12,4.74-4.74,4.74Z"/><path class="cls-1" d="M95.47,47.83c-13.19,0-23.92-10.73-23.92-23.92,0-2.62,2.12-4.74,4.74-4.74s4.74,2.12,4.74,4.74c0,7.97,6.48,14.45,14.45,14.45s14.45-6.48,14.45-14.45c0-2.62,2.12-4.74,4.74-4.74s4.74,2.12,4.74,4.74c0,13.19-10.73,23.92-23.92,23.92Z"/><path class="cls-1" d="M57.09,47.83c-13.19,0-23.92-10.73-23.92-23.92,0-2.62,2.12-4.74,4.74-4.74s4.74,2.12,4.74,4.74c0,7.97,6.48,14.45,14.45,14.45s14.45-6.48,14.45-14.45c0-2.62,2.12-4.74,4.74-4.74s4.74,2.12,4.74,4.74c0,13.19-10.73,23.92-23.92,23.92Z"/><path class="cls-1" d="M114.66,19.18c-1.57,0-2.84-1.27-2.84-2.84V2.84C111.81,1.27,113.09,0,114.66,0s2.84,1.27,2.84,2.84v13.49c0,1.57-1.27,2.84-2.84,2.84Z"/><path class="cls-1" d="M76.28,19.18c-1.57,0-2.84-1.27-2.84-2.84V2.84C73.44,1.27,74.71,0,76.28,0s2.84,1.27,2.84,2.84v13.49c0,1.57-1.27,2.84-2.84,2.84Z"/><path class="cls-1" d="M37.9,19.18c-1.57,0-2.84-1.27-2.84-2.84V2.84C35.06,1.27,36.33,0,37.9,0s2.84,1.27,2.84,2.84v13.49c0,1.57-1.27,2.84-2.84,2.84Z"/><path class="cls-1" d="M179.32,26.76h-35.05c-1.57,0-2.84-1.27-2.84-2.84s1.27-2.84,2.84-2.84h35.05c1.57,0,2.84,1.27,2.84,2.84s-1.27,2.84-2.84,2.84Z"/><path class="cls-1" d="M136.7,47.84c-2.62,0-4.74-2.12-4.74-4.74V4.74C131.96,2.12,134.08,0,136.7,0s4.74,2.12,4.74,4.74v38.37c0,2.62-2.12,4.74-4.74,4.74Z"/><path class="cls-1" d="M186.9,47.84c-2.62,0-4.74-2.12-4.74-4.74V4.74C182.16,2.12,184.28,0,186.9,0s4.74,2.12,4.74,4.74v38.37c0,2.62-2.12,4.74-4.74,4.74Z"/><path class="cls-1" d="M88.76,179.85c-13.19,0-23.92-10.73-23.92-23.92s10.73-23.92,23.92-23.92c2.62,0,4.74,2.12,4.74,4.74s-2.12,4.74-4.74,4.74c-7.97,0-14.45,6.48-14.45,14.45s6.48,14.45,14.45,14.45c2.62,0,4.74,2.12,4.74,4.74s-2.12,4.74-4.74,4.74Z"/><path class="cls-1" d="M88.76,179.85c-2.62,0-4.74-2.12-4.74-4.74s2.12-4.74,4.74-4.74c7.97,0,14.45-6.48,14.45-14.45s-6.48-14.45-14.45-14.45c-2.62,0-4.74-2.12-4.74-4.74s2.12-4.74,4.74-4.74c13.19,0,23.92,10.73,23.92,23.92s-10.73,23.92-23.92,23.92Z"/><path class="cls-1" d="M251.25,179.85c-13.19,0-23.92-10.73-23.92-23.92s10.73-23.92,23.92-23.92c2.62,0,4.74,2.12,4.74,4.74s-2.12,4.74-4.74,4.74c-7.97,0-14.45,6.48-14.45,14.45s6.48,14.45,14.45,14.45c2.62,0,4.74,2.12,4.74,4.74s-2.12,4.74-4.74,4.74Z"/><path class="cls-1" d="M251.25,179.85c-2.62,0-4.74-2.12-4.74-4.74s2.12-4.74,4.74-4.74c7.97,0,14.45-6.48,14.45-14.45s-6.48-14.45-14.45-14.45c-2.62,0-4.74-2.12-4.74-4.74s2.12-4.74,4.74-4.74c13.19,0,23.92,10.73,23.92,23.92s-10.73,23.92-23.92,23.92Z"/><path class="cls-1" d="M340.66,137.68h-9.99c-1.57,0-2.84-1.27-2.84-2.84s1.27-2.84,2.84-2.84h9.99c1.57,0,2.84,1.27,2.84,2.84s-1.27,2.84-2.84,2.84Z"/><path class="cls-1" d="M340.66,179.85h-9.99c-1.57,0-2.84-1.27-2.84-2.84s1.27-2.84,2.84-2.84h9.99c1.57,0,2.84,1.27,2.84,2.84s-1.27,2.84-2.84,2.84Z"/><path class="cls-1" d="M335.62,174.17h0c-2.62,0-4.73-2.13-4.73-4.74l.04-27.02c0-2.61,2.12-4.73,4.74-4.73h0c2.62,0,4.73,2.13,4.73,4.74l-.04,27.02c0,2.61-2.12,4.73-4.74,4.73Z"/><path class="cls-1" d="M212.95,148.23c-1.57,0-2.84-1.27-2.84-2.84,0-4.25-3.46-7.7-7.7-7.7h-.25c-1.57,0-2.84-1.27-2.84-2.84s1.27-2.84,2.84-2.84h.25c7.38,0,13.39,6.01,13.39,13.39,0,1.57-1.27,2.84-2.84,2.84Z"/><path class="cls-1" d="M202.41,158.77c-1.57,0-2.84-1.27-2.84-2.84s1.27-2.84,2.84-2.84c4.25,0,7.7-3.46,7.7-7.7,0-1.57,1.27-2.84,2.84-2.84s2.84,1.27,2.84,2.84c0,7.38-6.01,13.39-13.39,13.39Z"/><path class="cls-1" d="M202.41,179.86h-.25c-1.57,0-2.84-1.27-2.84-2.84s1.27-2.84,2.84-2.84h.25c4.25,0,7.7-3.46,7.7-7.7,0-1.57,1.27-2.84,2.84-2.84s2.84,1.27,2.84,2.84c0,7.38-6.01,13.39-13.39,13.39Z"/><path class="cls-1" d="M212.95,169.32c-1.57,0-2.84-1.27-2.84-2.84,0-4.25-3.46-7.7-7.7-7.7-1.57,0-2.84-1.27-2.84-2.84s1.27-2.84,2.84-2.84c7.38,0,13.39,6.01,13.39,13.39,0,1.57-1.27,2.84-2.84,2.84Z"/><path class="cls-1" d="M194.83,179.86c-2.62,0-4.74-2.12-4.74-4.74v-38.37c0-2.62,2.12-4.74,4.74-4.74s4.74,2.12,4.74,4.74v38.37c0,2.62-2.12,4.74-4.74,4.74Z"/><path class="cls-1" d="M40.2,179.87c-.92,0-1.82-.44-2.37-1.27l-28.12-42.18c-.87-1.31-.52-3.07.79-3.94,1.31-.87,3.07-.52,3.94.79l28.12,42.18c.87,1.31.52,3.07-.79,3.94-.48.32-1.03.48-1.57.48Z"/><path class="cls-1" d="M4.74,179.86c-2.62,0-4.74-2.12-4.74-4.74v-38.37c0-2.62,2.12-4.74,4.74-4.74s4.74,2.12,4.74,4.74v38.37c0,2.62-2.12,4.74-4.74,4.74Z"/><path class="cls-1" d="M47.53,179.86c-2.62,0-4.74-2.12-4.74-4.74v-38.37c0-2.62,2.12-4.74,4.74-4.74s4.74,2.12,4.74,4.74v38.37c0,2.62-2.12,4.74-4.74,4.74Z"/><path class="cls-1" d="M165.45,179.87c-.92,0-1.82-.44-2.37-1.27l-28.12-42.18c-.87-1.31-.52-3.07.79-3.94,1.31-.87,3.07-.52,3.94.79l28.12,42.18c.87,1.31.52,3.07-.79,3.94-.48.32-1.03.48-1.57.48Z"/><path class="cls-1" d="M129.99,179.86c-2.62,0-4.74-2.12-4.74-4.74v-38.37c0-2.62,2.12-4.74,4.74-4.74s4.74,2.12,4.74,4.74v38.37c0,2.62-2.12,4.74-4.74,4.74Z"/><path class="cls-1" d="M172.79,179.86c-2.62,0-4.74-2.12-4.74-4.74v-38.37c0-2.62,2.12-4.74,4.74-4.74s4.74,2.12,4.74,4.74v38.37c0,2.62-2.12,4.74-4.74,4.74Z"/><path class="cls-1" d="M300.05,162.41c-1.57,0-2.84-1.27-2.84-2.84s1.27-2.84,2.84-2.84c5.25,0,9.52-4.27,9.52-9.52s-4.27-9.52-9.52-9.52h-.23c-1.57,0-2.84-1.27-2.84-2.84s1.27-2.84,2.84-2.84h.23c8.39,0,15.21,6.82,15.21,15.21s-6.82,15.21-15.21,15.21Z"/><path class="cls-1" d="M312.42,179.85c-.92,0-1.82-.44-2.37-1.27l-8.16-12.25c-.87-1.31-.52-3.07.79-3.94,1.31-.87,3.07-.52,3.94.79l8.16,12.25c.87,1.31.52,3.07-.79,3.94-.48.32-1.03.48-1.57.48Z"/><path class="cls-1" d="M292.48,179.86c-2.62,0-4.74-2.12-4.74-4.74v-38.37c0-2.62,2.12-4.74,4.74-4.74s4.74,2.12,4.74,4.74v38.37c0,2.62-2.12,4.74-4.74,4.74Z"/><path class="cls-1" d="M181.79,213.75c-1.57,0-2.84-1.27-2.84-2.84,0-3.97-3.23-7.2-7.2-7.2s-7.2,3.23-7.2,7.2c0,1.57-1.27,2.84-2.84,2.84s-2.84-1.27-2.84-2.84c0-7.1,5.78-12.89,12.89-12.89s12.89,5.78,12.89,12.89c0,1.57-1.27,2.84-2.84,2.84Z"/><path class="cls-1" d="M171.75,223.79c-1.57,0-2.84-1.27-2.84-2.84s1.27-2.84,2.84-2.84c3.97,0,7.2-3.23,7.2-7.2,0-1.57,1.27-2.84,2.84-2.84s2.84,1.27,2.84,2.84c0,7.1-5.78,12.89-12.89,12.89Z"/><path class="cls-1" d="M171.75,237.29c-2.61,0-4.73-2.12-4.73-4.73v-4.03c0-2.62,2.12-4.73,4.73-4.73s4.73,2.12,4.73,4.73v4.03c0,2.62-2.12,4.73-4.73,4.73Z"/><path class="cls-1" d="M171.75,245.85c-1.57,0-2.84-1.27-2.84-2.84v-2.88c0-1.57,1.27-2.84,2.84-2.84s2.84,1.27,2.84,2.84v2.88c0,1.57-1.27,2.84-2.84,2.84Z"/></svg>