<?xml version="1.0" encoding="UTF-8"?><svg id="_レイヤー_1" xmlns="http://www.w3.org/2000/svg" viewBox="0 0 389.22 1060.07"><defs><style>.cls-1{fill:#fff;}.cls-2{fill:red;}</style></defs><path class="cls-2" d="M389.22,865.46c0,107.48-87.14,194.61-194.61,194.61S0,972.94,0,865.46V194.61C0,87.13,87.14,0,194.61,0s194.61,87.13,194.61,194.61v670.85Z"/><path class="cls-1" d="M305.69,194.9c-1.57,0-2.84-1.27-2.84-2.84v-32.66c0-1.57,1.27-2.84,2.84-2.84s2.84,1.27,2.84,2.84v32.66c0,1.57-1.27,2.84-2.84,2.84Z"/><path class="cls-1" d="M316.26,156.57h-21.12c-2.61,0-4.73-2.12-4.73-4.73s2.12-4.73,4.73-4.73h21.12c2.61,0,4.73,2.12,4.73,4.73s-2.12,4.73-4.73,4.73Z"/><path class="cls-1" d="M137.71,194.91c-.92,0-1.82-.44-2.37-1.26l-28.08-42.12c-.87-1.3-.52-3.07.79-3.94,1.31-.87,3.07-.52,3.94.79l28.08,42.12c.87,1.3.52,3.07-.79,3.94-.48.32-1.03.48-1.57.48Z"/><path class="cls-1" d="M145.04,194.93c-.9,0-1.81-.26-2.62-.8-2.18-1.45-2.76-4.39-1.31-6.56l25.57-38.35c1.45-2.18,4.39-2.76,6.56-1.31,2.18,1.45,2.76,4.39,1.31,6.56l-25.57,38.35c-.91,1.37-2.41,2.11-3.94,2.11Z"/><path class="cls-1" d="M91.3,152.79h-10.22c-1.57,0-2.84-1.27-2.84-2.84s1.27-2.84,2.84-2.84h10.22c1.57,0,2.84,1.27,2.84,2.84s-1.27,2.84-2.84,2.84Z"/><path class="cls-1" d="M91.3,194.93h-10.22c-1.57,0-2.84-1.27-2.84-2.84s1.27-2.84,2.84-2.84h10.22c1.57,0,2.84,1.27,2.84,2.84s-1.27,2.84-2.84,2.84Z"/><path class="cls-1" d="M73.74,194.93c-2.61,0-4.73-2.12-4.73-4.73v-38.34c0-2.61,2.12-4.73,4.73-4.73s4.73,2.12,4.73,4.73v38.34c0,2.61-2.12,4.73-4.73,4.73Z"/><path class="cls-1" d="M91.3,173.86h-9.98c-1.57,0-2.84-1.27-2.84-2.84s1.27-2.84,2.84-2.84h9.98c1.57,0,2.84,1.27,2.84,2.84s-1.27,2.84-2.84,2.84Z"/><path class="cls-1" d="M210.2,152.79h-10.22c-1.57,0-2.84-1.27-2.84-2.84s1.27-2.84,2.84-2.84h10.22c1.57,0,2.84,1.27,2.84,2.84s-1.27,2.84-2.84,2.84Z"/><path class="cls-1" d="M210.2,194.93h-10.22c-1.57,0-2.84-1.27-2.84-2.84s1.27-2.84,2.84-2.84h10.22c1.57,0,2.84,1.27,2.84,2.84s-1.27,2.84-2.84,2.84Z"/><path class="cls-1" d="M192.64,194.93c-2.61,0-4.73-2.12-4.73-4.73v-38.34c0-2.61,2.12-4.73,4.73-4.73s4.73,2.12,4.73,4.73v38.34c0,2.61-2.12,4.73-4.73,4.73Z"/><path class="cls-1" d="M210.2,173.86h-9.98c-1.57,0-2.84-1.27-2.84-2.84s1.27-2.84,2.84-2.84h9.98c1.57,0,2.84,1.27,2.84,2.84s-1.27,2.84-2.84,2.84Z"/><path class="cls-1" d="M265.77,194.94c-.92,0-1.82-.44-2.37-1.26l-28.1-42.15c-.87-1.3-.52-3.07.79-3.94,1.3-.87,3.07-.52,3.94.79l28.1,42.15c.87,1.3.52,3.07-.79,3.94-.48.32-1.03.48-1.57.48Z"/><path class="cls-1" d="M230.33,194.93c-2.61,0-4.73-2.12-4.73-4.73v-38.34c0-2.61,2.12-4.73,4.73-4.73s4.73,2.12,4.73,4.73v38.34c0,2.61-2.12,4.73-4.73,4.73Z"/><path class="cls-1" d="M273.1,194.93c-2.61,0-4.73-2.12-4.73-4.73v-38.34c0-2.61,2.12-4.73,4.73-4.73s4.73,2.12,4.73,4.73v38.34c0,2.61-2.12,4.73-4.73,4.73Z"/><rect class="cls-1" x="-3.5" y="283.24" width="396.53" height="343.04" rx="60" ry="60" transform="translate(649.53 259.99) rotate(90)"/><rect class="cls-1" x="134.69" y="874.36" width="115.9" height="38.62" rx="19.31" ry="19.31" transform="translate(385.29 1787.34) rotate(180)"/><path class="cls-1" d="M193.75,719.28c-8.03,0-14.57-6.53-14.57-14.57s6.53-14.57,14.57-14.57c1.59,0,2.88,1.29,2.88,2.88s-1.29,2.88-2.88,2.88c-4.85,0-8.8,3.95-8.8,8.8s3.95,8.8,8.8,8.8c1.59,0,2.88,1.29,2.88,2.88s-1.29,2.88-2.88,2.88Z"/><path class="cls-1" d="M193.75,719.28c-1.59,0-2.88-1.29-2.88-2.88s1.29-2.88,2.88-2.88c4.85,0,8.8-3.95,8.8-8.8s-3.95-8.8-8.8-8.8c-1.59,0-2.88-1.29-2.88-2.88s1.29-2.88,2.88-2.88c8.03,0,14.57,6.53,14.57,14.57s-6.53,14.57-14.57,14.57Z"/><path class="cls-1" d="M254.04,719.28c-8.03,0-14.57-6.53-14.57-14.57s6.53-14.57,14.57-14.57c1.59,0,2.88,1.29,2.88,2.88s-1.29,2.88-2.88,2.88c-4.85,0-8.8,3.95-8.8,8.8s3.95,8.8,8.8,8.8c1.59,0,2.88,1.29,2.88,2.88s-1.29,2.88-2.88,2.88Z"/><path class="cls-1" d="M254.04,719.28c-1.59,0-2.88-1.29-2.88-2.88s1.29-2.88,2.88-2.88c4.85,0,8.8-3.95,8.8-8.8s-3.95-8.8-8.8-8.8c-1.59,0-2.88-1.29-2.88-2.88s1.29-2.88,2.88-2.88c8.03,0,14.57,6.53,14.57,14.57s-6.53,14.57-14.57,14.57Z"/><path class="cls-1" d="M110.86,719.27c-.55,0-1.11-.16-1.6-.48-1.33-.88-1.68-2.67-.8-4l15.57-23.36c.88-1.33,2.67-1.68,4-.8,1.33.88,1.68,2.67.8,4l-15.57,23.36c-.56.83-1.47,1.28-2.4,1.28Z"/><path class="cls-1" d="M147.8,719.27c-.93,0-1.85-.45-2.4-1.28l-15.57-23.36c-.88-1.33-.53-3.12.8-4,1.32-.88,3.12-.53,4,.8l15.57,23.36c.88,1.33.53,3.12-.8,4-.49.33-1.05.48-1.6.48Z"/><path class="cls-1" d="M137.93,711.65h-17.2c-.96,0-1.73-.77-1.73-1.73s.77-1.73,1.73-1.73h17.2c.96,0,1.73.77,1.73,1.73s-.77,1.73-1.73,1.73Z"/><path class="cls-1" d="M161.06,707.59c-4.81,0-8.72-3.91-8.72-8.72s3.91-8.72,8.72-8.72c1.59,0,2.88,1.29,2.88,2.88s-1.29,2.88-2.88,2.88-2.96,1.33-2.96,2.96,1.33,2.96,2.96,2.96,2.88,1.29,2.88,2.88-1.29,2.88-2.88,2.88Z"/><path class="cls-1" d="M165.53,719.27c-.96,0-1.73-.77-1.73-1.73s.77-1.73,1.73-1.73c2.27,0,4.11-1.84,4.11-4.11s-1.84-4.11-4.11-4.11c-.96,0-1.73-.77-1.73-1.73s.77-1.73,1.73-1.73c4.17,0,7.57,3.4,7.57,7.57s-3.4,7.57-7.57,7.57Z"/><path class="cls-1" d="M230.09,700.02c-.96,0-1.73-.77-1.73-1.73,0-2.59-2.1-4.69-4.69-4.69h-.15c-.96,0-1.73-.77-1.73-1.73s.77-1.73,1.73-1.73h.15c4.49,0,8.15,3.66,8.15,8.15,0,.96-.77,1.73-1.73,1.73Z"/><path class="cls-1" d="M223.67,706.45c-.96,0-1.73-.77-1.73-1.73s.77-1.73,1.73-1.73c2.59,0,4.69-2.1,4.69-4.69,0-.96.77-1.73,1.73-1.73s1.73.77,1.73,1.73c0,4.49-3.66,8.15-8.15,8.15Z"/><path class="cls-1" d="M223.67,719.29h-.15c-.96,0-1.73-.77-1.73-1.73s.77-1.73,1.73-1.73h.15c2.59,0,4.69-2.1,4.69-4.69,0-.96.77-1.73,1.73-1.73s1.73.77,1.73,1.73c0,4.49-3.66,8.15-8.15,8.15Z"/><path class="cls-1" d="M230.09,712.87c-.96,0-1.73-.77-1.73-1.73,0-2.59-2.1-4.69-4.69-4.69-.96,0-1.73-.77-1.73-1.73s.77-1.73,1.73-1.73c4.49,0,8.15,3.66,8.15,8.15,0,.96-.77,1.73-1.73,1.73Z"/><path class="cls-1" d="M219.05,719.28c-1.59,0-2.88-1.29-2.88-2.88v-23.36c0-1.59,1.29-2.88,2.88-2.88s2.88,1.29,2.88,2.88v23.36c0,1.59-1.29,2.88-2.88,2.88Z"/><path class="cls-1" d="M279.14,713.53c-1.59,0-2.88-1.29-2.88-2.88v-17.62c0-1.59,1.29-2.88,2.88-2.88s2.88,1.29,2.88,2.88v17.62c0,1.59-1.29,2.88-2.88,2.88Z"/><path class="cls-1" d="M279.14,719.27c-.96,0-1.73-.77-1.73-1.73v-2.32c0-.96.77-1.73,1.73-1.73s1.73.77,1.73,1.73v2.32c0,.96-.77,1.73-1.73,1.73Z"/></svg>