<?xml version="1.0" encoding="UTF-8"?><svg id="_レイヤー_1" xmlns="http://www.w3.org/2000/svg" viewBox="0 0 389.22 844"><defs><style>.cls-1{fill:#fff;}.cls-2{fill:red;}</style></defs><path class="cls-2" d="M389.22,0v649.39c0,107.48-87.14,194.61-194.61,194.61S0,756.87,0,649.39V0h389.22Z"/><path class="cls-1" d="M329.79,372.37h-4.08c2.12-.02,3.84-1.74,3.84-3.86l.03-22.07c0-2.11-1.68-3.82-3.78-3.87h4c1.28,0,2.32-1.04,2.32-2.32s-1.04-2.32-2.32-2.32h-8.16c-1.28,0-2.32,1.04-2.32,2.32s1.04,2.32,2.32,2.32h4c-2.1.04-3.78,1.75-3.79,3.86l-.03,22.07c0,2.13,1.71,3.85,3.83,3.87h-4.01c-1.28,0-2.32,1.04-2.32,2.32s1.04,2.32,2.32,2.32h8.16c1.28,0,2.32-1.04,2.32-2.32s-1.04-2.32-2.32-2.32Z"/><path class="cls-1" d="M130.19,337.92c-10.78,0-19.55,8.77-19.55,19.55s8.77,19.55,19.55,19.55,19.55-8.77,19.55-19.55-8.77-19.55-19.55-19.55ZM130.19,369.27c-6.51,0-11.81-5.3-11.81-11.81s5.3-11.81,11.81-11.81,11.81,5.3,11.81,11.81-5.3,11.81-11.81,11.81Z"/><path class="cls-1" d="M259.85,337.92c-10.78,0-19.55,8.77-19.55,19.55s8.77,19.55,19.55,19.55,19.55-8.77,19.55-19.55-8.77-19.55-19.55-19.55ZM259.85,369.27c-6.51,0-11.81-5.3-11.81-11.81s5.3-11.81,11.81-11.81,11.81,5.3,11.81,11.81-5.3,11.81-11.81,11.81Z"/><path class="cls-1" d="M232.71,348.84c0-6.03-4.91-10.94-10.94-10.94h-.2c-1.28,0-2.32,1.04-2.32,2.32s1.04,2.32,2.32,2.32h.2c3.47,0,6.29,2.82,6.29,6.29s-2.82,6.29-6.29,6.29c-1.28,0-2.32,1.04-2.32,2.32s1.04,2.32,2.32,2.32c3.47,0,6.29,2.82,6.29,6.29s-2.82,6.29-6.29,6.29h-.2c-1.28,0-2.32,1.04-2.32,2.32s1.04,2.32,2.32,2.32h.2c6.03,0,10.94-4.91,10.94-10.94,0-3.5-1.65-6.61-4.21-8.62,2.56-2,4.21-5.12,4.21-8.62Z"/><path class="cls-1" d="M219.45,341.79c0-2.14-1.73-3.87-3.87-3.87s-3.87,1.73-3.87,3.87v31.35c0,2.14,1.73,3.87,3.87,3.87s3.87-1.73,3.87-3.87v-31.35Z"/><path class="cls-1" d="M310.36,350.34c0-6.85-5.57-12.42-12.42-12.42h-.19c-1.28,0-2.32,1.04-2.32,2.32s1.04,2.32,2.32,2.32h.19c4.29,0,7.78,3.49,7.78,7.78s-3.49,7.78-7.78,7.78c-1.25,0-2.27.99-2.32,2.24v-18.57c0-2.14-1.73-3.87-3.87-3.87s-3.87,1.73-3.87,3.87v31.35c0,2.14,1.73,3.87,3.87,3.87s3.87-1.73,3.87-3.87v-12.61c.05,1.24,1.06,2.24,2.32,2.24,6.85,0,12.42-5.57,12.42-12.42Z"/><path class="cls-1" d="M303.3,363.39c-.71-1.07-2.15-1.36-3.22-.64-1.07.71-1.36,2.15-.64,3.22l6.67,10.01c.45.67,1.18,1.03,1.93,1.03.44,0,.89-.13,1.29-.39,1.07-.71,1.36-2.15.64-3.22l-6.67-10.01Z"/><path class="cls-1" d="M70.82,338.94c-.71-1.07-2.15-1.36-3.22-.64-1.07.71-1.36,2.15-.64,3.22l22.98,34.46c.45.67,1.18,1.03,1.93,1.03.44,0,.89-.13,1.29-.39,1.07-.71,1.36-2.15.64-3.22l-22.98-34.46Z"/><path class="cls-1" d="M62.89,337.92c-2.14,0-3.87,1.73-3.87,3.87v31.35c0,2.14,1.73,3.87,3.87,3.87s3.87-1.73,3.87-3.87v-31.35c0-2.14-1.73-3.87-3.87-3.87Z"/><path class="cls-1" d="M97.86,337.92c-2.14,0-3.87,1.73-3.87,3.87v31.35c0,2.14,1.73,3.87,3.87,3.87s3.87-1.73,3.87-3.87v-31.35c0-2.14-1.73-3.87-3.87-3.87Z"/><path class="cls-1" d="M170.53,338.94c-.71-1.07-2.15-1.36-3.22-.64-1.07.71-1.36,2.15-.64,3.22l22.98,34.46c.45.67,1.18,1.03,1.93,1.03.44,0,.89-.13,1.29-.39,1.07-.71,1.36-2.15.64-3.22l-22.98-34.46Z"/><path class="cls-1" d="M162.6,337.92c-2.14,0-3.87,1.73-3.87,3.87v31.35c0,2.14,1.73,3.87,3.87,3.87s3.87-1.73,3.87-3.87v-31.35c0-2.14-1.73-3.87-3.87-3.87Z"/><path class="cls-1" d="M197.56,337.92c-2.14,0-3.87,1.73-3.87,3.87v31.35c0,2.14,1.73,3.87,3.87,3.87s3.87-1.73,3.87-3.87v-31.35c0-2.14-1.73-3.87-3.87-3.87Z"/></svg>