<?xml version="1.0" encoding="UTF-8"?><svg id="_レイヤー_1" xmlns="http://www.w3.org/2000/svg" viewBox="0 0 389.22 1060.07"><defs><style>.cls-1{fill:#fff;}.cls-2{fill:red;}</style></defs><path class="cls-2" d="M389.22,865.46c0,107.48-87.14,194.61-194.61,194.61S0,972.94,0,865.46V194.61C0,87.13,87.14,0,194.61,0s194.61,87.13,194.61,194.61v670.85Z"/><path class="cls-1" d="M305.69,194.9c-1.57,0-2.84-1.27-2.84-2.84v-32.66c0-1.57,1.27-2.84,2.84-2.84s2.84,1.27,2.84,2.84v32.66c0,1.57-1.27,2.84-2.84,2.84Z"/><path class="cls-1" d="M316.26,156.57h-21.12c-2.61,0-4.73-2.12-4.73-4.73s2.12-4.73,4.73-4.73h21.12c2.61,0,4.73,2.12,4.73,4.73s-2.12,4.73-4.73,4.73Z"/><path class="cls-1" d="M137.71,194.91c-.92,0-1.82-.44-2.37-1.26l-28.08-42.12c-.87-1.3-.52-3.07.79-3.94,1.31-.87,3.07-.52,3.94.79l28.08,42.12c.87,1.3.52,3.07-.79,3.94-.48.32-1.03.48-1.57.48Z"/><path class="cls-1" d="M145.04,194.93c-.9,0-1.81-.26-2.62-.8-2.18-1.45-2.76-4.39-1.31-6.56l25.57-38.35c1.45-2.18,4.39-2.76,6.56-1.31,2.18,1.45,2.76,4.39,1.31,6.56l-25.57,38.35c-.91,1.37-2.41,2.11-3.94,2.11Z"/><path class="cls-1" d="M91.3,152.79h-10.22c-1.57,0-2.84-1.27-2.84-2.84s1.27-2.84,2.84-2.84h10.22c1.57,0,2.84,1.27,2.84,2.84s-1.27,2.84-2.84,2.84Z"/><path class="cls-1" d="M91.3,194.93h-10.22c-1.57,0-2.84-1.27-2.84-2.84s1.27-2.84,2.84-2.84h10.22c1.57,0,2.84,1.27,2.84,2.84s-1.27,2.84-2.84,2.84Z"/><path class="cls-1" d="M73.74,194.93c-2.61,0-4.73-2.12-4.73-4.73v-38.34c0-2.61,2.12-4.73,4.73-4.73s4.73,2.12,4.73,4.73v38.34c0,2.61-2.12,4.73-4.73,4.73Z"/><path class="cls-1" d="M91.3,173.86h-9.98c-1.57,0-2.84-1.27-2.84-2.84s1.27-2.84,2.84-2.84h9.98c1.57,0,2.84,1.27,2.84,2.84s-1.27,2.84-2.84,2.84Z"/><path class="cls-1" d="M210.2,152.79h-10.22c-1.57,0-2.84-1.27-2.84-2.84s1.27-2.84,2.84-2.84h10.22c1.57,0,2.84,1.27,2.84,2.84s-1.27,2.84-2.84,2.84Z"/><path class="cls-1" d="M210.2,194.93h-10.22c-1.57,0-2.84-1.27-2.84-2.84s1.27-2.84,2.84-2.84h10.22c1.57,0,2.84,1.27,2.84,2.84s-1.27,2.84-2.84,2.84Z"/><path class="cls-1" d="M192.64,194.93c-2.61,0-4.73-2.12-4.73-4.73v-38.34c0-2.61,2.12-4.73,4.73-4.73s4.73,2.12,4.73,4.73v38.34c0,2.61-2.12,4.73-4.73,4.73Z"/><path class="cls-1" d="M210.2,173.86h-9.98c-1.57,0-2.84-1.27-2.84-2.84s1.27-2.84,2.84-2.84h9.98c1.57,0,2.84,1.27,2.84,2.84s-1.27,2.84-2.84,2.84Z"/><path class="cls-1" d="M265.77,194.94c-.92,0-1.82-.44-2.37-1.26l-28.1-42.15c-.87-1.3-.52-3.07.79-3.94,1.3-.87,3.07-.52,3.94.79l28.1,42.15c.87,1.3.52,3.07-.79,3.94-.48.32-1.03.48-1.57.48Z"/><path class="cls-1" d="M230.33,194.93c-2.61,0-4.73-2.12-4.73-4.73v-38.34c0-2.61,2.12-4.73,4.73-4.73s4.73,2.12,4.73,4.73v38.34c0,2.61-2.12,4.73-4.73,4.73Z"/><path class="cls-1" d="M273.1,194.93c-2.61,0-4.73-2.12-4.73-4.73v-38.34c0-2.61,2.12-4.73,4.73-4.73s4.73,2.12,4.73,4.73v38.34c0,2.61-2.12,4.73-4.73,4.73Z"/><rect class="cls-1" x="-3.5" y="283.24" width="396.53" height="343.04" rx="60" ry="60" transform="translate(649.53 259.99) rotate(90)"/><rect class="cls-1" x="134.69" y="874.36" width="115.9" height="38.62" rx="19.31" ry="19.31" transform="translate(385.29 1787.34) rotate(180)"/></svg>
