<?xml version="1.0" encoding="UTF-8"?><svg id="_レイヤー_1" xmlns="http://www.w3.org/2000/svg" viewBox="0 0 1440 898"><defs><style>.cls-1{fill:#fff;}.cls-2{fill:red;}</style></defs><path class="cls-2" d="M1440,178c0,397.65-322.38,720-720,720S0,575.65,0,178V0h1440v178Z"/><path class="cls-1" d="M1001.89,419.13h-8.58c4.45-.03,8.06-3.65,8.06-8.11l.07-46.36c0-4.43-3.54-8.03-7.95-8.13h8.39c2.69,0,4.88-2.18,4.88-4.88s-2.18-4.88-4.88-4.88h-17.14c-2.69,0-4.88,2.18-4.88,4.88s2.18,4.88,4.88,4.88h8.4c-4.4.09-7.95,3.68-7.95,8.11l-.07,46.36c0,4.47,3.59,8.09,8.05,8.13h-8.43c-2.69,0-4.88,2.18-4.88,4.88s2.18,4.88,4.88,4.88h17.14c2.69,0,4.88-2.18,4.88-4.88s-2.18-4.88-4.88-4.88Z"/><path class="cls-1" d="M582.69,346.79c-22.63,0-41.05,18.42-41.05,41.05s18.41,41.05,41.05,41.05,41.05-18.42,41.05-41.05-18.41-41.05-41.05-41.05ZM582.69,412.63c-13.67,0-24.8-11.12-24.8-24.8s11.12-24.8,24.8-24.8,24.8,11.12,24.8,24.8-11.12,24.8-24.8,24.8Z"/><path class="cls-1" d="M855.01,346.79c-22.63,0-41.05,18.42-41.05,41.05s18.41,41.05,41.05,41.05,41.05-18.42,41.05-41.05-18.41-41.05-41.05-41.05ZM855.01,412.63c-13.67,0-24.8-11.12-24.8-24.8s11.12-24.8,24.8-24.8,24.8,11.12,24.8,24.8-11.12,24.8-24.8,24.8Z"/><path class="cls-1" d="M798,369.72c0-12.66-10.3-22.97-22.97-22.97h-.42c-2.69,0-4.88,2.18-4.88,4.88s2.18,4.88,4.88,4.88h.42c7.29,0,13.22,5.93,13.22,13.22s-5.93,13.22-13.22,13.22c-2.69,0-4.88,2.18-4.88,4.88s2.18,4.88,4.88,4.88c7.29,0,13.22,5.93,13.22,13.22s-5.93,13.22-13.22,13.22h-.42c-2.69,0-4.88,2.18-4.88,4.88s2.18,4.88,4.88,4.88h.42c12.67,0,22.97-10.3,22.97-22.97,0-7.34-3.47-13.89-8.85-18.09,5.38-4.21,8.85-10.75,8.85-18.09Z"/><path class="cls-1" d="M770.15,354.91c0-4.49-3.64-8.13-8.13-8.13s-8.13,3.64-8.13,8.13v65.83c0,4.49,3.64,8.13,8.13,8.13s8.13-3.64,8.13-8.13v-65.83Z"/><path class="cls-1" d="M961.08,372.87c0-14.39-11.71-26.09-26.09-26.09h-.4c-2.69,0-4.88,2.18-4.88,4.88s2.18,4.88,4.88,4.88h.4c9.01,0,16.34,7.33,16.34,16.34s-7.33,16.34-16.34,16.34c-2.63,0-4.77,2.09-4.87,4.7v-38.99c0-4.49-3.64-8.13-8.13-8.13s-8.13,3.64-8.13,8.13v65.83c0,4.49,3.64,8.13,8.13,8.13s8.13-3.64,8.13-8.13v-26.48c.1,2.61,2.23,4.7,4.87,4.7,14.39,0,26.09-11.71,26.09-26.09Z"/><path class="cls-1" d="M946.25,400.29c-1.49-2.24-4.52-2.85-6.76-1.35-2.24,1.49-2.85,4.52-1.35,6.76l14.01,21.01c.94,1.41,2.49,2.17,4.06,2.17.93,0,1.87-.27,2.7-.82,2.24-1.49,2.85-4.52,1.35-6.76l-14.01-21.01Z"/><path class="cls-1" d="M458.01,348.93c-1.49-2.24-4.52-2.85-6.76-1.35-2.24,1.49-2.85,4.52-1.35,6.76l48.25,72.38c.94,1.41,2.49,2.17,4.06,2.17.93,0,1.87-.27,2.7-.82,2.24-1.49,2.85-4.52,1.35-6.76l-48.25-72.38Z"/><path class="cls-1" d="M441.36,346.79c-4.49,0-8.13,3.64-8.13,8.13v65.83c0,4.49,3.64,8.13,8.13,8.13s8.13-3.64,8.13-8.13v-65.83c0-4.49-3.64-8.13-8.13-8.13Z"/><path class="cls-1" d="M514.79,346.79c-4.49,0-8.13,3.64-8.13,8.13v65.83c0,4.49,3.64,8.13,8.13,8.13s8.13-3.64,8.13-8.13v-65.83c0-4.49-3.64-8.13-8.13-8.13Z"/><path class="cls-1" d="M667.41,348.93c-1.49-2.24-4.52-2.85-6.76-1.35-2.24,1.49-2.85,4.52-1.35,6.76l48.25,72.38c.94,1.41,2.49,2.17,4.06,2.17.93,0,1.87-.27,2.7-.82,2.24-1.49,2.85-4.52,1.35-6.76l-48.25-72.38Z"/><path class="cls-1" d="M650.76,346.79c-4.49,0-8.13,3.64-8.13,8.13v65.83c0,4.49,3.64,8.13,8.13,8.13s8.13-3.64,8.13-8.13v-65.83c0-4.49-3.64-8.13-8.13-8.13Z"/><path class="cls-1" d="M724.19,346.79c-4.49,0-8.13,3.64-8.13,8.13v65.83c0,4.49,3.64,8.13,8.13,8.13s8.13-3.64,8.13-8.13v-65.83c0-4.49-3.64-8.13-8.13-8.13Z"/></svg>