<?xml version="1.0" encoding="UTF-8"?><svg id="_レイヤー_1" xmlns="http://www.w3.org/2000/svg" viewBox="0 0 676.99 195.24"><defs><style>.cls-1{fill:red;}</style></defs><path class="cls-1" d="M560.11,9.75h-17.14c-2.69,0-4.88-2.18-4.88-4.88S540.28,0,542.97,0h17.14C562.8,0,564.99,2.18,564.99,4.88s-2.18,4.88-4.88,4.88Z"/><path class="cls-1" d="M560.11,82.1h-17.14c-2.69,0-4.88-2.18-4.88-4.88s2.18-4.88,4.88-4.88h17.14c2.69,0,4.88,2.18,4.88,4.88s-2.18,4.88-4.88,4.88Z"/><path class="cls-1" d="M551.47,72.35h-.01c-4.49,0-8.12-3.65-8.11-8.14l.07-46.36c0-4.48,3.64-8.11,8.13-8.11h.01c4.49,0,8.12,3.65,8.11,8.14l-.07,46.36c0,4.48-3.64,8.11-8.13,8.11Z"/><path class="cls-1" d="M611.14,49.18c-13.56,0-24.59-11.03-24.59-24.59S597.58,0,611.14,0C615.63,0,619.26,3.64,619.26,8.13s-3.64,8.13-8.13,8.13-8.33,3.74-8.33,8.34,3.74,8.34,8.33,8.34,8.13,3.64,8.13,8.13-3.64,8.13-8.13,8.13Z"/><path class="cls-1" d="M623.72,82.07c-2.69,0-4.88-2.18-4.88-4.88s2.18-4.88,4.88-4.88c6.39,0,11.59-5.2,11.59-11.59s-5.2-11.59-11.59-11.59c-2.69,0-4.88-2.18-4.88-4.88s2.18-4.88,4.88-4.88c11.77,0,21.34,9.57,21.34,21.34s-9.57,21.34-21.34,21.34Z"/><path class="cls-1" d="M317.66,82.09c-1.55,0-3.11-.44-4.5-1.37-3.73-2.49-4.74-7.53-2.25-11.27L354.8,3.62c2.49-3.73,7.54-4.74,11.27-2.25,3.73,2.49,4.74,7.53,2.25,11.27l-43.89,65.83c-1.57,2.35-4.14,3.62-6.77,3.62Z"/><path class="cls-1" d="M421.75,82.09c-2.63,0-5.2-1.27-6.77-3.62l-43.89-65.83c-2.49-3.73-1.48-8.78,2.25-11.27,3.73-2.49,8.78-1.48,11.27,2.25l43.89,65.83c2.49,3.73,1.48,8.78-2.25,11.27-1.38.92-2.95,1.37-4.5,1.37Z"/><path class="cls-1" d="M393.95,60.62h-48.48c-2.69,0-4.88-2.18-4.88-4.88s2.18-4.88,4.88-4.88h48.48c2.69,0,4.88,2.18,4.88,4.88s-2.18,4.88-4.88,4.88Z"/><path class="cls-1" d="M465.38,82.07c-2.69,0-4.88-2.18-4.88-4.88V21.12c0-2.69,2.18-4.88,4.88-4.88s4.88,2.18,4.88,4.88v56.07c0,2.69-2.18,4.88-4.88,4.88Z"/><path class="cls-1" d="M483.52,16.25h-36.27c-4.49,0-8.13-3.64-8.13-8.13S442.76,0,447.25,0h36.27C488.01,0,491.64,3.64,491.64,8.13s-3.64,8.13-8.13,8.13Z"/><path class="cls-1" d="M122.98,82.07c-22.63,0-41.05-18.41-41.05-41.05,0-4.49,3.64-8.13,8.13-8.13s8.13,3.64,8.13,8.13c0,13.67,11.12,24.8,24.8,24.8s24.8-11.12,24.8-24.8c0-4.49,3.64-8.13,8.13-8.13s8.13,3.64,8.13,8.13c0,22.63-18.42,41.05-41.05,41.05Z"/><path class="cls-1" d="M57.13,82.07c-22.63,0-41.05-18.41-41.05-41.05,0-4.49,3.64-8.13,8.13-8.13s8.13,3.64,8.13,8.13c0,13.67,11.12,24.8,24.8,24.8s24.8-11.12,24.8-24.8c0-4.49,3.64-8.13,8.13-8.13s8.13,3.64,8.13,8.13c0,22.63-18.42,41.05-41.05,41.05Z"/><path class="cls-1" d="M155.9,32.9c-2.69,0-4.88-2.18-4.88-4.88V4.88C151.03,2.18,153.21,0,155.9,0s4.88,2.18,4.88,4.88v23.15c0,2.69-2.18,4.88-4.88,4.88Z"/><path class="cls-1" d="M90.06,32.9c-2.69,0-4.88-2.18-4.88-4.88V4.88C85.18,2.18,87.36,0,90.06,0s4.88,2.18,4.88,4.88v23.15c0,2.69-2.18,4.88-4.88,4.88Z"/><path class="cls-1" d="M24.21,32.9c-2.69,0-4.88-2.18-4.88-4.88V4.88C19.33,2.18,21.52,0,24.21,0s4.88,2.18,4.88,4.88v23.15c0,2.69-2.18,4.88-4.88,4.88Z"/><path class="cls-1" d="M266.85,45.92h-60.13c-2.69,0-4.88-2.18-4.88-4.88s2.18-4.88,4.88-4.88h60.13c2.69,0,4.88,2.18,4.88,4.88s-2.18,4.88-4.88,4.88Z"/><path class="cls-1" d="M193.72,82.09c-4.49,0-8.13-3.64-8.13-8.13V8.13C185.59,3.64,189.23,0,193.72,0s8.13,3.64,8.13,8.13v65.83c0,4.49-3.64,8.13-8.13,8.13Z"/><path class="cls-1" d="M279.85,82.09c-4.49,0-8.13-3.64-8.13-8.13V8.13C271.73,3.64,275.36,0,279.85,0s8.13,3.64,8.13,8.13v65.83c0,4.49-3.64,8.13-8.13,8.13Z"/><path class="cls-1" d="M152.3,195.23c-22.63,0-41.05-18.41-41.05-41.05s18.42-41.05,41.05-41.05c4.49,0,8.13,3.64,8.13,8.13s-3.64,8.13-8.13,8.13c-13.67,0-24.8,11.12-24.8,24.8s11.12,24.8,24.8,24.8c4.49,0,8.13,3.64,8.13,8.13s-3.64,8.13-8.13,8.13Z"/><path class="cls-1" d="M152.3,195.23c-4.49,0-8.13-3.64-8.13-8.13s3.64-8.13,8.13-8.13c13.67,0,24.8-11.12,24.8-24.8s-11.12-24.8-24.8-24.8c-4.49,0-8.13-3.64-8.13-8.13s3.64-8.13,8.13-8.13c22.63,0,41.05,18.41,41.05,41.05s-18.42,41.05-41.05,41.05Z"/><path class="cls-1" d="M431.1,195.23c-22.63,0-41.05-18.41-41.05-41.05s18.42-41.05,41.05-41.05c4.49,0,8.13,3.64,8.13,8.13s-3.64,8.13-8.13,8.13c-13.67,0-24.8,11.12-24.8,24.8s11.12,24.8,24.8,24.8c4.49,0,8.13,3.64,8.13,8.13s-3.64,8.13-8.13,8.13Z"/><path class="cls-1" d="M431.1,195.23c-4.49,0-8.13-3.64-8.13-8.13s3.64-8.13,8.13-8.13c13.67,0,24.8-11.12,24.8-24.8s-11.12-24.8-24.8-24.8c-4.49,0-8.13-3.64-8.13-8.13s3.64-8.13,8.13-8.13c22.63,0,41.05,18.41,41.05,41.05s-18.42,41.05-41.05,41.05Z"/><path class="cls-1" d="M584.5,122.88h-17.14c-2.69,0-4.88-2.18-4.88-4.88s2.18-4.88,4.88-4.88h17.14c2.69,0,4.88,2.18,4.88,4.88s-2.18,4.88-4.88,4.88Z"/><path class="cls-1" d="M584.5,195.23h-17.14c-2.69,0-4.88-2.18-4.88-4.88s2.18-4.88,4.88-4.88h17.14c2.69,0,4.88,2.18,4.88,4.88s-2.18,4.88-4.88,4.88Z"/><path class="cls-1" d="M575.86,185.48h-.01c-4.49,0-8.12-3.65-8.11-8.14l.07-46.36c0-4.48,3.64-8.11,8.13-8.11h.01c4.49,0,8.12,3.65,8.11,8.14l-.07,46.36c0,4.48-3.64,8.11-8.13,8.11Z"/><path class="cls-1" d="M365.38,140.97c-2.69,0-4.88-2.18-4.88-4.88,0-7.29-5.93-13.22-13.22-13.22h-.42c-2.69,0-4.88-2.18-4.88-4.88s2.18-4.88,4.88-4.88h.42c12.67,0,22.97,10.3,22.97,22.97,0,2.69-2.18,4.88-4.88,4.88Z"/><path class="cls-1" d="M347.29,159.06c-2.69,0-4.88-2.18-4.88-4.88s2.18-4.88,4.88-4.88c7.29,0,13.22-5.93,13.22-13.22,0-2.69,2.18-4.88,4.88-4.88s4.88,2.18,4.88,4.88c0,12.67-10.3,22.97-22.97,22.97Z"/><path class="cls-1" d="M347.29,195.25h-.42c-2.69,0-4.88-2.18-4.88-4.88s2.18-4.88,4.88-4.88h.42c7.29,0,13.22-5.93,13.22-13.22,0-2.69,2.18-4.88,4.88-4.88s4.88,2.18,4.88,4.88c0,12.67-10.3,22.97-22.97,22.97Z"/><path class="cls-1" d="M365.38,177.16c-2.69,0-4.88-2.18-4.88-4.88,0-7.29-5.93-13.22-13.22-13.22-2.69,0-4.88-2.18-4.88-4.88s2.18-4.88,4.88-4.88c12.67,0,22.97,10.3,22.97,22.97,0,2.69-2.18,4.88-4.88,4.88Z"/><path class="cls-1" d="M334.28,195.24c-4.49,0-8.13-3.64-8.13-8.13v-65.83c0-4.49,3.64-8.13,8.13-8.13s8.13,3.64,8.13,8.13v65.83c0,4.49-3.64,8.13-8.13,8.13Z"/><path class="cls-1" d="M68.97,195.26c-1.58,0-3.12-.76-4.06-2.17L16.66,120.71c-1.49-2.24-.89-5.27,1.35-6.76,2.24-1.49,5.27-.89,6.76,1.35l48.25,72.38c1.49,2.24.89,5.27-1.35,6.76-.83.55-1.77.82-2.7.82Z"/><path class="cls-1" d="M8.13,195.24c-4.49,0-8.13-3.64-8.13-8.13v-65.83c0-4.49,3.64-8.13,8.13-8.13s8.13,3.64,8.13,8.13v65.83c0,4.49-3.64,8.13-8.13,8.13Z"/><path class="cls-1" d="M81.56,195.24c-4.49,0-8.13-3.64-8.13-8.13v-65.83c0-4.49,3.64-8.13,8.13-8.13s8.13,3.64,8.13,8.13v65.83c0,4.49-3.64,8.13-8.13,8.13Z"/><path class="cls-1" d="M283.88,195.26c-1.58,0-3.12-.76-4.06-2.17l-48.25-72.38c-1.49-2.24-.89-5.27,1.35-6.76,2.24-1.49,5.27-.89,6.76,1.35l48.25,72.38c1.49,2.24.89,5.27-1.35,6.76-.83.55-1.77.82-2.7.82Z"/><path class="cls-1" d="M223.03,195.24c-4.49,0-8.13-3.64-8.13-8.13v-65.83c0-4.49,3.64-8.13,8.13-8.13s8.13,3.64,8.13,8.13v65.83c0,4.49-3.64,8.13-8.13,8.13Z"/><path class="cls-1" d="M296.47,195.24c-4.49,0-8.13-3.64-8.13-8.13v-65.83c0-4.49,3.64-8.13,8.13-8.13s8.13,3.64,8.13,8.13v65.83c0,4.49-3.64,8.13-8.13,8.13Z"/><path class="cls-1" d="M514.82,165.31c-2.69,0-4.88-2.18-4.88-4.88s2.18-4.88,4.88-4.88c9.01,0,16.34-7.33,16.34-16.34s-7.33-16.34-16.34-16.34h-.4c-2.69,0-4.88-2.18-4.88-4.88s2.18-4.88,4.88-4.88h.4c14.39,0,26.09,11.71,26.09,26.09s-11.71,26.09-26.09,26.09Z"/><path class="cls-1" d="M536.05,195.23c-1.58,0-3.12-.76-4.06-2.17l-14.01-21.01c-1.49-2.24-.89-5.27,1.35-6.76s5.27-.89,6.76,1.35l14.01,21.01c1.49,2.24.89,5.27-1.35,6.76-.83.55-1.77.82-2.7.82Z"/><path class="cls-1" d="M501.84,195.24c-4.49,0-8.13-3.64-8.13-8.13v-65.83c0-4.49,3.64-8.13,8.13-8.13s8.13,3.64,8.13,8.13v65.83c0,4.49-3.64,8.13-8.13,8.13Z"/><path class="cls-1" d="M672.12,140.13c-2.69,0-4.87-2.18-4.87-4.87,0-6.81-5.54-12.36-12.36-12.36s-12.36,5.54-12.36,12.36c0,2.69-2.18,4.87-4.87,4.87s-4.87-2.18-4.87-4.87c0-12.19,9.92-22.11,22.11-22.11s22.11,9.92,22.11,22.11c0,2.69-2.18,4.87-4.87,4.87Z"/><path class="cls-1" d="M654.88,157.36c-2.69,0-4.87-2.18-4.87-4.87s2.18-4.87,4.87-4.87c6.82,0,12.36-5.54,12.36-12.36,0-2.69,2.18-4.87,4.87-4.87s4.87,2.18,4.87,4.87c0,12.19-9.92,22.11-22.11,22.11Z"/><path class="cls-1" d="M654.88,180.52c-4.49,0-8.12-3.64-8.12-8.12v-6.92c0-4.49,3.64-8.12,8.12-8.12s8.12,3.64,8.12,8.12v6.92c0,4.49-3.64,8.12-8.12,8.12Z"/><path class="cls-1" d="M654.88,195.21c-2.69,0-4.87-2.18-4.87-4.87v-4.95c0-2.69,2.18-4.87,4.87-4.87s4.87,2.18,4.87,4.87v4.95c0,2.69-2.18,4.87-4.87,4.87Z"/></svg>