<?xml version="1.0" encoding="UTF-8"?><svg id="_レイヤー_1" xmlns="http://www.w3.org/2000/svg" viewBox="0 0 683.71 82.08"><defs><style>.cls-1{fill:red;}</style></defs><path class="cls-1" d="M248.53,82.06c-22.62,0-41.03-18.41-41.03-41.03S225.91,0,248.53,0c4.49,0,8.12,3.64,8.12,8.12s-3.64,8.12-8.12,8.12c-13.67,0-24.79,11.12-24.79,24.79s11.12,24.79,24.79,24.79c4.49,0,8.12,3.64,8.12,8.12s-3.64,8.12-8.12,8.12Z"/><path class="cls-1" d="M248.53,82.06c-4.49,0-8.12-3.64-8.12-8.12s3.64-8.12,8.12-8.12c13.67,0,24.79-11.12,24.79-24.79s-11.12-24.79-24.79-24.79c-4.49,0-8.12-3.64-8.12-8.12s3.64-8.12,8.12-8.12c22.62,0,41.03,18.41,41.03,41.03s-18.41,41.03-41.03,41.03Z"/><path class="cls-1" d="M8.12,82.05c-1.55,0-3.11-.44-4.5-1.36-3.73-2.49-4.74-7.53-2.25-11.26L45.24,3.62c2.49-3.73,7.53-4.74,11.26-2.25,3.73,2.49,4.74,7.53,2.25,11.26L14.88,78.43c-1.57,2.35-4.14,3.62-6.77,3.62Z"/><path class="cls-1" d="M112.16,82.05c-2.62,0-5.2-1.27-6.77-3.62L61.53,12.63c-2.49-3.73-1.48-8.78,2.25-11.26,3.73-2.49,8.78-1.48,11.26,2.25l43.87,65.81c2.49,3.73,1.48,8.78-2.25,11.26-1.38.92-2.95,1.36-4.5,1.36Z"/><path class="cls-1" d="M84.38,60.59h-48.46c-2.69,0-4.87-2.18-4.87-4.87s2.18-4.87,4.87-4.87h48.46c2.69,0,4.87,2.18,4.87,4.87s-2.18,4.87-4.87,4.87Z"/><path class="cls-1" d="M385.07,32.91c-2.69,0-4.87-2.18-4.87-4.87V4.87c0-2.69,2.18-4.87,4.87-4.87s4.87,2.18,4.87,4.87v23.17c0,2.69-2.18,4.87-4.87,4.87Z"/><path class="cls-1" d="M319.26,32.91c-2.69,0-4.87-2.18-4.87-4.87V4.87c0-2.69,2.18-4.87,4.87-4.87s4.87,2.18,4.87,4.87v23.17c0,2.69-2.18,4.87-4.87,4.87Z"/><path class="cls-1" d="M352.17,82.08c-22.62,0-41.03-18.41-41.03-41.03,0-4.49,3.64-8.12,8.12-8.12s8.12,3.64,8.12,8.12c0,13.67,11.12,24.79,24.79,24.79s24.79-11.12,24.79-24.79c0-4.49,3.64-8.12,8.12-8.12s8.12,3.64,8.12,8.12c0,22.62-18.41,41.03-41.03,41.03Z"/><path class="cls-1" d="M181.06,27.83c-2.69,0-4.87-2.18-4.87-4.87,0-7.28-5.93-13.21-13.21-13.21h-.42c-2.69,0-4.87-2.18-4.87-4.87s2.18-4.87,4.87-4.87h.42c12.66,0,22.96,10.3,22.96,22.96,0,2.69-2.18,4.87-4.87,4.87Z"/><path class="cls-1" d="M162.97,45.92c-2.69,0-4.87-2.18-4.87-4.87s2.18-4.87,4.87-4.87c7.29,0,13.21-5.93,13.21-13.21,0-2.69,2.18-4.87,4.87-4.87s4.87,2.18,4.87,4.87c0,12.66-10.3,22.96-22.96,22.96Z"/><path class="cls-1" d="M162.97,82.09h-.42c-2.69,0-4.87-2.18-4.87-4.87s2.18-4.87,4.87-4.87h.42c7.29,0,13.21-5.93,13.21-13.21,0-2.69,2.18-4.87,4.87-4.87s4.87,2.18,4.87,4.87c0,12.66-10.3,22.96-22.96,22.96Z"/><path class="cls-1" d="M181.06,64c-2.69,0-4.87-2.18-4.87-4.87,0-7.28-5.93-13.21-13.21-13.21-2.69,0-4.87-2.18-4.87-4.87s2.18-4.87,4.87-4.87c12.66,0,22.96,10.3,22.96,22.96,0,2.69-2.18,4.87-4.87,4.87Z"/><path class="cls-1" d="M149.97,82.08c-4.49,0-8.12-3.64-8.12-8.12V8.15C141.85,3.67,145.48.03,149.97.03s8.12,3.64,8.12,8.12v65.81c0,4.49-3.64,8.12-8.12,8.12Z"/><path class="cls-1" d="M441.01,82.04c-2.69,0-4.87-2.18-4.87-4.87V21.11c0-2.69,2.18-4.87,4.87-4.87s4.87,2.18,4.87,4.87v56.05c0,2.69-2.18,4.87-4.87,4.87Z"/><path class="cls-1" d="M459.14,16.25h-36.25c-4.49,0-8.12-3.64-8.12-8.12s3.64-8.12,8.12-8.12h36.25c4.49,0,8.12,3.64,8.12,8.12s-3.64,8.12-8.12,8.12Z"/><path class="cls-1" d="M649.8,49.15c-13.55,0-24.58-11.03-24.58-24.58s11.03-24.58,24.58-24.58c4.49,0,8.12,3.64,8.12,8.12s-3.64,8.12-8.12,8.12-8.33,3.74-8.33,8.33,3.74,8.33,8.33,8.33,8.12,3.64,8.12,8.12-3.64,8.12-8.12,8.12Z"/><path class="cls-1" d="M662.38,82.04c-2.69,0-4.87-2.18-4.87-4.87s2.18-4.87,4.87-4.87c6.39,0,11.58-5.2,11.58-11.58s-5.19-11.58-11.58-11.58c-2.69,0-4.87-2.18-4.87-4.87s2.18-4.87,4.87-4.87c11.76,0,21.33,9.57,21.33,21.33s-9.57,21.33-21.33,21.33Z"/><path class="cls-1" d="M602.54,32.91c-2.69,0-4.87-2.18-4.87-4.87V4.87c0-2.69,2.18-4.87,4.87-4.87s4.87,2.18,4.87,4.87v23.17c0,2.69-2.18,4.87-4.87,4.87Z"/><path class="cls-1" d="M536.72,32.91c-2.69,0-4.87-2.18-4.87-4.87V4.87c0-2.69,2.18-4.87,4.87-4.87s4.87,2.18,4.87,4.87v23.17c0,2.69-2.18,4.87-4.87,4.87Z"/><path class="cls-1" d="M569.63,82.08c-22.62,0-41.03-18.41-41.03-41.03,0-4.49,3.64-8.12,8.12-8.12s8.12,3.64,8.12,8.12c0,13.67,11.12,24.79,24.79,24.79s24.79-11.12,24.79-24.79c0-4.49,3.64-8.12,8.12-8.12s8.12,3.64,8.12,8.12c0,22.62-18.41,41.03-41.03,41.03Z"/></svg>