<?xml version="1.0" encoding="UTF-8"?><svg id="_レイヤー_1" xmlns="http://www.w3.org/2000/svg" viewBox="0 0 1440 1440"><defs><style>.cls-1{fill:#fff;}.cls-2{fill:red;}</style></defs><path class="cls-2" d="M720,0C322.38,0,0,322.35,0,720s322.38,720,720,720,720-322.35,720-720S1117.62,0,720,0Z"/><path class="cls-1" d="M910,483.59c-2.69,0-4.87-2.18-4.87-4.87v-56.05c0-2.69,2.18-4.87,4.87-4.87s4.87,2.18,4.87,4.87v56.05c0,2.69-2.18,4.87-4.87,4.87Z"/><path class="cls-1" d="M928.13,417.79h-36.25c-4.49,0-8.12-3.64-8.12-8.12s3.64-8.12,8.12-8.12h36.25c4.49,0,8.12,3.64,8.12,8.12s-3.64,8.12-8.12,8.12Z"/><path class="cls-1" d="M621.67,483.6c-1.58,0-3.12-.76-4.06-2.17l-48.2-72.3c-1.49-2.24-.89-5.27,1.35-6.76,2.24-1.49,5.27-.89,6.76,1.35l48.2,72.3c1.49,2.24.89,5.27-1.35,6.76-.83.55-1.77.82-2.7.82Z"/><path class="cls-1" d="M634.25,483.64c-1.55,0-3.11-.44-4.5-1.37-3.73-2.49-4.74-7.53-2.25-11.27l43.88-65.83c2.49-3.73,7.53-4.74,11.26-2.25,3.73,2.49,4.74,7.53,2.25,11.27l-43.88,65.83c-1.57,2.35-4.14,3.62-6.77,3.62Z"/><path class="cls-1" d="M542,411.3h-17.55c-2.69,0-4.87-2.18-4.87-4.87s2.18-4.87,4.87-4.87h17.55c2.69,0,4.87,2.18,4.87,4.87s-2.18,4.87-4.87,4.87Z"/><path class="cls-1" d="M542,483.64h-17.55c-2.69,0-4.87-2.18-4.87-4.87s2.18-4.87,4.87-4.87h17.55c2.69,0,4.87,2.18,4.87,4.87s-2.18,4.87-4.87,4.87Z"/><path class="cls-1" d="M511.87,483.64c-4.49,0-8.12-3.64-8.12-8.12v-65.81c0-4.49,3.64-8.12,8.12-8.12s8.12,3.64,8.12,8.12v65.81c0,4.49-3.64,8.12-8.12,8.12Z"/><path class="cls-1" d="M542,447.47h-17.14c-2.69,0-4.87-2.18-4.87-4.87s2.18-4.87,4.87-4.87h17.14c2.69,0,4.87,2.18,4.87,4.87s-2.18,4.87-4.87,4.87Z"/><path class="cls-1" d="M746.08,411.3h-17.55c-2.69,0-4.87-2.18-4.87-4.87s2.18-4.87,4.87-4.87h17.55c2.69,0,4.87,2.18,4.87,4.87s-2.18,4.87-4.87,4.87Z"/><path class="cls-1" d="M746.08,483.64h-17.55c-2.69,0-4.87-2.18-4.87-4.87s2.18-4.87,4.87-4.87h17.55c2.69,0,4.87,2.18,4.87,4.87s-2.18,4.87-4.87,4.87Z"/><path class="cls-1" d="M715.96,483.64c-4.49,0-8.12-3.64-8.12-8.12v-65.81c0-4.49,3.64-8.12,8.12-8.12s8.12,3.64,8.12,8.12v65.81c0,4.49-3.64,8.12-8.12,8.12Z"/><path class="cls-1" d="M746.08,447.47h-17.14c-2.69,0-4.87-2.18-4.87-4.87s2.18-4.87,4.87-4.87h17.14c2.69,0,4.87,2.18,4.87,4.87s-2.18,4.87-4.87,4.87Z"/><path class="cls-1" d="M841.48,483.65c-1.58,0-3.12-.76-4.06-2.17l-48.24-72.35c-1.49-2.24-.89-5.27,1.35-6.76,2.24-1.49,5.27-.89,6.76,1.35l48.24,72.35c1.49,2.24.89,5.27-1.35,6.76-.83.55-1.77.82-2.7.82Z"/><path class="cls-1" d="M780.65,483.64c-4.49,0-8.12-3.64-8.12-8.12v-65.81c0-4.49,3.64-8.12,8.12-8.12s8.12,3.64,8.12,8.12v65.81c0,4.49-3.64,8.12-8.12,8.12Z"/><path class="cls-1" d="M854.06,483.64c-4.49,0-8.12-3.64-8.12-8.12v-65.81c0-4.49,3.64-8.12,8.12-8.12s8.12,3.64,8.12,8.12v65.81c0,4.49-3.64,8.12-8.12,8.12Z"/><rect class="cls-1" x="802.24" y="452.84" width="396.53" height="635.15" rx="120" ry="120" transform="translate(1770.92 -230.09) rotate(90)"/><rect class="cls-1" x="120.5" y="882.61" width="150.16" height="50.04" rx="23.4" ry="23.4" transform="translate(391.15 1815.26) rotate(180)"/><path class="cls-1" d="M293.22,688.65c-15.86,0-28.77-12.91-28.77-28.77s12.91-28.77,28.77-28.77c3.15,0,5.7,2.55,5.7,5.7s-2.55,5.7-5.7,5.7c-9.58,0-17.38,7.8-17.38,17.38s7.8,17.38,17.38,17.38c3.15,0,5.7,2.55,5.7,5.7s-2.55,5.7-5.7,5.7Z"/><path class="cls-1" d="M293.22,688.65c-3.15,0-5.7-2.55-5.7-5.7s2.55-5.7,5.7-5.7c9.58,0,17.38-7.8,17.38-17.38s-7.8-17.38-17.38-17.38c-3.15,0-5.7-2.55-5.7-5.7s2.55-5.7,5.7-5.7c15.86,0,28.77,12.91,28.77,28.77s-12.91,28.77-28.77,28.77Z"/><path class="cls-1" d="M412.3,688.65c-15.86,0-28.77-12.91-28.77-28.77s12.91-28.77,28.77-28.77c3.15,0,5.7,2.55,5.7,5.7s-2.55,5.7-5.7,5.7c-9.58,0-17.38,7.8-17.38,17.38s7.8,17.38,17.38,17.38c3.15,0,5.7,2.55,5.7,5.7s-2.55,5.7-5.7,5.7Z"/><path class="cls-1" d="M412.3,688.65c-3.15,0-5.7-2.55-5.7-5.7s2.55-5.7,5.7-5.7c9.58,0,17.38-7.8,17.38-17.38s-7.8-17.38-17.38-17.38c-3.15,0-5.7-2.55-5.7-5.7s2.55-5.7,5.7-5.7c15.86,0,28.77,12.91,28.77,28.77s-12.91,28.77-28.77,28.77Z"/><path class="cls-1" d="M129.52,688.64c-1.09,0-2.18-.31-3.15-.96-2.62-1.74-3.32-5.28-1.58-7.9l30.76-46.14c1.74-2.62,5.28-3.32,7.9-1.58,2.62,1.74,3.32,5.28,1.58,7.9l-30.76,46.14c-1.1,1.65-2.9,2.54-4.74,2.54Z"/><path class="cls-1" d="M202.47,688.64c-1.84,0-3.65-.89-4.74-2.54l-30.76-46.14c-1.74-2.62-1.04-6.15,1.58-7.9,2.62-1.74,6.15-1.04,7.9,1.58l30.76,46.14c1.74,2.62,1.04,6.15-1.58,7.9-.97.65-2.07.96-3.15.96Z"/><path class="cls-1" d="M182.99,673.6h-33.98c-1.89,0-3.42-1.53-3.42-3.42s1.53-3.42,3.42-3.42h33.98c1.89,0,3.42,1.53,3.42,3.42s-1.53,3.42-3.42,3.42Z"/><path class="cls-1" d="M228.67,665.58c-9.5,0-17.23-7.73-17.23-17.23s7.73-17.23,17.23-17.23c3.15,0,5.7,2.55,5.7,5.7s-2.55,5.7-5.7,5.7-5.84,2.62-5.84,5.84,2.62,5.84,5.84,5.84,5.7,2.55,5.7,5.7-2.55,5.7-5.7,5.7Z"/><path class="cls-1" d="M237.49,688.63c-1.89,0-3.42-1.53-3.42-3.42s1.53-3.42,3.42-3.42c4.48,0,8.12-3.64,8.12-8.12s-3.64-8.12-8.12-8.12c-1.89,0-3.42-1.53-3.42-3.42s1.53-3.42,3.42-3.42c8.25,0,14.95,6.71,14.95,14.95s-6.71,14.95-14.95,14.95Z"/><path class="cls-1" d="M365,650.63c-1.89,0-3.42-1.53-3.42-3.42,0-5.11-4.16-9.26-9.26-9.26h-.3c-1.89,0-3.42-1.53-3.42-3.42s1.53-3.42,3.42-3.42h.3c8.88,0,16.1,7.22,16.1,16.1,0,1.89-1.53,3.42-3.42,3.42Z"/><path class="cls-1" d="M352.32,663.31c-1.89,0-3.42-1.53-3.42-3.42s1.53-3.42,3.42-3.42c5.11,0,9.26-4.16,9.26-9.26,0-1.89,1.53-3.42,3.42-3.42s3.42,1.53,3.42,3.42c0,8.88-7.22,16.1-16.1,16.1Z"/><path class="cls-1" d="M352.32,688.67h-.3c-1.89,0-3.42-1.53-3.42-3.42s1.53-3.42,3.42-3.42h.3c5.11,0,9.26-4.16,9.26-9.26,0-1.89,1.53-3.42,3.42-3.42s3.42,1.53,3.42,3.42c0,8.88-7.22,16.1-16.1,16.1Z"/><path class="cls-1" d="M365,675.99c-1.89,0-3.42-1.53-3.42-3.42,0-5.11-4.16-9.26-9.26-9.26-1.89,0-3.42-1.53-3.42-3.42s1.53-3.42,3.42-3.42c8.88,0,16.1,7.22,16.1,16.1,0,1.89-1.53,3.42-3.42,3.42Z"/><path class="cls-1" d="M343.2,688.66c-3.15,0-5.7-2.55-5.7-5.7v-46.14c0-3.15,2.55-5.7,5.7-5.7s5.7,2.55,5.7,5.7v46.14c0,3.15-2.55,5.7-5.7,5.7Z"/><path class="cls-1" d="M461.88,677.3c-3.14,0-5.69-2.55-5.69-5.69v-34.8c0-3.14,2.55-5.69,5.69-5.69s5.69,2.55,5.69,5.69v34.8c0,3.14-2.55,5.69-5.69,5.69Z"/><path class="cls-1" d="M461.88,688.63c-1.89,0-3.42-1.53-3.42-3.42v-4.58c0-1.89,1.53-3.42,3.42-3.42s3.42,1.53,3.42,3.42v4.58c0,1.89-1.53,3.42-3.42,3.42Z"/></svg>