<?xml version="1.0" encoding="UTF-8"?><svg id="_レイヤー_1" xmlns="http://www.w3.org/2000/svg" viewBox="0 0 370.59 129.11"><defs><style>.cls-1{fill:red;}</style></defs><path class="cls-1" d="M285.02,71.73c-15.79,0-28.64,12.85-28.64,28.64s12.85,28.64,28.64,28.64,28.64-12.85,28.64-28.64-12.85-28.64-28.64-28.64ZM285.02,117.67c-9.54,0-17.3-7.76-17.3-17.3s7.76-17.3,17.3-17.3,17.3,7.76,17.3,17.3-7.76,17.3-17.3,17.3Z"/><path class="cls-1" d="M157.98,71.73h-11.96c-1.88,0-3.4,1.52-3.4,3.4s1.52,3.4,3.4,3.4h11.96c1.88,0,3.4-1.52,3.4-3.4s-1.52-3.4-3.4-3.4Z"/><path class="cls-1" d="M157.98,122.08h-5.69c3-.15,5.38-2.62,5.38-5.65v-32.22c0-3.13-2.54-5.67-5.67-5.67s-5.67,2.54-5.67,5.67v32.22c0,3.03,2.39,5.5,5.38,5.65h-5.69c-1.88,0-3.4,1.52-3.4,3.4s1.52,3.4,3.4,3.4h11.96c1.88,0,3.4-1.52,3.4-3.4s-1.52-3.4-3.4-3.4Z"/><path class="cls-1" d="M99.68,71.73c-9.39,0-17.74,4.55-22.97,11.55-5.23-7.01-13.57-11.55-22.97-11.55-15.79,0-28.64,12.85-28.64,28.64,0,3.12,2.52,5.65,5.64,5.67-1.87.01-3.37,1.53-3.37,3.4v16.17c0,1.88,1.52,3.4,3.4,3.4s3.4-1.52,3.4-3.4v-16.17c0-1.87-1.51-3.39-3.37-3.4,3.12-.01,5.64-2.55,5.64-5.67,0-9.54,7.76-17.3,17.3-17.3s17.3,7.76,17.3,17.3c0,3.12,2.52,5.65,5.64,5.67-1.87.01-3.37,1.53-3.37,3.4v16.17c0,1.88,1.52,3.4,3.4,3.4s3.4-1.52,3.4-3.4v-16.17c0-1.87-1.51-3.39-3.37-3.4,3.12-.01,5.64-2.55,5.64-5.67,0-9.54,7.76-17.3,17.3-17.3s17.3,7.76,17.3,17.3c0,3.12,2.52,5.65,5.64,5.67-1.87.01-3.37,1.53-3.37,3.4v16.17c0,1.88,1.52,3.4,3.4,3.4s3.4-1.52,3.4-3.4v-16.17c0-1.87-1.51-3.39-3.37-3.4,3.12-.01,5.64-2.55,5.64-5.67,0-15.79-12.85-28.64-28.64-28.64Z"/><path class="cls-1" d="M244.05,87.85c0-8.82-7.18-16-16-16h-.27c-1.88,0-3.4,1.52-3.4,3.4s1.52,3.4,3.4,3.4h.27c5.07,0,9.2,4.13,9.2,9.2s-4.13,9.2-9.2,9.2c-1.88,0-3.4,1.52-3.4,3.4s1.52,3.4,3.4,3.4c5.07,0,9.2,4.13,9.2,9.2s-4.13,9.2-9.2,9.2h-.27c-1.88,0-3.4,1.52-3.4,3.4s1.52,3.4,3.4,3.4h.27c8.82,0,16-7.18,16-16,0-5.11-2.41-9.67-6.16-12.6,3.74-2.93,6.16-7.49,6.16-12.6Z"/><path class="cls-1" d="M224.63,77.4c0-3.13-2.54-5.67-5.67-5.67s-5.67,2.54-5.67,5.67v45.97c0,3.13,2.54,5.67,5.67,5.67s5.67-2.54,5.67-5.67v-45.97Z"/><path class="cls-1" d="M193.31,96.86h-11.96c-3.13,0-5.67,2.54-5.67,5.67s2.54,5.67,5.67,5.67h11.96c3.13,0,5.67-2.54,5.67-5.67s-2.54-5.67-5.67-5.67Z"/><path class="cls-1" d="M343.07,96.92h-11.96c-3.13,0-5.67,2.54-5.67,5.67s2.54,5.67,5.67,5.67h11.96c3.13,0,5.67-2.54,5.67-5.67s-2.54-5.67-5.67-5.67Z"/><path class="cls-1" d="M294.17,3.41h-6c-.94,0-1.71-.76-1.71-1.71S287.23,0,288.18,0h6C295.12,0,295.88.76,295.88,1.71s-.76,1.71-1.71,1.71Z"/><path class="cls-1" d="M294.17,28.72h-6c-.94,0-1.71-.76-1.71-1.71s.76-1.71,1.71-1.71h6c.94,0,1.71.76,1.71,1.71s-.76,1.71-1.71,1.71Z"/><path class="cls-1" d="M291.15,25.31h0c-1.57,0-2.84-1.28-2.84-2.85l.02-16.22c0-1.57,1.27-2.84,2.84-2.84h0c1.57,0,2.84,1.28,2.84,2.85l-.02,16.22c0,1.57-1.27,2.84-2.84,2.84Z"/><path class="cls-1" d="M260.05,28.73c-.94,0-1.71-.76-1.71-1.71V1.71c0-.94.76-1.71,1.71-1.71s1.71.76,1.71,1.71v25.32c0,.94-.76,1.71-1.71,1.71Z"/><path class="cls-1" d="M264.6,28.73c-1.57,0-2.84-1.27-2.84-2.84s1.27-2.84,2.84-2.84c4.79,0,8.68-3.89,8.68-8.68,0-1.57,1.27-2.84,2.84-2.84s2.84,1.27,2.84,2.84c0,7.92-6.44,14.37-14.37,14.37Z"/><path class="cls-1" d="M276.12,17.21c-1.57,0-2.84-1.27-2.84-2.84,0-4.79-3.89-8.68-8.68-8.68-1.57,0-2.84-1.27-2.84-2.84S263.03,0,264.6,0C272.52,0,278.97,6.44,278.97,14.37c0,1.57-1.27,2.84-2.84,2.84Z"/><path class="cls-1" d="M312.03,17.2c-4.74,0-8.6-3.86-8.6-8.6S307.28,0,312.03,0C313.6,0,314.87,1.27,314.87,2.84s-1.27,2.84-2.84,2.84-2.92,1.31-2.92,2.92,1.31,2.92,2.92,2.92,2.84,1.27,2.84,2.84-1.27,2.84-2.84,2.84Z"/><path class="cls-1" d="M316.43,28.71c-.94,0-1.71-.76-1.71-1.71s.76-1.71,1.71-1.71c2.23,0,4.05-1.82,4.05-4.05s-1.82-4.05-4.05-4.05c-.94,0-1.71-.76-1.71-1.71s.76-1.71,1.71-1.71c4.12,0,7.46,3.35,7.46,7.46s-3.35,7.46-7.46,7.46Z"/><path class="cls-1" d="M158.96,16.06h-21.04c-.94,0-1.71-.76-1.71-1.71s.76-1.71,1.71-1.71h21.04c.94,0,1.71.76,1.71,1.71s-.76,1.71-1.71,1.71Z"/><path class="cls-1" d="M133.37,28.72c-1.57,0-2.84-1.27-2.84-2.84V2.84C130.53,1.27,131.8,0,133.37,0s2.84,1.27,2.84,2.84v23.03c0,1.57-1.27,2.84-2.84,2.84Z"/><path class="cls-1" d="M163.51,28.72c-1.57,0-2.84-1.27-2.84-2.84V2.84C160.66,1.27,161.94,0,163.51,0s2.84,1.27,2.84,2.84v23.03c0,1.57-1.27,2.84-2.84,2.84Z"/><path class="cls-1" d="M344.82,3.41h-6.14c-.94,0-1.71-.76-1.71-1.71S337.74,0,338.68,0h6.14c.94,0,1.71.76,1.71,1.71s-.76,1.71-1.71,1.71Z"/><path class="cls-1" d="M344.82,28.73h-6.14c-.94,0-1.71-.76-1.71-1.71s.76-1.71,1.71-1.71h6.14c.94,0,1.71.76,1.71,1.71s-.76,1.71-1.71,1.71Z"/><path class="cls-1" d="M334.28,28.73c-1.57,0-2.84-1.27-2.84-2.84V2.85c0-1.57,1.27-2.84,2.84-2.84s2.84,1.27,2.84,2.84v23.03c0,1.57-1.27,2.84-2.84,2.84Z"/><path class="cls-1" d="M344.82,16.07h-6c-.94,0-1.71-.76-1.71-1.71s.76-1.71,1.71-1.71h6c.94,0,1.71.76,1.71,1.71s-.76,1.71-1.71,1.71Z"/><path class="cls-1" d="M72.69,3.41h-6.14c-.94,0-1.71-.76-1.71-1.71S65.6,0,66.55,0h6.14c.94,0,1.71.76,1.71,1.71s-.76,1.71-1.71,1.71Z"/><path class="cls-1" d="M72.69,28.73h-6.14c-.94,0-1.71-.76-1.71-1.71s.76-1.71,1.71-1.71h6.14c.94,0,1.71.76,1.71,1.71s-.76,1.71-1.71,1.71Z"/><path class="cls-1" d="M62.14,28.73c-1.57,0-2.84-1.27-2.84-2.84V2.85C59.3,1.28,60.57.01,62.14.01s2.84,1.27,2.84,2.84v23.03c0,1.57-1.27,2.84-2.84,2.84Z"/><path class="cls-1" d="M72.69,16.07h-6c-.94,0-1.71-.76-1.71-1.71s.76-1.71,1.71-1.71h6c.94,0,1.71.76,1.71,1.71s-.76,1.71-1.71,1.71Z"/><path class="cls-1" d="M243.58,28.73c-.55,0-1.09-.27-1.42-.76l-16.88-25.32c-.52-.78-.31-1.84.47-2.37.78-.52,1.84-.31,2.37.47l16.88,25.32c.52.78.31,1.84-.47,2.37-.29.19-.62.29-.94.29Z"/><path class="cls-1" d="M222.29,28.73c-1.57,0-2.84-1.27-2.84-2.84V2.85c0-1.57,1.27-2.84,2.84-2.84s2.84,1.27,2.84,2.84v23.03c0,1.57-1.27,2.84-2.84,2.84Z"/><path class="cls-1" d="M247.98,28.73c-1.57,0-2.84-1.27-2.84-2.84V2.85c0-1.57,1.27-2.84,2.84-2.84s2.84,1.27,2.84,2.84v23.03c0,1.57-1.27,2.84-2.84,2.84Z"/><path class="cls-1" d="M361.46,18.26c-.94,0-1.71-.76-1.71-1.71s.76-1.71,1.71-1.71c3.15,0,5.72-2.56,5.72-5.72s-2.56-5.72-5.72-5.72h-.14c-.94,0-1.71-.76-1.71-1.71S360.37,0,361.32,0h.14C366.49,0,370.59,4.1,370.59,9.13s-4.1,9.13-9.13,9.13Z"/><path class="cls-1" d="M368.88,28.72c-.55,0-1.09-.27-1.42-.76l-4.9-7.35c-.52-.78-.31-1.84.47-2.37.78-.52,1.84-.31,2.37.47l4.9,7.35c.52.78.31,1.84-.47,2.37-.29.19-.62.29-.94.29Z"/><path class="cls-1" d="M356.91,28.73c-1.57,0-2.84-1.27-2.84-2.84V2.85c0-1.57,1.27-2.84,2.84-2.84s2.84,1.27,2.84,2.84v23.03c0,1.57-1.27,2.84-2.84,2.84Z"/><path class="cls-1" d="M174.5,28.72c-.54,0-1.09-.15-1.57-.48-1.31-.87-1.66-2.64-.79-3.94l15.35-23.03c.87-1.31,2.64-1.66,3.94-.79,1.31.87,1.66,2.64.79,3.94l-15.35,23.03c-.55.82-1.45,1.27-2.37,1.27Z"/><path class="cls-1" d="M210.92,28.72c-.92,0-1.82-.44-2.37-1.27l-15.35-23.03c-.87-1.31-.52-3.07.79-3.94,1.31-.87,3.07-.52,3.94.79l15.35,23.03c.87,1.31.52,3.07-.79,3.94-.48.32-1.03.48-1.57.48Z"/><path class="cls-1" d="M201.2,21.21h-16.96c-.94,0-1.71-.76-1.71-1.71s.76-1.71,1.71-1.71h16.96c.94,0,1.71.76,1.71,1.71s-.76,1.71-1.71,1.71Z"/><path class="cls-1" d="M25.88,17.2c-1.57,0-2.84-1.27-2.84-2.84,0-4.78-3.89-8.68-8.68-8.68s-8.68,3.89-8.68,8.68c0,1.57-1.27,2.84-2.84,2.84s-2.84-1.27-2.84-2.84C0,6.44,6.44,0,14.36,0s14.36,6.44,14.36,14.36c0,1.57-1.27,2.84-2.84,2.84Z"/><path class="cls-1" d="M48.91,17.2c-1.57,0-2.84-1.27-2.84-2.84,0-4.78-3.89-8.68-8.68-8.68s-8.68,3.89-8.68,8.68c0,1.57-1.27,2.84-2.84,2.84s-2.84-1.27-2.84-2.84C23.04,6.44,29.48,0,37.4,0s14.36,6.44,14.36,14.36c0,1.57-1.27,2.84-2.84,2.84Z"/><path class="cls-1" d="M2.84,28.71c-.94,0-1.71-.76-1.71-1.71v-8.1c0-.94.76-1.71,1.71-1.71s1.71.76,1.71,1.71v8.1c0,.94-.76,1.71-1.71,1.71Z"/><path class="cls-1" d="M25.88,28.71c-.94,0-1.71-.76-1.71-1.71v-8.1c0-.94.76-1.71,1.71-1.71s1.71.76,1.71,1.71v8.1c0,.94-.76,1.71-1.71,1.71Z"/><path class="cls-1" d="M48.91,28.71c-.94,0-1.71-.76-1.71-1.71v-8.1c0-.94.76-1.71,1.71-1.71s1.71.76,1.71,1.71v8.1c0,.94-.76,1.71-1.71,1.71Z"/><path class="cls-1" d="M120.36,28.73c-7.92,0-14.37-6.44-14.37-14.37,0-1.57,1.27-2.84,2.84-2.84s2.84,1.27,2.84,2.84c0,4.79,3.89,8.68,8.68,8.68,1.57,0,2.84,1.27,2.84,2.84s-1.27,2.84-2.84,2.84Z"/><path class="cls-1" d="M108.84,17.21c-1.57,0-2.84-1.27-2.84-2.84C105.99,6.44,112.44,0,120.36,0,121.93,0,123.2,1.27,123.2,2.84s-1.27,2.84-2.84,2.84c-4.79,0-8.68,3.89-8.68,8.68,0,1.57-1.27,2.84-2.84,2.84Z"/><path class="cls-1" d="M89.32,18.26c-.94,0-1.71-.76-1.71-1.71s.76-1.71,1.71-1.71c3.15,0,5.72-2.56,5.72-5.72s-2.56-5.72-5.72-5.72h-.14c-.94,0-1.71-.76-1.71-1.71S88.24,0,89.18,0h.14C94.36,0,98.45,4.1,98.45,9.13s-4.1,9.13-9.13,9.13Z"/><path class="cls-1" d="M96.75,28.72c-.55,0-1.09-.27-1.42-.76l-4.9-7.35c-.52-.78-.31-1.84.47-2.37s1.84-.31,2.37.47l4.9,7.35c.52.78.31,1.84-.47,2.37-.29.19-.62.29-.94.29Z"/><path class="cls-1" d="M84.78,28.73c-1.57,0-2.84-1.27-2.84-2.84V2.85c0-1.57,1.27-2.84,2.84-2.84s2.84,1.27,2.84,2.84v23.03c0,1.57-1.27,2.84-2.84,2.84Z"/></svg>