<?xml version="1.0" encoding="UTF-8"?><svg id="_レイヤー_1" xmlns="http://www.w3.org/2000/svg" viewBox="0 0 304.76 129.11"><defs><style>.cls-1{fill:red;}</style></defs><path class="cls-1" d="M132.85,72.74c-2.61-1.74-6.13-1.03-7.87,1.57l-30.61,45.92c-1.74,2.61-1.03,6.13,1.57,7.87.97.64,2.06.95,3.14.95,1.83,0,3.63-.89,4.72-2.53l30.61-45.92c1.74-2.61,1.03-6.13-1.57-7.87Z"/><path class="cls-1" d="M145.79,74.31c-1.74-2.61-5.26-3.31-7.87-1.57-2.61,1.74-3.31,5.26-1.57,7.87l30.61,45.92c1.09,1.64,2.89,2.53,4.72,2.53,1.08,0,2.17-.31,3.14-.95,2.61-1.74,3.31-5.26,1.57-7.87l-30.61-45.92Z"/><path class="cls-1" d="M152.31,107.29h-33.84c-1.88,0-3.4,1.52-3.4,3.4s1.52,3.4,3.4,3.4h33.84c1.88,0,3.4-1.52,3.4-3.4s-1.52-3.4-3.4-3.4Z"/><path class="cls-1" d="M78.25,71.78c-3.13,0-5.67,2.54-5.67,5.67v23.51c-.03-1.85-1.54-3.35-3.4-3.35H27.2c-1.85,0-3.36,1.48-3.4,3.33v-23.49c0-3.13-2.54-5.67-5.67-5.67s-5.67,2.54-5.67,5.67v45.93c0,3.13,2.54,5.67,5.67,5.67s5.67-2.54,5.67-5.67v-22.28c.04,1.84,1.55,3.33,3.4,3.33h41.97c1.86,0,3.37-1.49,3.4-3.35v22.31c0,3.13,2.54,5.67,5.67,5.67s5.67-2.54,5.67-5.67v-45.93c0-3.13-2.54-5.67-5.67-5.67Z"/><path class="cls-1" d="M202.54,71.8h-.28c-1.88,0-3.4,1.52-3.4,3.4s1.52,3.4,3.4,3.4h.28c6.29,0,11.41,5.12,11.41,11.41s-5.12,11.41-11.41,11.41c-1.85,0-3.35,1.47-3.4,3.3v-27.27c0-3.13-2.54-5.67-5.67-5.67s-5.67,2.54-5.67,5.67v46.02c0,3.13,2.54,5.67,5.67,5.67s5.67-2.54,5.67-5.67v-18.55c.05,1.83,1.55,3.3,3.4,3.3,10.04,0,18.21-8.17,18.21-18.21s-8.17-18.21-18.21-18.21Z"/><path class="cls-1" d="M210.25,109.2c-1.04-1.56-3.16-1.99-4.72-.94-1.56,1.04-1.99,3.16-.94,4.72l9.76,14.64c.66.98,1.73,1.52,2.84,1.52.65,0,1.3-.19,1.88-.57,1.56-1.04,1.99-3.16.94-4.72l-9.76-14.64Z"/><path class="cls-1" d="M286.73,83.19c1.83-.05,3.3-1.55,3.3-3.4v-4.6c0-1.88-1.52-3.4-3.4-3.4s-3.4,1.52-3.4,3.4v4.6c0,1.85,1.47,3.34,3.3,3.4-3.09.05-5.57,2.57-5.57,5.67v11.62c0,9.54-7.76,17.31-17.31,17.31s-17.31-7.76-17.31-17.31v-11.62c0-3.1-2.49-5.61-5.57-5.67,1.83-.05,3.3-1.55,3.3-3.4v-4.6c0-1.88-1.52-3.4-3.4-3.4s-3.4,1.52-3.4,3.4v4.6c0,1.85,1.47,3.34,3.3,3.4-3.09.05-5.57,2.57-5.57,5.67v11.62c0,15.8,12.85,28.65,28.65,28.65s28.65-12.85,28.65-28.65v-11.62c0-3.1-2.49-5.61-5.57-5.67Z"/><path class="cls-1" d="M266.29,28.76c-7.93,0-14.38-6.45-14.38-14.38S258.36,0,266.29,0C267.86,0,269.14,1.27,269.14,2.85s-1.27,2.85-2.85,2.85c-4.79,0-8.69,3.9-8.69,8.69s3.9,8.69,8.69,8.69c1.57,0,2.85,1.27,2.85,2.85s-1.27,2.85-2.85,2.85Z"/><path class="cls-1" d="M266.29,28.76c-1.57,0-2.85-1.27-2.85-2.85s1.27-2.85,2.85-2.85c4.79,0,8.69-3.9,8.69-8.69s-3.9-8.69-8.69-8.69c-1.57,0-2.85-1.27-2.85-2.85S264.72,0,266.29,0C274.22,0,280.67,6.45,280.67,14.38s-6.45,14.38-14.38,14.38Z"/><path class="cls-1" d="M2.84,28.76c-.54,0-1.09-.15-1.58-.48-1.31-.87-1.66-2.64-.79-3.95L15.85,1.27c.87-1.31,2.64-1.66,3.95-.79,1.31.87,1.66,2.64.79,3.95L5.22,27.49c-.55.82-1.45,1.27-2.37,1.27Z"/><path class="cls-1" d="M39.31,28.76c-.92,0-1.82-.45-2.37-1.27L21.56,4.43c-.87-1.31-.52-3.08.79-3.95,1.31-.87,3.08-.52,3.95.79l15.38,23.06c.87,1.31.52,3.08-.79,3.95-.49.32-1.03.48-1.58.48Z"/><path class="cls-1" d="M29.57,21.24H12.59c-.94,0-1.71-.76-1.71-1.71s.76-1.71,1.71-1.71h16.98c.94,0,1.71.76,1.71,1.71s-.76,1.71-1.71,1.71Z"/><path class="cls-1" d="M238.4,28.75c-.94,0-1.71-.76-1.71-1.71V7.4c0-.94.76-1.71,1.71-1.71s1.71.76,1.71,1.71v19.64c0,.94-.76,1.71-1.71,1.71Z"/><path class="cls-1" d="M244.75,5.69h-12.71c-1.57,0-2.85-1.27-2.85-2.85S230.48,0,232.05,0h12.71C246.33,0,247.6,1.27,247.6,2.85s-1.27,2.85-2.85,2.85Z"/><path class="cls-1" d="M82.82,28.75c-.94,0-1.71-.76-1.71-1.71V7.4c0-.94.76-1.71,1.71-1.71s1.71.76,1.71,1.71v19.64c0,.94-.76,1.71-1.71,1.71Z"/><path class="cls-1" d="M89.17,5.69h-12.71c-1.57,0-2.85-1.27-2.85-2.85S74.89,0,76.46,0h12.71C90.74,0,92.01,1.27,92.01,2.85s-1.27,2.85-2.85,2.85Z"/><path class="cls-1" d="M149.75,3.42h-6.01c-.94,0-1.71-.76-1.71-1.71S142.8,0,143.75,0h6.01C150.7,0,151.46.76,151.46,1.71s-.76,1.71-1.71,1.71Z"/><path class="cls-1" d="M149.75,28.76h-6.01c-.94,0-1.71-.76-1.71-1.71s.76-1.71,1.71-1.71h6.01c.94,0,1.71.76,1.71,1.71s-.76,1.71-1.71,1.71Z"/><path class="cls-1" d="M146.73,25.35h0c-1.57,0-2.85-1.28-2.84-2.85l.02-16.24c0-1.57,1.28-2.84,2.85-2.84h0c1.57,0,2.85,1.28,2.84,2.85l-.02,16.24c0,1.57-1.28,2.84-2.85,2.84Z"/><path class="cls-1" d="M220.16,28.77c-7.93,0-14.38-6.45-14.38-14.38,0-1.57,1.27-2.85,2.85-2.85s2.85,1.27,2.85,2.85c0,4.79,3.9,8.69,8.69,8.69,1.57,0,2.85,1.27,2.85,2.85s-1.27,2.85-2.85,2.85Z"/><path class="cls-1" d="M208.62,17.23c-1.57,0-2.85-1.27-2.85-2.85C205.77,6.45,212.22,0,220.16,0,221.73,0,223,1.27,223,2.85s-1.27,2.85-2.85,2.85c-4.79,0-8.69,3.9-8.69,8.69,0,1.57-1.27,2.85-2.85,2.85Z"/><path class="cls-1" d="M115.55,28.77c-.94,0-1.71-.76-1.71-1.71V1.71C113.84.76,114.6,0,115.55,0s1.71.76,1.71,1.71v25.35c0,.94-.76,1.71-1.71,1.71Z"/><path class="cls-1" d="M120.1,28.77c-1.57,0-2.85-1.27-2.85-2.85s1.27-2.85,2.85-2.85c4.79,0,8.69-3.9,8.69-8.69,0-1.57,1.27-2.85,2.85-2.85s2.85,1.27,2.85,2.85c0,7.93-6.45,14.38-14.38,14.38Z"/><path class="cls-1" d="M131.64,17.23c-1.57,0-2.85-1.27-2.85-2.85,0-4.79-3.9-8.69-8.69-8.69-1.57,0-2.85-1.27-2.85-2.85S118.53,0,120.1,0C128.03,0,134.49,6.45,134.49,14.38c0,1.57-1.27,2.85-2.85,2.85Z"/><path class="cls-1" d="M196.51,3.42h-6.15c-.94,0-1.71-.76-1.71-1.71S189.42,0,190.36,0h6.15c.94,0,1.71.76,1.71,1.71s-.76,1.71-1.71,1.71Z"/><path class="cls-1" d="M196.51,28.77h-6.15c-.94,0-1.71-.76-1.71-1.71s.76-1.71,1.71-1.71h6.15c.94,0,1.71.76,1.71,1.71s-.76,1.71-1.71,1.71Z"/><path class="cls-1" d="M185.95,28.77c-1.57,0-2.85-1.27-2.85-2.85V2.86c0-1.57,1.27-2.85,2.85-2.85s2.85,1.27,2.85,2.85v23.06c0,1.57-1.27,2.85-2.85,2.85Z"/><path class="cls-1" d="M196.51,16.09h-6.01c-.94,0-1.71-.76-1.71-1.71s.76-1.71,1.71-1.71h6.01c.94,0,1.71.76,1.71,1.71s-.76,1.71-1.71,1.71Z"/><path class="cls-1" d="M295.62,18.28c-.94,0-1.71-.76-1.71-1.71s.76-1.71,1.71-1.71c3.16,0,5.72-2.57,5.72-5.72s-2.57-5.72-5.72-5.72h-.14c-.94,0-1.71-.76-1.71-1.71S294.53,0,295.48,0h.14C300.66,0,304.76,4.1,304.76,9.14s-4.1,9.14-9.14,9.14Z"/><path class="cls-1" d="M303.05,28.76c-.55,0-1.09-.27-1.42-.76l-4.91-7.36c-.52-.78-.31-1.85.47-2.37.78-.52,1.85-.31,2.37.47l4.91,7.36c.52.78.31,1.85-.47,2.37-.29.19-.62.29-.95.29Z"/><path class="cls-1" d="M291.07,28.77c-1.57,0-2.85-1.27-2.85-2.85V2.86c0-1.57,1.27-2.85,2.85-2.85s2.85,1.27,2.85,2.85v23.06c0,1.57-1.27,2.85-2.85,2.85Z"/><path class="cls-1" d="M166.41,18.28c-.94,0-1.71-.76-1.71-1.71s.76-1.71,1.71-1.71c3.16,0,5.72-2.57,5.72-5.72s-2.57-5.72-5.72-5.72h-.14c-.94,0-1.71-.76-1.71-1.71S165.33,0,166.27,0h.14C171.45,0,175.55,4.1,175.55,9.14s-4.1,9.14-9.14,9.14Z"/><path class="cls-1" d="M173.85,28.76c-.55,0-1.09-.27-1.42-.76l-4.91-7.36c-.52-.78-.31-1.85.47-2.37.78-.52,1.85-.31,2.37.47l4.91,7.36c.52.78.31,1.85-.47,2.37-.29.19-.62.29-.95.29Z"/><path class="cls-1" d="M161.86,28.77c-1.57,0-2.85-1.27-2.85-2.85V2.86c0-1.57,1.27-2.85,2.85-2.85s2.85,1.27,2.85,2.85v23.06c0,1.57-1.27,2.85-2.85,2.85Z"/><path class="cls-1" d="M57.04,18.28c-.94,0-1.71-.76-1.71-1.71s.76-1.71,1.71-1.71c3.16,0,5.72-2.57,5.72-5.72s-2.57-5.72-5.72-5.72h-.14c-.94,0-1.71-.76-1.71-1.71S55.96,0,56.9,0h.14C62.08,0,66.18,4.1,66.18,9.14s-4.1,9.14-9.14,9.14Z"/><path class="cls-1" d="M64.48,28.76c-.55,0-1.09-.27-1.42-.76l-4.91-7.36c-.52-.78-.31-1.85.47-2.37.78-.52,1.85-.31,2.37.47l4.91,7.36c.52.78.31,1.85-.47,2.37-.29.19-.62.29-.95.29Z"/><path class="cls-1" d="M52.49,28.77c-1.57,0-2.85-1.27-2.85-2.85V2.86C49.65,1.29,50.92.01,52.49.01s2.85,1.27,2.85,2.85v23.06c0,1.57-1.27,2.85-2.85,2.85Z"/></svg>