<?xml version="1.0" encoding="UTF-8"?><svg id="_レイヤー_1" xmlns="http://www.w3.org/2000/svg" viewBox="0 0 438.78 129.11"><defs><style>.cls-1{fill:red;}</style></defs><path class="cls-1" d="M410.1,71.59c-15.81,0-28.68,12.87-28.68,28.68s12.87,28.68,28.68,28.68,28.68-12.87,28.68-28.68-12.87-28.68-28.68-28.68ZM410.1,117.59c-9.55,0-17.32-7.77-17.32-17.32s7.77-17.32,17.32-17.32,17.32,7.77,17.32,17.32-7.77,17.32-17.32,17.32Z"/><path class="cls-1" d="M286.16,71.73c-3.14,0-5.68,2.54-5.68,5.68v23.54c-.03-1.86-1.54-3.35-3.4-3.35h-42.01c-1.86,0-3.36,1.48-3.4,3.33v-23.51c0-3.14-2.54-5.68-5.68-5.68s-5.68,2.54-5.68,5.68v45.97c0,3.14,2.54,5.68,5.68,5.68s5.68-2.54,5.68-5.68v-22.3c.04,1.85,1.55,3.33,3.4,3.33h42.01c1.86,0,3.37-1.5,3.4-3.35v22.33c0,3.14,2.54,5.68,5.68,5.68s5.68-2.54,5.68-5.68v-45.97c0-3.14-2.54-5.68-5.68-5.68Z"/><path class="cls-1" d="M155.94,71.71h-11.98c-1.88,0-3.41,1.53-3.41,3.41s1.53,3.41,3.41,3.41h11.98c1.88,0,3.41-1.53,3.41-3.41s-1.53-3.41-3.41-3.41Z"/><path class="cls-1" d="M155.94,122.14h-5.7c3-.15,5.39-2.63,5.39-5.66v-32.27c0-3.14-2.54-5.68-5.68-5.68s-5.68,2.54-5.68,5.68v32.27c0,3.04,2.39,5.51,5.39,5.66h-5.7c-1.88,0-3.41,1.53-3.41,3.41s1.53,3.41,3.41,3.41h11.98c1.88,0,3.41-1.53,3.41-3.41s-1.53-3.41-3.41-3.41Z"/><path class="cls-1" d="M321.67,71.72h-11.98c-1.88,0-3.41,1.53-3.41,3.41s1.53,3.41,3.41,3.41h11.98c1.88,0,3.41-1.53,3.41-3.41s-1.53-3.41-3.41-3.41Z"/><path class="cls-1" d="M321.67,122.15h-5.7c3-.15,5.39-2.62,5.39-5.66v-32.27c0-3.14-2.54-5.68-5.68-5.68s-5.68,2.54-5.68,5.68v32.27c0,3.04,2.39,5.51,5.39,5.66h-5.7c-1.88,0-3.41,1.53-3.41,3.41s1.53,3.41,3.41,3.41h11.98c1.88,0,3.41-1.53,3.41-3.41s-1.53-3.41-3.41-3.41Z"/><path class="cls-1" d="M200.28,83.09c3.14,0,5.68-2.54,5.68-5.68s-2.54-5.68-5.68-5.68c-15.8,0-28.66,12.86-28.66,28.66s12.86,28.66,28.66,28.66c3.14,0,5.68-2.54,5.68-5.68s-2.54-5.68-5.68-5.68c-9.54,0-17.3-7.76-17.3-17.3s7.76-17.3,17.3-17.3Z"/><path class="cls-1" d="M354.3,71.75h-.28c-1.88,0-3.41,1.53-3.41,3.41s1.53,3.41,3.41,3.41h.28c6.3,0,11.42,5.12,11.42,11.42s-5.12,11.42-11.42,11.42c-1.85,0-3.35,1.47-3.4,3.31v-27.3c0-3.14-2.54-5.68-5.68-5.68s-5.68,2.54-5.68,5.68v46.06c0,3.14,2.54,5.68,5.68,5.68s5.68-2.54,5.68-5.68v-18.56c.05,1.84,1.55,3.31,3.4,3.31,10.05,0,18.23-8.18,18.23-18.23s-8.18-18.23-18.23-18.23Z"/><path class="cls-1" d="M362.01,109.18c-1.04-1.56-3.16-1.99-4.72-.94s-1.99,3.16-.94,4.72l9.77,14.65c.66.98,1.74,1.52,2.84,1.52.65,0,1.31-.19,1.89-.57,1.57-1.04,1.99-3.16.94-4.72l-9.77-14.65Z"/><path class="cls-1" d="M51.68,71.73c-3.14,0-5.68,2.54-5.68,5.68,0,9.55-7.77,17.32-17.32,17.32s-17.32-7.77-17.32-17.32c0-3.14-2.54-5.68-5.68-5.68s-5.68,2.54-5.68,5.68c0,15.79,12.83,28.64,28.61,28.68-1.85.04-3.34,1.55-3.34,3.4v16.16c0,1.88,1.53,3.41,3.41,3.41s3.41-1.53,3.41-3.41v-16.16c0-1.86-1.49-3.37-3.34-3.4,15.78-.04,28.61-12.89,28.61-28.68,0-3.14-2.54-5.68-5.68-5.68Z"/><path class="cls-1" d="M120.62,83.13c1.83-.06,3.3-1.56,3.3-3.4v-4.61c0-1.88-1.53-3.41-3.41-3.41s-3.41,1.53-3.41,3.41v4.61c0,1.85,1.47,3.35,3.3,3.4-3.09.06-5.57,2.57-5.57,5.67v11.63c0,9.55-7.77,17.32-17.32,17.32s-17.32-7.77-17.32-17.32v-11.63c0-3.1-2.49-5.62-5.57-5.67,1.83-.06,3.3-1.56,3.3-3.4v-4.61c0-1.88-1.53-3.41-3.41-3.41s-3.41,1.53-3.41,3.41v4.61c0,1.85,1.47,3.35,3.3,3.4-3.09.06-5.57,2.57-5.57,5.67v11.63c0,15.81,12.87,28.68,28.68,28.68s28.68-12.87,28.68-28.68v-11.63c0-3.1-2.49-5.62-5.57-5.67Z"/><path class="cls-1" d="M258.3,28.76c-.54,0-1.09-.15-1.58-.48-1.31-.87-1.66-2.64-.79-3.95l15.38-23.07c.87-1.31,2.64-1.66,3.95-.79,1.31.87,1.66,2.64.79,3.95l-15.38,23.07c-.55.82-1.45,1.27-2.37,1.27Z"/><path class="cls-1" d="M294.77,28.76c-.92,0-1.82-.45-2.37-1.27l-15.38-23.07c-.87-1.31-.52-3.08.79-3.95,1.31-.87,3.08-.52,3.95.79l15.38,23.07c.87,1.31.52,3.08-.79,3.95-.49.32-1.03.48-1.58.48Z"/><path class="cls-1" d="M285.03,21.24h-16.99c-.94,0-1.71-.76-1.71-1.71s.76-1.71,1.71-1.71h16.99c.94,0,1.71.76,1.71,1.71s-.76,1.71-1.71,1.71Z"/><path class="cls-1" d="M244.7,28.76c-.94,0-1.71-.76-1.71-1.71V7.4c0-.94.76-1.71,1.71-1.71s1.71.76,1.71,1.71v19.65c0,.94-.76,1.71-1.71,1.71Z"/><path class="cls-1" d="M251.06,5.69h-12.71c-1.57,0-2.85-1.27-2.85-2.85s1.27-2.85,2.85-2.85h12.71c1.57,0,2.85,1.27,2.85,2.85s-1.27,2.85-2.85,2.85Z"/><path class="cls-1" d="M308.36,28.76c-.94,0-1.71-.76-1.71-1.71V7.4c0-.94.76-1.71,1.71-1.71s1.71.76,1.71,1.71v19.65c0,.94-.76,1.71-1.71,1.71Z"/><path class="cls-1" d="M314.72,5.69h-12.71c-1.57,0-2.85-1.27-2.85-2.85s1.27-2.85,2.85-2.85h12.71c1.57,0,2.85,1.27,2.85,2.85s-1.27,2.85-2.85,2.85Z"/><path class="cls-1" d="M332.84,3.42h-6.01c-.94,0-1.71-.76-1.71-1.71s.76-1.71,1.71-1.71h6.01c.94,0,1.71.76,1.71,1.71s-.76,1.71-1.71,1.71Z"/><path class="cls-1" d="M332.84,28.77h-6.01c-.94,0-1.71-.76-1.71-1.71s.76-1.71,1.71-1.71h6.01c.94,0,1.71.76,1.71,1.71s-.76,1.71-1.71,1.71Z"/><path class="cls-1" d="M329.81,25.35h0c-1.57,0-2.85-1.28-2.84-2.85l.02-16.24c0-1.57,1.28-2.84,2.85-2.84h0c1.57,0,2.85,1.28,2.84,2.85l-.02,16.24c0,1.57-1.28,2.84-2.85,2.84Z"/><path class="cls-1" d="M154.65,17.23c-4.75,0-8.62-3.86-8.62-8.62s3.86-8.62,8.62-8.62c1.57,0,2.85,1.27,2.85,2.85s-1.27,2.85-2.85,2.85-2.92,1.31-2.92,2.92,1.31,2.92,2.92,2.92,2.85,1.27,2.85,2.85-1.27,2.85-2.85,2.85Z"/><path class="cls-1" d="M159.06,28.76c-.94,0-1.71-.76-1.71-1.71s.76-1.71,1.71-1.71c2.24,0,4.06-1.82,4.06-4.06s-1.82-4.06-4.06-4.06c-.94,0-1.71-.76-1.71-1.71s.76-1.71,1.71-1.71c4.12,0,7.48,3.35,7.48,7.48s-3.35,7.48-7.48,7.48Z"/><path class="cls-1" d="M77.98,28.77c-.94,0-1.71-.76-1.71-1.71V1.71c0-.94.76-1.71,1.71-1.71s1.71.76,1.71,1.71v25.35c0,.94-.76,1.71-1.71,1.71Z"/><path class="cls-1" d="M82.53,18.38c-1.57,0-2.85-1.27-2.85-2.85s1.27-2.85,2.85-2.85c1.92,0,3.49-1.57,3.49-3.49s-1.57-3.49-3.49-3.49c-1.57,0-2.85-1.27-2.85-2.85S80.96.01,82.53.01c5.06,0,9.18,4.12,9.18,9.18s-4.12,9.18-9.18,9.18Z"/><path class="cls-1" d="M360.71,28.76c-.55,0-1.09-.27-1.42-.76l-16.9-25.34c-.52-.79-.31-1.85.47-2.37.79-.52,1.85-.31,2.37.47l16.9,25.34c.52.79.31,1.85-.47,2.37-.29.19-.62.29-.95.29Z"/><path class="cls-1" d="M365.11,28.77c-.54,0-1.09-.15-1.58-.48-1.31-.87-1.66-2.64-.79-3.95l15.38-23.07c.87-1.31,2.64-1.66,3.95-.79,1.31.87,1.66,2.64.79,3.95l-15.38,23.07c-.55.82-1.45,1.27-2.37,1.27Z"/><path class="cls-1" d="M404.31,3.42h-6.15c-.94,0-1.71-.76-1.71-1.71s.76-1.71,1.71-1.71h6.15c.94,0,1.71.76,1.71,1.71s-.76,1.71-1.71,1.71Z"/><path class="cls-1" d="M404.31,28.77h-6.15c-.94,0-1.71-.76-1.71-1.71s.76-1.71,1.71-1.71h6.15c.94,0,1.71.76,1.71,1.71s-.76,1.71-1.71,1.71Z"/><path class="cls-1" d="M393.75,28.77c-1.57,0-2.85-1.27-2.85-2.85V2.86c0-1.57,1.27-2.85,2.85-2.85s2.85,1.27,2.85,2.85v23.07c0,1.57-1.27,2.85-2.85,2.85Z"/><path class="cls-1" d="M404.31,16.1h-6.01c-.94,0-1.71-.76-1.71-1.71s.76-1.71,1.71-1.71h6.01c.94,0,1.71.76,1.71,1.71s-.76,1.71-1.71,1.71Z"/><path class="cls-1" d="M187.5,3.42h-6.15c-.94,0-1.71-.76-1.71-1.71s.76-1.71,1.71-1.71h6.15c.94,0,1.71.76,1.71,1.71s-.76,1.71-1.71,1.71Z"/><path class="cls-1" d="M187.5,28.77h-6.15c-.94,0-1.71-.76-1.71-1.71s.76-1.71,1.71-1.71h6.15c.94,0,1.71.76,1.71,1.71s-.76,1.71-1.71,1.71Z"/><path class="cls-1" d="M176.94,28.77c-1.57,0-2.85-1.27-2.85-2.85V2.86c0-1.57,1.27-2.85,2.85-2.85s2.85,1.27,2.85,2.85v23.07c0,1.57-1.27,2.85-2.85,2.85Z"/><path class="cls-1" d="M187.5,16.1h-6.01c-.94,0-1.71-.76-1.71-1.71s.76-1.71,1.71-1.71h6.01c.94,0,1.71.76,1.71,1.71s-.76,1.71-1.71,1.71Z"/><path class="cls-1" d="M136.77,3.42h-6.15c-.94,0-1.71-.76-1.71-1.71s.76-1.71,1.71-1.71h6.15c.94,0,1.71.76,1.71,1.71s-.76,1.71-1.71,1.71Z"/><path class="cls-1" d="M136.77,28.77h-6.15c-.94,0-1.71-.76-1.71-1.71s.76-1.71,1.71-1.71h6.15c.94,0,1.71.76,1.71,1.71s-.76,1.71-1.71,1.71Z"/><path class="cls-1" d="M126.21,28.77c-1.57,0-2.85-1.27-2.85-2.85V2.86c0-1.57,1.27-2.85,2.85-2.85s2.85,1.27,2.85,2.85v23.07c0,1.57-1.27,2.85-2.85,2.85Z"/><path class="cls-1" d="M136.77,16.1h-6.01c-.94,0-1.71-.76-1.71-1.71s.76-1.71,1.71-1.71h6.01c.94,0,1.71.76,1.71,1.71s-.76,1.71-1.71,1.71Z"/><path class="cls-1" d="M67,3.42h-6.15c-.94,0-1.71-.76-1.71-1.71s.76-1.71,1.71-1.71h6.15c.94,0,1.71.76,1.71,1.71s-.76,1.71-1.71,1.71Z"/><path class="cls-1" d="M67,28.77h-6.15c-.94,0-1.71-.76-1.71-1.71s.76-1.71,1.71-1.71h6.15c.94,0,1.71.76,1.71,1.71s-.76,1.71-1.71,1.71Z"/><path class="cls-1" d="M56.45,28.77c-1.57,0-2.85-1.27-2.85-2.85V2.86C53.6,1.29,54.87.01,56.45.01s2.85,1.27,2.85,2.85v23.07c0,1.57-1.27,2.85-2.85,2.85Z"/><path class="cls-1" d="M67,16.1h-6.01c-.94,0-1.71-.76-1.71-1.71s.76-1.71,1.71-1.71h6.01c.94,0,1.71.76,1.71,1.71s-.76,1.71-1.71,1.71Z"/><path class="cls-1" d="M220.69,28.78c-.55,0-1.09-.27-1.42-.76l-16.91-25.36c-.52-.79-.31-1.85.47-2.37.78-.52,1.85-.31,2.37.47l16.91,25.36c.52.79.31,1.85-.47,2.37-.29.19-.62.29-.95.29Z"/><path class="cls-1" d="M199.37,28.77c-1.57,0-2.85-1.27-2.85-2.85V2.86c0-1.57,1.27-2.85,2.85-2.85s2.85,1.27,2.85,2.85v23.07c0,1.57-1.27,2.85-2.85,2.85Z"/><path class="cls-1" d="M225.1,28.77c-1.57,0-2.85-1.27-2.85-2.85V2.86c0-1.57,1.27-2.85,2.85-2.85s2.85,1.27,2.85,2.85v23.07c0,1.57-1.27,2.85-2.85,2.85Z"/><path class="cls-1" d="M106.67,18.29c-.94,0-1.71-.76-1.71-1.71s.76-1.71,1.71-1.71c3.16,0,5.73-2.57,5.73-5.73s-2.57-5.73-5.73-5.73h-.14c-.94,0-1.71-.76-1.71-1.71s.76-1.71,1.71-1.71h.14c5.04,0,9.14,4.1,9.14,9.14s-4.1,9.14-9.14,9.14Z"/><path class="cls-1" d="M114.1,28.77c-.55,0-1.09-.27-1.42-.76l-4.91-7.36c-.52-.79-.31-1.85.47-2.37s1.85-.31,2.37.47l4.91,7.36c.52.79.31,1.85-.47,2.37-.29.19-.62.29-.95.29Z"/><path class="cls-1" d="M102.12,28.77c-1.57,0-2.85-1.27-2.85-2.85V2.86c0-1.57,1.27-2.85,2.85-2.85s2.85,1.27,2.85,2.85v23.07c0,1.57-1.27,2.85-2.85,2.85Z"/><path class="cls-1" d="M36.9,18.29c-.94,0-1.71-.76-1.71-1.71s.76-1.71,1.71-1.71c3.16,0,5.73-2.57,5.73-5.73s-2.57-5.73-5.73-5.73h-.14c-.94,0-1.71-.76-1.71-1.71s.76-1.71,1.71-1.71h.14c5.04,0,9.14,4.1,9.14,9.14s-4.1,9.14-9.14,9.14Z"/><path class="cls-1" d="M44.34,28.77c-.55,0-1.09-.27-1.42-.76l-4.91-7.36c-.52-.79-.31-1.85.47-2.37s1.85-.31,2.37.47l4.91,7.36c.52.79.31,1.85-.47,2.37-.29.19-.62.29-.95.29Z"/><path class="cls-1" d="M32.35,28.77c-1.57,0-2.85-1.27-2.85-2.85V2.86C29.5,1.29,30.78.01,32.35.01s2.85,1.27,2.85,2.85v23.07c0,1.57-1.27,2.85-2.85,2.85Z"/></svg>