<?xml version="1.0" encoding="UTF-8"?><svg id="_レイヤー_1" xmlns="http://www.w3.org/2000/svg" viewBox="0 0 60.7 22.79"><defs><style>.cls-1{fill:#fff;}</style></defs><path class="cls-1" d="M7.29,22.79c-.75,0-1.35-.61-1.35-1.35V5.87c0-.75.61-1.35,1.35-1.35s1.35.61,1.35,1.35v15.57c0,.75-.61,1.35-1.35,1.35Z"/><path class="cls-1" d="M12.33,4.51H2.26c-1.25,0-2.26-1.01-2.26-2.26S1.01,0,2.26,0h10.07c1.25,0,2.26,1.01,2.26,2.26s-1.01,2.26-2.26,2.26Z"/><path class="cls-1" d="M30.73,22.79c-6.28,0-11.39-5.11-11.39-11.39S24.45,0,30.73,0c1.25,0,2.25,1.01,2.25,2.25s-1.01,2.25-2.25,2.25c-3.79,0-6.88,3.09-6.88,6.88s3.09,6.88,6.88,6.88c1.25,0,2.25,1.01,2.25,2.25s-1.01,2.25-2.25,2.25Z"/><path class="cls-1" d="M30.73,22.79c-1.25,0-2.25-1.01-2.25-2.25s1.01-2.25,2.25-2.25c3.79,0,6.88-3.09,6.88-6.88s-3.09-6.88-6.88-6.88c-1.25,0-2.25-1.01-2.25-2.25S29.48,0,30.73,0c6.28,0,11.39,5.11,11.39,11.39s-5.11,11.39-11.39,11.39Z"/><path class="cls-1" d="M49.82,22.78c-.75,0-1.35-.61-1.35-1.35V1.35C48.47.61,49.08,0,49.82,0s1.35.61,1.35,1.35v20.08c0,.75-.61,1.35-1.35,1.35Z"/><path class="cls-1" d="M53.43,14.56c-1.25,0-2.25-1.01-2.25-2.25s1.01-2.25,2.25-2.25c1.52,0,2.76-1.24,2.76-2.76s-1.24-2.76-2.76-2.76c-1.25,0-2.25-1.01-2.25-2.25S52.18,0,53.43,0c4.01,0,7.27,3.26,7.27,7.27s-3.26,7.27-7.27,7.27Z"/></svg>