<?xml version="1.0" encoding="UTF-8"?><svg id="_レイヤー_1" xmlns="http://www.w3.org/2000/svg" viewBox="0 0 104.02 39.05"><defs><style>.cls-1{fill:#fff;}</style></defs><path class="cls-1" d="M12.5,39.05c-1.28,0-2.32-1.04-2.32-2.32V10.05c0-1.28,1.04-2.32,2.32-2.32s2.32,1.04,2.32,2.32v26.68c0,1.28-1.04,2.32-2.32,2.32Z"/><path class="cls-1" d="M21.12,7.73H3.87c-2.14,0-3.87-1.73-3.87-3.87S1.73,0,3.87,0h17.26c2.14,0,3.87,1.73,3.87,3.87s-1.73,3.87-3.87,3.87Z"/><path class="cls-1" d="M52.66,39.05c-10.76,0-19.52-8.76-19.52-19.52S41.89.01,52.66.01c2.13,0,3.86,1.73,3.86,3.86s-1.73,3.86-3.86,3.86c-6.5,0-11.79,5.29-11.79,11.79s5.29,11.79,11.79,11.79c2.13,0,3.86,1.73,3.86,3.86s-1.73,3.86-3.86,3.86Z"/><path class="cls-1" d="M52.66,39.05c-2.13,0-3.86-1.73-3.86-3.86s1.73-3.86,3.86-3.86c6.5,0,11.79-5.29,11.79-11.79s-5.29-11.79-11.79-11.79c-2.13,0-3.86-1.73-3.86-3.86S50.52.01,52.66.01c10.76,0,19.52,8.76,19.52,19.52s-8.76,19.52-19.52,19.52Z"/><path class="cls-1" d="M85.38,39.04c-1.28,0-2.32-1.04-2.32-2.32V2.32C83.06,1.04,84.1,0,85.38,0s2.32,1.04,2.32,2.32v34.4c0,1.28-1.04,2.32-2.32,2.32Z"/><path class="cls-1" d="M91.56,24.94c-2.13,0-3.86-1.73-3.86-3.86s1.73-3.86,3.86-3.86c2.61,0,4.74-2.12,4.74-4.74s-2.12-4.74-4.74-4.74c-2.13,0-3.86-1.73-3.86-3.86S89.42.01,91.56.01c6.87,0,12.46,5.59,12.46,12.46s-5.59,12.46-12.46,12.46Z"/></svg>