<?xml version="1.0" encoding="UTF-8"?><svg id="_レイヤー_1" xmlns="http://www.w3.org/2000/svg" viewBox="0 0 64 64"><defs><style>.cls-1{fill:red;}</style></defs><path class="cls-1" d="M20.81,10.32c-.83-1.25-2.52-1.59-3.77-.75-1.25.83-1.59,2.52-.75,3.77l26.9,40.35c.52.79,1.39,1.21,2.26,1.21.52,0,1.04-.15,1.51-.46,1.25-.83,1.59-2.52.75-3.77L20.81,10.32Z"/><path class="cls-1" d="M11.53,9.12c-2.5,0-4.53,2.03-4.53,4.53v36.7c0,2.5,2.03,4.53,4.53,4.53s4.53-2.03,4.53-4.53V13.65c0-2.5-2.03-4.53-4.53-4.53Z"/><path class="cls-1" d="M52.47,9.12c-2.5,0-4.53,2.03-4.53,4.53v36.7c0,2.5,2.03,4.53,4.53,4.53s4.53-2.03,4.53-4.53V13.65c0-2.5-2.03-4.53-4.53-4.53Z"/></svg>